G04 EAGLE Gerber RS-274X export*
G75*
%MOMM*%
%FSLAX34Y34*%
%LPD*%
%INSolderpaste Top*%
%IPPOS*%
%AMOC8*
5,1,8,0,0,1.08239X$1,22.5*%
G01*
%ADD10R,1.100000X1.000000*%
%ADD11R,0.800000X0.800000*%
%ADD12R,0.600000X0.540000*%
%ADD13R,0.250000X0.800000*%
%ADD14R,0.800000X0.250000*%
%ADD15R,2.700000X2.700000*%
%ADD16R,1.000000X1.100000*%
%ADD17R,2.800000X2.200000*%
%ADD18R,2.800000X2.800000*%
%ADD19R,1.000000X1.020000*%
%ADD20R,0.450000X1.200000*%
%ADD21R,2.300000X2.200000*%
%ADD22R,2.500000X2.200000*%


D10*
X632000Y616500D03*
X615000Y616500D03*
D11*
X660000Y616500D03*
X645000Y616500D03*
D12*
X517250Y272150D03*
X517250Y252850D03*
X527750Y252850D03*
X527750Y272150D03*
D10*
X527500Y314000D03*
X510500Y314000D03*
X527500Y298500D03*
X510500Y298500D03*
X486000Y272500D03*
X469000Y272500D03*
X486000Y255000D03*
X469000Y255000D03*
X433000Y288000D03*
X450000Y288000D03*
X450000Y303000D03*
X433000Y303000D03*
X433000Y318000D03*
X450000Y318000D03*
X450000Y272500D03*
X433000Y272500D03*
X450000Y257000D03*
X433000Y257000D03*
D12*
X517250Y207150D03*
X517250Y187850D03*
X527750Y187850D03*
X527750Y207150D03*
D10*
X483500Y207500D03*
X466500Y207500D03*
X483500Y190000D03*
X466500Y190000D03*
X450000Y182500D03*
X433000Y182500D03*
X450000Y197500D03*
X433000Y197500D03*
D13*
X208500Y244500D03*
X204000Y244500D03*
X199500Y244500D03*
X195000Y244500D03*
X190500Y244500D03*
X186000Y244500D03*
X181500Y244500D03*
D14*
X175500Y238500D03*
X175500Y234000D03*
X175500Y229500D03*
X175500Y225000D03*
X175500Y220500D03*
X175500Y216000D03*
X175500Y211500D03*
D13*
X181500Y205500D03*
X186000Y205500D03*
X190500Y205500D03*
X195000Y205500D03*
X199500Y205500D03*
X204000Y205500D03*
X208500Y205500D03*
D14*
X214500Y211500D03*
X214500Y216000D03*
X214500Y220500D03*
X214500Y225000D03*
X214500Y229500D03*
X214500Y234000D03*
X214500Y238500D03*
D15*
X195000Y225000D03*
D10*
X203000Y176000D03*
X220000Y176000D03*
X169000Y176000D03*
X186000Y176000D03*
X151500Y176000D03*
X134500Y176000D03*
X236500Y176000D03*
X253500Y176000D03*
X237000Y273500D03*
X254000Y273500D03*
X204000Y273500D03*
X221000Y273500D03*
X204000Y290000D03*
X221000Y290000D03*
X237000Y290000D03*
X254000Y290000D03*
X151500Y160000D03*
X134500Y160000D03*
X169000Y160000D03*
X186000Y160000D03*
X203000Y160000D03*
X220000Y160000D03*
X236500Y160000D03*
X253500Y160000D03*
X151500Y254500D03*
X134500Y254500D03*
X254000Y254500D03*
X237000Y254500D03*
D16*
X188500Y291000D03*
X188500Y274000D03*
X172500Y291000D03*
X172500Y274000D03*
X156500Y291000D03*
X156500Y274000D03*
X135000Y291000D03*
X135000Y274000D03*
D17*
X228000Y44000D03*
X302000Y24000D03*
D18*
X302000Y118000D03*
D10*
X134500Y239500D03*
X151500Y239500D03*
X134500Y224500D03*
X151500Y224500D03*
D19*
X150590Y191500D03*
X135410Y191500D03*
X150590Y207500D03*
X135410Y207500D03*
D10*
X237000Y191750D03*
X254000Y191750D03*
X254000Y239000D03*
X237000Y239000D03*
X148500Y632500D03*
X131500Y632500D03*
X148500Y617500D03*
X131500Y617500D03*
D20*
X432750Y215000D03*
X439250Y215000D03*
X445750Y215000D03*
X452250Y215000D03*
X452250Y240000D03*
X445750Y240000D03*
X439250Y240000D03*
X432750Y240000D03*
D10*
X237000Y222500D03*
X254000Y222500D03*
X237000Y207500D03*
X254000Y207500D03*
D21*
X101500Y38000D03*
X101500Y68000D03*
X103500Y108000D03*
D22*
X171500Y123000D03*
M02*
