G04 EAGLE Gerber RS-274X export*
G75*
%MOMM*%
%FSLAX34Y34*%
%LPD*%
%INBottom Copper*%
%IPPOS*%
%AMOC8*
5,1,8,0,0,1.08239X$1,22.5*%
G01*
%ADD10C,1.879600*%
%ADD11P,1.649562X8X22.500000*%
%ADD12R,0.635000X1.270000*%
%ADD13C,0.254000*%
%ADD14C,0.756400*%
%ADD15C,0.508000*%
%ADD16C,0.956400*%

G36*
X654807Y10169D02*
X654807Y10169D01*
X654845Y10168D01*
X654891Y10189D01*
X654939Y10200D01*
X654968Y10224D01*
X655003Y10240D01*
X655034Y10279D01*
X655073Y10310D01*
X655088Y10345D01*
X655112Y10374D01*
X655123Y10423D01*
X655144Y10469D01*
X655142Y10506D01*
X655151Y10543D01*
X655139Y10592D01*
X655137Y10642D01*
X655119Y10675D01*
X655110Y10712D01*
X655078Y10750D01*
X655054Y10794D01*
X655024Y10816D01*
X654999Y10845D01*
X654944Y10872D01*
X654913Y10894D01*
X654890Y10898D01*
X654869Y10908D01*
X651823Y11724D01*
X645516Y15366D01*
X640366Y20516D01*
X636724Y26823D01*
X636373Y28133D01*
X635864Y30034D01*
X634839Y33858D01*
X634839Y41142D01*
X636724Y48177D01*
X640366Y54484D01*
X645516Y59634D01*
X651823Y63276D01*
X658858Y65161D01*
X666142Y65161D01*
X673177Y63276D01*
X679484Y59634D01*
X684634Y54484D01*
X688276Y48177D01*
X689092Y45131D01*
X689110Y45098D01*
X689118Y45061D01*
X689150Y45022D01*
X689174Y44978D01*
X689204Y44956D01*
X689228Y44927D01*
X689274Y44907D01*
X689315Y44878D01*
X689352Y44872D01*
X689387Y44856D01*
X689436Y44858D01*
X689486Y44850D01*
X689522Y44861D01*
X689560Y44863D01*
X689604Y44887D01*
X689651Y44901D01*
X689679Y44928D01*
X689712Y44946D01*
X689741Y44986D01*
X689777Y45021D01*
X689790Y45056D01*
X689812Y45087D01*
X689823Y45148D01*
X689836Y45183D01*
X689835Y45207D01*
X689839Y45230D01*
X689839Y654770D01*
X689831Y654807D01*
X689832Y654845D01*
X689811Y654891D01*
X689800Y654939D01*
X689776Y654968D01*
X689760Y655003D01*
X689721Y655034D01*
X689690Y655073D01*
X689655Y655088D01*
X689626Y655112D01*
X689577Y655123D01*
X689531Y655144D01*
X689494Y655142D01*
X689457Y655151D01*
X689408Y655139D01*
X689358Y655137D01*
X689325Y655119D01*
X689288Y655110D01*
X689250Y655078D01*
X689206Y655054D01*
X689184Y655024D01*
X689155Y654999D01*
X689128Y654944D01*
X689106Y654913D01*
X689102Y654890D01*
X689092Y654869D01*
X688276Y651823D01*
X684634Y645516D01*
X679484Y640366D01*
X673177Y636724D01*
X666142Y634839D01*
X658858Y634839D01*
X651823Y636724D01*
X645516Y640366D01*
X640366Y645516D01*
X636724Y651823D01*
X635625Y655926D01*
X634839Y658858D01*
X634839Y666142D01*
X636724Y673177D01*
X640366Y679484D01*
X645516Y684634D01*
X651823Y688276D01*
X654869Y689092D01*
X654902Y689110D01*
X654939Y689118D01*
X654978Y689150D01*
X655022Y689174D01*
X655044Y689204D01*
X655073Y689228D01*
X655093Y689274D01*
X655122Y689315D01*
X655128Y689352D01*
X655144Y689387D01*
X655142Y689436D01*
X655150Y689486D01*
X655139Y689522D01*
X655137Y689560D01*
X655113Y689604D01*
X655099Y689651D01*
X655073Y689679D01*
X655054Y689712D01*
X655014Y689741D01*
X654979Y689777D01*
X654944Y689790D01*
X654913Y689812D01*
X654852Y689823D01*
X654817Y689836D01*
X654793Y689835D01*
X654770Y689839D01*
X394500Y689839D01*
X394450Y689828D01*
X394399Y689826D01*
X394367Y689808D01*
X394331Y689800D01*
X394292Y689767D01*
X394247Y689743D01*
X394226Y689713D01*
X394198Y689690D01*
X394177Y689643D01*
X394147Y689601D01*
X394139Y689559D01*
X394127Y689531D01*
X394128Y689501D01*
X394120Y689459D01*
X394120Y684319D01*
X394131Y684269D01*
X394133Y684218D01*
X394151Y684186D01*
X394159Y684150D01*
X394192Y684111D01*
X394216Y684066D01*
X394246Y684045D01*
X394269Y684017D01*
X394316Y683996D01*
X394358Y683966D01*
X394400Y683958D01*
X394428Y683946D01*
X394458Y683947D01*
X394500Y683939D01*
X394975Y683939D01*
X399363Y682121D01*
X402721Y678763D01*
X404539Y674375D01*
X404539Y669625D01*
X402721Y665237D01*
X399363Y661879D01*
X394975Y660061D01*
X394500Y660061D01*
X394450Y660050D01*
X394399Y660048D01*
X394367Y660030D01*
X394331Y660022D01*
X394292Y659989D01*
X394247Y659965D01*
X394226Y659935D01*
X394198Y659912D01*
X394177Y659865D01*
X394147Y659823D01*
X394139Y659781D01*
X394127Y659753D01*
X394128Y659723D01*
X394120Y659681D01*
X394120Y556658D01*
X387843Y550380D01*
X282500Y550380D01*
X282426Y550363D01*
X282351Y550350D01*
X282341Y550343D01*
X282331Y550341D01*
X282302Y550317D01*
X282231Y550269D01*
X268324Y536362D01*
X268285Y536299D01*
X268242Y536239D01*
X268239Y536225D01*
X268233Y536215D01*
X268229Y536176D01*
X268213Y536097D01*
X267618Y484380D01*
X59191Y484380D01*
X59141Y484369D01*
X59090Y484367D01*
X59058Y484349D01*
X59022Y484341D01*
X58983Y484308D01*
X58938Y484284D01*
X58917Y484254D01*
X58889Y484231D01*
X58868Y484184D01*
X58838Y484142D01*
X58830Y484100D01*
X58818Y484072D01*
X58819Y484042D01*
X58811Y484000D01*
X58811Y467236D01*
X58828Y467162D01*
X58841Y467087D01*
X58848Y467077D01*
X58850Y467067D01*
X58874Y467038D01*
X58922Y466967D01*
X67811Y458078D01*
X67811Y454922D01*
X65578Y452689D01*
X62422Y452689D01*
X51189Y463922D01*
X51189Y484000D01*
X51178Y484050D01*
X51176Y484101D01*
X51158Y484133D01*
X51150Y484169D01*
X51117Y484208D01*
X51093Y484253D01*
X51063Y484274D01*
X51040Y484302D01*
X50993Y484323D01*
X50951Y484353D01*
X50909Y484361D01*
X50881Y484373D01*
X50851Y484372D01*
X50809Y484380D01*
X10541Y484380D01*
X10491Y484369D01*
X10440Y484367D01*
X10408Y484349D01*
X10372Y484341D01*
X10333Y484308D01*
X10288Y484284D01*
X10267Y484254D01*
X10239Y484231D01*
X10218Y484184D01*
X10188Y484142D01*
X10180Y484100D01*
X10168Y484072D01*
X10169Y484042D01*
X10161Y484000D01*
X10161Y45230D01*
X10169Y45193D01*
X10168Y45155D01*
X10189Y45109D01*
X10200Y45061D01*
X10224Y45032D01*
X10240Y44997D01*
X10279Y44966D01*
X10310Y44927D01*
X10345Y44912D01*
X10374Y44888D01*
X10423Y44877D01*
X10469Y44856D01*
X10506Y44858D01*
X10543Y44849D01*
X10592Y44861D01*
X10642Y44863D01*
X10675Y44881D01*
X10712Y44890D01*
X10750Y44922D01*
X10794Y44946D01*
X10816Y44977D01*
X10845Y45001D01*
X10872Y45056D01*
X10894Y45087D01*
X10898Y45110D01*
X10908Y45131D01*
X11724Y48177D01*
X15366Y54484D01*
X20516Y59634D01*
X26823Y63276D01*
X33858Y65161D01*
X41142Y65161D01*
X48177Y63276D01*
X54484Y59634D01*
X59634Y54484D01*
X63276Y48177D01*
X63402Y47705D01*
X65161Y41142D01*
X65161Y33858D01*
X63276Y26823D01*
X59634Y20516D01*
X54484Y15366D01*
X48177Y11724D01*
X45131Y10908D01*
X45098Y10890D01*
X45061Y10882D01*
X45022Y10850D01*
X44978Y10826D01*
X44956Y10796D01*
X44927Y10772D01*
X44907Y10726D01*
X44878Y10685D01*
X44872Y10648D01*
X44856Y10613D01*
X44858Y10564D01*
X44850Y10514D01*
X44861Y10478D01*
X44863Y10440D01*
X44887Y10396D01*
X44901Y10349D01*
X44927Y10321D01*
X44946Y10288D01*
X44986Y10259D01*
X45021Y10223D01*
X45056Y10210D01*
X45087Y10188D01*
X45148Y10177D01*
X45183Y10164D01*
X45207Y10165D01*
X45230Y10161D01*
X654770Y10161D01*
X654807Y10169D01*
G37*
G36*
X50859Y494631D02*
X50859Y494631D01*
X50910Y494633D01*
X50942Y494651D01*
X50978Y494659D01*
X51017Y494692D01*
X51062Y494716D01*
X51083Y494746D01*
X51111Y494769D01*
X51132Y494816D01*
X51162Y494858D01*
X51170Y494900D01*
X51182Y494928D01*
X51181Y494958D01*
X51189Y495000D01*
X51189Y626578D01*
X101422Y676811D01*
X272459Y676811D01*
X272509Y676822D01*
X272560Y676824D01*
X272592Y676842D01*
X272628Y676850D01*
X272667Y676883D01*
X272712Y676907D01*
X272733Y676937D01*
X272761Y676960D01*
X272782Y677007D01*
X272812Y677049D01*
X272820Y677091D01*
X272832Y677119D01*
X272831Y677149D01*
X272839Y677191D01*
X272839Y677209D01*
X278791Y683161D01*
X287209Y683161D01*
X293161Y677209D01*
X293161Y668791D01*
X287209Y662839D01*
X278791Y662839D01*
X272839Y668791D01*
X272839Y668809D01*
X272828Y668859D01*
X272826Y668910D01*
X272808Y668942D01*
X272800Y668978D01*
X272767Y669017D01*
X272743Y669062D01*
X272713Y669083D01*
X272690Y669111D01*
X272643Y669132D01*
X272601Y669162D01*
X272559Y669170D01*
X272531Y669182D01*
X272501Y669181D01*
X272459Y669189D01*
X104736Y669189D01*
X104662Y669172D01*
X104587Y669159D01*
X104577Y669152D01*
X104567Y669150D01*
X104538Y669126D01*
X104467Y669078D01*
X58922Y623533D01*
X58882Y623468D01*
X58838Y623406D01*
X58836Y623394D01*
X58831Y623386D01*
X58827Y623349D01*
X58811Y623264D01*
X58811Y495000D01*
X58822Y494950D01*
X58824Y494899D01*
X58842Y494867D01*
X58850Y494831D01*
X58883Y494792D01*
X58907Y494747D01*
X58937Y494726D01*
X58960Y494698D01*
X59007Y494677D01*
X59049Y494647D01*
X59091Y494639D01*
X59119Y494627D01*
X59149Y494628D01*
X59191Y494620D01*
X264500Y494620D01*
X264550Y494631D01*
X264601Y494633D01*
X264633Y494651D01*
X264669Y494659D01*
X264708Y494692D01*
X264753Y494716D01*
X264774Y494746D01*
X264802Y494769D01*
X264823Y494816D01*
X264853Y494858D01*
X264861Y494900D01*
X264873Y494928D01*
X264872Y494958D01*
X264880Y495000D01*
X264880Y542343D01*
X280158Y557620D01*
X385000Y557620D01*
X385074Y557637D01*
X385149Y557650D01*
X385159Y557657D01*
X385169Y557659D01*
X385198Y557683D01*
X385269Y557731D01*
X392269Y564731D01*
X392309Y564796D01*
X392353Y564858D01*
X392355Y564870D01*
X392360Y564878D01*
X392364Y564915D01*
X392380Y565000D01*
X392380Y659681D01*
X392369Y659731D01*
X392367Y659782D01*
X392349Y659814D01*
X392341Y659850D01*
X392308Y659889D01*
X392284Y659934D01*
X392254Y659955D01*
X392231Y659983D01*
X392184Y660004D01*
X392142Y660034D01*
X392100Y660042D01*
X392072Y660054D01*
X392042Y660053D01*
X392000Y660061D01*
X390225Y660061D01*
X385837Y661879D01*
X382479Y665237D01*
X380661Y669625D01*
X380661Y674375D01*
X382479Y678763D01*
X385837Y682121D01*
X390225Y683939D01*
X392000Y683939D01*
X392050Y683950D01*
X392101Y683952D01*
X392133Y683970D01*
X392169Y683978D01*
X392208Y684011D01*
X392253Y684035D01*
X392274Y684065D01*
X392302Y684088D01*
X392323Y684135D01*
X392353Y684177D01*
X392361Y684219D01*
X392373Y684247D01*
X392372Y684277D01*
X392380Y684319D01*
X392380Y689459D01*
X392369Y689509D01*
X392367Y689560D01*
X392349Y689592D01*
X392341Y689628D01*
X392308Y689667D01*
X392284Y689712D01*
X392254Y689733D01*
X392231Y689761D01*
X392184Y689782D01*
X392142Y689812D01*
X392100Y689820D01*
X392072Y689832D01*
X392042Y689831D01*
X392000Y689839D01*
X45230Y689839D01*
X45193Y689831D01*
X45155Y689832D01*
X45109Y689811D01*
X45061Y689800D01*
X45032Y689776D01*
X44997Y689760D01*
X44966Y689721D01*
X44927Y689690D01*
X44912Y689655D01*
X44888Y689626D01*
X44877Y689577D01*
X44856Y689531D01*
X44858Y689494D01*
X44849Y689457D01*
X44861Y689408D01*
X44863Y689358D01*
X44881Y689325D01*
X44890Y689288D01*
X44922Y689250D01*
X44946Y689206D01*
X44976Y689184D01*
X45001Y689155D01*
X45056Y689128D01*
X45087Y689106D01*
X45110Y689102D01*
X45131Y689092D01*
X48177Y688276D01*
X54484Y684634D01*
X59634Y679484D01*
X63276Y673177D01*
X64482Y668674D01*
X65161Y666142D01*
X65161Y658858D01*
X63276Y651823D01*
X59634Y645516D01*
X54484Y640366D01*
X48177Y636724D01*
X41142Y634839D01*
X33858Y634839D01*
X26823Y636724D01*
X20516Y640366D01*
X15366Y645516D01*
X11724Y651823D01*
X11638Y652144D01*
X10908Y654869D01*
X10890Y654902D01*
X10882Y654939D01*
X10850Y654978D01*
X10826Y655022D01*
X10796Y655044D01*
X10772Y655073D01*
X10726Y655093D01*
X10685Y655122D01*
X10648Y655128D01*
X10613Y655144D01*
X10564Y655142D01*
X10514Y655150D01*
X10478Y655139D01*
X10440Y655137D01*
X10396Y655113D01*
X10349Y655099D01*
X10321Y655073D01*
X10288Y655054D01*
X10259Y655014D01*
X10223Y654979D01*
X10210Y654944D01*
X10188Y654913D01*
X10177Y654852D01*
X10164Y654817D01*
X10165Y654793D01*
X10161Y654770D01*
X10161Y495000D01*
X10172Y494950D01*
X10174Y494899D01*
X10192Y494867D01*
X10200Y494831D01*
X10233Y494792D01*
X10257Y494747D01*
X10287Y494726D01*
X10310Y494698D01*
X10357Y494677D01*
X10399Y494647D01*
X10441Y494639D01*
X10469Y494627D01*
X10499Y494628D01*
X10541Y494620D01*
X50809Y494620D01*
X50859Y494631D01*
G37*
%LPC*%
G36*
X361242Y181677D02*
X361242Y181677D01*
X358918Y182640D01*
X357140Y184418D01*
X356177Y186742D01*
X356177Y189258D01*
X357140Y191582D01*
X357282Y191724D01*
X357289Y191735D01*
X357300Y191743D01*
X357335Y191808D01*
X357374Y191871D01*
X357375Y191884D01*
X357381Y191896D01*
X357383Y191970D01*
X357390Y192044D01*
X357386Y192056D01*
X357386Y192069D01*
X357355Y192136D01*
X357329Y192206D01*
X357319Y192215D01*
X357314Y192226D01*
X357256Y192273D01*
X357202Y192323D01*
X357189Y192327D01*
X357179Y192335D01*
X357107Y192352D01*
X357035Y192373D01*
X357023Y192370D01*
X357010Y192373D01*
X356868Y192344D01*
X355258Y191677D01*
X352742Y191677D01*
X350418Y192640D01*
X348640Y194418D01*
X347677Y196742D01*
X347677Y198776D01*
X347665Y198828D01*
X347664Y198865D01*
X347654Y198883D01*
X347647Y198925D01*
X347640Y198935D01*
X347638Y198945D01*
X347614Y198974D01*
X347566Y199045D01*
X341189Y205422D01*
X341189Y243264D01*
X341177Y243316D01*
X341176Y243355D01*
X341166Y243373D01*
X341159Y243413D01*
X341152Y243423D01*
X341150Y243433D01*
X341126Y243462D01*
X341078Y243533D01*
X332033Y252578D01*
X331968Y252618D01*
X331906Y252662D01*
X331894Y252664D01*
X331886Y252669D01*
X331849Y252673D01*
X331764Y252689D01*
X286256Y252689D01*
X286206Y252678D01*
X286155Y252676D01*
X286123Y252658D01*
X286087Y252650D01*
X286048Y252617D01*
X286003Y252593D01*
X285982Y252563D01*
X285954Y252540D01*
X285933Y252493D01*
X285903Y252451D01*
X285895Y252409D01*
X285883Y252381D01*
X285884Y252351D01*
X285876Y252309D01*
X285876Y249098D01*
X284387Y247609D01*
X275933Y247609D01*
X275349Y248193D01*
X275306Y248220D01*
X275268Y248255D01*
X275233Y248265D01*
X275202Y248284D01*
X275151Y248289D01*
X275102Y248304D01*
X275066Y248297D01*
X275029Y248301D01*
X274982Y248283D01*
X274931Y248274D01*
X274896Y248250D01*
X274867Y248239D01*
X274846Y248217D01*
X274811Y248193D01*
X274227Y247609D01*
X265773Y247609D01*
X265189Y248193D01*
X265146Y248220D01*
X265108Y248255D01*
X265073Y248265D01*
X265042Y248284D01*
X264991Y248289D01*
X264942Y248304D01*
X264906Y248297D01*
X264869Y248301D01*
X264822Y248283D01*
X264771Y248274D01*
X264736Y248250D01*
X264707Y248239D01*
X264686Y248217D01*
X264651Y248193D01*
X264067Y247609D01*
X255613Y247609D01*
X254124Y249098D01*
X254124Y250381D01*
X254115Y250419D01*
X254117Y250457D01*
X254096Y250502D01*
X254085Y250550D01*
X254060Y250580D01*
X254044Y250615D01*
X254006Y250646D01*
X253975Y250684D01*
X253939Y250699D01*
X253910Y250724D01*
X253862Y250734D01*
X253816Y250755D01*
X253778Y250753D01*
X253740Y250762D01*
X253681Y250749D01*
X253643Y250748D01*
X253625Y250738D01*
X253598Y250733D01*
X252258Y250177D01*
X249742Y250177D01*
X247418Y251140D01*
X245640Y252918D01*
X244677Y255242D01*
X244677Y257758D01*
X245640Y260082D01*
X247418Y261860D01*
X249742Y262823D01*
X252258Y262823D01*
X253598Y262267D01*
X253636Y262261D01*
X253672Y262245D01*
X253721Y262247D01*
X253769Y262239D01*
X253806Y262250D01*
X253845Y262252D01*
X253888Y262276D01*
X253935Y262290D01*
X253963Y262316D01*
X253997Y262335D01*
X254025Y262375D01*
X254061Y262409D01*
X254074Y262445D01*
X254097Y262476D01*
X254108Y262536D01*
X254121Y262571D01*
X254119Y262592D01*
X254124Y262619D01*
X254124Y263881D01*
X254115Y263919D01*
X254117Y263957D01*
X254096Y264002D01*
X254085Y264050D01*
X254060Y264080D01*
X254044Y264115D01*
X254006Y264146D01*
X253975Y264184D01*
X253939Y264199D01*
X253910Y264224D01*
X253862Y264234D01*
X253816Y264255D01*
X253778Y264253D01*
X253740Y264262D01*
X253681Y264249D01*
X253643Y264248D01*
X253625Y264238D01*
X253598Y264233D01*
X252258Y263677D01*
X249742Y263677D01*
X247418Y264640D01*
X245640Y266418D01*
X244677Y268742D01*
X244677Y271258D01*
X245640Y273582D01*
X247418Y275360D01*
X249742Y276323D01*
X252258Y276323D01*
X254582Y275360D01*
X256360Y273582D01*
X257323Y271258D01*
X257323Y268742D01*
X256360Y266418D01*
X255982Y266040D01*
X255968Y266018D01*
X255948Y266002D01*
X255923Y265945D01*
X255890Y265893D01*
X255888Y265867D01*
X255877Y265843D01*
X255879Y265782D01*
X255874Y265720D01*
X255883Y265696D01*
X255884Y265670D01*
X255913Y265616D01*
X255935Y265558D01*
X255954Y265541D01*
X255966Y265518D01*
X256017Y265483D01*
X256062Y265441D01*
X256087Y265433D01*
X256108Y265418D01*
X256193Y265402D01*
X256228Y265391D01*
X256238Y265393D01*
X256250Y265391D01*
X264067Y265391D01*
X264651Y264807D01*
X264694Y264780D01*
X264732Y264745D01*
X264767Y264735D01*
X264798Y264716D01*
X264849Y264711D01*
X264898Y264696D01*
X264934Y264703D01*
X264971Y264699D01*
X265018Y264717D01*
X265069Y264726D01*
X265104Y264750D01*
X265133Y264761D01*
X265154Y264783D01*
X265189Y264807D01*
X265773Y265391D01*
X265809Y265391D01*
X265859Y265402D01*
X265910Y265404D01*
X265942Y265422D01*
X265978Y265430D01*
X266017Y265463D01*
X266062Y265487D01*
X266083Y265517D01*
X266111Y265540D01*
X266132Y265587D01*
X266162Y265629D01*
X266170Y265671D01*
X266182Y265699D01*
X266181Y265729D01*
X266189Y265771D01*
X266189Y348578D01*
X287066Y369455D01*
X287106Y369520D01*
X287150Y369582D01*
X287152Y369594D01*
X287157Y369602D01*
X287161Y369639D01*
X287177Y369724D01*
X287177Y371758D01*
X288140Y374082D01*
X289918Y375860D01*
X292242Y376823D01*
X294758Y376823D01*
X297082Y375860D01*
X298860Y374082D01*
X299823Y371758D01*
X299823Y369242D01*
X298860Y366918D01*
X297082Y365140D01*
X294758Y364177D01*
X292724Y364177D01*
X292650Y364160D01*
X292575Y364147D01*
X292565Y364140D01*
X292555Y364138D01*
X292526Y364114D01*
X292455Y364066D01*
X273922Y345533D01*
X273882Y345468D01*
X273838Y345406D01*
X273836Y345394D01*
X273831Y345386D01*
X273827Y345349D01*
X273811Y345264D01*
X273811Y265771D01*
X273822Y265721D01*
X273824Y265670D01*
X273842Y265638D01*
X273850Y265602D01*
X273883Y265563D01*
X273907Y265518D01*
X273937Y265497D01*
X273960Y265469D01*
X274007Y265448D01*
X274049Y265418D01*
X274091Y265410D01*
X274119Y265398D01*
X274149Y265399D01*
X274191Y265391D01*
X274227Y265391D01*
X274811Y264807D01*
X274854Y264780D01*
X274892Y264745D01*
X274927Y264735D01*
X274958Y264716D01*
X275009Y264711D01*
X275058Y264696D01*
X275094Y264703D01*
X275131Y264699D01*
X275178Y264717D01*
X275229Y264726D01*
X275264Y264750D01*
X275293Y264761D01*
X275314Y264783D01*
X275349Y264807D01*
X275933Y265391D01*
X284387Y265391D01*
X285876Y263902D01*
X285876Y260691D01*
X285887Y260641D01*
X285889Y260590D01*
X285907Y260558D01*
X285915Y260522D01*
X285948Y260483D01*
X285972Y260438D01*
X286002Y260417D01*
X286025Y260389D01*
X286072Y260368D01*
X286114Y260338D01*
X286156Y260330D01*
X286184Y260318D01*
X286214Y260319D01*
X286256Y260311D01*
X335078Y260311D01*
X348811Y246578D01*
X348811Y208736D01*
X348828Y208662D01*
X348841Y208587D01*
X348848Y208577D01*
X348850Y208567D01*
X348874Y208538D01*
X348922Y208467D01*
X352955Y204434D01*
X353020Y204394D01*
X353082Y204350D01*
X353094Y204348D01*
X353102Y204343D01*
X353139Y204339D01*
X353224Y204323D01*
X355258Y204323D01*
X357582Y203360D01*
X358040Y202902D01*
X358062Y202888D01*
X358078Y202868D01*
X358135Y202843D01*
X358187Y202810D01*
X358213Y202808D01*
X358237Y202797D01*
X358298Y202799D01*
X358360Y202794D01*
X358384Y202803D01*
X358410Y202804D01*
X358464Y202833D01*
X358522Y202855D01*
X358539Y202874D01*
X358562Y202886D01*
X358597Y202937D01*
X358639Y202982D01*
X358647Y203007D01*
X358662Y203028D01*
X358678Y203113D01*
X358689Y203148D01*
X358687Y203158D01*
X358689Y203170D01*
X358689Y275712D01*
X358672Y275786D01*
X358659Y275860D01*
X358652Y275870D01*
X358650Y275880D01*
X358626Y275909D01*
X358578Y275980D01*
X357640Y276918D01*
X356677Y279242D01*
X356677Y281758D01*
X357640Y284082D01*
X359418Y285860D01*
X361742Y286823D01*
X364258Y286823D01*
X366582Y285860D01*
X368360Y284082D01*
X369323Y281758D01*
X369323Y279242D01*
X368360Y276918D01*
X366582Y275140D01*
X366546Y275125D01*
X366494Y275088D01*
X366438Y275058D01*
X366424Y275038D01*
X366405Y275024D01*
X366375Y274968D01*
X366338Y274916D01*
X366333Y274889D01*
X366323Y274871D01*
X366322Y274833D01*
X366311Y274774D01*
X366311Y193288D01*
X366328Y193214D01*
X366341Y193140D01*
X366348Y193130D01*
X366350Y193120D01*
X366374Y193091D01*
X366422Y193020D01*
X367860Y191582D01*
X368823Y189258D01*
X368823Y186742D01*
X367860Y184418D01*
X366082Y182640D01*
X363758Y181677D01*
X361242Y181677D01*
G37*
%LPD*%
%LPC*%
G36*
X210742Y134677D02*
X210742Y134677D01*
X208418Y135640D01*
X206640Y137418D01*
X205677Y139742D01*
X205677Y142258D01*
X206640Y144582D01*
X208078Y146020D01*
X208094Y146045D01*
X208111Y146060D01*
X208130Y146101D01*
X208162Y146146D01*
X208164Y146158D01*
X208169Y146167D01*
X208172Y146195D01*
X208182Y146218D01*
X208181Y146247D01*
X208189Y146288D01*
X208189Y221156D01*
X208176Y221212D01*
X208172Y221270D01*
X208156Y221300D01*
X208150Y221325D01*
X208127Y221352D01*
X208102Y221398D01*
X208055Y221455D01*
X208188Y222825D01*
X208185Y222842D01*
X208189Y222862D01*
X208189Y224238D01*
X208242Y224291D01*
X208272Y224340D01*
X208310Y224384D01*
X208320Y224417D01*
X208333Y224438D01*
X208337Y224473D01*
X208351Y224523D01*
X208359Y224597D01*
X208986Y225114D01*
X208990Y225120D01*
X208997Y225124D01*
X209042Y225188D01*
X209091Y225252D01*
X209092Y225259D01*
X209097Y225265D01*
X209124Y225408D01*
X209124Y232402D01*
X210613Y233891D01*
X219067Y233891D01*
X219651Y233307D01*
X219694Y233280D01*
X219732Y233245D01*
X219767Y233235D01*
X219798Y233216D01*
X219849Y233211D01*
X219898Y233196D01*
X219934Y233203D01*
X219971Y233199D01*
X220018Y233217D01*
X220069Y233226D01*
X220104Y233250D01*
X220133Y233261D01*
X220154Y233283D01*
X220189Y233307D01*
X220773Y233891D01*
X220809Y233891D01*
X220859Y233902D01*
X220910Y233904D01*
X220942Y233922D01*
X220978Y233930D01*
X221017Y233963D01*
X221062Y233987D01*
X221083Y234017D01*
X221111Y234040D01*
X221132Y234087D01*
X221162Y234129D01*
X221170Y234171D01*
X221182Y234199D01*
X221181Y234229D01*
X221189Y234271D01*
X221189Y314712D01*
X221172Y314786D01*
X221159Y314860D01*
X221152Y314870D01*
X221150Y314880D01*
X221126Y314909D01*
X221078Y314980D01*
X219640Y316418D01*
X218677Y318742D01*
X218677Y321258D01*
X219640Y323582D01*
X221418Y325360D01*
X223742Y326323D01*
X226258Y326323D01*
X228582Y325360D01*
X230360Y323582D01*
X231323Y321258D01*
X231323Y318742D01*
X230360Y316418D01*
X228922Y314980D01*
X228882Y314916D01*
X228838Y314854D01*
X228836Y314842D01*
X228831Y314833D01*
X228827Y314796D01*
X228811Y314712D01*
X228811Y234271D01*
X228822Y234221D01*
X228824Y234170D01*
X228842Y234138D01*
X228850Y234102D01*
X228883Y234063D01*
X228907Y234018D01*
X228937Y233997D01*
X228960Y233969D01*
X229007Y233948D01*
X229049Y233918D01*
X229091Y233910D01*
X229119Y233898D01*
X229149Y233899D01*
X229191Y233891D01*
X229227Y233891D01*
X229811Y233307D01*
X229854Y233280D01*
X229892Y233245D01*
X229927Y233235D01*
X229958Y233216D01*
X230009Y233211D01*
X230058Y233196D01*
X230094Y233203D01*
X230131Y233199D01*
X230178Y233217D01*
X230229Y233226D01*
X230264Y233250D01*
X230293Y233261D01*
X230314Y233283D01*
X230349Y233307D01*
X230933Y233891D01*
X239387Y233891D01*
X240876Y232402D01*
X240876Y230704D01*
X240885Y230667D01*
X240883Y230629D01*
X240889Y230617D01*
X240889Y230605D01*
X240906Y230574D01*
X240915Y230536D01*
X240940Y230506D01*
X240956Y230471D01*
X240967Y230462D01*
X240972Y230453D01*
X240999Y230434D01*
X241025Y230402D01*
X241061Y230386D01*
X241090Y230362D01*
X241106Y230359D01*
X241114Y230353D01*
X241150Y230346D01*
X241184Y230331D01*
X241220Y230333D01*
X241240Y230329D01*
X241260Y230324D01*
X241319Y230336D01*
X241357Y230338D01*
X241375Y230348D01*
X241402Y230353D01*
X243742Y231323D01*
X246258Y231323D01*
X248582Y230360D01*
X250360Y228582D01*
X251323Y226258D01*
X251323Y223742D01*
X250360Y221418D01*
X248582Y219640D01*
X246258Y218677D01*
X243742Y218677D01*
X241402Y219647D01*
X241364Y219653D01*
X241328Y219669D01*
X241279Y219667D01*
X241231Y219675D01*
X241194Y219664D01*
X241155Y219662D01*
X241112Y219639D01*
X241065Y219624D01*
X241037Y219598D01*
X241003Y219580D01*
X240975Y219539D01*
X240939Y219505D01*
X240926Y219469D01*
X240903Y219438D01*
X240892Y219378D01*
X240879Y219343D01*
X240881Y219322D01*
X240876Y219296D01*
X240876Y217598D01*
X239387Y216109D01*
X230933Y216109D01*
X230349Y216693D01*
X230306Y216720D01*
X230268Y216755D01*
X230233Y216765D01*
X230202Y216784D01*
X230151Y216789D01*
X230102Y216804D01*
X230066Y216797D01*
X230029Y216801D01*
X229982Y216783D01*
X229931Y216774D01*
X229896Y216750D01*
X229867Y216739D01*
X229846Y216717D01*
X229811Y216693D01*
X229227Y216109D01*
X220773Y216109D01*
X220189Y216693D01*
X220146Y216720D01*
X220108Y216755D01*
X220073Y216765D01*
X220042Y216784D01*
X219991Y216789D01*
X219942Y216804D01*
X219906Y216797D01*
X219869Y216801D01*
X219822Y216783D01*
X219771Y216774D01*
X219736Y216750D01*
X219707Y216739D01*
X219686Y216717D01*
X219651Y216693D01*
X219067Y216109D01*
X216191Y216109D01*
X216141Y216098D01*
X216090Y216096D01*
X216058Y216078D01*
X216022Y216070D01*
X215983Y216037D01*
X215938Y216013D01*
X215917Y215983D01*
X215889Y215960D01*
X215868Y215913D01*
X215838Y215871D01*
X215830Y215829D01*
X215818Y215801D01*
X215819Y215771D01*
X215811Y215729D01*
X215811Y146288D01*
X215822Y146238D01*
X215824Y146190D01*
X215836Y146168D01*
X215841Y146140D01*
X215848Y146130D01*
X215850Y146120D01*
X215874Y146091D01*
X215894Y146061D01*
X215907Y146037D01*
X215913Y146033D01*
X215922Y146020D01*
X217360Y144582D01*
X218323Y142258D01*
X218323Y139742D01*
X217360Y137418D01*
X215582Y135640D01*
X213258Y134677D01*
X210742Y134677D01*
G37*
%LPD*%
%LPC*%
G36*
X370742Y614177D02*
X370742Y614177D01*
X368418Y615140D01*
X366640Y616918D01*
X365677Y619242D01*
X365677Y621276D01*
X365664Y621332D01*
X365664Y621344D01*
X365660Y621351D01*
X365647Y621425D01*
X365640Y621435D01*
X365638Y621445D01*
X365614Y621474D01*
X365566Y621545D01*
X340333Y646778D01*
X337989Y649122D01*
X337989Y660402D01*
X337975Y660464D01*
X337968Y660527D01*
X337955Y660547D01*
X337950Y660571D01*
X337909Y660620D01*
X337875Y660673D01*
X337853Y660688D01*
X337840Y660704D01*
X337805Y660720D01*
X337755Y660753D01*
X335037Y661879D01*
X331679Y665237D01*
X329861Y669625D01*
X329861Y674375D01*
X331679Y678763D01*
X335037Y682121D01*
X339425Y683939D01*
X344175Y683939D01*
X348563Y682121D01*
X351921Y678763D01*
X353739Y674375D01*
X353739Y669625D01*
X351921Y665237D01*
X348563Y661879D01*
X345845Y660753D01*
X345841Y660750D01*
X345839Y660750D01*
X345828Y660740D01*
X345794Y660716D01*
X345738Y660686D01*
X345724Y660666D01*
X345705Y660652D01*
X345675Y660596D01*
X345638Y660544D01*
X345633Y660518D01*
X345623Y660499D01*
X345622Y660462D01*
X345611Y660402D01*
X345611Y652436D01*
X345628Y652362D01*
X345641Y652287D01*
X345648Y652277D01*
X345650Y652267D01*
X345674Y652238D01*
X345719Y652172D01*
X345720Y652171D01*
X345720Y652170D01*
X345722Y652167D01*
X370955Y626934D01*
X371020Y626894D01*
X371082Y626850D01*
X371094Y626848D01*
X371102Y626843D01*
X371139Y626839D01*
X371224Y626823D01*
X373258Y626823D01*
X375582Y625860D01*
X376731Y624711D01*
X376774Y624684D01*
X376812Y624649D01*
X376847Y624639D01*
X376878Y624619D01*
X376929Y624614D01*
X376978Y624600D01*
X377014Y624606D01*
X377051Y624603D01*
X377098Y624621D01*
X377149Y624630D01*
X377184Y624653D01*
X377213Y624664D01*
X377234Y624687D01*
X377269Y624711D01*
X378078Y625520D01*
X378118Y625584D01*
X378162Y625646D01*
X378164Y625658D01*
X378169Y625667D01*
X378173Y625704D01*
X378176Y625719D01*
X378182Y625734D01*
X378182Y625749D01*
X378189Y625788D01*
X378189Y640764D01*
X378172Y640838D01*
X378159Y640913D01*
X378152Y640923D01*
X378150Y640933D01*
X378126Y640962D01*
X378078Y641033D01*
X363389Y655722D01*
X363389Y660402D01*
X363375Y660464D01*
X363368Y660527D01*
X363355Y660547D01*
X363350Y660571D01*
X363309Y660620D01*
X363275Y660673D01*
X363253Y660688D01*
X363240Y660704D01*
X363205Y660720D01*
X363155Y660753D01*
X360437Y661879D01*
X357079Y665237D01*
X355261Y669625D01*
X355261Y674375D01*
X357079Y678763D01*
X360437Y682121D01*
X364825Y683939D01*
X369575Y683939D01*
X373963Y682121D01*
X377321Y678763D01*
X379139Y674375D01*
X379139Y669625D01*
X377321Y665237D01*
X373963Y661879D01*
X371245Y660753D01*
X371241Y660750D01*
X371239Y660750D01*
X371228Y660740D01*
X371194Y660716D01*
X371138Y660686D01*
X371124Y660666D01*
X371105Y660652D01*
X371075Y660596D01*
X371038Y660544D01*
X371033Y660518D01*
X371023Y660499D01*
X371022Y660462D01*
X371011Y660402D01*
X371011Y659036D01*
X371028Y658962D01*
X371041Y658887D01*
X371048Y658877D01*
X371050Y658867D01*
X371074Y658838D01*
X371122Y658767D01*
X385811Y644078D01*
X385811Y625788D01*
X385823Y625735D01*
X385824Y625705D01*
X385832Y625691D01*
X385841Y625640D01*
X385848Y625630D01*
X385850Y625620D01*
X385874Y625591D01*
X385922Y625520D01*
X387360Y624082D01*
X388323Y621758D01*
X388323Y619242D01*
X387360Y616918D01*
X385582Y615140D01*
X383258Y614177D01*
X380742Y614177D01*
X378418Y615140D01*
X377269Y616289D01*
X377226Y616316D01*
X377188Y616351D01*
X377153Y616361D01*
X377122Y616381D01*
X377071Y616386D01*
X377022Y616400D01*
X376986Y616394D01*
X376949Y616397D01*
X376902Y616379D01*
X376851Y616370D01*
X376816Y616347D01*
X376787Y616336D01*
X376766Y616313D01*
X376731Y616289D01*
X375582Y615140D01*
X373258Y614177D01*
X370742Y614177D01*
G37*
%LPD*%
%LPC*%
G36*
X521288Y86339D02*
X521288Y86339D01*
X514430Y89180D01*
X509180Y94430D01*
X506339Y101288D01*
X506339Y108712D01*
X509180Y115570D01*
X514430Y120820D01*
X521288Y123661D01*
X528712Y123661D01*
X535570Y120820D01*
X540820Y115570D01*
X543661Y108712D01*
X543661Y101288D01*
X540820Y94430D01*
X535570Y89180D01*
X528712Y86339D01*
X521288Y86339D01*
G37*
%LPD*%
%LPC*%
G36*
X346288Y86339D02*
X346288Y86339D01*
X339430Y89180D01*
X334180Y94430D01*
X331339Y101288D01*
X331339Y108712D01*
X334180Y115570D01*
X339430Y120820D01*
X346288Y123661D01*
X353712Y123661D01*
X360570Y120820D01*
X365820Y115570D01*
X368661Y108712D01*
X368661Y101288D01*
X365820Y94430D01*
X360570Y89180D01*
X353712Y86339D01*
X346288Y86339D01*
G37*
%LPD*%
%LPC*%
G36*
X171288Y86339D02*
X171288Y86339D01*
X164430Y89180D01*
X159180Y94430D01*
X156339Y101288D01*
X156339Y108712D01*
X159180Y115570D01*
X164430Y120820D01*
X171288Y123661D01*
X178712Y123661D01*
X185570Y120820D01*
X190820Y115570D01*
X193661Y108712D01*
X193661Y101288D01*
X190820Y94430D01*
X185570Y89180D01*
X178712Y86339D01*
X171288Y86339D01*
G37*
%LPD*%
%LPC*%
G36*
X521288Y16339D02*
X521288Y16339D01*
X514430Y19180D01*
X509180Y24430D01*
X506339Y31288D01*
X506339Y38712D01*
X509180Y45570D01*
X514430Y50820D01*
X521288Y53661D01*
X528712Y53661D01*
X535570Y50820D01*
X540820Y45570D01*
X543661Y38712D01*
X543661Y31288D01*
X540820Y24430D01*
X535570Y19180D01*
X528712Y16339D01*
X521288Y16339D01*
G37*
%LPD*%
%LPC*%
G36*
X346288Y16339D02*
X346288Y16339D01*
X339430Y19180D01*
X334180Y24430D01*
X331339Y31288D01*
X331339Y38712D01*
X334180Y45570D01*
X339430Y50820D01*
X346288Y53661D01*
X353712Y53661D01*
X360570Y50820D01*
X365820Y45570D01*
X368661Y38712D01*
X368661Y31288D01*
X365820Y24430D01*
X360570Y19180D01*
X353712Y16339D01*
X346288Y16339D01*
G37*
%LPD*%
%LPC*%
G36*
X171288Y16339D02*
X171288Y16339D01*
X164430Y19180D01*
X159180Y24430D01*
X156339Y31288D01*
X156339Y38712D01*
X159180Y45570D01*
X164430Y50820D01*
X171288Y53661D01*
X178712Y53661D01*
X185570Y50820D01*
X190820Y45570D01*
X193661Y38712D01*
X193661Y31288D01*
X190820Y24430D01*
X185570Y19180D01*
X178712Y16339D01*
X171288Y16339D01*
G37*
%LPD*%
%LPC*%
G36*
X390742Y240677D02*
X390742Y240677D01*
X388418Y241640D01*
X386640Y243418D01*
X385677Y245742D01*
X385677Y248258D01*
X386640Y250582D01*
X386808Y250750D01*
X386848Y250814D01*
X386892Y250876D01*
X386894Y250888D01*
X386899Y250897D01*
X386903Y250934D01*
X386919Y251018D01*
X386919Y279482D01*
X386902Y279556D01*
X386889Y279630D01*
X386882Y279640D01*
X386880Y279650D01*
X386856Y279679D01*
X386808Y279750D01*
X386640Y279918D01*
X385677Y282242D01*
X385677Y284758D01*
X386640Y287082D01*
X388418Y288860D01*
X390742Y289823D01*
X393258Y289823D01*
X395582Y288860D01*
X397360Y287082D01*
X398323Y284758D01*
X398323Y282242D01*
X397360Y279918D01*
X397192Y279750D01*
X397152Y279686D01*
X397108Y279624D01*
X397106Y279612D01*
X397101Y279603D01*
X397097Y279566D01*
X397081Y279482D01*
X397081Y251018D01*
X397098Y250944D01*
X397111Y250870D01*
X397118Y250860D01*
X397120Y250850D01*
X397144Y250821D01*
X397192Y250750D01*
X397360Y250582D01*
X398323Y248258D01*
X398323Y245742D01*
X397360Y243418D01*
X395582Y241640D01*
X393258Y240677D01*
X390742Y240677D01*
G37*
%LPD*%
%LPC*%
G36*
X310543Y57177D02*
X310543Y57177D01*
X307852Y58292D01*
X305792Y60352D01*
X304677Y63043D01*
X304677Y65957D01*
X305792Y68648D01*
X307852Y70708D01*
X310543Y71823D01*
X313457Y71823D01*
X316148Y70708D01*
X318208Y68648D01*
X319323Y65957D01*
X319323Y63043D01*
X318208Y60352D01*
X316148Y58292D01*
X313457Y57177D01*
X310543Y57177D01*
G37*
%LPD*%
%LPC*%
G36*
X108742Y588677D02*
X108742Y588677D01*
X106418Y589640D01*
X104640Y591418D01*
X103677Y593742D01*
X103677Y596258D01*
X104640Y598582D01*
X106418Y600360D01*
X108742Y601323D01*
X111258Y601323D01*
X113582Y600360D01*
X115360Y598582D01*
X116323Y596258D01*
X116323Y593742D01*
X115360Y591418D01*
X113582Y589640D01*
X111258Y588677D01*
X108742Y588677D01*
G37*
%LPD*%
%LPC*%
G36*
X214742Y450177D02*
X214742Y450177D01*
X212418Y451140D01*
X210640Y452918D01*
X209677Y455242D01*
X209677Y457758D01*
X210640Y460082D01*
X212418Y461860D01*
X214742Y462823D01*
X217258Y462823D01*
X219582Y461860D01*
X221360Y460082D01*
X222323Y457758D01*
X222323Y455242D01*
X221360Y452918D01*
X219582Y451140D01*
X217258Y450177D01*
X214742Y450177D01*
G37*
%LPD*%
%LPC*%
G36*
X418761Y672761D02*
X418761Y672761D01*
X418761Y683939D01*
X418940Y683939D01*
X420796Y683645D01*
X422583Y683064D01*
X424257Y682211D01*
X425778Y681106D01*
X427106Y679778D01*
X428211Y678257D01*
X429064Y676583D01*
X429645Y674796D01*
X429939Y672940D01*
X429939Y672761D01*
X418761Y672761D01*
G37*
%LPD*%
%LPC*%
G36*
X406061Y672761D02*
X406061Y672761D01*
X406061Y672940D01*
X406355Y674796D01*
X406936Y676583D01*
X407789Y678257D01*
X408894Y679778D01*
X410222Y681106D01*
X411743Y682211D01*
X413417Y683064D01*
X415204Y683645D01*
X417060Y683939D01*
X417239Y683939D01*
X417239Y672761D01*
X406061Y672761D01*
G37*
%LPD*%
%LPC*%
G36*
X418761Y660061D02*
X418761Y660061D01*
X418761Y671239D01*
X429939Y671239D01*
X429939Y671060D01*
X429645Y669204D01*
X429064Y667417D01*
X428211Y665743D01*
X427106Y664222D01*
X425778Y662894D01*
X424257Y661789D01*
X422583Y660936D01*
X420796Y660355D01*
X418940Y660061D01*
X418761Y660061D01*
G37*
%LPD*%
%LPC*%
G36*
X417060Y660061D02*
X417060Y660061D01*
X415204Y660355D01*
X413417Y660936D01*
X411743Y661789D01*
X410222Y662894D01*
X408894Y664222D01*
X407789Y665743D01*
X406936Y667417D01*
X406355Y669204D01*
X406061Y671060D01*
X406061Y671239D01*
X417239Y671239D01*
X417239Y660061D01*
X417060Y660061D01*
G37*
%LPD*%
%LPC*%
G36*
X417999Y671999D02*
X417999Y671999D01*
X417999Y672001D01*
X418001Y672001D01*
X418001Y671999D01*
X417999Y671999D01*
G37*
%LPD*%
D10*
X418000Y672000D03*
X392600Y672000D03*
X367200Y672000D03*
X341800Y672000D03*
D11*
X283000Y673000D03*
D12*
X235160Y225000D03*
X225000Y225000D03*
X214840Y225000D03*
D13*
X225000Y225000D01*
D12*
X280160Y256500D03*
X270000Y256500D03*
X259840Y256500D03*
D13*
X270000Y256500D01*
D14*
X62500Y132500D03*
X417000Y24000D03*
X592000Y24000D03*
D15*
X418000Y23000D02*
X417000Y24000D01*
D14*
X67000Y301000D03*
X240000Y25000D03*
X230000Y400000D03*
X215000Y475000D03*
X180000Y475000D03*
X180000Y370000D03*
X205000Y360000D03*
X230000Y360000D03*
X260000Y365000D03*
X349500Y424500D03*
X350000Y370000D03*
X350000Y335000D03*
X350000Y296000D03*
X332500Y279500D03*
X295000Y230000D03*
X350000Y155000D03*
X175000Y70000D03*
X350000Y65000D03*
X525000Y65000D03*
X275000Y200000D03*
X275000Y80000D03*
X275000Y155000D03*
X410000Y155000D03*
X443500Y222000D03*
X120000Y155000D03*
X120000Y80000D03*
X120000Y205000D03*
X160000Y290000D03*
X262500Y272500D03*
X260000Y300000D03*
X100000Y567500D03*
X325000Y510000D03*
X67500Y474500D03*
X42500Y474500D03*
X112500Y424500D03*
X67500Y424500D03*
X113500Y477500D03*
X420500Y607000D03*
X407000Y422500D03*
X418500Y648500D03*
X525000Y195000D03*
X405500Y335000D03*
D15*
X408500Y654500D02*
X380000Y654500D01*
X418000Y664000D02*
X418000Y672000D01*
X418000Y664000D02*
X408500Y654500D01*
D14*
X42500Y504500D03*
X42500Y624500D03*
X67500Y624500D03*
X67500Y504500D03*
X87500Y679500D03*
X262500Y664500D03*
X262500Y684500D03*
X353000Y655000D03*
X380000Y655500D03*
X342500Y579500D03*
X257500Y549500D03*
X140000Y617500D03*
X110000Y595000D03*
X392000Y247000D03*
X392000Y283500D03*
D15*
X392000Y247000D01*
D16*
X312000Y64500D03*
D14*
X212000Y141000D03*
D13*
X212000Y222660D02*
X214840Y225000D01*
X212000Y222660D02*
X212000Y141000D01*
D14*
X372000Y620500D03*
D13*
X341800Y650700D01*
X341800Y672000D01*
D14*
X382000Y620500D03*
D13*
X382000Y642500D01*
X367200Y657300D01*
X367200Y672000D01*
X283000Y673000D02*
X103000Y673000D01*
X55000Y625000D01*
X55000Y465500D01*
X64000Y456500D01*
D14*
X216000Y456500D03*
X225000Y320000D03*
D13*
X225000Y225000D01*
D14*
X251000Y270000D03*
X362500Y188000D03*
D13*
X362500Y280000D02*
X363000Y280500D01*
X362500Y280000D02*
X362500Y188000D01*
D14*
X363000Y280500D03*
D13*
X245000Y225000D02*
X235160Y225000D01*
D14*
X245000Y225000D03*
D13*
X345000Y207000D02*
X345000Y245000D01*
X345000Y207000D02*
X354000Y198000D01*
D14*
X354000Y198000D03*
D13*
X333500Y256500D02*
X280160Y256500D01*
X333500Y256500D02*
X345000Y245000D01*
D14*
X251000Y256500D03*
D13*
X259840Y256500D01*
D14*
X293500Y370500D03*
D13*
X270000Y347000D02*
X270000Y256500D01*
X270000Y347000D02*
X293500Y370500D01*
M02*
