G04 EAGLE Gerber RS-274X export*
G75*
%MOMM*%
%FSLAX34Y34*%
%LPD*%
%INSoldermask Top*%
%IPPOS*%
%AMOC8*
5,1,8,0,0,1.08239X$1,22.5*%
G01*
%ADD10C,3.703200*%
%ADD11R,1.303200X1.203200*%
%ADD12C,1.903200*%
%ADD13R,3.003200X2.403200*%
%ADD14R,3.003200X3.003200*%
%ADD15R,1.203200X1.303200*%
%ADD16C,0.653200*%
%ADD17R,0.762000X1.231900*%
%ADD18C,2.082800*%
%ADD19R,0.803200X1.753200*%
%ADD20R,1.403200X2.003200*%
%ADD21C,1.473200*%
%ADD22P,1.869504X8X22.500000*%
%ADD23R,1.003200X1.003200*%
%ADD24R,0.838200X1.473200*%
%ADD25R,1.728200X0.853200*%
%ADD26C,0.959600*%
%ADD27C,1.159600*%

G36*
X669970Y617107D02*
X669970Y617107D01*
X670036Y617109D01*
X670079Y617127D01*
X670126Y617135D01*
X670183Y617169D01*
X670243Y617194D01*
X670278Y617225D01*
X670319Y617250D01*
X670361Y617301D01*
X670409Y617345D01*
X670431Y617387D01*
X670460Y617424D01*
X670481Y617486D01*
X670512Y617545D01*
X670520Y617599D01*
X670532Y617636D01*
X670531Y617676D01*
X670539Y617730D01*
X670539Y620270D01*
X670528Y620335D01*
X670526Y620401D01*
X670508Y620444D01*
X670500Y620491D01*
X670466Y620548D01*
X670441Y620608D01*
X670410Y620643D01*
X670385Y620684D01*
X670334Y620726D01*
X670290Y620774D01*
X670248Y620796D01*
X670211Y620825D01*
X670149Y620846D01*
X670090Y620877D01*
X670036Y620885D01*
X669999Y620897D01*
X669959Y620896D01*
X669905Y620904D01*
X666095Y620904D01*
X666030Y620893D01*
X665964Y620891D01*
X665921Y620873D01*
X665874Y620865D01*
X665817Y620831D01*
X665757Y620806D01*
X665722Y620775D01*
X665681Y620750D01*
X665640Y620699D01*
X665591Y620655D01*
X665569Y620613D01*
X665540Y620576D01*
X665519Y620514D01*
X665488Y620455D01*
X665480Y620401D01*
X665468Y620364D01*
X665468Y620361D01*
X665469Y620324D01*
X665461Y620270D01*
X665461Y617730D01*
X665472Y617665D01*
X665474Y617599D01*
X665492Y617556D01*
X665500Y617509D01*
X665534Y617452D01*
X665559Y617392D01*
X665590Y617357D01*
X665615Y617316D01*
X665666Y617275D01*
X665710Y617226D01*
X665752Y617204D01*
X665789Y617175D01*
X665851Y617154D01*
X665910Y617123D01*
X665964Y617115D01*
X666001Y617103D01*
X666041Y617104D01*
X666095Y617096D01*
X669905Y617096D01*
X669970Y617107D01*
G37*
D10*
X37500Y662500D03*
X662500Y662500D03*
X37500Y37500D03*
X662500Y37500D03*
D11*
X278000Y506700D03*
X261000Y506700D03*
X277500Y536500D03*
X294500Y536500D03*
X277000Y402500D03*
X294000Y402500D03*
X392000Y210000D03*
X409000Y210000D03*
X392000Y227000D03*
X409000Y227000D03*
X213500Y295000D03*
X196500Y295000D03*
X213500Y311000D03*
X196500Y311000D03*
D12*
X525000Y35000D03*
D13*
X488000Y44000D03*
X562000Y24000D03*
D14*
X562000Y118000D03*
D12*
X525000Y105000D03*
X175000Y35000D03*
D13*
X138000Y44000D03*
X212000Y24000D03*
D14*
X212000Y118000D03*
D12*
X175000Y105000D03*
X350000Y35000D03*
D13*
X313000Y44000D03*
X387000Y24000D03*
D14*
X387000Y118000D03*
D12*
X350000Y105000D03*
D15*
X170100Y586500D03*
X170100Y603500D03*
D11*
X330500Y325000D03*
X313500Y325000D03*
D15*
X154900Y586600D03*
X154900Y603600D03*
D11*
X241500Y385000D03*
X258500Y385000D03*
X276500Y385000D03*
X293500Y385000D03*
X327500Y402500D03*
X310500Y402500D03*
X310500Y385000D03*
X327500Y385000D03*
X313500Y308000D03*
X330500Y308000D03*
D16*
X282750Y482250D02*
X282750Y495750D01*
X276250Y495750D02*
X276250Y482250D01*
X269750Y482250D02*
X269750Y495750D01*
X263250Y495750D02*
X263250Y482250D01*
X256750Y482250D02*
X256750Y495750D01*
X250250Y495750D02*
X250250Y482250D01*
X243750Y482250D02*
X243750Y495750D01*
X237250Y495750D02*
X237250Y482250D01*
X282750Y427750D02*
X282750Y414250D01*
X276250Y414250D02*
X276250Y427750D01*
X269750Y427750D02*
X269750Y414250D01*
X263250Y414250D02*
X263250Y427750D01*
X256750Y427750D02*
X256750Y414250D01*
X250250Y414250D02*
X250250Y427750D01*
X243750Y427750D02*
X243750Y414250D01*
X237250Y414250D02*
X237250Y427750D01*
D17*
X197000Y417602D03*
X206500Y417602D03*
X216000Y417602D03*
X216000Y444399D03*
X197000Y444399D03*
D15*
X215000Y391000D03*
X198000Y391000D03*
D18*
X418000Y672000D03*
X392600Y672000D03*
X367200Y672000D03*
X341800Y672000D03*
D19*
X392000Y607240D03*
X382000Y607240D03*
X402000Y607240D03*
X372000Y607240D03*
D20*
X359000Y581758D03*
X415000Y581758D03*
D19*
X110000Y609240D03*
X100000Y609240D03*
X120000Y609240D03*
X90000Y609240D03*
D20*
X77000Y583758D03*
X133000Y583758D03*
D21*
X314000Y428000D03*
D15*
X177500Y442500D03*
X177500Y425500D03*
X161000Y442500D03*
X161000Y425500D03*
D22*
X283000Y673000D03*
D11*
X623500Y619000D03*
X606500Y619000D03*
D23*
X652000Y619000D03*
X637000Y619000D03*
D24*
X673080Y619000D03*
X662920Y619000D03*
D25*
X237880Y333100D03*
X237880Y320400D03*
X237880Y307700D03*
X237880Y295000D03*
X237880Y282300D03*
X237880Y269600D03*
X237880Y256900D03*
X292120Y256900D03*
X292120Y269600D03*
X292120Y282300D03*
X292120Y295000D03*
X292120Y307700D03*
X292120Y320400D03*
X292120Y333100D03*
X322880Y210550D03*
X322880Y197850D03*
X322880Y185150D03*
X322880Y172450D03*
X377120Y172450D03*
X377120Y185150D03*
X377120Y197850D03*
X377120Y210550D03*
D11*
X195500Y257000D03*
X212500Y257000D03*
D15*
X305000Y183000D03*
X305000Y200000D03*
D11*
X257500Y225000D03*
X274500Y225000D03*
D15*
X315000Y272000D03*
X315000Y255000D03*
D11*
X277500Y521500D03*
X294500Y521500D03*
D26*
X62500Y132500D03*
X417000Y24000D03*
X592000Y24000D03*
X67000Y301000D03*
X240000Y25000D03*
X230000Y400000D03*
X215000Y475000D03*
X180000Y475000D03*
X180000Y370000D03*
X205000Y360000D03*
X230000Y360000D03*
X260000Y365000D03*
X349500Y424500D03*
X350000Y370000D03*
X350000Y335000D03*
X350000Y296000D03*
X332500Y279500D03*
X295000Y230000D03*
X350000Y155000D03*
X175000Y70000D03*
X350000Y65000D03*
X525000Y65000D03*
X275000Y200000D03*
X275000Y80000D03*
X275000Y155000D03*
X410000Y155000D03*
X443500Y222000D03*
X120000Y155000D03*
X120000Y80000D03*
X120000Y205000D03*
X160000Y290000D03*
X262500Y272500D03*
X260000Y300000D03*
X100000Y567500D03*
X325000Y510000D03*
X67500Y474500D03*
X42500Y474500D03*
X112500Y424500D03*
X67500Y424500D03*
X113500Y477500D03*
X420500Y607000D03*
X407000Y422500D03*
X418500Y648500D03*
X525000Y195000D03*
X405500Y335000D03*
X42500Y504500D03*
X42500Y624500D03*
X67500Y624500D03*
X67500Y504500D03*
X87500Y679500D03*
X262500Y664500D03*
X262500Y684500D03*
X353000Y655000D03*
X380000Y655500D03*
X342500Y579500D03*
X257500Y549500D03*
X140000Y617500D03*
X110000Y595000D03*
X392000Y247000D03*
X392000Y283500D03*
D27*
X312000Y64500D03*
D26*
X212000Y141000D03*
X372000Y620500D03*
X382000Y620500D03*
X216000Y456500D03*
X225000Y320000D03*
X251000Y270000D03*
X362500Y188000D03*
X363000Y280500D03*
X245000Y225000D03*
X354000Y198000D03*
X251000Y256500D03*
X293500Y370500D03*
M02*
