G04 EAGLE Gerber RS-274X export*
G75*
%MOMM*%
%FSLAX34Y34*%
%LPD*%
%INSolderpaste Top*%
%IPPOS*%
%AMOC8*
5,1,8,0,0,1.08239X$1,22.5*%
G01*
%ADD10R,1.100000X1.000000*%
%ADD11R,2.800000X2.200000*%
%ADD12R,2.800000X2.800000*%
%ADD13R,1.000000X1.100000*%
%ADD14C,0.450000*%
%ADD15R,0.558800X1.028700*%
%ADD16R,0.600000X1.550000*%
%ADD17R,1.200000X1.800000*%
%ADD18R,0.800000X0.800000*%
%ADD19R,1.525000X0.650000*%


D10*
X276500Y531700D03*
X293500Y531700D03*
X276500Y510000D03*
X293500Y510000D03*
X277000Y402500D03*
X294000Y402500D03*
X213500Y295000D03*
X196500Y295000D03*
X213500Y316000D03*
X196500Y316000D03*
X90000Y121500D03*
X73000Y121500D03*
X90000Y144500D03*
X73000Y144500D03*
D11*
X488000Y44000D03*
X562000Y24000D03*
D12*
X562000Y118000D03*
D11*
X138000Y44000D03*
X212000Y24000D03*
D12*
X212000Y118000D03*
D11*
X313000Y44000D03*
X387000Y24000D03*
D12*
X387000Y118000D03*
D13*
X155100Y528500D03*
X155100Y511500D03*
D10*
X330500Y325000D03*
X313500Y325000D03*
D13*
X154900Y586600D03*
X154900Y603600D03*
D10*
X241500Y385000D03*
X258500Y385000D03*
X276500Y385000D03*
X293500Y385000D03*
X327500Y402500D03*
X310500Y402500D03*
X310500Y385000D03*
X327500Y385000D03*
X313500Y308000D03*
X330500Y308000D03*
D14*
X282750Y482250D02*
X282750Y495750D01*
X276250Y495750D02*
X276250Y482250D01*
X269750Y482250D02*
X269750Y495750D01*
X263250Y495750D02*
X263250Y482250D01*
X256750Y482250D02*
X256750Y495750D01*
X250250Y495750D02*
X250250Y482250D01*
X243750Y482250D02*
X243750Y495750D01*
X237250Y495750D02*
X237250Y482250D01*
X282750Y427750D02*
X282750Y414250D01*
X276250Y414250D02*
X276250Y427750D01*
X269750Y427750D02*
X269750Y414250D01*
X263250Y414250D02*
X263250Y427750D01*
X256750Y427750D02*
X256750Y414250D01*
X250250Y414250D02*
X250250Y427750D01*
X243750Y427750D02*
X243750Y414250D01*
X237250Y414250D02*
X237250Y427750D01*
D15*
X147000Y417602D03*
X156500Y417602D03*
X166000Y417602D03*
X166000Y444399D03*
X147000Y444399D03*
D13*
X180000Y396000D03*
X163000Y396000D03*
D16*
X412000Y609240D03*
X402000Y609240D03*
X422000Y609240D03*
X392000Y609240D03*
D17*
X379000Y583758D03*
X435000Y583758D03*
D16*
X110000Y609240D03*
X100000Y609240D03*
X120000Y609240D03*
X90000Y609240D03*
D17*
X77000Y583758D03*
X133000Y583758D03*
D10*
X130000Y444000D03*
X113000Y444000D03*
X130000Y466000D03*
X113000Y466000D03*
D13*
X90000Y76500D03*
X90000Y93500D03*
D18*
X90000Y47500D03*
X90000Y62500D03*
D19*
X237880Y333100D03*
X237880Y320400D03*
X237880Y307700D03*
X237880Y295000D03*
X237880Y282300D03*
X237880Y269600D03*
X237880Y256900D03*
X292120Y256900D03*
X292120Y269600D03*
X292120Y282300D03*
X292120Y295000D03*
X292120Y307700D03*
X292120Y320400D03*
X292120Y333100D03*
X322880Y214050D03*
X322880Y201350D03*
X322880Y188650D03*
X322880Y175950D03*
X377120Y175950D03*
X377120Y188650D03*
X377120Y201350D03*
X377120Y214050D03*
D10*
X195500Y257000D03*
X212500Y257000D03*
D13*
X304500Y186500D03*
X304500Y203500D03*
D10*
X257500Y225000D03*
X274500Y225000D03*
D13*
X315000Y272000D03*
X315000Y255000D03*
M02*
