G04 EAGLE Gerber RS-274X export*
G75*
%MOMM*%
%FSLAX34Y34*%
%LPD*%
%INSoldermask Bottom*%
%IPPOS*%
%AMOC8*
5,1,8,0,0,1.08239X$1,22.5*%
G01*
%ADD10C,3.703200*%
%ADD11C,1.903200*%
%ADD12C,2.082800*%
%ADD13P,1.869504X8X22.500000*%
%ADD14R,0.838200X1.473200*%
%ADD15C,0.959600*%
%ADD16C,1.159600*%

G36*
X266890Y254607D02*
X266890Y254607D01*
X266956Y254609D01*
X266999Y254627D01*
X267046Y254635D01*
X267103Y254669D01*
X267163Y254694D01*
X267198Y254725D01*
X267239Y254750D01*
X267281Y254801D01*
X267329Y254845D01*
X267351Y254887D01*
X267380Y254924D01*
X267401Y254986D01*
X267432Y255045D01*
X267440Y255099D01*
X267452Y255136D01*
X267451Y255176D01*
X267459Y255230D01*
X267459Y257770D01*
X267448Y257835D01*
X267446Y257901D01*
X267428Y257944D01*
X267420Y257991D01*
X267386Y258048D01*
X267361Y258108D01*
X267330Y258143D01*
X267305Y258184D01*
X267254Y258226D01*
X267210Y258274D01*
X267168Y258296D01*
X267131Y258325D01*
X267069Y258346D01*
X267010Y258377D01*
X266956Y258385D01*
X266919Y258397D01*
X266879Y258396D01*
X266825Y258404D01*
X263015Y258404D01*
X262950Y258393D01*
X262884Y258391D01*
X262841Y258373D01*
X262794Y258365D01*
X262737Y258331D01*
X262677Y258306D01*
X262642Y258275D01*
X262601Y258250D01*
X262560Y258199D01*
X262511Y258155D01*
X262489Y258113D01*
X262460Y258076D01*
X262439Y258014D01*
X262408Y257955D01*
X262400Y257901D01*
X262388Y257864D01*
X262388Y257861D01*
X262389Y257824D01*
X262381Y257770D01*
X262381Y255230D01*
X262392Y255165D01*
X262394Y255099D01*
X262412Y255056D01*
X262420Y255009D01*
X262454Y254952D01*
X262479Y254892D01*
X262510Y254857D01*
X262535Y254816D01*
X262586Y254775D01*
X262630Y254726D01*
X262672Y254704D01*
X262709Y254675D01*
X262771Y254654D01*
X262830Y254623D01*
X262884Y254615D01*
X262921Y254603D01*
X262961Y254604D01*
X263015Y254596D01*
X266825Y254596D01*
X266890Y254607D01*
G37*
G36*
X221890Y223107D02*
X221890Y223107D01*
X221956Y223109D01*
X221999Y223127D01*
X222046Y223135D01*
X222103Y223169D01*
X222163Y223194D01*
X222198Y223225D01*
X222239Y223250D01*
X222281Y223301D01*
X222329Y223345D01*
X222351Y223387D01*
X222380Y223424D01*
X222401Y223486D01*
X222432Y223545D01*
X222440Y223599D01*
X222452Y223636D01*
X222451Y223676D01*
X222459Y223730D01*
X222459Y226270D01*
X222448Y226335D01*
X222446Y226401D01*
X222428Y226444D01*
X222420Y226491D01*
X222386Y226548D01*
X222361Y226608D01*
X222330Y226643D01*
X222305Y226684D01*
X222254Y226726D01*
X222210Y226774D01*
X222168Y226796D01*
X222131Y226825D01*
X222069Y226846D01*
X222010Y226877D01*
X221956Y226885D01*
X221919Y226897D01*
X221879Y226896D01*
X221825Y226904D01*
X218015Y226904D01*
X217950Y226893D01*
X217884Y226891D01*
X217841Y226873D01*
X217794Y226865D01*
X217737Y226831D01*
X217677Y226806D01*
X217642Y226775D01*
X217601Y226750D01*
X217560Y226699D01*
X217511Y226655D01*
X217489Y226613D01*
X217460Y226576D01*
X217439Y226514D01*
X217408Y226455D01*
X217400Y226401D01*
X217388Y226364D01*
X217388Y226361D01*
X217389Y226324D01*
X217381Y226270D01*
X217381Y223730D01*
X217392Y223665D01*
X217394Y223599D01*
X217412Y223556D01*
X217420Y223509D01*
X217454Y223452D01*
X217479Y223392D01*
X217510Y223357D01*
X217535Y223316D01*
X217586Y223275D01*
X217630Y223226D01*
X217672Y223204D01*
X217709Y223175D01*
X217771Y223154D01*
X217830Y223123D01*
X217884Y223115D01*
X217921Y223103D01*
X217961Y223104D01*
X218015Y223096D01*
X221825Y223096D01*
X221890Y223107D01*
G37*
D10*
X37500Y662500D03*
X662500Y662500D03*
X37500Y37500D03*
X662500Y37500D03*
D11*
X525000Y35000D03*
X525000Y105000D03*
X175000Y35000D03*
X175000Y105000D03*
X350000Y35000D03*
X350000Y105000D03*
D12*
X438000Y672000D03*
X412600Y672000D03*
X387200Y672000D03*
X361800Y672000D03*
D13*
X283000Y673000D03*
D14*
X235160Y225000D03*
X225000Y225000D03*
X214840Y225000D03*
X280160Y256500D03*
X270000Y256500D03*
X259840Y256500D03*
D15*
X62500Y132500D03*
X417000Y24000D03*
X592000Y24000D03*
X37000Y351000D03*
X240000Y25000D03*
X130000Y620000D03*
X195000Y400000D03*
X230000Y400000D03*
X215000Y475000D03*
X180000Y475000D03*
X180000Y425000D03*
X180000Y380000D03*
X205000Y360000D03*
X230000Y360000D03*
X260000Y365000D03*
X407500Y475000D03*
X349500Y424500D03*
X350000Y370000D03*
X350000Y335000D03*
X350000Y296000D03*
X332500Y279500D03*
X295000Y230000D03*
X350000Y155000D03*
X175000Y70000D03*
X350000Y65000D03*
X525000Y65000D03*
X275000Y200000D03*
X275000Y80000D03*
X275000Y155000D03*
X410000Y155000D03*
X443500Y222000D03*
X120000Y155000D03*
X120000Y80000D03*
X120000Y205000D03*
X160000Y290000D03*
X365000Y595000D03*
X262500Y272500D03*
X260000Y300000D03*
X100000Y567500D03*
X384000Y484000D03*
X315000Y510000D03*
X257500Y510000D03*
X257500Y565000D03*
X192500Y575000D03*
X192500Y535000D03*
X127500Y535000D03*
X192500Y615000D03*
X192500Y665000D03*
X322500Y675000D03*
X67500Y619500D03*
X42500Y619500D03*
X67500Y474500D03*
X42500Y474500D03*
X112500Y424500D03*
X67500Y424500D03*
X113500Y477500D03*
X297500Y565000D03*
X357500Y565000D03*
X440500Y607000D03*
X407000Y422500D03*
X438500Y648500D03*
X192500Y685000D03*
X525000Y195000D03*
X405500Y335000D03*
X400000Y654500D03*
X389500Y643000D03*
X372000Y655500D03*
X370000Y620000D03*
X110000Y510500D03*
X110000Y595000D03*
X350000Y310000D03*
X392000Y247000D03*
X350000Y402500D03*
X155000Y490000D03*
D16*
X312000Y64500D03*
D15*
X212000Y141000D03*
X392000Y620500D03*
X402000Y620500D03*
X161000Y456500D03*
X225000Y315000D03*
X251000Y270000D03*
X362500Y188000D03*
X363000Y280500D03*
X245000Y225000D03*
X354000Y198000D03*
X251000Y256500D03*
X293500Y370500D03*
M02*
