G04 EAGLE Gerber RS-274X export*
G75*
%MOMM*%
%FSLAX34Y34*%
%LPD*%
%INSolderpaste Top*%
%IPPOS*%
%AMOC8*
5,1,8,0,0,1.08239X$1,22.5*%
G01*
%ADD10R,1.100000X1.000000*%
%ADD11R,2.800000X2.200000*%
%ADD12R,2.800000X2.800000*%
%ADD13R,1.000000X1.100000*%
%ADD14C,0.450000*%
%ADD15R,0.558800X1.028700*%
%ADD16R,0.600000X1.550000*%
%ADD17R,1.200000X1.800000*%
%ADD18R,0.800000X0.800000*%
%ADD19R,1.525000X0.650000*%


D10*
X278000Y506700D03*
X261000Y506700D03*
X277500Y536500D03*
X294500Y536500D03*
X277000Y402500D03*
X294000Y402500D03*
X392000Y210000D03*
X409000Y210000D03*
X392000Y227000D03*
X409000Y227000D03*
X213500Y295000D03*
X196500Y295000D03*
X213500Y311000D03*
X196500Y311000D03*
D11*
X488000Y44000D03*
X562000Y24000D03*
D12*
X562000Y118000D03*
D11*
X138000Y44000D03*
X212000Y24000D03*
D12*
X212000Y118000D03*
D11*
X313000Y44000D03*
X387000Y24000D03*
D12*
X387000Y118000D03*
D13*
X170100Y586500D03*
X170100Y603500D03*
D10*
X330500Y325000D03*
X313500Y325000D03*
D13*
X154900Y586600D03*
X154900Y603600D03*
D10*
X241500Y385000D03*
X258500Y385000D03*
X276500Y385000D03*
X293500Y385000D03*
X327500Y402500D03*
X310500Y402500D03*
X310500Y385000D03*
X327500Y385000D03*
X313500Y308000D03*
X330500Y308000D03*
D14*
X282750Y482250D02*
X282750Y495750D01*
X276250Y495750D02*
X276250Y482250D01*
X269750Y482250D02*
X269750Y495750D01*
X263250Y495750D02*
X263250Y482250D01*
X256750Y482250D02*
X256750Y495750D01*
X250250Y495750D02*
X250250Y482250D01*
X243750Y482250D02*
X243750Y495750D01*
X237250Y495750D02*
X237250Y482250D01*
X282750Y427750D02*
X282750Y414250D01*
X276250Y414250D02*
X276250Y427750D01*
X269750Y427750D02*
X269750Y414250D01*
X263250Y414250D02*
X263250Y427750D01*
X256750Y427750D02*
X256750Y414250D01*
X250250Y414250D02*
X250250Y427750D01*
X243750Y427750D02*
X243750Y414250D01*
X237250Y414250D02*
X237250Y427750D01*
D15*
X197000Y417602D03*
X206500Y417602D03*
X216000Y417602D03*
X216000Y444399D03*
X197000Y444399D03*
D13*
X215000Y391000D03*
X198000Y391000D03*
D16*
X392000Y607240D03*
X382000Y607240D03*
X402000Y607240D03*
X372000Y607240D03*
D17*
X359000Y581758D03*
X415000Y581758D03*
D16*
X110000Y609240D03*
X100000Y609240D03*
X120000Y609240D03*
X90000Y609240D03*
D17*
X77000Y583758D03*
X133000Y583758D03*
D13*
X177500Y442500D03*
X177500Y425500D03*
X161000Y442500D03*
X161000Y425500D03*
D10*
X623500Y619000D03*
X606500Y619000D03*
D18*
X652000Y619000D03*
X637000Y619000D03*
D19*
X237880Y333100D03*
X237880Y320400D03*
X237880Y307700D03*
X237880Y295000D03*
X237880Y282300D03*
X237880Y269600D03*
X237880Y256900D03*
X292120Y256900D03*
X292120Y269600D03*
X292120Y282300D03*
X292120Y295000D03*
X292120Y307700D03*
X292120Y320400D03*
X292120Y333100D03*
X322880Y210550D03*
X322880Y197850D03*
X322880Y185150D03*
X322880Y172450D03*
X377120Y172450D03*
X377120Y185150D03*
X377120Y197850D03*
X377120Y210550D03*
D10*
X195500Y257000D03*
X212500Y257000D03*
D13*
X305000Y183000D03*
X305000Y200000D03*
D10*
X257500Y225000D03*
X274500Y225000D03*
D13*
X315000Y272000D03*
X315000Y255000D03*
D10*
X277500Y521500D03*
X294500Y521500D03*
M02*
