M48
;GenerationSoftware,Autodesk,EAGLE,9.6.2*%
;CreationDate,2024-03-16T19:01:10Z*%
FMAT,2
ICI,OFF
METRIC,TZ,000.000
T3C1.016
T2C3.302
T1C3.500
%
G90
M71
T1
X4000Y66250
X66250Y66250
X3750Y3750
X66250Y3750
T2
X22540Y67400
X53020Y67400
X53020Y44540
X22540Y44540
T3
X46000Y5000
X48540Y5000
X51080Y5000
X53620Y5000
X56160Y5000
X58700Y5000
X16000Y4000
X13460Y4000
X10920Y4000
X31430Y43270
X33970Y43270
X36510Y43270
X39050Y43270
X41590Y43270
X44130Y43270
X21270Y57240
X21270Y59780
X21270Y62320
M30