G04 EAGLE Gerber RS-274X export*
G75*
%MOMM*%
%FSLAX34Y34*%
%LPD*%
%INBottom Copper*%
%IPPOS*%
%AMOC8*
5,1,8,0,0,1.08239X$1,22.5*%
G01*
%ADD10C,1.879600*%
%ADD11C,0.756400*%
%ADD12C,0.508000*%
%ADD13C,0.254000*%

G36*
X126037Y10929D02*
X126037Y10929D01*
X126062Y10926D01*
X126120Y10948D01*
X126180Y10962D01*
X126200Y10979D01*
X126224Y10988D01*
X126266Y11033D01*
X126314Y11072D01*
X126325Y11096D01*
X126342Y11115D01*
X126360Y11174D01*
X126385Y11231D01*
X126384Y11256D01*
X126391Y11281D01*
X126381Y11342D01*
X126378Y11404D01*
X126366Y11426D01*
X126362Y11452D01*
X126313Y11523D01*
X126296Y11556D01*
X126287Y11562D01*
X126281Y11572D01*
X123723Y14129D01*
X121339Y19885D01*
X121339Y26115D01*
X123723Y31871D01*
X128129Y36277D01*
X133885Y38661D01*
X140115Y38661D01*
X145871Y36277D01*
X150277Y31871D01*
X152661Y26115D01*
X152661Y19885D01*
X150277Y14129D01*
X147719Y11572D01*
X147706Y11550D01*
X147686Y11534D01*
X147661Y11477D01*
X147628Y11425D01*
X147626Y11399D01*
X147615Y11375D01*
X147617Y11314D01*
X147611Y11252D01*
X147621Y11228D01*
X147622Y11202D01*
X147651Y11148D01*
X147673Y11090D01*
X147692Y11073D01*
X147704Y11050D01*
X147755Y11015D01*
X147800Y10973D01*
X147825Y10965D01*
X147846Y10950D01*
X147931Y10934D01*
X147966Y10923D01*
X147976Y10925D01*
X147988Y10923D01*
X651927Y10923D01*
X651964Y10931D01*
X652001Y10930D01*
X652047Y10951D01*
X652095Y10962D01*
X652125Y10986D01*
X652159Y11002D01*
X652191Y11041D01*
X652229Y11072D01*
X652245Y11107D01*
X652268Y11136D01*
X652280Y11185D01*
X652300Y11231D01*
X652298Y11268D01*
X652307Y11305D01*
X652295Y11354D01*
X652293Y11404D01*
X652275Y11437D01*
X652266Y11474D01*
X652234Y11512D01*
X652211Y11556D01*
X652180Y11578D01*
X652155Y11607D01*
X652100Y11634D01*
X652069Y11656D01*
X652046Y11660D01*
X652025Y11670D01*
X651823Y11724D01*
X645516Y15366D01*
X640366Y20516D01*
X636724Y26823D01*
X635558Y31177D01*
X634839Y33858D01*
X634839Y41142D01*
X636724Y48177D01*
X640366Y54484D01*
X645516Y59634D01*
X651823Y63276D01*
X658858Y65161D01*
X666142Y65161D01*
X673177Y63276D01*
X679484Y59634D01*
X684634Y54484D01*
X688276Y48177D01*
X688330Y47975D01*
X688348Y47942D01*
X688356Y47905D01*
X688388Y47866D01*
X688411Y47822D01*
X688442Y47800D01*
X688466Y47771D01*
X688512Y47751D01*
X688553Y47722D01*
X688590Y47716D01*
X688625Y47700D01*
X688674Y47702D01*
X688724Y47694D01*
X688760Y47705D01*
X688798Y47707D01*
X688842Y47730D01*
X688889Y47745D01*
X688917Y47771D01*
X688950Y47789D01*
X688979Y47830D01*
X689015Y47865D01*
X689028Y47900D01*
X689050Y47931D01*
X689061Y47992D01*
X689074Y48027D01*
X689073Y48050D01*
X689077Y48073D01*
X689077Y651927D01*
X689069Y651964D01*
X689070Y652001D01*
X689049Y652047D01*
X689038Y652095D01*
X689014Y652125D01*
X688998Y652159D01*
X688959Y652191D01*
X688928Y652229D01*
X688893Y652245D01*
X688864Y652268D01*
X688815Y652280D01*
X688769Y652300D01*
X688732Y652298D01*
X688695Y652307D01*
X688646Y652295D01*
X688596Y652293D01*
X688563Y652275D01*
X688526Y652266D01*
X688488Y652234D01*
X688444Y652211D01*
X688422Y652180D01*
X688393Y652155D01*
X688366Y652100D01*
X688344Y652069D01*
X688340Y652046D01*
X688330Y652025D01*
X688276Y651823D01*
X684634Y645516D01*
X679484Y640366D01*
X673177Y636724D01*
X666142Y634839D01*
X658858Y634839D01*
X651823Y636724D01*
X645516Y640366D01*
X640366Y645516D01*
X636724Y651823D01*
X635319Y657068D01*
X634839Y658858D01*
X634839Y666142D01*
X636724Y673177D01*
X640366Y679484D01*
X645516Y684634D01*
X651823Y688276D01*
X652025Y688330D01*
X652058Y688348D01*
X652095Y688356D01*
X652134Y688388D01*
X652178Y688411D01*
X652200Y688442D01*
X652229Y688466D01*
X652249Y688512D01*
X652278Y688553D01*
X652284Y688590D01*
X652300Y688625D01*
X652298Y688674D01*
X652306Y688724D01*
X652295Y688760D01*
X652293Y688798D01*
X652270Y688842D01*
X652255Y688889D01*
X652229Y688917D01*
X652211Y688950D01*
X652170Y688979D01*
X652135Y689015D01*
X652100Y689028D01*
X652069Y689050D01*
X652008Y689061D01*
X651973Y689074D01*
X651950Y689073D01*
X651927Y689077D01*
X343866Y689077D01*
X343854Y689074D01*
X343841Y689076D01*
X343770Y689055D01*
X343697Y689038D01*
X343687Y689030D01*
X343675Y689026D01*
X343621Y688975D01*
X343564Y688928D01*
X343558Y688916D01*
X343549Y688907D01*
X343523Y688837D01*
X343493Y688769D01*
X343493Y688757D01*
X343489Y688744D01*
X343497Y688670D01*
X343499Y688596D01*
X343506Y688585D01*
X343507Y688572D01*
X343547Y688509D01*
X343582Y688444D01*
X343593Y688437D01*
X343600Y688426D01*
X343721Y688346D01*
X344263Y688121D01*
X347621Y684763D01*
X349439Y680375D01*
X349439Y675625D01*
X347621Y671237D01*
X344263Y667879D01*
X339875Y666061D01*
X335125Y666061D01*
X330737Y667879D01*
X328269Y670347D01*
X328247Y670361D01*
X328231Y670381D01*
X328174Y670406D01*
X328122Y670439D01*
X328096Y670441D01*
X328072Y670452D01*
X328011Y670449D01*
X327949Y670455D01*
X327925Y670446D01*
X327899Y670445D01*
X327845Y670415D01*
X327787Y670394D01*
X327770Y670375D01*
X327747Y670362D01*
X327712Y670312D01*
X327670Y670266D01*
X327662Y670242D01*
X327647Y670221D01*
X327631Y670136D01*
X327620Y670100D01*
X327622Y670090D01*
X327620Y670078D01*
X327620Y652961D01*
X327631Y652911D01*
X327633Y652860D01*
X327651Y652828D01*
X327659Y652792D01*
X327692Y652753D01*
X327716Y652708D01*
X327746Y652687D01*
X327769Y652659D01*
X327816Y652638D01*
X327858Y652608D01*
X327900Y652600D01*
X327928Y652588D01*
X327958Y652589D01*
X328000Y652581D01*
X468482Y652581D01*
X468556Y652598D01*
X468630Y652611D01*
X468640Y652618D01*
X468650Y652620D01*
X468679Y652644D01*
X468750Y652692D01*
X468918Y652860D01*
X471242Y653823D01*
X473758Y653823D01*
X476082Y652860D01*
X477860Y651082D01*
X478823Y648758D01*
X478823Y646242D01*
X477860Y643918D01*
X476082Y642140D01*
X473758Y641177D01*
X471242Y641177D01*
X468918Y642140D01*
X468750Y642308D01*
X468686Y642348D01*
X468624Y642392D01*
X468612Y642394D01*
X468603Y642399D01*
X468566Y642403D01*
X468482Y642419D01*
X328000Y642419D01*
X327950Y642408D01*
X327899Y642406D01*
X327867Y642388D01*
X327831Y642380D01*
X327792Y642347D01*
X327747Y642323D01*
X327726Y642293D01*
X327698Y642270D01*
X327677Y642223D01*
X327647Y642181D01*
X327639Y642139D01*
X327627Y642111D01*
X327628Y642081D01*
X327620Y642039D01*
X327620Y241158D01*
X317843Y231380D01*
X234000Y231380D01*
X233926Y231363D01*
X233851Y231350D01*
X233841Y231343D01*
X233831Y231341D01*
X233802Y231317D01*
X233731Y231269D01*
X226843Y224380D01*
X179158Y224380D01*
X173880Y229658D01*
X173880Y241391D01*
X173867Y241448D01*
X173867Y241455D01*
X173865Y241458D01*
X173857Y241522D01*
X173845Y241542D01*
X173841Y241560D01*
X173816Y241590D01*
X173782Y241646D01*
X156545Y260755D01*
X156473Y260804D01*
X156405Y260853D01*
X156403Y260853D01*
X156402Y260854D01*
X156392Y260855D01*
X156262Y260880D01*
X127658Y260880D01*
X115380Y273158D01*
X115380Y572891D01*
X127140Y584620D01*
X139000Y584620D01*
X139074Y584637D01*
X139149Y584650D01*
X139159Y584657D01*
X139169Y584659D01*
X139198Y584683D01*
X139269Y584731D01*
X144269Y589731D01*
X144309Y589796D01*
X144353Y589858D01*
X144355Y589870D01*
X144360Y589878D01*
X144364Y589915D01*
X144380Y590000D01*
X144380Y642039D01*
X144369Y642089D01*
X144367Y642140D01*
X144349Y642172D01*
X144341Y642208D01*
X144308Y642247D01*
X144284Y642292D01*
X144254Y642313D01*
X144231Y642341D01*
X144184Y642362D01*
X144142Y642392D01*
X144100Y642400D01*
X144072Y642412D01*
X144042Y642411D01*
X144000Y642419D01*
X122262Y642419D01*
X122188Y642402D01*
X122113Y642389D01*
X122103Y642382D01*
X122093Y642380D01*
X122064Y642356D01*
X121993Y642308D01*
X100192Y620507D01*
X100152Y620442D01*
X100108Y620380D01*
X100106Y620368D01*
X100101Y620360D01*
X100097Y620323D01*
X100081Y620238D01*
X100081Y169762D01*
X100098Y169688D01*
X100111Y169613D01*
X100118Y169603D01*
X100120Y169593D01*
X100144Y169564D01*
X100192Y169493D01*
X114026Y155659D01*
X114080Y155625D01*
X114130Y155585D01*
X114153Y155580D01*
X114174Y155568D01*
X114237Y155561D01*
X114299Y155548D01*
X114325Y155553D01*
X114346Y155551D01*
X114381Y155564D01*
X114441Y155576D01*
X116242Y156323D01*
X118758Y156323D01*
X121082Y155360D01*
X122860Y153582D01*
X123823Y151258D01*
X123823Y148742D01*
X122860Y146418D01*
X121082Y144640D01*
X118758Y143677D01*
X116242Y143677D01*
X113918Y144640D01*
X113750Y144808D01*
X113686Y144848D01*
X113624Y144892D01*
X113612Y144894D01*
X113603Y144899D01*
X113566Y144903D01*
X113482Y144919D01*
X110395Y144919D01*
X89919Y165395D01*
X89919Y624605D01*
X117895Y652581D01*
X128839Y652581D01*
X128889Y652592D01*
X128940Y652594D01*
X128972Y652612D01*
X129008Y652620D01*
X129047Y652653D01*
X129092Y652677D01*
X129113Y652707D01*
X129141Y652730D01*
X129162Y652777D01*
X129192Y652819D01*
X129200Y652861D01*
X129212Y652889D01*
X129211Y652919D01*
X129219Y652961D01*
X129219Y666928D01*
X129205Y666990D01*
X129198Y667053D01*
X129185Y667073D01*
X129180Y667097D01*
X129139Y667146D01*
X129105Y667199D01*
X129083Y667214D01*
X129070Y667230D01*
X129035Y667246D01*
X128985Y667279D01*
X127537Y667879D01*
X124179Y671237D01*
X122361Y675625D01*
X122361Y680375D01*
X124179Y684763D01*
X127537Y688121D01*
X128079Y688346D01*
X128090Y688353D01*
X128103Y688356D01*
X128160Y688404D01*
X128220Y688447D01*
X128226Y688458D01*
X128236Y688466D01*
X128267Y688534D01*
X128301Y688600D01*
X128302Y688613D01*
X128307Y688625D01*
X128304Y688699D01*
X128306Y688773D01*
X128301Y688785D01*
X128301Y688798D01*
X128265Y688863D01*
X128234Y688930D01*
X128224Y688939D01*
X128218Y688950D01*
X128157Y688993D01*
X128099Y689039D01*
X128087Y689042D01*
X128076Y689050D01*
X127934Y689077D01*
X115041Y689077D01*
X114958Y689058D01*
X114876Y689040D01*
X114874Y689038D01*
X114872Y689038D01*
X114806Y688983D01*
X114741Y688931D01*
X114740Y688929D01*
X114738Y688928D01*
X114704Y688850D01*
X114668Y688774D01*
X114668Y688771D01*
X114667Y688769D01*
X114671Y688685D01*
X114673Y688601D01*
X114674Y688599D01*
X114674Y688596D01*
X114714Y688522D01*
X114754Y688447D01*
X114756Y688446D01*
X114757Y688444D01*
X114770Y688435D01*
X114868Y688358D01*
X115157Y688211D01*
X116678Y687106D01*
X118006Y685778D01*
X119111Y684257D01*
X119964Y682583D01*
X120545Y680796D01*
X120839Y678940D01*
X120839Y678761D01*
X109281Y678761D01*
X109231Y678750D01*
X109180Y678748D01*
X109148Y678730D01*
X109112Y678722D01*
X109073Y678689D01*
X109028Y678665D01*
X109007Y678635D01*
X108979Y678612D01*
X108958Y678565D01*
X108929Y678523D01*
X108920Y678481D01*
X108908Y678453D01*
X108909Y678423D01*
X108901Y678381D01*
X108901Y677999D01*
X108899Y677999D01*
X108899Y678381D01*
X108887Y678431D01*
X108886Y678482D01*
X108868Y678514D01*
X108860Y678550D01*
X108827Y678589D01*
X108803Y678634D01*
X108773Y678655D01*
X108749Y678683D01*
X108703Y678704D01*
X108661Y678734D01*
X108619Y678742D01*
X108591Y678754D01*
X108561Y678753D01*
X108519Y678761D01*
X96961Y678761D01*
X96961Y678940D01*
X97255Y680796D01*
X97836Y682583D01*
X98689Y684257D01*
X99794Y685778D01*
X101122Y687106D01*
X102643Y688211D01*
X102932Y688358D01*
X102995Y688411D01*
X103062Y688466D01*
X103063Y688469D01*
X103064Y688470D01*
X103098Y688547D01*
X103133Y688625D01*
X103132Y688627D01*
X103133Y688629D01*
X103129Y688712D01*
X103126Y688798D01*
X103125Y688800D01*
X103125Y688802D01*
X103083Y688876D01*
X103043Y688950D01*
X103041Y688951D01*
X103040Y688953D01*
X102969Y689002D01*
X102902Y689050D01*
X102899Y689050D01*
X102897Y689051D01*
X102881Y689054D01*
X102759Y689077D01*
X48073Y689077D01*
X48036Y689069D01*
X47999Y689070D01*
X47953Y689049D01*
X47905Y689038D01*
X47875Y689014D01*
X47841Y688998D01*
X47809Y688959D01*
X47771Y688928D01*
X47755Y688893D01*
X47732Y688864D01*
X47720Y688815D01*
X47700Y688769D01*
X47702Y688732D01*
X47693Y688695D01*
X47705Y688646D01*
X47707Y688596D01*
X47725Y688563D01*
X47734Y688526D01*
X47766Y688488D01*
X47789Y688444D01*
X47820Y688422D01*
X47845Y688393D01*
X47900Y688366D01*
X47931Y688344D01*
X47954Y688340D01*
X47975Y688330D01*
X48177Y688276D01*
X54484Y684634D01*
X59634Y679484D01*
X63276Y673177D01*
X64182Y669795D01*
X64691Y667894D01*
X65161Y666142D01*
X65161Y658858D01*
X63276Y651823D01*
X59634Y645516D01*
X54484Y640366D01*
X48177Y636724D01*
X41142Y634839D01*
X33858Y634839D01*
X26823Y636724D01*
X20516Y640366D01*
X15366Y645516D01*
X11724Y651823D01*
X11670Y652025D01*
X11652Y652058D01*
X11644Y652095D01*
X11612Y652134D01*
X11589Y652178D01*
X11558Y652200D01*
X11534Y652229D01*
X11488Y652249D01*
X11447Y652278D01*
X11410Y652284D01*
X11375Y652300D01*
X11326Y652298D01*
X11276Y652306D01*
X11240Y652295D01*
X11202Y652293D01*
X11158Y652270D01*
X11111Y652255D01*
X11083Y652229D01*
X11050Y652211D01*
X11021Y652170D01*
X10985Y652135D01*
X10972Y652100D01*
X10950Y652069D01*
X10939Y652008D01*
X10926Y651973D01*
X10927Y651950D01*
X10923Y651927D01*
X10923Y48073D01*
X10931Y48036D01*
X10930Y47999D01*
X10951Y47953D01*
X10962Y47905D01*
X10986Y47875D01*
X11002Y47841D01*
X11041Y47809D01*
X11072Y47771D01*
X11107Y47755D01*
X11136Y47732D01*
X11185Y47720D01*
X11231Y47700D01*
X11268Y47702D01*
X11305Y47693D01*
X11354Y47705D01*
X11404Y47707D01*
X11437Y47725D01*
X11474Y47734D01*
X11512Y47766D01*
X11556Y47789D01*
X11578Y47820D01*
X11607Y47845D01*
X11634Y47900D01*
X11656Y47931D01*
X11660Y47954D01*
X11670Y47975D01*
X11724Y48177D01*
X15366Y54484D01*
X20516Y59634D01*
X26823Y63276D01*
X33858Y65161D01*
X41142Y65161D01*
X48177Y63276D01*
X54484Y59634D01*
X59634Y54484D01*
X63276Y48177D01*
X64930Y42003D01*
X64930Y42002D01*
X65161Y41142D01*
X65161Y33858D01*
X63276Y26823D01*
X59634Y20516D01*
X54484Y15366D01*
X48177Y11724D01*
X47975Y11670D01*
X47942Y11652D01*
X47905Y11644D01*
X47866Y11612D01*
X47822Y11589D01*
X47800Y11558D01*
X47771Y11534D01*
X47751Y11488D01*
X47722Y11447D01*
X47716Y11410D01*
X47700Y11375D01*
X47702Y11326D01*
X47694Y11276D01*
X47705Y11240D01*
X47707Y11202D01*
X47730Y11158D01*
X47745Y11111D01*
X47771Y11083D01*
X47789Y11050D01*
X47830Y11021D01*
X47865Y10985D01*
X47900Y10972D01*
X47931Y10950D01*
X47992Y10939D01*
X48027Y10926D01*
X48050Y10927D01*
X48073Y10923D01*
X126012Y10923D01*
X126037Y10929D01*
G37*
G36*
X226074Y225637D02*
X226074Y225637D01*
X226149Y225650D01*
X226159Y225657D01*
X226169Y225659D01*
X226198Y225683D01*
X226269Y225731D01*
X234158Y233620D01*
X315000Y233620D01*
X315081Y233639D01*
X315163Y233656D01*
X315166Y233659D01*
X315169Y233659D01*
X315186Y233673D01*
X315279Y233742D01*
X322279Y241325D01*
X322296Y241354D01*
X322302Y241360D01*
X322315Y241387D01*
X322353Y241441D01*
X322357Y241462D01*
X322365Y241476D01*
X322366Y241502D01*
X322373Y241518D01*
X322372Y241543D01*
X322380Y241583D01*
X322380Y642039D01*
X322369Y642089D01*
X322367Y642140D01*
X322349Y642172D01*
X322341Y642208D01*
X322308Y642247D01*
X322284Y642292D01*
X322254Y642313D01*
X322231Y642341D01*
X322184Y642362D01*
X322142Y642392D01*
X322100Y642400D01*
X322072Y642412D01*
X322042Y642411D01*
X322000Y642419D01*
X209961Y642419D01*
X209911Y642408D01*
X209860Y642406D01*
X209828Y642388D01*
X209792Y642380D01*
X209753Y642347D01*
X209708Y642323D01*
X209687Y642293D01*
X209659Y642270D01*
X209638Y642223D01*
X209608Y642181D01*
X209600Y642139D01*
X209588Y642111D01*
X209589Y642081D01*
X209581Y642039D01*
X209581Y315018D01*
X209598Y314944D01*
X209611Y314870D01*
X209618Y314860D01*
X209620Y314850D01*
X209644Y314821D01*
X209692Y314750D01*
X209860Y314582D01*
X210823Y312258D01*
X210823Y309742D01*
X209860Y307418D01*
X208082Y305640D01*
X205758Y304677D01*
X203242Y304677D01*
X200918Y305640D01*
X199140Y307418D01*
X198177Y309742D01*
X198177Y312258D01*
X199140Y314582D01*
X199308Y314750D01*
X199348Y314814D01*
X199392Y314876D01*
X199394Y314888D01*
X199399Y314897D01*
X199403Y314934D01*
X199419Y315018D01*
X199419Y642039D01*
X199408Y642089D01*
X199406Y642140D01*
X199388Y642172D01*
X199380Y642208D01*
X199347Y642247D01*
X199323Y642292D01*
X199293Y642313D01*
X199270Y642341D01*
X199223Y642362D01*
X199181Y642392D01*
X199139Y642400D01*
X199111Y642412D01*
X199081Y642411D01*
X199039Y642419D01*
X150000Y642419D01*
X149950Y642408D01*
X149899Y642406D01*
X149867Y642388D01*
X149831Y642380D01*
X149792Y642347D01*
X149747Y642323D01*
X149726Y642293D01*
X149698Y642270D01*
X149677Y642223D01*
X149647Y642181D01*
X149639Y642139D01*
X149627Y642111D01*
X149628Y642081D01*
X149620Y642039D01*
X149620Y588158D01*
X141843Y580380D01*
X130000Y580380D01*
X129917Y580361D01*
X129833Y580342D01*
X129832Y580341D01*
X129831Y580341D01*
X129825Y580335D01*
X129717Y580254D01*
X120717Y570254D01*
X120685Y570196D01*
X120647Y570142D01*
X120643Y570119D01*
X120634Y570103D01*
X120632Y570064D01*
X120620Y570000D01*
X120620Y273500D01*
X120633Y273444D01*
X120633Y273431D01*
X120638Y273423D01*
X120650Y273351D01*
X120657Y273341D01*
X120659Y273331D01*
X120683Y273302D01*
X120731Y273231D01*
X130731Y263231D01*
X130796Y263191D01*
X130858Y263147D01*
X130870Y263145D01*
X130878Y263140D01*
X130915Y263136D01*
X131000Y263120D01*
X157086Y263120D01*
X176120Y242814D01*
X176120Y229500D01*
X176137Y229426D01*
X176150Y229351D01*
X176157Y229341D01*
X176159Y229331D01*
X176183Y229302D01*
X176231Y229231D01*
X179731Y225731D01*
X179796Y225691D01*
X179858Y225647D01*
X179870Y225645D01*
X179878Y225640D01*
X179915Y225636D01*
X180000Y225620D01*
X226000Y225620D01*
X226074Y225637D01*
G37*
%LPC*%
G36*
X223242Y230677D02*
X223242Y230677D01*
X220918Y231640D01*
X219140Y233418D01*
X218177Y235742D01*
X218177Y237747D01*
X218160Y237822D01*
X218146Y237897D01*
X218140Y237907D01*
X218138Y237916D01*
X218115Y237944D01*
X218065Y238017D01*
X158541Y297079D01*
X158517Y297094D01*
X157310Y298301D01*
X157309Y298302D01*
X156189Y299413D01*
X156189Y300992D01*
X156189Y300993D01*
X156183Y302692D01*
X156189Y302726D01*
X156189Y627212D01*
X156172Y627286D01*
X156159Y627360D01*
X156152Y627370D01*
X156150Y627380D01*
X156126Y627409D01*
X156078Y627480D01*
X154640Y628918D01*
X153677Y631242D01*
X153677Y633758D01*
X154640Y636082D01*
X156418Y637860D01*
X158742Y638823D01*
X161258Y638823D01*
X163582Y637860D01*
X165360Y636082D01*
X166323Y633758D01*
X166323Y631242D01*
X165360Y628918D01*
X163922Y627480D01*
X163882Y627416D01*
X163838Y627354D01*
X163836Y627342D01*
X163831Y627333D01*
X163827Y627296D01*
X163811Y627212D01*
X163811Y302746D01*
X163828Y302671D01*
X163842Y302595D01*
X163848Y302586D01*
X163850Y302577D01*
X163873Y302549D01*
X163923Y302476D01*
X217529Y249285D01*
X217551Y249272D01*
X217566Y249253D01*
X217624Y249227D01*
X217677Y249194D01*
X217702Y249192D01*
X217725Y249182D01*
X217787Y249184D01*
X217849Y249178D01*
X217873Y249187D01*
X217898Y249188D01*
X217953Y249218D01*
X218011Y249241D01*
X218028Y249259D01*
X218050Y249271D01*
X218086Y249322D01*
X218128Y249368D01*
X218135Y249392D01*
X218150Y249413D01*
X218165Y249491D01*
X218170Y249503D01*
X218170Y249511D01*
X218177Y249535D01*
X218175Y249544D01*
X218177Y249555D01*
X218177Y249758D01*
X219140Y252082D01*
X220578Y253520D01*
X220618Y253584D01*
X220662Y253646D01*
X220664Y253658D01*
X220669Y253667D01*
X220673Y253704D01*
X220689Y253788D01*
X220689Y254264D01*
X220672Y254338D01*
X220659Y254413D01*
X220652Y254423D01*
X220650Y254433D01*
X220626Y254462D01*
X220578Y254533D01*
X181189Y293922D01*
X181189Y612212D01*
X181172Y612286D01*
X181159Y612360D01*
X181152Y612370D01*
X181150Y612380D01*
X181126Y612409D01*
X181078Y612480D01*
X179640Y613918D01*
X178677Y616242D01*
X178677Y618758D01*
X179640Y621082D01*
X181418Y622860D01*
X183742Y623823D01*
X186258Y623823D01*
X188582Y622860D01*
X190360Y621082D01*
X191323Y618758D01*
X191323Y616242D01*
X190360Y613918D01*
X188922Y612480D01*
X188882Y612416D01*
X188838Y612354D01*
X188836Y612342D01*
X188831Y612333D01*
X188827Y612296D01*
X188811Y612212D01*
X188811Y297236D01*
X188828Y297162D01*
X188841Y297087D01*
X188848Y297077D01*
X188850Y297067D01*
X188874Y297038D01*
X188922Y296967D01*
X228311Y257578D01*
X228311Y253788D01*
X228328Y253714D01*
X228341Y253640D01*
X228348Y253630D01*
X228350Y253620D01*
X228374Y253591D01*
X228422Y253520D01*
X229860Y252082D01*
X230823Y249758D01*
X230823Y247242D01*
X229860Y244918D01*
X228082Y243140D01*
X227989Y243101D01*
X227968Y243086D01*
X227943Y243079D01*
X227898Y243036D01*
X227848Y243000D01*
X227836Y242978D01*
X227817Y242960D01*
X227795Y242902D01*
X227766Y242847D01*
X227766Y242822D01*
X227757Y242797D01*
X227763Y242736D01*
X227761Y242674D01*
X227772Y242651D01*
X227775Y242625D01*
X227808Y242573D01*
X227834Y242517D01*
X227854Y242501D01*
X227868Y242479D01*
X227940Y242431D01*
X227968Y242408D01*
X227978Y242406D01*
X227988Y242399D01*
X228082Y242360D01*
X229860Y240582D01*
X230823Y238258D01*
X230823Y235742D01*
X229860Y233418D01*
X228082Y231640D01*
X225758Y230677D01*
X223242Y230677D01*
G37*
%LPD*%
%LPC*%
G36*
X206742Y58677D02*
X206742Y58677D01*
X204418Y59640D01*
X202640Y61418D01*
X201677Y63742D01*
X201677Y66258D01*
X202640Y68582D01*
X203578Y69520D01*
X203618Y69584D01*
X203662Y69646D01*
X203664Y69658D01*
X203669Y69667D01*
X203673Y69704D01*
X203689Y69788D01*
X203689Y128264D01*
X203672Y128338D01*
X203659Y128413D01*
X203652Y128423D01*
X203650Y128433D01*
X203626Y128462D01*
X203578Y128533D01*
X196033Y136078D01*
X195968Y136118D01*
X195906Y136162D01*
X195894Y136164D01*
X195886Y136169D01*
X195849Y136173D01*
X195764Y136189D01*
X155922Y136189D01*
X106189Y185922D01*
X106189Y226459D01*
X106188Y226463D01*
X106189Y226467D01*
X106158Y228041D01*
X106162Y228046D01*
X106163Y228052D01*
X107277Y229166D01*
X107279Y229169D01*
X107282Y229171D01*
X116071Y238312D01*
X116108Y238374D01*
X116150Y238433D01*
X116153Y238450D01*
X116160Y238461D01*
X116163Y238500D01*
X116177Y238576D01*
X116177Y240758D01*
X117140Y243082D01*
X118918Y244860D01*
X121242Y245823D01*
X123758Y245823D01*
X126082Y244860D01*
X127860Y243082D01*
X128823Y240758D01*
X128823Y238242D01*
X127860Y235918D01*
X126082Y234140D01*
X123758Y233177D01*
X121869Y233177D01*
X121791Y233159D01*
X121713Y233144D01*
X121707Y233139D01*
X121700Y233138D01*
X121675Y233117D01*
X121595Y233061D01*
X119512Y230895D01*
X119508Y230887D01*
X119500Y230882D01*
X119464Y230813D01*
X119424Y230746D01*
X119423Y230737D01*
X119419Y230729D01*
X119417Y230651D01*
X119411Y230573D01*
X119414Y230564D01*
X119414Y230555D01*
X119446Y230485D01*
X119475Y230412D01*
X119482Y230406D01*
X119486Y230398D01*
X119547Y230349D01*
X119605Y230297D01*
X119614Y230295D01*
X119621Y230289D01*
X119697Y230272D01*
X119772Y230251D01*
X119781Y230253D01*
X119790Y230251D01*
X119932Y230280D01*
X121242Y230823D01*
X123758Y230823D01*
X126082Y229860D01*
X127860Y228082D01*
X128823Y225758D01*
X128823Y223242D01*
X127860Y220918D01*
X126422Y219480D01*
X126382Y219416D01*
X126338Y219354D01*
X126336Y219342D01*
X126331Y219333D01*
X126327Y219296D01*
X126311Y219212D01*
X126311Y194236D01*
X126328Y194162D01*
X126341Y194087D01*
X126348Y194077D01*
X126350Y194067D01*
X126374Y194038D01*
X126422Y193967D01*
X163967Y156422D01*
X164032Y156382D01*
X164094Y156338D01*
X164106Y156336D01*
X164114Y156331D01*
X164151Y156327D01*
X164236Y156311D01*
X291578Y156311D01*
X301455Y146434D01*
X301520Y146394D01*
X301582Y146350D01*
X301594Y146348D01*
X301602Y146343D01*
X301639Y146339D01*
X301724Y146323D01*
X303258Y146323D01*
X305582Y145360D01*
X307360Y143582D01*
X308323Y141258D01*
X308323Y138742D01*
X307360Y136418D01*
X305582Y134640D01*
X303258Y133677D01*
X300742Y133677D01*
X298418Y134640D01*
X296640Y136418D01*
X295677Y138742D01*
X295677Y141276D01*
X295660Y141350D01*
X295647Y141425D01*
X295640Y141435D01*
X295638Y141445D01*
X295614Y141474D01*
X295566Y141545D01*
X288533Y148578D01*
X288468Y148618D01*
X288406Y148662D01*
X288394Y148664D01*
X288386Y148669D01*
X288349Y148673D01*
X288264Y148689D01*
X160922Y148689D01*
X118689Y190922D01*
X118689Y219212D01*
X118672Y219286D01*
X118659Y219360D01*
X118652Y219370D01*
X118650Y219380D01*
X118626Y219409D01*
X118578Y219480D01*
X117140Y220918D01*
X116177Y223242D01*
X116177Y225758D01*
X116621Y226828D01*
X116623Y226844D01*
X116632Y226859D01*
X116637Y226929D01*
X116649Y226999D01*
X116644Y227015D01*
X116645Y227032D01*
X116619Y227097D01*
X116598Y227165D01*
X116587Y227177D01*
X116580Y227192D01*
X116527Y227239D01*
X116479Y227291D01*
X116463Y227296D01*
X116451Y227308D01*
X116383Y227326D01*
X116317Y227351D01*
X116300Y227349D01*
X116284Y227353D01*
X116214Y227340D01*
X116144Y227333D01*
X116130Y227324D01*
X116114Y227320D01*
X116010Y227248D01*
X115998Y227240D01*
X115997Y227238D01*
X115995Y227237D01*
X113917Y225076D01*
X113880Y225013D01*
X113838Y224954D01*
X113835Y224938D01*
X113828Y224927D01*
X113825Y224888D01*
X113811Y224812D01*
X113811Y189236D01*
X113823Y189182D01*
X113824Y189159D01*
X113830Y189148D01*
X113841Y189087D01*
X113848Y189077D01*
X113850Y189067D01*
X113874Y189038D01*
X113922Y188967D01*
X158967Y143922D01*
X159032Y143882D01*
X159094Y143838D01*
X159106Y143836D01*
X159114Y143831D01*
X159151Y143827D01*
X159236Y143811D01*
X199078Y143811D01*
X211311Y131578D01*
X211311Y70726D01*
X211325Y70665D01*
X211332Y70601D01*
X211345Y70581D01*
X211350Y70558D01*
X211391Y70509D01*
X211425Y70455D01*
X211447Y70440D01*
X211460Y70424D01*
X211495Y70409D01*
X211546Y70375D01*
X211582Y70360D01*
X213360Y68582D01*
X214323Y66258D01*
X214323Y63742D01*
X213360Y61418D01*
X211582Y59640D01*
X209258Y58677D01*
X206742Y58677D01*
G37*
%LPD*%
G36*
X322050Y652592D02*
X322050Y652592D01*
X322101Y652594D01*
X322133Y652612D01*
X322169Y652620D01*
X322208Y652653D01*
X322253Y652677D01*
X322274Y652707D01*
X322302Y652730D01*
X322323Y652777D01*
X322353Y652819D01*
X322361Y652861D01*
X322373Y652889D01*
X322372Y652919D01*
X322380Y652961D01*
X322380Y670478D01*
X322374Y670503D01*
X322377Y670529D01*
X322355Y670587D01*
X322341Y670647D01*
X322324Y670667D01*
X322315Y670691D01*
X322270Y670733D01*
X322231Y670781D01*
X322207Y670791D01*
X322188Y670809D01*
X322129Y670826D01*
X322072Y670852D01*
X322047Y670851D01*
X322022Y670858D01*
X321961Y670847D01*
X321899Y670845D01*
X321877Y670833D01*
X321851Y670828D01*
X321780Y670780D01*
X321747Y670762D01*
X321741Y670754D01*
X321731Y670747D01*
X318863Y667879D01*
X314475Y666061D01*
X309725Y666061D01*
X305337Y667879D01*
X301979Y671237D01*
X300161Y675625D01*
X300161Y680375D01*
X301979Y684763D01*
X305337Y688121D01*
X305879Y688346D01*
X305890Y688353D01*
X305903Y688356D01*
X305960Y688404D01*
X306020Y688447D01*
X306026Y688458D01*
X306036Y688466D01*
X306067Y688534D01*
X306101Y688600D01*
X306102Y688613D01*
X306107Y688625D01*
X306104Y688699D01*
X306106Y688773D01*
X306101Y688785D01*
X306101Y688798D01*
X306065Y688863D01*
X306034Y688930D01*
X306024Y688939D01*
X306018Y688950D01*
X305957Y688993D01*
X305899Y689039D01*
X305887Y689042D01*
X305876Y689050D01*
X305734Y689077D01*
X293066Y689077D01*
X293054Y689074D01*
X293041Y689076D01*
X292970Y689055D01*
X292897Y689038D01*
X292887Y689030D01*
X292875Y689026D01*
X292821Y688975D01*
X292764Y688928D01*
X292758Y688916D01*
X292749Y688907D01*
X292723Y688837D01*
X292693Y688769D01*
X292693Y688757D01*
X292689Y688744D01*
X292697Y688670D01*
X292699Y688596D01*
X292706Y688585D01*
X292707Y688572D01*
X292747Y688509D01*
X292782Y688444D01*
X292793Y688437D01*
X292800Y688426D01*
X292921Y688346D01*
X293463Y688121D01*
X296821Y684763D01*
X298639Y680375D01*
X298639Y675625D01*
X296821Y671237D01*
X293463Y667879D01*
X289075Y666061D01*
X284325Y666061D01*
X279937Y667879D01*
X276579Y671237D01*
X274761Y675625D01*
X274761Y680375D01*
X276579Y684763D01*
X279937Y688121D01*
X280479Y688346D01*
X280490Y688353D01*
X280503Y688356D01*
X280560Y688404D01*
X280620Y688447D01*
X280626Y688458D01*
X280636Y688466D01*
X280667Y688534D01*
X280701Y688600D01*
X280702Y688613D01*
X280707Y688625D01*
X280704Y688699D01*
X280706Y688773D01*
X280701Y688785D01*
X280701Y688798D01*
X280665Y688863D01*
X280634Y688930D01*
X280624Y688939D01*
X280618Y688950D01*
X280557Y688993D01*
X280499Y689039D01*
X280487Y689042D01*
X280476Y689050D01*
X280334Y689077D01*
X267666Y689077D01*
X267654Y689074D01*
X267641Y689076D01*
X267570Y689055D01*
X267497Y689038D01*
X267487Y689030D01*
X267475Y689026D01*
X267421Y688975D01*
X267364Y688928D01*
X267358Y688916D01*
X267349Y688907D01*
X267323Y688837D01*
X267293Y688769D01*
X267293Y688757D01*
X267289Y688744D01*
X267297Y688670D01*
X267299Y688596D01*
X267306Y688585D01*
X267307Y688572D01*
X267347Y688509D01*
X267382Y688444D01*
X267393Y688437D01*
X267400Y688426D01*
X267521Y688346D01*
X268063Y688121D01*
X271421Y684763D01*
X273239Y680375D01*
X273239Y675625D01*
X271421Y671237D01*
X268063Y667879D01*
X263675Y666061D01*
X258925Y666061D01*
X254537Y667879D01*
X251179Y671237D01*
X249361Y675625D01*
X249361Y680375D01*
X251179Y684763D01*
X254537Y688121D01*
X255079Y688346D01*
X255090Y688353D01*
X255103Y688356D01*
X255160Y688404D01*
X255220Y688447D01*
X255226Y688458D01*
X255236Y688466D01*
X255267Y688534D01*
X255301Y688600D01*
X255302Y688613D01*
X255307Y688625D01*
X255304Y688699D01*
X255306Y688773D01*
X255301Y688785D01*
X255301Y688798D01*
X255265Y688863D01*
X255234Y688930D01*
X255224Y688939D01*
X255218Y688950D01*
X255157Y688993D01*
X255099Y689039D01*
X255087Y689042D01*
X255076Y689050D01*
X254934Y689077D01*
X242266Y689077D01*
X242254Y689074D01*
X242241Y689076D01*
X242170Y689055D01*
X242097Y689038D01*
X242087Y689030D01*
X242075Y689026D01*
X242021Y688975D01*
X241964Y688928D01*
X241958Y688916D01*
X241949Y688907D01*
X241923Y688837D01*
X241893Y688769D01*
X241893Y688757D01*
X241889Y688744D01*
X241897Y688670D01*
X241899Y688596D01*
X241906Y688585D01*
X241907Y688572D01*
X241947Y688509D01*
X241982Y688444D01*
X241993Y688437D01*
X242000Y688426D01*
X242121Y688346D01*
X242663Y688121D01*
X246021Y684763D01*
X247839Y680375D01*
X247839Y675625D01*
X246021Y671237D01*
X242663Y667879D01*
X238275Y666061D01*
X233525Y666061D01*
X229137Y667879D01*
X225779Y671237D01*
X223961Y675625D01*
X223961Y680375D01*
X225779Y684763D01*
X229137Y688121D01*
X229679Y688346D01*
X229690Y688353D01*
X229703Y688356D01*
X229760Y688404D01*
X229820Y688447D01*
X229826Y688458D01*
X229836Y688466D01*
X229867Y688534D01*
X229901Y688600D01*
X229902Y688613D01*
X229907Y688625D01*
X229904Y688699D01*
X229906Y688773D01*
X229901Y688785D01*
X229901Y688798D01*
X229865Y688863D01*
X229834Y688930D01*
X229824Y688939D01*
X229818Y688950D01*
X229757Y688993D01*
X229699Y689039D01*
X229687Y689042D01*
X229676Y689050D01*
X229534Y689077D01*
X216866Y689077D01*
X216854Y689074D01*
X216841Y689076D01*
X216770Y689055D01*
X216697Y689038D01*
X216687Y689030D01*
X216675Y689026D01*
X216621Y688975D01*
X216564Y688928D01*
X216558Y688916D01*
X216549Y688907D01*
X216523Y688837D01*
X216493Y688769D01*
X216493Y688757D01*
X216489Y688744D01*
X216497Y688670D01*
X216499Y688596D01*
X216506Y688585D01*
X216507Y688572D01*
X216547Y688509D01*
X216582Y688444D01*
X216593Y688437D01*
X216600Y688426D01*
X216721Y688346D01*
X217263Y688121D01*
X220621Y684763D01*
X222439Y680375D01*
X222439Y675625D01*
X220621Y671237D01*
X217263Y667879D01*
X212875Y666061D01*
X208125Y666061D01*
X203737Y667879D01*
X200379Y671237D01*
X198561Y675625D01*
X198561Y680375D01*
X200379Y684763D01*
X203737Y688121D01*
X204279Y688346D01*
X204290Y688353D01*
X204303Y688356D01*
X204360Y688404D01*
X204420Y688447D01*
X204426Y688458D01*
X204436Y688466D01*
X204467Y688534D01*
X204501Y688600D01*
X204502Y688613D01*
X204507Y688625D01*
X204504Y688699D01*
X204506Y688773D01*
X204501Y688785D01*
X204501Y688798D01*
X204465Y688863D01*
X204434Y688930D01*
X204424Y688939D01*
X204418Y688950D01*
X204357Y688993D01*
X204299Y689039D01*
X204287Y689042D01*
X204276Y689050D01*
X204134Y689077D01*
X191466Y689077D01*
X191454Y689074D01*
X191441Y689076D01*
X191370Y689055D01*
X191297Y689038D01*
X191287Y689030D01*
X191275Y689026D01*
X191221Y688975D01*
X191164Y688928D01*
X191158Y688916D01*
X191149Y688907D01*
X191123Y688837D01*
X191093Y688769D01*
X191093Y688757D01*
X191089Y688744D01*
X191097Y688670D01*
X191099Y688596D01*
X191106Y688585D01*
X191107Y688572D01*
X191147Y688509D01*
X191182Y688444D01*
X191193Y688437D01*
X191200Y688426D01*
X191321Y688346D01*
X191863Y688121D01*
X195221Y684763D01*
X197039Y680375D01*
X197039Y675625D01*
X195221Y671237D01*
X191863Y667879D01*
X187475Y666061D01*
X182725Y666061D01*
X178337Y667879D01*
X174979Y671237D01*
X173161Y675625D01*
X173161Y680375D01*
X174979Y684763D01*
X178337Y688121D01*
X178879Y688346D01*
X178890Y688353D01*
X178903Y688356D01*
X178960Y688404D01*
X179020Y688447D01*
X179026Y688458D01*
X179036Y688466D01*
X179067Y688534D01*
X179101Y688600D01*
X179102Y688613D01*
X179107Y688625D01*
X179104Y688699D01*
X179106Y688773D01*
X179101Y688785D01*
X179101Y688798D01*
X179065Y688863D01*
X179034Y688930D01*
X179024Y688939D01*
X179018Y688950D01*
X178957Y688993D01*
X178899Y689039D01*
X178887Y689042D01*
X178876Y689050D01*
X178734Y689077D01*
X166066Y689077D01*
X166054Y689074D01*
X166041Y689076D01*
X165970Y689055D01*
X165897Y689038D01*
X165887Y689030D01*
X165875Y689026D01*
X165821Y688975D01*
X165764Y688928D01*
X165758Y688916D01*
X165749Y688907D01*
X165723Y688837D01*
X165693Y688769D01*
X165693Y688757D01*
X165689Y688744D01*
X165697Y688670D01*
X165699Y688596D01*
X165706Y688585D01*
X165707Y688572D01*
X165747Y688509D01*
X165782Y688444D01*
X165793Y688437D01*
X165800Y688426D01*
X165921Y688346D01*
X166463Y688121D01*
X169821Y684763D01*
X171639Y680375D01*
X171639Y675625D01*
X169821Y671237D01*
X166463Y667879D01*
X162075Y666061D01*
X157325Y666061D01*
X152937Y667879D01*
X150269Y670547D01*
X150247Y670561D01*
X150231Y670581D01*
X150174Y670606D01*
X150122Y670639D01*
X150096Y670641D01*
X150072Y670652D01*
X150011Y670649D01*
X149949Y670655D01*
X149925Y670646D01*
X149899Y670645D01*
X149845Y670615D01*
X149787Y670594D01*
X149770Y670575D01*
X149747Y670562D01*
X149712Y670512D01*
X149670Y670466D01*
X149662Y670442D01*
X149647Y670421D01*
X149631Y670336D01*
X149620Y670300D01*
X149622Y670290D01*
X149620Y670278D01*
X149620Y652961D01*
X149631Y652911D01*
X149633Y652860D01*
X149651Y652828D01*
X149659Y652792D01*
X149692Y652753D01*
X149716Y652708D01*
X149746Y652687D01*
X149769Y652659D01*
X149816Y652638D01*
X149858Y652608D01*
X149900Y652600D01*
X149928Y652588D01*
X149958Y652589D01*
X150000Y652581D01*
X322000Y652581D01*
X322050Y652592D01*
G37*
%LPC*%
G36*
X569023Y318589D02*
X569023Y318589D01*
X562306Y320389D01*
X556283Y323866D01*
X551366Y328783D01*
X547889Y334806D01*
X547430Y336517D01*
X546089Y341523D01*
X546089Y348477D01*
X547889Y355194D01*
X551366Y361217D01*
X556283Y366134D01*
X562306Y369611D01*
X569023Y371411D01*
X575977Y371411D01*
X582694Y369611D01*
X588717Y366134D01*
X593634Y361217D01*
X597111Y355194D01*
X597584Y353427D01*
X598911Y348477D01*
X598911Y341523D01*
X597111Y334806D01*
X593634Y328783D01*
X588717Y323866D01*
X582694Y320389D01*
X575977Y318589D01*
X569023Y318589D01*
G37*
%LPD*%
%LPC*%
G36*
X469023Y318589D02*
X469023Y318589D01*
X462306Y320389D01*
X456283Y323866D01*
X451366Y328783D01*
X447889Y334806D01*
X447430Y336517D01*
X446089Y341523D01*
X446089Y348477D01*
X447889Y355194D01*
X451366Y361217D01*
X456283Y366134D01*
X462306Y369611D01*
X469023Y371411D01*
X475977Y371411D01*
X482694Y369611D01*
X488717Y366134D01*
X493634Y361217D01*
X497111Y355194D01*
X497584Y353427D01*
X498911Y348477D01*
X498911Y341523D01*
X497111Y334806D01*
X493634Y328783D01*
X488717Y323866D01*
X482694Y320389D01*
X475977Y318589D01*
X469023Y318589D01*
G37*
%LPD*%
%LPC*%
G36*
X469023Y113589D02*
X469023Y113589D01*
X462306Y115389D01*
X456283Y118866D01*
X451366Y123783D01*
X447889Y129806D01*
X447418Y131563D01*
X446603Y134605D01*
X446089Y136523D01*
X446089Y143477D01*
X447889Y150194D01*
X451366Y156217D01*
X456283Y161134D01*
X462306Y164611D01*
X469023Y166411D01*
X475977Y166411D01*
X482694Y164611D01*
X488717Y161134D01*
X493634Y156217D01*
X497111Y150194D01*
X497572Y148473D01*
X497572Y148472D01*
X498911Y143477D01*
X498911Y136523D01*
X497111Y129806D01*
X493634Y123783D01*
X488717Y118866D01*
X482694Y115389D01*
X475977Y113589D01*
X469023Y113589D01*
G37*
%LPD*%
%LPC*%
G36*
X569023Y113589D02*
X569023Y113589D01*
X562306Y115389D01*
X556283Y118866D01*
X551366Y123783D01*
X547889Y129806D01*
X547418Y131563D01*
X546603Y134605D01*
X546089Y136523D01*
X546089Y143477D01*
X547889Y150194D01*
X551366Y156217D01*
X556283Y161134D01*
X562306Y164611D01*
X569023Y166411D01*
X575977Y166411D01*
X582694Y164611D01*
X588717Y161134D01*
X593634Y156217D01*
X597111Y150194D01*
X597572Y148473D01*
X597572Y148472D01*
X598911Y143477D01*
X598911Y136523D01*
X597111Y129806D01*
X593634Y123783D01*
X588717Y118866D01*
X582694Y115389D01*
X575977Y113589D01*
X569023Y113589D01*
G37*
%LPD*%
%LPC*%
G36*
X268742Y216177D02*
X268742Y216177D01*
X266418Y217140D01*
X264640Y218918D01*
X263677Y221242D01*
X263677Y223758D01*
X264640Y226082D01*
X266418Y227860D01*
X268742Y228823D01*
X271258Y228823D01*
X273582Y227860D01*
X275020Y226422D01*
X275084Y226382D01*
X275146Y226338D01*
X275158Y226336D01*
X275167Y226331D01*
X275204Y226327D01*
X275288Y226311D01*
X388264Y226311D01*
X388338Y226328D01*
X388413Y226341D01*
X388423Y226348D01*
X388433Y226350D01*
X388462Y226374D01*
X388533Y226422D01*
X398578Y236467D01*
X398618Y236532D01*
X398662Y236594D01*
X398664Y236606D01*
X398669Y236614D01*
X398673Y236651D01*
X398689Y236736D01*
X398689Y251578D01*
X401033Y253922D01*
X407922Y260811D01*
X416712Y260811D01*
X416786Y260828D01*
X416860Y260841D01*
X416870Y260848D01*
X416880Y260850D01*
X416909Y260874D01*
X416980Y260922D01*
X418418Y262360D01*
X420742Y263323D01*
X423258Y263323D01*
X425582Y262360D01*
X427360Y260582D01*
X428323Y258258D01*
X428323Y255742D01*
X427360Y253418D01*
X425582Y251640D01*
X423258Y250677D01*
X420742Y250677D01*
X418418Y251640D01*
X416980Y253078D01*
X416916Y253118D01*
X416854Y253162D01*
X416842Y253164D01*
X416833Y253169D01*
X416796Y253173D01*
X416712Y253189D01*
X411236Y253189D01*
X411162Y253172D01*
X411087Y253159D01*
X411077Y253152D01*
X411067Y253150D01*
X411038Y253126D01*
X410967Y253078D01*
X406422Y248533D01*
X406382Y248468D01*
X406338Y248406D01*
X406336Y248394D01*
X406331Y248386D01*
X406327Y248349D01*
X406311Y248264D01*
X406311Y233422D01*
X403967Y231078D01*
X393922Y221033D01*
X391578Y218689D01*
X275288Y218689D01*
X275214Y218672D01*
X275140Y218659D01*
X275130Y218652D01*
X275120Y218650D01*
X275091Y218626D01*
X275020Y218578D01*
X273582Y217140D01*
X271258Y216177D01*
X268742Y216177D01*
G37*
%LPD*%
%LPC*%
G36*
X268742Y201177D02*
X268742Y201177D01*
X266418Y202140D01*
X264640Y203918D01*
X263677Y206242D01*
X263677Y208758D01*
X264640Y211082D01*
X266418Y212860D01*
X268742Y213823D01*
X271258Y213823D01*
X273582Y212860D01*
X275020Y211422D01*
X275084Y211382D01*
X275146Y211338D01*
X275158Y211336D01*
X275167Y211331D01*
X275204Y211327D01*
X275288Y211311D01*
X400764Y211311D01*
X400838Y211328D01*
X400913Y211341D01*
X400923Y211348D01*
X400933Y211350D01*
X400962Y211374D01*
X401033Y211422D01*
X408422Y218811D01*
X417212Y218811D01*
X417286Y218828D01*
X417360Y218841D01*
X417370Y218848D01*
X417380Y218850D01*
X417409Y218874D01*
X417480Y218922D01*
X418918Y220360D01*
X421242Y221323D01*
X423758Y221323D01*
X426082Y220360D01*
X427860Y218582D01*
X428823Y216258D01*
X428823Y213742D01*
X427860Y211418D01*
X426082Y209640D01*
X423758Y208677D01*
X421242Y208677D01*
X418918Y209640D01*
X417480Y211078D01*
X417416Y211118D01*
X417354Y211162D01*
X417342Y211164D01*
X417333Y211169D01*
X417296Y211173D01*
X417212Y211189D01*
X411736Y211189D01*
X411662Y211172D01*
X411587Y211159D01*
X411577Y211152D01*
X411567Y211150D01*
X411538Y211126D01*
X411467Y211078D01*
X404078Y203689D01*
X275288Y203689D01*
X275214Y203672D01*
X275140Y203659D01*
X275130Y203652D01*
X275120Y203650D01*
X275091Y203626D01*
X275020Y203578D01*
X273582Y202140D01*
X271258Y201177D01*
X268742Y201177D01*
G37*
%LPD*%
%LPC*%
G36*
X536242Y226177D02*
X536242Y226177D01*
X533918Y227140D01*
X533750Y227308D01*
X533686Y227348D01*
X533624Y227392D01*
X533612Y227394D01*
X533603Y227399D01*
X533566Y227403D01*
X533482Y227419D01*
X487895Y227419D01*
X480507Y234808D01*
X480442Y234848D01*
X480380Y234892D01*
X480368Y234894D01*
X480360Y234899D01*
X480323Y234903D01*
X480238Y234919D01*
X429018Y234919D01*
X428944Y234902D01*
X428870Y234889D01*
X428860Y234882D01*
X428850Y234880D01*
X428821Y234856D01*
X428750Y234808D01*
X428582Y234640D01*
X426258Y233677D01*
X423742Y233677D01*
X421418Y234640D01*
X419640Y236418D01*
X418677Y238742D01*
X418677Y241258D01*
X419640Y243582D01*
X421418Y245360D01*
X423742Y246323D01*
X426258Y246323D01*
X428582Y245360D01*
X428750Y245192D01*
X428814Y245152D01*
X428876Y245108D01*
X428888Y245106D01*
X428897Y245101D01*
X428934Y245097D01*
X429018Y245081D01*
X484605Y245081D01*
X491993Y237692D01*
X492058Y237652D01*
X492120Y237608D01*
X492132Y237606D01*
X492140Y237601D01*
X492177Y237597D01*
X492262Y237581D01*
X533482Y237581D01*
X533555Y237598D01*
X533630Y237611D01*
X533641Y237618D01*
X533650Y237620D01*
X533679Y237644D01*
X533750Y237692D01*
X533918Y237860D01*
X536242Y238823D01*
X538758Y238823D01*
X541082Y237860D01*
X542860Y236082D01*
X543823Y233758D01*
X543823Y231242D01*
X542860Y228918D01*
X541082Y227140D01*
X538758Y226177D01*
X536242Y226177D01*
G37*
%LPD*%
%LPC*%
G36*
X261288Y86339D02*
X261288Y86339D01*
X254430Y89180D01*
X249180Y94430D01*
X246339Y101288D01*
X246339Y108712D01*
X249180Y115570D01*
X254430Y120820D01*
X261288Y123661D01*
X268712Y123661D01*
X275570Y120820D01*
X280820Y115570D01*
X283661Y108712D01*
X283661Y101288D01*
X280820Y94430D01*
X275570Y89180D01*
X268712Y86339D01*
X261288Y86339D01*
G37*
%LPD*%
%LPC*%
G36*
X261288Y16339D02*
X261288Y16339D01*
X254430Y19180D01*
X249180Y24430D01*
X246339Y31288D01*
X246339Y38712D01*
X249180Y45570D01*
X254430Y50820D01*
X261288Y53661D01*
X268712Y53661D01*
X275570Y50820D01*
X280820Y45570D01*
X283661Y38712D01*
X283661Y31288D01*
X280820Y24430D01*
X275570Y19180D01*
X268712Y16339D01*
X261288Y16339D01*
G37*
%LPD*%
%LPC*%
G36*
X133885Y77339D02*
X133885Y77339D01*
X128129Y79723D01*
X123723Y84129D01*
X121339Y89885D01*
X121339Y96115D01*
X123723Y101871D01*
X128129Y106277D01*
X133885Y108661D01*
X140115Y108661D01*
X145871Y106277D01*
X150277Y101871D01*
X152661Y96115D01*
X152661Y89885D01*
X150277Y84129D01*
X145871Y79723D01*
X140115Y77339D01*
X133885Y77339D01*
G37*
%LPD*%
%LPC*%
G36*
X109661Y666061D02*
X109661Y666061D01*
X109661Y677239D01*
X120839Y677239D01*
X120839Y677060D01*
X120545Y675204D01*
X119964Y673417D01*
X119111Y671743D01*
X118006Y670222D01*
X116678Y668894D01*
X115157Y667789D01*
X113483Y666936D01*
X111696Y666355D01*
X109840Y666061D01*
X109661Y666061D01*
G37*
%LPD*%
%LPC*%
G36*
X107960Y666061D02*
X107960Y666061D01*
X106104Y666355D01*
X104317Y666936D01*
X102643Y667789D01*
X101122Y668894D01*
X99794Y670222D01*
X98689Y671743D01*
X97836Y673417D01*
X97255Y675204D01*
X96961Y677060D01*
X96961Y677239D01*
X108139Y677239D01*
X108139Y666061D01*
X107960Y666061D01*
G37*
%LPD*%
D10*
X108900Y678000D03*
X134300Y678000D03*
X159700Y678000D03*
X185100Y678000D03*
X210500Y678000D03*
X235900Y678000D03*
X261300Y678000D03*
X286700Y678000D03*
X312100Y678000D03*
X337500Y678000D03*
D11*
X117500Y150000D03*
X204500Y311000D03*
D12*
X117500Y150000D02*
X112500Y150000D01*
X95000Y167500D01*
X95000Y622500D01*
X134300Y649300D02*
X134300Y678000D01*
X134300Y649300D02*
X136100Y647500D01*
X204500Y647500D02*
X204500Y311000D01*
X95000Y622500D02*
X120000Y647500D01*
X136100Y647500D01*
X204500Y647500D02*
X472500Y647500D01*
D11*
X472500Y647500D03*
X425000Y240000D03*
X537500Y232500D03*
D12*
X482500Y240000D02*
X425000Y240000D01*
X482500Y240000D02*
X490000Y232500D01*
X537500Y232500D01*
X204500Y647500D02*
X136100Y647500D01*
D11*
X82500Y645000D03*
X82500Y502500D03*
X82500Y370000D03*
X84000Y263000D03*
X582500Y385000D03*
X632500Y500000D03*
X630000Y655000D03*
X108500Y657500D03*
X172500Y657500D03*
X197500Y657500D03*
X222500Y657500D03*
X247500Y657500D03*
X275000Y657500D03*
X300000Y657500D03*
X375000Y215000D03*
X375000Y231500D03*
X476000Y307500D03*
X375000Y198000D03*
X377500Y502500D03*
X377500Y370000D03*
X370000Y657500D03*
X472000Y502500D03*
X472000Y595000D03*
X474000Y172000D03*
X561000Y170000D03*
X550000Y232500D03*
X558500Y307500D03*
X305000Y502500D03*
X305000Y370000D03*
X252500Y502500D03*
X142500Y502500D03*
X127500Y502500D03*
X153000Y657500D03*
X275000Y627500D03*
X300000Y627500D03*
X249000Y627500D03*
X224000Y627500D03*
X172000Y599500D03*
X127500Y564500D03*
X126500Y320500D03*
X146500Y320500D03*
X217500Y321500D03*
X271500Y282500D03*
X291500Y192500D03*
X218500Y102500D03*
X181500Y102500D03*
X59500Y102500D03*
X181500Y32500D03*
X81500Y32500D03*
X331500Y42500D03*
D12*
X300000Y657500D02*
X370000Y657500D01*
D11*
X320000Y657500D03*
X465000Y231000D03*
X81500Y58500D03*
X81500Y184500D03*
X58500Y184500D03*
X59500Y69500D03*
X217500Y302500D03*
X187000Y217000D03*
X204000Y217000D03*
X204000Y233000D03*
X187000Y233000D03*
X108000Y263000D03*
X106500Y370000D03*
X106500Y502500D03*
X109500Y607000D03*
X370000Y634500D03*
X172000Y632500D03*
X194000Y624500D03*
X472000Y634500D03*
X123000Y250000D03*
X117500Y139500D03*
X310000Y147500D03*
X218500Y70500D03*
X278500Y215500D03*
X419000Y248000D03*
X419000Y206000D03*
X224500Y248500D03*
X185000Y617500D03*
D13*
X185000Y295500D01*
X224500Y256000D02*
X224500Y248500D01*
X224500Y256000D02*
X185000Y295500D01*
D11*
X122500Y224500D03*
X302000Y140000D03*
D13*
X122500Y192500D02*
X122500Y224500D01*
X302000Y140500D02*
X302000Y140000D01*
X162500Y152500D02*
X122500Y192500D01*
X162500Y152500D02*
X290000Y152500D01*
X302000Y140500D01*
D11*
X122500Y239500D03*
X208000Y65000D03*
D13*
X110000Y226500D02*
X122500Y239500D01*
X110000Y187500D02*
X157500Y140000D01*
X197500Y140000D01*
X207500Y130000D01*
X207500Y65500D02*
X208000Y65000D01*
X110000Y187500D02*
X110000Y226500D01*
X207500Y130000D02*
X207500Y65500D01*
D11*
X422500Y215000D03*
X270000Y207500D03*
D13*
X402500Y207500D01*
X410000Y215000D01*
X422500Y215000D01*
D11*
X224500Y237000D03*
D13*
X160000Y301000D02*
X160000Y632500D01*
X160000Y301000D02*
X224500Y237000D01*
D11*
X160000Y632500D03*
X422000Y257000D03*
X270000Y222500D03*
D13*
X409500Y257000D02*
X422000Y257000D01*
X409500Y257000D02*
X402500Y250000D01*
X402500Y235000D02*
X390000Y222500D01*
X402500Y235000D02*
X402500Y250000D01*
X390000Y222500D02*
X270000Y222500D01*
M02*
