G04 EAGLE Gerber RS-274X export*
G75*
%MOMM*%
%FSLAX34Y34*%
%LPD*%
%INSoldermask Bottom*%
%IPPOS*%
%AMOC8*
5,1,8,0,0,1.08239X$1,22.5*%
G01*
%ADD10C,3.703200*%
%ADD11C,3.453200*%
%ADD12C,2.082800*%
%ADD13C,1.903200*%
%ADD14C,1.303200*%
%ADD15C,0.959600*%


D10*
X37500Y662500D03*
X662500Y662500D03*
X662500Y37500D03*
X37500Y37500D03*
D11*
X472500Y140000D03*
X572500Y140000D03*
X572500Y345000D03*
X472500Y345000D03*
D12*
X108900Y678000D03*
X134300Y678000D03*
X159700Y678000D03*
X185100Y678000D03*
X210500Y678000D03*
X235900Y678000D03*
X261300Y678000D03*
X286700Y678000D03*
X312100Y678000D03*
X337500Y678000D03*
D13*
X265000Y35000D03*
X265000Y105000D03*
D14*
X137000Y23000D03*
X137000Y93000D03*
D15*
X117500Y150000D03*
X204500Y311000D03*
X472500Y647500D03*
X425000Y240000D03*
X537500Y232500D03*
X82500Y645000D03*
X82500Y502500D03*
X82500Y370000D03*
X84000Y263000D03*
X582500Y385000D03*
X632500Y500000D03*
X630000Y655000D03*
X108500Y657500D03*
X172500Y657500D03*
X197500Y657500D03*
X222500Y657500D03*
X247500Y657500D03*
X275000Y657500D03*
X300000Y657500D03*
X375000Y215000D03*
X375000Y231500D03*
X476000Y307500D03*
X375000Y198000D03*
X377500Y502500D03*
X377500Y370000D03*
X370000Y657500D03*
X472000Y502500D03*
X472000Y595000D03*
X474000Y172000D03*
X561000Y170000D03*
X550000Y232500D03*
X558500Y307500D03*
X305000Y502500D03*
X305000Y370000D03*
X252500Y502500D03*
X142500Y502500D03*
X127500Y502500D03*
X153000Y657500D03*
X275000Y627500D03*
X300000Y627500D03*
X249000Y627500D03*
X224000Y627500D03*
X172000Y599500D03*
X127500Y564500D03*
X126500Y320500D03*
X146500Y320500D03*
X217500Y321500D03*
X271500Y282500D03*
X291500Y192500D03*
X218500Y102500D03*
X181500Y102500D03*
X59500Y102500D03*
X181500Y32500D03*
X81500Y32500D03*
X331500Y42500D03*
X320000Y657500D03*
X465000Y231000D03*
X81500Y58500D03*
X81500Y184500D03*
X58500Y184500D03*
X59500Y69500D03*
X217500Y302500D03*
X187000Y217000D03*
X204000Y217000D03*
X204000Y233000D03*
X187000Y233000D03*
X108000Y263000D03*
X106500Y370000D03*
X106500Y502500D03*
X109500Y607000D03*
X370000Y634500D03*
X172000Y632500D03*
X194000Y624500D03*
X472000Y634500D03*
X123000Y250000D03*
X117500Y139500D03*
X310000Y147500D03*
X218500Y70500D03*
X278500Y215500D03*
X419000Y248000D03*
X419000Y206000D03*
X224500Y248500D03*
X185000Y617500D03*
X122500Y224500D03*
X302000Y140000D03*
X122500Y239500D03*
X208000Y65000D03*
X422500Y215000D03*
X270000Y207500D03*
X224500Y237000D03*
X160000Y632500D03*
X422000Y257000D03*
X270000Y222500D03*
M02*
