M48
;GenerationSoftware,Autodesk,EAGLE,9.6.2*%
;CreationDate,2024-03-16T23:33:34Z*%
FMAT,2
ICI,OFF
METRIC,TZ,000.000
T4C0.350
T3C1.016
T2C3.250
T1C3.500
%
G90
M71
T1
X3750Y3750
X3750Y66250
X66250Y66250
X66250Y3750
T2
X62250Y34500
X52250Y34500
X52250Y14000
X62250Y14000
T3
X21050Y67800
X16500Y28750
X36820Y28750
X16500Y26210
X36820Y26210
X16500Y23670
X36820Y23670
X16500Y21130
X36820Y21130
X16500Y18590
X36820Y18590
X16500Y16050
X36820Y16050
X16500Y13510
X36820Y13510
X16500Y10970
X36820Y10970
X16500Y8430
X36820Y8430
X16500Y5890
X36820Y5890
X10890Y67800
X13430Y67800
X15970Y67800
X18510Y67800
X23590Y67800
X26130Y67800
X28670Y67800
X31210Y67800
X33750Y67800
X45550Y67800
X48090Y67800
X50630Y67800
X53170Y67800
X55710Y67800
X58250Y67800
T4
X60850Y30750
X19500Y11000
X14750Y65750
X46100Y25050
X46100Y18500
X13400Y64250
X48000Y64300
X8250Y64500
X10750Y2500
X8250Y49750
X8250Y37000
X8750Y25250
X63250Y38500
X28450Y12450
X63250Y50000
X63000Y65500
X12250Y65750
X17250Y65750
X19750Y65750
X22250Y65750
X24750Y65750
X27500Y65750
X30000Y65750
X32100Y65750
X38850Y23250
X38850Y20000
X38850Y11000
X38850Y8000
X38850Y4750
X52000Y65500
X54500Y65500
X57000Y65500
X59500Y65500
X46050Y26500
X46050Y20000
X38850Y27500
X46050Y23050
X46050Y16750
X46100Y29500
X52600Y30750
X52600Y23250
X37750Y49750
X37500Y37000
X37000Y65750
X47500Y50000
X47500Y59500
X52600Y17000
X61100Y17000
X61100Y23250
M30