G04 EAGLE Gerber RS-274X export*
G75*
%MOMM*%
%FSLAX34Y34*%
%LPD*%
%INSoldermask Top*%
%IPPOS*%
%AMOC8*
5,1,8,0,0,1.08239X$1,22.5*%
G01*
%ADD10C,3.703200*%
%ADD11C,3.453200*%
%ADD12R,1.303200X1.203200*%
%ADD13R,1.003200X1.003200*%
%ADD14R,0.838200X1.473200*%
%ADD15R,2.082800X2.082800*%
%ADD16C,2.082800*%
%ADD17R,0.803200X0.743200*%
%ADD18R,1.403200X0.753200*%
%ADD19C,0.959600*%

G36*
X676970Y617107D02*
X676970Y617107D01*
X677036Y617109D01*
X677079Y617127D01*
X677126Y617135D01*
X677183Y617169D01*
X677243Y617194D01*
X677278Y617225D01*
X677319Y617250D01*
X677361Y617301D01*
X677409Y617345D01*
X677431Y617387D01*
X677460Y617424D01*
X677481Y617486D01*
X677512Y617545D01*
X677520Y617599D01*
X677532Y617636D01*
X677531Y617676D01*
X677539Y617730D01*
X677539Y620270D01*
X677528Y620335D01*
X677526Y620401D01*
X677508Y620444D01*
X677500Y620491D01*
X677466Y620548D01*
X677441Y620608D01*
X677410Y620643D01*
X677385Y620684D01*
X677334Y620726D01*
X677290Y620774D01*
X677248Y620796D01*
X677211Y620825D01*
X677149Y620846D01*
X677090Y620877D01*
X677036Y620885D01*
X676999Y620897D01*
X676959Y620896D01*
X676905Y620904D01*
X673095Y620904D01*
X673030Y620893D01*
X672964Y620891D01*
X672921Y620873D01*
X672874Y620865D01*
X672817Y620831D01*
X672757Y620806D01*
X672722Y620775D01*
X672681Y620750D01*
X672640Y620699D01*
X672591Y620655D01*
X672569Y620613D01*
X672540Y620576D01*
X672519Y620514D01*
X672488Y620455D01*
X672480Y620401D01*
X672468Y620364D01*
X672468Y620361D01*
X672469Y620324D01*
X672461Y620270D01*
X672461Y617730D01*
X672472Y617665D01*
X672474Y617599D01*
X672492Y617556D01*
X672500Y617509D01*
X672534Y617452D01*
X672559Y617392D01*
X672590Y617357D01*
X672615Y617316D01*
X672666Y617275D01*
X672710Y617226D01*
X672752Y617204D01*
X672789Y617175D01*
X672851Y617154D01*
X672910Y617123D01*
X672964Y617115D01*
X673001Y617103D01*
X673041Y617104D01*
X673095Y617096D01*
X676905Y617096D01*
X676970Y617107D01*
G37*
D10*
X37500Y662500D03*
X662500Y662500D03*
X662500Y37500D03*
X37500Y37500D03*
D11*
X522500Y140000D03*
X622500Y140000D03*
X622500Y345000D03*
X522500Y345000D03*
D12*
X632000Y619000D03*
X615000Y619000D03*
D13*
X660000Y619000D03*
X645000Y619000D03*
D14*
X680080Y619000D03*
X669920Y619000D03*
D15*
X165000Y287500D03*
X368200Y287500D03*
D16*
X165000Y262100D03*
X368200Y262100D03*
X165000Y236700D03*
X368200Y236700D03*
X165000Y211300D03*
X368200Y211300D03*
X165000Y185900D03*
X368200Y185900D03*
X165000Y160500D03*
X368200Y160500D03*
X165000Y135100D03*
X368200Y135100D03*
X165000Y109700D03*
X368200Y109700D03*
X165000Y84300D03*
X368200Y84300D03*
X165000Y58900D03*
X368200Y58900D03*
X108900Y678000D03*
X134300Y678000D03*
X159700Y678000D03*
X185100Y678000D03*
X210500Y678000D03*
X235900Y678000D03*
X261300Y678000D03*
X286700Y678000D03*
X312100Y678000D03*
X337500Y678000D03*
X455500Y678000D03*
X480900Y678000D03*
X506300Y678000D03*
X531700Y678000D03*
X557100Y678000D03*
X582500Y678000D03*
D17*
X567250Y272150D03*
X567250Y252850D03*
X577750Y252850D03*
X577750Y272150D03*
D12*
X577500Y314000D03*
X560500Y314000D03*
X577500Y298500D03*
X560500Y298500D03*
D18*
X471999Y274500D03*
X471999Y265000D03*
X471999Y255500D03*
X498001Y255500D03*
X498001Y274500D03*
D12*
X536000Y272500D03*
X519000Y272500D03*
X536000Y255000D03*
X519000Y255000D03*
X476500Y295000D03*
X493500Y295000D03*
X493500Y310000D03*
X476500Y310000D03*
X476500Y325000D03*
X493500Y325000D03*
X492000Y225000D03*
X475000Y225000D03*
X492000Y240500D03*
X475000Y240500D03*
D17*
X567250Y207150D03*
X567250Y187850D03*
X577750Y187850D03*
X577750Y207150D03*
D18*
X471999Y209000D03*
X471999Y199500D03*
X471999Y190000D03*
X498001Y190000D03*
X498001Y209000D03*
D12*
X533500Y207500D03*
X516500Y207500D03*
X533500Y190000D03*
X516500Y190000D03*
X492000Y160000D03*
X475000Y160000D03*
X492000Y175000D03*
X475000Y175000D03*
D19*
X134000Y642500D03*
X480000Y643000D03*
X82500Y645000D03*
X107500Y25000D03*
X82500Y497500D03*
X82500Y370000D03*
X87500Y252500D03*
X632500Y385000D03*
X632500Y500000D03*
X630000Y655000D03*
X122500Y657500D03*
X147500Y657500D03*
X172500Y657500D03*
X197500Y657500D03*
X222500Y657500D03*
X247500Y657500D03*
X275000Y657500D03*
X300000Y657500D03*
X321000Y657500D03*
X388500Y232500D03*
X388500Y200000D03*
X388500Y110000D03*
X388500Y80000D03*
X388500Y47500D03*
X520000Y655000D03*
X545000Y655000D03*
X570000Y655000D03*
X595000Y655000D03*
X460500Y265000D03*
X460500Y200000D03*
X388500Y275000D03*
X460500Y230500D03*
X461000Y295000D03*
X526000Y307500D03*
X526000Y232500D03*
X460500Y167500D03*
X377500Y497500D03*
X375000Y370000D03*
X370000Y657500D03*
X475000Y500000D03*
X475000Y595000D03*
X526000Y170000D03*
X611000Y170000D03*
X611000Y232500D03*
X608500Y307500D03*
X195000Y110000D03*
X284500Y124500D03*
X461000Y250500D03*
X461000Y185000D03*
M02*
