G04 EAGLE Gerber RS-274X export*
G75*
%MOMM*%
%FSLAX34Y34*%
%LPD*%
%INSoldermask Bottom*%
%IPPOS*%
%AMOC8*
5,1,8,0,0,1.08239X$1,22.5*%
G01*
%ADD10C,3.703200*%
%ADD11C,3.453200*%
%ADD12R,2.082800X2.082800*%
%ADD13C,2.082800*%
%ADD14C,0.959600*%


D10*
X37500Y662500D03*
X662500Y662500D03*
X662500Y37500D03*
X37500Y37500D03*
D11*
X522500Y140000D03*
X622500Y140000D03*
X622500Y345000D03*
X522500Y345000D03*
D12*
X165000Y287500D03*
X368200Y287500D03*
D13*
X165000Y262100D03*
X368200Y262100D03*
X165000Y236700D03*
X368200Y236700D03*
X165000Y211300D03*
X368200Y211300D03*
X165000Y185900D03*
X368200Y185900D03*
X165000Y160500D03*
X368200Y160500D03*
X165000Y135100D03*
X368200Y135100D03*
X165000Y109700D03*
X368200Y109700D03*
X165000Y84300D03*
X368200Y84300D03*
X165000Y58900D03*
X368200Y58900D03*
X108900Y678000D03*
X134300Y678000D03*
X159700Y678000D03*
X185100Y678000D03*
X210500Y678000D03*
X235900Y678000D03*
X261300Y678000D03*
X286700Y678000D03*
X312100Y678000D03*
X337500Y678000D03*
X455500Y678000D03*
X480900Y678000D03*
X506300Y678000D03*
X531700Y678000D03*
X557100Y678000D03*
X582500Y678000D03*
D14*
X134000Y642500D03*
X480000Y643000D03*
X82500Y645000D03*
X107500Y25000D03*
X82500Y497500D03*
X82500Y370000D03*
X87500Y252500D03*
X632500Y385000D03*
X632500Y500000D03*
X630000Y655000D03*
X122500Y657500D03*
X147500Y657500D03*
X172500Y657500D03*
X197500Y657500D03*
X222500Y657500D03*
X247500Y657500D03*
X275000Y657500D03*
X300000Y657500D03*
X321000Y657500D03*
X388500Y232500D03*
X388500Y200000D03*
X388500Y110000D03*
X388500Y80000D03*
X388500Y47500D03*
X520000Y655000D03*
X545000Y655000D03*
X570000Y655000D03*
X595000Y655000D03*
X460500Y265000D03*
X460500Y200000D03*
X388500Y275000D03*
X460500Y230500D03*
X461000Y295000D03*
X526000Y307500D03*
X526000Y232500D03*
X460500Y167500D03*
X377500Y497500D03*
X375000Y370000D03*
X370000Y657500D03*
X475000Y500000D03*
X475000Y595000D03*
X526000Y170000D03*
X611000Y170000D03*
X611000Y232500D03*
X608500Y307500D03*
X195000Y110000D03*
X284500Y124500D03*
X461000Y250500D03*
X461000Y185000D03*
M02*
