G04 EAGLE Gerber RS-274X export*
G75*
%MOMM*%
%FSLAX34Y34*%
%LPD*%
%INBottom Copper*%
%IPPOS*%
%AMOC8*
5,1,8,0,0,1.08239X$1,22.5*%
G01*
%ADD10C,1.879600*%

G36*
X695448Y3814D02*
X695448Y3814D01*
X695467Y3812D01*
X695569Y3834D01*
X695671Y3850D01*
X695688Y3860D01*
X695708Y3864D01*
X695797Y3917D01*
X695888Y3966D01*
X695902Y3980D01*
X695919Y3990D01*
X695986Y4069D01*
X696058Y4144D01*
X696066Y4162D01*
X696079Y4177D01*
X696118Y4273D01*
X696161Y4367D01*
X696163Y4387D01*
X696171Y4405D01*
X696189Y4572D01*
X696189Y695428D01*
X696186Y695448D01*
X696188Y695467D01*
X696166Y695569D01*
X696150Y695671D01*
X696140Y695688D01*
X696136Y695708D01*
X696083Y695797D01*
X696034Y695888D01*
X696020Y695902D01*
X696010Y695919D01*
X695931Y695986D01*
X695856Y696058D01*
X695838Y696066D01*
X695823Y696079D01*
X695727Y696118D01*
X695633Y696161D01*
X695613Y696163D01*
X695595Y696171D01*
X695428Y696189D01*
X4572Y696189D01*
X4552Y696186D01*
X4533Y696188D01*
X4431Y696166D01*
X4329Y696150D01*
X4312Y696140D01*
X4292Y696136D01*
X4203Y696083D01*
X4112Y696034D01*
X4098Y696020D01*
X4081Y696010D01*
X4014Y695931D01*
X3942Y695856D01*
X3934Y695838D01*
X3921Y695823D01*
X3882Y695727D01*
X3839Y695633D01*
X3837Y695613D01*
X3829Y695595D01*
X3811Y695428D01*
X3811Y4572D01*
X3814Y4552D01*
X3812Y4533D01*
X3834Y4431D01*
X3850Y4329D01*
X3860Y4312D01*
X3864Y4292D01*
X3917Y4203D01*
X3966Y4112D01*
X3980Y4098D01*
X3990Y4081D01*
X4069Y4014D01*
X4144Y3942D01*
X4162Y3934D01*
X4177Y3921D01*
X4273Y3882D01*
X4367Y3839D01*
X4387Y3837D01*
X4405Y3829D01*
X4572Y3811D01*
X695428Y3811D01*
X695448Y3814D01*
G37*
%LPC*%
G36*
X658514Y642459D02*
X658514Y642459D01*
X651148Y645510D01*
X645510Y651148D01*
X642459Y658514D01*
X642459Y666486D01*
X645510Y673852D01*
X651148Y679490D01*
X658514Y682541D01*
X666486Y682541D01*
X673852Y679490D01*
X679490Y673852D01*
X682541Y666486D01*
X682541Y658514D01*
X679490Y651148D01*
X673852Y645510D01*
X666486Y642459D01*
X658514Y642459D01*
G37*
%LPD*%
%LPC*%
G36*
X36014Y642459D02*
X36014Y642459D01*
X28648Y645510D01*
X23010Y651148D01*
X19959Y658514D01*
X19959Y666486D01*
X23010Y673852D01*
X28648Y679490D01*
X36014Y682541D01*
X43986Y682541D01*
X51352Y679490D01*
X56990Y673852D01*
X60041Y666486D01*
X60041Y658514D01*
X56990Y651148D01*
X51352Y645510D01*
X43986Y642459D01*
X36014Y642459D01*
G37*
%LPD*%
%LPC*%
G36*
X658514Y17459D02*
X658514Y17459D01*
X651148Y20510D01*
X645510Y26148D01*
X642459Y33514D01*
X642459Y41486D01*
X645510Y48852D01*
X651148Y54490D01*
X658514Y57541D01*
X666486Y57541D01*
X673852Y54490D01*
X679490Y48852D01*
X682541Y41486D01*
X682541Y33514D01*
X679490Y26148D01*
X673852Y20510D01*
X666486Y17459D01*
X658514Y17459D01*
G37*
%LPD*%
%LPC*%
G36*
X33514Y17459D02*
X33514Y17459D01*
X26148Y20510D01*
X20510Y26148D01*
X17459Y33514D01*
X17459Y41486D01*
X20510Y48852D01*
X26148Y54490D01*
X33514Y57541D01*
X41486Y57541D01*
X48852Y54490D01*
X54490Y48852D01*
X57541Y41486D01*
X57541Y33514D01*
X54490Y26148D01*
X48852Y20510D01*
X41486Y17459D01*
X33514Y17459D01*
G37*
%LPD*%
%LPC*%
G36*
X526411Y654949D02*
X526411Y654949D01*
X519409Y657850D01*
X514050Y663209D01*
X511149Y670211D01*
X511149Y677789D01*
X514050Y684791D01*
X519409Y690150D01*
X526411Y693051D01*
X533989Y693051D01*
X540991Y690150D01*
X546350Y684791D01*
X549251Y677789D01*
X549251Y670211D01*
X546350Y663209D01*
X540991Y657850D01*
X533989Y654949D01*
X526411Y654949D01*
G37*
%LPD*%
%LPC*%
G36*
X221611Y654949D02*
X221611Y654949D01*
X214609Y657850D01*
X209250Y663209D01*
X206349Y670211D01*
X206349Y677789D01*
X209250Y684791D01*
X214609Y690150D01*
X221611Y693051D01*
X229189Y693051D01*
X236191Y690150D01*
X241550Y684791D01*
X244451Y677789D01*
X244451Y670211D01*
X241550Y663209D01*
X236191Y657850D01*
X229189Y654949D01*
X221611Y654949D01*
G37*
%LPD*%
%LPC*%
G36*
X526411Y426349D02*
X526411Y426349D01*
X519409Y429250D01*
X514050Y434609D01*
X511149Y441611D01*
X511149Y449189D01*
X514050Y456191D01*
X519409Y461550D01*
X526411Y464451D01*
X533989Y464451D01*
X540991Y461550D01*
X546350Y456191D01*
X549251Y449189D01*
X549251Y441611D01*
X546350Y434609D01*
X540991Y429250D01*
X533989Y426349D01*
X526411Y426349D01*
G37*
%LPD*%
%LPC*%
G36*
X221611Y426349D02*
X221611Y426349D01*
X214609Y429250D01*
X209250Y434609D01*
X206349Y441611D01*
X206349Y449189D01*
X209250Y456191D01*
X214609Y461550D01*
X221611Y464451D01*
X229189Y464451D01*
X236191Y461550D01*
X241550Y456191D01*
X244451Y449189D01*
X244451Y441611D01*
X241550Y434609D01*
X236191Y429250D01*
X229189Y426349D01*
X221611Y426349D01*
G37*
%LPD*%
%LPC*%
G36*
X210325Y611261D02*
X210325Y611261D01*
X205937Y613079D01*
X202579Y616437D01*
X200761Y620825D01*
X200761Y625575D01*
X202579Y629963D01*
X205937Y633321D01*
X210325Y635139D01*
X215075Y635139D01*
X219463Y633321D01*
X222821Y629963D01*
X224639Y625575D01*
X224639Y620825D01*
X222821Y616437D01*
X219463Y613079D01*
X215075Y611261D01*
X210325Y611261D01*
G37*
%LPD*%
%LPC*%
G36*
X210325Y585861D02*
X210325Y585861D01*
X205937Y587679D01*
X202579Y591037D01*
X200761Y595425D01*
X200761Y600175D01*
X202579Y604563D01*
X205937Y607921D01*
X210325Y609739D01*
X215075Y609739D01*
X219463Y607921D01*
X222821Y604563D01*
X224639Y600175D01*
X224639Y595425D01*
X222821Y591037D01*
X219463Y587679D01*
X215075Y585861D01*
X210325Y585861D01*
G37*
%LPD*%
%LPC*%
G36*
X210325Y560461D02*
X210325Y560461D01*
X205937Y562279D01*
X202579Y565637D01*
X200761Y570025D01*
X200761Y574775D01*
X202579Y579163D01*
X205937Y582521D01*
X210325Y584339D01*
X215075Y584339D01*
X219463Y582521D01*
X222821Y579163D01*
X224639Y574775D01*
X224639Y570025D01*
X222821Y565637D01*
X219463Y562279D01*
X215075Y560461D01*
X210325Y560461D01*
G37*
%LPD*%
%LPC*%
G36*
X362725Y420761D02*
X362725Y420761D01*
X358337Y422579D01*
X354979Y425937D01*
X353161Y430325D01*
X353161Y435075D01*
X354979Y439463D01*
X358337Y442821D01*
X362725Y444639D01*
X367475Y444639D01*
X371863Y442821D01*
X375221Y439463D01*
X377039Y435075D01*
X377039Y430325D01*
X375221Y425937D01*
X371863Y422579D01*
X367475Y420761D01*
X362725Y420761D01*
G37*
%LPD*%
%LPC*%
G36*
X337325Y420761D02*
X337325Y420761D01*
X332937Y422579D01*
X329579Y425937D01*
X327761Y430325D01*
X327761Y435075D01*
X329579Y439463D01*
X332937Y442821D01*
X337325Y444639D01*
X342075Y444639D01*
X346463Y442821D01*
X349821Y439463D01*
X351639Y435075D01*
X351639Y430325D01*
X349821Y425937D01*
X346463Y422579D01*
X342075Y420761D01*
X337325Y420761D01*
G37*
%LPD*%
%LPC*%
G36*
X438925Y420761D02*
X438925Y420761D01*
X434537Y422579D01*
X431179Y425937D01*
X429361Y430325D01*
X429361Y435075D01*
X431179Y439463D01*
X434537Y442821D01*
X438925Y444639D01*
X443675Y444639D01*
X448063Y442821D01*
X451421Y439463D01*
X453239Y435075D01*
X453239Y430325D01*
X451421Y425937D01*
X448063Y422579D01*
X443675Y420761D01*
X438925Y420761D01*
G37*
%LPD*%
%LPC*%
G36*
X413525Y420761D02*
X413525Y420761D01*
X409137Y422579D01*
X405779Y425937D01*
X403961Y430325D01*
X403961Y435075D01*
X405779Y439463D01*
X409137Y442821D01*
X413525Y444639D01*
X418275Y444639D01*
X422663Y442821D01*
X426021Y439463D01*
X427839Y435075D01*
X427839Y430325D01*
X426021Y425937D01*
X422663Y422579D01*
X418275Y420761D01*
X413525Y420761D01*
G37*
%LPD*%
%LPC*%
G36*
X388125Y420761D02*
X388125Y420761D01*
X383737Y422579D01*
X380379Y425937D01*
X378561Y430325D01*
X378561Y435075D01*
X380379Y439463D01*
X383737Y442821D01*
X388125Y444639D01*
X392875Y444639D01*
X397263Y442821D01*
X400621Y439463D01*
X402439Y435075D01*
X402439Y430325D01*
X400621Y425937D01*
X397263Y422579D01*
X392875Y420761D01*
X388125Y420761D01*
G37*
%LPD*%
%LPC*%
G36*
X584625Y38061D02*
X584625Y38061D01*
X580237Y39879D01*
X576879Y43237D01*
X575061Y47625D01*
X575061Y52375D01*
X576879Y56763D01*
X580237Y60121D01*
X584625Y61939D01*
X589375Y61939D01*
X593763Y60121D01*
X597121Y56763D01*
X598939Y52375D01*
X598939Y47625D01*
X597121Y43237D01*
X593763Y39879D01*
X589375Y38061D01*
X584625Y38061D01*
G37*
%LPD*%
%LPC*%
G36*
X559225Y38061D02*
X559225Y38061D01*
X554837Y39879D01*
X551479Y43237D01*
X549661Y47625D01*
X549661Y52375D01*
X551479Y56763D01*
X554837Y60121D01*
X559225Y61939D01*
X563975Y61939D01*
X568363Y60121D01*
X571721Y56763D01*
X573539Y52375D01*
X573539Y47625D01*
X571721Y43237D01*
X568363Y39879D01*
X563975Y38061D01*
X559225Y38061D01*
G37*
%LPD*%
%LPC*%
G36*
X533825Y38061D02*
X533825Y38061D01*
X529437Y39879D01*
X526079Y43237D01*
X524261Y47625D01*
X524261Y52375D01*
X526079Y56763D01*
X529437Y60121D01*
X533825Y61939D01*
X538575Y61939D01*
X542963Y60121D01*
X546321Y56763D01*
X548139Y52375D01*
X548139Y47625D01*
X546321Y43237D01*
X542963Y39879D01*
X538575Y38061D01*
X533825Y38061D01*
G37*
%LPD*%
%LPC*%
G36*
X508425Y38061D02*
X508425Y38061D01*
X504037Y39879D01*
X500679Y43237D01*
X498861Y47625D01*
X498861Y52375D01*
X500679Y56763D01*
X504037Y60121D01*
X508425Y61939D01*
X513175Y61939D01*
X517563Y60121D01*
X520921Y56763D01*
X522739Y52375D01*
X522739Y47625D01*
X520921Y43237D01*
X517563Y39879D01*
X513175Y38061D01*
X508425Y38061D01*
G37*
%LPD*%
%LPC*%
G36*
X483025Y38061D02*
X483025Y38061D01*
X478637Y39879D01*
X475279Y43237D01*
X473461Y47625D01*
X473461Y52375D01*
X475279Y56763D01*
X478637Y60121D01*
X483025Y61939D01*
X487775Y61939D01*
X492163Y60121D01*
X495521Y56763D01*
X497339Y52375D01*
X497339Y47625D01*
X495521Y43237D01*
X492163Y39879D01*
X487775Y38061D01*
X483025Y38061D01*
G37*
%LPD*%
%LPC*%
G36*
X157625Y28061D02*
X157625Y28061D01*
X153237Y29879D01*
X149879Y33237D01*
X148061Y37625D01*
X148061Y42375D01*
X149879Y46763D01*
X153237Y50121D01*
X157625Y51939D01*
X162375Y51939D01*
X166763Y50121D01*
X170121Y46763D01*
X171939Y42375D01*
X171939Y37625D01*
X170121Y33237D01*
X166763Y29879D01*
X162375Y28061D01*
X157625Y28061D01*
G37*
%LPD*%
%LPC*%
G36*
X132225Y28061D02*
X132225Y28061D01*
X127837Y29879D01*
X124479Y33237D01*
X122661Y37625D01*
X122661Y42375D01*
X124479Y46763D01*
X127837Y50121D01*
X132225Y51939D01*
X136975Y51939D01*
X141363Y50121D01*
X144721Y46763D01*
X146539Y42375D01*
X146539Y37625D01*
X144721Y33237D01*
X141363Y29879D01*
X136975Y28061D01*
X132225Y28061D01*
G37*
%LPD*%
%LPC*%
G36*
X106825Y28061D02*
X106825Y28061D01*
X102437Y29879D01*
X99079Y33237D01*
X97261Y37625D01*
X97261Y42375D01*
X99079Y46763D01*
X102437Y50121D01*
X106825Y51939D01*
X111575Y51939D01*
X115963Y50121D01*
X119321Y46763D01*
X121139Y42375D01*
X121139Y37625D01*
X119321Y33237D01*
X115963Y29879D01*
X111575Y28061D01*
X106825Y28061D01*
G37*
%LPD*%
%LPC*%
G36*
X315823Y434223D02*
X315823Y434223D01*
X315823Y444546D01*
X317096Y444345D01*
X318883Y443764D01*
X320557Y442911D01*
X322078Y441806D01*
X323406Y440478D01*
X324511Y438957D01*
X325364Y437283D01*
X325945Y435496D01*
X326146Y434223D01*
X315823Y434223D01*
G37*
%LPD*%
%LPC*%
G36*
X461523Y51523D02*
X461523Y51523D01*
X461523Y61846D01*
X462796Y61645D01*
X464583Y61064D01*
X466257Y60211D01*
X467778Y59106D01*
X469106Y57778D01*
X470211Y56257D01*
X471064Y54583D01*
X471645Y52796D01*
X471846Y51523D01*
X461523Y51523D01*
G37*
%LPD*%
%LPC*%
G36*
X302454Y434223D02*
X302454Y434223D01*
X302655Y435496D01*
X303236Y437283D01*
X304089Y438957D01*
X305194Y440478D01*
X306522Y441806D01*
X308043Y442911D01*
X309717Y443764D01*
X311504Y444345D01*
X312777Y444546D01*
X312777Y434223D01*
X302454Y434223D01*
G37*
%LPD*%
%LPC*%
G36*
X315823Y431177D02*
X315823Y431177D01*
X326146Y431177D01*
X325945Y429904D01*
X325364Y428117D01*
X324511Y426443D01*
X323406Y424922D01*
X322078Y423594D01*
X320557Y422489D01*
X318883Y421636D01*
X317096Y421055D01*
X315823Y420854D01*
X315823Y431177D01*
G37*
%LPD*%
%LPC*%
G36*
X448154Y51523D02*
X448154Y51523D01*
X448355Y52796D01*
X448936Y54583D01*
X449789Y56257D01*
X450894Y57778D01*
X452222Y59106D01*
X453743Y60211D01*
X455417Y61064D01*
X457204Y61645D01*
X458477Y61846D01*
X458477Y51523D01*
X448154Y51523D01*
G37*
%LPD*%
%LPC*%
G36*
X461523Y48477D02*
X461523Y48477D01*
X471846Y48477D01*
X471645Y47204D01*
X471064Y45417D01*
X470211Y43743D01*
X469106Y42222D01*
X467778Y40894D01*
X466257Y39789D01*
X464583Y38936D01*
X462796Y38355D01*
X461523Y38154D01*
X461523Y48477D01*
G37*
%LPD*%
%LPC*%
G36*
X311504Y421055D02*
X311504Y421055D01*
X309717Y421636D01*
X308043Y422489D01*
X306522Y423594D01*
X305194Y424922D01*
X304089Y426443D01*
X303236Y428117D01*
X302655Y429904D01*
X302454Y431177D01*
X312777Y431177D01*
X312777Y420854D01*
X311504Y421055D01*
G37*
%LPD*%
%LPC*%
G36*
X457204Y38355D02*
X457204Y38355D01*
X455417Y38936D01*
X453743Y39789D01*
X452222Y40894D01*
X450894Y42222D01*
X449789Y43743D01*
X448936Y45417D01*
X448355Y47204D01*
X448154Y48477D01*
X458477Y48477D01*
X458477Y38154D01*
X457204Y38355D01*
G37*
%LPD*%
%LPC*%
G36*
X459999Y49999D02*
X459999Y49999D01*
X459999Y50001D01*
X460001Y50001D01*
X460001Y49999D01*
X459999Y49999D01*
G37*
%LPD*%
%LPC*%
G36*
X314299Y432699D02*
X314299Y432699D01*
X314299Y432701D01*
X314301Y432701D01*
X314301Y432699D01*
X314299Y432699D01*
G37*
%LPD*%
D10*
X460000Y50000D03*
X485400Y50000D03*
X510800Y50000D03*
X536200Y50000D03*
X561600Y50000D03*
X587000Y50000D03*
X160000Y40000D03*
X134600Y40000D03*
X109200Y40000D03*
X314300Y432700D03*
X339700Y432700D03*
X365100Y432700D03*
X390500Y432700D03*
X415900Y432700D03*
X441300Y432700D03*
X212700Y572400D03*
X212700Y597800D03*
X212700Y623200D03*
M02*
