G04 EAGLE Gerber RS-274X export*
G75*
%MOMM*%
%FSLAX34Y34*%
%LPD*%
%INSilkscreen Top*%
%IPPOS*%
%AMOC8*
5,1,8,0,0,1.08239X$1,22.5*%
G01*
%ADD10C,0.254000*%
%ADD11C,0.203200*%
%ADD12C,0.101600*%
%ADD13C,0.152400*%
%ADD14C,0.127000*%
%ADD15C,0.406400*%

G36*
X65578Y464813D02*
X65578Y464813D01*
X65610Y464811D01*
X65661Y464833D01*
X65716Y464845D01*
X65740Y464866D01*
X65770Y464878D01*
X65806Y464920D01*
X65849Y464955D01*
X65862Y464985D01*
X65883Y465009D01*
X65904Y465078D01*
X65920Y465114D01*
X65920Y465129D01*
X65925Y465148D01*
X66719Y472967D01*
X69193Y473759D01*
X69216Y473772D01*
X69251Y473783D01*
X71561Y474972D01*
X77652Y470005D01*
X77680Y469991D01*
X77704Y469970D01*
X77757Y469954D01*
X77807Y469929D01*
X77839Y469929D01*
X77870Y469920D01*
X77925Y469930D01*
X77981Y469930D01*
X78009Y469945D01*
X78041Y469950D01*
X78100Y469990D01*
X78136Y470008D01*
X78145Y470020D01*
X78161Y470031D01*
X82469Y474339D01*
X82486Y474366D01*
X82510Y474387D01*
X82531Y474439D01*
X82560Y474486D01*
X82563Y474518D01*
X82575Y474548D01*
X82572Y474603D01*
X82577Y474659D01*
X82565Y474689D01*
X82563Y474721D01*
X82529Y474784D01*
X82515Y474821D01*
X82504Y474831D01*
X82495Y474848D01*
X77528Y480939D01*
X78718Y483248D01*
X78734Y483312D01*
X78757Y483375D01*
X78755Y483396D01*
X78760Y483416D01*
X78746Y483481D01*
X78739Y483547D01*
X78728Y483565D01*
X78723Y483585D01*
X78682Y483637D01*
X78646Y483693D01*
X78627Y483706D01*
X78615Y483721D01*
X78581Y483737D01*
X78526Y483773D01*
X69864Y487361D01*
X69831Y487367D01*
X69802Y487381D01*
X69747Y487380D01*
X69693Y487389D01*
X69661Y487380D01*
X69629Y487380D01*
X69580Y487355D01*
X69527Y487339D01*
X69503Y487316D01*
X69474Y487302D01*
X69429Y487247D01*
X69401Y487220D01*
X69395Y487205D01*
X69383Y487189D01*
X68678Y485871D01*
X67754Y484745D01*
X66628Y483821D01*
X65344Y483135D01*
X63950Y482712D01*
X62501Y482569D01*
X60982Y482726D01*
X59529Y483189D01*
X58200Y483940D01*
X57053Y484946D01*
X56136Y486165D01*
X55486Y487546D01*
X55133Y489030D01*
X55090Y490555D01*
X55360Y492057D01*
X55930Y493472D01*
X56778Y494740D01*
X57867Y495809D01*
X59151Y496633D01*
X60577Y497177D01*
X62083Y497419D01*
X63607Y497347D01*
X65085Y496966D01*
X66453Y496292D01*
X67655Y495352D01*
X68639Y494186D01*
X69384Y492809D01*
X69405Y492786D01*
X69418Y492757D01*
X69461Y492721D01*
X69498Y492680D01*
X69528Y492668D01*
X69552Y492648D01*
X69607Y492635D01*
X69659Y492614D01*
X69691Y492617D01*
X69722Y492610D01*
X69793Y492624D01*
X69832Y492627D01*
X69845Y492635D01*
X69864Y492639D01*
X78526Y496227D01*
X78580Y496266D01*
X78637Y496298D01*
X78649Y496315D01*
X78666Y496328D01*
X78698Y496386D01*
X78735Y496441D01*
X78738Y496462D01*
X78748Y496481D01*
X78750Y496547D01*
X78759Y496613D01*
X78752Y496636D01*
X78753Y496654D01*
X78736Y496689D01*
X78718Y496752D01*
X77528Y499061D01*
X82495Y505152D01*
X82509Y505180D01*
X82530Y505204D01*
X82546Y505257D01*
X82571Y505307D01*
X82571Y505339D01*
X82580Y505370D01*
X82570Y505425D01*
X82570Y505481D01*
X82555Y505509D01*
X82550Y505541D01*
X82510Y505600D01*
X82492Y505636D01*
X82480Y505645D01*
X82469Y505661D01*
X78161Y509969D01*
X78134Y509986D01*
X78113Y510010D01*
X78061Y510031D01*
X78014Y510060D01*
X77982Y510063D01*
X77952Y510075D01*
X77897Y510072D01*
X77841Y510077D01*
X77811Y510065D01*
X77779Y510063D01*
X77716Y510029D01*
X77679Y510015D01*
X77669Y510004D01*
X77652Y509995D01*
X71561Y505028D01*
X69251Y506217D01*
X69239Y506220D01*
X69232Y506225D01*
X69217Y506228D01*
X69193Y506241D01*
X66719Y507033D01*
X65925Y514852D01*
X65915Y514883D01*
X65914Y514915D01*
X65887Y514964D01*
X65869Y515016D01*
X65846Y515039D01*
X65831Y515067D01*
X65785Y515099D01*
X65746Y515138D01*
X65715Y515148D01*
X65689Y515167D01*
X65619Y515180D01*
X65581Y515193D01*
X65566Y515191D01*
X65547Y515194D01*
X59453Y515194D01*
X59422Y515187D01*
X59390Y515189D01*
X59339Y515167D01*
X59284Y515155D01*
X59260Y515134D01*
X59230Y515122D01*
X59194Y515080D01*
X59151Y515045D01*
X59138Y515015D01*
X59117Y514991D01*
X59096Y514922D01*
X59080Y514886D01*
X59080Y514871D01*
X59075Y514852D01*
X58281Y507033D01*
X55807Y506241D01*
X55784Y506228D01*
X55749Y506217D01*
X53439Y505028D01*
X47348Y509995D01*
X47320Y510009D01*
X47296Y510030D01*
X47243Y510046D01*
X47193Y510071D01*
X47161Y510071D01*
X47130Y510080D01*
X47075Y510070D01*
X47019Y510070D01*
X46991Y510055D01*
X46959Y510050D01*
X46900Y510010D01*
X46865Y509992D01*
X46855Y509980D01*
X46839Y509969D01*
X42531Y505661D01*
X42514Y505634D01*
X42490Y505613D01*
X42469Y505561D01*
X42440Y505514D01*
X42437Y505482D01*
X42425Y505452D01*
X42429Y505397D01*
X42423Y505341D01*
X42435Y505311D01*
X42437Y505279D01*
X42471Y505216D01*
X42485Y505179D01*
X42496Y505169D01*
X42505Y505152D01*
X47472Y499061D01*
X46283Y496751D01*
X46276Y496725D01*
X46259Y496693D01*
X45467Y494219D01*
X37648Y493425D01*
X37617Y493415D01*
X37585Y493414D01*
X37536Y493387D01*
X37484Y493369D01*
X37461Y493346D01*
X37433Y493331D01*
X37401Y493285D01*
X37362Y493246D01*
X37352Y493215D01*
X37333Y493189D01*
X37320Y493119D01*
X37307Y493081D01*
X37309Y493066D01*
X37306Y493047D01*
X37306Y486953D01*
X37313Y486922D01*
X37311Y486890D01*
X37333Y486839D01*
X37345Y486784D01*
X37366Y486760D01*
X37378Y486730D01*
X37420Y486694D01*
X37455Y486651D01*
X37485Y486638D01*
X37509Y486617D01*
X37578Y486596D01*
X37614Y486580D01*
X37629Y486580D01*
X37648Y486575D01*
X45467Y485781D01*
X46259Y483307D01*
X46272Y483284D01*
X46283Y483249D01*
X47472Y480939D01*
X42505Y474848D01*
X42491Y474820D01*
X42470Y474796D01*
X42454Y474743D01*
X42429Y474693D01*
X42429Y474661D01*
X42420Y474630D01*
X42430Y474575D01*
X42430Y474519D01*
X42445Y474491D01*
X42450Y474459D01*
X42490Y474400D01*
X42508Y474365D01*
X42520Y474355D01*
X42531Y474339D01*
X46839Y470031D01*
X46866Y470014D01*
X46887Y469990D01*
X46939Y469969D01*
X46986Y469940D01*
X47018Y469937D01*
X47048Y469925D01*
X47103Y469929D01*
X47159Y469923D01*
X47189Y469935D01*
X47221Y469937D01*
X47284Y469971D01*
X47321Y469985D01*
X47331Y469996D01*
X47348Y470005D01*
X53439Y474972D01*
X55749Y473783D01*
X55775Y473776D01*
X55807Y473759D01*
X58281Y472967D01*
X59075Y465148D01*
X59085Y465117D01*
X59086Y465085D01*
X59113Y465036D01*
X59131Y464984D01*
X59154Y464961D01*
X59169Y464933D01*
X59215Y464901D01*
X59254Y464862D01*
X59285Y464852D01*
X59311Y464833D01*
X59381Y464820D01*
X59419Y464807D01*
X59434Y464809D01*
X59453Y464806D01*
X65547Y464806D01*
X65578Y464813D01*
G37*
D10*
X452506Y76329D02*
X450811Y74634D01*
X450811Y71245D01*
X452506Y69550D01*
X459285Y69550D01*
X460980Y71245D01*
X460980Y74634D01*
X459285Y76329D01*
X455896Y76329D01*
X455896Y72940D01*
X460980Y81244D02*
X450811Y81244D01*
X460980Y88023D01*
X450811Y88023D01*
X450811Y92938D02*
X460980Y92938D01*
X460980Y98022D01*
X459285Y99717D01*
X452506Y99717D01*
X450811Y98022D01*
X450811Y92938D01*
X476211Y71245D02*
X477906Y69550D01*
X476211Y71245D02*
X476211Y74634D01*
X477906Y76329D01*
X479601Y76329D01*
X481296Y74634D01*
X481296Y72940D01*
X481296Y74634D02*
X482990Y76329D01*
X484685Y76329D01*
X486380Y74634D01*
X486380Y71245D01*
X484685Y69550D01*
X484685Y81244D02*
X486380Y81244D01*
X484685Y81244D02*
X484685Y82939D01*
X486380Y82939D01*
X486380Y81244D01*
X477906Y87091D02*
X476211Y88786D01*
X476211Y92175D01*
X477906Y93870D01*
X479601Y93870D01*
X481296Y92175D01*
X481296Y90481D01*
X481296Y92175D02*
X482990Y93870D01*
X484685Y93870D01*
X486380Y92175D01*
X486380Y88786D01*
X484685Y87091D01*
X479601Y98785D02*
X486380Y102174D01*
X479601Y105564D01*
X572740Y103362D02*
X572740Y68280D01*
X577811Y74634D02*
X579506Y76329D01*
X577811Y74634D02*
X577811Y71245D01*
X579506Y69550D01*
X581201Y69550D01*
X582896Y71245D01*
X582896Y74634D01*
X584590Y76329D01*
X586285Y76329D01*
X587980Y74634D01*
X587980Y71245D01*
X586285Y69550D01*
X587980Y81244D02*
X577811Y81244D01*
X587980Y81244D02*
X587980Y86328D01*
X586285Y88023D01*
X579506Y88023D01*
X577811Y86328D01*
X577811Y81244D01*
X577811Y92938D02*
X587980Y92938D01*
X587980Y99717D02*
X577811Y92938D01*
X577811Y99717D02*
X587980Y99717D01*
X537180Y69550D02*
X527011Y69550D01*
X537180Y69550D02*
X537180Y76329D01*
X527011Y82939D02*
X527011Y86328D01*
X527011Y82939D02*
X528706Y81244D01*
X535485Y81244D01*
X537180Y82939D01*
X537180Y86328D01*
X535485Y88023D01*
X528706Y88023D01*
X527011Y86328D01*
X532096Y92938D02*
X532096Y99717D01*
X552411Y69550D02*
X562580Y69550D01*
X562580Y76329D01*
X552411Y82939D02*
X552411Y86328D01*
X552411Y82939D02*
X554106Y81244D01*
X560885Y81244D01*
X562580Y82939D01*
X562580Y86328D01*
X560885Y88023D01*
X554106Y88023D01*
X552411Y86328D01*
X557496Y92938D02*
X557496Y99717D01*
X560885Y96328D02*
X554106Y96328D01*
X501611Y73364D02*
X501611Y69975D01*
X503306Y68280D01*
X510085Y68280D01*
X511780Y69975D01*
X511780Y73364D01*
X510085Y75059D01*
X503306Y75059D01*
X501611Y73364D01*
X501611Y79974D02*
X510085Y79974D01*
X511780Y81669D01*
X511780Y85058D01*
X510085Y86753D01*
X501611Y86753D01*
X501611Y95058D02*
X511780Y95058D01*
X501611Y98447D02*
X501611Y91668D01*
X501611Y103362D02*
X511780Y103362D01*
X501611Y103362D02*
X501611Y108446D01*
X503306Y110141D01*
X506696Y110141D01*
X508390Y108446D01*
X508390Y103362D01*
X510085Y115056D02*
X501611Y115056D01*
X510085Y115056D02*
X511780Y116751D01*
X511780Y120140D01*
X510085Y121835D01*
X501611Y121835D01*
X501611Y130139D02*
X511780Y130139D01*
X501611Y126750D02*
X501611Y133529D01*
D11*
X139734Y63096D02*
X129057Y63096D01*
X139734Y63096D02*
X139734Y70214D01*
X139734Y74790D02*
X132616Y74790D01*
X129057Y78349D01*
X132616Y81908D01*
X139734Y81908D01*
X134395Y81908D02*
X134395Y74790D01*
X114334Y63096D02*
X103657Y63096D01*
X103657Y68435D01*
X105436Y70214D01*
X108995Y70214D01*
X110775Y68435D01*
X110775Y63096D01*
X110775Y66655D02*
X114334Y70214D01*
X114334Y74790D02*
X107216Y74790D01*
X103657Y78349D01*
X107216Y81908D01*
X114334Y81908D01*
X108995Y81908D02*
X108995Y74790D01*
X154457Y63096D02*
X165134Y63096D01*
X154457Y63096D02*
X154457Y68435D01*
X156236Y70214D01*
X159795Y70214D01*
X161575Y68435D01*
X161575Y63096D01*
X161575Y66655D02*
X165134Y70214D01*
X165134Y74790D02*
X154457Y74790D01*
X165134Y74790D02*
X165134Y81908D01*
D12*
X20498Y320180D02*
X20498Y327976D01*
X20498Y320180D02*
X32192Y320180D01*
X32192Y327976D01*
X26345Y324078D02*
X26345Y320180D01*
X20498Y337721D02*
X22447Y339670D01*
X20498Y337721D02*
X20498Y333823D01*
X22447Y331874D01*
X30243Y331874D01*
X32192Y333823D01*
X32192Y337721D01*
X30243Y339670D01*
X20498Y349415D02*
X22447Y351364D01*
X20498Y349415D02*
X20498Y345517D01*
X22447Y343568D01*
X30243Y343568D01*
X32192Y345517D01*
X32192Y349415D01*
X30243Y351364D01*
X26345Y351364D01*
X26345Y347466D01*
X32192Y366956D02*
X20498Y366956D01*
X20498Y372803D01*
X22447Y374752D01*
X24396Y374752D01*
X26345Y372803D01*
X28294Y374752D01*
X30243Y374752D01*
X32192Y372803D01*
X32192Y366956D01*
X26345Y366956D02*
X26345Y372803D01*
X32192Y380599D02*
X32192Y384497D01*
X30243Y386446D01*
X26345Y386446D01*
X24396Y384497D01*
X24396Y380599D01*
X26345Y378650D01*
X30243Y378650D01*
X32192Y380599D01*
X24396Y392293D02*
X24396Y396191D01*
X26345Y398140D01*
X32192Y398140D01*
X32192Y392293D01*
X30243Y390344D01*
X28294Y392293D01*
X28294Y398140D01*
X32192Y402038D02*
X24396Y402038D01*
X28294Y402038D02*
X24396Y405936D01*
X24396Y407885D01*
X20498Y419579D02*
X32192Y419579D01*
X32192Y413732D01*
X30243Y411783D01*
X26345Y411783D01*
X24396Y413732D01*
X24396Y419579D01*
X39548Y320180D02*
X51242Y320180D01*
X43446Y324078D02*
X39548Y320180D01*
X43446Y324078D02*
X39548Y327976D01*
X51242Y327976D01*
X51242Y333823D02*
X51242Y337721D01*
X51242Y333823D02*
X49293Y331874D01*
X45395Y331874D01*
X43446Y333823D01*
X43446Y337721D01*
X45395Y339670D01*
X47344Y339670D01*
X47344Y331874D01*
X51242Y351364D02*
X39548Y351364D01*
X51242Y351364D02*
X51242Y345517D01*
X49293Y343568D01*
X45395Y343568D01*
X43446Y345517D01*
X43446Y351364D01*
X43446Y355262D02*
X43446Y357211D01*
X51242Y357211D01*
X51242Y355262D02*
X51242Y359160D01*
X39548Y357211D02*
X37599Y357211D01*
X39548Y363058D02*
X51242Y363058D01*
X39548Y363058D02*
X39548Y368905D01*
X41497Y370854D01*
X43446Y370854D01*
X45395Y368905D01*
X47344Y370854D01*
X49293Y370854D01*
X51242Y368905D01*
X51242Y363058D01*
X45395Y363058D02*
X45395Y368905D01*
X43446Y374752D02*
X51242Y374752D01*
X47344Y374752D02*
X43446Y378650D01*
X43446Y380599D01*
X43446Y384497D02*
X43446Y386446D01*
X51242Y386446D01*
X51242Y384497D02*
X51242Y388395D01*
X39548Y386446D02*
X37599Y386446D01*
X43446Y394242D02*
X43446Y400089D01*
X43446Y394242D02*
X45395Y392293D01*
X49293Y392293D01*
X51242Y394242D01*
X51242Y400089D01*
X51242Y403987D02*
X39548Y403987D01*
X47344Y403987D02*
X51242Y409834D01*
X47344Y403987D02*
X43446Y409834D01*
X51242Y413732D02*
X51242Y421528D01*
X51242Y413732D02*
X43446Y421528D01*
X41497Y421528D01*
X39548Y419579D01*
X39548Y415681D01*
X41497Y413732D01*
X41497Y425426D02*
X49293Y425426D01*
X41497Y425426D02*
X39548Y427375D01*
X39548Y431273D01*
X41497Y433222D01*
X49293Y433222D01*
X51242Y431273D01*
X51242Y427375D01*
X49293Y425426D01*
X41497Y433222D01*
X41497Y437120D02*
X49293Y437120D01*
X41497Y437120D02*
X39548Y439069D01*
X39548Y442967D01*
X41497Y444916D01*
X49293Y444916D01*
X51242Y442967D01*
X51242Y439069D01*
X49293Y437120D01*
X41497Y444916D01*
X41497Y448814D02*
X49293Y448814D01*
X41497Y448814D02*
X39548Y450763D01*
X39548Y454661D01*
X41497Y456610D01*
X49293Y456610D01*
X51242Y454661D01*
X51242Y450763D01*
X49293Y448814D01*
X41497Y456610D01*
D10*
X23011Y534465D02*
X23011Y537854D01*
X23011Y534465D02*
X24706Y532770D01*
X31485Y532770D01*
X33180Y534465D01*
X33180Y537854D01*
X31485Y539549D01*
X24706Y539549D01*
X23011Y537854D01*
X26401Y546159D02*
X26401Y551243D01*
X26401Y546159D02*
X28096Y544464D01*
X31485Y544464D01*
X33180Y546159D01*
X33180Y551243D01*
X26401Y557853D02*
X26401Y561242D01*
X28096Y562937D01*
X33180Y562937D01*
X33180Y557853D01*
X31485Y556158D01*
X29790Y557853D01*
X29790Y562937D01*
X31485Y567852D02*
X26401Y567852D01*
X31485Y567852D02*
X33180Y569547D01*
X33180Y574631D01*
X34875Y574631D02*
X26401Y574631D01*
X34875Y574631D02*
X36570Y572936D01*
X36570Y571241D01*
X26401Y581241D02*
X26401Y584630D01*
X28096Y586325D01*
X33180Y586325D01*
X33180Y581241D01*
X31485Y579546D01*
X29790Y581241D01*
X29790Y586325D01*
X42061Y532770D02*
X50535Y532770D01*
X52230Y534465D01*
X52230Y537854D01*
X50535Y539549D01*
X42061Y539549D01*
X43756Y546159D02*
X50535Y546159D01*
X52230Y547854D01*
X45451Y547854D02*
X45451Y544464D01*
X45451Y552260D02*
X45451Y559039D01*
X52230Y552260D01*
X52230Y559039D01*
X45451Y563954D02*
X45451Y565649D01*
X52230Y565649D01*
X52230Y567343D02*
X52230Y563954D01*
X42061Y565649D02*
X40367Y565649D01*
X45451Y571750D02*
X52230Y571750D01*
X45451Y571750D02*
X45451Y576834D01*
X47146Y578529D01*
X52230Y578529D01*
X55620Y586833D02*
X55620Y588528D01*
X53925Y590223D01*
X45451Y590223D01*
X45451Y585139D01*
X47146Y583444D01*
X50535Y583444D01*
X52230Y585139D01*
X52230Y590223D01*
X52230Y596833D02*
X52230Y600222D01*
X52230Y596833D02*
X50535Y595138D01*
X47146Y595138D01*
X45451Y596833D01*
X45451Y600222D01*
X47146Y601917D01*
X48840Y601917D01*
X48840Y595138D01*
X52230Y606832D02*
X45451Y606832D01*
X48840Y606832D02*
X45451Y610221D01*
X45451Y611916D01*
D13*
X17500Y616000D02*
X17500Y526000D01*
X17500Y616000D02*
X60000Y616000D01*
X60000Y526000D01*
X17500Y526000D01*
X78000Y526500D02*
X78000Y616000D01*
X78000Y526000D02*
X60000Y526000D01*
X60000Y616000D02*
X78000Y616000D01*
D10*
X70340Y530770D02*
X63561Y530770D01*
X70340Y530770D02*
X73730Y534160D01*
X70340Y537549D01*
X63561Y537549D01*
X73730Y542464D02*
X73730Y549243D01*
X73730Y542464D02*
X66951Y549243D01*
X65256Y549243D01*
X63561Y547548D01*
X63561Y544159D01*
X65256Y542464D01*
X73730Y565852D02*
X73730Y572631D01*
X73730Y565852D02*
X66951Y572631D01*
X65256Y572631D01*
X63561Y570936D01*
X63561Y567547D01*
X65256Y565852D01*
X65256Y577546D02*
X72035Y577546D01*
X65256Y577546D02*
X63561Y579241D01*
X63561Y582630D01*
X65256Y584325D01*
X72035Y584325D01*
X73730Y582630D01*
X73730Y579241D01*
X72035Y577546D01*
X65256Y584325D01*
X73730Y589240D02*
X73730Y596019D01*
X73730Y589240D02*
X66951Y596019D01*
X65256Y596019D01*
X63561Y594324D01*
X63561Y590935D01*
X65256Y589240D01*
X63561Y606018D02*
X73730Y606018D01*
X68646Y600934D02*
X63561Y606018D01*
X68646Y607713D02*
X68646Y600934D01*
D11*
X580650Y62700D02*
X574300Y56350D01*
X580650Y62700D02*
X593350Y62700D01*
X599700Y56350D01*
X599700Y43650D02*
X593350Y37300D01*
X580650Y37300D01*
X574300Y43650D01*
X542550Y62700D02*
X529850Y62700D01*
X542550Y62700D02*
X548900Y56350D01*
X548900Y43650D02*
X542550Y37300D01*
X548900Y56350D02*
X555250Y62700D01*
X567950Y62700D01*
X574300Y56350D01*
X574300Y43650D02*
X567950Y37300D01*
X555250Y37300D01*
X548900Y43650D01*
X504450Y62700D02*
X498100Y56350D01*
X504450Y62700D02*
X517150Y62700D01*
X523500Y56350D01*
X523500Y43650D02*
X517150Y37300D01*
X504450Y37300D01*
X498100Y43650D01*
X523500Y56350D02*
X529850Y62700D01*
X523500Y43650D02*
X529850Y37300D01*
X542550Y37300D01*
X466350Y62700D02*
X453650Y62700D01*
X466350Y62700D02*
X472700Y56350D01*
X472700Y43650D02*
X466350Y37300D01*
X472700Y56350D02*
X479050Y62700D01*
X491750Y62700D01*
X498100Y56350D01*
X498100Y43650D02*
X491750Y37300D01*
X479050Y37300D01*
X472700Y43650D01*
X447300Y43650D02*
X447300Y56350D01*
X453650Y62700D01*
X447300Y43650D02*
X453650Y37300D01*
X466350Y37300D01*
X599700Y43650D02*
X599700Y56350D01*
X121900Y33650D02*
X115550Y27300D01*
X102850Y27300D01*
X96500Y33650D01*
X96500Y46350D02*
X102850Y52700D01*
X115550Y52700D01*
X121900Y46350D01*
X153650Y27300D02*
X166350Y27300D01*
X153650Y27300D02*
X147300Y33650D01*
X147300Y46350D02*
X153650Y52700D01*
X147300Y33650D02*
X140950Y27300D01*
X128250Y27300D01*
X121900Y33650D01*
X121900Y46350D02*
X128250Y52700D01*
X140950Y52700D01*
X147300Y46350D01*
X172700Y46350D02*
X172700Y33650D01*
X166350Y27300D01*
X172700Y46350D02*
X166350Y52700D01*
X153650Y52700D01*
X96500Y46350D02*
X96500Y33650D01*
D14*
X139015Y11554D02*
X140922Y9647D01*
X142828Y9647D01*
X144735Y11554D01*
X144735Y21087D01*
X142828Y21087D02*
X146642Y21087D01*
X150709Y21087D02*
X150709Y9647D01*
X150709Y21087D02*
X156429Y21087D01*
X158336Y19180D01*
X158336Y15367D01*
X156429Y13460D01*
X150709Y13460D01*
X168123Y9647D02*
X168123Y21087D01*
X162403Y15367D01*
X170029Y15367D01*
X192215Y36919D02*
X192215Y41749D01*
X194630Y41749D01*
X195435Y40944D01*
X195435Y39334D01*
X194630Y38529D01*
X192215Y38529D01*
X193825Y38529D02*
X195435Y36919D01*
X197828Y40139D02*
X199438Y41749D01*
X199438Y36919D01*
X197828Y36919D02*
X201048Y36919D01*
X205052Y40944D02*
X206662Y41749D01*
X205052Y40944D02*
X203442Y39334D01*
X203442Y37724D01*
X204247Y36919D01*
X205857Y36919D01*
X206662Y37724D01*
X206662Y38529D01*
X205857Y39334D01*
X203442Y39334D01*
D11*
X231700Y45400D02*
X231700Y50000D01*
X231700Y54600D01*
X231700Y50000D02*
X228600Y47662D01*
X231546Y50254D02*
X228600Y52184D01*
D13*
X252380Y60160D02*
X267620Y60160D01*
X247808Y44412D02*
X247810Y44279D01*
X247816Y44146D01*
X247825Y44014D01*
X247839Y43881D01*
X247856Y43749D01*
X247877Y43618D01*
X247902Y43487D01*
X247931Y43358D01*
X247964Y43229D01*
X248000Y43101D01*
X248040Y42974D01*
X248084Y42848D01*
X248131Y42724D01*
X248182Y42601D01*
X248236Y42480D01*
X248294Y42360D01*
X248356Y42242D01*
X248421Y42126D01*
X248489Y42012D01*
X248560Y41900D01*
X248635Y41790D01*
X248713Y41682D01*
X248794Y41576D01*
X248878Y41473D01*
X248965Y41373D01*
X249054Y41275D01*
X249147Y41179D01*
X249243Y41086D01*
X249341Y40997D01*
X249441Y40910D01*
X249544Y40826D01*
X249650Y40745D01*
X249758Y40667D01*
X249868Y40592D01*
X249980Y40521D01*
X250094Y40453D01*
X250210Y40388D01*
X250328Y40326D01*
X250448Y40268D01*
X250569Y40214D01*
X250692Y40163D01*
X250816Y40116D01*
X250942Y40072D01*
X251069Y40032D01*
X251197Y39996D01*
X251326Y39963D01*
X251455Y39934D01*
X251586Y39909D01*
X251717Y39888D01*
X251849Y39871D01*
X251982Y39857D01*
X252114Y39848D01*
X252247Y39842D01*
X252380Y39840D01*
X267620Y39840D02*
X267753Y39842D01*
X267886Y39848D01*
X268018Y39857D01*
X268151Y39871D01*
X268283Y39888D01*
X268414Y39909D01*
X268545Y39934D01*
X268674Y39963D01*
X268803Y39996D01*
X268931Y40032D01*
X269058Y40072D01*
X269184Y40116D01*
X269308Y40163D01*
X269431Y40214D01*
X269552Y40268D01*
X269672Y40326D01*
X269790Y40388D01*
X269906Y40453D01*
X270020Y40521D01*
X270132Y40592D01*
X270242Y40667D01*
X270350Y40745D01*
X270456Y40826D01*
X270559Y40910D01*
X270659Y40997D01*
X270757Y41086D01*
X270853Y41179D01*
X270946Y41275D01*
X271035Y41373D01*
X271122Y41473D01*
X271206Y41576D01*
X271287Y41682D01*
X271365Y41790D01*
X271440Y41900D01*
X271511Y42012D01*
X271579Y42126D01*
X271644Y42242D01*
X271706Y42360D01*
X271764Y42480D01*
X271818Y42601D01*
X271869Y42724D01*
X271916Y42848D01*
X271960Y42974D01*
X272000Y43101D01*
X272036Y43229D01*
X272069Y43358D01*
X272098Y43487D01*
X272123Y43618D01*
X272144Y43749D01*
X272161Y43881D01*
X272175Y44014D01*
X272184Y44146D01*
X272190Y44279D01*
X272192Y44412D01*
X272192Y55588D02*
X272190Y55721D01*
X272184Y55854D01*
X272175Y55986D01*
X272161Y56119D01*
X272144Y56251D01*
X272123Y56382D01*
X272098Y56513D01*
X272069Y56642D01*
X272036Y56771D01*
X272000Y56899D01*
X271960Y57026D01*
X271916Y57152D01*
X271869Y57276D01*
X271818Y57399D01*
X271764Y57520D01*
X271706Y57640D01*
X271644Y57758D01*
X271579Y57874D01*
X271511Y57988D01*
X271440Y58100D01*
X271365Y58210D01*
X271287Y58318D01*
X271206Y58424D01*
X271122Y58527D01*
X271035Y58627D01*
X270946Y58725D01*
X270853Y58821D01*
X270757Y58914D01*
X270659Y59003D01*
X270559Y59090D01*
X270456Y59174D01*
X270350Y59255D01*
X270242Y59333D01*
X270132Y59408D01*
X270020Y59479D01*
X269906Y59547D01*
X269790Y59612D01*
X269672Y59674D01*
X269552Y59732D01*
X269431Y59786D01*
X269308Y59837D01*
X269184Y59884D01*
X269058Y59928D01*
X268931Y59968D01*
X268803Y60004D01*
X268674Y60037D01*
X268545Y60066D01*
X268414Y60091D01*
X268283Y60112D01*
X268151Y60129D01*
X268018Y60143D01*
X267886Y60152D01*
X267753Y60158D01*
X267620Y60160D01*
X252380Y60160D02*
X252247Y60158D01*
X252114Y60152D01*
X251982Y60143D01*
X251849Y60129D01*
X251717Y60112D01*
X251586Y60091D01*
X251455Y60066D01*
X251326Y60037D01*
X251197Y60004D01*
X251069Y59968D01*
X250942Y59928D01*
X250816Y59884D01*
X250692Y59837D01*
X250569Y59786D01*
X250448Y59732D01*
X250328Y59674D01*
X250210Y59612D01*
X250094Y59547D01*
X249980Y59479D01*
X249868Y59408D01*
X249758Y59333D01*
X249650Y59255D01*
X249544Y59174D01*
X249441Y59090D01*
X249341Y59003D01*
X249243Y58914D01*
X249147Y58821D01*
X249054Y58725D01*
X248965Y58627D01*
X248878Y58527D01*
X248794Y58424D01*
X248713Y58318D01*
X248635Y58210D01*
X248560Y58100D01*
X248489Y57988D01*
X248421Y57874D01*
X248356Y57758D01*
X248294Y57640D01*
X248236Y57520D01*
X248182Y57399D01*
X248131Y57276D01*
X248084Y57152D01*
X248040Y57026D01*
X248000Y56899D01*
X247964Y56771D01*
X247931Y56642D01*
X247902Y56513D01*
X247877Y56382D01*
X247856Y56251D01*
X247839Y56119D01*
X247825Y55986D01*
X247816Y55854D01*
X247810Y55721D01*
X247808Y55588D01*
X247808Y44412D01*
X272192Y44412D02*
X272192Y55588D01*
X267620Y39840D02*
X252380Y39840D01*
D14*
X230698Y63109D02*
X230698Y67939D01*
X230698Y63109D02*
X233918Y63109D01*
X236311Y67939D02*
X239532Y67939D01*
X236311Y67939D02*
X236311Y63109D01*
X239532Y63109D01*
X237922Y65524D02*
X236311Y65524D01*
X241925Y67939D02*
X241925Y63109D01*
X244340Y63109D01*
X245145Y63914D01*
X245145Y67134D01*
X244340Y67939D01*
X241925Y67939D01*
X247538Y62304D02*
X250758Y62304D01*
X253151Y63109D02*
X253151Y67939D01*
X253151Y63109D02*
X255566Y63109D01*
X256371Y63914D01*
X256371Y67134D01*
X255566Y67939D01*
X253151Y67939D01*
X258764Y63109D02*
X260374Y63109D01*
X259569Y63109D02*
X259569Y67939D01*
X258764Y67939D02*
X260374Y67939D01*
X264921Y67939D02*
X265726Y67134D01*
X264921Y67939D02*
X263311Y67939D01*
X262506Y67134D01*
X262506Y66329D01*
X263311Y65524D01*
X264921Y65524D01*
X265726Y64719D01*
X265726Y63914D01*
X264921Y63109D01*
X263311Y63109D01*
X262506Y63914D01*
X268119Y63109D02*
X268119Y66329D01*
X269729Y67939D01*
X271339Y66329D01*
X271339Y63109D01*
X271339Y65524D02*
X268119Y65524D01*
X273732Y63109D02*
X273732Y67939D01*
X276147Y67939D01*
X276952Y67134D01*
X276952Y66329D01*
X276147Y65524D01*
X276952Y64719D01*
X276952Y63914D01*
X276147Y63109D01*
X273732Y63109D01*
X273732Y65524D02*
X276147Y65524D01*
X279345Y67939D02*
X279345Y63109D01*
X282565Y63109D01*
X284958Y67939D02*
X288178Y67939D01*
X284958Y67939D02*
X284958Y63109D01*
X288178Y63109D01*
X286568Y65524D02*
X284958Y65524D01*
D10*
X309211Y456834D02*
X310906Y458529D01*
X309211Y456834D02*
X309211Y453445D01*
X310906Y451750D01*
X317685Y451750D01*
X319380Y453445D01*
X319380Y456834D01*
X317685Y458529D01*
X314296Y458529D01*
X314296Y455140D01*
X319380Y463444D02*
X309211Y463444D01*
X319380Y470223D01*
X309211Y470223D01*
X309211Y475138D02*
X319380Y475138D01*
X319380Y480222D01*
X317685Y481917D01*
X310906Y481917D01*
X309211Y480222D01*
X309211Y475138D01*
X334611Y453445D02*
X336306Y451750D01*
X334611Y453445D02*
X334611Y456834D01*
X336306Y458529D01*
X338001Y458529D01*
X339696Y456834D01*
X339696Y455140D01*
X339696Y456834D02*
X341390Y458529D01*
X343085Y458529D01*
X344780Y456834D01*
X344780Y453445D01*
X343085Y451750D01*
X343085Y463444D02*
X344780Y463444D01*
X343085Y463444D02*
X343085Y465139D01*
X344780Y465139D01*
X344780Y463444D01*
X336306Y469291D02*
X334611Y470986D01*
X334611Y474375D01*
X336306Y476070D01*
X338001Y476070D01*
X339696Y474375D01*
X339696Y472681D01*
X339696Y474375D02*
X341390Y476070D01*
X343085Y476070D01*
X344780Y474375D01*
X344780Y470986D01*
X343085Y469291D01*
X338001Y480985D02*
X344780Y484374D01*
X338001Y487764D01*
X431140Y485562D02*
X431140Y450480D01*
X436211Y456834D02*
X437906Y458529D01*
X436211Y456834D02*
X436211Y453445D01*
X437906Y451750D01*
X439601Y451750D01*
X441296Y453445D01*
X441296Y456834D01*
X442990Y458529D01*
X444685Y458529D01*
X446380Y456834D01*
X446380Y453445D01*
X444685Y451750D01*
X446380Y463444D02*
X436211Y463444D01*
X446380Y463444D02*
X446380Y468528D01*
X444685Y470223D01*
X437906Y470223D01*
X436211Y468528D01*
X436211Y463444D01*
X436211Y475138D02*
X446380Y475138D01*
X446380Y481917D02*
X436211Y475138D01*
X436211Y481917D02*
X446380Y481917D01*
X395580Y451750D02*
X385411Y451750D01*
X395580Y451750D02*
X395580Y458529D01*
X385411Y465139D02*
X385411Y468528D01*
X385411Y465139D02*
X387106Y463444D01*
X393885Y463444D01*
X395580Y465139D01*
X395580Y468528D01*
X393885Y470223D01*
X387106Y470223D01*
X385411Y468528D01*
X390496Y475138D02*
X390496Y481917D01*
X410811Y451750D02*
X420980Y451750D01*
X420980Y458529D01*
X410811Y465139D02*
X410811Y468528D01*
X410811Y465139D02*
X412506Y463444D01*
X419285Y463444D01*
X420980Y465139D01*
X420980Y468528D01*
X419285Y470223D01*
X412506Y470223D01*
X410811Y468528D01*
X415896Y475138D02*
X415896Y481917D01*
X419285Y478528D02*
X412506Y478528D01*
D13*
X227178Y484011D02*
X221416Y484011D01*
X218535Y486892D01*
X221416Y489773D01*
X227178Y489773D01*
X222856Y489773D02*
X222856Y484011D01*
X218535Y493366D02*
X227178Y493366D01*
X227178Y497688D01*
X225737Y499128D01*
X219975Y499128D01*
X218535Y497688D01*
X218535Y493366D01*
X219975Y502721D02*
X218535Y504162D01*
X218535Y507043D01*
X219975Y508483D01*
X221416Y508483D01*
X222856Y507043D01*
X224297Y508483D01*
X225737Y508483D01*
X227178Y507043D01*
X227178Y504162D01*
X225737Y502721D01*
X224297Y502721D01*
X222856Y504162D01*
X221416Y502721D01*
X219975Y502721D01*
X222856Y504162D02*
X222856Y507043D01*
X227178Y512076D02*
X227178Y517839D01*
X221416Y517839D02*
X227178Y512076D01*
X221416Y517839D02*
X219975Y517839D01*
X218535Y516398D01*
X218535Y513517D01*
X219975Y512076D01*
X219975Y521432D02*
X218535Y522872D01*
X218535Y525753D01*
X219975Y527194D01*
X221416Y527194D01*
X222856Y525753D01*
X222856Y524313D01*
X222856Y525753D02*
X224297Y527194D01*
X225737Y527194D01*
X227178Y525753D01*
X227178Y522872D01*
X225737Y521432D01*
X227178Y530787D02*
X227178Y536549D01*
X227178Y530787D02*
X221416Y536549D01*
X219975Y536549D01*
X218535Y535108D01*
X218535Y532227D01*
X219975Y530787D01*
D10*
X360011Y455564D02*
X360011Y452175D01*
X361706Y450480D01*
X368485Y450480D01*
X370180Y452175D01*
X370180Y455564D01*
X368485Y457259D01*
X361706Y457259D01*
X360011Y455564D01*
X360011Y462174D02*
X368485Y462174D01*
X370180Y463869D01*
X370180Y467258D01*
X368485Y468953D01*
X360011Y468953D01*
X360011Y477258D02*
X370180Y477258D01*
X360011Y480647D02*
X360011Y473868D01*
X360011Y485562D02*
X370180Y485562D01*
X360011Y485562D02*
X360011Y490646D01*
X361706Y492341D01*
X365096Y492341D01*
X366790Y490646D01*
X366790Y485562D01*
X368485Y497256D02*
X360011Y497256D01*
X368485Y497256D02*
X370180Y498951D01*
X370180Y502340D01*
X368485Y504035D01*
X360011Y504035D01*
X360011Y512339D02*
X370180Y512339D01*
X360011Y508950D02*
X360011Y515729D01*
D11*
X231496Y592466D02*
X231496Y603143D01*
X231496Y592466D02*
X238614Y592466D01*
X243190Y592466D02*
X243190Y599584D01*
X246749Y603143D01*
X250308Y599584D01*
X250308Y592466D01*
X250308Y597805D02*
X243190Y597805D01*
X231496Y617866D02*
X231496Y628543D01*
X236835Y628543D01*
X238614Y626764D01*
X238614Y623205D01*
X236835Y621425D01*
X231496Y621425D01*
X235055Y621425D02*
X238614Y617866D01*
X243190Y617866D02*
X243190Y624984D01*
X246749Y628543D01*
X250308Y624984D01*
X250308Y617866D01*
X250308Y623205D02*
X243190Y623205D01*
X231496Y577743D02*
X231496Y567066D01*
X231496Y577743D02*
X236835Y577743D01*
X238614Y575964D01*
X238614Y572405D01*
X236835Y570625D01*
X231496Y570625D01*
X235055Y570625D02*
X238614Y567066D01*
X243190Y567066D02*
X243190Y577743D01*
X243190Y567066D02*
X250308Y567066D01*
D14*
X238989Y471435D02*
X232125Y471435D01*
X235557Y471435D02*
X235557Y476011D01*
X232125Y476011D02*
X238989Y476011D01*
X238989Y480063D02*
X238989Y482351D01*
X238989Y480063D02*
X237845Y478919D01*
X235557Y478919D01*
X234413Y480063D01*
X234413Y482351D01*
X235557Y483495D01*
X236701Y483495D01*
X236701Y478919D01*
X234413Y487547D02*
X234413Y489835D01*
X235557Y490979D01*
X238989Y490979D01*
X238989Y487547D01*
X237845Y486403D01*
X236701Y487547D01*
X236701Y490979D01*
X238989Y493887D02*
X234413Y493887D01*
X236701Y493887D02*
X234413Y496175D01*
X234413Y497319D01*
X233269Y501268D02*
X237845Y501268D01*
X238989Y502412D01*
X234413Y502412D02*
X234413Y500124D01*
X232125Y512598D02*
X238989Y512598D01*
X234413Y514886D02*
X232125Y512598D01*
X234413Y514886D02*
X232125Y517174D01*
X238989Y517174D01*
X238989Y521226D02*
X238989Y523514D01*
X237845Y524658D01*
X235557Y524658D01*
X234413Y523514D01*
X234413Y521226D01*
X235557Y520082D01*
X237845Y520082D01*
X238989Y521226D01*
X238989Y527566D02*
X234413Y527566D01*
X234413Y530998D01*
X235557Y532142D01*
X238989Y532142D01*
X234413Y535050D02*
X234413Y536194D01*
X238989Y536194D01*
X238989Y535050D02*
X238989Y537338D01*
X232125Y536194D02*
X230981Y536194D01*
X233269Y541184D02*
X237845Y541184D01*
X238989Y542328D01*
X234413Y542328D02*
X234413Y540040D01*
X238989Y546173D02*
X238989Y548461D01*
X237845Y549605D01*
X235557Y549605D01*
X234413Y548461D01*
X234413Y546173D01*
X235557Y545029D01*
X237845Y545029D01*
X238989Y546173D01*
X238989Y552513D02*
X234413Y552513D01*
X236701Y552513D02*
X234413Y554801D01*
X234413Y555945D01*
D15*
X278740Y473340D02*
X319380Y503820D01*
X278740Y534300D01*
X263500Y503820D02*
X263131Y503630D01*
X262767Y503431D01*
X262408Y503223D01*
X262054Y503007D01*
X261705Y502782D01*
X261362Y502548D01*
X261025Y502306D01*
X260694Y502057D01*
X260369Y501799D01*
X260050Y501533D01*
X259738Y501260D01*
X259432Y500979D01*
X259134Y500690D01*
X258843Y500395D01*
X258558Y500092D01*
X258282Y499783D01*
X258013Y499467D01*
X257752Y499145D01*
X257498Y498816D01*
X257253Y498481D01*
X257016Y498141D01*
X256787Y497794D01*
X256567Y497443D01*
X256356Y497086D01*
X256153Y496724D01*
X255959Y496357D01*
X255774Y495985D01*
X255599Y495609D01*
X255432Y495229D01*
X255275Y494845D01*
X255127Y494458D01*
X254988Y494067D01*
X254860Y493672D01*
X254740Y493275D01*
X254631Y492874D01*
X254531Y492472D01*
X254442Y492066D01*
X254362Y491659D01*
X254292Y491250D01*
X254232Y490840D01*
X254181Y490428D01*
X254142Y490015D01*
X254112Y489601D01*
X254092Y489186D01*
X254082Y488772D01*
X254082Y488357D01*
X254093Y487942D01*
X254114Y487527D01*
X254144Y487114D01*
X254185Y486701D01*
X254236Y486289D01*
X254297Y485878D01*
X254367Y485469D01*
X254448Y485062D01*
X254539Y484658D01*
X254639Y484255D01*
X254749Y483855D01*
X254869Y483458D01*
X254999Y483063D01*
X255138Y482672D01*
X255286Y482285D01*
X255444Y481901D01*
X255612Y481522D01*
X255788Y481146D01*
X255974Y480775D01*
X256168Y480408D01*
X256372Y480047D01*
X256584Y479690D01*
X256805Y479339D01*
X257034Y478993D01*
X257272Y478653D01*
X257517Y478319D01*
X257771Y477990D01*
X258033Y477668D01*
X258303Y477353D01*
X258580Y477044D01*
X258865Y476742D01*
X259156Y476447D01*
X259455Y476160D01*
X259761Y475879D01*
X260074Y475606D01*
X260393Y475341D01*
X260719Y475084D01*
X261051Y474835D01*
X261388Y474594D01*
X261732Y474361D01*
X262081Y474136D01*
X262435Y473921D01*
X262795Y473713D01*
X263159Y473515D01*
X263528Y473326D01*
X263902Y473145D01*
X264280Y472974D01*
X264662Y472812D01*
X265048Y472660D01*
X265437Y472516D01*
X265830Y472383D01*
X266226Y472259D01*
X266625Y472145D01*
X267027Y472040D01*
X267431Y471945D01*
X267837Y471860D01*
X268245Y471785D01*
X268655Y471720D01*
X269066Y471665D01*
X269479Y471620D01*
X269892Y471585D01*
X270306Y471560D01*
X270721Y471546D01*
X271136Y471541D01*
X271551Y471546D01*
X271965Y471562D01*
X272380Y471588D01*
X272793Y471623D01*
X273205Y471669D01*
X273617Y471725D01*
X274026Y471791D01*
X274434Y471866D01*
X274840Y471952D01*
X275244Y472048D01*
X275645Y472153D01*
X276044Y472268D01*
X276440Y472393D01*
X276832Y472527D01*
X277222Y472671D01*
X277607Y472824D01*
X277989Y472987D01*
X278367Y473159D01*
X278740Y473340D01*
X263500Y503820D02*
X263131Y504010D01*
X262767Y504209D01*
X262408Y504417D01*
X262054Y504633D01*
X261705Y504858D01*
X261362Y505092D01*
X261025Y505334D01*
X260694Y505583D01*
X260369Y505841D01*
X260050Y506107D01*
X259738Y506380D01*
X259432Y506661D01*
X259134Y506950D01*
X258843Y507245D01*
X258558Y507548D01*
X258282Y507857D01*
X258013Y508173D01*
X257752Y508495D01*
X257498Y508824D01*
X257253Y509159D01*
X257016Y509499D01*
X256787Y509846D01*
X256567Y510197D01*
X256356Y510554D01*
X256153Y510916D01*
X255959Y511283D01*
X255774Y511655D01*
X255599Y512031D01*
X255432Y512411D01*
X255275Y512795D01*
X255127Y513182D01*
X254988Y513573D01*
X254860Y513968D01*
X254740Y514365D01*
X254631Y514766D01*
X254531Y515168D01*
X254442Y515574D01*
X254362Y515981D01*
X254292Y516390D01*
X254232Y516800D01*
X254181Y517212D01*
X254142Y517625D01*
X254112Y518039D01*
X254092Y518454D01*
X254082Y518868D01*
X254082Y519283D01*
X254093Y519698D01*
X254114Y520113D01*
X254144Y520526D01*
X254185Y520939D01*
X254236Y521351D01*
X254297Y521762D01*
X254367Y522171D01*
X254448Y522578D01*
X254539Y522982D01*
X254639Y523385D01*
X254749Y523785D01*
X254869Y524182D01*
X254999Y524577D01*
X255138Y524968D01*
X255286Y525355D01*
X255444Y525739D01*
X255612Y526118D01*
X255788Y526494D01*
X255974Y526865D01*
X256168Y527232D01*
X256372Y527593D01*
X256584Y527950D01*
X256805Y528301D01*
X257034Y528647D01*
X257272Y528987D01*
X257517Y529321D01*
X257771Y529650D01*
X258033Y529972D01*
X258303Y530287D01*
X258580Y530596D01*
X258865Y530898D01*
X259156Y531193D01*
X259455Y531480D01*
X259761Y531761D01*
X260074Y532034D01*
X260393Y532299D01*
X260719Y532556D01*
X261051Y532805D01*
X261388Y533046D01*
X261732Y533279D01*
X262081Y533504D01*
X262435Y533719D01*
X262795Y533927D01*
X263159Y534125D01*
X263528Y534314D01*
X263902Y534495D01*
X264280Y534666D01*
X264662Y534828D01*
X265048Y534980D01*
X265437Y535124D01*
X265830Y535257D01*
X266226Y535381D01*
X266625Y535495D01*
X267027Y535600D01*
X267431Y535695D01*
X267837Y535780D01*
X268245Y535855D01*
X268655Y535920D01*
X269066Y535975D01*
X269479Y536020D01*
X269892Y536055D01*
X270306Y536080D01*
X270721Y536094D01*
X271136Y536099D01*
X271551Y536094D01*
X271965Y536078D01*
X272380Y536052D01*
X272793Y536017D01*
X273205Y535971D01*
X273617Y535915D01*
X274026Y535849D01*
X274434Y535774D01*
X274840Y535688D01*
X275244Y535592D01*
X275645Y535487D01*
X276044Y535372D01*
X276440Y535247D01*
X276832Y535113D01*
X277222Y534969D01*
X277607Y534816D01*
X277989Y534653D01*
X278367Y534481D01*
X278740Y534300D01*
D14*
X261849Y430795D02*
X254985Y430795D01*
X261849Y430795D02*
X261849Y435371D01*
X254985Y438279D02*
X254985Y442855D01*
X254985Y438279D02*
X261849Y438279D01*
X261849Y442855D01*
X258417Y440567D02*
X258417Y438279D01*
X254985Y445763D02*
X261849Y445763D01*
X261849Y449195D01*
X260705Y450339D01*
X256129Y450339D01*
X254985Y449195D01*
X254985Y445763D01*
D13*
X281280Y699400D02*
X200000Y699400D01*
X281280Y699400D02*
X329540Y699400D01*
X555600Y699400D01*
X200000Y699400D02*
X200000Y420000D01*
D11*
X428600Y439050D02*
X434950Y445400D01*
X447650Y445400D01*
X454000Y439050D01*
X454000Y426350D02*
X447650Y420000D01*
X434950Y420000D01*
X428600Y426350D01*
X396850Y445400D02*
X384150Y445400D01*
X396850Y445400D02*
X403200Y439050D01*
X403200Y426350D02*
X396850Y420000D01*
X403200Y439050D02*
X409550Y445400D01*
X422250Y445400D01*
X428600Y439050D01*
X428600Y426350D02*
X422250Y420000D01*
X409550Y420000D01*
X403200Y426350D01*
X358750Y445400D02*
X352400Y439050D01*
X358750Y445400D02*
X371450Y445400D01*
X377800Y439050D01*
X377800Y426350D02*
X371450Y420000D01*
X358750Y420000D01*
X352400Y426350D01*
X377800Y439050D02*
X384150Y445400D01*
X377800Y426350D02*
X384150Y420000D01*
X396850Y420000D01*
X320650Y445400D02*
X307950Y445400D01*
X320650Y445400D02*
X327000Y439050D01*
X327000Y426350D02*
X320650Y420000D01*
X327000Y439050D02*
X333350Y445400D01*
X346050Y445400D01*
X352400Y439050D01*
X352400Y426350D02*
X346050Y420000D01*
X333350Y420000D01*
X327000Y426350D01*
X301600Y426350D02*
X301600Y439050D01*
X307950Y445400D01*
X301600Y426350D02*
X307950Y420000D01*
X320650Y420000D01*
X454000Y426350D02*
X454000Y439050D01*
X206350Y610500D02*
X200000Y616850D01*
X200000Y629550D01*
X206350Y635900D01*
X219050Y635900D02*
X225400Y629550D01*
X225400Y616850D01*
X219050Y610500D01*
X200000Y578750D02*
X200000Y566050D01*
X200000Y578750D02*
X206350Y585100D01*
X219050Y585100D02*
X225400Y578750D01*
X206350Y585100D02*
X200000Y591450D01*
X200000Y604150D01*
X206350Y610500D01*
X219050Y610500D02*
X225400Y604150D01*
X225400Y591450D01*
X219050Y585100D01*
X219050Y559700D02*
X206350Y559700D01*
X200000Y566050D01*
X219050Y559700D02*
X225400Y566050D01*
X225400Y578750D01*
X219050Y635900D02*
X206350Y635900D01*
D13*
X281280Y699400D02*
X281280Y722260D01*
X329540Y722260D02*
X329540Y699400D01*
X329540Y722260D02*
X281280Y722260D01*
X555600Y699400D02*
X555600Y420000D01*
X200000Y420000D01*
M02*
