G04 EAGLE Gerber RS-274X export*
G75*
%MOMM*%
%FSLAX34Y34*%
%LPD*%
%INSilkscreen Bottom*%
%IPPOS*%
%AMOC8*
5,1,8,0,0,1.08239X$1,22.5*%
G01*
%ADD10C,0.254000*%


D10*
X459294Y76329D02*
X460989Y74634D01*
X460989Y71245D01*
X459294Y69550D01*
X452515Y69550D01*
X450820Y71245D01*
X450820Y74634D01*
X452515Y76329D01*
X455904Y76329D01*
X455904Y72940D01*
X450820Y81244D02*
X460989Y81244D01*
X450820Y88023D01*
X460989Y88023D01*
X460989Y92938D02*
X450820Y92938D01*
X450820Y98022D01*
X452515Y99717D01*
X459294Y99717D01*
X460989Y98022D01*
X460989Y92938D01*
X484694Y69550D02*
X486389Y71245D01*
X486389Y74634D01*
X484694Y76329D01*
X482999Y76329D01*
X481304Y74634D01*
X481304Y72940D01*
X481304Y74634D02*
X479610Y76329D01*
X477915Y76329D01*
X476220Y74634D01*
X476220Y71245D01*
X477915Y69550D01*
X477915Y81244D02*
X476220Y81244D01*
X477915Y81244D02*
X477915Y82939D01*
X476220Y82939D01*
X476220Y81244D01*
X484694Y87091D02*
X486389Y88786D01*
X486389Y92175D01*
X484694Y93870D01*
X482999Y93870D01*
X481304Y92175D01*
X481304Y90481D01*
X481304Y92175D02*
X479610Y93870D01*
X477915Y93870D01*
X476220Y92175D01*
X476220Y88786D01*
X477915Y87091D01*
X482999Y98785D02*
X476220Y102174D01*
X482999Y105564D01*
X527020Y69550D02*
X537189Y69550D01*
X527020Y69550D02*
X527020Y76329D01*
X537189Y82939D02*
X537189Y86328D01*
X537189Y82939D02*
X535494Y81244D01*
X528715Y81244D01*
X527020Y82939D01*
X527020Y86328D01*
X528715Y88023D01*
X535494Y88023D01*
X537189Y86328D01*
X532104Y92938D02*
X532104Y99717D01*
X552420Y69550D02*
X562589Y69550D01*
X552420Y69550D02*
X552420Y76329D01*
X562589Y82939D02*
X562589Y86328D01*
X562589Y82939D02*
X560894Y81244D01*
X554115Y81244D01*
X552420Y82939D01*
X552420Y86328D01*
X554115Y88023D01*
X560894Y88023D01*
X562589Y86328D01*
X557504Y92938D02*
X557504Y99717D01*
X554115Y96328D02*
X560894Y96328D01*
X593060Y103362D02*
X593060Y68280D01*
X587989Y74634D02*
X586294Y76329D01*
X587989Y74634D02*
X587989Y71245D01*
X586294Y69550D01*
X584599Y69550D01*
X582904Y71245D01*
X582904Y74634D01*
X581210Y76329D01*
X579515Y76329D01*
X577820Y74634D01*
X577820Y71245D01*
X579515Y69550D01*
X577820Y81244D02*
X587989Y81244D01*
X577820Y81244D02*
X577820Y86328D01*
X579515Y88023D01*
X586294Y88023D01*
X587989Y86328D01*
X587989Y81244D01*
X587989Y92938D02*
X577820Y92938D01*
X577820Y99717D02*
X587989Y92938D01*
X587989Y99717D02*
X577820Y99717D01*
X511789Y73364D02*
X511789Y69975D01*
X510094Y68280D01*
X503315Y68280D01*
X501620Y69975D01*
X501620Y73364D01*
X503315Y75059D01*
X510094Y75059D01*
X511789Y73364D01*
X511789Y79974D02*
X503315Y79974D01*
X501620Y81669D01*
X501620Y85058D01*
X503315Y86753D01*
X511789Y86753D01*
X511789Y95058D02*
X501620Y95058D01*
X511789Y98447D02*
X511789Y91668D01*
X511789Y103362D02*
X501620Y103362D01*
X511789Y103362D02*
X511789Y108446D01*
X510094Y110141D01*
X506704Y110141D01*
X505010Y108446D01*
X505010Y103362D01*
X503315Y115056D02*
X511789Y115056D01*
X503315Y115056D02*
X501620Y116751D01*
X501620Y120140D01*
X503315Y121835D01*
X511789Y121835D01*
X511789Y130139D02*
X501620Y130139D01*
X511789Y126750D02*
X511789Y133529D01*
M02*
