G04 EAGLE Gerber RS-274X export*
G75*
%MOMM*%
%FSLAX34Y34*%
%LPD*%
%INBottom Copper*%
%IPPOS*%
%AMOC8*
5,1,8,0,0,1.08239X$1,22.5*%
G01*
%ADD10C,1.879600*%
%ADD11C,0.756400*%
%ADD12C,0.254000*%
%ADD13C,0.508000*%

G36*
X694589Y5092D02*
X694589Y5092D01*
X694640Y5094D01*
X694672Y5112D01*
X694708Y5120D01*
X694747Y5153D01*
X694792Y5177D01*
X694813Y5207D01*
X694841Y5230D01*
X694862Y5277D01*
X694892Y5319D01*
X694900Y5361D01*
X694912Y5389D01*
X694911Y5419D01*
X694919Y5461D01*
X694919Y144111D01*
X694908Y144161D01*
X694906Y144212D01*
X694888Y144244D01*
X694880Y144280D01*
X694847Y144319D01*
X694823Y144364D01*
X694793Y144385D01*
X694770Y144413D01*
X694723Y144434D01*
X694681Y144464D01*
X694639Y144472D01*
X694611Y144484D01*
X694581Y144483D01*
X694539Y144491D01*
X515842Y144491D01*
X515792Y144480D01*
X515741Y144478D01*
X515709Y144460D01*
X515673Y144452D01*
X515634Y144419D01*
X515589Y144395D01*
X515568Y144365D01*
X515540Y144342D01*
X515519Y144295D01*
X515489Y144253D01*
X515481Y144211D01*
X515469Y144183D01*
X515470Y144153D01*
X515462Y144111D01*
X515462Y70738D01*
X512262Y67538D01*
X70738Y67538D01*
X67538Y70738D01*
X67538Y318179D01*
X67532Y318204D01*
X67535Y318229D01*
X67513Y318287D01*
X67499Y318347D01*
X67482Y318367D01*
X67473Y318391D01*
X67428Y318433D01*
X67389Y318481D01*
X67365Y318492D01*
X67346Y318509D01*
X67287Y318527D01*
X67230Y318552D01*
X67205Y318551D01*
X67180Y318558D01*
X67119Y318548D01*
X67057Y318545D01*
X67035Y318533D01*
X67009Y318529D01*
X66938Y318480D01*
X66905Y318463D01*
X66899Y318454D01*
X66889Y318447D01*
X65082Y316640D01*
X62758Y315677D01*
X60242Y315677D01*
X57918Y316640D01*
X56140Y318418D01*
X55177Y320742D01*
X55177Y320980D01*
X55160Y321054D01*
X55147Y321129D01*
X55140Y321139D01*
X55138Y321149D01*
X55114Y321178D01*
X55066Y321249D01*
X51507Y324808D01*
X51442Y324848D01*
X51380Y324892D01*
X51368Y324894D01*
X51360Y324899D01*
X51323Y324903D01*
X51238Y324919D01*
X22895Y324919D01*
X9919Y337895D01*
X9919Y567105D01*
X19395Y576581D01*
X26887Y576581D01*
X26948Y576595D01*
X27012Y576602D01*
X27032Y576615D01*
X27055Y576620D01*
X27104Y576661D01*
X27158Y576695D01*
X27173Y576717D01*
X27189Y576730D01*
X27204Y576765D01*
X27238Y576815D01*
X27879Y578363D01*
X31237Y581721D01*
X35625Y583539D01*
X40375Y583539D01*
X44763Y581721D01*
X48121Y578363D01*
X49939Y573975D01*
X49939Y569225D01*
X48121Y564837D01*
X44763Y561479D01*
X40375Y559661D01*
X35625Y559661D01*
X31237Y561479D01*
X27879Y564837D01*
X27321Y566185D01*
X27284Y566236D01*
X27253Y566292D01*
X27234Y566306D01*
X27220Y566325D01*
X27164Y566355D01*
X27112Y566392D01*
X27085Y566397D01*
X27067Y566407D01*
X27029Y566408D01*
X26969Y566419D01*
X23762Y566419D01*
X23688Y566402D01*
X23613Y566389D01*
X23603Y566382D01*
X23593Y566380D01*
X23564Y566356D01*
X23493Y566308D01*
X20192Y563007D01*
X20152Y562942D01*
X20108Y562880D01*
X20106Y562868D01*
X20101Y562860D01*
X20097Y562823D01*
X20081Y562738D01*
X20081Y342262D01*
X20098Y342188D01*
X20111Y342113D01*
X20118Y342103D01*
X20120Y342093D01*
X20144Y342064D01*
X20192Y341993D01*
X26993Y335192D01*
X27058Y335152D01*
X27120Y335108D01*
X27132Y335106D01*
X27140Y335101D01*
X27177Y335097D01*
X27262Y335081D01*
X55605Y335081D01*
X62251Y328434D01*
X62316Y328394D01*
X62378Y328350D01*
X62390Y328348D01*
X62398Y328343D01*
X62435Y328339D01*
X62520Y328323D01*
X62758Y328323D01*
X65082Y327360D01*
X66889Y325553D01*
X66911Y325539D01*
X66927Y325519D01*
X66984Y325494D01*
X67036Y325461D01*
X67062Y325459D01*
X67086Y325448D01*
X67147Y325450D01*
X67209Y325445D01*
X67233Y325454D01*
X67259Y325455D01*
X67313Y325484D01*
X67371Y325506D01*
X67388Y325525D01*
X67411Y325537D01*
X67446Y325588D01*
X67488Y325633D01*
X67496Y325658D01*
X67511Y325679D01*
X67527Y325764D01*
X67538Y325799D01*
X67536Y325809D01*
X67538Y325821D01*
X67538Y496231D01*
X67532Y496256D01*
X67535Y496282D01*
X67513Y496340D01*
X67499Y496400D01*
X67482Y496420D01*
X67473Y496444D01*
X67428Y496486D01*
X67389Y496533D01*
X67365Y496544D01*
X67346Y496562D01*
X67287Y496579D01*
X67230Y496604D01*
X67205Y496603D01*
X67180Y496611D01*
X67119Y496600D01*
X67057Y496598D01*
X67035Y496585D01*
X67009Y496581D01*
X66938Y496533D01*
X66905Y496515D01*
X66899Y496507D01*
X66889Y496500D01*
X56422Y486033D01*
X54078Y483689D01*
X50098Y483689D01*
X50036Y483675D01*
X49973Y483668D01*
X49953Y483655D01*
X49929Y483650D01*
X49880Y483609D01*
X49827Y483575D01*
X49812Y483553D01*
X49796Y483540D01*
X49780Y483505D01*
X49747Y483455D01*
X48621Y480737D01*
X45263Y477379D01*
X40875Y475561D01*
X36125Y475561D01*
X31737Y477379D01*
X28379Y480737D01*
X26561Y485125D01*
X26561Y489875D01*
X28379Y494263D01*
X31737Y497621D01*
X36125Y499439D01*
X40875Y499439D01*
X45263Y497621D01*
X48621Y494263D01*
X49747Y491545D01*
X49784Y491494D01*
X49814Y491438D01*
X49834Y491424D01*
X49848Y491405D01*
X49904Y491375D01*
X49956Y491338D01*
X49982Y491333D01*
X50001Y491323D01*
X50038Y491322D01*
X50098Y491311D01*
X50764Y491311D01*
X50838Y491328D01*
X50913Y491341D01*
X50923Y491348D01*
X50933Y491350D01*
X50962Y491374D01*
X51033Y491422D01*
X59078Y499467D01*
X59118Y499532D01*
X59162Y499594D01*
X59164Y499606D01*
X59169Y499614D01*
X59173Y499651D01*
X59189Y499736D01*
X59189Y604578D01*
X70422Y615811D01*
X262330Y615811D01*
X262355Y615817D01*
X262381Y615814D01*
X262438Y615836D01*
X262498Y615850D01*
X262518Y615867D01*
X262543Y615876D01*
X262584Y615921D01*
X262632Y615960D01*
X262643Y615984D01*
X262660Y616003D01*
X262678Y616062D01*
X262703Y616119D01*
X262702Y616145D01*
X262709Y616170D01*
X262699Y616230D01*
X262696Y616292D01*
X262684Y616315D01*
X262679Y616340D01*
X262661Y616367D01*
X261677Y618742D01*
X261677Y621258D01*
X262640Y623582D01*
X264078Y625020D01*
X264087Y625034D01*
X264091Y625038D01*
X264097Y625050D01*
X264118Y625084D01*
X264162Y625146D01*
X264164Y625158D01*
X264169Y625167D01*
X264173Y625204D01*
X264189Y625288D01*
X264189Y637078D01*
X271922Y644811D01*
X281578Y644811D01*
X288811Y637578D01*
X288811Y634668D01*
X288828Y634594D01*
X288841Y634519D01*
X288848Y634509D01*
X288850Y634499D01*
X288874Y634470D01*
X288922Y634399D01*
X290475Y632846D01*
X290540Y632806D01*
X290602Y632762D01*
X290614Y632760D01*
X290622Y632755D01*
X290659Y632751D01*
X290744Y632735D01*
X291406Y632735D01*
X291431Y632741D01*
X291456Y632738D01*
X291514Y632760D01*
X291574Y632774D01*
X291594Y632791D01*
X291618Y632800D01*
X291660Y632845D01*
X291708Y632884D01*
X291719Y632908D01*
X291736Y632927D01*
X291754Y632986D01*
X291779Y633043D01*
X291778Y633068D01*
X291785Y633093D01*
X291775Y633154D01*
X291772Y633216D01*
X291760Y633238D01*
X291756Y633264D01*
X291707Y633335D01*
X291690Y633368D01*
X291681Y633374D01*
X291674Y633384D01*
X290640Y634418D01*
X289677Y636742D01*
X289677Y639258D01*
X290640Y641582D01*
X292078Y643020D01*
X292118Y643084D01*
X292162Y643146D01*
X292164Y643158D01*
X292169Y643167D01*
X292173Y643204D01*
X292189Y643288D01*
X292189Y669712D01*
X292172Y669785D01*
X292159Y669860D01*
X292152Y669870D01*
X292150Y669880D01*
X292126Y669909D01*
X292078Y669980D01*
X290640Y671418D01*
X289677Y673742D01*
X289677Y676258D01*
X290640Y678582D01*
X292418Y680360D01*
X294742Y681323D01*
X297258Y681323D01*
X299582Y680360D01*
X301360Y678582D01*
X302323Y676258D01*
X302323Y673742D01*
X301360Y671418D01*
X299922Y669980D01*
X299882Y669916D01*
X299838Y669854D01*
X299836Y669842D01*
X299831Y669833D01*
X299827Y669796D01*
X299811Y669712D01*
X299811Y643288D01*
X299828Y643214D01*
X299841Y643140D01*
X299848Y643130D01*
X299850Y643120D01*
X299874Y643091D01*
X299922Y643020D01*
X301360Y641582D01*
X302323Y639258D01*
X302323Y636742D01*
X301360Y634418D01*
X300326Y633384D01*
X300312Y633362D01*
X300292Y633346D01*
X300267Y633289D01*
X300234Y633237D01*
X300232Y633211D01*
X300221Y633187D01*
X300223Y633126D01*
X300218Y633064D01*
X300227Y633040D01*
X300228Y633014D01*
X300257Y632960D01*
X300279Y632902D01*
X300298Y632885D01*
X300310Y632862D01*
X300361Y632827D01*
X300406Y632785D01*
X300431Y632777D01*
X300452Y632762D01*
X300537Y632746D01*
X300572Y632735D01*
X300582Y632737D01*
X300594Y632735D01*
X312188Y632735D01*
X312262Y632752D01*
X312337Y632765D01*
X312347Y632772D01*
X312357Y632774D01*
X312386Y632798D01*
X312457Y632846D01*
X322422Y642811D01*
X334712Y642811D01*
X334786Y642828D01*
X334860Y642841D01*
X334870Y642848D01*
X334880Y642850D01*
X334909Y642874D01*
X334980Y642922D01*
X336418Y644360D01*
X338742Y645323D01*
X341258Y645323D01*
X343582Y644360D01*
X345360Y642582D01*
X346323Y640258D01*
X346323Y637742D01*
X345360Y635418D01*
X343582Y633640D01*
X341258Y632677D01*
X338742Y632677D01*
X336418Y633640D01*
X334980Y635078D01*
X334916Y635118D01*
X334854Y635162D01*
X334842Y635164D01*
X334833Y635169D01*
X334796Y635173D01*
X334712Y635189D01*
X325736Y635189D01*
X325662Y635172D01*
X325587Y635159D01*
X325577Y635152D01*
X325567Y635150D01*
X325538Y635126D01*
X325467Y635078D01*
X315502Y625113D01*
X287429Y625113D01*
X283533Y629010D01*
X283072Y629471D01*
X283039Y629491D01*
X283013Y629519D01*
X282967Y629536D01*
X282925Y629562D01*
X282887Y629566D01*
X282851Y629579D01*
X282802Y629574D01*
X282752Y629579D01*
X282717Y629565D01*
X282678Y629561D01*
X282637Y629534D01*
X282591Y629517D01*
X282564Y629489D01*
X282532Y629468D01*
X282498Y629417D01*
X282473Y629390D01*
X282467Y629370D01*
X282452Y629347D01*
X281860Y627918D01*
X281184Y627243D01*
X281157Y627199D01*
X281123Y627162D01*
X281112Y627127D01*
X281093Y627095D01*
X281088Y627045D01*
X281074Y626996D01*
X281080Y626960D01*
X281076Y626923D01*
X281095Y626875D01*
X281103Y626825D01*
X281127Y626790D01*
X281138Y626761D01*
X281160Y626740D01*
X281184Y626705D01*
X283967Y623922D01*
X284032Y623882D01*
X284094Y623838D01*
X284106Y623836D01*
X284114Y623831D01*
X284151Y623827D01*
X284236Y623811D01*
X339712Y623811D01*
X339786Y623828D01*
X339860Y623841D01*
X339870Y623848D01*
X339880Y623850D01*
X339909Y623874D01*
X339980Y623922D01*
X341418Y625360D01*
X343742Y626323D01*
X346258Y626323D01*
X348582Y625360D01*
X350360Y623582D01*
X351323Y621258D01*
X351323Y618742D01*
X350360Y616418D01*
X348582Y614640D01*
X346258Y613677D01*
X343742Y613677D01*
X341418Y614640D01*
X339980Y616078D01*
X339916Y616118D01*
X339854Y616162D01*
X339842Y616164D01*
X339833Y616169D01*
X339796Y616173D01*
X339712Y616189D01*
X316170Y616189D01*
X316145Y616183D01*
X316119Y616186D01*
X316062Y616164D01*
X316002Y616150D01*
X315982Y616133D01*
X315957Y616124D01*
X315916Y616079D01*
X315868Y616040D01*
X315857Y616016D01*
X315840Y615997D01*
X315822Y615938D01*
X315797Y615881D01*
X315798Y615855D01*
X315791Y615830D01*
X315801Y615770D01*
X315804Y615708D01*
X315816Y615685D01*
X315821Y615660D01*
X315839Y615633D01*
X316823Y613258D01*
X316823Y610742D01*
X315860Y608418D01*
X315553Y608111D01*
X315539Y608089D01*
X315519Y608073D01*
X315494Y608016D01*
X315461Y607964D01*
X315459Y607938D01*
X315448Y607914D01*
X315450Y607853D01*
X315445Y607791D01*
X315454Y607767D01*
X315455Y607741D01*
X315484Y607687D01*
X315506Y607629D01*
X315525Y607612D01*
X315537Y607589D01*
X315588Y607554D01*
X315633Y607512D01*
X315658Y607504D01*
X315679Y607489D01*
X315764Y607473D01*
X315799Y607462D01*
X315809Y607464D01*
X315821Y607462D01*
X512262Y607462D01*
X515462Y604262D01*
X515462Y499104D01*
X515468Y499079D01*
X515465Y499053D01*
X515487Y498995D01*
X515501Y498935D01*
X515518Y498915D01*
X515527Y498891D01*
X515572Y498849D01*
X515611Y498801D01*
X515635Y498791D01*
X515654Y498773D01*
X515713Y498756D01*
X515770Y498730D01*
X515795Y498731D01*
X515820Y498724D01*
X515881Y498735D01*
X515943Y498737D01*
X515965Y498749D01*
X515991Y498754D01*
X516062Y498802D01*
X516095Y498820D01*
X516101Y498828D01*
X516111Y498835D01*
X517738Y500462D01*
X532262Y500462D01*
X535462Y497262D01*
X535462Y402738D01*
X532262Y399538D01*
X517738Y399538D01*
X516111Y401165D01*
X516089Y401179D01*
X516073Y401199D01*
X516016Y401224D01*
X515964Y401256D01*
X515938Y401259D01*
X515914Y401270D01*
X515853Y401267D01*
X515791Y401273D01*
X515767Y401264D01*
X515741Y401263D01*
X515687Y401233D01*
X515629Y401211D01*
X515612Y401192D01*
X515589Y401180D01*
X515554Y401130D01*
X515512Y401084D01*
X515504Y401060D01*
X515489Y401038D01*
X515473Y400954D01*
X515462Y400918D01*
X515464Y400908D01*
X515462Y400896D01*
X515462Y375889D01*
X515473Y375839D01*
X515475Y375788D01*
X515493Y375756D01*
X515501Y375720D01*
X515534Y375681D01*
X515558Y375636D01*
X515588Y375615D01*
X515611Y375587D01*
X515658Y375566D01*
X515700Y375536D01*
X515742Y375528D01*
X515770Y375516D01*
X515800Y375517D01*
X515842Y375509D01*
X554158Y375509D01*
X554208Y375520D01*
X554259Y375522D01*
X554291Y375540D01*
X554327Y375548D01*
X554366Y375581D01*
X554411Y375605D01*
X554432Y375635D01*
X554460Y375658D01*
X554481Y375705D01*
X554511Y375747D01*
X554519Y375789D01*
X554531Y375817D01*
X554530Y375847D01*
X554538Y375889D01*
X554538Y377262D01*
X557738Y380462D01*
X652262Y380462D01*
X655462Y377262D01*
X655462Y375889D01*
X655473Y375839D01*
X655475Y375788D01*
X655493Y375756D01*
X655501Y375720D01*
X655534Y375681D01*
X655558Y375636D01*
X655588Y375615D01*
X655611Y375587D01*
X655658Y375566D01*
X655700Y375536D01*
X655742Y375528D01*
X655770Y375516D01*
X655800Y375517D01*
X655842Y375509D01*
X694539Y375509D01*
X694589Y375520D01*
X694640Y375522D01*
X694672Y375540D01*
X694708Y375548D01*
X694747Y375581D01*
X694792Y375605D01*
X694813Y375635D01*
X694841Y375658D01*
X694862Y375705D01*
X694892Y375747D01*
X694900Y375789D01*
X694912Y375817D01*
X694911Y375847D01*
X694919Y375889D01*
X694919Y401277D01*
X694913Y401302D01*
X694916Y401328D01*
X694894Y401386D01*
X694880Y401446D01*
X694863Y401466D01*
X694854Y401490D01*
X694809Y401532D01*
X694770Y401580D01*
X694746Y401590D01*
X694727Y401608D01*
X694668Y401625D01*
X694611Y401651D01*
X694586Y401650D01*
X694561Y401657D01*
X694500Y401646D01*
X694438Y401644D01*
X694416Y401632D01*
X694390Y401627D01*
X694319Y401579D01*
X694286Y401561D01*
X694280Y401553D01*
X694270Y401546D01*
X692262Y399538D01*
X677738Y399538D01*
X674538Y402738D01*
X674538Y497262D01*
X677738Y500462D01*
X692262Y500462D01*
X694270Y498454D01*
X694292Y498440D01*
X694308Y498420D01*
X694365Y498395D01*
X694417Y498363D01*
X694443Y498360D01*
X694467Y498349D01*
X694528Y498352D01*
X694590Y498346D01*
X694614Y498355D01*
X694640Y498356D01*
X694694Y498386D01*
X694752Y498408D01*
X694769Y498427D01*
X694792Y498439D01*
X694827Y498489D01*
X694869Y498535D01*
X694877Y498559D01*
X694892Y498581D01*
X694908Y498665D01*
X694919Y498701D01*
X694917Y498711D01*
X694919Y498723D01*
X694919Y694539D01*
X694908Y694589D01*
X694906Y694640D01*
X694888Y694672D01*
X694880Y694708D01*
X694847Y694747D01*
X694823Y694792D01*
X694793Y694813D01*
X694770Y694841D01*
X694723Y694862D01*
X694681Y694892D01*
X694639Y694900D01*
X694611Y694912D01*
X694581Y694911D01*
X694539Y694919D01*
X5461Y694919D01*
X5411Y694908D01*
X5360Y694906D01*
X5328Y694888D01*
X5292Y694880D01*
X5253Y694847D01*
X5208Y694823D01*
X5187Y694793D01*
X5159Y694770D01*
X5138Y694723D01*
X5108Y694681D01*
X5100Y694639D01*
X5088Y694611D01*
X5089Y694581D01*
X5081Y694539D01*
X5081Y5461D01*
X5092Y5411D01*
X5094Y5360D01*
X5112Y5328D01*
X5120Y5292D01*
X5153Y5253D01*
X5177Y5208D01*
X5207Y5187D01*
X5230Y5159D01*
X5277Y5138D01*
X5319Y5108D01*
X5361Y5100D01*
X5389Y5088D01*
X5419Y5089D01*
X5461Y5081D01*
X694539Y5081D01*
X694589Y5092D01*
G37*
G36*
X694589Y155520D02*
X694589Y155520D01*
X694640Y155522D01*
X694672Y155540D01*
X694708Y155548D01*
X694747Y155581D01*
X694792Y155605D01*
X694813Y155635D01*
X694841Y155658D01*
X694862Y155705D01*
X694892Y155747D01*
X694900Y155789D01*
X694912Y155817D01*
X694911Y155847D01*
X694919Y155889D01*
X694919Y364111D01*
X694908Y364161D01*
X694906Y364212D01*
X694888Y364244D01*
X694880Y364280D01*
X694847Y364319D01*
X694823Y364364D01*
X694793Y364385D01*
X694770Y364413D01*
X694723Y364434D01*
X694681Y364464D01*
X694639Y364472D01*
X694611Y364484D01*
X694581Y364483D01*
X694539Y364491D01*
X655842Y364491D01*
X655792Y364480D01*
X655741Y364478D01*
X655709Y364460D01*
X655673Y364452D01*
X655634Y364419D01*
X655589Y364395D01*
X655568Y364365D01*
X655540Y364342D01*
X655519Y364295D01*
X655489Y364253D01*
X655481Y364211D01*
X655469Y364183D01*
X655470Y364153D01*
X655462Y364111D01*
X655462Y362738D01*
X652262Y359538D01*
X557738Y359538D01*
X554538Y362738D01*
X554538Y364111D01*
X554527Y364161D01*
X554525Y364212D01*
X554507Y364244D01*
X554499Y364280D01*
X554466Y364319D01*
X554442Y364364D01*
X554412Y364385D01*
X554389Y364413D01*
X554342Y364434D01*
X554300Y364464D01*
X554258Y364472D01*
X554230Y364484D01*
X554200Y364483D01*
X554158Y364491D01*
X515842Y364491D01*
X515792Y364480D01*
X515741Y364478D01*
X515709Y364460D01*
X515673Y364452D01*
X515634Y364419D01*
X515589Y364395D01*
X515568Y364365D01*
X515540Y364342D01*
X515519Y364295D01*
X515489Y364253D01*
X515481Y364211D01*
X515469Y364183D01*
X515470Y364153D01*
X515462Y364111D01*
X515462Y314065D01*
X515468Y314040D01*
X515465Y314014D01*
X515487Y313956D01*
X515501Y313896D01*
X515518Y313876D01*
X515527Y313852D01*
X515572Y313810D01*
X515611Y313763D01*
X515635Y313752D01*
X515654Y313734D01*
X515713Y313717D01*
X515770Y313692D01*
X515795Y313693D01*
X515820Y313685D01*
X515881Y313696D01*
X515943Y313698D01*
X515965Y313711D01*
X515991Y313715D01*
X516062Y313763D01*
X516095Y313781D01*
X516101Y313789D01*
X516111Y313796D01*
X517420Y315105D01*
X517440Y315108D01*
X517454Y315117D01*
X517467Y315120D01*
X517497Y315145D01*
X517562Y315187D01*
X529439Y326624D01*
X529441Y326627D01*
X529444Y326629D01*
X530920Y328105D01*
X530940Y328108D01*
X530954Y328117D01*
X530966Y328120D01*
X533044Y328081D01*
X533047Y328081D01*
X533051Y328081D01*
X668428Y328081D01*
X668490Y328095D01*
X668553Y328102D01*
X668573Y328115D01*
X668597Y328120D01*
X668646Y328161D01*
X668699Y328195D01*
X668714Y328217D01*
X668730Y328230D01*
X668746Y328265D01*
X668779Y328315D01*
X669379Y329763D01*
X672737Y333121D01*
X677125Y334939D01*
X681875Y334939D01*
X686263Y333121D01*
X689621Y329763D01*
X691439Y325375D01*
X691439Y320625D01*
X689621Y316237D01*
X686263Y312879D01*
X681875Y311061D01*
X677125Y311061D01*
X672737Y312879D01*
X669379Y316237D01*
X668779Y317685D01*
X668742Y317736D01*
X668712Y317792D01*
X668692Y317806D01*
X668678Y317825D01*
X668622Y317855D01*
X668570Y317892D01*
X668544Y317897D01*
X668525Y317907D01*
X668488Y317908D01*
X668428Y317919D01*
X535202Y317919D01*
X535131Y317903D01*
X535060Y317892D01*
X535046Y317883D01*
X535033Y317880D01*
X535003Y317855D01*
X534938Y317813D01*
X524697Y307951D01*
X524654Y307884D01*
X524608Y307820D01*
X524607Y307812D01*
X524603Y307806D01*
X524599Y307773D01*
X524581Y307677D01*
X524581Y286204D01*
X524590Y286166D01*
X524588Y286128D01*
X524609Y286083D01*
X524620Y286035D01*
X524645Y286005D01*
X524661Y285970D01*
X524699Y285939D01*
X524730Y285901D01*
X524766Y285885D01*
X524795Y285861D01*
X524843Y285850D01*
X524889Y285830D01*
X524927Y285832D01*
X524965Y285823D01*
X525024Y285835D01*
X525062Y285837D01*
X525080Y285847D01*
X525107Y285852D01*
X526242Y286323D01*
X528758Y286323D01*
X531082Y285360D01*
X532860Y283582D01*
X533823Y281258D01*
X533823Y278742D01*
X532860Y276418D01*
X531422Y274980D01*
X531382Y274916D01*
X531338Y274854D01*
X531336Y274842D01*
X531331Y274833D01*
X531327Y274796D01*
X531319Y274753D01*
X531318Y274750D01*
X531318Y274748D01*
X531311Y274712D01*
X531311Y260288D01*
X531328Y260214D01*
X531341Y260140D01*
X531348Y260130D01*
X531350Y260120D01*
X531374Y260091D01*
X531422Y260020D01*
X532860Y258582D01*
X533823Y256258D01*
X533823Y253742D01*
X532860Y251418D01*
X531082Y249640D01*
X528758Y248677D01*
X526242Y248677D01*
X525107Y249148D01*
X525069Y249154D01*
X525033Y249170D01*
X524984Y249168D01*
X524936Y249176D01*
X524899Y249165D01*
X524860Y249163D01*
X524817Y249140D01*
X524770Y249125D01*
X524742Y249099D01*
X524708Y249080D01*
X524680Y249040D01*
X524644Y249006D01*
X524631Y248970D01*
X524608Y248939D01*
X524597Y248879D01*
X524584Y248844D01*
X524586Y248823D01*
X524581Y248796D01*
X524581Y192286D01*
X524598Y192211D01*
X524612Y192135D01*
X524618Y192126D01*
X524620Y192118D01*
X524643Y192090D01*
X524694Y192016D01*
X531625Y185190D01*
X531689Y185151D01*
X531749Y185108D01*
X531763Y185106D01*
X531773Y185100D01*
X531811Y185096D01*
X531892Y185081D01*
X635482Y185081D01*
X635556Y185098D01*
X635630Y185111D01*
X635640Y185118D01*
X635650Y185120D01*
X635679Y185144D01*
X635750Y185192D01*
X635918Y185360D01*
X638242Y186323D01*
X640758Y186323D01*
X643082Y185360D01*
X644860Y183582D01*
X645823Y181258D01*
X645823Y178742D01*
X644860Y176418D01*
X643082Y174640D01*
X640758Y173677D01*
X638242Y173677D01*
X635918Y174640D01*
X635750Y174808D01*
X635686Y174848D01*
X635624Y174892D01*
X635612Y174894D01*
X635603Y174899D01*
X635566Y174903D01*
X635482Y174919D01*
X529675Y174919D01*
X529674Y174919D01*
X529672Y174919D01*
X527566Y174903D01*
X526077Y176392D01*
X526076Y176393D01*
X526075Y176394D01*
X517529Y184810D01*
X517467Y184848D01*
X516111Y186204D01*
X516089Y186218D01*
X516073Y186237D01*
X516016Y186263D01*
X515964Y186295D01*
X515938Y186298D01*
X515914Y186308D01*
X515853Y186306D01*
X515791Y186312D01*
X515767Y186303D01*
X515741Y186302D01*
X515687Y186272D01*
X515629Y186250D01*
X515612Y186231D01*
X515589Y186219D01*
X515554Y186169D01*
X515512Y186123D01*
X515504Y186098D01*
X515489Y186077D01*
X515473Y185993D01*
X515462Y185957D01*
X515464Y185947D01*
X515462Y185935D01*
X515462Y155889D01*
X515473Y155839D01*
X515475Y155788D01*
X515493Y155756D01*
X515501Y155720D01*
X515534Y155681D01*
X515558Y155636D01*
X515588Y155615D01*
X515611Y155587D01*
X515658Y155566D01*
X515700Y155536D01*
X515742Y155528D01*
X515770Y155516D01*
X515800Y155517D01*
X515842Y155509D01*
X694539Y155509D01*
X694589Y155520D01*
G37*
%LPC*%
G36*
X548742Y431177D02*
X548742Y431177D01*
X546418Y432140D01*
X544640Y433918D01*
X543677Y436242D01*
X543677Y438276D01*
X543660Y438350D01*
X543647Y438425D01*
X543640Y438435D01*
X543638Y438445D01*
X543614Y438474D01*
X543566Y438545D01*
X539378Y442733D01*
X539378Y535767D01*
X553422Y549811D01*
X554212Y549811D01*
X554286Y549828D01*
X554360Y549841D01*
X554370Y549848D01*
X554380Y549850D01*
X554409Y549874D01*
X554480Y549922D01*
X555918Y551360D01*
X558242Y552323D01*
X560758Y552323D01*
X563082Y551360D01*
X564860Y549582D01*
X565823Y547258D01*
X565823Y544742D01*
X564860Y542418D01*
X563553Y541111D01*
X563541Y541093D01*
X563530Y541084D01*
X563529Y541080D01*
X563519Y541073D01*
X563494Y541016D01*
X563461Y540964D01*
X563459Y540938D01*
X563448Y540914D01*
X563450Y540853D01*
X563445Y540791D01*
X563454Y540767D01*
X563455Y540741D01*
X563484Y540687D01*
X563506Y540629D01*
X563525Y540612D01*
X563537Y540589D01*
X563588Y540554D01*
X563633Y540512D01*
X563658Y540504D01*
X563679Y540489D01*
X563764Y540473D01*
X563799Y540462D01*
X563809Y540464D01*
X563821Y540462D01*
X652262Y540462D01*
X655462Y537262D01*
X655462Y522738D01*
X652262Y519538D01*
X557738Y519538D01*
X554538Y522738D01*
X554538Y537262D01*
X556928Y539652D01*
X556949Y539685D01*
X556977Y539712D01*
X556994Y539758D01*
X557020Y539800D01*
X557023Y539838D01*
X557037Y539874D01*
X557032Y539923D01*
X557036Y539972D01*
X557023Y540008D01*
X557019Y540046D01*
X556992Y540088D01*
X556975Y540134D01*
X556947Y540160D01*
X556926Y540193D01*
X556875Y540226D01*
X556848Y540252D01*
X556828Y540258D01*
X556805Y540273D01*
X555918Y540640D01*
X555743Y540816D01*
X555699Y540843D01*
X555662Y540877D01*
X555627Y540888D01*
X555595Y540907D01*
X555545Y540912D01*
X555496Y540926D01*
X555459Y540920D01*
X555423Y540924D01*
X555375Y540905D01*
X555325Y540897D01*
X555290Y540873D01*
X555261Y540862D01*
X555240Y540840D01*
X555205Y540816D01*
X547111Y532722D01*
X547071Y532657D01*
X547027Y532595D01*
X547025Y532583D01*
X547020Y532575D01*
X547016Y532538D01*
X547000Y532453D01*
X547000Y446047D01*
X547017Y445973D01*
X547030Y445898D01*
X547037Y445888D01*
X547039Y445878D01*
X547063Y445849D01*
X547111Y445778D01*
X548955Y443934D01*
X549020Y443894D01*
X549082Y443850D01*
X549094Y443848D01*
X549102Y443843D01*
X549139Y443839D01*
X549224Y443823D01*
X551258Y443823D01*
X553582Y442860D01*
X555360Y441082D01*
X556323Y438758D01*
X556323Y436242D01*
X555360Y433918D01*
X553582Y432140D01*
X551258Y431177D01*
X548742Y431177D01*
G37*
%LPD*%
%LPC*%
G36*
X525742Y593677D02*
X525742Y593677D01*
X523418Y594640D01*
X521640Y596418D01*
X520677Y598742D01*
X520677Y601258D01*
X521640Y603582D01*
X523078Y605020D01*
X523118Y605084D01*
X523162Y605146D01*
X523164Y605158D01*
X523169Y605167D01*
X523173Y605204D01*
X523189Y605288D01*
X523189Y669712D01*
X523172Y669785D01*
X523159Y669860D01*
X523152Y669870D01*
X523150Y669880D01*
X523126Y669909D01*
X523078Y669980D01*
X521640Y671418D01*
X521042Y672861D01*
X521035Y672872D01*
X521032Y672884D01*
X520985Y672942D01*
X520941Y673002D01*
X520930Y673008D01*
X520922Y673018D01*
X520854Y673048D01*
X520788Y673083D01*
X520775Y673084D01*
X520763Y673089D01*
X520689Y673086D01*
X520615Y673088D01*
X520603Y673083D01*
X520590Y673082D01*
X520525Y673047D01*
X520458Y673016D01*
X520449Y673006D01*
X520438Y673000D01*
X520396Y672939D01*
X520349Y672881D01*
X520346Y672868D01*
X520338Y672858D01*
X520311Y672716D01*
X520311Y619922D01*
X516578Y616189D01*
X515288Y616189D01*
X515214Y616172D01*
X515140Y616159D01*
X515130Y616152D01*
X515120Y616150D01*
X515091Y616126D01*
X515020Y616078D01*
X513582Y614640D01*
X511258Y613677D01*
X508742Y613677D01*
X506418Y614640D01*
X504640Y616418D01*
X503677Y618742D01*
X503677Y621258D01*
X504640Y623582D01*
X506418Y625360D01*
X508742Y626323D01*
X511258Y626323D01*
X512163Y625948D01*
X512201Y625941D01*
X512237Y625926D01*
X512286Y625927D01*
X512334Y625919D01*
X512371Y625931D01*
X512410Y625932D01*
X512453Y625956D01*
X512500Y625970D01*
X512528Y625997D01*
X512562Y626015D01*
X512590Y626055D01*
X512626Y626089D01*
X512639Y626125D01*
X512662Y626157D01*
X512673Y626216D01*
X512686Y626252D01*
X512684Y626272D01*
X512689Y626299D01*
X512689Y680212D01*
X512672Y680286D01*
X512659Y680360D01*
X512652Y680370D01*
X512650Y680380D01*
X512626Y680409D01*
X512578Y680480D01*
X511140Y681918D01*
X510177Y684242D01*
X510177Y686758D01*
X511140Y689082D01*
X512918Y690860D01*
X515242Y691823D01*
X517758Y691823D01*
X520082Y690860D01*
X521860Y689082D01*
X522823Y686758D01*
X522823Y684242D01*
X521860Y681918D01*
X520422Y680480D01*
X520382Y680416D01*
X520338Y680354D01*
X520336Y680342D01*
X520331Y680333D01*
X520327Y680296D01*
X520311Y680212D01*
X520311Y677284D01*
X520314Y677272D01*
X520312Y677259D01*
X520333Y677188D01*
X520350Y677116D01*
X520358Y677106D01*
X520362Y677093D01*
X520413Y677039D01*
X520460Y676982D01*
X520472Y676977D01*
X520481Y676967D01*
X520551Y676941D01*
X520619Y676911D01*
X520632Y676912D01*
X520644Y676907D01*
X520717Y676915D01*
X520792Y676918D01*
X520803Y676924D01*
X520816Y676925D01*
X520879Y676965D01*
X520944Y677000D01*
X520951Y677011D01*
X520962Y677018D01*
X521042Y677139D01*
X521640Y678582D01*
X523418Y680360D01*
X525742Y681323D01*
X528258Y681323D01*
X530582Y680360D01*
X531881Y679061D01*
X531945Y679021D01*
X532007Y678977D01*
X532019Y678975D01*
X532028Y678970D01*
X532065Y678966D01*
X532150Y678950D01*
X575940Y678950D01*
X578283Y676606D01*
X585967Y668922D01*
X588311Y666578D01*
X588311Y662788D01*
X588328Y662714D01*
X588341Y662640D01*
X588348Y662630D01*
X588350Y662620D01*
X588374Y662591D01*
X588422Y662520D01*
X589860Y661082D01*
X590823Y658758D01*
X590823Y656242D01*
X589860Y653918D01*
X588082Y652140D01*
X585758Y651177D01*
X583242Y651177D01*
X580918Y652140D01*
X579140Y653918D01*
X578177Y656242D01*
X578177Y658758D01*
X579140Y661082D01*
X580578Y662520D01*
X580618Y662584D01*
X580662Y662646D01*
X580664Y662658D01*
X580669Y662667D01*
X580673Y662704D01*
X580689Y662788D01*
X580689Y663264D01*
X580672Y663338D01*
X580659Y663413D01*
X580652Y663423D01*
X580650Y663433D01*
X580626Y663462D01*
X580578Y663533D01*
X572894Y671217D01*
X572829Y671257D01*
X572767Y671301D01*
X572755Y671303D01*
X572747Y671308D01*
X572710Y671312D01*
X572625Y671328D01*
X532427Y671328D01*
X532353Y671311D01*
X532279Y671298D01*
X532268Y671291D01*
X532259Y671289D01*
X532230Y671265D01*
X532159Y671217D01*
X530922Y669980D01*
X530882Y669916D01*
X530838Y669854D01*
X530836Y669842D01*
X530831Y669833D01*
X530827Y669796D01*
X530811Y669712D01*
X530811Y605288D01*
X530828Y605214D01*
X530841Y605140D01*
X530848Y605130D01*
X530850Y605120D01*
X530874Y605091D01*
X530922Y605020D01*
X532020Y603922D01*
X532084Y603882D01*
X532146Y603838D01*
X532158Y603836D01*
X532167Y603831D01*
X532204Y603827D01*
X532288Y603811D01*
X549712Y603811D01*
X549786Y603828D01*
X549860Y603841D01*
X549870Y603848D01*
X549880Y603850D01*
X549909Y603874D01*
X549980Y603922D01*
X551418Y605360D01*
X553742Y606323D01*
X556258Y606323D01*
X558582Y605360D01*
X560360Y603582D01*
X561323Y601258D01*
X561323Y598742D01*
X560360Y596418D01*
X558582Y594640D01*
X556258Y593677D01*
X553742Y593677D01*
X551418Y594640D01*
X549980Y596078D01*
X549916Y596118D01*
X549854Y596162D01*
X549842Y596164D01*
X549833Y596169D01*
X549796Y596173D01*
X549712Y596189D01*
X532288Y596189D01*
X532214Y596172D01*
X532140Y596159D01*
X532130Y596152D01*
X532120Y596150D01*
X532091Y596126D01*
X532020Y596078D01*
X530582Y594640D01*
X528258Y593677D01*
X525742Y593677D01*
G37*
%LPD*%
%LPC*%
G36*
X540742Y219677D02*
X540742Y219677D01*
X538418Y220640D01*
X536640Y222418D01*
X535677Y224742D01*
X535677Y227258D01*
X536640Y229582D01*
X538078Y231020D01*
X538118Y231084D01*
X538162Y231146D01*
X538164Y231158D01*
X538169Y231167D01*
X538173Y231204D01*
X538189Y231288D01*
X538189Y251078D01*
X563522Y276411D01*
X668068Y276411D01*
X668130Y276425D01*
X668193Y276432D01*
X668213Y276445D01*
X668236Y276450D01*
X668285Y276491D01*
X668339Y276525D01*
X668354Y276547D01*
X668370Y276560D01*
X668385Y276595D01*
X668419Y276645D01*
X669379Y278963D01*
X672737Y282321D01*
X677125Y284139D01*
X681875Y284139D01*
X686263Y282321D01*
X689621Y278963D01*
X691439Y274575D01*
X691439Y269825D01*
X689621Y265437D01*
X686263Y262079D01*
X681875Y260261D01*
X677125Y260261D01*
X672737Y262079D01*
X669379Y265437D01*
X668088Y268555D01*
X668051Y268606D01*
X668020Y268662D01*
X668001Y268676D01*
X667987Y268695D01*
X667930Y268725D01*
X667879Y268762D01*
X667852Y268767D01*
X667834Y268777D01*
X667796Y268778D01*
X667736Y268789D01*
X566836Y268789D01*
X566762Y268772D01*
X566687Y268759D01*
X566677Y268752D01*
X566667Y268750D01*
X566638Y268726D01*
X566567Y268678D01*
X545922Y248033D01*
X545882Y247968D01*
X545838Y247906D01*
X545836Y247894D01*
X545831Y247886D01*
X545827Y247849D01*
X545811Y247764D01*
X545811Y231288D01*
X545824Y231231D01*
X545824Y231229D01*
X545825Y231228D01*
X545828Y231214D01*
X545841Y231140D01*
X545848Y231130D01*
X545850Y231120D01*
X545874Y231091D01*
X545922Y231020D01*
X547360Y229582D01*
X548323Y227258D01*
X548323Y224742D01*
X547360Y222418D01*
X545582Y220640D01*
X543258Y219677D01*
X540742Y219677D01*
G37*
%LPD*%
%LPC*%
G36*
X33008Y639919D02*
X33008Y639919D01*
X24709Y643357D01*
X18357Y649709D01*
X14919Y658008D01*
X14919Y666992D01*
X18357Y675291D01*
X24709Y681643D01*
X33008Y685081D01*
X41992Y685081D01*
X50291Y681643D01*
X56643Y675291D01*
X60081Y666992D01*
X60081Y658008D01*
X56643Y649709D01*
X50291Y643357D01*
X41992Y639919D01*
X33008Y639919D01*
G37*
%LPD*%
%LPC*%
G36*
X658008Y639919D02*
X658008Y639919D01*
X649709Y643357D01*
X643357Y649709D01*
X639919Y658008D01*
X639919Y666992D01*
X643357Y675291D01*
X649709Y681643D01*
X658008Y685081D01*
X666992Y685081D01*
X675291Y681643D01*
X681643Y675291D01*
X685081Y666992D01*
X685081Y658008D01*
X681643Y649709D01*
X675291Y643357D01*
X666992Y639919D01*
X658008Y639919D01*
G37*
%LPD*%
%LPC*%
G36*
X658008Y14919D02*
X658008Y14919D01*
X649709Y18357D01*
X643357Y24709D01*
X639919Y33008D01*
X639919Y41992D01*
X643357Y50291D01*
X649709Y56643D01*
X658008Y60081D01*
X666992Y60081D01*
X675291Y56643D01*
X681643Y50291D01*
X685081Y41992D01*
X685081Y33008D01*
X681643Y24709D01*
X675291Y18357D01*
X666992Y14919D01*
X658008Y14919D01*
G37*
%LPD*%
%LPC*%
G36*
X33008Y14919D02*
X33008Y14919D01*
X24709Y18357D01*
X18357Y24709D01*
X14919Y33008D01*
X14919Y41992D01*
X18357Y50291D01*
X24709Y56643D01*
X33008Y60081D01*
X41992Y60081D01*
X50291Y56643D01*
X56643Y50291D01*
X60081Y41992D01*
X60081Y33008D01*
X56643Y24709D01*
X50291Y18357D01*
X41992Y14919D01*
X33008Y14919D01*
G37*
%LPD*%
%LPC*%
G36*
X566242Y204677D02*
X566242Y204677D01*
X563918Y205640D01*
X562140Y207418D01*
X561177Y209742D01*
X561177Y212258D01*
X562140Y214582D01*
X563578Y216020D01*
X563618Y216084D01*
X563662Y216146D01*
X563664Y216158D01*
X563669Y216167D01*
X563673Y216204D01*
X563689Y216288D01*
X563689Y241578D01*
X572922Y250811D01*
X667985Y250811D01*
X668047Y250825D01*
X668110Y250832D01*
X668130Y250845D01*
X668154Y250850D01*
X668203Y250891D01*
X668256Y250925D01*
X668271Y250947D01*
X668287Y250960D01*
X668303Y250995D01*
X668336Y251045D01*
X669379Y253563D01*
X672737Y256921D01*
X677125Y258739D01*
X681875Y258739D01*
X686263Y256921D01*
X689621Y253563D01*
X691439Y249175D01*
X691439Y244425D01*
X689621Y240037D01*
X686263Y236679D01*
X681875Y234861D01*
X677125Y234861D01*
X672737Y236679D01*
X669379Y240037D01*
X668170Y242955D01*
X668133Y243006D01*
X668103Y243062D01*
X668083Y243076D01*
X668069Y243095D01*
X668013Y243125D01*
X667961Y243162D01*
X667935Y243167D01*
X667916Y243177D01*
X667879Y243178D01*
X667819Y243189D01*
X576236Y243189D01*
X576162Y243172D01*
X576087Y243159D01*
X576077Y243152D01*
X576067Y243150D01*
X576038Y243126D01*
X575967Y243078D01*
X571422Y238533D01*
X571382Y238468D01*
X571338Y238406D01*
X571336Y238394D01*
X571331Y238386D01*
X571327Y238349D01*
X571311Y238264D01*
X571311Y216288D01*
X571328Y216214D01*
X571341Y216140D01*
X571348Y216130D01*
X571350Y216120D01*
X571374Y216091D01*
X571422Y216020D01*
X572860Y214582D01*
X573823Y212258D01*
X573823Y209742D01*
X572860Y207418D01*
X571082Y205640D01*
X568758Y204677D01*
X566242Y204677D01*
G37*
%LPD*%
%LPC*%
G36*
X183742Y645177D02*
X183742Y645177D01*
X181418Y646140D01*
X179640Y647918D01*
X178677Y650242D01*
X178677Y652276D01*
X178665Y652328D01*
X178664Y652367D01*
X178654Y652385D01*
X178647Y652425D01*
X178640Y652435D01*
X178638Y652445D01*
X178614Y652474D01*
X178566Y652545D01*
X175689Y655422D01*
X175689Y669712D01*
X175672Y669785D01*
X175659Y669860D01*
X175652Y669870D01*
X175650Y669880D01*
X175626Y669909D01*
X175578Y669980D01*
X174480Y671078D01*
X174416Y671118D01*
X174354Y671162D01*
X174342Y671164D01*
X174333Y671169D01*
X174296Y671173D01*
X174212Y671189D01*
X125288Y671189D01*
X125214Y671172D01*
X125140Y671159D01*
X125130Y671152D01*
X125120Y671150D01*
X125091Y671126D01*
X125020Y671078D01*
X123582Y669640D01*
X121258Y668677D01*
X118742Y668677D01*
X116418Y669640D01*
X114640Y671418D01*
X113677Y673742D01*
X113677Y676258D01*
X114640Y678582D01*
X116418Y680360D01*
X118742Y681323D01*
X121258Y681323D01*
X123582Y680360D01*
X125020Y678922D01*
X125084Y678882D01*
X125146Y678838D01*
X125158Y678836D01*
X125167Y678831D01*
X125204Y678827D01*
X125288Y678811D01*
X174212Y678811D01*
X174286Y678828D01*
X174360Y678841D01*
X174370Y678848D01*
X174380Y678850D01*
X174409Y678874D01*
X174480Y678922D01*
X175918Y680360D01*
X178242Y681323D01*
X180758Y681323D01*
X183082Y680360D01*
X184860Y678582D01*
X185823Y676258D01*
X185823Y673742D01*
X184860Y671418D01*
X183422Y669980D01*
X183382Y669916D01*
X183338Y669854D01*
X183336Y669842D01*
X183331Y669833D01*
X183327Y669796D01*
X183311Y669712D01*
X183311Y658736D01*
X183328Y658662D01*
X183329Y658658D01*
X183330Y658630D01*
X183335Y658619D01*
X183341Y658587D01*
X183348Y658577D01*
X183350Y658567D01*
X183374Y658538D01*
X183402Y658497D01*
X183413Y658478D01*
X183417Y658474D01*
X183422Y658467D01*
X183955Y657934D01*
X184020Y657894D01*
X184082Y657850D01*
X184094Y657848D01*
X184102Y657843D01*
X184139Y657839D01*
X184224Y657823D01*
X186258Y657823D01*
X188582Y656860D01*
X190360Y655082D01*
X191323Y652758D01*
X191323Y650242D01*
X190360Y647918D01*
X188582Y646140D01*
X186258Y645177D01*
X183742Y645177D01*
G37*
%LPD*%
%LPC*%
G36*
X677125Y285661D02*
X677125Y285661D01*
X672737Y287479D01*
X669379Y290837D01*
X668253Y293555D01*
X668216Y293606D01*
X668186Y293662D01*
X668166Y293676D01*
X668152Y293695D01*
X668096Y293725D01*
X668044Y293762D01*
X668018Y293767D01*
X667999Y293777D01*
X667962Y293778D01*
X667902Y293789D01*
X653322Y293789D01*
X648045Y299066D01*
X647980Y299106D01*
X647918Y299150D01*
X647906Y299152D01*
X647898Y299157D01*
X647861Y299161D01*
X647776Y299177D01*
X645742Y299177D01*
X643418Y300140D01*
X641640Y301918D01*
X640677Y304242D01*
X640677Y306758D01*
X641640Y309082D01*
X643418Y310860D01*
X645742Y311823D01*
X648258Y311823D01*
X650582Y310860D01*
X652360Y309082D01*
X653323Y306758D01*
X653323Y304724D01*
X653340Y304650D01*
X653342Y304641D01*
X653343Y304617D01*
X653347Y304608D01*
X653353Y304575D01*
X653360Y304565D01*
X653362Y304555D01*
X653386Y304526D01*
X653416Y304482D01*
X653425Y304465D01*
X653430Y304462D01*
X653434Y304455D01*
X656367Y301522D01*
X656432Y301482D01*
X656494Y301438D01*
X656506Y301436D01*
X656514Y301431D01*
X656551Y301427D01*
X656636Y301411D01*
X667902Y301411D01*
X667964Y301425D01*
X668027Y301432D01*
X668047Y301445D01*
X668071Y301450D01*
X668120Y301491D01*
X668173Y301525D01*
X668188Y301547D01*
X668204Y301560D01*
X668220Y301595D01*
X668253Y301645D01*
X669379Y304363D01*
X672737Y307721D01*
X677125Y309539D01*
X681875Y309539D01*
X686263Y307721D01*
X689621Y304363D01*
X691439Y299975D01*
X691439Y295225D01*
X689621Y290837D01*
X686263Y287479D01*
X681875Y285661D01*
X677125Y285661D01*
G37*
%LPD*%
%LPC*%
G36*
X232742Y645177D02*
X232742Y645177D01*
X230418Y646140D01*
X228640Y647918D01*
X227677Y650242D01*
X227677Y652758D01*
X228640Y655082D01*
X228808Y655250D01*
X228848Y655314D01*
X228892Y655376D01*
X228894Y655388D01*
X228899Y655397D01*
X228903Y655434D01*
X228919Y655518D01*
X228919Y681482D01*
X228902Y681556D01*
X228889Y681630D01*
X228882Y681640D01*
X228880Y681650D01*
X228856Y681679D01*
X228808Y681750D01*
X228640Y681918D01*
X227677Y684242D01*
X227677Y686758D01*
X228640Y689082D01*
X230418Y690860D01*
X232742Y691823D01*
X235258Y691823D01*
X237582Y690860D01*
X239360Y689082D01*
X240323Y686758D01*
X240323Y684242D01*
X239360Y681918D01*
X239192Y681750D01*
X239152Y681686D01*
X239108Y681624D01*
X239106Y681612D01*
X239101Y681603D01*
X239097Y681566D01*
X239081Y681482D01*
X239081Y655518D01*
X239098Y655444D01*
X239111Y655370D01*
X239118Y655360D01*
X239120Y655350D01*
X239144Y655321D01*
X239192Y655250D01*
X239360Y655082D01*
X240323Y652758D01*
X240323Y650242D01*
X239360Y647918D01*
X237582Y646140D01*
X235258Y645177D01*
X232742Y645177D01*
G37*
%LPD*%
%LPC*%
G36*
X35625Y417261D02*
X35625Y417261D01*
X31237Y419079D01*
X27879Y422437D01*
X26061Y426825D01*
X26061Y431575D01*
X27879Y435963D01*
X31237Y439321D01*
X35625Y441139D01*
X40375Y441139D01*
X44763Y439321D01*
X48121Y435963D01*
X49939Y431575D01*
X49939Y426825D01*
X48121Y422437D01*
X44763Y419079D01*
X40375Y417261D01*
X35625Y417261D01*
G37*
%LPD*%
%LPC*%
G36*
X35625Y391861D02*
X35625Y391861D01*
X31237Y393679D01*
X27879Y397037D01*
X26061Y401425D01*
X26061Y406175D01*
X27879Y410563D01*
X31237Y413921D01*
X35625Y415739D01*
X40375Y415739D01*
X44763Y413921D01*
X48121Y410563D01*
X49939Y406175D01*
X49939Y401425D01*
X48121Y397037D01*
X44763Y393679D01*
X40375Y391861D01*
X35625Y391861D01*
G37*
%LPD*%
%LPC*%
G36*
X35625Y341061D02*
X35625Y341061D01*
X31237Y342879D01*
X27879Y346237D01*
X26061Y350625D01*
X26061Y355375D01*
X27879Y359763D01*
X31237Y363121D01*
X35625Y364939D01*
X40375Y364939D01*
X44763Y363121D01*
X48121Y359763D01*
X49939Y355375D01*
X49939Y350625D01*
X48121Y346237D01*
X44763Y342879D01*
X40375Y341061D01*
X35625Y341061D01*
G37*
%LPD*%
%LPC*%
G36*
X35625Y508861D02*
X35625Y508861D01*
X31237Y510679D01*
X27879Y514037D01*
X26061Y518425D01*
X26061Y523175D01*
X27879Y527563D01*
X31237Y530921D01*
X35625Y532739D01*
X40375Y532739D01*
X44763Y530921D01*
X48121Y527563D01*
X49939Y523175D01*
X49939Y518425D01*
X48121Y514037D01*
X44763Y510679D01*
X40375Y508861D01*
X35625Y508861D01*
G37*
%LPD*%
%LPC*%
G36*
X35625Y534261D02*
X35625Y534261D01*
X31237Y536079D01*
X27879Y539437D01*
X26061Y543825D01*
X26061Y548575D01*
X27879Y552963D01*
X31237Y556321D01*
X35625Y558139D01*
X40375Y558139D01*
X44763Y556321D01*
X48121Y552963D01*
X49939Y548575D01*
X49939Y543825D01*
X48121Y539437D01*
X44763Y536079D01*
X40375Y534261D01*
X35625Y534261D01*
G37*
%LPD*%
%LPC*%
G36*
X677125Y209461D02*
X677125Y209461D01*
X672737Y211279D01*
X669379Y214637D01*
X667561Y219025D01*
X667561Y223775D01*
X669379Y228163D01*
X672737Y231521D01*
X677125Y233339D01*
X681875Y233339D01*
X686263Y231521D01*
X689621Y228163D01*
X691439Y223775D01*
X691439Y219025D01*
X689621Y214637D01*
X686263Y211279D01*
X681875Y209461D01*
X677125Y209461D01*
G37*
%LPD*%
%LPC*%
G36*
X677625Y118361D02*
X677625Y118361D01*
X673237Y120179D01*
X669879Y123537D01*
X668061Y127925D01*
X668061Y132675D01*
X669879Y137063D01*
X673237Y140421D01*
X677625Y142239D01*
X682375Y142239D01*
X686763Y140421D01*
X690121Y137063D01*
X691939Y132675D01*
X691939Y127925D01*
X690121Y123537D01*
X686763Y120179D01*
X682375Y118361D01*
X677625Y118361D01*
G37*
%LPD*%
%LPC*%
G36*
X677625Y92961D02*
X677625Y92961D01*
X673237Y94779D01*
X669879Y98137D01*
X668061Y102525D01*
X668061Y107275D01*
X669879Y111663D01*
X673237Y115021D01*
X677625Y116839D01*
X682375Y116839D01*
X686763Y115021D01*
X690121Y111663D01*
X691939Y107275D01*
X691939Y102525D01*
X690121Y98137D01*
X686763Y94779D01*
X682375Y92961D01*
X677625Y92961D01*
G37*
%LPD*%
%LPC*%
G36*
X418742Y643677D02*
X418742Y643677D01*
X416418Y644640D01*
X414640Y646418D01*
X413677Y648742D01*
X413677Y651258D01*
X414640Y653582D01*
X416078Y655020D01*
X416118Y655084D01*
X416162Y655146D01*
X416164Y655158D01*
X416169Y655167D01*
X416173Y655204D01*
X416177Y655223D01*
X416182Y655236D01*
X416182Y655250D01*
X416189Y655288D01*
X416189Y680212D01*
X416172Y680286D01*
X416159Y680360D01*
X416152Y680370D01*
X416150Y680380D01*
X416126Y680409D01*
X416078Y680480D01*
X414640Y681918D01*
X413677Y684242D01*
X413677Y686758D01*
X414640Y689082D01*
X416418Y690860D01*
X418742Y691823D01*
X421258Y691823D01*
X423582Y690860D01*
X425360Y689082D01*
X426323Y686758D01*
X426323Y684242D01*
X425360Y681918D01*
X423922Y680480D01*
X423882Y680416D01*
X423838Y680354D01*
X423836Y680342D01*
X423831Y680333D01*
X423827Y680296D01*
X423811Y680212D01*
X423811Y655288D01*
X423823Y655235D01*
X423824Y655208D01*
X423832Y655194D01*
X423841Y655140D01*
X423848Y655130D01*
X423850Y655120D01*
X423874Y655091D01*
X423922Y655020D01*
X425360Y653582D01*
X426323Y651258D01*
X426323Y648742D01*
X425360Y646418D01*
X423582Y644640D01*
X421258Y643677D01*
X418742Y643677D01*
G37*
%LPD*%
%LPC*%
G36*
X463742Y648677D02*
X463742Y648677D01*
X461418Y649640D01*
X459640Y651418D01*
X458677Y653742D01*
X458677Y656258D01*
X459640Y658582D01*
X461078Y660020D01*
X461118Y660084D01*
X461162Y660146D01*
X461164Y660158D01*
X461169Y660167D01*
X461173Y660204D01*
X461189Y660288D01*
X461189Y669712D01*
X461172Y669785D01*
X461159Y669860D01*
X461152Y669870D01*
X461150Y669880D01*
X461126Y669909D01*
X461078Y669980D01*
X459640Y671418D01*
X458677Y673742D01*
X458677Y676258D01*
X459640Y678582D01*
X461418Y680360D01*
X463742Y681323D01*
X466258Y681323D01*
X468582Y680360D01*
X470360Y678582D01*
X471323Y676258D01*
X471323Y673742D01*
X470360Y671418D01*
X468922Y669980D01*
X468882Y669916D01*
X468838Y669854D01*
X468836Y669842D01*
X468831Y669833D01*
X468827Y669796D01*
X468811Y669712D01*
X468811Y660288D01*
X468828Y660214D01*
X468841Y660140D01*
X468848Y660130D01*
X468850Y660120D01*
X468874Y660091D01*
X468922Y660020D01*
X470360Y658582D01*
X471323Y656258D01*
X471323Y653742D01*
X470360Y651418D01*
X468582Y649640D01*
X466258Y648677D01*
X463742Y648677D01*
G37*
%LPD*%
%LPC*%
G36*
X680261Y196761D02*
X680261Y196761D01*
X680261Y207939D01*
X680440Y207939D01*
X682296Y207645D01*
X684083Y207064D01*
X685757Y206211D01*
X687278Y205106D01*
X688606Y203778D01*
X689711Y202257D01*
X690564Y200583D01*
X691145Y198796D01*
X691439Y196940D01*
X691439Y196761D01*
X680261Y196761D01*
G37*
%LPD*%
%LPC*%
G36*
X680761Y80261D02*
X680761Y80261D01*
X680761Y91439D01*
X680940Y91439D01*
X682796Y91145D01*
X684583Y90564D01*
X686257Y89711D01*
X687778Y88606D01*
X689106Y87278D01*
X690211Y85757D01*
X691064Y84083D01*
X691645Y82296D01*
X691939Y80440D01*
X691939Y80261D01*
X680761Y80261D01*
G37*
%LPD*%
%LPC*%
G36*
X38761Y597761D02*
X38761Y597761D01*
X38761Y608939D01*
X38940Y608939D01*
X40796Y608645D01*
X42583Y608064D01*
X44257Y607211D01*
X45778Y606106D01*
X47106Y604778D01*
X48211Y603257D01*
X49064Y601583D01*
X49645Y599796D01*
X49939Y597940D01*
X49939Y597761D01*
X38761Y597761D01*
G37*
%LPD*%
%LPC*%
G36*
X38761Y455361D02*
X38761Y455361D01*
X38761Y466539D01*
X38940Y466539D01*
X40796Y466245D01*
X42583Y465664D01*
X44257Y464811D01*
X45778Y463706D01*
X47106Y462378D01*
X48211Y460857D01*
X49064Y459183D01*
X49645Y457396D01*
X49939Y455540D01*
X49939Y455361D01*
X38761Y455361D01*
G37*
%LPD*%
%LPC*%
G36*
X38761Y379161D02*
X38761Y379161D01*
X38761Y390339D01*
X38940Y390339D01*
X40796Y390045D01*
X42583Y389464D01*
X44257Y388611D01*
X45778Y387506D01*
X47106Y386178D01*
X48211Y384657D01*
X49064Y382983D01*
X49645Y381196D01*
X49939Y379340D01*
X49939Y379161D01*
X38761Y379161D01*
G37*
%LPD*%
%LPC*%
G36*
X38761Y442661D02*
X38761Y442661D01*
X38761Y453839D01*
X49939Y453839D01*
X49939Y453660D01*
X49645Y451804D01*
X49064Y450017D01*
X48211Y448343D01*
X47106Y446822D01*
X45778Y445494D01*
X44257Y444389D01*
X42583Y443536D01*
X40796Y442955D01*
X38940Y442661D01*
X38761Y442661D01*
G37*
%LPD*%
%LPC*%
G36*
X26061Y379161D02*
X26061Y379161D01*
X26061Y379340D01*
X26355Y381196D01*
X26936Y382983D01*
X27789Y384657D01*
X28894Y386178D01*
X30222Y387506D01*
X31743Y388611D01*
X33417Y389464D01*
X35204Y390045D01*
X37060Y390339D01*
X37239Y390339D01*
X37239Y379161D01*
X26061Y379161D01*
G37*
%LPD*%
%LPC*%
G36*
X26061Y597761D02*
X26061Y597761D01*
X26061Y597940D01*
X26355Y599796D01*
X26936Y601583D01*
X27789Y603257D01*
X28894Y604778D01*
X30222Y606106D01*
X31743Y607211D01*
X33417Y608064D01*
X35204Y608645D01*
X37060Y608939D01*
X37239Y608939D01*
X37239Y597761D01*
X26061Y597761D01*
G37*
%LPD*%
%LPC*%
G36*
X680761Y67561D02*
X680761Y67561D01*
X680761Y78739D01*
X691939Y78739D01*
X691939Y78560D01*
X691645Y76704D01*
X691064Y74917D01*
X690211Y73243D01*
X689106Y71722D01*
X687778Y70394D01*
X686257Y69289D01*
X684583Y68436D01*
X682796Y67855D01*
X680940Y67561D01*
X680761Y67561D01*
G37*
%LPD*%
%LPC*%
G36*
X668061Y80261D02*
X668061Y80261D01*
X668061Y80440D01*
X668355Y82296D01*
X668936Y84083D01*
X669789Y85757D01*
X670894Y87278D01*
X672222Y88606D01*
X673743Y89711D01*
X675417Y90564D01*
X677204Y91145D01*
X679060Y91439D01*
X679239Y91439D01*
X679239Y80261D01*
X668061Y80261D01*
G37*
%LPD*%
%LPC*%
G36*
X680261Y184061D02*
X680261Y184061D01*
X680261Y195239D01*
X691439Y195239D01*
X691439Y195060D01*
X691145Y193204D01*
X690564Y191417D01*
X689711Y189743D01*
X688606Y188222D01*
X687278Y186894D01*
X685757Y185789D01*
X684083Y184936D01*
X682296Y184355D01*
X680440Y184061D01*
X680261Y184061D01*
G37*
%LPD*%
%LPC*%
G36*
X667561Y196761D02*
X667561Y196761D01*
X667561Y196940D01*
X667855Y198796D01*
X668436Y200583D01*
X669289Y202257D01*
X670394Y203778D01*
X671722Y205106D01*
X673243Y206211D01*
X674917Y207064D01*
X676704Y207645D01*
X678560Y207939D01*
X678739Y207939D01*
X678739Y196761D01*
X667561Y196761D01*
G37*
%LPD*%
%LPC*%
G36*
X38761Y585061D02*
X38761Y585061D01*
X38761Y596239D01*
X49939Y596239D01*
X49939Y596060D01*
X49645Y594204D01*
X49064Y592417D01*
X48211Y590743D01*
X47106Y589222D01*
X45778Y587894D01*
X44257Y586789D01*
X42583Y585936D01*
X40796Y585355D01*
X38940Y585061D01*
X38761Y585061D01*
G37*
%LPD*%
%LPC*%
G36*
X38761Y366461D02*
X38761Y366461D01*
X38761Y377639D01*
X49939Y377639D01*
X49939Y377460D01*
X49645Y375604D01*
X49064Y373817D01*
X48211Y372143D01*
X47106Y370622D01*
X45778Y369294D01*
X44257Y368189D01*
X42583Y367336D01*
X40796Y366755D01*
X38940Y366461D01*
X38761Y366461D01*
G37*
%LPD*%
%LPC*%
G36*
X26061Y455361D02*
X26061Y455361D01*
X26061Y455540D01*
X26355Y457396D01*
X26936Y459183D01*
X27789Y460857D01*
X28894Y462378D01*
X30222Y463706D01*
X31743Y464811D01*
X33417Y465664D01*
X35204Y466245D01*
X37060Y466539D01*
X37239Y466539D01*
X37239Y455361D01*
X26061Y455361D01*
G37*
%LPD*%
%LPC*%
G36*
X37060Y442661D02*
X37060Y442661D01*
X35204Y442955D01*
X33417Y443536D01*
X31743Y444389D01*
X30222Y445494D01*
X28894Y446822D01*
X27789Y448343D01*
X26936Y450017D01*
X26355Y451804D01*
X26061Y453660D01*
X26061Y453839D01*
X37239Y453839D01*
X37239Y442661D01*
X37060Y442661D01*
G37*
%LPD*%
%LPC*%
G36*
X678560Y184061D02*
X678560Y184061D01*
X676704Y184355D01*
X674917Y184936D01*
X673243Y185789D01*
X671722Y186894D01*
X670394Y188222D01*
X669289Y189743D01*
X668436Y191417D01*
X667855Y193204D01*
X667561Y195060D01*
X667561Y195239D01*
X678739Y195239D01*
X678739Y184061D01*
X678560Y184061D01*
G37*
%LPD*%
%LPC*%
G36*
X37060Y585061D02*
X37060Y585061D01*
X35204Y585355D01*
X33417Y585936D01*
X31743Y586789D01*
X30222Y587894D01*
X28894Y589222D01*
X27789Y590743D01*
X26936Y592417D01*
X26355Y594204D01*
X26061Y596060D01*
X26061Y596239D01*
X37239Y596239D01*
X37239Y585061D01*
X37060Y585061D01*
G37*
%LPD*%
%LPC*%
G36*
X679060Y67561D02*
X679060Y67561D01*
X677204Y67855D01*
X675417Y68436D01*
X673743Y69289D01*
X672222Y70394D01*
X670894Y71722D01*
X669789Y73243D01*
X668936Y74917D01*
X668355Y76704D01*
X668061Y78560D01*
X668061Y78739D01*
X679239Y78739D01*
X679239Y67561D01*
X679060Y67561D01*
G37*
%LPD*%
%LPC*%
G36*
X37060Y366461D02*
X37060Y366461D01*
X35204Y366755D01*
X33417Y367336D01*
X31743Y368189D01*
X30222Y369294D01*
X28894Y370622D01*
X27789Y372143D01*
X26936Y373817D01*
X26355Y375604D01*
X26061Y377460D01*
X26061Y377639D01*
X37239Y377639D01*
X37239Y366461D01*
X37060Y366461D01*
G37*
%LPD*%
%LPC*%
G36*
X679499Y195999D02*
X679499Y195999D01*
X679499Y196001D01*
X679501Y196001D01*
X679501Y195999D01*
X679499Y195999D01*
G37*
%LPD*%
%LPC*%
G36*
X37999Y596999D02*
X37999Y596999D01*
X37999Y597001D01*
X38001Y597001D01*
X38001Y596999D01*
X37999Y596999D01*
G37*
%LPD*%
%LPC*%
G36*
X37999Y378399D02*
X37999Y378399D01*
X37999Y378401D01*
X38001Y378401D01*
X38001Y378399D01*
X37999Y378399D01*
G37*
%LPD*%
%LPC*%
G36*
X679999Y79499D02*
X679999Y79499D01*
X679999Y79501D01*
X680001Y79501D01*
X680001Y79499D01*
X679999Y79499D01*
G37*
%LPD*%
%LPC*%
G36*
X37999Y454599D02*
X37999Y454599D01*
X37999Y454601D01*
X38001Y454601D01*
X38001Y454599D01*
X37999Y454599D01*
G37*
%LPD*%
D10*
X38000Y597000D03*
X38000Y571600D03*
X38000Y546200D03*
X38000Y520800D03*
X38500Y487500D03*
X679500Y323000D03*
X679500Y297600D03*
X679500Y272200D03*
X679500Y246800D03*
X679500Y221400D03*
X679500Y196000D03*
X38000Y353000D03*
X38000Y378400D03*
X38000Y403800D03*
X38000Y429200D03*
X38000Y454600D03*
X680000Y79500D03*
X680000Y104900D03*
X680000Y130300D03*
D11*
X590000Y465000D03*
X590000Y435000D03*
X620000Y435000D03*
X620000Y465000D03*
X651500Y504000D03*
X125000Y666500D03*
X349000Y647000D03*
X139000Y634000D03*
X38000Y617000D03*
X74000Y644000D03*
X288000Y644000D03*
X476000Y657500D03*
X577000Y649000D03*
X555000Y211500D03*
X535500Y287500D03*
X100000Y40000D03*
X270000Y60000D03*
X430000Y55000D03*
X547000Y55000D03*
X525000Y160500D03*
X680000Y159500D03*
X600500Y160000D03*
X605000Y355000D03*
X525000Y355000D03*
X685000Y390000D03*
X525000Y390000D03*
X525000Y510000D03*
X685000Y510000D03*
X439500Y625000D03*
X685000Y355000D03*
X605000Y385000D03*
X185000Y641000D03*
X340000Y612000D03*
X412000Y657500D03*
X518000Y610500D03*
X552000Y610000D03*
X559500Y556000D03*
X549500Y426500D03*
X640000Y169500D03*
X62000Y334000D03*
X516500Y685500D03*
D12*
X516500Y621500D01*
X515000Y620000D01*
D11*
X510000Y620000D03*
D12*
X515000Y620000D01*
D11*
X420000Y685500D03*
X420000Y650000D03*
X234000Y651500D03*
D13*
X234000Y685500D01*
D11*
X234000Y685500D03*
X550000Y437500D03*
D12*
X543189Y444311D02*
X543189Y534189D01*
X543189Y444311D02*
X550000Y437500D01*
X543189Y534189D02*
X555000Y546000D01*
X559500Y546000D01*
D11*
X559500Y546000D03*
D12*
X420000Y650000D02*
X420000Y685500D01*
D13*
X519500Y283596D02*
X519500Y283250D01*
X519500Y283596D02*
X519500Y310000D01*
X519500Y283250D02*
X519500Y190000D01*
X519500Y310000D02*
X533000Y323000D01*
X679500Y323000D01*
D11*
X639500Y180000D03*
D13*
X529654Y180000D01*
X519500Y190000D01*
X38000Y571600D02*
X37900Y571500D01*
X21500Y571500D01*
X15000Y565000D01*
X15000Y340000D01*
X25000Y330000D01*
X53500Y330000D01*
D11*
X61500Y322000D03*
D13*
X53500Y330000D01*
D11*
X527000Y675000D03*
X584500Y657500D03*
D12*
X584500Y665000D02*
X574361Y675139D01*
X527139Y675139D01*
X527000Y675000D01*
D11*
X527000Y600000D03*
D12*
X527000Y675000D01*
D11*
X296000Y638000D03*
D12*
X296000Y675000D01*
D11*
X465000Y655000D03*
X465000Y675000D03*
D12*
X465000Y655000D01*
D11*
X120000Y675000D03*
D12*
X179500Y675000D01*
D11*
X179500Y675000D03*
X296000Y675000D03*
X185000Y651500D03*
D12*
X179500Y657000D01*
X179500Y675000D01*
X584500Y665000D02*
X584500Y657500D01*
D11*
X555000Y600000D03*
D12*
X527000Y600000D01*
D11*
X340000Y639000D03*
X268000Y620000D03*
D12*
X324000Y639000D02*
X340000Y639000D01*
X280000Y641000D02*
X273500Y641000D01*
X268000Y635500D02*
X268000Y620000D01*
X313924Y628924D02*
X324000Y639000D01*
X313924Y628924D02*
X289008Y628924D01*
X285000Y632932D01*
X285000Y636000D01*
X280000Y641000D01*
X273500Y641000D02*
X268000Y635500D01*
D11*
X276500Y631500D03*
X345000Y620000D03*
D12*
X282500Y620000D01*
X276500Y626000D01*
X276500Y631500D01*
D11*
X310500Y612000D03*
D12*
X63000Y603000D02*
X63000Y498000D01*
X52500Y487500D01*
X38500Y487500D01*
X72000Y612000D02*
X310500Y612000D01*
X72000Y612000D02*
X63000Y603000D01*
D11*
X527500Y280000D03*
X527500Y255000D03*
D12*
X527500Y280000D01*
D11*
X542000Y226000D03*
D12*
X542000Y249500D01*
X565100Y272600D01*
X679100Y272600D02*
X679500Y272200D01*
X679100Y272600D02*
X565100Y272600D01*
D11*
X567500Y211000D03*
D12*
X567500Y240000D02*
X574500Y247000D01*
X679300Y247000D01*
X679500Y246800D01*
X567500Y240000D02*
X567500Y211000D01*
D11*
X647000Y305500D03*
D12*
X654900Y297600D01*
X679500Y297600D01*
M02*
