G04 EAGLE Gerber RS-274X export*
G75*
%MOMM*%
%FSLAX34Y34*%
%LPD*%
%IN*%
%IPPOS*%
%AMOC8*
5,1,8,0,0,1.08239X$1,22.5*%
G01*
%ADD10C,0.254000*%


D10*
X0Y0D02*
X700000Y0D01*
X700000Y700000D01*
X0Y700000D01*
X0Y0D01*
X75000Y75000D02*
X510000Y75000D01*
X510000Y602000D01*
X75000Y602000D01*
X75000Y75000D01*
X560000Y365000D02*
X650000Y365000D01*
X650000Y375000D01*
X560000Y375000D01*
X560000Y365000D01*
X560000Y525000D02*
X650000Y525000D01*
X650000Y535000D01*
X560000Y535000D01*
X560000Y525000D01*
X680000Y405000D02*
X690000Y405000D01*
X690000Y495000D01*
X680000Y495000D01*
X680000Y405000D01*
X520000Y405000D02*
X530000Y405000D01*
X530000Y495000D01*
X520000Y495000D01*
X520000Y405000D01*
X55000Y661927D02*
X54925Y660784D01*
X54776Y659648D01*
X54552Y658524D01*
X54255Y657417D01*
X53887Y656332D01*
X53449Y655274D01*
X52942Y654246D01*
X52369Y653254D01*
X51732Y652301D01*
X51035Y651392D01*
X50279Y650531D01*
X49469Y649721D01*
X48608Y648965D01*
X47699Y648268D01*
X46746Y647631D01*
X45754Y647058D01*
X44726Y646551D01*
X43668Y646113D01*
X42583Y645745D01*
X41476Y645448D01*
X40352Y645225D01*
X39216Y645075D01*
X38073Y645000D01*
X36927Y645000D01*
X35784Y645075D01*
X34648Y645225D01*
X33524Y645448D01*
X32417Y645745D01*
X31332Y646113D01*
X30274Y646551D01*
X29246Y647058D01*
X28254Y647631D01*
X27301Y648268D01*
X26392Y648965D01*
X25531Y649721D01*
X24721Y650531D01*
X23965Y651392D01*
X23268Y652301D01*
X22631Y653254D01*
X22058Y654246D01*
X21551Y655274D01*
X21113Y656332D01*
X20745Y657417D01*
X20448Y658524D01*
X20225Y659648D01*
X20075Y660784D01*
X20000Y661927D01*
X20000Y663073D01*
X20075Y664216D01*
X20225Y665352D01*
X20448Y666476D01*
X20745Y667583D01*
X21113Y668668D01*
X21551Y669726D01*
X22058Y670754D01*
X22631Y671746D01*
X23268Y672699D01*
X23965Y673608D01*
X24721Y674469D01*
X25531Y675279D01*
X26392Y676035D01*
X27301Y676732D01*
X28254Y677369D01*
X29246Y677942D01*
X30274Y678449D01*
X31332Y678887D01*
X32417Y679255D01*
X33524Y679552D01*
X34648Y679776D01*
X35784Y679925D01*
X36927Y680000D01*
X38073Y680000D01*
X39216Y679925D01*
X40352Y679776D01*
X41476Y679552D01*
X42583Y679255D01*
X43668Y678887D01*
X44726Y678449D01*
X45754Y677942D01*
X46746Y677369D01*
X47699Y676732D01*
X48608Y676035D01*
X49469Y675279D01*
X50279Y674469D01*
X51035Y673608D01*
X51732Y672699D01*
X52369Y671746D01*
X52942Y670754D01*
X53449Y669726D01*
X53887Y668668D01*
X54255Y667583D01*
X54552Y666476D01*
X54776Y665352D01*
X54925Y664216D01*
X55000Y663073D01*
X55000Y661927D01*
X680000Y661927D02*
X679925Y660784D01*
X679776Y659648D01*
X679552Y658524D01*
X679255Y657417D01*
X678887Y656332D01*
X678449Y655274D01*
X677942Y654246D01*
X677369Y653254D01*
X676732Y652301D01*
X676035Y651392D01*
X675279Y650531D01*
X674469Y649721D01*
X673608Y648965D01*
X672699Y648268D01*
X671746Y647631D01*
X670754Y647058D01*
X669726Y646551D01*
X668668Y646113D01*
X667583Y645745D01*
X666476Y645448D01*
X665352Y645225D01*
X664216Y645075D01*
X663073Y645000D01*
X661927Y645000D01*
X660784Y645075D01*
X659648Y645225D01*
X658524Y645448D01*
X657417Y645745D01*
X656332Y646113D01*
X655274Y646551D01*
X654246Y647058D01*
X653254Y647631D01*
X652301Y648268D01*
X651392Y648965D01*
X650531Y649721D01*
X649721Y650531D01*
X648965Y651392D01*
X648268Y652301D01*
X647631Y653254D01*
X647058Y654246D01*
X646551Y655274D01*
X646113Y656332D01*
X645745Y657417D01*
X645448Y658524D01*
X645225Y659648D01*
X645075Y660784D01*
X645000Y661927D01*
X645000Y663073D01*
X645075Y664216D01*
X645225Y665352D01*
X645448Y666476D01*
X645745Y667583D01*
X646113Y668668D01*
X646551Y669726D01*
X647058Y670754D01*
X647631Y671746D01*
X648268Y672699D01*
X648965Y673608D01*
X649721Y674469D01*
X650531Y675279D01*
X651392Y676035D01*
X652301Y676732D01*
X653254Y677369D01*
X654246Y677942D01*
X655274Y678449D01*
X656332Y678887D01*
X657417Y679255D01*
X658524Y679552D01*
X659648Y679776D01*
X660784Y679925D01*
X661927Y680000D01*
X663073Y680000D01*
X664216Y679925D01*
X665352Y679776D01*
X666476Y679552D01*
X667583Y679255D01*
X668668Y678887D01*
X669726Y678449D01*
X670754Y677942D01*
X671746Y677369D01*
X672699Y676732D01*
X673608Y676035D01*
X674469Y675279D01*
X675279Y674469D01*
X676035Y673608D01*
X676732Y672699D01*
X677369Y671746D01*
X677942Y670754D01*
X678449Y669726D01*
X678887Y668668D01*
X679255Y667583D01*
X679552Y666476D01*
X679776Y665352D01*
X679925Y664216D01*
X680000Y663073D01*
X680000Y661927D01*
X55000Y36927D02*
X54925Y35784D01*
X54776Y34648D01*
X54552Y33524D01*
X54255Y32417D01*
X53887Y31332D01*
X53449Y30274D01*
X52942Y29246D01*
X52369Y28254D01*
X51732Y27301D01*
X51035Y26392D01*
X50279Y25531D01*
X49469Y24721D01*
X48608Y23965D01*
X47699Y23268D01*
X46746Y22631D01*
X45754Y22058D01*
X44726Y21551D01*
X43668Y21113D01*
X42583Y20745D01*
X41476Y20448D01*
X40352Y20225D01*
X39216Y20075D01*
X38073Y20000D01*
X36927Y20000D01*
X35784Y20075D01*
X34648Y20225D01*
X33524Y20448D01*
X32417Y20745D01*
X31332Y21113D01*
X30274Y21551D01*
X29246Y22058D01*
X28254Y22631D01*
X27301Y23268D01*
X26392Y23965D01*
X25531Y24721D01*
X24721Y25531D01*
X23965Y26392D01*
X23268Y27301D01*
X22631Y28254D01*
X22058Y29246D01*
X21551Y30274D01*
X21113Y31332D01*
X20745Y32417D01*
X20448Y33524D01*
X20225Y34648D01*
X20075Y35784D01*
X20000Y36927D01*
X20000Y38073D01*
X20075Y39216D01*
X20225Y40352D01*
X20448Y41476D01*
X20745Y42583D01*
X21113Y43668D01*
X21551Y44726D01*
X22058Y45754D01*
X22631Y46746D01*
X23268Y47699D01*
X23965Y48608D01*
X24721Y49469D01*
X25531Y50279D01*
X26392Y51035D01*
X27301Y51732D01*
X28254Y52369D01*
X29246Y52942D01*
X30274Y53449D01*
X31332Y53887D01*
X32417Y54255D01*
X33524Y54552D01*
X34648Y54776D01*
X35784Y54925D01*
X36927Y55000D01*
X38073Y55000D01*
X39216Y54925D01*
X40352Y54776D01*
X41476Y54552D01*
X42583Y54255D01*
X43668Y53887D01*
X44726Y53449D01*
X45754Y52942D01*
X46746Y52369D01*
X47699Y51732D01*
X48608Y51035D01*
X49469Y50279D01*
X50279Y49469D01*
X51035Y48608D01*
X51732Y47699D01*
X52369Y46746D01*
X52942Y45754D01*
X53449Y44726D01*
X53887Y43668D01*
X54255Y42583D01*
X54552Y41476D01*
X54776Y40352D01*
X54925Y39216D01*
X55000Y38073D01*
X55000Y36927D01*
X680000Y36927D02*
X679925Y35784D01*
X679776Y34648D01*
X679552Y33524D01*
X679255Y32417D01*
X678887Y31332D01*
X678449Y30274D01*
X677942Y29246D01*
X677369Y28254D01*
X676732Y27301D01*
X676035Y26392D01*
X675279Y25531D01*
X674469Y24721D01*
X673608Y23965D01*
X672699Y23268D01*
X671746Y22631D01*
X670754Y22058D01*
X669726Y21551D01*
X668668Y21113D01*
X667583Y20745D01*
X666476Y20448D01*
X665352Y20225D01*
X664216Y20075D01*
X663073Y20000D01*
X661927Y20000D01*
X660784Y20075D01*
X659648Y20225D01*
X658524Y20448D01*
X657417Y20745D01*
X656332Y21113D01*
X655274Y21551D01*
X654246Y22058D01*
X653254Y22631D01*
X652301Y23268D01*
X651392Y23965D01*
X650531Y24721D01*
X649721Y25531D01*
X648965Y26392D01*
X648268Y27301D01*
X647631Y28254D01*
X647058Y29246D01*
X646551Y30274D01*
X646113Y31332D01*
X645745Y32417D01*
X645448Y33524D01*
X645225Y34648D01*
X645075Y35784D01*
X645000Y36927D01*
X645000Y38073D01*
X645075Y39216D01*
X645225Y40352D01*
X645448Y41476D01*
X645745Y42583D01*
X646113Y43668D01*
X646551Y44726D01*
X647058Y45754D01*
X647631Y46746D01*
X648268Y47699D01*
X648965Y48608D01*
X649721Y49469D01*
X650531Y50279D01*
X651392Y51035D01*
X652301Y51732D01*
X653254Y52369D01*
X654246Y52942D01*
X655274Y53449D01*
X656332Y53887D01*
X657417Y54255D01*
X658524Y54552D01*
X659648Y54776D01*
X660784Y54925D01*
X661927Y55000D01*
X663073Y55000D01*
X664216Y54925D01*
X665352Y54776D01*
X666476Y54552D01*
X667583Y54255D01*
X668668Y53887D01*
X669726Y53449D01*
X670754Y52942D01*
X671746Y52369D01*
X672699Y51732D01*
X673608Y51035D01*
X674469Y50279D01*
X675279Y49469D01*
X676035Y48608D01*
X676732Y47699D01*
X677369Y46746D01*
X677942Y45754D01*
X678449Y44726D01*
X678887Y43668D01*
X679255Y42583D01*
X679552Y41476D01*
X679776Y40352D01*
X679925Y39216D01*
X680000Y38073D01*
X680000Y36927D01*
M02*
