G04 EAGLE Gerber RS-274X export*
G75*
%MOMM*%
%FSLAX34Y34*%
%LPD*%
%INSoldermask Top*%
%IPPOS*%
%AMOC8*
5,1,8,0,0,1.08239X$1,22.5*%
G01*
%ADD10C,3.703200*%
%ADD11R,1.303200X1.203200*%
%ADD12C,2.082800*%
%ADD13R,0.803200X1.753200*%
%ADD14R,1.403200X2.003200*%
%ADD15R,1.203200X1.303200*%
%ADD16R,1.003200X1.003200*%
%ADD17R,1.473200X0.838200*%
%ADD18R,0.753200X0.603200*%
%ADD19R,1.003200X1.703200*%
%ADD20R,1.703200X1.003200*%
%ADD21R,5.003200X5.003200*%
%ADD22R,0.503200X0.528200*%
%ADD23R,0.528200X0.503200*%
%ADD24R,0.803200X2.203200*%
%ADD25R,2.203200X0.803200*%
%ADD26R,1.403200X0.903200*%
%ADD27C,1.219200*%
%ADD28R,0.903200X0.903200*%
%ADD29R,1.053200X1.103200*%
%ADD30R,0.703200X0.503200*%
%ADD31R,0.660400X1.282700*%
%ADD32C,0.959600*%

G36*
X443071Y615967D02*
X443071Y615967D01*
X443085Y615965D01*
X446285Y619165D01*
X446287Y619180D01*
X446297Y619188D01*
X446292Y619195D01*
X446299Y619200D01*
X446299Y634000D01*
X446263Y634047D01*
X446256Y634042D01*
X446250Y634049D01*
X432750Y634049D01*
X432703Y634013D01*
X432708Y634006D01*
X432701Y634000D01*
X432701Y616000D01*
X432737Y615953D01*
X432744Y615958D01*
X432750Y615951D01*
X443050Y615951D01*
X443071Y615967D01*
G37*
D10*
X37500Y662500D03*
X662500Y662500D03*
X37500Y37500D03*
X662500Y37500D03*
D11*
X264600Y651500D03*
X247600Y651500D03*
X200900Y651600D03*
X217900Y651600D03*
D12*
X38000Y597000D03*
X38000Y571600D03*
X38000Y546200D03*
X38000Y520800D03*
D13*
X595000Y670740D03*
X585000Y670740D03*
X605000Y670740D03*
X575000Y670740D03*
D14*
X562000Y645258D03*
X618000Y645258D03*
D13*
X105000Y645760D03*
X115000Y645760D03*
X95000Y645760D03*
X125000Y645760D03*
D14*
X138000Y671242D03*
X82000Y671242D03*
D15*
X638000Y619000D03*
X638000Y636000D03*
D16*
X667000Y619000D03*
X652000Y619000D03*
D17*
X683000Y609936D03*
X683000Y618064D03*
D18*
X451000Y617000D03*
X451000Y625000D03*
X451000Y633000D03*
X428000Y633000D03*
X428000Y625000D03*
X428000Y617000D03*
D19*
X580000Y410000D03*
X592500Y410000D03*
X605000Y410000D03*
X617500Y410000D03*
X630000Y410000D03*
D20*
X645000Y425000D03*
X645000Y437500D03*
X645000Y450000D03*
X645000Y462500D03*
X645000Y475000D03*
D19*
X630000Y490000D03*
X617500Y490000D03*
X605000Y490000D03*
X592500Y490000D03*
X580000Y490000D03*
D20*
X565000Y475000D03*
X565000Y462500D03*
X565000Y450000D03*
X565000Y437500D03*
X565000Y425000D03*
D21*
X605000Y450000D03*
D22*
X327500Y632500D03*
X322500Y632500D03*
D23*
X317250Y630000D03*
X317250Y625000D03*
X317250Y620000D03*
D22*
X322500Y617500D03*
X327500Y617500D03*
D23*
X332750Y620000D03*
X332750Y625000D03*
X332750Y630000D03*
D11*
X251500Y635500D03*
X234500Y635500D03*
X234500Y620000D03*
X251500Y620000D03*
X358000Y620000D03*
X375000Y620000D03*
X358000Y635000D03*
X375000Y635000D03*
X431500Y650000D03*
X448500Y650000D03*
X498500Y620000D03*
X481500Y620000D03*
X481500Y635000D03*
X498500Y635000D03*
X594500Y545500D03*
X611500Y545500D03*
X669000Y530000D03*
X686000Y530000D03*
D15*
X574500Y546000D03*
X574500Y563000D03*
D12*
X38500Y487500D03*
D24*
X580000Y280000D03*
X567500Y280000D03*
X555000Y280000D03*
D25*
X532500Y267700D03*
X532500Y242300D03*
D24*
X555000Y230000D03*
X567500Y230000D03*
X580000Y230000D03*
D25*
X602500Y242300D03*
X602500Y267700D03*
D15*
X527500Y306500D03*
X527500Y323500D03*
X542500Y306500D03*
X542500Y323500D03*
X557500Y306500D03*
X557500Y323500D03*
D12*
X679500Y323000D03*
X679500Y297600D03*
X679500Y272200D03*
X679500Y246800D03*
X679500Y221400D03*
X679500Y196000D03*
D26*
X609499Y324500D03*
X609499Y315000D03*
X609499Y305500D03*
X635501Y305500D03*
X635501Y324500D03*
D15*
X622500Y271500D03*
X622500Y288500D03*
X658500Y325000D03*
X658500Y308000D03*
X577500Y323500D03*
X577500Y306500D03*
X592500Y323500D03*
X592500Y306500D03*
D12*
X38000Y353000D03*
X38000Y378400D03*
X38000Y403800D03*
X38000Y429200D03*
X38000Y454600D03*
D11*
X562000Y195000D03*
X579000Y195000D03*
X596000Y195000D03*
X613000Y195000D03*
X544500Y195000D03*
X527500Y195000D03*
D17*
X600000Y211436D03*
X600000Y219564D03*
X627500Y231436D03*
X627500Y239564D03*
X528000Y211436D03*
X528000Y219564D03*
D27*
X580000Y211000D03*
X627500Y255000D03*
X542000Y210500D03*
X657500Y260000D03*
D15*
X629500Y196500D03*
X629500Y213500D03*
X644500Y196500D03*
X644500Y213500D03*
D28*
X561000Y35500D03*
X561000Y24500D03*
X579000Y24500D03*
X579000Y35500D03*
X521000Y35500D03*
X521000Y24500D03*
X539000Y24500D03*
X539000Y35500D03*
X481000Y35500D03*
X481000Y24500D03*
X499000Y24500D03*
X499000Y35500D03*
X441000Y35500D03*
X441000Y24500D03*
X459000Y24500D03*
X459000Y35500D03*
X401000Y35500D03*
X401000Y24500D03*
X419000Y24500D03*
X419000Y35500D03*
X361000Y35500D03*
X361000Y24500D03*
X379000Y24500D03*
X379000Y35500D03*
X321000Y35500D03*
X321000Y24500D03*
X339000Y24500D03*
X339000Y35500D03*
X281000Y35500D03*
X281000Y24500D03*
X299000Y24500D03*
X299000Y35500D03*
X121000Y35500D03*
X121000Y24500D03*
X139000Y24500D03*
X139000Y35500D03*
X161000Y35500D03*
X161000Y24500D03*
X179000Y24500D03*
X179000Y35500D03*
X201000Y35500D03*
X201000Y24500D03*
X219000Y24500D03*
X219000Y35500D03*
X241000Y35500D03*
X241000Y24500D03*
X259000Y24500D03*
X259000Y35500D03*
D29*
X135800Y55000D03*
X124200Y55000D03*
D12*
X680000Y79500D03*
X680000Y104900D03*
X680000Y130300D03*
D11*
X591500Y25000D03*
X608500Y25000D03*
D30*
X563000Y599000D03*
X563000Y591000D03*
X577000Y591000D03*
X577000Y599000D03*
D11*
X595500Y591000D03*
X612500Y591000D03*
D29*
X176300Y55000D03*
X164700Y55000D03*
X215800Y55000D03*
X204200Y55000D03*
X255800Y55000D03*
X244200Y55000D03*
X295300Y55000D03*
X283700Y55000D03*
X335800Y55000D03*
X324200Y55000D03*
X375800Y55000D03*
X364200Y55000D03*
X415300Y55000D03*
X403700Y55000D03*
X455800Y55000D03*
X444200Y55000D03*
X495800Y55000D03*
X484200Y55000D03*
X535300Y55000D03*
X523700Y55000D03*
X574800Y55000D03*
X563200Y55000D03*
D31*
X30500Y287110D03*
X40000Y287110D03*
X49500Y287110D03*
X49500Y312891D03*
X40000Y312891D03*
X30500Y312891D03*
D29*
X34200Y325000D03*
X45800Y325000D03*
D15*
X19500Y304000D03*
X19500Y287000D03*
X61500Y306500D03*
X61500Y289500D03*
X640000Y271500D03*
X640000Y288500D03*
D27*
X610000Y295000D03*
D32*
X590000Y465000D03*
X590000Y435000D03*
X620000Y435000D03*
X620000Y465000D03*
X651500Y504000D03*
X125000Y662500D03*
X358000Y654000D03*
X139000Y634000D03*
X38000Y617000D03*
X74000Y644000D03*
X284000Y652500D03*
X488000Y654000D03*
X576500Y629500D03*
X555000Y211500D03*
X540000Y286500D03*
X100000Y40000D03*
X270000Y60000D03*
X430000Y55000D03*
X547000Y55000D03*
X525000Y160500D03*
X680000Y159500D03*
X600500Y160000D03*
X605000Y355000D03*
X525000Y355000D03*
X685000Y390000D03*
X525000Y390000D03*
X525000Y510000D03*
X685000Y510000D03*
X439500Y625000D03*
X685000Y355000D03*
X605000Y385000D03*
X516500Y685500D03*
X510000Y620000D03*
X420000Y685500D03*
X420000Y650000D03*
X234000Y651500D03*
X234000Y685500D03*
X550000Y437500D03*
X559500Y546000D03*
X639500Y180000D03*
X61500Y322000D03*
X527000Y675000D03*
X584500Y657500D03*
X527000Y600000D03*
X296000Y638000D03*
X465000Y655000D03*
X465000Y675000D03*
X120000Y675000D03*
X179500Y675000D03*
X296000Y675000D03*
X185000Y651500D03*
X555000Y600000D03*
X340000Y639000D03*
X268000Y620000D03*
X276500Y631500D03*
X345000Y620000D03*
X310500Y612000D03*
X527500Y280000D03*
X527500Y255000D03*
X542000Y226000D03*
X567500Y211000D03*
X647000Y305500D03*
M02*
