G04 EAGLE Gerber RS-274X export*
G75*
%MOMM*%
%FSLAX34Y34*%
%LPD*%
%INSolderpaste Top*%
%IPPOS*%
%AMOC8*
5,1,8,0,0,1.08239X$1,22.5*%
G01*
%ADD10R,1.100000X1.000000*%
%ADD11R,0.600000X1.550000*%
%ADD12R,1.200000X1.800000*%
%ADD13R,1.000000X1.100000*%
%ADD14R,0.800000X0.800000*%
%ADD15R,2.235200X2.489200*%
%ADD16R,0.550000X0.400000*%
%ADD17R,0.800000X1.500000*%
%ADD18R,1.500000X0.800000*%
%ADD19R,4.800000X4.800000*%
%ADD20R,0.300000X0.325000*%
%ADD21R,0.325000X0.300000*%
%ADD22R,0.600000X2.000000*%
%ADD23R,2.000000X0.600000*%
%ADD24R,1.200000X0.700000*%
%ADD25R,0.700000X0.700000*%
%ADD26R,0.500000X0.300000*%

G36*
X441771Y617467D02*
X441771Y617467D01*
X441785Y617465D01*
X444785Y620465D01*
X444787Y620483D01*
X444797Y620491D01*
X444794Y620496D01*
X444799Y620500D01*
X444799Y632500D01*
X444763Y632547D01*
X444756Y632542D01*
X444750Y632549D01*
X434250Y632549D01*
X434203Y632513D01*
X434208Y632506D01*
X434201Y632500D01*
X434201Y617500D01*
X434237Y617453D01*
X434244Y617458D01*
X434250Y617451D01*
X441750Y617451D01*
X441771Y617467D01*
G37*
D10*
X264600Y651500D03*
X247600Y651500D03*
X200900Y651600D03*
X217900Y651600D03*
D11*
X595000Y670740D03*
X585000Y670740D03*
X605000Y670740D03*
X575000Y670740D03*
D12*
X562000Y645258D03*
X618000Y645258D03*
D11*
X105000Y645760D03*
X115000Y645760D03*
X95000Y645760D03*
X125000Y645760D03*
D12*
X138000Y671242D03*
X82000Y671242D03*
D13*
X638000Y619000D03*
X638000Y636000D03*
D14*
X667000Y619000D03*
X652000Y619000D03*
D15*
X683000Y614000D03*
D16*
X451000Y617000D03*
X451000Y625000D03*
X451000Y633000D03*
X428000Y633000D03*
X428000Y625000D03*
X428000Y617000D03*
D17*
X580000Y410000D03*
X592500Y410000D03*
X605000Y410000D03*
X617500Y410000D03*
X630000Y410000D03*
D18*
X645000Y425000D03*
X645000Y437500D03*
X645000Y450000D03*
X645000Y462500D03*
X645000Y475000D03*
D17*
X630000Y490000D03*
X617500Y490000D03*
X605000Y490000D03*
X592500Y490000D03*
X580000Y490000D03*
D18*
X565000Y475000D03*
X565000Y462500D03*
X565000Y450000D03*
X565000Y437500D03*
X565000Y425000D03*
D19*
X605000Y450000D03*
D20*
X327500Y632500D03*
X322500Y632500D03*
D21*
X317250Y630000D03*
X317250Y625000D03*
X317250Y620000D03*
D20*
X322500Y617500D03*
X327500Y617500D03*
D21*
X332750Y620000D03*
X332750Y625000D03*
X332750Y630000D03*
D10*
X251500Y635500D03*
X234500Y635500D03*
X234500Y620000D03*
X251500Y620000D03*
X358000Y620000D03*
X375000Y620000D03*
X358000Y635000D03*
X375000Y635000D03*
X431500Y650000D03*
X448500Y650000D03*
X498500Y620000D03*
X481500Y620000D03*
X481500Y635000D03*
X498500Y635000D03*
X594500Y545500D03*
X611500Y545500D03*
X669000Y530000D03*
X686000Y530000D03*
D13*
X574500Y546000D03*
X574500Y563000D03*
D22*
X592500Y280000D03*
X580000Y280000D03*
X567500Y280000D03*
D23*
X545000Y267700D03*
X545000Y242300D03*
D22*
X567500Y230000D03*
X580000Y230000D03*
X592500Y230000D03*
D23*
X615000Y242300D03*
X615000Y267700D03*
D13*
X540000Y306500D03*
X540000Y323500D03*
X555000Y306500D03*
X555000Y323500D03*
X570000Y306500D03*
X570000Y323500D03*
D24*
X621999Y324500D03*
X621999Y315000D03*
X621999Y305500D03*
X648001Y305500D03*
X648001Y324500D03*
D10*
X643500Y290000D03*
X626500Y290000D03*
D13*
X658500Y338000D03*
X658500Y355000D03*
X590000Y323500D03*
X590000Y306500D03*
X605000Y323500D03*
X605000Y306500D03*
D10*
X574500Y195000D03*
X591500Y195000D03*
X608500Y195000D03*
X625500Y195000D03*
X557000Y195000D03*
X540000Y195000D03*
D13*
X642000Y196500D03*
X642000Y213500D03*
X657000Y196500D03*
X657000Y213500D03*
D25*
X561000Y30500D03*
X561000Y19500D03*
X579000Y19500D03*
X579000Y30500D03*
X521000Y30500D03*
X521000Y19500D03*
X539000Y19500D03*
X539000Y30500D03*
X481000Y30500D03*
X481000Y19500D03*
X499000Y19500D03*
X499000Y30500D03*
X441000Y30500D03*
X441000Y19500D03*
X459000Y19500D03*
X459000Y30500D03*
X401000Y30500D03*
X401000Y19500D03*
X419000Y19500D03*
X419000Y30500D03*
X361000Y30500D03*
X361000Y19500D03*
X379000Y19500D03*
X379000Y30500D03*
X321000Y30500D03*
X321000Y19500D03*
X339000Y19500D03*
X339000Y30500D03*
X281000Y30500D03*
X281000Y19500D03*
X299000Y19500D03*
X299000Y30500D03*
X121000Y30500D03*
X121000Y19500D03*
X139000Y19500D03*
X139000Y30500D03*
X161000Y30500D03*
X161000Y19500D03*
X179000Y19500D03*
X179000Y30500D03*
X201000Y30500D03*
X201000Y19500D03*
X219000Y19500D03*
X219000Y30500D03*
X241000Y30500D03*
X241000Y19500D03*
X259000Y19500D03*
X259000Y30500D03*
D10*
X138500Y50000D03*
X121500Y50000D03*
X298500Y50000D03*
X281500Y50000D03*
X458500Y50000D03*
X441500Y50000D03*
X578500Y50000D03*
X561500Y50000D03*
X591500Y20000D03*
X608500Y20000D03*
D26*
X563000Y599000D03*
X563000Y591000D03*
X577000Y591000D03*
X577000Y599000D03*
D10*
X595500Y591000D03*
X612500Y591000D03*
M02*
