G04 EAGLE Gerber RS-274X export*
G75*
%MOMM*%
%FSLAX34Y34*%
%LPD*%
%INSoldermask Top*%
%IPPOS*%
%AMOC8*
5,1,8,0,0,1.08239X$1,22.5*%
G01*
%ADD10C,3.703200*%
%ADD11R,1.303200X1.203200*%
%ADD12C,2.082800*%
%ADD13R,0.803200X1.753200*%
%ADD14R,1.403200X2.003200*%
%ADD15R,1.203200X1.303200*%
%ADD16R,1.003200X1.003200*%
%ADD17R,1.473200X0.838200*%
%ADD18R,0.753200X0.603200*%
%ADD19R,1.003200X1.703200*%
%ADD20R,1.703200X1.003200*%
%ADD21R,5.003200X5.003200*%
%ADD22R,0.503200X0.528200*%
%ADD23R,0.528200X0.503200*%
%ADD24R,0.803200X2.203200*%
%ADD25R,2.203200X0.803200*%
%ADD26R,1.403200X0.903200*%
%ADD27C,1.219200*%
%ADD28R,0.903200X0.903200*%
%ADD29R,0.838200X1.473200*%
%ADD30R,0.703200X0.503200*%
%ADD31C,0.959600*%

G36*
X443071Y615967D02*
X443071Y615967D01*
X443085Y615965D01*
X446285Y619165D01*
X446287Y619180D01*
X446297Y619188D01*
X446292Y619195D01*
X446299Y619200D01*
X446299Y634000D01*
X446263Y634047D01*
X446256Y634042D01*
X446250Y634049D01*
X432750Y634049D01*
X432703Y634013D01*
X432708Y634006D01*
X432701Y634000D01*
X432701Y616000D01*
X432737Y615953D01*
X432744Y615958D01*
X432750Y615951D01*
X443050Y615951D01*
X443071Y615967D01*
G37*
D10*
X37500Y662500D03*
X662500Y662500D03*
X37500Y37500D03*
X662500Y37500D03*
D11*
X264600Y651500D03*
X247600Y651500D03*
X200900Y651600D03*
X217900Y651600D03*
D12*
X38000Y597000D03*
X38000Y571600D03*
X38000Y546200D03*
X38000Y520800D03*
D13*
X595000Y670740D03*
X585000Y670740D03*
X605000Y670740D03*
X575000Y670740D03*
D14*
X562000Y645258D03*
X618000Y645258D03*
D13*
X105000Y645760D03*
X115000Y645760D03*
X95000Y645760D03*
X125000Y645760D03*
D14*
X138000Y671242D03*
X82000Y671242D03*
D15*
X638000Y619000D03*
X638000Y636000D03*
D16*
X667000Y619000D03*
X652000Y619000D03*
D17*
X683000Y609936D03*
X683000Y618064D03*
D18*
X451000Y617000D03*
X451000Y625000D03*
X451000Y633000D03*
X428000Y633000D03*
X428000Y625000D03*
X428000Y617000D03*
D19*
X580000Y410000D03*
X592500Y410000D03*
X605000Y410000D03*
X617500Y410000D03*
X630000Y410000D03*
D20*
X645000Y425000D03*
X645000Y437500D03*
X645000Y450000D03*
X645000Y462500D03*
X645000Y475000D03*
D19*
X630000Y490000D03*
X617500Y490000D03*
X605000Y490000D03*
X592500Y490000D03*
X580000Y490000D03*
D20*
X565000Y475000D03*
X565000Y462500D03*
X565000Y450000D03*
X565000Y437500D03*
X565000Y425000D03*
D21*
X605000Y450000D03*
D22*
X327500Y632500D03*
X322500Y632500D03*
D23*
X317250Y630000D03*
X317250Y625000D03*
X317250Y620000D03*
D22*
X322500Y617500D03*
X327500Y617500D03*
D23*
X332750Y620000D03*
X332750Y625000D03*
X332750Y630000D03*
D11*
X251500Y635500D03*
X234500Y635500D03*
X234500Y620000D03*
X251500Y620000D03*
X358000Y620000D03*
X375000Y620000D03*
X358000Y635000D03*
X375000Y635000D03*
X431500Y650000D03*
X448500Y650000D03*
X498500Y620000D03*
X481500Y620000D03*
X481500Y635000D03*
X498500Y635000D03*
X594500Y545500D03*
X611500Y545500D03*
X669000Y530000D03*
X686000Y530000D03*
D15*
X574500Y546000D03*
X574500Y563000D03*
D12*
X38500Y487500D03*
D24*
X592500Y280000D03*
X580000Y280000D03*
X567500Y280000D03*
D25*
X545000Y267700D03*
X545000Y242300D03*
D24*
X567500Y230000D03*
X580000Y230000D03*
X592500Y230000D03*
D25*
X615000Y242300D03*
X615000Y267700D03*
D15*
X540000Y306500D03*
X540000Y323500D03*
X555000Y306500D03*
X555000Y323500D03*
X570000Y306500D03*
X570000Y323500D03*
D12*
X679500Y348000D03*
X679500Y322600D03*
X679500Y297200D03*
X679500Y271800D03*
X679500Y246400D03*
X679500Y221000D03*
X679500Y195600D03*
D26*
X621999Y324500D03*
X621999Y315000D03*
X621999Y305500D03*
X648001Y305500D03*
X648001Y324500D03*
D11*
X643500Y290000D03*
X626500Y290000D03*
D15*
X658500Y338000D03*
X658500Y355000D03*
X590000Y323500D03*
X590000Y306500D03*
X605000Y323500D03*
X605000Y306500D03*
D12*
X38000Y353000D03*
X38000Y378400D03*
X38000Y403800D03*
X38000Y429200D03*
X38000Y454600D03*
D11*
X574500Y195000D03*
X591500Y195000D03*
X608500Y195000D03*
X625500Y195000D03*
X557000Y195000D03*
X540000Y195000D03*
D17*
X612500Y211436D03*
X612500Y219564D03*
X640000Y231436D03*
X640000Y239564D03*
X540500Y211436D03*
X540500Y219564D03*
D27*
X592500Y211000D03*
X640000Y255000D03*
X554500Y210500D03*
X640000Y270000D03*
D15*
X642000Y196500D03*
X642000Y213500D03*
X657000Y196500D03*
X657000Y213500D03*
D28*
X561000Y30500D03*
X561000Y19500D03*
X579000Y19500D03*
X579000Y30500D03*
X521000Y30500D03*
X521000Y19500D03*
X539000Y19500D03*
X539000Y30500D03*
X481000Y30500D03*
X481000Y19500D03*
X499000Y19500D03*
X499000Y30500D03*
X441000Y30500D03*
X441000Y19500D03*
X459000Y19500D03*
X459000Y30500D03*
X401000Y30500D03*
X401000Y19500D03*
X419000Y19500D03*
X419000Y30500D03*
X361000Y30500D03*
X361000Y19500D03*
X379000Y19500D03*
X379000Y30500D03*
X321000Y30500D03*
X321000Y19500D03*
X339000Y19500D03*
X339000Y30500D03*
X281000Y30500D03*
X281000Y19500D03*
X299000Y19500D03*
X299000Y30500D03*
X121000Y30500D03*
X121000Y19500D03*
X139000Y19500D03*
X139000Y30500D03*
X161000Y30500D03*
X161000Y19500D03*
X179000Y19500D03*
X179000Y30500D03*
X201000Y30500D03*
X201000Y19500D03*
X219000Y19500D03*
X219000Y30500D03*
X241000Y30500D03*
X241000Y19500D03*
X259000Y19500D03*
X259000Y30500D03*
D11*
X138500Y50000D03*
X121500Y50000D03*
D12*
X680000Y90000D03*
X680000Y115400D03*
X680000Y140800D03*
D11*
X298500Y50000D03*
X281500Y50000D03*
X458500Y50000D03*
X441500Y50000D03*
X578500Y50000D03*
X561500Y50000D03*
X591500Y20000D03*
X608500Y20000D03*
D29*
X540936Y65000D03*
X549064Y65000D03*
D30*
X563000Y599000D03*
X563000Y591000D03*
X577000Y591000D03*
X577000Y599000D03*
D11*
X595500Y591000D03*
X612500Y591000D03*
D31*
X590000Y465000D03*
X590000Y435000D03*
X620000Y435000D03*
X620000Y465000D03*
X651500Y504000D03*
X125000Y662500D03*
X358000Y654000D03*
X139000Y634000D03*
X38000Y617000D03*
X74000Y644000D03*
X284000Y652500D03*
X488000Y654000D03*
X576500Y629500D03*
X567500Y211500D03*
X552500Y286500D03*
X535000Y180000D03*
X100000Y35000D03*
X260000Y50000D03*
X425000Y50000D03*
X545000Y50000D03*
X540000Y160000D03*
X650000Y160000D03*
X610000Y160000D03*
X605000Y350000D03*
X525000Y350000D03*
X685000Y390000D03*
X525000Y390000D03*
X525000Y510000D03*
X685000Y510000D03*
X439500Y625000D03*
X516500Y685500D03*
X510000Y620000D03*
X420000Y685500D03*
X420000Y650000D03*
X234000Y651500D03*
X234000Y685500D03*
X550000Y437500D03*
X559500Y546000D03*
X527000Y675000D03*
X584500Y657500D03*
X527000Y600000D03*
X296000Y638000D03*
X465000Y655000D03*
X465000Y675000D03*
X120000Y675000D03*
X179500Y675000D03*
X296000Y675000D03*
X185000Y651500D03*
X555000Y600000D03*
X340000Y639000D03*
X268000Y620000D03*
X276500Y631500D03*
X345000Y620000D03*
X310500Y612000D03*
X660000Y305000D03*
X540000Y280000D03*
X540000Y255000D03*
X554500Y226000D03*
X580000Y211000D03*
M02*
