G04 EAGLE Gerber RS-274X export*
G75*
%MOMM*%
%FSLAX34Y34*%
%LPD*%
%INSolderpaste Top*%
%IPPOS*%
%AMOC8*
5,1,8,0,0,1.08239X$1,22.5*%
G01*
%ADD10R,1.100000X1.000000*%
%ADD11R,0.600000X1.550000*%
%ADD12R,1.200000X1.800000*%
%ADD13R,1.000000X1.100000*%
%ADD14R,0.800000X0.800000*%
%ADD15R,2.235200X2.489200*%
%ADD16R,0.550000X0.400000*%
%ADD17R,0.800000X1.500000*%
%ADD18R,1.500000X0.800000*%
%ADD19R,4.800000X4.800000*%
%ADD20R,0.300000X0.325000*%
%ADD21R,0.325000X0.300000*%
%ADD22R,0.600000X2.000000*%
%ADD23R,2.000000X0.600000*%
%ADD24R,1.200000X0.700000*%
%ADD25R,0.700000X0.700000*%
%ADD26R,0.850000X0.900000*%
%ADD27R,0.500000X0.300000*%
%ADD28R,0.457200X1.079500*%

G36*
X441771Y617467D02*
X441771Y617467D01*
X441785Y617465D01*
X444785Y620465D01*
X444787Y620483D01*
X444797Y620491D01*
X444794Y620496D01*
X444799Y620500D01*
X444799Y632500D01*
X444763Y632547D01*
X444756Y632542D01*
X444750Y632549D01*
X434250Y632549D01*
X434203Y632513D01*
X434208Y632506D01*
X434201Y632500D01*
X434201Y617500D01*
X434237Y617453D01*
X434244Y617458D01*
X434250Y617451D01*
X441750Y617451D01*
X441771Y617467D01*
G37*
D10*
X264600Y651500D03*
X247600Y651500D03*
X200900Y651600D03*
X217900Y651600D03*
D11*
X595000Y670740D03*
X585000Y670740D03*
X605000Y670740D03*
X575000Y670740D03*
D12*
X562000Y645258D03*
X618000Y645258D03*
D11*
X105000Y645760D03*
X115000Y645760D03*
X95000Y645760D03*
X125000Y645760D03*
D12*
X138000Y671242D03*
X82000Y671242D03*
D13*
X638000Y619000D03*
X638000Y636000D03*
D14*
X667000Y619000D03*
X652000Y619000D03*
D15*
X683000Y614000D03*
D16*
X451000Y617000D03*
X451000Y625000D03*
X451000Y633000D03*
X428000Y633000D03*
X428000Y625000D03*
X428000Y617000D03*
D17*
X580000Y410000D03*
X592500Y410000D03*
X605000Y410000D03*
X617500Y410000D03*
X630000Y410000D03*
D18*
X645000Y425000D03*
X645000Y437500D03*
X645000Y450000D03*
X645000Y462500D03*
X645000Y475000D03*
D17*
X630000Y490000D03*
X617500Y490000D03*
X605000Y490000D03*
X592500Y490000D03*
X580000Y490000D03*
D18*
X565000Y475000D03*
X565000Y462500D03*
X565000Y450000D03*
X565000Y437500D03*
X565000Y425000D03*
D19*
X605000Y450000D03*
D20*
X327500Y632500D03*
X322500Y632500D03*
D21*
X317250Y630000D03*
X317250Y625000D03*
X317250Y620000D03*
D20*
X322500Y617500D03*
X327500Y617500D03*
D21*
X332750Y620000D03*
X332750Y625000D03*
X332750Y630000D03*
D10*
X251500Y635500D03*
X234500Y635500D03*
X234500Y620000D03*
X251500Y620000D03*
X358000Y620000D03*
X375000Y620000D03*
X358000Y635000D03*
X375000Y635000D03*
X431500Y650000D03*
X448500Y650000D03*
X498500Y620000D03*
X481500Y620000D03*
X481500Y635000D03*
X498500Y635000D03*
X594500Y545500D03*
X611500Y545500D03*
X669000Y530000D03*
X686000Y530000D03*
D13*
X574500Y546000D03*
X574500Y563000D03*
D22*
X580000Y280000D03*
X567500Y280000D03*
X555000Y280000D03*
D23*
X532500Y267700D03*
X532500Y242300D03*
D22*
X555000Y230000D03*
X567500Y230000D03*
X580000Y230000D03*
D23*
X602500Y242300D03*
X602500Y267700D03*
D13*
X527500Y306500D03*
X527500Y323500D03*
X542500Y306500D03*
X542500Y323500D03*
X557500Y306500D03*
X557500Y323500D03*
D24*
X609499Y324500D03*
X609499Y315000D03*
X609499Y305500D03*
X635501Y305500D03*
X635501Y324500D03*
D13*
X622500Y271500D03*
X622500Y288500D03*
X658500Y325000D03*
X658500Y308000D03*
X577500Y323500D03*
X577500Y306500D03*
X592500Y323500D03*
X592500Y306500D03*
D10*
X562000Y195000D03*
X579000Y195000D03*
X596000Y195000D03*
X613000Y195000D03*
X544500Y195000D03*
X527500Y195000D03*
D13*
X629500Y196500D03*
X629500Y213500D03*
X644500Y196500D03*
X644500Y213500D03*
D25*
X561000Y35500D03*
X561000Y24500D03*
X579000Y24500D03*
X579000Y35500D03*
X521000Y35500D03*
X521000Y24500D03*
X539000Y24500D03*
X539000Y35500D03*
X481000Y35500D03*
X481000Y24500D03*
X499000Y24500D03*
X499000Y35500D03*
X441000Y35500D03*
X441000Y24500D03*
X459000Y24500D03*
X459000Y35500D03*
X401000Y35500D03*
X401000Y24500D03*
X419000Y24500D03*
X419000Y35500D03*
X361000Y35500D03*
X361000Y24500D03*
X379000Y24500D03*
X379000Y35500D03*
X321000Y35500D03*
X321000Y24500D03*
X339000Y24500D03*
X339000Y35500D03*
X281000Y35500D03*
X281000Y24500D03*
X299000Y24500D03*
X299000Y35500D03*
X121000Y35500D03*
X121000Y24500D03*
X139000Y24500D03*
X139000Y35500D03*
X161000Y35500D03*
X161000Y24500D03*
X179000Y24500D03*
X179000Y35500D03*
X201000Y35500D03*
X201000Y24500D03*
X219000Y24500D03*
X219000Y35500D03*
X241000Y35500D03*
X241000Y24500D03*
X259000Y24500D03*
X259000Y35500D03*
D26*
X135800Y55000D03*
X124200Y55000D03*
D10*
X591500Y25000D03*
X608500Y25000D03*
D27*
X563000Y599000D03*
X563000Y591000D03*
X577000Y591000D03*
X577000Y599000D03*
D10*
X595500Y591000D03*
X612500Y591000D03*
D26*
X176300Y55000D03*
X164700Y55000D03*
X215800Y55000D03*
X204200Y55000D03*
X255800Y55000D03*
X244200Y55000D03*
X295300Y55000D03*
X283700Y55000D03*
X335800Y55000D03*
X324200Y55000D03*
X375800Y55000D03*
X364200Y55000D03*
X415300Y55000D03*
X403700Y55000D03*
X455800Y55000D03*
X444200Y55000D03*
X495800Y55000D03*
X484200Y55000D03*
X535300Y55000D03*
X523700Y55000D03*
X574800Y55000D03*
X563200Y55000D03*
D28*
X30500Y287110D03*
X40000Y287110D03*
X49500Y287110D03*
X49500Y312891D03*
X40000Y312891D03*
X30500Y312891D03*
D26*
X34200Y325000D03*
X45800Y325000D03*
D13*
X19500Y304000D03*
X19500Y287000D03*
X61500Y306500D03*
X61500Y289500D03*
X640000Y271500D03*
X640000Y288500D03*
M02*
