G04 EAGLE Gerber RS-274X export*
G75*
%MOMM*%
%FSLAX34Y34*%
%LPD*%
%INSoldermask Bottom*%
%IPPOS*%
%AMOC8*
5,1,8,0,0,1.08239X$1,22.5*%
G01*
%ADD10C,3.703200*%
%ADD11C,2.082800*%
%ADD12C,0.959600*%


D10*
X37500Y662500D03*
X662500Y662500D03*
X37500Y37500D03*
X662500Y37500D03*
D11*
X38000Y597000D03*
X38000Y571600D03*
X38000Y546200D03*
X38000Y520800D03*
X38500Y487500D03*
X679500Y348000D03*
X679500Y322600D03*
X679500Y297200D03*
X679500Y271800D03*
X679500Y246400D03*
X679500Y221000D03*
X679500Y195600D03*
X38000Y353000D03*
X38000Y378400D03*
X38000Y403800D03*
X38000Y429200D03*
X38000Y454600D03*
X680000Y90000D03*
X680000Y115400D03*
X680000Y140800D03*
D12*
X590000Y465000D03*
X590000Y435000D03*
X620000Y435000D03*
X620000Y465000D03*
X651500Y504000D03*
X125000Y662500D03*
X358000Y654000D03*
X139000Y634000D03*
X38000Y617000D03*
X74000Y644000D03*
X284000Y652500D03*
X488000Y654000D03*
X576500Y629500D03*
X567500Y211500D03*
X552500Y286500D03*
X535000Y180000D03*
X100000Y35000D03*
X260000Y50000D03*
X425000Y50000D03*
X545000Y50000D03*
X540000Y160000D03*
X650000Y160000D03*
X610000Y160000D03*
X605000Y350000D03*
X525000Y350000D03*
X685000Y390000D03*
X525000Y390000D03*
X525000Y510000D03*
X685000Y510000D03*
X439500Y625000D03*
X516500Y685500D03*
X510000Y620000D03*
X420000Y685500D03*
X420000Y650000D03*
X234000Y651500D03*
X234000Y685500D03*
X550000Y437500D03*
X559500Y546000D03*
X527000Y675000D03*
X584500Y657500D03*
X527000Y600000D03*
X296000Y638000D03*
X465000Y655000D03*
X465000Y675000D03*
X120000Y675000D03*
X179500Y675000D03*
X296000Y675000D03*
X185000Y651500D03*
X555000Y600000D03*
X340000Y639000D03*
X268000Y620000D03*
X276500Y631500D03*
X345000Y620000D03*
X310500Y612000D03*
X660000Y305000D03*
X540000Y280000D03*
X540000Y255000D03*
X554500Y226000D03*
X580000Y211000D03*
M02*
