G04 EAGLE Gerber RS-274X export*
G75*
%MOMM*%
%FSLAX34Y34*%
%LPD*%
%INBottom Copper*%
%IPPOS*%
%AMOC8*
5,1,8,0,0,1.08239X$1,22.5*%
G01*
%ADD10C,1.879600*%
%ADD11R,0.635000X1.270000*%
%ADD12C,0.700000*%
%ADD13C,0.750000*%
%ADD14C,0.250000*%
%ADD15C,0.600000*%
%ADD16C,0.152400*%
%ADD17C,0.254000*%
%ADD18C,0.200000*%

G36*
X647024Y10168D02*
X647024Y10168D01*
X647097Y10166D01*
X647224Y10188D01*
X647351Y10201D01*
X647422Y10222D01*
X647494Y10235D01*
X647613Y10281D01*
X647736Y10319D01*
X647801Y10354D01*
X647869Y10380D01*
X647977Y10449D01*
X648090Y10511D01*
X648147Y10557D01*
X648208Y10597D01*
X648301Y10686D01*
X648400Y10768D01*
X648445Y10825D01*
X648498Y10876D01*
X648572Y10982D01*
X648652Y11082D01*
X648686Y11147D01*
X648727Y11207D01*
X648778Y11325D01*
X648838Y11439D01*
X648858Y11510D01*
X648887Y11577D01*
X648913Y11703D01*
X648949Y11826D01*
X648955Y11899D01*
X648970Y11971D01*
X648971Y12099D01*
X648982Y12228D01*
X648973Y12300D01*
X648974Y12374D01*
X648950Y12500D01*
X648935Y12627D01*
X648912Y12697D01*
X648898Y12769D01*
X648850Y12888D01*
X648810Y13010D01*
X648774Y13074D01*
X648746Y13142D01*
X648675Y13249D01*
X648612Y13361D01*
X648564Y13416D01*
X648524Y13477D01*
X648433Y13568D01*
X648349Y13665D01*
X648291Y13710D01*
X648239Y13762D01*
X648100Y13859D01*
X648031Y13912D01*
X648001Y13927D01*
X647966Y13951D01*
X645516Y15366D01*
X640366Y20516D01*
X636724Y26823D01*
X634839Y33858D01*
X634839Y41142D01*
X636724Y48177D01*
X640366Y54484D01*
X645516Y59634D01*
X651823Y63276D01*
X658858Y65161D01*
X666142Y65161D01*
X673177Y63276D01*
X679484Y59634D01*
X684634Y54484D01*
X686049Y52034D01*
X686092Y51974D01*
X686127Y51910D01*
X686209Y51811D01*
X686284Y51707D01*
X686337Y51657D01*
X686384Y51600D01*
X686484Y51520D01*
X686579Y51432D01*
X686641Y51394D01*
X686698Y51348D01*
X686812Y51289D01*
X686922Y51222D01*
X686990Y51196D01*
X687055Y51162D01*
X687179Y51127D01*
X687299Y51083D01*
X687372Y51071D01*
X687442Y51051D01*
X687571Y51041D01*
X687697Y51021D01*
X687770Y51024D01*
X687844Y51018D01*
X687971Y51033D01*
X688100Y51039D01*
X688171Y51057D01*
X688243Y51065D01*
X688365Y51105D01*
X688490Y51136D01*
X688557Y51167D01*
X688626Y51190D01*
X688738Y51253D01*
X688854Y51308D01*
X688913Y51352D01*
X688977Y51388D01*
X689074Y51472D01*
X689177Y51549D01*
X689226Y51603D01*
X689282Y51651D01*
X689360Y51752D01*
X689446Y51848D01*
X689484Y51911D01*
X689528Y51969D01*
X689585Y52084D01*
X689651Y52195D01*
X689675Y52264D01*
X689708Y52330D01*
X689741Y52454D01*
X689783Y52575D01*
X689793Y52648D01*
X689812Y52718D01*
X689826Y52888D01*
X689838Y52974D01*
X689836Y53007D01*
X689839Y53049D01*
X689839Y646951D01*
X689832Y647024D01*
X689834Y647097D01*
X689812Y647224D01*
X689799Y647351D01*
X689778Y647422D01*
X689765Y647494D01*
X689719Y647613D01*
X689681Y647736D01*
X689646Y647801D01*
X689620Y647869D01*
X689551Y647977D01*
X689489Y648090D01*
X689443Y648147D01*
X689403Y648208D01*
X689314Y648301D01*
X689232Y648400D01*
X689175Y648445D01*
X689124Y648498D01*
X689018Y648572D01*
X688918Y648652D01*
X688853Y648686D01*
X688793Y648727D01*
X688675Y648778D01*
X688561Y648838D01*
X688490Y648858D01*
X688423Y648887D01*
X688297Y648913D01*
X688174Y648949D01*
X688101Y648955D01*
X688029Y648970D01*
X687901Y648971D01*
X687772Y648982D01*
X687700Y648973D01*
X687626Y648974D01*
X687500Y648950D01*
X687373Y648935D01*
X687303Y648912D01*
X687231Y648898D01*
X687112Y648850D01*
X686990Y648810D01*
X686926Y648774D01*
X686858Y648746D01*
X686751Y648675D01*
X686639Y648612D01*
X686584Y648564D01*
X686523Y648524D01*
X686432Y648433D01*
X686335Y648349D01*
X686290Y648291D01*
X686238Y648239D01*
X686141Y648100D01*
X686088Y648031D01*
X686073Y648001D01*
X686049Y647966D01*
X684634Y645516D01*
X679484Y640366D01*
X673177Y636724D01*
X666142Y634839D01*
X658858Y634839D01*
X651823Y636724D01*
X645516Y640366D01*
X640366Y645516D01*
X636724Y651823D01*
X634839Y658858D01*
X634839Y666142D01*
X636724Y673177D01*
X640366Y679484D01*
X645516Y684634D01*
X647966Y686049D01*
X648026Y686092D01*
X648090Y686127D01*
X648189Y686209D01*
X648293Y686284D01*
X648343Y686337D01*
X648400Y686384D01*
X648480Y686484D01*
X648568Y686579D01*
X648606Y686641D01*
X648652Y686698D01*
X648711Y686812D01*
X648778Y686922D01*
X648804Y686990D01*
X648838Y687055D01*
X648873Y687179D01*
X648917Y687299D01*
X648929Y687372D01*
X648949Y687442D01*
X648959Y687571D01*
X648979Y687697D01*
X648976Y687770D01*
X648982Y687844D01*
X648967Y687971D01*
X648961Y688100D01*
X648943Y688171D01*
X648935Y688243D01*
X648895Y688365D01*
X648864Y688490D01*
X648833Y688557D01*
X648810Y688626D01*
X648747Y688738D01*
X648692Y688854D01*
X648648Y688913D01*
X648612Y688977D01*
X648528Y689074D01*
X648451Y689177D01*
X648397Y689226D01*
X648349Y689282D01*
X648248Y689360D01*
X648152Y689446D01*
X648089Y689484D01*
X648031Y689528D01*
X647916Y689585D01*
X647805Y689651D01*
X647736Y689675D01*
X647670Y689708D01*
X647546Y689741D01*
X647425Y689783D01*
X647352Y689793D01*
X647282Y689812D01*
X647112Y689826D01*
X647026Y689838D01*
X646993Y689836D01*
X646951Y689839D01*
X559395Y689839D01*
X559344Y689834D01*
X559293Y689837D01*
X559144Y689814D01*
X558994Y689799D01*
X558946Y689784D01*
X558895Y689777D01*
X558753Y689725D01*
X558609Y689681D01*
X558565Y689657D01*
X558516Y689639D01*
X558388Y689561D01*
X558255Y689489D01*
X558216Y689457D01*
X558172Y689430D01*
X558062Y689328D01*
X557946Y689232D01*
X557914Y689192D01*
X557876Y689157D01*
X557788Y689035D01*
X557694Y688918D01*
X557670Y688873D01*
X557640Y688831D01*
X557578Y688694D01*
X557508Y688561D01*
X557494Y688512D01*
X557473Y688465D01*
X557439Y688318D01*
X557397Y688174D01*
X557393Y688123D01*
X557381Y688073D01*
X557376Y687922D01*
X557364Y687772D01*
X557370Y687722D01*
X557368Y687671D01*
X557393Y687522D01*
X557411Y687373D01*
X557427Y687324D01*
X557435Y687273D01*
X557489Y687133D01*
X557536Y686990D01*
X557561Y686945D01*
X557579Y686897D01*
X557699Y686700D01*
X557734Y686639D01*
X557743Y686629D01*
X557752Y686614D01*
X558011Y686257D01*
X558864Y684583D01*
X559445Y682796D01*
X559485Y682539D01*
X548308Y682539D01*
X548290Y682537D01*
X548273Y682539D01*
X548090Y682518D01*
X547908Y682499D01*
X547891Y682494D01*
X547873Y682492D01*
X547698Y682435D01*
X547523Y682381D01*
X547507Y682373D01*
X547490Y682367D01*
X547330Y682277D01*
X547169Y682189D01*
X547155Y682178D01*
X547139Y682169D01*
X547000Y682049D01*
X546859Y681932D01*
X546848Y681918D01*
X546835Y681906D01*
X546722Y681761D01*
X546607Y681618D01*
X546599Y681602D01*
X546588Y681588D01*
X546506Y681423D01*
X546466Y681347D01*
X546314Y681261D01*
X546152Y681173D01*
X546139Y681162D01*
X546123Y681153D01*
X545984Y681033D01*
X545843Y680915D01*
X545832Y680902D01*
X545818Y680890D01*
X545706Y680745D01*
X545591Y680602D01*
X545583Y680586D01*
X545572Y680572D01*
X545490Y680407D01*
X545405Y680244D01*
X545400Y680227D01*
X545392Y680211D01*
X545344Y680033D01*
X545294Y679858D01*
X545292Y679840D01*
X545288Y679823D01*
X545261Y679492D01*
X545261Y668315D01*
X545004Y668355D01*
X543217Y668936D01*
X541543Y669789D01*
X540022Y670894D01*
X538694Y672222D01*
X537589Y673743D01*
X536910Y675076D01*
X536839Y675187D01*
X536776Y675301D01*
X536730Y675356D01*
X536692Y675415D01*
X536601Y675509D01*
X536517Y675609D01*
X536461Y675654D01*
X536412Y675705D01*
X536304Y675779D01*
X536202Y675860D01*
X536139Y675893D01*
X536081Y675933D01*
X535960Y675985D01*
X535844Y676044D01*
X535776Y676064D01*
X535710Y676092D01*
X535582Y676118D01*
X535457Y676154D01*
X535386Y676159D01*
X535316Y676174D01*
X535185Y676175D01*
X535055Y676185D01*
X534985Y676177D01*
X534914Y676177D01*
X534785Y676152D01*
X534656Y676136D01*
X534588Y676114D01*
X534518Y676101D01*
X534397Y676051D01*
X534273Y676010D01*
X534212Y675975D01*
X534146Y675948D01*
X534037Y675875D01*
X533924Y675811D01*
X533870Y675764D01*
X533811Y675724D01*
X533719Y675632D01*
X533620Y675546D01*
X533577Y675490D01*
X533527Y675439D01*
X533454Y675330D01*
X533375Y675227D01*
X533337Y675154D01*
X533304Y675104D01*
X533275Y675033D01*
X533223Y674932D01*
X532521Y673237D01*
X529163Y669879D01*
X524775Y668061D01*
X520025Y668061D01*
X515637Y669879D01*
X512279Y673237D01*
X511577Y674933D01*
X511572Y674940D01*
X511570Y674949D01*
X511477Y675119D01*
X511386Y675287D01*
X511381Y675294D01*
X511376Y675302D01*
X511252Y675451D01*
X511130Y675598D01*
X511123Y675603D01*
X511117Y675610D01*
X510966Y675731D01*
X510817Y675852D01*
X510810Y675856D01*
X510802Y675861D01*
X510630Y675950D01*
X510461Y676039D01*
X510452Y676041D01*
X510444Y676045D01*
X510260Y676097D01*
X510074Y676152D01*
X510065Y676152D01*
X510057Y676155D01*
X509866Y676170D01*
X509673Y676186D01*
X509664Y676185D01*
X509656Y676186D01*
X509464Y676163D01*
X509273Y676141D01*
X509265Y676138D01*
X509256Y676137D01*
X509074Y676077D01*
X508890Y676018D01*
X508882Y676014D01*
X508874Y676011D01*
X508708Y675916D01*
X508538Y675822D01*
X508532Y675816D01*
X508524Y675811D01*
X508380Y675686D01*
X508233Y675560D01*
X508227Y675553D01*
X508220Y675547D01*
X508103Y675395D01*
X507984Y675243D01*
X507980Y675235D01*
X507975Y675228D01*
X507823Y674933D01*
X507121Y673237D01*
X503763Y669879D01*
X499375Y668061D01*
X494625Y668061D01*
X490237Y669879D01*
X486879Y673237D01*
X486177Y674933D01*
X486172Y674940D01*
X486170Y674949D01*
X486077Y675119D01*
X485986Y675287D01*
X485981Y675294D01*
X485976Y675302D01*
X485852Y675451D01*
X485730Y675598D01*
X485723Y675603D01*
X485717Y675610D01*
X485566Y675731D01*
X485417Y675852D01*
X485410Y675856D01*
X485402Y675861D01*
X485230Y675950D01*
X485061Y676039D01*
X485052Y676041D01*
X485044Y676045D01*
X484860Y676097D01*
X484674Y676152D01*
X484665Y676152D01*
X484657Y676155D01*
X484466Y676170D01*
X484273Y676186D01*
X484264Y676185D01*
X484256Y676186D01*
X484064Y676163D01*
X483873Y676141D01*
X483865Y676138D01*
X483856Y676137D01*
X483674Y676077D01*
X483490Y676018D01*
X483482Y676014D01*
X483474Y676011D01*
X483308Y675916D01*
X483138Y675822D01*
X483132Y675816D01*
X483124Y675811D01*
X482980Y675686D01*
X482833Y675560D01*
X482827Y675553D01*
X482820Y675547D01*
X482703Y675395D01*
X482584Y675243D01*
X482580Y675235D01*
X482575Y675228D01*
X482423Y674933D01*
X481721Y673237D01*
X478363Y669879D01*
X473975Y668061D01*
X469225Y668061D01*
X464837Y669879D01*
X461479Y673237D01*
X460777Y674933D01*
X460772Y674940D01*
X460770Y674949D01*
X460677Y675119D01*
X460586Y675287D01*
X460581Y675294D01*
X460576Y675302D01*
X460452Y675451D01*
X460330Y675598D01*
X460323Y675603D01*
X460317Y675610D01*
X460166Y675731D01*
X460017Y675852D01*
X460010Y675856D01*
X460002Y675861D01*
X459830Y675950D01*
X459661Y676039D01*
X459652Y676041D01*
X459644Y676045D01*
X459460Y676097D01*
X459274Y676152D01*
X459265Y676152D01*
X459257Y676155D01*
X459066Y676170D01*
X458873Y676186D01*
X458864Y676185D01*
X458856Y676186D01*
X458664Y676163D01*
X458473Y676141D01*
X458465Y676138D01*
X458456Y676137D01*
X458274Y676077D01*
X458090Y676018D01*
X458082Y676014D01*
X458074Y676011D01*
X457908Y675916D01*
X457738Y675822D01*
X457732Y675816D01*
X457724Y675811D01*
X457580Y675686D01*
X457433Y675560D01*
X457427Y675553D01*
X457420Y675547D01*
X457303Y675395D01*
X457184Y675243D01*
X457180Y675235D01*
X457175Y675228D01*
X457023Y674933D01*
X456321Y673237D01*
X452963Y669879D01*
X448575Y668061D01*
X443825Y668061D01*
X439437Y669879D01*
X436079Y673237D01*
X435377Y674933D01*
X435372Y674940D01*
X435370Y674949D01*
X435277Y675119D01*
X435186Y675287D01*
X435181Y675294D01*
X435176Y675302D01*
X435052Y675451D01*
X434930Y675598D01*
X434923Y675603D01*
X434917Y675610D01*
X434766Y675731D01*
X434617Y675852D01*
X434610Y675856D01*
X434602Y675861D01*
X434430Y675950D01*
X434261Y676039D01*
X434252Y676041D01*
X434244Y676045D01*
X434060Y676097D01*
X433874Y676152D01*
X433865Y676152D01*
X433857Y676155D01*
X433666Y676170D01*
X433473Y676186D01*
X433464Y676185D01*
X433456Y676186D01*
X433264Y676163D01*
X433073Y676141D01*
X433065Y676138D01*
X433056Y676137D01*
X432874Y676077D01*
X432690Y676018D01*
X432682Y676014D01*
X432674Y676011D01*
X432508Y675916D01*
X432338Y675822D01*
X432332Y675816D01*
X432324Y675811D01*
X432180Y675686D01*
X432033Y675560D01*
X432027Y675553D01*
X432020Y675547D01*
X431903Y675395D01*
X431784Y675243D01*
X431780Y675235D01*
X431775Y675228D01*
X431623Y674933D01*
X430921Y673237D01*
X427563Y669879D01*
X423175Y668061D01*
X418425Y668061D01*
X414037Y669879D01*
X410679Y673237D01*
X409977Y674933D01*
X409972Y674940D01*
X409970Y674949D01*
X409877Y675119D01*
X409786Y675287D01*
X409781Y675294D01*
X409776Y675302D01*
X409652Y675451D01*
X409530Y675598D01*
X409523Y675603D01*
X409517Y675610D01*
X409366Y675731D01*
X409217Y675852D01*
X409210Y675856D01*
X409202Y675861D01*
X409030Y675950D01*
X408861Y676039D01*
X408852Y676041D01*
X408844Y676045D01*
X408660Y676097D01*
X408474Y676152D01*
X408465Y676152D01*
X408457Y676155D01*
X408266Y676170D01*
X408073Y676186D01*
X408064Y676185D01*
X408056Y676186D01*
X407864Y676163D01*
X407673Y676141D01*
X407665Y676138D01*
X407656Y676137D01*
X407474Y676077D01*
X407290Y676018D01*
X407282Y676014D01*
X407274Y676011D01*
X407108Y675916D01*
X406938Y675822D01*
X406932Y675816D01*
X406924Y675811D01*
X406780Y675686D01*
X406633Y675560D01*
X406627Y675553D01*
X406620Y675547D01*
X406503Y675395D01*
X406384Y675243D01*
X406380Y675235D01*
X406375Y675228D01*
X406223Y674933D01*
X405521Y673237D01*
X402163Y669879D01*
X397775Y668061D01*
X393025Y668061D01*
X388637Y669879D01*
X385279Y673237D01*
X384577Y674933D01*
X384572Y674940D01*
X384570Y674949D01*
X384477Y675119D01*
X384386Y675287D01*
X384381Y675294D01*
X384376Y675302D01*
X384252Y675451D01*
X384130Y675598D01*
X384123Y675603D01*
X384117Y675610D01*
X383966Y675731D01*
X383817Y675852D01*
X383810Y675856D01*
X383802Y675861D01*
X383630Y675950D01*
X383461Y676039D01*
X383452Y676041D01*
X383444Y676045D01*
X383260Y676097D01*
X383074Y676152D01*
X383065Y676152D01*
X383057Y676155D01*
X382866Y676170D01*
X382673Y676186D01*
X382664Y676185D01*
X382656Y676186D01*
X382464Y676163D01*
X382273Y676141D01*
X382265Y676138D01*
X382256Y676137D01*
X382074Y676077D01*
X381890Y676018D01*
X381882Y676014D01*
X381874Y676011D01*
X381708Y675916D01*
X381538Y675822D01*
X381532Y675816D01*
X381524Y675811D01*
X381380Y675686D01*
X381233Y675560D01*
X381227Y675553D01*
X381220Y675547D01*
X381103Y675395D01*
X380984Y675243D01*
X380980Y675235D01*
X380975Y675228D01*
X380823Y674933D01*
X380121Y673237D01*
X376763Y669879D01*
X372375Y668061D01*
X367625Y668061D01*
X363237Y669879D01*
X359879Y673237D01*
X358061Y677625D01*
X358061Y682375D01*
X359990Y687031D01*
X359994Y687044D01*
X360000Y687055D01*
X360052Y687235D01*
X360106Y687416D01*
X360108Y687429D01*
X360111Y687442D01*
X360127Y687630D01*
X360144Y687817D01*
X360143Y687830D01*
X360144Y687844D01*
X360122Y688030D01*
X360103Y688217D01*
X360099Y688230D01*
X360097Y688243D01*
X360039Y688422D01*
X359983Y688602D01*
X359977Y688613D01*
X359972Y688626D01*
X359880Y688790D01*
X359790Y688955D01*
X359781Y688965D01*
X359774Y688977D01*
X359652Y689119D01*
X359531Y689263D01*
X359520Y689271D01*
X359511Y689282D01*
X359363Y689396D01*
X359216Y689514D01*
X359204Y689520D01*
X359193Y689528D01*
X359025Y689612D01*
X358858Y689698D01*
X358845Y689702D01*
X358833Y689708D01*
X358650Y689757D01*
X358470Y689808D01*
X358457Y689809D01*
X358444Y689812D01*
X358113Y689839D01*
X53049Y689839D01*
X52976Y689832D01*
X52903Y689834D01*
X52776Y689812D01*
X52649Y689799D01*
X52578Y689778D01*
X52506Y689765D01*
X52387Y689719D01*
X52264Y689681D01*
X52199Y689646D01*
X52131Y689620D01*
X52023Y689551D01*
X51910Y689489D01*
X51853Y689443D01*
X51792Y689403D01*
X51699Y689314D01*
X51600Y689232D01*
X51555Y689175D01*
X51502Y689124D01*
X51428Y689018D01*
X51348Y688918D01*
X51314Y688853D01*
X51273Y688793D01*
X51222Y688675D01*
X51162Y688561D01*
X51142Y688490D01*
X51113Y688423D01*
X51087Y688297D01*
X51051Y688174D01*
X51045Y688101D01*
X51030Y688029D01*
X51029Y687901D01*
X51018Y687772D01*
X51027Y687700D01*
X51026Y687626D01*
X51050Y687500D01*
X51065Y687373D01*
X51088Y687303D01*
X51102Y687231D01*
X51150Y687112D01*
X51190Y686990D01*
X51226Y686926D01*
X51254Y686858D01*
X51325Y686751D01*
X51388Y686639D01*
X51436Y686584D01*
X51476Y686523D01*
X51567Y686432D01*
X51651Y686335D01*
X51709Y686290D01*
X51761Y686238D01*
X51900Y686141D01*
X51969Y686088D01*
X51999Y686073D01*
X52034Y686049D01*
X54484Y684634D01*
X59634Y679484D01*
X63276Y673177D01*
X65161Y666142D01*
X65161Y658858D01*
X63276Y651823D01*
X59634Y645516D01*
X54484Y640366D01*
X48177Y636724D01*
X41142Y634839D01*
X33858Y634839D01*
X26823Y636724D01*
X20516Y640366D01*
X15366Y645516D01*
X13951Y647966D01*
X13908Y648026D01*
X13873Y648090D01*
X13791Y648189D01*
X13716Y648293D01*
X13663Y648343D01*
X13616Y648400D01*
X13516Y648480D01*
X13421Y648568D01*
X13359Y648606D01*
X13302Y648652D01*
X13188Y648711D01*
X13078Y648778D01*
X13010Y648804D01*
X12945Y648838D01*
X12821Y648873D01*
X12701Y648917D01*
X12628Y648929D01*
X12558Y648949D01*
X12429Y648959D01*
X12303Y648979D01*
X12230Y648976D01*
X12156Y648982D01*
X12029Y648967D01*
X11900Y648961D01*
X11829Y648943D01*
X11757Y648935D01*
X11635Y648895D01*
X11510Y648864D01*
X11443Y648833D01*
X11374Y648810D01*
X11262Y648747D01*
X11146Y648692D01*
X11087Y648648D01*
X11023Y648612D01*
X10926Y648528D01*
X10823Y648451D01*
X10774Y648397D01*
X10718Y648349D01*
X10640Y648248D01*
X10554Y648152D01*
X10516Y648089D01*
X10472Y648031D01*
X10415Y647916D01*
X10349Y647805D01*
X10325Y647736D01*
X10292Y647670D01*
X10259Y647546D01*
X10217Y647425D01*
X10207Y647352D01*
X10188Y647282D01*
X10174Y647112D01*
X10162Y647026D01*
X10164Y646993D01*
X10161Y646951D01*
X10161Y53049D01*
X10168Y52976D01*
X10166Y52903D01*
X10188Y52776D01*
X10201Y52649D01*
X10222Y52578D01*
X10235Y52506D01*
X10281Y52387D01*
X10319Y52264D01*
X10354Y52199D01*
X10380Y52131D01*
X10449Y52023D01*
X10511Y51910D01*
X10557Y51853D01*
X10597Y51792D01*
X10686Y51699D01*
X10768Y51600D01*
X10825Y51555D01*
X10876Y51502D01*
X10982Y51428D01*
X11082Y51348D01*
X11147Y51314D01*
X11207Y51273D01*
X11325Y51222D01*
X11439Y51162D01*
X11510Y51142D01*
X11577Y51113D01*
X11703Y51087D01*
X11826Y51051D01*
X11899Y51045D01*
X11971Y51030D01*
X12099Y51029D01*
X12228Y51018D01*
X12300Y51027D01*
X12374Y51026D01*
X12500Y51050D01*
X12627Y51065D01*
X12697Y51088D01*
X12769Y51102D01*
X12888Y51150D01*
X13010Y51190D01*
X13074Y51226D01*
X13142Y51254D01*
X13249Y51325D01*
X13361Y51388D01*
X13416Y51436D01*
X13477Y51476D01*
X13568Y51567D01*
X13665Y51651D01*
X13710Y51709D01*
X13762Y51761D01*
X13859Y51900D01*
X13912Y51969D01*
X13927Y51999D01*
X13951Y52034D01*
X15366Y54484D01*
X20516Y59634D01*
X26823Y63276D01*
X33858Y65161D01*
X41142Y65161D01*
X48177Y63276D01*
X54484Y59634D01*
X59634Y54484D01*
X63276Y48177D01*
X65161Y41142D01*
X65161Y33858D01*
X63276Y26823D01*
X59634Y20516D01*
X54484Y15366D01*
X52034Y13951D01*
X51974Y13908D01*
X51910Y13873D01*
X51811Y13791D01*
X51707Y13716D01*
X51657Y13663D01*
X51600Y13616D01*
X51520Y13516D01*
X51432Y13421D01*
X51394Y13359D01*
X51348Y13302D01*
X51289Y13188D01*
X51222Y13078D01*
X51196Y13010D01*
X51162Y12945D01*
X51127Y12821D01*
X51083Y12701D01*
X51071Y12628D01*
X51051Y12558D01*
X51041Y12429D01*
X51021Y12303D01*
X51024Y12230D01*
X51018Y12156D01*
X51033Y12029D01*
X51039Y11900D01*
X51057Y11829D01*
X51065Y11757D01*
X51105Y11635D01*
X51136Y11510D01*
X51167Y11443D01*
X51190Y11374D01*
X51253Y11262D01*
X51308Y11146D01*
X51352Y11087D01*
X51388Y11023D01*
X51472Y10926D01*
X51549Y10823D01*
X51603Y10774D01*
X51651Y10718D01*
X51752Y10640D01*
X51848Y10554D01*
X51911Y10516D01*
X51969Y10472D01*
X52084Y10415D01*
X52195Y10349D01*
X52264Y10325D01*
X52330Y10292D01*
X52454Y10259D01*
X52575Y10217D01*
X52648Y10207D01*
X52718Y10188D01*
X52888Y10174D01*
X52974Y10162D01*
X53007Y10164D01*
X53049Y10161D01*
X646951Y10161D01*
X647024Y10168D01*
G37*
%LPC*%
G36*
X395249Y351709D02*
X395249Y351709D01*
X392937Y352667D01*
X391167Y354437D01*
X390209Y356749D01*
X390209Y359251D01*
X391182Y361599D01*
X391216Y361642D01*
X391340Y361793D01*
X391342Y361797D01*
X391345Y361801D01*
X391434Y361971D01*
X391529Y362149D01*
X391530Y362153D01*
X391532Y362157D01*
X391587Y362343D01*
X391644Y362535D01*
X391644Y362539D01*
X391645Y362544D01*
X391662Y362734D01*
X391680Y362936D01*
X391680Y362940D01*
X391680Y362945D01*
X391659Y363134D01*
X391637Y363336D01*
X391635Y363340D01*
X391635Y363345D01*
X391575Y363530D01*
X391515Y363720D01*
X391513Y363724D01*
X391512Y363728D01*
X391415Y363901D01*
X391320Y364072D01*
X391318Y364076D01*
X391315Y364080D01*
X391187Y364230D01*
X391060Y364379D01*
X391056Y364382D01*
X391053Y364385D01*
X390897Y364508D01*
X390744Y364629D01*
X390740Y364631D01*
X390736Y364634D01*
X390560Y364722D01*
X390385Y364811D01*
X390381Y364812D01*
X390377Y364814D01*
X390188Y364866D01*
X389997Y364919D01*
X389993Y364919D01*
X389988Y364921D01*
X389791Y364934D01*
X389596Y364949D01*
X389591Y364948D01*
X389587Y364948D01*
X389391Y364923D01*
X389196Y364898D01*
X389192Y364897D01*
X389188Y364896D01*
X388872Y364795D01*
X386251Y363709D01*
X383749Y363709D01*
X381437Y364667D01*
X379667Y366437D01*
X378601Y369009D01*
X378587Y369037D01*
X378577Y369066D01*
X378492Y369214D01*
X378411Y369364D01*
X378391Y369388D01*
X378376Y369415D01*
X378161Y369668D01*
X359015Y388814D01*
X358994Y388831D01*
X358977Y388852D01*
X358839Y388959D01*
X358703Y389069D01*
X358680Y389082D01*
X358659Y389098D01*
X358502Y389176D01*
X358348Y389258D01*
X358322Y389266D01*
X358298Y389278D01*
X358129Y389323D01*
X357962Y389373D01*
X357935Y389375D01*
X357909Y389382D01*
X357743Y389396D01*
X355509Y391630D01*
X355509Y395142D01*
X355561Y395317D01*
X355563Y395335D01*
X355568Y395352D01*
X355581Y395535D01*
X355598Y395718D01*
X355596Y395736D01*
X355597Y395754D01*
X355574Y395935D01*
X355554Y396118D01*
X355549Y396135D01*
X355547Y396153D01*
X355509Y396264D01*
X355509Y399821D01*
X355536Y399853D01*
X355540Y399861D01*
X355546Y399868D01*
X355634Y400038D01*
X355724Y400209D01*
X355727Y400217D01*
X355731Y400225D01*
X355785Y400411D01*
X355839Y400595D01*
X355840Y400604D01*
X355843Y400612D01*
X355858Y400804D01*
X355876Y400996D01*
X355875Y401005D01*
X355875Y401014D01*
X355853Y401204D01*
X355832Y401396D01*
X355830Y401405D01*
X355829Y401413D01*
X355769Y401596D01*
X355711Y401780D01*
X355706Y401788D01*
X355704Y401796D01*
X355609Y401963D01*
X355516Y402132D01*
X355510Y402139D01*
X355506Y402147D01*
X355380Y402292D01*
X355256Y402439D01*
X355248Y402445D01*
X355243Y402452D01*
X355090Y402570D01*
X354940Y402689D01*
X354932Y402693D01*
X354925Y402698D01*
X354751Y402785D01*
X354581Y402871D01*
X354572Y402874D01*
X354564Y402878D01*
X354377Y402928D01*
X354193Y402979D01*
X354184Y402980D01*
X354175Y402982D01*
X353845Y403009D01*
X352730Y403009D01*
X350415Y405325D01*
X350402Y405361D01*
X350351Y405528D01*
X350339Y405551D01*
X350330Y405576D01*
X350243Y405728D01*
X350159Y405882D01*
X350142Y405902D01*
X350129Y405925D01*
X349914Y406178D01*
X347958Y408134D01*
X347951Y408140D01*
X347946Y408147D01*
X347796Y408267D01*
X347647Y408389D01*
X347639Y408394D01*
X347632Y408399D01*
X347462Y408488D01*
X347291Y408578D01*
X347282Y408581D01*
X347275Y408585D01*
X347090Y408638D01*
X346905Y408693D01*
X346896Y408694D01*
X346888Y408696D01*
X346697Y408712D01*
X346504Y408729D01*
X346495Y408728D01*
X346486Y408729D01*
X346297Y408707D01*
X346104Y408686D01*
X346095Y408683D01*
X346087Y408682D01*
X345905Y408623D01*
X345720Y408564D01*
X345712Y408560D01*
X345704Y408557D01*
X345537Y408463D01*
X345368Y408370D01*
X345361Y408364D01*
X345353Y408359D01*
X345208Y408234D01*
X345061Y408109D01*
X345055Y408102D01*
X345048Y408096D01*
X344932Y407946D01*
X344811Y407793D01*
X344807Y407785D01*
X344802Y407778D01*
X344716Y407607D01*
X344629Y407434D01*
X344626Y407426D01*
X344622Y407418D01*
X344572Y407232D01*
X344521Y407046D01*
X344520Y407037D01*
X344518Y407029D01*
X344491Y406698D01*
X344491Y405230D01*
X342270Y403009D01*
X339130Y403009D01*
X339037Y403102D01*
X339016Y403119D01*
X338999Y403140D01*
X338861Y403247D01*
X338725Y403357D01*
X338702Y403370D01*
X338680Y403386D01*
X338524Y403464D01*
X338370Y403546D01*
X338344Y403554D01*
X338320Y403566D01*
X338151Y403611D01*
X337984Y403661D01*
X337957Y403663D01*
X337931Y403670D01*
X337600Y403697D01*
X268435Y403697D01*
X268409Y403695D01*
X268382Y403697D01*
X268208Y403675D01*
X268034Y403657D01*
X268009Y403650D01*
X267982Y403646D01*
X267817Y403591D01*
X267650Y403539D01*
X267626Y403526D01*
X267601Y403518D01*
X267449Y403431D01*
X267296Y403347D01*
X267275Y403330D01*
X267252Y403317D01*
X266999Y403102D01*
X266063Y402167D01*
X263751Y401209D01*
X261249Y401209D01*
X258937Y402167D01*
X257167Y403937D01*
X256209Y406249D01*
X256209Y408751D01*
X257167Y411063D01*
X258937Y412833D01*
X261249Y413791D01*
X263751Y413791D01*
X266063Y412833D01*
X267999Y410898D01*
X268013Y410886D01*
X268023Y410875D01*
X268029Y410870D01*
X268037Y410860D01*
X268175Y410753D01*
X268310Y410643D01*
X268334Y410630D01*
X268355Y410614D01*
X268512Y410536D01*
X268666Y410454D01*
X268692Y410446D01*
X268716Y410434D01*
X268885Y410389D01*
X269052Y410339D01*
X269079Y410337D01*
X269104Y410330D01*
X269435Y410303D01*
X338000Y410303D01*
X338027Y410305D01*
X338054Y410303D01*
X338228Y410325D01*
X338401Y410343D01*
X338427Y410350D01*
X338453Y410354D01*
X338619Y410409D01*
X338786Y410461D01*
X338810Y410474D01*
X338835Y410482D01*
X338987Y410569D01*
X339026Y410591D01*
X340598Y410591D01*
X340607Y410592D01*
X340617Y410591D01*
X340808Y410612D01*
X340999Y410631D01*
X341008Y410633D01*
X341017Y410634D01*
X341200Y410692D01*
X341384Y410749D01*
X341392Y410753D01*
X341401Y410756D01*
X341568Y410849D01*
X341738Y410941D01*
X341745Y410946D01*
X341753Y410951D01*
X341900Y411076D01*
X342047Y411198D01*
X342053Y411206D01*
X342060Y411212D01*
X342179Y411362D01*
X342299Y411512D01*
X342304Y411520D01*
X342309Y411528D01*
X342397Y411699D01*
X342485Y411869D01*
X342487Y411878D01*
X342492Y411887D01*
X342543Y412073D01*
X342596Y412256D01*
X342597Y412266D01*
X342599Y412275D01*
X342613Y412467D01*
X342629Y412658D01*
X342628Y412667D01*
X342629Y412676D01*
X342604Y412867D01*
X342582Y413057D01*
X342579Y413066D01*
X342578Y413076D01*
X342517Y413257D01*
X342457Y413440D01*
X342453Y413448D01*
X342450Y413457D01*
X342354Y413623D01*
X342259Y413791D01*
X342253Y413798D01*
X342249Y413806D01*
X342034Y414059D01*
X341998Y414095D01*
X341977Y414112D01*
X341960Y414132D01*
X341822Y414239D01*
X341686Y414350D01*
X341663Y414362D01*
X341642Y414378D01*
X341485Y414456D01*
X341330Y414538D01*
X341305Y414546D01*
X341281Y414558D01*
X341112Y414603D01*
X340944Y414653D01*
X340918Y414655D01*
X340893Y414662D01*
X340562Y414689D01*
X320422Y414689D01*
X310189Y424922D01*
X310189Y466573D01*
X310187Y466599D01*
X310189Y466626D01*
X310167Y466800D01*
X310149Y466974D01*
X310142Y466999D01*
X310138Y467026D01*
X310083Y467191D01*
X310031Y467358D01*
X310018Y467382D01*
X310010Y467407D01*
X309923Y467559D01*
X309839Y467712D01*
X309822Y467733D01*
X309809Y467756D01*
X309594Y468009D01*
X308667Y468937D01*
X307709Y471249D01*
X307709Y473751D01*
X308667Y476063D01*
X310437Y477833D01*
X312749Y478791D01*
X315251Y478791D01*
X317563Y477833D01*
X319333Y476063D01*
X320291Y473751D01*
X320291Y471249D01*
X319333Y468937D01*
X318406Y468009D01*
X318389Y467988D01*
X318368Y467971D01*
X318261Y467833D01*
X318151Y467698D01*
X318138Y467674D01*
X318122Y467653D01*
X318044Y467496D01*
X317962Y467342D01*
X317954Y467316D01*
X317942Y467292D01*
X317897Y467123D01*
X317847Y466956D01*
X317845Y466929D01*
X317838Y466904D01*
X317811Y466573D01*
X317811Y430051D01*
X317811Y430047D01*
X317811Y430042D01*
X317831Y429848D01*
X317851Y429651D01*
X317852Y429646D01*
X317852Y429642D01*
X317911Y429454D01*
X317969Y429266D01*
X317971Y429262D01*
X317972Y429257D01*
X318068Y429083D01*
X318161Y428912D01*
X318163Y428908D01*
X318166Y428904D01*
X318294Y428751D01*
X318418Y428602D01*
X318422Y428600D01*
X318425Y428596D01*
X318579Y428473D01*
X318732Y428350D01*
X318736Y428348D01*
X318739Y428345D01*
X318914Y428256D01*
X319089Y428165D01*
X319094Y428163D01*
X319098Y428161D01*
X319285Y428108D01*
X319476Y428053D01*
X319481Y428053D01*
X319485Y428052D01*
X319678Y428037D01*
X319878Y428020D01*
X319882Y428021D01*
X319886Y428020D01*
X320080Y428044D01*
X320277Y428067D01*
X320282Y428069D01*
X320286Y428069D01*
X320471Y428130D01*
X320660Y428192D01*
X320664Y428194D01*
X320668Y428196D01*
X320837Y428292D01*
X321011Y428390D01*
X321014Y428393D01*
X321018Y428395D01*
X321167Y428525D01*
X321315Y428653D01*
X321318Y428657D01*
X321322Y428660D01*
X321444Y428818D01*
X321562Y428971D01*
X321564Y428975D01*
X321567Y428979D01*
X321719Y429274D01*
X322667Y431563D01*
X324102Y432999D01*
X324119Y433020D01*
X324140Y433037D01*
X324247Y433175D01*
X324357Y433310D01*
X324370Y433334D01*
X324386Y433355D01*
X324464Y433512D01*
X324546Y433666D01*
X324554Y433692D01*
X324566Y433716D01*
X324611Y433885D01*
X324661Y434052D01*
X324663Y434079D01*
X324670Y434104D01*
X324697Y434435D01*
X324697Y494368D01*
X366102Y535773D01*
X366119Y535794D01*
X366140Y535811D01*
X366247Y535949D01*
X366357Y536085D01*
X366370Y536108D01*
X366386Y536129D01*
X366464Y536286D01*
X366546Y536440D01*
X366554Y536466D01*
X366566Y536490D01*
X366611Y536659D01*
X366661Y536826D01*
X366663Y536853D01*
X366670Y536879D01*
X366697Y537209D01*
X366697Y543565D01*
X366695Y543591D01*
X366697Y543618D01*
X366675Y543792D01*
X366657Y543966D01*
X366650Y543991D01*
X366646Y544018D01*
X366591Y544183D01*
X366539Y544350D01*
X366526Y544374D01*
X366518Y544399D01*
X366431Y544551D01*
X366347Y544704D01*
X366330Y544725D01*
X366317Y544748D01*
X366102Y545001D01*
X364667Y546437D01*
X363709Y548749D01*
X363709Y551251D01*
X364667Y553563D01*
X366437Y555333D01*
X368749Y556291D01*
X371251Y556291D01*
X373563Y555333D01*
X375333Y553563D01*
X376291Y551251D01*
X376291Y548749D01*
X375333Y546437D01*
X373898Y545001D01*
X373881Y544980D01*
X373860Y544963D01*
X373753Y544825D01*
X373643Y544690D01*
X373630Y544666D01*
X373614Y544645D01*
X373536Y544488D01*
X373454Y544334D01*
X373446Y544308D01*
X373434Y544284D01*
X373389Y544115D01*
X373339Y543948D01*
X373337Y543921D01*
X373330Y543896D01*
X373303Y543565D01*
X373303Y533632D01*
X331898Y492227D01*
X331881Y492206D01*
X331860Y492189D01*
X331753Y492051D01*
X331643Y491915D01*
X331630Y491892D01*
X331614Y491871D01*
X331536Y491714D01*
X331454Y491560D01*
X331446Y491534D01*
X331434Y491510D01*
X331389Y491341D01*
X331339Y491174D01*
X331337Y491147D01*
X331330Y491121D01*
X331303Y490791D01*
X331303Y434435D01*
X331305Y434409D01*
X331303Y434382D01*
X331325Y434208D01*
X331343Y434034D01*
X331350Y434009D01*
X331354Y433983D01*
X331409Y433817D01*
X331461Y433650D01*
X331473Y433626D01*
X331482Y433601D01*
X331569Y433449D01*
X331653Y433296D01*
X331670Y433275D01*
X331683Y433252D01*
X331898Y432999D01*
X332064Y432833D01*
X332077Y432822D01*
X332089Y432808D01*
X332233Y432694D01*
X332375Y432578D01*
X332391Y432569D01*
X332405Y432558D01*
X332569Y432475D01*
X332731Y432389D01*
X332748Y432384D01*
X332764Y432376D01*
X332941Y432327D01*
X333117Y432274D01*
X333134Y432273D01*
X333152Y432268D01*
X333335Y432255D01*
X333518Y432238D01*
X333535Y432240D01*
X333553Y432239D01*
X333735Y432261D01*
X333918Y432281D01*
X333935Y432287D01*
X333953Y432289D01*
X334127Y432347D01*
X334302Y432403D01*
X334317Y432411D01*
X334334Y432417D01*
X334493Y432509D01*
X334654Y432598D01*
X334668Y432609D01*
X334683Y432618D01*
X334936Y432833D01*
X335102Y432999D01*
X335119Y433020D01*
X335140Y433037D01*
X335247Y433175D01*
X335357Y433310D01*
X335370Y433334D01*
X335386Y433355D01*
X335464Y433512D01*
X335546Y433666D01*
X335554Y433692D01*
X335566Y433716D01*
X335611Y433885D01*
X335661Y434052D01*
X335663Y434079D01*
X335670Y434104D01*
X335697Y434435D01*
X335697Y480368D01*
X391602Y536273D01*
X391619Y536294D01*
X391640Y536311D01*
X391747Y536449D01*
X391857Y536585D01*
X391870Y536608D01*
X391886Y536629D01*
X391964Y536786D01*
X392046Y536940D01*
X392054Y536966D01*
X392066Y536990D01*
X392111Y537159D01*
X392161Y537326D01*
X392163Y537353D01*
X392170Y537379D01*
X392197Y537709D01*
X392197Y543565D01*
X392195Y543591D01*
X392197Y543618D01*
X392175Y543792D01*
X392157Y543966D01*
X392150Y543991D01*
X392146Y544018D01*
X392091Y544183D01*
X392039Y544350D01*
X392026Y544374D01*
X392018Y544399D01*
X391931Y544551D01*
X391847Y544704D01*
X391830Y544725D01*
X391817Y544748D01*
X391602Y545001D01*
X390167Y546437D01*
X389209Y548749D01*
X389209Y551251D01*
X390167Y553563D01*
X391937Y555333D01*
X394249Y556291D01*
X396751Y556291D01*
X399063Y555333D01*
X400833Y553563D01*
X401791Y551251D01*
X401791Y548749D01*
X400833Y546437D01*
X399398Y545001D01*
X399381Y544980D01*
X399360Y544963D01*
X399253Y544825D01*
X399143Y544690D01*
X399130Y544666D01*
X399114Y544645D01*
X399036Y544488D01*
X398954Y544334D01*
X398946Y544308D01*
X398934Y544284D01*
X398889Y544115D01*
X398839Y543948D01*
X398837Y543921D01*
X398830Y543896D01*
X398803Y543565D01*
X398803Y534132D01*
X342898Y478227D01*
X342881Y478206D01*
X342860Y478189D01*
X342753Y478051D01*
X342643Y477915D01*
X342630Y477892D01*
X342614Y477871D01*
X342536Y477714D01*
X342454Y477560D01*
X342446Y477534D01*
X342434Y477510D01*
X342389Y477341D01*
X342339Y477174D01*
X342337Y477147D01*
X342330Y477121D01*
X342303Y476791D01*
X342303Y434435D01*
X342305Y434409D01*
X342303Y434382D01*
X342325Y434208D01*
X342343Y434034D01*
X342350Y434009D01*
X342354Y433983D01*
X342409Y433817D01*
X342461Y433650D01*
X342473Y433626D01*
X342482Y433601D01*
X342569Y433449D01*
X342653Y433296D01*
X342670Y433275D01*
X342683Y433252D01*
X342898Y432999D01*
X343064Y432833D01*
X343077Y432822D01*
X343089Y432808D01*
X343233Y432694D01*
X343375Y432578D01*
X343391Y432569D01*
X343405Y432558D01*
X343569Y432475D01*
X343731Y432389D01*
X343748Y432384D01*
X343764Y432376D01*
X343941Y432327D01*
X344117Y432274D01*
X344134Y432273D01*
X344152Y432268D01*
X344335Y432255D01*
X344518Y432238D01*
X344535Y432240D01*
X344553Y432239D01*
X344735Y432261D01*
X344918Y432281D01*
X344935Y432287D01*
X344953Y432289D01*
X345127Y432347D01*
X345302Y432403D01*
X345317Y432411D01*
X345334Y432417D01*
X345493Y432509D01*
X345654Y432598D01*
X345668Y432609D01*
X345683Y432618D01*
X345936Y432833D01*
X346102Y432999D01*
X346119Y433020D01*
X346140Y433037D01*
X346247Y433175D01*
X346357Y433310D01*
X346370Y433334D01*
X346386Y433355D01*
X346464Y433512D01*
X346546Y433666D01*
X346554Y433692D01*
X346566Y433716D01*
X346611Y433885D01*
X346661Y434052D01*
X346663Y434079D01*
X346670Y434104D01*
X346697Y434435D01*
X346697Y471368D01*
X417102Y541773D01*
X417119Y541794D01*
X417140Y541811D01*
X417247Y541949D01*
X417357Y542085D01*
X417370Y542108D01*
X417386Y542129D01*
X417464Y542286D01*
X417546Y542440D01*
X417554Y542466D01*
X417566Y542490D01*
X417611Y542659D01*
X417661Y542826D01*
X417663Y542853D01*
X417670Y542879D01*
X417697Y543209D01*
X417697Y543565D01*
X417695Y543591D01*
X417697Y543618D01*
X417675Y543792D01*
X417657Y543966D01*
X417650Y543991D01*
X417646Y544018D01*
X417591Y544183D01*
X417539Y544350D01*
X417526Y544374D01*
X417518Y544399D01*
X417431Y544551D01*
X417347Y544704D01*
X417330Y544725D01*
X417317Y544748D01*
X417102Y545001D01*
X415667Y546437D01*
X414709Y548749D01*
X414709Y551251D01*
X415667Y553563D01*
X417437Y555333D01*
X419749Y556291D01*
X422251Y556291D01*
X424563Y555333D01*
X426333Y553563D01*
X427291Y551251D01*
X427291Y548749D01*
X426333Y546437D01*
X424898Y545001D01*
X424881Y544980D01*
X424860Y544963D01*
X424753Y544825D01*
X424643Y544690D01*
X424630Y544666D01*
X424614Y544645D01*
X424536Y544488D01*
X424454Y544334D01*
X424446Y544308D01*
X424434Y544284D01*
X424389Y544115D01*
X424339Y543948D01*
X424337Y543921D01*
X424330Y543896D01*
X424303Y543565D01*
X424303Y539632D01*
X353898Y469227D01*
X353881Y469206D01*
X353860Y469189D01*
X353753Y469051D01*
X353643Y468915D01*
X353630Y468892D01*
X353614Y468871D01*
X353536Y468714D01*
X353454Y468560D01*
X353446Y468534D01*
X353434Y468510D01*
X353389Y468341D01*
X353339Y468174D01*
X353337Y468147D01*
X353330Y468121D01*
X353303Y467791D01*
X353303Y434435D01*
X353305Y434409D01*
X353303Y434382D01*
X353325Y434208D01*
X353343Y434034D01*
X353350Y434009D01*
X353354Y433982D01*
X353409Y433817D01*
X353461Y433650D01*
X353474Y433626D01*
X353482Y433601D01*
X353569Y433449D01*
X353653Y433296D01*
X353670Y433275D01*
X353683Y433252D01*
X353898Y432999D01*
X354064Y432833D01*
X354078Y432821D01*
X354089Y432808D01*
X354233Y432694D01*
X354375Y432578D01*
X354391Y432569D01*
X354405Y432558D01*
X354569Y432475D01*
X354731Y432389D01*
X354748Y432384D01*
X354764Y432376D01*
X354941Y432326D01*
X355117Y432274D01*
X355135Y432273D01*
X355152Y432268D01*
X355335Y432254D01*
X355518Y432238D01*
X355536Y432240D01*
X355553Y432239D01*
X355735Y432261D01*
X355918Y432281D01*
X355935Y432287D01*
X355953Y432289D01*
X356126Y432347D01*
X356302Y432403D01*
X356318Y432411D01*
X356334Y432417D01*
X356494Y432509D01*
X356654Y432598D01*
X356668Y432609D01*
X356683Y432618D01*
X356936Y432833D01*
X357102Y432999D01*
X357119Y433019D01*
X357140Y433037D01*
X357247Y433175D01*
X357357Y433310D01*
X357370Y433334D01*
X357386Y433355D01*
X357464Y433512D01*
X357546Y433666D01*
X357554Y433691D01*
X357566Y433716D01*
X357611Y433885D01*
X357661Y434052D01*
X357663Y434078D01*
X357670Y434104D01*
X357697Y434435D01*
X357697Y462368D01*
X440029Y544700D01*
X440043Y544717D01*
X440060Y544732D01*
X440171Y544873D01*
X440284Y545011D01*
X440295Y545031D01*
X440308Y545049D01*
X440389Y545209D01*
X440473Y545367D01*
X440479Y545388D01*
X440489Y545408D01*
X440537Y545581D01*
X440588Y545753D01*
X440590Y545775D01*
X440595Y545797D01*
X440608Y545975D01*
X440624Y546154D01*
X440622Y546176D01*
X440623Y546198D01*
X440600Y546376D01*
X440581Y546554D01*
X440574Y546575D01*
X440571Y546598D01*
X440469Y546914D01*
X439709Y548749D01*
X439709Y551251D01*
X440667Y553563D01*
X442437Y555333D01*
X444749Y556291D01*
X447251Y556291D01*
X449563Y555333D01*
X451333Y553563D01*
X452291Y551251D01*
X452291Y548749D01*
X451333Y546437D01*
X449563Y544667D01*
X449552Y544662D01*
X449524Y544647D01*
X449494Y544637D01*
X449347Y544553D01*
X449197Y544472D01*
X449172Y544452D01*
X449145Y544436D01*
X448892Y544222D01*
X446773Y542102D01*
X364898Y460227D01*
X364881Y460206D01*
X364860Y460189D01*
X364753Y460051D01*
X364643Y459915D01*
X364630Y459892D01*
X364614Y459871D01*
X364536Y459714D01*
X364454Y459560D01*
X364446Y459534D01*
X364434Y459510D01*
X364389Y459341D01*
X364339Y459174D01*
X364337Y459147D01*
X364330Y459121D01*
X364303Y458791D01*
X364303Y434435D01*
X364305Y434409D01*
X364303Y434382D01*
X364325Y434208D01*
X364343Y434034D01*
X364350Y434009D01*
X364354Y433982D01*
X364409Y433817D01*
X364461Y433650D01*
X364474Y433626D01*
X364482Y433601D01*
X364569Y433449D01*
X364653Y433296D01*
X364670Y433275D01*
X364683Y433252D01*
X364898Y432999D01*
X365064Y432833D01*
X365077Y432821D01*
X365089Y432808D01*
X365233Y432694D01*
X365375Y432578D01*
X365391Y432569D01*
X365405Y432558D01*
X365569Y432475D01*
X365731Y432389D01*
X365748Y432384D01*
X365764Y432376D01*
X365941Y432326D01*
X366117Y432274D01*
X366135Y432273D01*
X366152Y432268D01*
X366335Y432254D01*
X366518Y432238D01*
X366536Y432240D01*
X366553Y432239D01*
X366735Y432261D01*
X366918Y432281D01*
X366935Y432287D01*
X366953Y432289D01*
X367126Y432347D01*
X367302Y432403D01*
X367318Y432411D01*
X367334Y432417D01*
X367494Y432509D01*
X367654Y432598D01*
X367668Y432609D01*
X367683Y432618D01*
X367936Y432833D01*
X368102Y432999D01*
X368119Y433020D01*
X368140Y433037D01*
X368247Y433175D01*
X368357Y433310D01*
X368370Y433334D01*
X368386Y433355D01*
X368464Y433512D01*
X368546Y433666D01*
X368554Y433692D01*
X368566Y433716D01*
X368611Y433885D01*
X368661Y434052D01*
X368663Y434079D01*
X368670Y434104D01*
X368697Y434435D01*
X368697Y451868D01*
X464614Y547785D01*
X464631Y547806D01*
X464652Y547823D01*
X464759Y547961D01*
X464869Y548097D01*
X464882Y548120D01*
X464898Y548141D01*
X464976Y548298D01*
X465058Y548452D01*
X465066Y548478D01*
X465078Y548502D01*
X465123Y548671D01*
X465173Y548838D01*
X465175Y548865D01*
X465182Y548891D01*
X465209Y549221D01*
X465209Y551251D01*
X466167Y553563D01*
X467937Y555333D01*
X470249Y556291D01*
X472751Y556291D01*
X475063Y555333D01*
X476833Y553563D01*
X477791Y551251D01*
X477791Y548749D01*
X476833Y546437D01*
X475063Y544667D01*
X472751Y543709D01*
X470721Y543709D01*
X470695Y543707D01*
X470668Y543709D01*
X470494Y543687D01*
X470321Y543669D01*
X470295Y543662D01*
X470269Y543658D01*
X470103Y543603D01*
X469936Y543551D01*
X469912Y543538D01*
X469887Y543530D01*
X469735Y543443D01*
X469582Y543359D01*
X469561Y543342D01*
X469538Y543329D01*
X469285Y543114D01*
X375898Y449727D01*
X375881Y449706D01*
X375860Y449689D01*
X375753Y449551D01*
X375643Y449415D01*
X375630Y449392D01*
X375614Y449371D01*
X375536Y449214D01*
X375454Y449060D01*
X375446Y449034D01*
X375434Y449010D01*
X375389Y448841D01*
X375339Y448674D01*
X375337Y448647D01*
X375330Y448621D01*
X375303Y448291D01*
X375303Y437877D01*
X375304Y437869D01*
X375303Y437860D01*
X375324Y437668D01*
X375343Y437477D01*
X375345Y437468D01*
X375346Y437459D01*
X375404Y437277D01*
X375461Y437092D01*
X375465Y437084D01*
X375468Y437075D01*
X375561Y436907D01*
X375653Y436738D01*
X375658Y436731D01*
X375663Y436723D01*
X375788Y436575D01*
X375910Y436429D01*
X375917Y436423D01*
X375923Y436416D01*
X376075Y436296D01*
X376224Y436176D01*
X376232Y436172D01*
X376239Y436167D01*
X376412Y436079D01*
X376581Y435991D01*
X376590Y435988D01*
X376598Y435984D01*
X376783Y435933D01*
X376968Y435879D01*
X376977Y435879D01*
X376986Y435876D01*
X377178Y435862D01*
X377370Y435846D01*
X377378Y435847D01*
X377387Y435847D01*
X377578Y435871D01*
X377769Y435893D01*
X377778Y435896D01*
X377787Y435897D01*
X377968Y435958D01*
X378152Y436018D01*
X378160Y436023D01*
X378168Y436025D01*
X378336Y436122D01*
X378503Y436216D01*
X378510Y436222D01*
X378517Y436226D01*
X378770Y436441D01*
X379727Y437397D01*
X379727Y437398D01*
X490114Y547785D01*
X490131Y547806D01*
X490152Y547823D01*
X490259Y547961D01*
X490369Y548097D01*
X490382Y548120D01*
X490398Y548141D01*
X490476Y548298D01*
X490558Y548452D01*
X490566Y548478D01*
X490578Y548502D01*
X490623Y548671D01*
X490673Y548838D01*
X490675Y548865D01*
X490682Y548891D01*
X490709Y549221D01*
X490709Y551251D01*
X491667Y553563D01*
X493437Y555333D01*
X495749Y556291D01*
X498251Y556291D01*
X500563Y555333D01*
X502333Y553563D01*
X503291Y551251D01*
X503291Y548749D01*
X502333Y546437D01*
X500563Y544667D01*
X498251Y543709D01*
X496221Y543709D01*
X496195Y543707D01*
X496168Y543709D01*
X495994Y543687D01*
X495821Y543669D01*
X495795Y543662D01*
X495769Y543658D01*
X495603Y543603D01*
X495436Y543551D01*
X495412Y543538D01*
X495387Y543530D01*
X495235Y543443D01*
X495082Y543359D01*
X495061Y543342D01*
X495038Y543329D01*
X494785Y543114D01*
X384398Y432727D01*
X384381Y432706D01*
X384360Y432689D01*
X384253Y432551D01*
X384143Y432415D01*
X384130Y432392D01*
X384114Y432371D01*
X384036Y432214D01*
X383954Y432060D01*
X383946Y432034D01*
X383934Y432010D01*
X383889Y431841D01*
X383839Y431674D01*
X383837Y431647D01*
X383830Y431621D01*
X383803Y431291D01*
X383803Y424132D01*
X381273Y421602D01*
X364641Y404970D01*
X364635Y404963D01*
X364629Y404958D01*
X364507Y404806D01*
X364386Y404659D01*
X364382Y404651D01*
X364376Y404644D01*
X364288Y404474D01*
X364197Y404303D01*
X364195Y404294D01*
X364191Y404287D01*
X364138Y404102D01*
X364083Y403917D01*
X364082Y403908D01*
X364079Y403900D01*
X364064Y403708D01*
X364046Y403516D01*
X364047Y403507D01*
X364046Y403498D01*
X364069Y403308D01*
X364090Y403116D01*
X364092Y403107D01*
X364093Y403099D01*
X364153Y402917D01*
X364211Y402732D01*
X364215Y402724D01*
X364218Y402716D01*
X364313Y402547D01*
X364406Y402380D01*
X364412Y402373D01*
X364416Y402365D01*
X364542Y402219D01*
X364666Y402073D01*
X364673Y402067D01*
X364679Y402060D01*
X364831Y401943D01*
X364982Y401823D01*
X364990Y401819D01*
X364997Y401814D01*
X365169Y401728D01*
X365341Y401641D01*
X365350Y401638D01*
X365358Y401634D01*
X365544Y401584D01*
X365729Y401533D01*
X365738Y401532D01*
X365747Y401530D01*
X366077Y401503D01*
X367032Y401503D01*
X367059Y401505D01*
X367085Y401503D01*
X367259Y401525D01*
X367433Y401543D01*
X367458Y401550D01*
X367485Y401554D01*
X367650Y401609D01*
X367818Y401661D01*
X367841Y401674D01*
X367866Y401682D01*
X368018Y401769D01*
X368172Y401853D01*
X368192Y401870D01*
X368215Y401883D01*
X368468Y402098D01*
X387447Y421077D01*
X415565Y421077D01*
X415591Y421079D01*
X415618Y421077D01*
X415792Y421099D01*
X415965Y421117D01*
X415991Y421124D01*
X416017Y421128D01*
X416183Y421183D01*
X416350Y421235D01*
X416374Y421248D01*
X416399Y421256D01*
X416551Y421343D01*
X416704Y421427D01*
X416725Y421444D01*
X416748Y421457D01*
X417001Y421672D01*
X428364Y433035D01*
X428381Y433056D01*
X428402Y433073D01*
X428509Y433211D01*
X428619Y433347D01*
X428632Y433370D01*
X428648Y433391D01*
X428726Y433548D01*
X428808Y433702D01*
X428816Y433728D01*
X428828Y433752D01*
X428873Y433921D01*
X428923Y434088D01*
X428925Y434115D01*
X428932Y434141D01*
X428959Y434471D01*
X428959Y436202D01*
X429879Y438422D01*
X431578Y440121D01*
X433798Y441041D01*
X436202Y441041D01*
X438422Y440121D01*
X440121Y438422D01*
X441041Y436202D01*
X441041Y433798D01*
X440121Y431578D01*
X438422Y429879D01*
X436202Y428959D01*
X434471Y428959D01*
X434445Y428957D01*
X434418Y428959D01*
X434244Y428937D01*
X434071Y428919D01*
X434045Y428912D01*
X434019Y428908D01*
X433853Y428853D01*
X433686Y428801D01*
X433662Y428788D01*
X433637Y428780D01*
X433485Y428693D01*
X433332Y428609D01*
X433311Y428592D01*
X433288Y428579D01*
X433035Y428364D01*
X419142Y414471D01*
X391025Y414471D01*
X390998Y414469D01*
X390972Y414471D01*
X390798Y414449D01*
X390624Y414431D01*
X390599Y414424D01*
X390572Y414420D01*
X390406Y414365D01*
X390239Y414313D01*
X390216Y414300D01*
X390190Y414292D01*
X390039Y414205D01*
X389885Y414121D01*
X389865Y414104D01*
X389842Y414091D01*
X389589Y413876D01*
X370609Y394897D01*
X367177Y394897D01*
X367169Y394896D01*
X367160Y394897D01*
X366966Y394876D01*
X366777Y394857D01*
X366768Y394855D01*
X366759Y394854D01*
X366575Y394795D01*
X366392Y394739D01*
X366384Y394735D01*
X366375Y394732D01*
X366207Y394639D01*
X366038Y394547D01*
X366031Y394542D01*
X366023Y394537D01*
X365876Y394413D01*
X365729Y394290D01*
X365723Y394283D01*
X365716Y394277D01*
X365596Y394125D01*
X365476Y393976D01*
X365472Y393968D01*
X365467Y393961D01*
X365379Y393788D01*
X365291Y393619D01*
X365288Y393610D01*
X365284Y393602D01*
X365232Y393416D01*
X365179Y393232D01*
X365179Y393223D01*
X365176Y393214D01*
X365162Y393021D01*
X365146Y392830D01*
X365147Y392822D01*
X365147Y392813D01*
X365171Y392620D01*
X365193Y392431D01*
X365196Y392422D01*
X365197Y392413D01*
X365258Y392231D01*
X365318Y392048D01*
X365323Y392040D01*
X365325Y392032D01*
X365422Y391865D01*
X365516Y391697D01*
X365522Y391690D01*
X365526Y391683D01*
X365741Y391430D01*
X380761Y376410D01*
X380778Y376396D01*
X380792Y376379D01*
X380933Y376269D01*
X381072Y376155D01*
X381092Y376145D01*
X381109Y376131D01*
X381270Y376050D01*
X381428Y375967D01*
X381449Y375960D01*
X381469Y375950D01*
X381642Y375903D01*
X381814Y375852D01*
X381836Y375850D01*
X381857Y375844D01*
X382036Y375832D01*
X382215Y375815D01*
X382237Y375818D01*
X382259Y375816D01*
X382437Y375839D01*
X382615Y375859D01*
X382636Y375866D01*
X382658Y375868D01*
X382974Y375970D01*
X383749Y376291D01*
X386251Y376291D01*
X388563Y375333D01*
X389730Y374167D01*
X389737Y374161D01*
X389742Y374154D01*
X389893Y374033D01*
X390041Y373912D01*
X390049Y373907D01*
X390056Y373902D01*
X390226Y373813D01*
X390397Y373723D01*
X390406Y373720D01*
X390413Y373716D01*
X390598Y373663D01*
X390783Y373608D01*
X390792Y373607D01*
X390800Y373605D01*
X390991Y373589D01*
X391184Y373572D01*
X391193Y373573D01*
X391202Y373572D01*
X391391Y373594D01*
X391584Y373615D01*
X391593Y373618D01*
X391601Y373619D01*
X391783Y373678D01*
X391968Y373737D01*
X391976Y373741D01*
X391984Y373744D01*
X392151Y373838D01*
X392320Y373932D01*
X392327Y373937D01*
X392335Y373942D01*
X392478Y374065D01*
X392627Y374192D01*
X392633Y374199D01*
X392640Y374205D01*
X392756Y374355D01*
X392877Y374508D01*
X392881Y374516D01*
X392886Y374523D01*
X392971Y374694D01*
X393059Y374867D01*
X393062Y374876D01*
X393066Y374884D01*
X393115Y375069D01*
X393167Y375255D01*
X393168Y375264D01*
X393170Y375272D01*
X393197Y375603D01*
X393197Y396065D01*
X393195Y396091D01*
X393197Y396118D01*
X393175Y396292D01*
X393157Y396466D01*
X393150Y396491D01*
X393146Y396518D01*
X393091Y396683D01*
X393039Y396850D01*
X393026Y396874D01*
X393018Y396899D01*
X392931Y397051D01*
X392847Y397204D01*
X392830Y397225D01*
X392817Y397248D01*
X392602Y397501D01*
X391167Y398937D01*
X390209Y401249D01*
X390209Y403751D01*
X391167Y406063D01*
X392937Y407833D01*
X395249Y408791D01*
X397751Y408791D01*
X400063Y407833D01*
X401833Y406063D01*
X402791Y403751D01*
X402791Y401249D01*
X401833Y398937D01*
X400398Y397501D01*
X400381Y397480D01*
X400360Y397463D01*
X400253Y397325D01*
X400143Y397190D01*
X400130Y397166D01*
X400114Y397145D01*
X400036Y396988D01*
X399954Y396834D01*
X399946Y396808D01*
X399934Y396784D01*
X399889Y396615D01*
X399839Y396448D01*
X399837Y396421D01*
X399830Y396396D01*
X399803Y396065D01*
X399803Y364435D01*
X399805Y364409D01*
X399803Y364382D01*
X399825Y364208D01*
X399843Y364034D01*
X399850Y364009D01*
X399854Y363982D01*
X399909Y363817D01*
X399961Y363650D01*
X399974Y363626D01*
X399982Y363601D01*
X400069Y363449D01*
X400153Y363296D01*
X400170Y363275D01*
X400183Y363252D01*
X400398Y362999D01*
X401833Y361563D01*
X402791Y359251D01*
X402791Y356749D01*
X401833Y354437D01*
X400063Y352667D01*
X397751Y351709D01*
X395249Y351709D01*
G37*
%LPD*%
%LPC*%
G36*
X331749Y133709D02*
X331749Y133709D01*
X329437Y134667D01*
X328001Y136102D01*
X327980Y136119D01*
X327963Y136140D01*
X327825Y136247D01*
X327690Y136357D01*
X327666Y136370D01*
X327645Y136386D01*
X327488Y136464D01*
X327334Y136546D01*
X327308Y136554D01*
X327284Y136566D01*
X327115Y136611D01*
X326948Y136661D01*
X326921Y136663D01*
X326896Y136670D01*
X326565Y136697D01*
X207632Y136697D01*
X196315Y148014D01*
X196294Y148031D01*
X196277Y148052D01*
X196139Y148159D01*
X196003Y148269D01*
X195980Y148282D01*
X195959Y148298D01*
X195802Y148376D01*
X195648Y148458D01*
X195622Y148466D01*
X195598Y148478D01*
X195429Y148523D01*
X195262Y148573D01*
X195235Y148575D01*
X195209Y148582D01*
X194879Y148609D01*
X181709Y148609D01*
X180220Y150098D01*
X180220Y152166D01*
X180218Y152184D01*
X180220Y152202D01*
X180199Y152384D01*
X180180Y152567D01*
X180175Y152584D01*
X180173Y152601D01*
X180116Y152776D01*
X180062Y152952D01*
X180054Y152967D01*
X180048Y152984D01*
X179958Y153144D01*
X179870Y153306D01*
X179859Y153319D01*
X179850Y153335D01*
X179730Y153474D01*
X179613Y153615D01*
X179599Y153626D01*
X179587Y153640D01*
X179442Y153752D01*
X179299Y153867D01*
X179283Y153875D01*
X179269Y153886D01*
X179104Y153968D01*
X178942Y154053D01*
X178925Y154058D01*
X178909Y154066D01*
X178730Y154113D01*
X178555Y154164D01*
X178537Y154166D01*
X178520Y154170D01*
X178189Y154197D01*
X144082Y154197D01*
X144055Y154195D01*
X144028Y154197D01*
X143854Y154175D01*
X143681Y154157D01*
X143655Y154150D01*
X143629Y154146D01*
X143463Y154091D01*
X143296Y154039D01*
X143272Y154026D01*
X143247Y154018D01*
X143095Y153931D01*
X142942Y153847D01*
X142922Y153830D01*
X142898Y153817D01*
X142645Y153602D01*
X141422Y152379D01*
X139202Y151459D01*
X136798Y151459D01*
X134578Y152379D01*
X132879Y154078D01*
X131959Y156298D01*
X131959Y158702D01*
X132879Y160922D01*
X134578Y162621D01*
X134678Y162662D01*
X134678Y162663D01*
X136798Y163541D01*
X139202Y163541D01*
X141422Y162621D01*
X142645Y161398D01*
X142666Y161381D01*
X142683Y161360D01*
X142821Y161253D01*
X142957Y161143D01*
X142980Y161130D01*
X143002Y161114D01*
X143158Y161036D01*
X143312Y160954D01*
X143338Y160946D01*
X143362Y160934D01*
X143531Y160889D01*
X143698Y160839D01*
X143725Y160837D01*
X143751Y160830D01*
X144082Y160803D01*
X178189Y160803D01*
X178207Y160805D01*
X178225Y160803D01*
X178407Y160824D01*
X178590Y160843D01*
X178607Y160848D01*
X178624Y160850D01*
X178799Y160907D01*
X178975Y160961D01*
X178990Y160969D01*
X179007Y160975D01*
X179167Y161065D01*
X179329Y161153D01*
X179342Y161164D01*
X179358Y161173D01*
X179497Y161293D01*
X179638Y161410D01*
X179649Y161424D01*
X179663Y161436D01*
X179775Y161581D01*
X179890Y161724D01*
X179898Y161740D01*
X179909Y161754D01*
X179991Y161919D01*
X180076Y162081D01*
X180081Y162098D01*
X180089Y162114D01*
X180136Y162293D01*
X180187Y162468D01*
X180189Y162486D01*
X180193Y162503D01*
X180220Y162834D01*
X180220Y164902D01*
X181709Y166391D01*
X198291Y166391D01*
X199780Y164902D01*
X199780Y154732D01*
X199782Y154706D01*
X199780Y154679D01*
X199802Y154505D01*
X199820Y154332D01*
X199827Y154306D01*
X199831Y154280D01*
X199886Y154114D01*
X199938Y153947D01*
X199951Y153923D01*
X199959Y153898D01*
X200046Y153746D01*
X200130Y153593D01*
X200147Y153572D01*
X200160Y153549D01*
X200375Y153296D01*
X209773Y143898D01*
X209794Y143881D01*
X209811Y143860D01*
X209949Y143753D01*
X210085Y143643D01*
X210108Y143630D01*
X210129Y143614D01*
X210286Y143536D01*
X210440Y143454D01*
X210466Y143446D01*
X210490Y143434D01*
X210659Y143389D01*
X210826Y143339D01*
X210853Y143337D01*
X210879Y143330D01*
X211209Y143303D01*
X326565Y143303D01*
X326591Y143305D01*
X326618Y143303D01*
X326792Y143325D01*
X326966Y143343D01*
X326991Y143350D01*
X327018Y143354D01*
X327183Y143409D01*
X327350Y143461D01*
X327374Y143474D01*
X327399Y143482D01*
X327551Y143569D01*
X327704Y143653D01*
X327725Y143670D01*
X327748Y143683D01*
X328001Y143898D01*
X329437Y145333D01*
X331749Y146291D01*
X333820Y146291D01*
X333842Y146293D01*
X333864Y146291D01*
X334043Y146313D01*
X334221Y146331D01*
X334242Y146337D01*
X334264Y146340D01*
X334435Y146396D01*
X334605Y146449D01*
X334625Y146459D01*
X334646Y146466D01*
X334802Y146555D01*
X334959Y146641D01*
X334976Y146655D01*
X334996Y146666D01*
X335250Y146879D01*
X362108Y173495D01*
X362128Y173519D01*
X362152Y173540D01*
X362256Y173675D01*
X362364Y173806D01*
X362379Y173833D01*
X362398Y173858D01*
X362474Y174011D01*
X362555Y174161D01*
X362564Y174190D01*
X362578Y174219D01*
X362622Y174383D01*
X362671Y174546D01*
X362674Y174577D01*
X362682Y174607D01*
X362709Y174938D01*
X362709Y176251D01*
X363667Y178563D01*
X365437Y180333D01*
X367749Y181291D01*
X370251Y181291D01*
X372563Y180333D01*
X374333Y178563D01*
X375291Y176251D01*
X375291Y173749D01*
X374333Y171437D01*
X372563Y169667D01*
X370251Y168709D01*
X367498Y168709D01*
X367476Y168707D01*
X367454Y168709D01*
X367276Y168687D01*
X367098Y168669D01*
X367077Y168663D01*
X367055Y168660D01*
X366884Y168604D01*
X366713Y168551D01*
X366693Y168541D01*
X366672Y168534D01*
X366517Y168445D01*
X366359Y168359D01*
X366342Y168345D01*
X366323Y168334D01*
X366069Y168121D01*
X364952Y167015D01*
X364944Y167004D01*
X364933Y166996D01*
X364816Y166849D01*
X364696Y166704D01*
X364690Y166693D01*
X364681Y166682D01*
X364594Y166515D01*
X364506Y166350D01*
X364502Y166337D01*
X364496Y166325D01*
X364444Y166144D01*
X364389Y165964D01*
X364388Y165951D01*
X364384Y165938D01*
X364369Y165750D01*
X364351Y165563D01*
X364352Y165550D01*
X364351Y165536D01*
X364373Y165350D01*
X364393Y165163D01*
X364397Y165150D01*
X364398Y165137D01*
X364456Y164958D01*
X364512Y164779D01*
X364519Y164767D01*
X364523Y164754D01*
X364616Y164589D01*
X364706Y164425D01*
X364714Y164415D01*
X364721Y164403D01*
X364843Y164261D01*
X364965Y164117D01*
X364975Y164109D01*
X364984Y164098D01*
X365132Y163984D01*
X365279Y163866D01*
X365291Y163860D01*
X365302Y163852D01*
X365471Y163768D01*
X365637Y163682D01*
X365650Y163678D01*
X365663Y163672D01*
X365846Y163623D01*
X366025Y163572D01*
X366038Y163571D01*
X366051Y163568D01*
X366157Y163559D01*
X368422Y162621D01*
X369645Y161398D01*
X369666Y161381D01*
X369683Y161360D01*
X369821Y161253D01*
X369957Y161143D01*
X369980Y161130D01*
X370002Y161114D01*
X370158Y161036D01*
X370312Y160954D01*
X370338Y160946D01*
X370362Y160934D01*
X370531Y160889D01*
X370698Y160839D01*
X370725Y160837D01*
X370751Y160830D01*
X371082Y160803D01*
X425689Y160803D01*
X425707Y160805D01*
X425725Y160803D01*
X425907Y160824D01*
X426090Y160843D01*
X426107Y160848D01*
X426124Y160850D01*
X426299Y160907D01*
X426475Y160961D01*
X426490Y160969D01*
X426507Y160975D01*
X426667Y161065D01*
X426829Y161153D01*
X426842Y161164D01*
X426858Y161173D01*
X426997Y161293D01*
X427138Y161410D01*
X427149Y161424D01*
X427163Y161436D01*
X427275Y161581D01*
X427390Y161724D01*
X427398Y161740D01*
X427409Y161754D01*
X427491Y161919D01*
X427576Y162081D01*
X427581Y162098D01*
X427589Y162114D01*
X427636Y162293D01*
X427687Y162468D01*
X427689Y162486D01*
X427693Y162503D01*
X427720Y162834D01*
X427720Y164902D01*
X429209Y166391D01*
X445791Y166391D01*
X447280Y164902D01*
X447280Y162834D01*
X447282Y162816D01*
X447280Y162798D01*
X447301Y162616D01*
X447320Y162433D01*
X447325Y162416D01*
X447327Y162399D01*
X447384Y162224D01*
X447438Y162048D01*
X447446Y162033D01*
X447452Y162016D01*
X447542Y161856D01*
X447630Y161694D01*
X447641Y161681D01*
X447650Y161665D01*
X447770Y161526D01*
X447887Y161385D01*
X447901Y161374D01*
X447913Y161360D01*
X448058Y161248D01*
X448201Y161133D01*
X448217Y161125D01*
X448231Y161114D01*
X448396Y161032D01*
X448558Y160947D01*
X448575Y160942D01*
X448591Y160934D01*
X448770Y160887D01*
X448945Y160836D01*
X448963Y160834D01*
X448980Y160830D01*
X449311Y160803D01*
X493565Y160803D01*
X493591Y160805D01*
X493618Y160803D01*
X493792Y160825D01*
X493966Y160843D01*
X493991Y160850D01*
X494018Y160854D01*
X494183Y160909D01*
X494350Y160961D01*
X494374Y160974D01*
X494399Y160982D01*
X494551Y161069D01*
X494704Y161153D01*
X494725Y161170D01*
X494748Y161183D01*
X495001Y161398D01*
X496437Y162833D01*
X498749Y163791D01*
X501251Y163791D01*
X503563Y162833D01*
X505333Y161063D01*
X506291Y158751D01*
X506291Y156249D01*
X505333Y153937D01*
X503563Y152167D01*
X501251Y151209D01*
X498749Y151209D01*
X496437Y152167D01*
X495001Y153602D01*
X494980Y153619D01*
X494963Y153640D01*
X494825Y153747D01*
X494690Y153857D01*
X494666Y153870D01*
X494645Y153886D01*
X494488Y153964D01*
X494334Y154046D01*
X494308Y154054D01*
X494284Y154066D01*
X494115Y154111D01*
X493948Y154161D01*
X493921Y154163D01*
X493896Y154170D01*
X493565Y154197D01*
X449311Y154197D01*
X449293Y154195D01*
X449275Y154197D01*
X449093Y154176D01*
X448910Y154157D01*
X448893Y154152D01*
X448876Y154150D01*
X448701Y154093D01*
X448525Y154039D01*
X448510Y154031D01*
X448493Y154025D01*
X448333Y153935D01*
X448171Y153847D01*
X448158Y153836D01*
X448142Y153827D01*
X448003Y153707D01*
X447862Y153590D01*
X447851Y153576D01*
X447837Y153564D01*
X447725Y153419D01*
X447610Y153276D01*
X447602Y153260D01*
X447591Y153246D01*
X447509Y153081D01*
X447424Y152919D01*
X447419Y152902D01*
X447411Y152886D01*
X447364Y152707D01*
X447313Y152532D01*
X447311Y152514D01*
X447307Y152497D01*
X447280Y152166D01*
X447280Y150098D01*
X445791Y148609D01*
X429209Y148609D01*
X427720Y150098D01*
X427720Y152166D01*
X427718Y152184D01*
X427720Y152202D01*
X427699Y152384D01*
X427680Y152567D01*
X427675Y152584D01*
X427673Y152601D01*
X427616Y152776D01*
X427562Y152952D01*
X427554Y152967D01*
X427548Y152984D01*
X427458Y153144D01*
X427370Y153306D01*
X427359Y153319D01*
X427350Y153335D01*
X427230Y153474D01*
X427113Y153615D01*
X427099Y153626D01*
X427087Y153640D01*
X426942Y153752D01*
X426799Y153867D01*
X426783Y153875D01*
X426769Y153886D01*
X426604Y153968D01*
X426442Y154053D01*
X426425Y154058D01*
X426409Y154066D01*
X426230Y154113D01*
X426055Y154164D01*
X426037Y154166D01*
X426020Y154170D01*
X425689Y154197D01*
X371082Y154197D01*
X371055Y154195D01*
X371028Y154197D01*
X370854Y154175D01*
X370681Y154157D01*
X370655Y154150D01*
X370629Y154146D01*
X370463Y154091D01*
X370296Y154039D01*
X370272Y154026D01*
X370247Y154018D01*
X370095Y153931D01*
X369942Y153847D01*
X369922Y153830D01*
X369898Y153817D01*
X369645Y153602D01*
X368422Y152379D01*
X366202Y151459D01*
X363798Y151459D01*
X361578Y152379D01*
X359879Y154078D01*
X358947Y156328D01*
X358939Y156404D01*
X358919Y156604D01*
X358918Y156608D01*
X358918Y156612D01*
X358859Y156799D01*
X358801Y156989D01*
X358799Y156992D01*
X358798Y156996D01*
X358703Y157169D01*
X358609Y157343D01*
X358607Y157346D01*
X358605Y157350D01*
X358478Y157501D01*
X358352Y157652D01*
X358348Y157654D01*
X358346Y157658D01*
X358191Y157781D01*
X358038Y157904D01*
X358034Y157906D01*
X358031Y157909D01*
X357853Y158000D01*
X357681Y158090D01*
X357677Y158091D01*
X357673Y158093D01*
X357480Y158148D01*
X357294Y158201D01*
X357289Y158201D01*
X357285Y158203D01*
X357087Y158218D01*
X356892Y158234D01*
X356888Y158233D01*
X356884Y158234D01*
X356685Y158210D01*
X356493Y158187D01*
X356489Y158186D01*
X356484Y158185D01*
X356294Y158122D01*
X356110Y158062D01*
X356106Y158060D01*
X356102Y158059D01*
X355932Y157962D01*
X355759Y157864D01*
X355756Y157861D01*
X355752Y157859D01*
X355498Y157646D01*
X339892Y142180D01*
X339872Y142156D01*
X339848Y142136D01*
X339744Y142001D01*
X339636Y141870D01*
X339621Y141842D01*
X339602Y141818D01*
X339526Y141665D01*
X339445Y141515D01*
X339436Y141485D01*
X339422Y141457D01*
X339378Y141292D01*
X339329Y141130D01*
X339326Y141099D01*
X339318Y141068D01*
X339291Y140738D01*
X339291Y138749D01*
X338333Y136437D01*
X336563Y134667D01*
X334733Y133909D01*
X334251Y133709D01*
X331749Y133709D01*
G37*
%LPD*%
%LPC*%
G36*
X343749Y608709D02*
X343749Y608709D01*
X341437Y609667D01*
X339667Y611437D01*
X338709Y613749D01*
X338709Y616251D01*
X339667Y618563D01*
X341437Y620333D01*
X343749Y621291D01*
X345779Y621291D01*
X345805Y621293D01*
X345832Y621291D01*
X346006Y621313D01*
X346179Y621331D01*
X346205Y621338D01*
X346231Y621342D01*
X346397Y621397D01*
X346564Y621449D01*
X346588Y621462D01*
X346613Y621470D01*
X346765Y621557D01*
X346918Y621641D01*
X346939Y621658D01*
X346962Y621671D01*
X347215Y621886D01*
X348632Y623303D01*
X352925Y623303D01*
X352938Y623304D01*
X352952Y623303D01*
X353138Y623324D01*
X353326Y623343D01*
X353339Y623347D01*
X353352Y623348D01*
X353531Y623406D01*
X353711Y623461D01*
X353722Y623467D01*
X353735Y623471D01*
X353900Y623563D01*
X354065Y623653D01*
X354075Y623661D01*
X354087Y623668D01*
X354229Y623790D01*
X354374Y623910D01*
X354382Y623921D01*
X354392Y623929D01*
X354508Y624077D01*
X354626Y624224D01*
X354632Y624236D01*
X354641Y624246D01*
X354725Y624415D01*
X354812Y624581D01*
X354815Y624594D01*
X354821Y624606D01*
X354871Y624787D01*
X354923Y624968D01*
X354924Y624982D01*
X354928Y624995D01*
X354941Y625183D01*
X354956Y625370D01*
X354954Y625383D01*
X354955Y625396D01*
X354931Y625584D01*
X354909Y625769D01*
X354905Y625782D01*
X354903Y625795D01*
X354802Y626111D01*
X353709Y628749D01*
X353709Y631251D01*
X354667Y633563D01*
X356102Y634999D01*
X356119Y635019D01*
X356140Y635037D01*
X356247Y635175D01*
X356357Y635310D01*
X356370Y635334D01*
X356386Y635355D01*
X356464Y635512D01*
X356546Y635666D01*
X356554Y635692D01*
X356566Y635716D01*
X356611Y635885D01*
X356661Y636052D01*
X356663Y636079D01*
X356670Y636104D01*
X356697Y636435D01*
X356697Y639666D01*
X356695Y639684D01*
X356697Y639702D01*
X356676Y639884D01*
X356657Y640067D01*
X356652Y640084D01*
X356650Y640101D01*
X356593Y640276D01*
X356539Y640452D01*
X356531Y640467D01*
X356525Y640484D01*
X356435Y640644D01*
X356347Y640806D01*
X356336Y640819D01*
X356327Y640835D01*
X356207Y640974D01*
X356090Y641115D01*
X356076Y641126D01*
X356064Y641140D01*
X355919Y641252D01*
X355776Y641367D01*
X355760Y641375D01*
X355746Y641386D01*
X355581Y641468D01*
X355419Y641553D01*
X355402Y641558D01*
X355386Y641566D01*
X355207Y641613D01*
X355032Y641664D01*
X355014Y641666D01*
X354997Y641670D01*
X354666Y641697D01*
X351435Y641697D01*
X351409Y641695D01*
X351382Y641697D01*
X351208Y641675D01*
X351034Y641657D01*
X351009Y641650D01*
X350982Y641646D01*
X350816Y641590D01*
X350650Y641539D01*
X350626Y641526D01*
X350601Y641518D01*
X350449Y641431D01*
X350296Y641347D01*
X350275Y641330D01*
X350252Y641317D01*
X349999Y641102D01*
X348563Y639667D01*
X346251Y638709D01*
X343749Y638709D01*
X341437Y639667D01*
X339667Y641437D01*
X338709Y643749D01*
X338709Y646251D01*
X339667Y648563D01*
X341437Y650333D01*
X343749Y651291D01*
X346251Y651291D01*
X348563Y650333D01*
X349999Y648898D01*
X350019Y648881D01*
X350037Y648860D01*
X350175Y648753D01*
X350310Y648643D01*
X350334Y648630D01*
X350355Y648614D01*
X350512Y648536D01*
X350666Y648454D01*
X350692Y648446D01*
X350716Y648434D01*
X350885Y648389D01*
X351052Y648339D01*
X351079Y648337D01*
X351104Y648330D01*
X351435Y648303D01*
X476368Y648303D01*
X488306Y636365D01*
X488325Y636208D01*
X488343Y636034D01*
X488350Y636009D01*
X488354Y635982D01*
X488409Y635817D01*
X488461Y635650D01*
X488474Y635626D01*
X488482Y635601D01*
X488569Y635449D01*
X488653Y635296D01*
X488670Y635275D01*
X488683Y635252D01*
X488898Y634999D01*
X490333Y633563D01*
X491291Y631251D01*
X491291Y628749D01*
X490333Y626437D01*
X488563Y624667D01*
X486251Y623709D01*
X483749Y623709D01*
X481437Y624667D01*
X479667Y626437D01*
X478709Y628749D01*
X478709Y631251D01*
X479762Y633794D01*
X479769Y633815D01*
X479779Y633835D01*
X479827Y634007D01*
X479879Y634179D01*
X479881Y634201D01*
X479887Y634223D01*
X479900Y634402D01*
X479917Y634580D01*
X479915Y634602D01*
X479916Y634624D01*
X479894Y634802D01*
X479875Y634980D01*
X479869Y635002D01*
X479866Y635024D01*
X479809Y635194D01*
X479755Y635365D01*
X479745Y635384D01*
X479738Y635405D01*
X479648Y635560D01*
X479562Y635718D01*
X479548Y635735D01*
X479537Y635754D01*
X479322Y636007D01*
X474227Y641102D01*
X474206Y641119D01*
X474189Y641140D01*
X474051Y641246D01*
X473915Y641357D01*
X473892Y641370D01*
X473871Y641386D01*
X473714Y641464D01*
X473560Y641546D01*
X473534Y641554D01*
X473510Y641566D01*
X473341Y641611D01*
X473174Y641661D01*
X473147Y641663D01*
X473121Y641670D01*
X472791Y641697D01*
X465334Y641697D01*
X465316Y641695D01*
X465298Y641697D01*
X465116Y641676D01*
X464933Y641657D01*
X464916Y641652D01*
X464899Y641650D01*
X464724Y641593D01*
X464548Y641539D01*
X464533Y641531D01*
X464516Y641525D01*
X464356Y641435D01*
X464194Y641347D01*
X464181Y641336D01*
X464165Y641327D01*
X464026Y641207D01*
X463885Y641090D01*
X463874Y641076D01*
X463860Y641064D01*
X463748Y640919D01*
X463633Y640776D01*
X463625Y640760D01*
X463614Y640746D01*
X463532Y640581D01*
X463447Y640419D01*
X463442Y640402D01*
X463434Y640386D01*
X463387Y640207D01*
X463336Y640032D01*
X463334Y640014D01*
X463330Y639997D01*
X463303Y639666D01*
X463303Y636435D01*
X463305Y636409D01*
X463303Y636382D01*
X463325Y636208D01*
X463343Y636034D01*
X463350Y636009D01*
X463354Y635982D01*
X463410Y635816D01*
X463461Y635650D01*
X463474Y635626D01*
X463482Y635601D01*
X463569Y635449D01*
X463653Y635296D01*
X463670Y635275D01*
X463683Y635252D01*
X463898Y634999D01*
X465333Y633563D01*
X466291Y631251D01*
X466291Y628749D01*
X465333Y626437D01*
X463563Y624667D01*
X461251Y623709D01*
X458749Y623709D01*
X456437Y624667D01*
X454667Y626437D01*
X453709Y628749D01*
X453709Y631251D01*
X454667Y633563D01*
X456102Y634999D01*
X456119Y635019D01*
X456140Y635037D01*
X456247Y635175D01*
X456357Y635310D01*
X456370Y635334D01*
X456386Y635355D01*
X456464Y635512D01*
X456546Y635666D01*
X456554Y635692D01*
X456566Y635716D01*
X456611Y635885D01*
X456661Y636052D01*
X456663Y636079D01*
X456670Y636104D01*
X456697Y636435D01*
X456697Y639666D01*
X456695Y639684D01*
X456697Y639702D01*
X456676Y639884D01*
X456657Y640067D01*
X456652Y640084D01*
X456650Y640101D01*
X456593Y640276D01*
X456539Y640452D01*
X456531Y640467D01*
X456525Y640484D01*
X456435Y640644D01*
X456347Y640806D01*
X456336Y640819D01*
X456327Y640835D01*
X456207Y640974D01*
X456090Y641115D01*
X456076Y641126D01*
X456064Y641140D01*
X455919Y641252D01*
X455776Y641367D01*
X455760Y641375D01*
X455746Y641386D01*
X455581Y641468D01*
X455419Y641553D01*
X455402Y641558D01*
X455386Y641566D01*
X455207Y641613D01*
X455032Y641664D01*
X455014Y641666D01*
X454997Y641670D01*
X454666Y641697D01*
X365334Y641697D01*
X365316Y641695D01*
X365298Y641697D01*
X365116Y641676D01*
X364933Y641657D01*
X364916Y641652D01*
X364899Y641650D01*
X364724Y641593D01*
X364548Y641539D01*
X364533Y641531D01*
X364516Y641525D01*
X364356Y641435D01*
X364194Y641347D01*
X364181Y641336D01*
X364165Y641327D01*
X364026Y641207D01*
X363885Y641090D01*
X363874Y641076D01*
X363860Y641064D01*
X363748Y640919D01*
X363633Y640776D01*
X363625Y640760D01*
X363614Y640746D01*
X363532Y640581D01*
X363447Y640419D01*
X363442Y640402D01*
X363434Y640386D01*
X363387Y640207D01*
X363336Y640032D01*
X363334Y640014D01*
X363330Y639997D01*
X363303Y639666D01*
X363303Y636435D01*
X363305Y636409D01*
X363303Y636382D01*
X363325Y636208D01*
X363343Y636034D01*
X363350Y636009D01*
X363354Y635982D01*
X363410Y635816D01*
X363461Y635650D01*
X363474Y635626D01*
X363482Y635601D01*
X363569Y635449D01*
X363653Y635296D01*
X363670Y635275D01*
X363683Y635252D01*
X363898Y634999D01*
X365333Y633563D01*
X366291Y631251D01*
X366291Y628749D01*
X365198Y626111D01*
X365194Y626098D01*
X365188Y626087D01*
X365137Y625907D01*
X365082Y625726D01*
X365081Y625713D01*
X365077Y625700D01*
X365061Y625512D01*
X365044Y625325D01*
X365045Y625312D01*
X365044Y625298D01*
X365066Y625111D01*
X365085Y624925D01*
X365089Y624912D01*
X365091Y624899D01*
X365149Y624719D01*
X365205Y624540D01*
X365212Y624529D01*
X365216Y624516D01*
X365309Y624350D01*
X365398Y624187D01*
X365407Y624177D01*
X365414Y624165D01*
X365537Y624023D01*
X365658Y623879D01*
X365668Y623871D01*
X365677Y623860D01*
X365825Y623745D01*
X365972Y623628D01*
X365984Y623622D01*
X365995Y623614D01*
X366164Y623530D01*
X366331Y623444D01*
X366343Y623440D01*
X366355Y623434D01*
X366538Y623385D01*
X366718Y623334D01*
X366731Y623333D01*
X366744Y623330D01*
X367075Y623303D01*
X377925Y623303D01*
X377938Y623304D01*
X377952Y623303D01*
X378138Y623324D01*
X378326Y623343D01*
X378339Y623347D01*
X378352Y623348D01*
X378531Y623406D01*
X378711Y623461D01*
X378722Y623467D01*
X378735Y623471D01*
X378900Y623563D01*
X379065Y623653D01*
X379075Y623661D01*
X379087Y623668D01*
X379229Y623790D01*
X379374Y623910D01*
X379382Y623921D01*
X379392Y623929D01*
X379508Y624077D01*
X379626Y624224D01*
X379632Y624236D01*
X379641Y624246D01*
X379725Y624415D01*
X379812Y624581D01*
X379815Y624594D01*
X379821Y624606D01*
X379871Y624787D01*
X379923Y624968D01*
X379924Y624982D01*
X379928Y624995D01*
X379941Y625183D01*
X379956Y625370D01*
X379954Y625383D01*
X379955Y625396D01*
X379931Y625584D01*
X379909Y625769D01*
X379905Y625782D01*
X379903Y625795D01*
X379802Y626111D01*
X378709Y628749D01*
X378709Y631251D01*
X379667Y633563D01*
X381437Y635333D01*
X383749Y636291D01*
X386251Y636291D01*
X388563Y635333D01*
X390333Y633563D01*
X391291Y631251D01*
X391291Y628749D01*
X390198Y626111D01*
X390194Y626098D01*
X390188Y626087D01*
X390137Y625907D01*
X390082Y625726D01*
X390081Y625713D01*
X390077Y625700D01*
X390061Y625512D01*
X390044Y625325D01*
X390045Y625312D01*
X390044Y625298D01*
X390066Y625111D01*
X390085Y624925D01*
X390089Y624912D01*
X390091Y624899D01*
X390149Y624719D01*
X390205Y624540D01*
X390212Y624529D01*
X390216Y624516D01*
X390309Y624350D01*
X390398Y624187D01*
X390407Y624177D01*
X390414Y624165D01*
X390537Y624023D01*
X390658Y623879D01*
X390668Y623871D01*
X390677Y623860D01*
X390825Y623745D01*
X390972Y623628D01*
X390984Y623622D01*
X390995Y623614D01*
X391164Y623530D01*
X391331Y623444D01*
X391343Y623440D01*
X391355Y623434D01*
X391538Y623385D01*
X391718Y623334D01*
X391731Y623333D01*
X391744Y623330D01*
X392075Y623303D01*
X402925Y623303D01*
X402938Y623304D01*
X402952Y623303D01*
X403138Y623324D01*
X403326Y623343D01*
X403339Y623347D01*
X403352Y623348D01*
X403531Y623406D01*
X403711Y623461D01*
X403722Y623467D01*
X403735Y623471D01*
X403900Y623563D01*
X404065Y623653D01*
X404075Y623661D01*
X404087Y623668D01*
X404229Y623790D01*
X404374Y623910D01*
X404382Y623921D01*
X404392Y623929D01*
X404508Y624077D01*
X404626Y624224D01*
X404632Y624236D01*
X404641Y624246D01*
X404725Y624415D01*
X404812Y624581D01*
X404815Y624594D01*
X404821Y624606D01*
X404871Y624787D01*
X404923Y624968D01*
X404924Y624982D01*
X404928Y624995D01*
X404941Y625183D01*
X404956Y625370D01*
X404954Y625383D01*
X404955Y625396D01*
X404931Y625584D01*
X404909Y625769D01*
X404905Y625782D01*
X404903Y625795D01*
X404802Y626111D01*
X403709Y628749D01*
X403709Y631251D01*
X404667Y633563D01*
X406437Y635333D01*
X408749Y636291D01*
X411251Y636291D01*
X413563Y635333D01*
X415333Y633563D01*
X416291Y631251D01*
X416291Y628749D01*
X415198Y626111D01*
X415194Y626098D01*
X415188Y626087D01*
X415137Y625907D01*
X415082Y625726D01*
X415081Y625713D01*
X415077Y625700D01*
X415061Y625512D01*
X415044Y625325D01*
X415045Y625312D01*
X415044Y625298D01*
X415066Y625111D01*
X415085Y624925D01*
X415089Y624912D01*
X415091Y624899D01*
X415149Y624719D01*
X415205Y624540D01*
X415212Y624529D01*
X415216Y624516D01*
X415309Y624350D01*
X415398Y624187D01*
X415407Y624177D01*
X415414Y624165D01*
X415537Y624023D01*
X415658Y623879D01*
X415668Y623871D01*
X415677Y623860D01*
X415825Y623745D01*
X415972Y623628D01*
X415984Y623622D01*
X415995Y623614D01*
X416164Y623530D01*
X416331Y623444D01*
X416343Y623440D01*
X416355Y623434D01*
X416538Y623385D01*
X416718Y623334D01*
X416731Y623333D01*
X416744Y623330D01*
X417075Y623303D01*
X427791Y623303D01*
X427817Y623305D01*
X427844Y623303D01*
X428017Y623325D01*
X428191Y623343D01*
X428217Y623350D01*
X428243Y623354D01*
X428409Y623409D01*
X428576Y623461D01*
X428599Y623473D01*
X428625Y623482D01*
X428777Y623569D01*
X428930Y623653D01*
X428951Y623669D01*
X428974Y623683D01*
X429227Y623897D01*
X429322Y623993D01*
X429336Y624010D01*
X429353Y624024D01*
X429464Y624166D01*
X429577Y624304D01*
X429587Y624324D01*
X429601Y624341D01*
X429682Y624501D01*
X429766Y624660D01*
X429772Y624681D01*
X429782Y624701D01*
X429829Y624874D01*
X429880Y625046D01*
X429882Y625068D01*
X429888Y625090D01*
X429901Y625268D01*
X429917Y625446D01*
X429914Y625469D01*
X429916Y625491D01*
X429893Y625669D01*
X429874Y625847D01*
X429867Y625868D01*
X429864Y625890D01*
X429762Y626206D01*
X428709Y628749D01*
X428709Y631251D01*
X429667Y633563D01*
X431437Y635333D01*
X433749Y636291D01*
X436251Y636291D01*
X438563Y635333D01*
X440333Y633563D01*
X441291Y631251D01*
X441291Y628749D01*
X440333Y626437D01*
X438898Y625001D01*
X438881Y624980D01*
X438860Y624963D01*
X438753Y624825D01*
X438643Y624690D01*
X438630Y624666D01*
X438614Y624645D01*
X438536Y624488D01*
X438454Y624334D01*
X438446Y624308D01*
X438434Y624284D01*
X438389Y624115D01*
X438339Y623948D01*
X438337Y623921D01*
X438330Y623896D01*
X438309Y623638D01*
X431368Y616697D01*
X353322Y616697D01*
X353304Y616695D01*
X353286Y616697D01*
X353104Y616676D01*
X352921Y616657D01*
X352904Y616652D01*
X352887Y616650D01*
X352712Y616593D01*
X352536Y616539D01*
X352521Y616531D01*
X352504Y616525D01*
X352344Y616435D01*
X352182Y616347D01*
X352169Y616336D01*
X352153Y616327D01*
X352014Y616207D01*
X351873Y616090D01*
X351862Y616076D01*
X351848Y616064D01*
X351736Y615919D01*
X351621Y615776D01*
X351613Y615760D01*
X351602Y615746D01*
X351520Y615581D01*
X351435Y615419D01*
X351430Y615402D01*
X351422Y615386D01*
X351375Y615207D01*
X351324Y615032D01*
X351322Y615014D01*
X351318Y614997D01*
X351291Y614666D01*
X351291Y613749D01*
X350333Y611437D01*
X348563Y609667D01*
X346251Y608709D01*
X343749Y608709D01*
G37*
%LPD*%
%LPC*%
G36*
X251709Y148609D02*
X251709Y148609D01*
X250220Y150098D01*
X250220Y152166D01*
X250218Y152184D01*
X250220Y152202D01*
X250199Y152384D01*
X250180Y152567D01*
X250175Y152584D01*
X250173Y152601D01*
X250116Y152776D01*
X250062Y152952D01*
X250054Y152967D01*
X250048Y152984D01*
X249958Y153144D01*
X249870Y153306D01*
X249859Y153319D01*
X249850Y153335D01*
X249730Y153474D01*
X249613Y153615D01*
X249599Y153626D01*
X249587Y153640D01*
X249442Y153752D01*
X249299Y153867D01*
X249283Y153875D01*
X249269Y153886D01*
X249104Y153968D01*
X248942Y154053D01*
X248925Y154058D01*
X248909Y154066D01*
X248730Y154113D01*
X248555Y154164D01*
X248537Y154166D01*
X248520Y154170D01*
X248189Y154197D01*
X218040Y154197D01*
X218013Y154195D01*
X217987Y154197D01*
X217813Y154175D01*
X217639Y154157D01*
X217614Y154150D01*
X217587Y154146D01*
X217421Y154091D01*
X217254Y154039D01*
X217231Y154026D01*
X217205Y154018D01*
X217054Y153931D01*
X216900Y153847D01*
X216880Y153830D01*
X216857Y153817D01*
X216604Y153602D01*
X215380Y152379D01*
X213160Y151459D01*
X210757Y151459D01*
X208536Y152379D01*
X206837Y154078D01*
X205918Y156298D01*
X205918Y158702D01*
X206837Y160922D01*
X208536Y162621D01*
X208636Y162662D01*
X208637Y162663D01*
X210757Y163541D01*
X213160Y163541D01*
X215380Y162621D01*
X216604Y161398D01*
X216624Y161381D01*
X216642Y161360D01*
X216780Y161253D01*
X216915Y161143D01*
X216939Y161130D01*
X216960Y161114D01*
X217117Y161036D01*
X217271Y160954D01*
X217296Y160946D01*
X217320Y160934D01*
X217490Y160889D01*
X217657Y160839D01*
X217683Y160837D01*
X217709Y160830D01*
X218040Y160803D01*
X248189Y160803D01*
X248207Y160805D01*
X248225Y160803D01*
X248407Y160824D01*
X248590Y160843D01*
X248607Y160848D01*
X248624Y160850D01*
X248799Y160907D01*
X248975Y160961D01*
X248990Y160969D01*
X249007Y160975D01*
X249167Y161065D01*
X249329Y161153D01*
X249342Y161164D01*
X249358Y161173D01*
X249497Y161293D01*
X249638Y161410D01*
X249649Y161424D01*
X249663Y161436D01*
X249775Y161581D01*
X249890Y161724D01*
X249898Y161740D01*
X249909Y161754D01*
X249991Y161919D01*
X250076Y162081D01*
X250081Y162098D01*
X250089Y162114D01*
X250136Y162293D01*
X250187Y162468D01*
X250189Y162486D01*
X250193Y162503D01*
X250220Y162834D01*
X250220Y164902D01*
X251709Y166391D01*
X268291Y166391D01*
X269780Y164902D01*
X269780Y162834D01*
X269782Y162816D01*
X269780Y162798D01*
X269801Y162616D01*
X269820Y162433D01*
X269825Y162416D01*
X269827Y162399D01*
X269884Y162224D01*
X269938Y162048D01*
X269946Y162033D01*
X269952Y162016D01*
X270042Y161856D01*
X270130Y161694D01*
X270141Y161681D01*
X270150Y161665D01*
X270270Y161526D01*
X270387Y161385D01*
X270401Y161374D01*
X270413Y161360D01*
X270558Y161248D01*
X270701Y161133D01*
X270717Y161125D01*
X270731Y161114D01*
X270896Y161032D01*
X271058Y160947D01*
X271075Y160942D01*
X271091Y160934D01*
X271270Y160887D01*
X271445Y160836D01*
X271463Y160834D01*
X271480Y160830D01*
X271811Y160803D01*
X311855Y160803D01*
X311881Y160805D01*
X311908Y160803D01*
X312082Y160825D01*
X312255Y160843D01*
X312281Y160850D01*
X312307Y160854D01*
X312473Y160909D01*
X312640Y160961D01*
X312664Y160974D01*
X312689Y160982D01*
X312841Y161069D01*
X312994Y161153D01*
X313015Y161170D01*
X313038Y161183D01*
X313291Y161398D01*
X324364Y172471D01*
X324381Y172492D01*
X324402Y172509D01*
X324509Y172647D01*
X324619Y172783D01*
X324632Y172806D01*
X324648Y172827D01*
X324726Y172984D01*
X324808Y173138D01*
X324816Y173164D01*
X324828Y173188D01*
X324873Y173357D01*
X324923Y173524D01*
X324925Y173551D01*
X324932Y173577D01*
X324959Y173907D01*
X324959Y176202D01*
X325879Y178422D01*
X327578Y180121D01*
X329798Y181041D01*
X332202Y181041D01*
X334422Y180121D01*
X336121Y178422D01*
X337041Y176202D01*
X337041Y173798D01*
X336121Y171578D01*
X334422Y169879D01*
X332202Y168959D01*
X331035Y168959D01*
X331009Y168957D01*
X330982Y168959D01*
X330808Y168937D01*
X330635Y168919D01*
X330609Y168912D01*
X330583Y168908D01*
X330417Y168852D01*
X330250Y168801D01*
X330226Y168788D01*
X330201Y168780D01*
X330049Y168693D01*
X329896Y168609D01*
X329875Y168592D01*
X329852Y168579D01*
X329599Y168364D01*
X317962Y156727D01*
X315432Y154197D01*
X271811Y154197D01*
X271793Y154195D01*
X271775Y154197D01*
X271593Y154176D01*
X271410Y154157D01*
X271393Y154152D01*
X271376Y154150D01*
X271201Y154093D01*
X271025Y154039D01*
X271010Y154031D01*
X270993Y154025D01*
X270833Y153935D01*
X270671Y153847D01*
X270658Y153836D01*
X270642Y153827D01*
X270503Y153707D01*
X270362Y153590D01*
X270351Y153576D01*
X270337Y153564D01*
X270225Y153419D01*
X270110Y153276D01*
X270102Y153260D01*
X270091Y153246D01*
X270009Y153081D01*
X269924Y152919D01*
X269919Y152902D01*
X269911Y152886D01*
X269864Y152707D01*
X269813Y152532D01*
X269811Y152514D01*
X269807Y152497D01*
X269780Y152166D01*
X269780Y150098D01*
X268291Y148609D01*
X251709Y148609D01*
G37*
%LPD*%
%LPC*%
G36*
X171288Y16339D02*
X171288Y16339D01*
X164430Y19180D01*
X159180Y24430D01*
X156339Y31288D01*
X156339Y38712D01*
X159180Y45570D01*
X164430Y50820D01*
X164729Y50944D01*
X171288Y53661D01*
X178712Y53661D01*
X185570Y50820D01*
X190820Y45570D01*
X193661Y38712D01*
X193661Y31288D01*
X190820Y24430D01*
X185570Y19180D01*
X183030Y18128D01*
X183029Y18128D01*
X178712Y16339D01*
X171288Y16339D01*
G37*
%LPD*%
%LPC*%
G36*
X521288Y16339D02*
X521288Y16339D01*
X514430Y19180D01*
X509180Y24430D01*
X506339Y31288D01*
X506339Y38712D01*
X509180Y45570D01*
X514430Y50820D01*
X514729Y50944D01*
X521288Y53661D01*
X528712Y53661D01*
X535570Y50820D01*
X540820Y45570D01*
X543661Y38712D01*
X543661Y31288D01*
X540820Y24430D01*
X535570Y19180D01*
X533030Y18128D01*
X533029Y18128D01*
X528712Y16339D01*
X521288Y16339D01*
G37*
%LPD*%
%LPC*%
G36*
X346288Y16339D02*
X346288Y16339D01*
X339430Y19180D01*
X334180Y24430D01*
X331339Y31288D01*
X331339Y38712D01*
X334180Y45570D01*
X339430Y50820D01*
X339729Y50944D01*
X346288Y53661D01*
X353712Y53661D01*
X360570Y50820D01*
X365820Y45570D01*
X368661Y38712D01*
X368661Y31288D01*
X365820Y24430D01*
X360570Y19180D01*
X358030Y18128D01*
X358029Y18128D01*
X353712Y16339D01*
X346288Y16339D01*
G37*
%LPD*%
%LPC*%
G36*
X521288Y86339D02*
X521288Y86339D01*
X514430Y89180D01*
X509180Y94430D01*
X506339Y101288D01*
X506339Y108712D01*
X509180Y115570D01*
X514430Y120820D01*
X517369Y122037D01*
X517369Y122038D01*
X521288Y123661D01*
X528712Y123661D01*
X535570Y120820D01*
X540820Y115570D01*
X543661Y108712D01*
X543661Y101288D01*
X540820Y94430D01*
X535570Y89180D01*
X528712Y86339D01*
X521288Y86339D01*
G37*
%LPD*%
%LPC*%
G36*
X346288Y86339D02*
X346288Y86339D01*
X339430Y89180D01*
X334180Y94430D01*
X331339Y101288D01*
X331339Y108712D01*
X334180Y115570D01*
X339430Y120820D01*
X342369Y122037D01*
X342369Y122038D01*
X346288Y123661D01*
X353712Y123661D01*
X360570Y120820D01*
X365820Y115570D01*
X368661Y108712D01*
X368661Y101288D01*
X365820Y94430D01*
X360570Y89180D01*
X353712Y86339D01*
X346288Y86339D01*
G37*
%LPD*%
%LPC*%
G36*
X171288Y86339D02*
X171288Y86339D01*
X164430Y89180D01*
X159180Y94430D01*
X156339Y101288D01*
X156339Y108712D01*
X159180Y115570D01*
X164430Y120820D01*
X167369Y122037D01*
X167369Y122038D01*
X171288Y123661D01*
X178712Y123661D01*
X185570Y120820D01*
X190820Y115570D01*
X193661Y108712D01*
X193661Y101288D01*
X190820Y94430D01*
X185570Y89180D01*
X178712Y86339D01*
X171288Y86339D01*
G37*
%LPD*%
%LPC*%
G36*
X429209Y201109D02*
X429209Y201109D01*
X427720Y202598D01*
X427720Y204666D01*
X427718Y204684D01*
X427720Y204702D01*
X427699Y204884D01*
X427680Y205067D01*
X427675Y205084D01*
X427673Y205101D01*
X427616Y205276D01*
X427562Y205452D01*
X427554Y205467D01*
X427548Y205484D01*
X427458Y205644D01*
X427370Y205806D01*
X427359Y205819D01*
X427350Y205835D01*
X427230Y205974D01*
X427113Y206115D01*
X427099Y206126D01*
X427087Y206140D01*
X426942Y206252D01*
X426799Y206367D01*
X426783Y206375D01*
X426769Y206386D01*
X426604Y206468D01*
X426442Y206553D01*
X426425Y206558D01*
X426409Y206566D01*
X426230Y206613D01*
X426055Y206664D01*
X426037Y206666D01*
X426020Y206670D01*
X425689Y206697D01*
X391082Y206697D01*
X391055Y206695D01*
X391028Y206697D01*
X390854Y206675D01*
X390681Y206657D01*
X390655Y206650D01*
X390629Y206646D01*
X390463Y206591D01*
X390296Y206539D01*
X390272Y206526D01*
X390247Y206518D01*
X390095Y206431D01*
X389942Y206347D01*
X389922Y206330D01*
X389898Y206317D01*
X389645Y206102D01*
X388422Y204879D01*
X386202Y203959D01*
X383798Y203959D01*
X381578Y204879D01*
X379879Y206578D01*
X378959Y208798D01*
X378959Y211202D01*
X379879Y213422D01*
X381578Y215121D01*
X383798Y216041D01*
X386202Y216041D01*
X388422Y215121D01*
X389645Y213898D01*
X389666Y213881D01*
X389683Y213860D01*
X389821Y213753D01*
X389957Y213643D01*
X389980Y213630D01*
X390002Y213614D01*
X390158Y213536D01*
X390312Y213454D01*
X390338Y213446D01*
X390362Y213434D01*
X390531Y213389D01*
X390698Y213339D01*
X390725Y213337D01*
X390751Y213330D01*
X391082Y213303D01*
X425689Y213303D01*
X425707Y213305D01*
X425725Y213303D01*
X425907Y213324D01*
X426090Y213343D01*
X426107Y213348D01*
X426124Y213350D01*
X426299Y213407D01*
X426475Y213461D01*
X426490Y213469D01*
X426507Y213475D01*
X426667Y213565D01*
X426829Y213653D01*
X426842Y213664D01*
X426858Y213673D01*
X426997Y213793D01*
X427138Y213910D01*
X427149Y213924D01*
X427163Y213936D01*
X427275Y214081D01*
X427390Y214224D01*
X427398Y214240D01*
X427409Y214254D01*
X427491Y214419D01*
X427576Y214581D01*
X427581Y214598D01*
X427589Y214614D01*
X427636Y214793D01*
X427687Y214968D01*
X427689Y214986D01*
X427693Y215003D01*
X427720Y215334D01*
X427720Y217402D01*
X429209Y218891D01*
X445791Y218891D01*
X447280Y217402D01*
X447280Y214834D01*
X447282Y214816D01*
X447280Y214798D01*
X447301Y214616D01*
X447320Y214433D01*
X447325Y214416D01*
X447327Y214399D01*
X447384Y214224D01*
X447438Y214048D01*
X447446Y214033D01*
X447452Y214016D01*
X447542Y213856D01*
X447630Y213694D01*
X447641Y213681D01*
X447650Y213665D01*
X447770Y213526D01*
X447887Y213385D01*
X447901Y213374D01*
X447913Y213360D01*
X448058Y213248D01*
X448201Y213133D01*
X448217Y213125D01*
X448231Y213114D01*
X448396Y213032D01*
X448558Y212947D01*
X448575Y212942D01*
X448591Y212934D01*
X448770Y212887D01*
X448945Y212836D01*
X448963Y212834D01*
X448980Y212830D01*
X449311Y212803D01*
X481918Y212803D01*
X481945Y212805D01*
X481972Y212803D01*
X482146Y212825D01*
X482319Y212843D01*
X482345Y212850D01*
X482371Y212854D01*
X482537Y212909D01*
X482704Y212961D01*
X482728Y212974D01*
X482753Y212982D01*
X482905Y213069D01*
X483058Y213153D01*
X483078Y213170D01*
X483102Y213183D01*
X483355Y213398D01*
X484578Y214621D01*
X486640Y215475D01*
X486798Y215541D01*
X489202Y215541D01*
X491422Y214621D01*
X493121Y212922D01*
X494041Y210702D01*
X494041Y208298D01*
X493121Y206078D01*
X491422Y204379D01*
X489202Y203459D01*
X486798Y203459D01*
X484578Y204379D01*
X483355Y205602D01*
X483334Y205619D01*
X483317Y205640D01*
X483179Y205747D01*
X483043Y205857D01*
X483020Y205870D01*
X482998Y205886D01*
X482842Y205964D01*
X482688Y206046D01*
X482662Y206054D01*
X482638Y206066D01*
X482469Y206111D01*
X482302Y206161D01*
X482275Y206163D01*
X482249Y206170D01*
X481918Y206197D01*
X449311Y206197D01*
X449293Y206195D01*
X449275Y206197D01*
X449093Y206176D01*
X448910Y206157D01*
X448893Y206152D01*
X448876Y206150D01*
X448701Y206093D01*
X448525Y206039D01*
X448510Y206031D01*
X448493Y206025D01*
X448333Y205935D01*
X448171Y205847D01*
X448158Y205836D01*
X448142Y205827D01*
X448003Y205707D01*
X447862Y205590D01*
X447851Y205576D01*
X447837Y205564D01*
X447725Y205419D01*
X447610Y205276D01*
X447602Y205260D01*
X447591Y205246D01*
X447509Y205081D01*
X447424Y204919D01*
X447419Y204902D01*
X447411Y204886D01*
X447364Y204707D01*
X447313Y204532D01*
X447311Y204514D01*
X447307Y204497D01*
X447280Y204166D01*
X447280Y202598D01*
X445791Y201109D01*
X429209Y201109D01*
G37*
%LPD*%
%LPC*%
G36*
X278798Y223959D02*
X278798Y223959D01*
X276578Y224879D01*
X274879Y226578D01*
X273959Y228798D01*
X273959Y231202D01*
X274879Y233422D01*
X276578Y235121D01*
X278798Y236041D01*
X280529Y236041D01*
X280555Y236043D01*
X280582Y236041D01*
X280756Y236063D01*
X280929Y236081D01*
X280955Y236088D01*
X280981Y236092D01*
X281147Y236147D01*
X281314Y236199D01*
X281338Y236212D01*
X281363Y236220D01*
X281515Y236307D01*
X281668Y236391D01*
X281689Y236408D01*
X281712Y236421D01*
X281965Y236636D01*
X283632Y238303D01*
X386928Y238303D01*
X386946Y238305D01*
X386964Y238303D01*
X387146Y238324D01*
X387329Y238343D01*
X387346Y238348D01*
X387363Y238350D01*
X387538Y238407D01*
X387714Y238461D01*
X387729Y238469D01*
X387746Y238475D01*
X387906Y238565D01*
X388068Y238653D01*
X388081Y238664D01*
X388097Y238673D01*
X388236Y238793D01*
X388377Y238910D01*
X388388Y238924D01*
X388402Y238936D01*
X388514Y239081D01*
X388629Y239224D01*
X388637Y239240D01*
X388648Y239254D01*
X388730Y239419D01*
X388815Y239581D01*
X388820Y239598D01*
X388828Y239614D01*
X388875Y239792D01*
X388926Y239968D01*
X388928Y239986D01*
X388932Y240003D01*
X388959Y240334D01*
X388959Y241202D01*
X389879Y243422D01*
X391578Y245121D01*
X393798Y246041D01*
X396202Y246041D01*
X398422Y245121D01*
X400121Y243422D01*
X401041Y241202D01*
X401041Y238798D01*
X400121Y236578D01*
X398422Y234879D01*
X396202Y233959D01*
X394471Y233959D01*
X394445Y233957D01*
X394418Y233959D01*
X394244Y233937D01*
X394071Y233919D01*
X394045Y233912D01*
X394019Y233908D01*
X393853Y233853D01*
X393686Y233801D01*
X393662Y233788D01*
X393637Y233780D01*
X393485Y233693D01*
X393332Y233609D01*
X393311Y233592D01*
X393288Y233579D01*
X393035Y233364D01*
X391368Y231697D01*
X288072Y231697D01*
X288054Y231695D01*
X288036Y231697D01*
X287854Y231676D01*
X287671Y231657D01*
X287654Y231652D01*
X287637Y231650D01*
X287462Y231593D01*
X287286Y231539D01*
X287271Y231531D01*
X287254Y231525D01*
X287094Y231435D01*
X286932Y231347D01*
X286919Y231336D01*
X286903Y231327D01*
X286764Y231207D01*
X286623Y231090D01*
X286612Y231076D01*
X286598Y231064D01*
X286486Y230919D01*
X286371Y230776D01*
X286363Y230760D01*
X286352Y230746D01*
X286270Y230581D01*
X286185Y230419D01*
X286180Y230402D01*
X286172Y230386D01*
X286125Y230207D01*
X286074Y230032D01*
X286072Y230014D01*
X286068Y229997D01*
X286041Y229666D01*
X286041Y228798D01*
X285121Y226578D01*
X283422Y224879D01*
X281202Y223959D01*
X278798Y223959D01*
G37*
%LPD*%
%LPC*%
G36*
X323249Y381209D02*
X323249Y381209D01*
X320937Y382167D01*
X319167Y383937D01*
X318209Y386249D01*
X318209Y388751D01*
X319167Y391063D01*
X320937Y392833D01*
X323249Y393791D01*
X325279Y393791D01*
X325305Y393793D01*
X325332Y393791D01*
X325506Y393813D01*
X325679Y393831D01*
X325705Y393838D01*
X325731Y393842D01*
X325897Y393897D01*
X326064Y393949D01*
X326088Y393962D01*
X326113Y393970D01*
X326265Y394057D01*
X326418Y394141D01*
X326439Y394158D01*
X326462Y394171D01*
X326715Y394386D01*
X328832Y396503D01*
X337800Y396503D01*
X337827Y396505D01*
X337854Y396503D01*
X338028Y396525D01*
X338201Y396543D01*
X338227Y396550D01*
X338253Y396554D01*
X338419Y396609D01*
X338586Y396661D01*
X338610Y396674D01*
X338635Y396682D01*
X338787Y396769D01*
X338940Y396853D01*
X338960Y396870D01*
X338984Y396883D01*
X339111Y396991D01*
X342270Y396991D01*
X344491Y394770D01*
X344491Y391630D01*
X342270Y389409D01*
X339109Y389409D01*
X339061Y389447D01*
X338925Y389557D01*
X338902Y389570D01*
X338880Y389586D01*
X338724Y389664D01*
X338570Y389746D01*
X338544Y389754D01*
X338520Y389766D01*
X338351Y389811D01*
X338184Y389861D01*
X338157Y389863D01*
X338131Y389870D01*
X337800Y389897D01*
X332822Y389897D01*
X332804Y389895D01*
X332786Y389897D01*
X332604Y389876D01*
X332421Y389857D01*
X332404Y389852D01*
X332387Y389850D01*
X332212Y389793D01*
X332036Y389739D01*
X332021Y389731D01*
X332004Y389725D01*
X331844Y389635D01*
X331682Y389547D01*
X331669Y389536D01*
X331653Y389527D01*
X331514Y389407D01*
X331373Y389290D01*
X331362Y389276D01*
X331348Y389264D01*
X331236Y389119D01*
X331121Y388976D01*
X331113Y388960D01*
X331102Y388946D01*
X331020Y388781D01*
X330935Y388619D01*
X330930Y388602D01*
X330922Y388586D01*
X330875Y388407D01*
X330824Y388232D01*
X330822Y388214D01*
X330818Y388197D01*
X330791Y387866D01*
X330791Y386249D01*
X329833Y383937D01*
X328063Y382167D01*
X325751Y381209D01*
X323249Y381209D01*
G37*
%LPD*%
%LPC*%
G36*
X550339Y677461D02*
X550339Y677461D01*
X559485Y677461D01*
X559445Y677204D01*
X558864Y675417D01*
X558011Y673743D01*
X556906Y672222D01*
X555578Y670894D01*
X554057Y669789D01*
X552383Y668936D01*
X550596Y668355D01*
X550339Y668315D01*
X550339Y677461D01*
G37*
%LPD*%
D10*
X370000Y680000D03*
X395400Y680000D03*
X420800Y680000D03*
X446200Y680000D03*
X471600Y680000D03*
X497000Y680000D03*
X522400Y680000D03*
X547800Y680000D03*
D11*
X433436Y210000D03*
X441564Y210000D03*
X433436Y157500D03*
X441564Y157500D03*
X255936Y157500D03*
X264064Y157500D03*
X185936Y157500D03*
X194064Y157500D03*
D12*
X592000Y24000D03*
X175000Y65000D03*
X349500Y65000D03*
X525000Y65000D03*
X262500Y64500D03*
X425000Y180000D03*
X75000Y65000D03*
X525000Y180000D03*
D13*
X350500Y322500D03*
X307500Y322500D03*
D14*
X345700Y401800D03*
X349300Y401800D03*
X349300Y398200D03*
X345700Y398200D03*
D13*
X335000Y370000D03*
X245000Y440000D03*
X245000Y480000D03*
D12*
X435000Y65000D03*
D15*
X321000Y441000D03*
D13*
X276500Y336000D03*
X380500Y336500D03*
X525000Y345000D03*
X525000Y256500D03*
X155000Y260000D03*
X276000Y260500D03*
X105000Y165000D03*
X540000Y635000D03*
X285000Y630000D03*
X330000Y565000D03*
X540000Y560000D03*
X440000Y445000D03*
X380500Y256500D03*
X440500Y256500D03*
D12*
X250000Y185000D03*
D13*
X600000Y160000D03*
X620000Y65000D03*
D12*
X415000Y25000D03*
D13*
X510000Y635000D03*
X484500Y664000D03*
X458500Y664000D03*
X433500Y664000D03*
X408000Y664000D03*
X350000Y244500D03*
D16*
X441564Y157500D02*
X500000Y157500D01*
D13*
X500000Y157500D03*
D16*
X442064Y209500D02*
X441564Y210000D01*
X442064Y209500D02*
X488000Y209500D01*
D12*
X488000Y209500D03*
D16*
X331000Y175000D02*
X331000Y174436D01*
X314064Y157500D01*
X264064Y157500D01*
D12*
X331000Y175000D03*
X365000Y157500D03*
D16*
X433436Y157500D01*
X255936Y157500D02*
X211958Y157500D01*
D12*
X211958Y157500D03*
D13*
X396500Y402500D03*
X396500Y358000D03*
D16*
X396500Y402500D01*
D14*
X340700Y393200D03*
D13*
X324500Y387500D03*
D16*
X330200Y393200D01*
X340700Y393200D01*
D14*
X359300Y393200D03*
D13*
X385000Y370000D03*
D16*
X382500Y370000D02*
X359300Y393200D01*
X382500Y370000D02*
X385000Y370000D01*
D13*
X328000Y428000D03*
X370000Y550000D03*
D16*
X328000Y493000D02*
X328000Y428000D01*
X370000Y535000D02*
X370000Y550000D01*
X370000Y535000D02*
X328000Y493000D01*
D13*
X339000Y428000D03*
X395500Y550000D03*
D16*
X395500Y535500D01*
X339000Y479000D01*
X339000Y428000D01*
D13*
X350000Y428000D03*
X421000Y550000D03*
D16*
X350000Y470000D02*
X350000Y428000D01*
X421000Y541000D02*
X421000Y550000D01*
X421000Y541000D02*
X350000Y470000D01*
D13*
X361000Y428000D03*
X446000Y550000D03*
D16*
X361000Y461000D02*
X361000Y428000D01*
X361000Y461000D02*
X446000Y546000D01*
X446000Y550000D01*
D13*
X372000Y428000D03*
X471500Y550000D03*
D16*
X372000Y450500D02*
X372000Y428000D01*
X372000Y450500D02*
X471500Y550000D01*
D13*
X497000Y550000D03*
D16*
X380500Y433500D01*
D14*
X359300Y406800D03*
D16*
X359500Y407000D01*
X362000Y407000D01*
X380500Y425500D01*
X380500Y433500D01*
D14*
X340700Y406800D03*
D16*
X340500Y407000D01*
X263000Y407000D01*
X262500Y407500D01*
D13*
X262500Y407500D03*
X333000Y140000D03*
X369000Y175000D03*
D16*
X368318Y175000D01*
X333000Y140000D01*
X385000Y210000D02*
X433436Y210000D01*
X209000Y140000D02*
X194064Y154936D01*
X194064Y157500D01*
X209000Y140000D02*
X333000Y140000D01*
D12*
X385000Y210000D03*
D13*
X345000Y615000D03*
X385000Y630000D03*
X410000Y630000D03*
X435000Y630000D03*
D16*
X350000Y620000D02*
X345000Y615000D01*
X350000Y620000D02*
X385000Y620000D01*
X410000Y620000D01*
X430000Y620000D01*
X435000Y625000D02*
X435000Y630000D01*
X435000Y625000D02*
X430000Y620000D01*
X410000Y620000D02*
X410000Y630000D01*
X385000Y630000D02*
X385000Y620000D01*
D13*
X345000Y645000D03*
X360000Y630000D03*
X460000Y630000D03*
X485000Y630000D03*
D16*
X360000Y645000D02*
X345000Y645000D01*
X360000Y645000D02*
X460000Y645000D01*
X475000Y645000D01*
X485000Y635000D01*
X485000Y630000D01*
X460000Y630000D02*
X460000Y645000D01*
X360000Y645000D02*
X360000Y630000D01*
D14*
X359300Y398200D03*
D16*
X388815Y417774D02*
X417774Y417774D01*
X435000Y435000D01*
D12*
X435000Y435000D03*
D16*
X369241Y398200D02*
X359300Y398200D01*
X369241Y398200D02*
X388815Y417774D01*
X185936Y157500D02*
X138000Y157500D01*
D12*
X138000Y157500D03*
D14*
X354300Y406800D03*
D13*
X314000Y472500D03*
D17*
X314000Y426500D02*
X322000Y418500D01*
X342600Y418500D01*
D18*
X354300Y406800D01*
D17*
X314000Y426500D02*
X314000Y472500D01*
D12*
X395000Y240000D03*
D16*
X390000Y235000D01*
D12*
X280000Y230000D03*
D16*
X285000Y235000D01*
X390000Y235000D01*
M02*
