G04 EAGLE Gerber RS-274X export*
G75*
%MOMM*%
%FSLAX34Y34*%
%LPD*%
%INBottom Copper*%
%IPPOS*%
%AMOC8*
5,1,8,0,0,1.08239X$1,22.5*%
G01*
%ADD10C,1.879600*%
%ADD11R,0.635000X1.270000*%
%ADD12C,0.700000*%
%ADD13C,0.250000*%
%ADD14C,0.750000*%
%ADD15C,0.508000*%
%ADD16C,0.152400*%
%ADD17C,0.254000*%
%ADD18C,0.200000*%

G36*
X651900Y10165D02*
X651900Y10165D01*
X651924Y10162D01*
X652021Y10184D01*
X652119Y10200D01*
X652141Y10212D01*
X652164Y10217D01*
X652249Y10269D01*
X652337Y10316D01*
X652353Y10333D01*
X652374Y10346D01*
X652438Y10422D01*
X652506Y10494D01*
X652516Y10516D01*
X652532Y10534D01*
X652568Y10627D01*
X652610Y10717D01*
X652612Y10741D01*
X652621Y10763D01*
X652626Y10863D01*
X652637Y10961D01*
X652632Y10985D01*
X652633Y11009D01*
X652606Y11105D01*
X652584Y11202D01*
X652572Y11222D01*
X652565Y11246D01*
X652509Y11328D01*
X652458Y11413D01*
X652440Y11429D01*
X652426Y11448D01*
X652347Y11508D01*
X652271Y11573D01*
X652249Y11582D01*
X652230Y11596D01*
X652073Y11657D01*
X651823Y11724D01*
X645516Y15366D01*
X640366Y20516D01*
X636724Y26823D01*
X634839Y33858D01*
X634839Y41142D01*
X636724Y48177D01*
X640366Y54484D01*
X645516Y59634D01*
X651823Y63276D01*
X658858Y65161D01*
X666142Y65161D01*
X673177Y63276D01*
X679484Y59634D01*
X684634Y54484D01*
X688276Y48177D01*
X688343Y47927D01*
X688353Y47904D01*
X688357Y47881D01*
X688403Y47793D01*
X688444Y47702D01*
X688460Y47685D01*
X688472Y47663D01*
X688544Y47595D01*
X688611Y47522D01*
X688632Y47511D01*
X688650Y47494D01*
X688740Y47452D01*
X688827Y47405D01*
X688851Y47401D01*
X688873Y47390D01*
X688972Y47379D01*
X689070Y47362D01*
X689094Y47366D01*
X689117Y47363D01*
X689215Y47384D01*
X689313Y47399D01*
X689334Y47410D01*
X689358Y47416D01*
X689443Y47466D01*
X689531Y47512D01*
X689548Y47529D01*
X689569Y47542D01*
X689634Y47617D01*
X689703Y47689D01*
X689713Y47710D01*
X689729Y47729D01*
X689766Y47821D01*
X689809Y47910D01*
X689812Y47934D01*
X689821Y47957D01*
X689839Y48124D01*
X689839Y651876D01*
X689835Y651900D01*
X689838Y651924D01*
X689816Y652021D01*
X689800Y652119D01*
X689788Y652141D01*
X689783Y652164D01*
X689731Y652249D01*
X689684Y652337D01*
X689667Y652353D01*
X689654Y652374D01*
X689578Y652438D01*
X689506Y652506D01*
X689484Y652516D01*
X689466Y652532D01*
X689373Y652568D01*
X689283Y652610D01*
X689259Y652612D01*
X689237Y652621D01*
X689137Y652626D01*
X689039Y652637D01*
X689015Y652632D01*
X688991Y652633D01*
X688895Y652606D01*
X688798Y652584D01*
X688778Y652572D01*
X688754Y652565D01*
X688672Y652509D01*
X688587Y652458D01*
X688571Y652440D01*
X688552Y652426D01*
X688492Y652347D01*
X688427Y652271D01*
X688418Y652249D01*
X688404Y652230D01*
X688343Y652073D01*
X688276Y651823D01*
X684634Y645516D01*
X679484Y640366D01*
X673177Y636724D01*
X666142Y634839D01*
X658858Y634839D01*
X651823Y636724D01*
X645516Y640366D01*
X640366Y645516D01*
X636724Y651823D01*
X634839Y658858D01*
X634839Y666142D01*
X636724Y673177D01*
X640366Y679484D01*
X645516Y684634D01*
X651823Y688276D01*
X652073Y688343D01*
X652096Y688353D01*
X652119Y688357D01*
X652207Y688403D01*
X652298Y688444D01*
X652315Y688460D01*
X652337Y688472D01*
X652405Y688544D01*
X652478Y688611D01*
X652489Y688632D01*
X652506Y688650D01*
X652548Y688740D01*
X652595Y688827D01*
X652599Y688851D01*
X652610Y688873D01*
X652621Y688972D01*
X652638Y689070D01*
X652634Y689094D01*
X652637Y689117D01*
X652616Y689215D01*
X652601Y689313D01*
X652590Y689334D01*
X652584Y689358D01*
X652534Y689443D01*
X652488Y689531D01*
X652471Y689548D01*
X652458Y689569D01*
X652383Y689634D01*
X652311Y689703D01*
X652290Y689713D01*
X652271Y689729D01*
X652179Y689766D01*
X652090Y689809D01*
X652066Y689812D01*
X652043Y689821D01*
X651876Y689839D01*
X556682Y689839D01*
X556612Y689828D01*
X556540Y689826D01*
X556491Y689808D01*
X556440Y689800D01*
X556376Y689766D01*
X556309Y689741D01*
X556268Y689709D01*
X556222Y689684D01*
X556173Y689632D01*
X556117Y689588D01*
X556089Y689544D01*
X556053Y689506D01*
X556023Y689441D01*
X555984Y689381D01*
X555971Y689330D01*
X555949Y689283D01*
X555941Y689212D01*
X555924Y689142D01*
X555928Y689090D01*
X555922Y689039D01*
X555937Y688968D01*
X555943Y688897D01*
X555963Y688849D01*
X555974Y688798D01*
X556011Y688737D01*
X556039Y688671D01*
X556084Y688615D01*
X556101Y688587D01*
X556118Y688572D01*
X556144Y688540D01*
X556906Y687778D01*
X558011Y686257D01*
X558864Y684583D01*
X559445Y682796D01*
X559646Y681523D01*
X548562Y681523D01*
X548542Y681520D01*
X548523Y681522D01*
X548421Y681500D01*
X548319Y681483D01*
X548302Y681474D01*
X548282Y681470D01*
X548193Y681417D01*
X548102Y681368D01*
X548088Y681354D01*
X548071Y681344D01*
X548004Y681265D01*
X547933Y681190D01*
X547924Y681172D01*
X547911Y681157D01*
X547873Y681061D01*
X547829Y680967D01*
X547827Y680947D01*
X547819Y680929D01*
X547801Y680762D01*
X547801Y679999D01*
X547799Y679999D01*
X547799Y680762D01*
X547796Y680782D01*
X547798Y680801D01*
X547776Y680903D01*
X547759Y681005D01*
X547750Y681022D01*
X547746Y681042D01*
X547693Y681131D01*
X547644Y681222D01*
X547630Y681236D01*
X547620Y681253D01*
X547541Y681320D01*
X547466Y681391D01*
X547448Y681400D01*
X547433Y681413D01*
X547337Y681452D01*
X547243Y681495D01*
X547223Y681497D01*
X547205Y681505D01*
X547038Y681523D01*
X535954Y681523D01*
X536155Y682796D01*
X536736Y684583D01*
X537589Y686257D01*
X538694Y687778D01*
X539456Y688540D01*
X539498Y688598D01*
X539547Y688650D01*
X539569Y688697D01*
X539599Y688739D01*
X539620Y688808D01*
X539651Y688873D01*
X539656Y688925D01*
X539672Y688975D01*
X539670Y689046D01*
X539678Y689117D01*
X539667Y689168D01*
X539665Y689220D01*
X539641Y689288D01*
X539626Y689358D01*
X539599Y689403D01*
X539581Y689451D01*
X539536Y689507D01*
X539499Y689569D01*
X539460Y689603D01*
X539427Y689643D01*
X539367Y689682D01*
X539312Y689729D01*
X539264Y689748D01*
X539220Y689776D01*
X539151Y689794D01*
X539084Y689821D01*
X539013Y689829D01*
X538982Y689837D01*
X538958Y689835D01*
X538918Y689839D01*
X531282Y689839D01*
X531212Y689828D01*
X531140Y689826D01*
X531091Y689808D01*
X531040Y689800D01*
X530976Y689766D01*
X530909Y689741D01*
X530868Y689709D01*
X530822Y689684D01*
X530773Y689632D01*
X530717Y689588D01*
X530689Y689544D01*
X530653Y689506D01*
X530623Y689441D01*
X530584Y689381D01*
X530571Y689330D01*
X530549Y689283D01*
X530541Y689212D01*
X530524Y689142D01*
X530528Y689090D01*
X530522Y689039D01*
X530537Y688968D01*
X530543Y688897D01*
X530563Y688849D01*
X530574Y688798D01*
X530611Y688737D01*
X530639Y688671D01*
X530684Y688615D01*
X530701Y688587D01*
X530718Y688572D01*
X530744Y688540D01*
X532521Y686763D01*
X534339Y682375D01*
X534339Y677625D01*
X532521Y673237D01*
X529163Y669879D01*
X524775Y668061D01*
X520025Y668061D01*
X515637Y669879D01*
X512279Y673237D01*
X512203Y673420D01*
X512152Y673502D01*
X512106Y673588D01*
X512088Y673606D01*
X512074Y673629D01*
X511999Y673691D01*
X511928Y673758D01*
X511904Y673769D01*
X511884Y673785D01*
X511793Y673820D01*
X511705Y673861D01*
X511679Y673864D01*
X511655Y673874D01*
X511557Y673878D01*
X511461Y673889D01*
X511435Y673883D01*
X511409Y673884D01*
X511315Y673857D01*
X511220Y673836D01*
X511198Y673823D01*
X511173Y673816D01*
X511093Y673760D01*
X511009Y673710D01*
X510992Y673690D01*
X510971Y673675D01*
X510913Y673597D01*
X510849Y673523D01*
X510839Y673499D01*
X510824Y673478D01*
X510794Y673386D01*
X510757Y673295D01*
X510754Y673263D01*
X510748Y673244D01*
X510748Y673211D01*
X510739Y673128D01*
X510739Y548816D01*
X373688Y412263D01*
X372263Y412272D01*
X372170Y412258D01*
X372077Y412250D01*
X372050Y412239D01*
X372020Y412234D01*
X371937Y412191D01*
X371851Y412154D01*
X371822Y412131D01*
X371802Y412120D01*
X371779Y412097D01*
X371720Y412049D01*
X363368Y403697D01*
X361874Y403697D01*
X361784Y403683D01*
X361693Y403675D01*
X361663Y403663D01*
X361631Y403658D01*
X361550Y403615D01*
X361466Y403579D01*
X361434Y403553D01*
X361413Y403542D01*
X361391Y403519D01*
X361335Y403474D01*
X360899Y403038D01*
X360888Y403022D01*
X360872Y403010D01*
X360816Y402923D01*
X360756Y402839D01*
X360750Y402820D01*
X360739Y402803D01*
X360714Y402702D01*
X360683Y402604D01*
X360684Y402584D01*
X360679Y402564D01*
X360687Y402461D01*
X360690Y402358D01*
X360697Y402339D01*
X360698Y402319D01*
X360738Y402224D01*
X360774Y402127D01*
X360787Y402111D01*
X360794Y402093D01*
X360899Y401962D01*
X361135Y401726D01*
X361209Y401673D01*
X361279Y401613D01*
X361309Y401601D01*
X361335Y401582D01*
X361422Y401555D01*
X361507Y401521D01*
X361548Y401517D01*
X361570Y401510D01*
X361602Y401511D01*
X361674Y401503D01*
X367558Y401503D01*
X367648Y401517D01*
X367739Y401525D01*
X367769Y401537D01*
X367801Y401542D01*
X367882Y401585D01*
X367965Y401621D01*
X367998Y401647D01*
X368018Y401658D01*
X368040Y401681D01*
X368096Y401726D01*
X387447Y421077D01*
X416091Y421077D01*
X416181Y421091D01*
X416272Y421099D01*
X416301Y421111D01*
X416333Y421116D01*
X416414Y421159D01*
X416498Y421195D01*
X416530Y421221D01*
X416551Y421232D01*
X416573Y421255D01*
X416629Y421300D01*
X428736Y433407D01*
X428789Y433481D01*
X428849Y433550D01*
X428861Y433581D01*
X428880Y433607D01*
X428907Y433694D01*
X428941Y433779D01*
X428945Y433820D01*
X428952Y433842D01*
X428951Y433874D01*
X428959Y433945D01*
X428959Y436202D01*
X429879Y438422D01*
X431578Y440121D01*
X433798Y441041D01*
X436202Y441041D01*
X438422Y440121D01*
X440121Y438422D01*
X441041Y436202D01*
X441041Y433798D01*
X440121Y431578D01*
X438422Y429879D01*
X436202Y428959D01*
X433945Y428959D01*
X433855Y428945D01*
X433764Y428937D01*
X433735Y428925D01*
X433703Y428920D01*
X433622Y428877D01*
X433538Y428841D01*
X433506Y428815D01*
X433485Y428804D01*
X433463Y428781D01*
X433407Y428736D01*
X419142Y414471D01*
X390499Y414471D01*
X390409Y414457D01*
X390318Y414449D01*
X390288Y414437D01*
X390256Y414432D01*
X390175Y414389D01*
X390091Y414353D01*
X390059Y414327D01*
X390039Y414316D01*
X390016Y414293D01*
X389961Y414248D01*
X370609Y394897D01*
X364111Y394897D01*
X364041Y394886D01*
X363969Y394884D01*
X363920Y394866D01*
X363869Y394858D01*
X363805Y394824D01*
X363738Y394799D01*
X363697Y394767D01*
X363651Y394742D01*
X363602Y394690D01*
X363546Y394646D01*
X363518Y394602D01*
X363482Y394564D01*
X363452Y394499D01*
X363413Y394439D01*
X363400Y394388D01*
X363378Y394341D01*
X363370Y394270D01*
X363353Y394200D01*
X363357Y394148D01*
X363351Y394097D01*
X363366Y394026D01*
X363372Y393955D01*
X363392Y393907D01*
X363403Y393856D01*
X363440Y393795D01*
X363468Y393729D01*
X363513Y393673D01*
X363530Y393645D01*
X363547Y393630D01*
X363573Y393598D01*
X381552Y375619D01*
X381646Y375551D01*
X381741Y375481D01*
X381747Y375479D01*
X381752Y375475D01*
X381862Y375441D01*
X381974Y375405D01*
X381981Y375405D01*
X381987Y375403D01*
X382104Y375406D01*
X382220Y375407D01*
X382228Y375409D01*
X382233Y375409D01*
X382250Y375416D01*
X382382Y375454D01*
X383798Y376041D01*
X386202Y376041D01*
X388422Y375121D01*
X390121Y373422D01*
X391041Y371202D01*
X391041Y368798D01*
X390121Y366578D01*
X388422Y364879D01*
X386202Y363959D01*
X383798Y363959D01*
X381578Y364879D01*
X379879Y366578D01*
X378967Y368781D01*
X378932Y368837D01*
X378906Y368897D01*
X378855Y368961D01*
X378837Y368990D01*
X378822Y369002D01*
X378802Y369028D01*
X358643Y389186D01*
X358569Y389239D01*
X358500Y389299D01*
X358469Y389311D01*
X358443Y389330D01*
X358356Y389357D01*
X358271Y389391D01*
X358230Y389395D01*
X358208Y389402D01*
X358176Y389401D01*
X358105Y389409D01*
X357730Y389409D01*
X355509Y391630D01*
X355509Y394770D01*
X355901Y395162D01*
X355912Y395178D01*
X355928Y395190D01*
X355984Y395278D01*
X356044Y395361D01*
X356050Y395380D01*
X356061Y395397D01*
X356086Y395498D01*
X356117Y395597D01*
X356116Y395616D01*
X356121Y395636D01*
X356113Y395739D01*
X356110Y395842D01*
X356103Y395861D01*
X356102Y395881D01*
X356062Y395976D01*
X356026Y396073D01*
X356013Y396089D01*
X356006Y396107D01*
X355901Y396238D01*
X355509Y396630D01*
X355509Y399770D01*
X357701Y401962D01*
X357712Y401978D01*
X357728Y401990D01*
X357784Y402078D01*
X357844Y402161D01*
X357850Y402180D01*
X357861Y402197D01*
X357886Y402298D01*
X357917Y402397D01*
X357916Y402416D01*
X357921Y402436D01*
X357913Y402539D01*
X357910Y402642D01*
X357903Y402661D01*
X357902Y402681D01*
X357862Y402776D01*
X357826Y402873D01*
X357813Y402889D01*
X357806Y402907D01*
X357701Y403038D01*
X357338Y403401D01*
X357322Y403412D01*
X357310Y403428D01*
X357222Y403484D01*
X357139Y403544D01*
X357120Y403550D01*
X357103Y403561D01*
X357002Y403586D01*
X356903Y403617D01*
X356884Y403616D01*
X356864Y403621D01*
X356761Y403613D01*
X356658Y403610D01*
X356639Y403603D01*
X356619Y403602D01*
X356524Y403562D01*
X356427Y403526D01*
X356411Y403513D01*
X356393Y403506D01*
X356262Y403401D01*
X355870Y403009D01*
X352730Y403009D01*
X350509Y405230D01*
X350509Y405268D01*
X350507Y405280D01*
X350508Y405289D01*
X350499Y405334D01*
X350495Y405358D01*
X350487Y405449D01*
X350475Y405479D01*
X350470Y405511D01*
X350427Y405591D01*
X350391Y405675D01*
X350365Y405707D01*
X350354Y405728D01*
X350331Y405750D01*
X350286Y405806D01*
X343860Y412232D01*
X343788Y412284D01*
X343721Y412342D01*
X343689Y412356D01*
X343660Y412376D01*
X343575Y412402D01*
X343493Y412436D01*
X343449Y412441D01*
X343425Y412448D01*
X343394Y412448D01*
X343327Y412455D01*
X295317Y412759D01*
X280761Y427315D01*
X280761Y689078D01*
X280758Y689098D01*
X280760Y689117D01*
X280738Y689219D01*
X280722Y689321D01*
X280712Y689338D01*
X280708Y689358D01*
X280655Y689447D01*
X280606Y689538D01*
X280592Y689552D01*
X280582Y689569D01*
X280503Y689636D01*
X280428Y689708D01*
X280410Y689716D01*
X280395Y689729D01*
X280299Y689768D01*
X280205Y689811D01*
X280185Y689813D01*
X280167Y689821D01*
X280000Y689839D01*
X48124Y689839D01*
X48100Y689835D01*
X48076Y689838D01*
X47979Y689816D01*
X47881Y689800D01*
X47859Y689788D01*
X47836Y689783D01*
X47751Y689731D01*
X47663Y689684D01*
X47647Y689667D01*
X47626Y689654D01*
X47562Y689578D01*
X47494Y689506D01*
X47484Y689484D01*
X47468Y689466D01*
X47432Y689373D01*
X47390Y689283D01*
X47388Y689259D01*
X47379Y689237D01*
X47374Y689137D01*
X47363Y689039D01*
X47368Y689015D01*
X47367Y688991D01*
X47394Y688895D01*
X47416Y688798D01*
X47428Y688778D01*
X47435Y688754D01*
X47491Y688672D01*
X47542Y688587D01*
X47560Y688571D01*
X47574Y688552D01*
X47653Y688492D01*
X47729Y688427D01*
X47751Y688418D01*
X47770Y688404D01*
X47927Y688343D01*
X48177Y688276D01*
X54484Y684634D01*
X59634Y679484D01*
X63276Y673177D01*
X65161Y666142D01*
X65161Y658858D01*
X63276Y651823D01*
X59634Y645516D01*
X54484Y640366D01*
X48177Y636724D01*
X41142Y634839D01*
X33858Y634839D01*
X26823Y636724D01*
X20516Y640366D01*
X15366Y645516D01*
X11724Y651823D01*
X11657Y652073D01*
X11647Y652096D01*
X11643Y652119D01*
X11597Y652207D01*
X11556Y652298D01*
X11540Y652315D01*
X11528Y652337D01*
X11456Y652405D01*
X11389Y652478D01*
X11368Y652489D01*
X11350Y652506D01*
X11260Y652548D01*
X11173Y652595D01*
X11149Y652599D01*
X11127Y652610D01*
X11028Y652621D01*
X10930Y652638D01*
X10906Y652634D01*
X10883Y652637D01*
X10785Y652616D01*
X10687Y652601D01*
X10666Y652590D01*
X10642Y652584D01*
X10557Y652534D01*
X10469Y652488D01*
X10452Y652471D01*
X10431Y652458D01*
X10366Y652383D01*
X10297Y652311D01*
X10287Y652290D01*
X10271Y652271D01*
X10234Y652179D01*
X10191Y652090D01*
X10188Y652066D01*
X10179Y652043D01*
X10161Y651876D01*
X10161Y48124D01*
X10165Y48100D01*
X10162Y48076D01*
X10184Y47979D01*
X10200Y47881D01*
X10212Y47859D01*
X10217Y47836D01*
X10269Y47751D01*
X10316Y47663D01*
X10333Y47647D01*
X10346Y47626D01*
X10422Y47562D01*
X10494Y47494D01*
X10516Y47484D01*
X10534Y47468D01*
X10627Y47432D01*
X10717Y47390D01*
X10741Y47388D01*
X10763Y47379D01*
X10863Y47374D01*
X10961Y47363D01*
X10985Y47368D01*
X11009Y47367D01*
X11105Y47394D01*
X11202Y47416D01*
X11222Y47428D01*
X11246Y47435D01*
X11328Y47491D01*
X11413Y47542D01*
X11429Y47560D01*
X11448Y47574D01*
X11508Y47653D01*
X11573Y47729D01*
X11582Y47751D01*
X11596Y47770D01*
X11657Y47927D01*
X11724Y48177D01*
X15366Y54484D01*
X20516Y59634D01*
X26823Y63276D01*
X33858Y65161D01*
X41142Y65161D01*
X48177Y63276D01*
X54484Y59634D01*
X59634Y54484D01*
X63276Y48177D01*
X65161Y41142D01*
X65161Y33858D01*
X63276Y26823D01*
X59634Y20516D01*
X54484Y15366D01*
X48177Y11724D01*
X47927Y11657D01*
X47904Y11647D01*
X47881Y11643D01*
X47793Y11597D01*
X47702Y11556D01*
X47685Y11540D01*
X47663Y11528D01*
X47595Y11456D01*
X47522Y11389D01*
X47511Y11368D01*
X47494Y11350D01*
X47452Y11260D01*
X47405Y11173D01*
X47401Y11149D01*
X47390Y11127D01*
X47379Y11028D01*
X47362Y10930D01*
X47366Y10906D01*
X47363Y10883D01*
X47384Y10785D01*
X47399Y10687D01*
X47410Y10666D01*
X47416Y10642D01*
X47466Y10557D01*
X47512Y10469D01*
X47529Y10452D01*
X47542Y10431D01*
X47617Y10366D01*
X47689Y10297D01*
X47710Y10287D01*
X47729Y10271D01*
X47821Y10234D01*
X47910Y10191D01*
X47934Y10188D01*
X47957Y10179D01*
X48124Y10161D01*
X651876Y10161D01*
X651900Y10165D01*
G37*
G36*
X320105Y415750D02*
X320105Y415750D01*
X320177Y415752D01*
X320226Y415770D01*
X320277Y415779D01*
X320340Y415812D01*
X320408Y415837D01*
X320448Y415869D01*
X320494Y415894D01*
X320544Y415946D01*
X320600Y415990D01*
X320628Y416034D01*
X320664Y416072D01*
X320694Y416137D01*
X320733Y416197D01*
X320745Y416248D01*
X320767Y416295D01*
X320775Y416366D01*
X320793Y416436D01*
X320789Y416488D01*
X320794Y416539D01*
X320779Y416610D01*
X320774Y416681D01*
X320753Y416729D01*
X320742Y416780D01*
X320705Y416841D01*
X320677Y416907D01*
X320632Y416963D01*
X320616Y416991D01*
X320598Y417006D01*
X320572Y417038D01*
X320466Y417145D01*
X310689Y426922D01*
X310689Y454953D01*
X310675Y455043D01*
X310667Y455134D01*
X310655Y455163D01*
X310650Y455195D01*
X310607Y455276D01*
X310571Y455360D01*
X310545Y455392D01*
X310534Y455413D01*
X310511Y455435D01*
X310466Y455491D01*
X309379Y456578D01*
X308459Y458798D01*
X308459Y461202D01*
X309379Y463422D01*
X311078Y465121D01*
X313298Y466041D01*
X315702Y466041D01*
X317922Y465121D01*
X319621Y463422D01*
X320541Y461202D01*
X320541Y458798D01*
X319621Y456578D01*
X318534Y455491D01*
X318481Y455417D01*
X318421Y455347D01*
X318409Y455317D01*
X318390Y455291D01*
X318363Y455204D01*
X318329Y455119D01*
X318325Y455078D01*
X318318Y455056D01*
X318319Y455024D01*
X318311Y454953D01*
X318311Y430394D01*
X318325Y430304D01*
X318333Y430213D01*
X318345Y430183D01*
X318350Y430151D01*
X318393Y430071D01*
X318429Y429986D01*
X318455Y429954D01*
X318466Y429934D01*
X318489Y429912D01*
X318534Y429856D01*
X320660Y427729D01*
X320718Y427688D01*
X320770Y427638D01*
X320817Y427616D01*
X320859Y427586D01*
X320928Y427565D01*
X320993Y427535D01*
X321045Y427529D01*
X321095Y427514D01*
X321166Y427515D01*
X321237Y427508D01*
X321288Y427519D01*
X321340Y427520D01*
X321408Y427545D01*
X321478Y427560D01*
X321523Y427586D01*
X321571Y427604D01*
X321627Y427649D01*
X321689Y427686D01*
X321723Y427726D01*
X321763Y427758D01*
X321802Y427818D01*
X321849Y427873D01*
X321868Y427921D01*
X321896Y427965D01*
X321914Y428034D01*
X321941Y428101D01*
X321949Y428172D01*
X321957Y428204D01*
X321955Y428227D01*
X321959Y428268D01*
X321959Y429202D01*
X322879Y431422D01*
X324474Y433017D01*
X324527Y433091D01*
X324587Y433161D01*
X324599Y433191D01*
X324618Y433217D01*
X324645Y433304D01*
X324679Y433389D01*
X324683Y433430D01*
X324690Y433452D01*
X324689Y433484D01*
X324697Y433555D01*
X324697Y494368D01*
X366474Y536145D01*
X366527Y536219D01*
X366587Y536288D01*
X366599Y536319D01*
X366618Y536345D01*
X366645Y536432D01*
X366679Y536517D01*
X366683Y536558D01*
X366690Y536580D01*
X366689Y536612D01*
X366697Y536683D01*
X366697Y544445D01*
X366683Y544535D01*
X366675Y544626D01*
X366663Y544655D01*
X366658Y544687D01*
X366615Y544768D01*
X366579Y544852D01*
X366553Y544884D01*
X366542Y544905D01*
X366519Y544927D01*
X366474Y544983D01*
X364879Y546578D01*
X363959Y548798D01*
X363959Y551202D01*
X364879Y553422D01*
X366578Y555121D01*
X368798Y556041D01*
X371202Y556041D01*
X373422Y555121D01*
X375121Y553422D01*
X376041Y551202D01*
X376041Y548798D01*
X375121Y546578D01*
X373526Y544983D01*
X373473Y544909D01*
X373413Y544839D01*
X373401Y544809D01*
X373382Y544783D01*
X373355Y544696D01*
X373321Y544611D01*
X373317Y544570D01*
X373310Y544548D01*
X373311Y544516D01*
X373303Y544445D01*
X373303Y533632D01*
X331526Y491855D01*
X331473Y491781D01*
X331413Y491712D01*
X331401Y491681D01*
X331382Y491655D01*
X331355Y491568D01*
X331321Y491483D01*
X331317Y491442D01*
X331310Y491420D01*
X331311Y491388D01*
X331303Y491317D01*
X331303Y433555D01*
X331317Y433465D01*
X331325Y433374D01*
X331337Y433345D01*
X331342Y433313D01*
X331385Y433232D01*
X331421Y433148D01*
X331447Y433116D01*
X331458Y433095D01*
X331481Y433073D01*
X331526Y433017D01*
X332962Y431581D01*
X332978Y431570D01*
X332990Y431554D01*
X333078Y431498D01*
X333161Y431438D01*
X333180Y431432D01*
X333197Y431421D01*
X333298Y431396D01*
X333397Y431365D01*
X333416Y431366D01*
X333436Y431361D01*
X333539Y431369D01*
X333642Y431372D01*
X333661Y431379D01*
X333681Y431380D01*
X333776Y431420D01*
X333873Y431456D01*
X333889Y431469D01*
X333907Y431476D01*
X334038Y431581D01*
X335474Y433017D01*
X335527Y433091D01*
X335587Y433161D01*
X335599Y433191D01*
X335618Y433217D01*
X335645Y433304D01*
X335679Y433389D01*
X335683Y433430D01*
X335690Y433452D01*
X335689Y433484D01*
X335697Y433555D01*
X335697Y480368D01*
X391974Y536645D01*
X392027Y536719D01*
X392087Y536788D01*
X392099Y536819D01*
X392118Y536845D01*
X392145Y536932D01*
X392179Y537017D01*
X392183Y537058D01*
X392190Y537080D01*
X392189Y537112D01*
X392197Y537183D01*
X392197Y544445D01*
X392183Y544535D01*
X392175Y544626D01*
X392163Y544655D01*
X392158Y544687D01*
X392115Y544768D01*
X392079Y544852D01*
X392053Y544884D01*
X392042Y544905D01*
X392019Y544927D01*
X391974Y544983D01*
X390379Y546578D01*
X389459Y548798D01*
X389459Y551202D01*
X390379Y553422D01*
X392078Y555121D01*
X394298Y556041D01*
X396702Y556041D01*
X398922Y555121D01*
X400621Y553422D01*
X401541Y551202D01*
X401541Y548798D01*
X400621Y546578D01*
X399026Y544983D01*
X398973Y544909D01*
X398913Y544839D01*
X398901Y544809D01*
X398882Y544783D01*
X398855Y544696D01*
X398821Y544611D01*
X398817Y544570D01*
X398810Y544548D01*
X398811Y544516D01*
X398803Y544445D01*
X398803Y534132D01*
X342526Y477855D01*
X342473Y477781D01*
X342413Y477712D01*
X342401Y477681D01*
X342382Y477655D01*
X342355Y477568D01*
X342321Y477483D01*
X342317Y477442D01*
X342310Y477420D01*
X342311Y477388D01*
X342303Y477317D01*
X342303Y433555D01*
X342317Y433465D01*
X342325Y433374D01*
X342337Y433345D01*
X342342Y433313D01*
X342385Y433232D01*
X342421Y433148D01*
X342447Y433116D01*
X342458Y433095D01*
X342481Y433073D01*
X342526Y433017D01*
X343962Y431581D01*
X343978Y431570D01*
X343990Y431554D01*
X344078Y431498D01*
X344161Y431438D01*
X344180Y431432D01*
X344197Y431421D01*
X344298Y431396D01*
X344397Y431365D01*
X344416Y431366D01*
X344436Y431361D01*
X344539Y431369D01*
X344642Y431372D01*
X344661Y431379D01*
X344681Y431380D01*
X344776Y431420D01*
X344873Y431456D01*
X344889Y431469D01*
X344907Y431476D01*
X345038Y431581D01*
X346474Y433017D01*
X346527Y433091D01*
X346587Y433161D01*
X346599Y433191D01*
X346618Y433217D01*
X346645Y433304D01*
X346679Y433389D01*
X346683Y433430D01*
X346690Y433452D01*
X346689Y433484D01*
X346697Y433555D01*
X346697Y471368D01*
X417474Y542145D01*
X417527Y542219D01*
X417587Y542288D01*
X417599Y542319D01*
X417618Y542345D01*
X417645Y542432D01*
X417679Y542517D01*
X417683Y542558D01*
X417690Y542580D01*
X417689Y542612D01*
X417697Y542683D01*
X417697Y544445D01*
X417683Y544535D01*
X417675Y544626D01*
X417663Y544655D01*
X417658Y544687D01*
X417615Y544768D01*
X417579Y544852D01*
X417553Y544884D01*
X417542Y544905D01*
X417519Y544927D01*
X417474Y544983D01*
X415879Y546578D01*
X414959Y548798D01*
X414959Y551202D01*
X415879Y553422D01*
X417578Y555121D01*
X419798Y556041D01*
X422202Y556041D01*
X424422Y555121D01*
X426121Y553422D01*
X427041Y551202D01*
X427041Y548798D01*
X426121Y546578D01*
X424526Y544983D01*
X424473Y544909D01*
X424413Y544839D01*
X424401Y544809D01*
X424382Y544783D01*
X424355Y544696D01*
X424321Y544611D01*
X424317Y544570D01*
X424310Y544548D01*
X424311Y544516D01*
X424303Y544445D01*
X424303Y539632D01*
X353526Y468855D01*
X353473Y468781D01*
X353413Y468712D01*
X353401Y468681D01*
X353382Y468655D01*
X353355Y468568D01*
X353321Y468483D01*
X353317Y468442D01*
X353310Y468420D01*
X353311Y468388D01*
X353303Y468317D01*
X353303Y433555D01*
X353317Y433465D01*
X353325Y433374D01*
X353337Y433345D01*
X353342Y433313D01*
X353385Y433232D01*
X353421Y433148D01*
X353447Y433116D01*
X353458Y433095D01*
X353481Y433073D01*
X353526Y433017D01*
X354962Y431581D01*
X354978Y431570D01*
X354990Y431554D01*
X355078Y431498D01*
X355161Y431438D01*
X355180Y431432D01*
X355197Y431421D01*
X355298Y431396D01*
X355397Y431365D01*
X355416Y431366D01*
X355436Y431361D01*
X355539Y431369D01*
X355642Y431372D01*
X355661Y431379D01*
X355681Y431380D01*
X355776Y431420D01*
X355873Y431456D01*
X355889Y431469D01*
X355907Y431476D01*
X356038Y431581D01*
X357474Y433017D01*
X357527Y433091D01*
X357587Y433161D01*
X357599Y433191D01*
X357618Y433217D01*
X357645Y433304D01*
X357679Y433389D01*
X357683Y433430D01*
X357690Y433452D01*
X357689Y433484D01*
X357697Y433555D01*
X357697Y462368D01*
X440855Y545526D01*
X440867Y545542D01*
X440882Y545554D01*
X440938Y545642D01*
X440998Y545725D01*
X441004Y545744D01*
X441015Y545761D01*
X441040Y545862D01*
X441071Y545960D01*
X441070Y545980D01*
X441075Y546000D01*
X441067Y546103D01*
X441064Y546206D01*
X441058Y546225D01*
X441056Y546245D01*
X441016Y546340D01*
X440980Y546437D01*
X440967Y546453D01*
X440960Y546471D01*
X440884Y546566D01*
X439959Y548798D01*
X439959Y551202D01*
X440879Y553422D01*
X442578Y555121D01*
X444798Y556041D01*
X447202Y556041D01*
X449422Y555121D01*
X451121Y553422D01*
X452041Y551202D01*
X452041Y548798D01*
X451121Y546578D01*
X449526Y544983D01*
X449473Y544909D01*
X449413Y544839D01*
X449401Y544809D01*
X449382Y544783D01*
X449355Y544696D01*
X449348Y544677D01*
X364526Y459855D01*
X364473Y459781D01*
X364413Y459712D01*
X364401Y459681D01*
X364382Y459655D01*
X364355Y459568D01*
X364321Y459483D01*
X364317Y459442D01*
X364310Y459420D01*
X364311Y459388D01*
X364303Y459317D01*
X364303Y433555D01*
X364317Y433465D01*
X364325Y433374D01*
X364337Y433345D01*
X364342Y433313D01*
X364385Y433232D01*
X364421Y433148D01*
X364447Y433116D01*
X364458Y433095D01*
X364481Y433073D01*
X364526Y433017D01*
X365962Y431581D01*
X365978Y431570D01*
X365990Y431554D01*
X366078Y431498D01*
X366161Y431438D01*
X366180Y431432D01*
X366197Y431421D01*
X366298Y431396D01*
X366397Y431365D01*
X366416Y431366D01*
X366436Y431361D01*
X366539Y431369D01*
X366642Y431372D01*
X366661Y431379D01*
X366681Y431380D01*
X366776Y431420D01*
X366873Y431456D01*
X366889Y431469D01*
X366907Y431476D01*
X367038Y431581D01*
X368474Y433017D01*
X368527Y433091D01*
X368587Y433161D01*
X368599Y433191D01*
X368618Y433217D01*
X368645Y433304D01*
X368679Y433389D01*
X368683Y433430D01*
X368690Y433452D01*
X368689Y433484D01*
X368697Y433555D01*
X368697Y451868D01*
X465236Y548407D01*
X465289Y548481D01*
X465349Y548550D01*
X465361Y548581D01*
X465380Y548607D01*
X465407Y548694D01*
X465425Y548738D01*
X465431Y548753D01*
X465431Y548755D01*
X465441Y548779D01*
X465445Y548820D01*
X465452Y548842D01*
X465451Y548874D01*
X465459Y548945D01*
X465459Y551202D01*
X466379Y553422D01*
X468078Y555121D01*
X470298Y556041D01*
X472702Y556041D01*
X474922Y555121D01*
X476621Y553422D01*
X477541Y551202D01*
X477541Y548798D01*
X476621Y546578D01*
X474922Y544879D01*
X472702Y543959D01*
X470445Y543959D01*
X470355Y543945D01*
X470264Y543937D01*
X470235Y543925D01*
X470203Y543920D01*
X470122Y543877D01*
X470038Y543841D01*
X470006Y543815D01*
X469985Y543804D01*
X469963Y543781D01*
X469907Y543736D01*
X375526Y449355D01*
X375473Y449281D01*
X375413Y449212D01*
X375401Y449181D01*
X375382Y449155D01*
X375355Y449068D01*
X375321Y448983D01*
X375317Y448942D01*
X375310Y448920D01*
X375311Y448888D01*
X375303Y448817D01*
X375303Y433555D01*
X375317Y433466D01*
X375325Y433375D01*
X375337Y433345D01*
X375342Y433313D01*
X375385Y433232D01*
X375421Y433148D01*
X375447Y433116D01*
X375458Y433095D01*
X375481Y433073D01*
X375526Y433017D01*
X375898Y432645D01*
X375956Y432603D01*
X376008Y432554D01*
X376055Y432532D01*
X376097Y432502D01*
X376166Y432481D01*
X376231Y432450D01*
X376283Y432445D01*
X376333Y432429D01*
X376404Y432431D01*
X376475Y432423D01*
X376526Y432434D01*
X376578Y432436D01*
X376646Y432460D01*
X376716Y432475D01*
X376761Y432502D01*
X376809Y432520D01*
X376865Y432565D01*
X376927Y432602D01*
X376961Y432641D01*
X377001Y432674D01*
X377040Y432734D01*
X377087Y432789D01*
X377106Y432837D01*
X377134Y432881D01*
X377152Y432950D01*
X377179Y433017D01*
X377187Y433088D01*
X377195Y433119D01*
X377193Y433142D01*
X377197Y433183D01*
X377197Y436868D01*
X379355Y439026D01*
X491236Y550907D01*
X491289Y550981D01*
X491349Y551050D01*
X491361Y551081D01*
X491380Y551107D01*
X491407Y551194D01*
X491441Y551279D01*
X491445Y551320D01*
X491452Y551342D01*
X491451Y551374D01*
X491459Y551445D01*
X491459Y553702D01*
X492379Y555922D01*
X494078Y557621D01*
X496298Y558541D01*
X498702Y558541D01*
X500922Y557621D01*
X502621Y555922D01*
X503541Y553702D01*
X503541Y551298D01*
X502621Y549078D01*
X500922Y547379D01*
X498702Y546459D01*
X496445Y546459D01*
X496355Y546445D01*
X496264Y546437D01*
X496235Y546425D01*
X496203Y546420D01*
X496122Y546377D01*
X496038Y546341D01*
X496006Y546315D01*
X495985Y546304D01*
X495963Y546281D01*
X495907Y546236D01*
X384026Y434355D01*
X383973Y434281D01*
X383913Y434212D01*
X383901Y434181D01*
X383882Y434155D01*
X383855Y434068D01*
X383821Y433983D01*
X383817Y433942D01*
X383810Y433920D01*
X383811Y433888D01*
X383803Y433817D01*
X383803Y429064D01*
X383814Y428993D01*
X383816Y428922D01*
X383834Y428873D01*
X383842Y428821D01*
X383876Y428758D01*
X383901Y428691D01*
X383933Y428650D01*
X383958Y428604D01*
X384009Y428555D01*
X384054Y428499D01*
X384098Y428470D01*
X384136Y428434D01*
X384201Y428404D01*
X384261Y428366D01*
X384312Y428353D01*
X384359Y428331D01*
X384430Y428323D01*
X384500Y428305D01*
X384552Y428310D01*
X384603Y428304D01*
X384674Y428319D01*
X384745Y428325D01*
X384793Y428345D01*
X384844Y428356D01*
X384905Y428393D01*
X384971Y428421D01*
X385027Y428466D01*
X385055Y428482D01*
X385070Y428500D01*
X385102Y428526D01*
X507038Y550462D01*
X507091Y550536D01*
X507151Y550605D01*
X507163Y550635D01*
X507182Y550661D01*
X507209Y550748D01*
X507243Y550833D01*
X507247Y550874D01*
X507254Y550897D01*
X507253Y550929D01*
X507261Y551000D01*
X507261Y624087D01*
X507254Y624133D01*
X507256Y624178D01*
X507234Y624253D01*
X507222Y624330D01*
X507200Y624371D01*
X507187Y624415D01*
X507143Y624479D01*
X507106Y624547D01*
X507073Y624579D01*
X507047Y624617D01*
X506984Y624663D01*
X506928Y624717D01*
X506886Y624736D01*
X506850Y624764D01*
X506776Y624788D01*
X506705Y624820D01*
X506659Y624826D01*
X506616Y624840D01*
X506538Y624839D01*
X506461Y624848D01*
X506416Y624838D01*
X506370Y624837D01*
X506238Y624799D01*
X506220Y624795D01*
X506216Y624793D01*
X506209Y624791D01*
X504202Y623959D01*
X501798Y623959D01*
X499578Y624879D01*
X498491Y625966D01*
X498417Y626019D01*
X498347Y626079D01*
X498317Y626091D01*
X498291Y626110D01*
X498204Y626137D01*
X498119Y626171D01*
X498078Y626175D01*
X498056Y626182D01*
X498024Y626181D01*
X497953Y626189D01*
X490047Y626189D01*
X489957Y626175D01*
X489866Y626167D01*
X489837Y626155D01*
X489805Y626150D01*
X489724Y626107D01*
X489640Y626071D01*
X489608Y626045D01*
X489587Y626034D01*
X489565Y626011D01*
X489509Y625966D01*
X488422Y624879D01*
X486202Y623959D01*
X483798Y623959D01*
X481578Y624879D01*
X479879Y626578D01*
X478959Y628798D01*
X478959Y631202D01*
X479879Y633422D01*
X480355Y633898D01*
X480367Y633914D01*
X480382Y633926D01*
X480438Y634013D01*
X480498Y634097D01*
X480504Y634116D01*
X480515Y634133D01*
X480540Y634234D01*
X480571Y634333D01*
X480570Y634353D01*
X480575Y634372D01*
X480567Y634475D01*
X480564Y634578D01*
X480558Y634597D01*
X480556Y634617D01*
X480516Y634712D01*
X480480Y634809D01*
X480467Y634825D01*
X480460Y634843D01*
X480355Y634974D01*
X473855Y641474D01*
X473781Y641527D01*
X473712Y641587D01*
X473681Y641599D01*
X473655Y641618D01*
X473568Y641645D01*
X473483Y641679D01*
X473442Y641683D01*
X473420Y641690D01*
X473388Y641689D01*
X473317Y641697D01*
X464064Y641697D01*
X464044Y641694D01*
X464025Y641696D01*
X463923Y641674D01*
X463821Y641658D01*
X463804Y641648D01*
X463784Y641644D01*
X463695Y641591D01*
X463604Y641542D01*
X463590Y641528D01*
X463573Y641518D01*
X463506Y641439D01*
X463434Y641364D01*
X463426Y641346D01*
X463413Y641331D01*
X463374Y641235D01*
X463331Y641141D01*
X463329Y641121D01*
X463321Y641103D01*
X463303Y640936D01*
X463303Y635555D01*
X463317Y635465D01*
X463325Y635374D01*
X463337Y635345D01*
X463342Y635313D01*
X463385Y635232D01*
X463421Y635148D01*
X463447Y635116D01*
X463458Y635095D01*
X463481Y635073D01*
X463526Y635017D01*
X465121Y633422D01*
X466041Y631202D01*
X466041Y628798D01*
X465121Y626578D01*
X463422Y624879D01*
X461202Y623959D01*
X458798Y623959D01*
X456578Y624879D01*
X454879Y626578D01*
X453959Y628798D01*
X453959Y631202D01*
X454879Y633422D01*
X456474Y635017D01*
X456527Y635091D01*
X456587Y635161D01*
X456599Y635191D01*
X456618Y635217D01*
X456645Y635304D01*
X456679Y635389D01*
X456683Y635430D01*
X456690Y635452D01*
X456689Y635484D01*
X456697Y635555D01*
X456697Y640936D01*
X456694Y640956D01*
X456696Y640975D01*
X456674Y641077D01*
X456658Y641179D01*
X456648Y641196D01*
X456644Y641216D01*
X456591Y641305D01*
X456542Y641396D01*
X456528Y641410D01*
X456518Y641427D01*
X456439Y641494D01*
X456364Y641566D01*
X456346Y641574D01*
X456331Y641587D01*
X456235Y641626D01*
X456141Y641669D01*
X456121Y641671D01*
X456103Y641679D01*
X455936Y641697D01*
X368683Y641697D01*
X368593Y641683D01*
X368502Y641675D01*
X368473Y641663D01*
X368441Y641658D01*
X368360Y641615D01*
X368276Y641579D01*
X368244Y641553D01*
X368223Y641542D01*
X368201Y641519D01*
X368145Y641474D01*
X366026Y639355D01*
X365973Y639281D01*
X365913Y639212D01*
X365901Y639181D01*
X365882Y639155D01*
X365855Y639068D01*
X365821Y638983D01*
X365817Y638942D01*
X365810Y638920D01*
X365811Y638888D01*
X365803Y638817D01*
X365803Y635555D01*
X365817Y635465D01*
X365825Y635374D01*
X365837Y635345D01*
X365842Y635313D01*
X365885Y635232D01*
X365921Y635148D01*
X365947Y635116D01*
X365958Y635095D01*
X365981Y635073D01*
X366026Y635017D01*
X367621Y633422D01*
X368541Y631202D01*
X368541Y628798D01*
X367621Y626578D01*
X365922Y624879D01*
X363702Y623959D01*
X361298Y623959D01*
X359078Y624879D01*
X357379Y626578D01*
X356459Y628798D01*
X356459Y631202D01*
X357379Y633422D01*
X358974Y635017D01*
X359027Y635091D01*
X359087Y635161D01*
X359099Y635191D01*
X359118Y635217D01*
X359145Y635304D01*
X359179Y635389D01*
X359183Y635430D01*
X359190Y635452D01*
X359189Y635484D01*
X359197Y635555D01*
X359197Y641868D01*
X365632Y648303D01*
X476368Y648303D01*
X488303Y636368D01*
X488303Y635555D01*
X488317Y635465D01*
X488325Y635374D01*
X488337Y635345D01*
X488342Y635313D01*
X488385Y635232D01*
X488421Y635148D01*
X488447Y635116D01*
X488458Y635095D01*
X488481Y635073D01*
X488526Y635017D01*
X489509Y634034D01*
X489583Y633981D01*
X489653Y633921D01*
X489683Y633909D01*
X489709Y633890D01*
X489796Y633863D01*
X489881Y633829D01*
X489922Y633825D01*
X489944Y633818D01*
X489976Y633819D01*
X490047Y633811D01*
X497953Y633811D01*
X498043Y633825D01*
X498134Y633833D01*
X498163Y633845D01*
X498195Y633850D01*
X498276Y633893D01*
X498360Y633929D01*
X498392Y633955D01*
X498413Y633966D01*
X498435Y633989D01*
X498491Y634034D01*
X499578Y635121D01*
X501798Y636041D01*
X504202Y636041D01*
X506209Y635209D01*
X506253Y635199D01*
X506295Y635180D01*
X506372Y635171D01*
X506448Y635153D01*
X506494Y635158D01*
X506539Y635152D01*
X506616Y635169D01*
X506693Y635176D01*
X506735Y635195D01*
X506780Y635205D01*
X506847Y635245D01*
X506918Y635276D01*
X506952Y635307D01*
X506991Y635331D01*
X507042Y635390D01*
X507099Y635443D01*
X507121Y635483D01*
X507151Y635518D01*
X507180Y635590D01*
X507217Y635658D01*
X507226Y635703D01*
X507243Y635746D01*
X507258Y635882D01*
X507261Y635900D01*
X507260Y635905D01*
X507261Y635913D01*
X507261Y671540D01*
X507259Y671551D01*
X507260Y671558D01*
X507252Y671596D01*
X507250Y671610D01*
X507248Y671682D01*
X507230Y671731D01*
X507222Y671782D01*
X507188Y671845D01*
X507163Y671913D01*
X507131Y671954D01*
X507106Y672000D01*
X507055Y672049D01*
X507010Y672105D01*
X506966Y672133D01*
X506928Y672169D01*
X506863Y672199D01*
X506803Y672238D01*
X506752Y672251D01*
X506705Y672273D01*
X506634Y672281D01*
X506564Y672298D01*
X506512Y672294D01*
X506461Y672300D01*
X506390Y672284D01*
X506319Y672279D01*
X506271Y672259D01*
X506220Y672247D01*
X506159Y672211D01*
X506093Y672183D01*
X506037Y672138D01*
X506009Y672121D01*
X505994Y672104D01*
X505962Y672078D01*
X503763Y669879D01*
X499375Y668061D01*
X494625Y668061D01*
X490237Y669879D01*
X486879Y673237D01*
X485061Y677625D01*
X485061Y682375D01*
X486879Y686763D01*
X488656Y688540D01*
X488698Y688598D01*
X488747Y688650D01*
X488769Y688697D01*
X488799Y688739D01*
X488820Y688808D01*
X488851Y688873D01*
X488856Y688925D01*
X488872Y688975D01*
X488870Y689046D01*
X488878Y689117D01*
X488867Y689168D01*
X488865Y689220D01*
X488841Y689288D01*
X488826Y689358D01*
X488799Y689403D01*
X488781Y689451D01*
X488736Y689507D01*
X488699Y689569D01*
X488660Y689603D01*
X488627Y689643D01*
X488567Y689682D01*
X488512Y689729D01*
X488464Y689748D01*
X488420Y689776D01*
X488351Y689794D01*
X488284Y689821D01*
X488213Y689829D01*
X488182Y689837D01*
X488158Y689835D01*
X488118Y689839D01*
X480482Y689839D01*
X480412Y689828D01*
X480340Y689826D01*
X480291Y689808D01*
X480240Y689800D01*
X480176Y689766D01*
X480109Y689741D01*
X480068Y689709D01*
X480022Y689684D01*
X479973Y689632D01*
X479917Y689588D01*
X479889Y689544D01*
X479853Y689506D01*
X479823Y689441D01*
X479784Y689381D01*
X479771Y689330D01*
X479749Y689283D01*
X479741Y689212D01*
X479724Y689142D01*
X479728Y689090D01*
X479722Y689039D01*
X479737Y688968D01*
X479743Y688897D01*
X479763Y688849D01*
X479774Y688798D01*
X479811Y688737D01*
X479839Y688671D01*
X479884Y688615D01*
X479901Y688587D01*
X479918Y688572D01*
X479944Y688540D01*
X481721Y686763D01*
X483539Y682375D01*
X483539Y677625D01*
X481721Y673237D01*
X478363Y669879D01*
X473975Y668061D01*
X469225Y668061D01*
X464837Y669879D01*
X461479Y673237D01*
X459661Y677625D01*
X459661Y682375D01*
X461479Y686763D01*
X463256Y688540D01*
X463298Y688598D01*
X463347Y688650D01*
X463369Y688697D01*
X463399Y688739D01*
X463420Y688808D01*
X463451Y688873D01*
X463456Y688925D01*
X463472Y688975D01*
X463470Y689046D01*
X463478Y689117D01*
X463467Y689168D01*
X463465Y689220D01*
X463441Y689288D01*
X463426Y689358D01*
X463399Y689403D01*
X463381Y689451D01*
X463336Y689507D01*
X463299Y689569D01*
X463260Y689603D01*
X463227Y689643D01*
X463167Y689682D01*
X463112Y689729D01*
X463064Y689748D01*
X463020Y689776D01*
X462951Y689794D01*
X462884Y689821D01*
X462813Y689829D01*
X462782Y689837D01*
X462758Y689835D01*
X462718Y689839D01*
X455082Y689839D01*
X455012Y689828D01*
X454940Y689826D01*
X454891Y689808D01*
X454840Y689800D01*
X454776Y689766D01*
X454709Y689741D01*
X454668Y689709D01*
X454622Y689684D01*
X454573Y689632D01*
X454517Y689588D01*
X454489Y689544D01*
X454453Y689506D01*
X454423Y689441D01*
X454384Y689381D01*
X454371Y689330D01*
X454349Y689283D01*
X454341Y689212D01*
X454324Y689142D01*
X454328Y689090D01*
X454322Y689039D01*
X454337Y688968D01*
X454343Y688897D01*
X454363Y688849D01*
X454374Y688798D01*
X454411Y688737D01*
X454439Y688671D01*
X454484Y688615D01*
X454501Y688587D01*
X454518Y688572D01*
X454544Y688540D01*
X456321Y686763D01*
X458139Y682375D01*
X458139Y677625D01*
X456321Y673237D01*
X452963Y669879D01*
X448575Y668061D01*
X443825Y668061D01*
X439437Y669879D01*
X436079Y673237D01*
X434261Y677625D01*
X434261Y682375D01*
X436079Y686763D01*
X437856Y688540D01*
X437898Y688598D01*
X437947Y688650D01*
X437969Y688697D01*
X437999Y688739D01*
X438020Y688808D01*
X438051Y688873D01*
X438056Y688925D01*
X438072Y688975D01*
X438070Y689046D01*
X438078Y689117D01*
X438067Y689168D01*
X438065Y689220D01*
X438041Y689288D01*
X438026Y689358D01*
X437999Y689403D01*
X437981Y689451D01*
X437936Y689507D01*
X437899Y689569D01*
X437860Y689603D01*
X437827Y689643D01*
X437767Y689682D01*
X437712Y689729D01*
X437664Y689748D01*
X437620Y689776D01*
X437551Y689794D01*
X437484Y689821D01*
X437413Y689829D01*
X437382Y689837D01*
X437358Y689835D01*
X437318Y689839D01*
X429682Y689839D01*
X429612Y689828D01*
X429540Y689826D01*
X429491Y689808D01*
X429440Y689800D01*
X429376Y689766D01*
X429309Y689741D01*
X429268Y689709D01*
X429222Y689684D01*
X429173Y689632D01*
X429117Y689588D01*
X429089Y689544D01*
X429053Y689506D01*
X429023Y689441D01*
X428984Y689381D01*
X428971Y689330D01*
X428949Y689283D01*
X428941Y689212D01*
X428924Y689142D01*
X428928Y689090D01*
X428922Y689039D01*
X428937Y688968D01*
X428943Y688897D01*
X428963Y688849D01*
X428974Y688798D01*
X429011Y688737D01*
X429039Y688671D01*
X429084Y688615D01*
X429101Y688587D01*
X429118Y688572D01*
X429144Y688540D01*
X430921Y686763D01*
X432739Y682375D01*
X432739Y677625D01*
X430921Y673237D01*
X427563Y669879D01*
X423175Y668061D01*
X418425Y668061D01*
X414037Y669879D01*
X410679Y673237D01*
X408861Y677625D01*
X408861Y682375D01*
X410679Y686763D01*
X412456Y688540D01*
X412498Y688598D01*
X412547Y688650D01*
X412569Y688697D01*
X412599Y688739D01*
X412620Y688808D01*
X412651Y688873D01*
X412656Y688925D01*
X412672Y688975D01*
X412670Y689046D01*
X412678Y689117D01*
X412667Y689168D01*
X412665Y689220D01*
X412641Y689288D01*
X412626Y689358D01*
X412599Y689403D01*
X412581Y689451D01*
X412536Y689507D01*
X412499Y689569D01*
X412460Y689603D01*
X412427Y689643D01*
X412367Y689682D01*
X412312Y689729D01*
X412264Y689748D01*
X412220Y689776D01*
X412151Y689794D01*
X412084Y689821D01*
X412013Y689829D01*
X411982Y689837D01*
X411958Y689835D01*
X411918Y689839D01*
X404282Y689839D01*
X404212Y689828D01*
X404140Y689826D01*
X404091Y689808D01*
X404040Y689800D01*
X403976Y689766D01*
X403909Y689741D01*
X403868Y689709D01*
X403822Y689684D01*
X403773Y689632D01*
X403717Y689588D01*
X403689Y689544D01*
X403653Y689506D01*
X403623Y689441D01*
X403584Y689381D01*
X403571Y689330D01*
X403549Y689283D01*
X403541Y689212D01*
X403524Y689142D01*
X403528Y689090D01*
X403522Y689039D01*
X403537Y688968D01*
X403543Y688897D01*
X403563Y688849D01*
X403574Y688798D01*
X403611Y688737D01*
X403639Y688671D01*
X403684Y688615D01*
X403701Y688587D01*
X403718Y688572D01*
X403744Y688540D01*
X405521Y686763D01*
X407339Y682375D01*
X407339Y677625D01*
X405521Y673237D01*
X402163Y669879D01*
X397775Y668061D01*
X393025Y668061D01*
X388637Y669879D01*
X385279Y673237D01*
X383461Y677625D01*
X383461Y682375D01*
X385279Y686763D01*
X387056Y688540D01*
X387098Y688598D01*
X387147Y688650D01*
X387169Y688697D01*
X387199Y688739D01*
X387220Y688808D01*
X387251Y688873D01*
X387256Y688925D01*
X387272Y688975D01*
X387270Y689046D01*
X387278Y689117D01*
X387267Y689168D01*
X387265Y689220D01*
X387241Y689288D01*
X387226Y689358D01*
X387199Y689403D01*
X387181Y689451D01*
X387136Y689507D01*
X387099Y689569D01*
X387060Y689603D01*
X387027Y689643D01*
X386967Y689682D01*
X386912Y689729D01*
X386864Y689748D01*
X386820Y689776D01*
X386751Y689794D01*
X386684Y689821D01*
X386613Y689829D01*
X386582Y689837D01*
X386558Y689835D01*
X386518Y689839D01*
X378882Y689839D01*
X378812Y689828D01*
X378740Y689826D01*
X378691Y689808D01*
X378640Y689800D01*
X378576Y689766D01*
X378509Y689741D01*
X378468Y689709D01*
X378422Y689684D01*
X378373Y689632D01*
X378317Y689588D01*
X378289Y689544D01*
X378253Y689506D01*
X378223Y689441D01*
X378184Y689381D01*
X378171Y689330D01*
X378149Y689283D01*
X378141Y689212D01*
X378124Y689142D01*
X378128Y689090D01*
X378122Y689039D01*
X378137Y688968D01*
X378143Y688897D01*
X378163Y688849D01*
X378174Y688798D01*
X378211Y688737D01*
X378239Y688671D01*
X378284Y688615D01*
X378301Y688587D01*
X378318Y688572D01*
X378344Y688540D01*
X380121Y686763D01*
X381939Y682375D01*
X381939Y677625D01*
X380121Y673237D01*
X376763Y669879D01*
X372375Y668061D01*
X367625Y668061D01*
X363237Y669879D01*
X359879Y673237D01*
X358061Y677625D01*
X358061Y682375D01*
X359879Y686763D01*
X361656Y688540D01*
X361698Y688598D01*
X361747Y688650D01*
X361769Y688697D01*
X361799Y688739D01*
X361820Y688808D01*
X361851Y688873D01*
X361856Y688925D01*
X361872Y688975D01*
X361870Y689046D01*
X361878Y689117D01*
X361867Y689168D01*
X361865Y689220D01*
X361841Y689288D01*
X361826Y689358D01*
X361799Y689403D01*
X361781Y689451D01*
X361736Y689507D01*
X361699Y689569D01*
X361660Y689603D01*
X361627Y689643D01*
X361567Y689682D01*
X361512Y689729D01*
X361464Y689748D01*
X361420Y689776D01*
X361351Y689794D01*
X361284Y689821D01*
X361213Y689829D01*
X361182Y689837D01*
X361158Y689835D01*
X361118Y689839D01*
X285000Y689839D01*
X284980Y689836D01*
X284961Y689838D01*
X284859Y689816D01*
X284757Y689800D01*
X284740Y689790D01*
X284720Y689786D01*
X284631Y689733D01*
X284540Y689684D01*
X284526Y689670D01*
X284509Y689660D01*
X284442Y689581D01*
X284371Y689506D01*
X284362Y689488D01*
X284349Y689473D01*
X284310Y689377D01*
X284267Y689283D01*
X284265Y689263D01*
X284257Y689245D01*
X284239Y689078D01*
X284239Y428500D01*
X284255Y428402D01*
X284264Y428304D01*
X284275Y428282D01*
X284279Y428257D01*
X284325Y428170D01*
X284365Y428080D01*
X284385Y428056D01*
X284394Y428040D01*
X284417Y428017D01*
X284473Y427951D01*
X296973Y415951D01*
X297042Y415904D01*
X297105Y415849D01*
X297142Y415834D01*
X297175Y415811D01*
X297256Y415789D01*
X297333Y415757D01*
X297385Y415751D01*
X297412Y415744D01*
X297441Y415745D01*
X297500Y415739D01*
X320034Y415739D01*
X320105Y415750D01*
G37*
%LPC*%
G36*
X331798Y133959D02*
X331798Y133959D01*
X329578Y134879D01*
X327983Y136474D01*
X327909Y136527D01*
X327839Y136587D01*
X327809Y136599D01*
X327783Y136618D01*
X327696Y136645D01*
X327611Y136679D01*
X327570Y136683D01*
X327548Y136690D01*
X327516Y136689D01*
X327445Y136697D01*
X207632Y136697D01*
X195943Y148386D01*
X195869Y148439D01*
X195800Y148499D01*
X195769Y148511D01*
X195743Y148530D01*
X195656Y148557D01*
X195571Y148591D01*
X195530Y148595D01*
X195508Y148602D01*
X195476Y148601D01*
X195405Y148609D01*
X181709Y148609D01*
X180220Y150098D01*
X180220Y153436D01*
X180217Y153456D01*
X180219Y153475D01*
X180197Y153577D01*
X180181Y153679D01*
X180171Y153696D01*
X180167Y153716D01*
X180114Y153805D01*
X180065Y153896D01*
X180051Y153910D01*
X180041Y153927D01*
X179962Y153994D01*
X179887Y154066D01*
X179869Y154074D01*
X179854Y154087D01*
X179758Y154126D01*
X179664Y154169D01*
X179644Y154171D01*
X179626Y154179D01*
X179459Y154197D01*
X143555Y154197D01*
X143465Y154183D01*
X143374Y154175D01*
X143345Y154163D01*
X143313Y154158D01*
X143232Y154115D01*
X143148Y154079D01*
X143116Y154053D01*
X143095Y154042D01*
X143073Y154019D01*
X143017Y153974D01*
X141422Y152379D01*
X139202Y151459D01*
X136798Y151459D01*
X134578Y152379D01*
X132879Y154078D01*
X131959Y156298D01*
X131959Y158702D01*
X132879Y160922D01*
X134578Y162621D01*
X136798Y163541D01*
X139202Y163541D01*
X141422Y162621D01*
X143017Y161026D01*
X143091Y160973D01*
X143161Y160913D01*
X143191Y160901D01*
X143217Y160882D01*
X143304Y160855D01*
X143389Y160821D01*
X143430Y160817D01*
X143452Y160810D01*
X143484Y160811D01*
X143555Y160803D01*
X179459Y160803D01*
X179479Y160806D01*
X179498Y160804D01*
X179600Y160826D01*
X179702Y160842D01*
X179719Y160852D01*
X179739Y160856D01*
X179828Y160909D01*
X179919Y160958D01*
X179933Y160972D01*
X179950Y160982D01*
X180017Y161061D01*
X180089Y161136D01*
X180097Y161154D01*
X180110Y161169D01*
X180149Y161265D01*
X180192Y161359D01*
X180194Y161379D01*
X180202Y161397D01*
X180220Y161564D01*
X180220Y164902D01*
X181709Y166391D01*
X198291Y166391D01*
X199780Y164902D01*
X199780Y154206D01*
X199794Y154116D01*
X199802Y154025D01*
X199814Y153996D01*
X199819Y153964D01*
X199862Y153883D01*
X199898Y153799D01*
X199924Y153767D01*
X199935Y153746D01*
X199958Y153724D01*
X200003Y153668D01*
X210145Y143526D01*
X210219Y143473D01*
X210288Y143413D01*
X210319Y143401D01*
X210345Y143382D01*
X210432Y143355D01*
X210517Y143321D01*
X210558Y143317D01*
X210580Y143310D01*
X210612Y143311D01*
X210683Y143303D01*
X327445Y143303D01*
X327535Y143317D01*
X327626Y143325D01*
X327655Y143337D01*
X327687Y143342D01*
X327768Y143385D01*
X327852Y143421D01*
X327884Y143447D01*
X327905Y143458D01*
X327927Y143481D01*
X327983Y143526D01*
X329578Y145121D01*
X331798Y146041D01*
X334090Y146041D01*
X334179Y146055D01*
X334268Y146062D01*
X334299Y146075D01*
X334333Y146080D01*
X334412Y146122D01*
X334495Y146157D01*
X334529Y146184D01*
X334550Y146196D01*
X334572Y146219D01*
X334626Y146261D01*
X362734Y174116D01*
X362788Y174191D01*
X362849Y174262D01*
X362860Y174290D01*
X362878Y174315D01*
X362906Y174403D01*
X362941Y174490D01*
X362945Y174528D01*
X362952Y174550D01*
X362951Y174582D01*
X362959Y174656D01*
X362959Y176202D01*
X363879Y178422D01*
X365578Y180121D01*
X367798Y181041D01*
X370202Y181041D01*
X372422Y180121D01*
X374121Y178422D01*
X375041Y176202D01*
X375041Y173798D01*
X374121Y171578D01*
X372422Y169879D01*
X370202Y168959D01*
X367798Y168959D01*
X367643Y169024D01*
X367532Y169050D01*
X367419Y169079D01*
X367411Y169078D01*
X367403Y169080D01*
X367289Y169069D01*
X367174Y169061D01*
X367166Y169058D01*
X367158Y169057D01*
X367053Y169010D01*
X366947Y168965D01*
X366940Y168959D01*
X366934Y168957D01*
X366918Y168942D01*
X366816Y168861D01*
X362509Y164593D01*
X362451Y164513D01*
X362387Y164437D01*
X362379Y164414D01*
X362364Y164394D01*
X362335Y164300D01*
X362299Y164207D01*
X362298Y164183D01*
X362291Y164159D01*
X362293Y164060D01*
X362289Y163961D01*
X362296Y163938D01*
X362296Y163913D01*
X362330Y163820D01*
X362357Y163725D01*
X362371Y163705D01*
X362380Y163682D01*
X362441Y163604D01*
X362498Y163523D01*
X362517Y163508D01*
X362532Y163489D01*
X362616Y163435D01*
X362695Y163376D01*
X362718Y163369D01*
X362739Y163355D01*
X362835Y163331D01*
X362929Y163300D01*
X362953Y163300D01*
X362977Y163294D01*
X363076Y163301D01*
X363175Y163302D01*
X363204Y163311D01*
X363222Y163312D01*
X363253Y163325D01*
X363336Y163349D01*
X363798Y163541D01*
X366202Y163541D01*
X368422Y162621D01*
X370017Y161026D01*
X370091Y160973D01*
X370161Y160913D01*
X370191Y160901D01*
X370217Y160882D01*
X370304Y160855D01*
X370389Y160821D01*
X370430Y160817D01*
X370452Y160810D01*
X370484Y160811D01*
X370555Y160803D01*
X426959Y160803D01*
X426979Y160806D01*
X426998Y160804D01*
X427100Y160826D01*
X427202Y160842D01*
X427219Y160852D01*
X427239Y160856D01*
X427328Y160909D01*
X427419Y160958D01*
X427433Y160972D01*
X427450Y160982D01*
X427517Y161061D01*
X427589Y161136D01*
X427597Y161154D01*
X427610Y161169D01*
X427649Y161265D01*
X427692Y161359D01*
X427694Y161379D01*
X427702Y161397D01*
X427720Y161564D01*
X427720Y164902D01*
X429209Y166391D01*
X445791Y166391D01*
X447280Y164902D01*
X447280Y161564D01*
X447283Y161544D01*
X447281Y161525D01*
X447303Y161423D01*
X447319Y161321D01*
X447329Y161304D01*
X447333Y161284D01*
X447386Y161195D01*
X447435Y161104D01*
X447449Y161090D01*
X447459Y161073D01*
X447538Y161006D01*
X447613Y160934D01*
X447631Y160926D01*
X447646Y160913D01*
X447742Y160874D01*
X447836Y160831D01*
X447856Y160829D01*
X447874Y160821D01*
X448041Y160803D01*
X494445Y160803D01*
X494535Y160817D01*
X494626Y160825D01*
X494655Y160837D01*
X494687Y160842D01*
X494768Y160885D01*
X494852Y160921D01*
X494884Y160947D01*
X494905Y160958D01*
X494927Y160981D01*
X494983Y161026D01*
X496578Y162621D01*
X498798Y163541D01*
X501202Y163541D01*
X503422Y162621D01*
X505121Y160922D01*
X506041Y158702D01*
X506041Y156298D01*
X505121Y154078D01*
X503422Y152379D01*
X501202Y151459D01*
X498798Y151459D01*
X496578Y152379D01*
X494983Y153974D01*
X494909Y154027D01*
X494839Y154087D01*
X494809Y154099D01*
X494783Y154118D01*
X494696Y154145D01*
X494611Y154179D01*
X494570Y154183D01*
X494548Y154190D01*
X494516Y154189D01*
X494445Y154197D01*
X448041Y154197D01*
X448021Y154194D01*
X448002Y154196D01*
X447900Y154174D01*
X447798Y154158D01*
X447781Y154148D01*
X447761Y154144D01*
X447672Y154091D01*
X447581Y154042D01*
X447567Y154028D01*
X447550Y154018D01*
X447483Y153939D01*
X447411Y153864D01*
X447403Y153846D01*
X447390Y153831D01*
X447351Y153735D01*
X447308Y153641D01*
X447306Y153621D01*
X447298Y153603D01*
X447280Y153436D01*
X447280Y150098D01*
X445791Y148609D01*
X429209Y148609D01*
X427720Y150098D01*
X427720Y153436D01*
X427717Y153456D01*
X427719Y153475D01*
X427697Y153577D01*
X427681Y153679D01*
X427671Y153696D01*
X427667Y153716D01*
X427614Y153805D01*
X427565Y153896D01*
X427551Y153910D01*
X427541Y153927D01*
X427462Y153994D01*
X427387Y154066D01*
X427369Y154074D01*
X427354Y154087D01*
X427258Y154126D01*
X427164Y154169D01*
X427144Y154171D01*
X427126Y154179D01*
X426959Y154197D01*
X370555Y154197D01*
X370465Y154183D01*
X370374Y154175D01*
X370345Y154163D01*
X370313Y154158D01*
X370232Y154115D01*
X370148Y154079D01*
X370116Y154053D01*
X370095Y154042D01*
X370073Y154019D01*
X370017Y153974D01*
X368422Y152379D01*
X366202Y151459D01*
X363798Y151459D01*
X361578Y152379D01*
X359879Y154078D01*
X358959Y156298D01*
X358959Y158702D01*
X359180Y159234D01*
X359202Y159327D01*
X359230Y159419D01*
X359230Y159447D01*
X359236Y159474D01*
X359227Y159569D01*
X359225Y159665D01*
X359216Y159691D01*
X359213Y159719D01*
X359174Y159806D01*
X359142Y159896D01*
X359124Y159918D01*
X359113Y159943D01*
X359048Y160014D01*
X358989Y160089D01*
X358965Y160104D01*
X358947Y160124D01*
X358863Y160170D01*
X358783Y160223D01*
X358755Y160230D01*
X358731Y160243D01*
X358637Y160260D01*
X358544Y160284D01*
X358516Y160282D01*
X358489Y160287D01*
X358394Y160273D01*
X358299Y160266D01*
X358273Y160255D01*
X358246Y160251D01*
X358160Y160208D01*
X358072Y160171D01*
X358045Y160149D01*
X358026Y160139D01*
X358003Y160116D01*
X357941Y160066D01*
X339266Y141560D01*
X339212Y141485D01*
X339151Y141414D01*
X339140Y141386D01*
X339122Y141361D01*
X339094Y141272D01*
X339059Y141186D01*
X339055Y141147D01*
X339048Y141126D01*
X339049Y141094D01*
X339041Y141019D01*
X339041Y138798D01*
X338121Y136578D01*
X336422Y134879D01*
X334202Y133959D01*
X331798Y133959D01*
G37*
%LPD*%
%LPC*%
G36*
X251709Y148609D02*
X251709Y148609D01*
X250220Y150098D01*
X250220Y153436D01*
X250217Y153456D01*
X250219Y153475D01*
X250197Y153577D01*
X250181Y153679D01*
X250171Y153696D01*
X250167Y153716D01*
X250114Y153805D01*
X250065Y153896D01*
X250051Y153910D01*
X250041Y153927D01*
X249962Y153994D01*
X249887Y154066D01*
X249869Y154074D01*
X249854Y154087D01*
X249758Y154126D01*
X249664Y154169D01*
X249644Y154171D01*
X249626Y154179D01*
X249459Y154197D01*
X217514Y154197D01*
X217424Y154183D01*
X217333Y154175D01*
X217303Y154163D01*
X217271Y154158D01*
X217190Y154115D01*
X217106Y154079D01*
X217074Y154053D01*
X217054Y154042D01*
X217031Y154019D01*
X216975Y153974D01*
X215380Y152379D01*
X213160Y151459D01*
X210757Y151459D01*
X208536Y152379D01*
X206837Y154078D01*
X205918Y156298D01*
X205918Y158702D01*
X206837Y160922D01*
X208536Y162621D01*
X210757Y163541D01*
X213160Y163541D01*
X215380Y162621D01*
X216975Y161026D01*
X217049Y160973D01*
X217119Y160913D01*
X217149Y160901D01*
X217175Y160882D01*
X217262Y160855D01*
X217347Y160821D01*
X217388Y160817D01*
X217410Y160810D01*
X217442Y160811D01*
X217514Y160803D01*
X249459Y160803D01*
X249479Y160806D01*
X249498Y160804D01*
X249600Y160826D01*
X249702Y160842D01*
X249719Y160852D01*
X249739Y160856D01*
X249828Y160909D01*
X249919Y160958D01*
X249933Y160972D01*
X249950Y160982D01*
X250017Y161061D01*
X250089Y161136D01*
X250097Y161154D01*
X250110Y161169D01*
X250149Y161265D01*
X250192Y161359D01*
X250194Y161379D01*
X250202Y161397D01*
X250220Y161564D01*
X250220Y164902D01*
X251709Y166391D01*
X268291Y166391D01*
X269780Y164902D01*
X269780Y161564D01*
X269783Y161544D01*
X269781Y161525D01*
X269803Y161423D01*
X269819Y161321D01*
X269829Y161304D01*
X269833Y161284D01*
X269886Y161195D01*
X269935Y161104D01*
X269949Y161090D01*
X269959Y161073D01*
X270038Y161006D01*
X270113Y160934D01*
X270131Y160926D01*
X270146Y160913D01*
X270242Y160874D01*
X270336Y160831D01*
X270356Y160829D01*
X270374Y160821D01*
X270541Y160803D01*
X312381Y160803D01*
X312471Y160817D01*
X312562Y160825D01*
X312591Y160837D01*
X312623Y160842D01*
X312704Y160885D01*
X312788Y160921D01*
X312820Y160947D01*
X312841Y160958D01*
X312863Y160981D01*
X312919Y161026D01*
X324814Y172921D01*
X324883Y173016D01*
X324952Y173110D01*
X324954Y173115D01*
X324958Y173121D01*
X324992Y173232D01*
X325028Y173343D01*
X325028Y173350D01*
X325030Y173356D01*
X325027Y173472D01*
X325026Y173589D01*
X325024Y173597D01*
X325024Y173602D01*
X325017Y173619D01*
X324979Y173750D01*
X324959Y173798D01*
X324959Y176202D01*
X325879Y178422D01*
X327578Y180121D01*
X329798Y181041D01*
X332202Y181041D01*
X334422Y180121D01*
X336121Y178422D01*
X337041Y176202D01*
X337041Y173798D01*
X336121Y171578D01*
X334422Y169879D01*
X332202Y168959D01*
X330509Y168959D01*
X330419Y168945D01*
X330328Y168937D01*
X330299Y168925D01*
X330267Y168920D01*
X330186Y168877D01*
X330102Y168841D01*
X330070Y168815D01*
X330049Y168804D01*
X330027Y168781D01*
X329971Y168736D01*
X317590Y156355D01*
X315432Y154197D01*
X270541Y154197D01*
X270521Y154194D01*
X270502Y154196D01*
X270400Y154174D01*
X270298Y154158D01*
X270281Y154148D01*
X270261Y154144D01*
X270172Y154091D01*
X270081Y154042D01*
X270067Y154028D01*
X270050Y154018D01*
X269983Y153939D01*
X269911Y153864D01*
X269903Y153846D01*
X269890Y153831D01*
X269851Y153735D01*
X269808Y153641D01*
X269806Y153621D01*
X269798Y153603D01*
X269780Y153436D01*
X269780Y150098D01*
X268291Y148609D01*
X251709Y148609D01*
G37*
%LPD*%
%LPC*%
G36*
X171288Y16339D02*
X171288Y16339D01*
X164430Y19180D01*
X159180Y24430D01*
X156339Y31288D01*
X156339Y38712D01*
X159180Y45570D01*
X164430Y50820D01*
X171288Y53661D01*
X178712Y53661D01*
X185570Y50820D01*
X190820Y45570D01*
X193661Y38712D01*
X193661Y31288D01*
X190820Y24430D01*
X185570Y19180D01*
X178712Y16339D01*
X171288Y16339D01*
G37*
%LPD*%
%LPC*%
G36*
X346288Y16339D02*
X346288Y16339D01*
X339430Y19180D01*
X334180Y24430D01*
X331339Y31288D01*
X331339Y38712D01*
X334180Y45570D01*
X339430Y50820D01*
X346288Y53661D01*
X353712Y53661D01*
X360570Y50820D01*
X365820Y45570D01*
X368661Y38712D01*
X368661Y31288D01*
X365820Y24430D01*
X360570Y19180D01*
X353712Y16339D01*
X346288Y16339D01*
G37*
%LPD*%
%LPC*%
G36*
X521288Y16339D02*
X521288Y16339D01*
X514430Y19180D01*
X509180Y24430D01*
X506339Y31288D01*
X506339Y38712D01*
X509180Y45570D01*
X514430Y50820D01*
X521288Y53661D01*
X528712Y53661D01*
X535570Y50820D01*
X540820Y45570D01*
X543661Y38712D01*
X543661Y31288D01*
X540820Y24430D01*
X535570Y19180D01*
X528712Y16339D01*
X521288Y16339D01*
G37*
%LPD*%
%LPC*%
G36*
X346288Y86339D02*
X346288Y86339D01*
X339430Y89180D01*
X334180Y94430D01*
X331339Y101288D01*
X331339Y108712D01*
X334180Y115570D01*
X339430Y120820D01*
X346288Y123661D01*
X353712Y123661D01*
X360570Y120820D01*
X365820Y115570D01*
X368661Y108712D01*
X368661Y101288D01*
X365820Y94430D01*
X360570Y89180D01*
X353712Y86339D01*
X346288Y86339D01*
G37*
%LPD*%
%LPC*%
G36*
X521288Y86339D02*
X521288Y86339D01*
X514430Y89180D01*
X509180Y94430D01*
X506339Y101288D01*
X506339Y108712D01*
X509180Y115570D01*
X514430Y120820D01*
X521288Y123661D01*
X528712Y123661D01*
X535570Y120820D01*
X540820Y115570D01*
X543661Y108712D01*
X543661Y101288D01*
X540820Y94430D01*
X535570Y89180D01*
X528712Y86339D01*
X521288Y86339D01*
G37*
%LPD*%
%LPC*%
G36*
X171288Y86339D02*
X171288Y86339D01*
X164430Y89180D01*
X159180Y94430D01*
X156339Y101288D01*
X156339Y108712D01*
X159180Y115570D01*
X164430Y120820D01*
X171288Y123661D01*
X178712Y123661D01*
X185570Y120820D01*
X190820Y115570D01*
X193661Y108712D01*
X193661Y101288D01*
X190820Y94430D01*
X185570Y89180D01*
X178712Y86339D01*
X171288Y86339D01*
G37*
%LPD*%
%LPC*%
G36*
X429209Y201109D02*
X429209Y201109D01*
X427720Y202598D01*
X427720Y205936D01*
X427717Y205956D01*
X427719Y205975D01*
X427697Y206077D01*
X427681Y206179D01*
X427671Y206196D01*
X427667Y206216D01*
X427614Y206305D01*
X427565Y206396D01*
X427551Y206410D01*
X427541Y206427D01*
X427462Y206494D01*
X427387Y206566D01*
X427369Y206574D01*
X427354Y206587D01*
X427258Y206626D01*
X427164Y206669D01*
X427144Y206671D01*
X427126Y206679D01*
X426959Y206697D01*
X390555Y206697D01*
X390465Y206683D01*
X390374Y206675D01*
X390345Y206663D01*
X390313Y206658D01*
X390232Y206615D01*
X390148Y206579D01*
X390116Y206553D01*
X390095Y206542D01*
X390073Y206519D01*
X390017Y206474D01*
X388422Y204879D01*
X386202Y203959D01*
X383798Y203959D01*
X381578Y204879D01*
X379879Y206578D01*
X378959Y208798D01*
X378959Y211202D01*
X379879Y213422D01*
X381578Y215121D01*
X383798Y216041D01*
X386202Y216041D01*
X388422Y215121D01*
X390017Y213526D01*
X390091Y213473D01*
X390161Y213413D01*
X390191Y213401D01*
X390217Y213382D01*
X390304Y213355D01*
X390389Y213321D01*
X390430Y213317D01*
X390452Y213310D01*
X390484Y213311D01*
X390555Y213303D01*
X426959Y213303D01*
X426979Y213306D01*
X426998Y213304D01*
X427100Y213326D01*
X427202Y213342D01*
X427219Y213352D01*
X427239Y213356D01*
X427328Y213409D01*
X427419Y213458D01*
X427433Y213472D01*
X427450Y213482D01*
X427517Y213561D01*
X427589Y213636D01*
X427597Y213654D01*
X427610Y213669D01*
X427649Y213765D01*
X427692Y213859D01*
X427694Y213879D01*
X427702Y213897D01*
X427720Y214064D01*
X427720Y217402D01*
X429209Y218891D01*
X445791Y218891D01*
X447280Y217402D01*
X447280Y213564D01*
X447283Y213544D01*
X447281Y213525D01*
X447303Y213423D01*
X447319Y213321D01*
X447329Y213304D01*
X447333Y213284D01*
X447386Y213195D01*
X447435Y213104D01*
X447449Y213090D01*
X447459Y213073D01*
X447538Y213006D01*
X447613Y212934D01*
X447631Y212926D01*
X447646Y212913D01*
X447742Y212874D01*
X447836Y212831D01*
X447856Y212829D01*
X447874Y212821D01*
X448041Y212803D01*
X482445Y212803D01*
X482535Y212817D01*
X482626Y212825D01*
X482655Y212837D01*
X482687Y212842D01*
X482768Y212885D01*
X482852Y212921D01*
X482884Y212947D01*
X482905Y212958D01*
X482927Y212981D01*
X482983Y213026D01*
X484578Y214621D01*
X486798Y215541D01*
X489202Y215541D01*
X491422Y214621D01*
X493121Y212922D01*
X494041Y210702D01*
X494041Y208298D01*
X493121Y206078D01*
X491422Y204379D01*
X489202Y203459D01*
X486798Y203459D01*
X484578Y204379D01*
X482983Y205974D01*
X482909Y206027D01*
X482839Y206087D01*
X482809Y206099D01*
X482783Y206118D01*
X482696Y206145D01*
X482611Y206179D01*
X482570Y206183D01*
X482548Y206190D01*
X482516Y206189D01*
X482445Y206197D01*
X448041Y206197D01*
X448021Y206194D01*
X448002Y206196D01*
X447900Y206174D01*
X447798Y206158D01*
X447781Y206148D01*
X447761Y206144D01*
X447672Y206091D01*
X447581Y206042D01*
X447567Y206028D01*
X447550Y206018D01*
X447483Y205939D01*
X447411Y205864D01*
X447403Y205846D01*
X447390Y205831D01*
X447351Y205735D01*
X447308Y205641D01*
X447306Y205621D01*
X447298Y205603D01*
X447280Y205436D01*
X447280Y202598D01*
X445791Y201109D01*
X429209Y201109D01*
G37*
%LPD*%
%LPC*%
G36*
X278798Y223959D02*
X278798Y223959D01*
X276578Y224879D01*
X274879Y226578D01*
X273959Y228798D01*
X273959Y231202D01*
X274879Y233422D01*
X276578Y235121D01*
X278798Y236041D01*
X281055Y236041D01*
X281145Y236055D01*
X281236Y236063D01*
X281265Y236075D01*
X281297Y236080D01*
X281378Y236123D01*
X281462Y236159D01*
X281494Y236185D01*
X281515Y236196D01*
X281537Y236219D01*
X281593Y236264D01*
X283632Y238303D01*
X388198Y238303D01*
X388218Y238306D01*
X388237Y238304D01*
X388339Y238326D01*
X388441Y238342D01*
X388458Y238352D01*
X388478Y238356D01*
X388567Y238409D01*
X388658Y238458D01*
X388672Y238472D01*
X388689Y238482D01*
X388756Y238561D01*
X388828Y238636D01*
X388836Y238654D01*
X388849Y238669D01*
X388888Y238765D01*
X388931Y238859D01*
X388933Y238879D01*
X388941Y238897D01*
X388959Y239064D01*
X388959Y241202D01*
X389879Y243422D01*
X391578Y245121D01*
X393798Y246041D01*
X396202Y246041D01*
X398422Y245121D01*
X400121Y243422D01*
X401041Y241202D01*
X401041Y238798D01*
X400121Y236578D01*
X398422Y234879D01*
X396202Y233959D01*
X393945Y233959D01*
X393855Y233945D01*
X393764Y233937D01*
X393735Y233925D01*
X393703Y233920D01*
X393622Y233877D01*
X393538Y233841D01*
X393506Y233815D01*
X393485Y233804D01*
X393463Y233781D01*
X393407Y233736D01*
X391368Y231697D01*
X286802Y231697D01*
X286782Y231694D01*
X286763Y231696D01*
X286661Y231674D01*
X286559Y231658D01*
X286542Y231648D01*
X286522Y231644D01*
X286433Y231591D01*
X286342Y231542D01*
X286328Y231528D01*
X286311Y231518D01*
X286244Y231439D01*
X286172Y231364D01*
X286164Y231346D01*
X286151Y231331D01*
X286112Y231235D01*
X286069Y231141D01*
X286067Y231121D01*
X286059Y231103D01*
X286041Y230936D01*
X286041Y228798D01*
X285121Y226578D01*
X283422Y224879D01*
X281202Y223959D01*
X278798Y223959D01*
G37*
%LPD*%
%LPC*%
G36*
X343798Y608959D02*
X343798Y608959D01*
X341578Y609879D01*
X339879Y611578D01*
X338959Y613798D01*
X338959Y616202D01*
X339879Y618422D01*
X341578Y620121D01*
X343798Y621041D01*
X346202Y621041D01*
X348422Y620121D01*
X350017Y618526D01*
X350091Y618473D01*
X350161Y618413D01*
X350191Y618401D01*
X350217Y618382D01*
X350304Y618355D01*
X350389Y618321D01*
X350430Y618317D01*
X350452Y618310D01*
X350484Y618311D01*
X350555Y618303D01*
X368317Y618303D01*
X368407Y618317D01*
X368498Y618325D01*
X368527Y618337D01*
X368559Y618342D01*
X368640Y618385D01*
X368724Y618421D01*
X368756Y618447D01*
X368777Y618458D01*
X368799Y618481D01*
X368855Y618526D01*
X378736Y628407D01*
X378789Y628481D01*
X378849Y628550D01*
X378861Y628581D01*
X378880Y628607D01*
X378907Y628694D01*
X378941Y628779D01*
X378945Y628820D01*
X378952Y628842D01*
X378951Y628874D01*
X378959Y628945D01*
X378959Y631202D01*
X379879Y633422D01*
X381578Y635121D01*
X383798Y636041D01*
X386202Y636041D01*
X388422Y635121D01*
X390017Y633526D01*
X390091Y633473D01*
X390161Y633413D01*
X390191Y633401D01*
X390217Y633382D01*
X390304Y633355D01*
X390389Y633321D01*
X390430Y633317D01*
X390452Y633310D01*
X390484Y633311D01*
X390555Y633303D01*
X404445Y633303D01*
X404535Y633317D01*
X404626Y633325D01*
X404655Y633337D01*
X404687Y633342D01*
X404768Y633385D01*
X404852Y633421D01*
X404884Y633447D01*
X404905Y633458D01*
X404927Y633481D01*
X404983Y633526D01*
X406578Y635121D01*
X408798Y636041D01*
X411202Y636041D01*
X413422Y635121D01*
X415017Y633526D01*
X415091Y633473D01*
X415161Y633413D01*
X415191Y633401D01*
X415217Y633382D01*
X415304Y633355D01*
X415389Y633321D01*
X415430Y633317D01*
X415452Y633310D01*
X415484Y633311D01*
X415555Y633303D01*
X429445Y633303D01*
X429535Y633317D01*
X429626Y633325D01*
X429655Y633337D01*
X429687Y633342D01*
X429768Y633385D01*
X429852Y633421D01*
X429884Y633447D01*
X429905Y633458D01*
X429927Y633481D01*
X429983Y633526D01*
X431578Y635121D01*
X433798Y636041D01*
X436202Y636041D01*
X438422Y635121D01*
X440121Y633422D01*
X441041Y631202D01*
X441041Y628798D01*
X440121Y626578D01*
X438422Y624879D01*
X436202Y623959D01*
X433798Y623959D01*
X431578Y624879D01*
X429983Y626474D01*
X429909Y626527D01*
X429839Y626587D01*
X429809Y626599D01*
X429783Y626618D01*
X429696Y626645D01*
X429611Y626679D01*
X429570Y626683D01*
X429548Y626690D01*
X429516Y626689D01*
X429445Y626697D01*
X415555Y626697D01*
X415465Y626683D01*
X415374Y626675D01*
X415345Y626663D01*
X415313Y626658D01*
X415232Y626615D01*
X415148Y626579D01*
X415116Y626553D01*
X415095Y626542D01*
X415073Y626519D01*
X415017Y626474D01*
X413422Y624879D01*
X411202Y623959D01*
X408798Y623959D01*
X406578Y624879D01*
X404983Y626474D01*
X404909Y626527D01*
X404839Y626587D01*
X404809Y626599D01*
X404783Y626618D01*
X404696Y626645D01*
X404611Y626679D01*
X404570Y626683D01*
X404548Y626690D01*
X404516Y626689D01*
X404445Y626697D01*
X390555Y626697D01*
X390465Y626683D01*
X390374Y626675D01*
X390345Y626663D01*
X390313Y626658D01*
X390232Y626615D01*
X390148Y626579D01*
X390116Y626553D01*
X390095Y626542D01*
X390073Y626519D01*
X390017Y626474D01*
X388422Y624879D01*
X386202Y623959D01*
X383945Y623959D01*
X383855Y623945D01*
X383764Y623937D01*
X383735Y623925D01*
X383703Y623920D01*
X383622Y623877D01*
X383538Y623841D01*
X383506Y623815D01*
X383485Y623804D01*
X383463Y623781D01*
X383407Y623736D01*
X371368Y611697D01*
X350555Y611697D01*
X350465Y611683D01*
X350374Y611675D01*
X350345Y611663D01*
X350313Y611658D01*
X350232Y611615D01*
X350148Y611579D01*
X350116Y611553D01*
X350095Y611542D01*
X350073Y611519D01*
X350017Y611474D01*
X348422Y609879D01*
X346202Y608959D01*
X343798Y608959D01*
G37*
%LPD*%
%LPC*%
G36*
X261249Y401209D02*
X261249Y401209D01*
X258937Y402167D01*
X257167Y403937D01*
X256209Y406249D01*
X256209Y408751D01*
X257167Y411063D01*
X258937Y412833D01*
X261249Y413791D01*
X263751Y413791D01*
X266063Y412833D01*
X267833Y411063D01*
X267953Y410773D01*
X268015Y410673D01*
X268075Y410573D01*
X268080Y410569D01*
X268083Y410564D01*
X268174Y410489D01*
X268262Y410413D01*
X268268Y410411D01*
X268273Y410407D01*
X268381Y410365D01*
X268490Y410321D01*
X268498Y410320D01*
X268502Y410319D01*
X268520Y410318D01*
X268657Y410303D01*
X338526Y410303D01*
X338617Y410317D01*
X338707Y410325D01*
X338737Y410337D01*
X338769Y410342D01*
X338850Y410385D01*
X338934Y410421D01*
X338966Y410447D01*
X338987Y410458D01*
X339009Y410481D01*
X339065Y410526D01*
X339130Y410591D01*
X342270Y410591D01*
X344491Y408370D01*
X344491Y405230D01*
X342270Y403009D01*
X339130Y403009D01*
X338665Y403474D01*
X338591Y403527D01*
X338521Y403587D01*
X338491Y403599D01*
X338465Y403618D01*
X338378Y403645D01*
X338293Y403679D01*
X338252Y403683D01*
X338230Y403690D01*
X338198Y403689D01*
X338126Y403697D01*
X267909Y403697D01*
X267819Y403683D01*
X267728Y403675D01*
X267698Y403663D01*
X267666Y403658D01*
X267586Y403615D01*
X267502Y403579D01*
X267470Y403553D01*
X267449Y403542D01*
X267427Y403519D01*
X267371Y403474D01*
X266063Y402167D01*
X263751Y401209D01*
X261249Y401209D01*
G37*
%LPD*%
%LPC*%
G36*
X395298Y351959D02*
X395298Y351959D01*
X393078Y352879D01*
X391379Y354578D01*
X390459Y356798D01*
X390459Y359202D01*
X391379Y361422D01*
X392974Y363017D01*
X393027Y363091D01*
X393087Y363161D01*
X393099Y363191D01*
X393118Y363217D01*
X393145Y363304D01*
X393179Y363389D01*
X393183Y363430D01*
X393190Y363452D01*
X393189Y363484D01*
X393197Y363555D01*
X393197Y396945D01*
X393183Y397035D01*
X393175Y397126D01*
X393163Y397155D01*
X393158Y397187D01*
X393115Y397268D01*
X393079Y397352D01*
X393053Y397384D01*
X393042Y397405D01*
X393019Y397427D01*
X392974Y397483D01*
X391379Y399078D01*
X390459Y401298D01*
X390459Y403702D01*
X391379Y405922D01*
X393078Y407621D01*
X395298Y408541D01*
X397702Y408541D01*
X399922Y407621D01*
X401621Y405922D01*
X402541Y403702D01*
X402541Y401298D01*
X401621Y399078D01*
X400026Y397483D01*
X399973Y397409D01*
X399913Y397339D01*
X399901Y397309D01*
X399882Y397283D01*
X399855Y397196D01*
X399821Y397111D01*
X399817Y397070D01*
X399810Y397048D01*
X399811Y397016D01*
X399803Y396945D01*
X399803Y363555D01*
X399817Y363465D01*
X399825Y363374D01*
X399837Y363345D01*
X399842Y363313D01*
X399885Y363232D01*
X399921Y363148D01*
X399947Y363116D01*
X399958Y363095D01*
X399981Y363073D01*
X400026Y363017D01*
X401621Y361422D01*
X402541Y359202D01*
X402541Y356798D01*
X401621Y354578D01*
X399922Y352879D01*
X397702Y351959D01*
X395298Y351959D01*
G37*
%LPD*%
%LPC*%
G36*
X323298Y381459D02*
X323298Y381459D01*
X321078Y382379D01*
X319379Y384078D01*
X318459Y386298D01*
X318459Y388702D01*
X319379Y390922D01*
X321078Y392621D01*
X323298Y393541D01*
X325555Y393541D01*
X325645Y393555D01*
X325736Y393563D01*
X325765Y393575D01*
X325797Y393580D01*
X325878Y393623D01*
X325962Y393659D01*
X325994Y393685D01*
X326015Y393696D01*
X326037Y393719D01*
X326093Y393764D01*
X328832Y396503D01*
X338326Y396503D01*
X338417Y396517D01*
X338507Y396525D01*
X338537Y396537D01*
X338569Y396542D01*
X338650Y396585D01*
X338734Y396621D01*
X338766Y396647D01*
X338787Y396658D01*
X338809Y396681D01*
X338865Y396726D01*
X339130Y396991D01*
X342270Y396991D01*
X344491Y394770D01*
X344491Y391630D01*
X342270Y389409D01*
X339130Y389409D01*
X338865Y389674D01*
X338791Y389727D01*
X338721Y389787D01*
X338691Y389799D01*
X338665Y389818D01*
X338578Y389845D01*
X338493Y389879D01*
X338452Y389883D01*
X338430Y389890D01*
X338398Y389889D01*
X338326Y389897D01*
X331883Y389897D01*
X331793Y389883D01*
X331702Y389875D01*
X331673Y389863D01*
X331641Y389858D01*
X331560Y389815D01*
X331476Y389779D01*
X331444Y389753D01*
X331423Y389742D01*
X331401Y389719D01*
X331345Y389674D01*
X330764Y389093D01*
X330711Y389019D01*
X330651Y388950D01*
X330639Y388919D01*
X330620Y388893D01*
X330593Y388806D01*
X330559Y388721D01*
X330555Y388680D01*
X330548Y388658D01*
X330549Y388626D01*
X330541Y388555D01*
X330541Y386298D01*
X329621Y384078D01*
X327922Y382379D01*
X325702Y381459D01*
X323298Y381459D01*
G37*
%LPD*%
%LPC*%
G36*
X549323Y678477D02*
X549323Y678477D01*
X559646Y678477D01*
X559445Y677204D01*
X558864Y675417D01*
X558011Y673743D01*
X556906Y672222D01*
X555578Y670894D01*
X554057Y669789D01*
X552383Y668936D01*
X550596Y668355D01*
X549323Y668154D01*
X549323Y678477D01*
G37*
%LPD*%
%LPC*%
G36*
X545004Y668355D02*
X545004Y668355D01*
X543217Y668936D01*
X541543Y669789D01*
X540022Y670894D01*
X538694Y672222D01*
X537589Y673743D01*
X536736Y675417D01*
X536155Y677204D01*
X535954Y678477D01*
X546277Y678477D01*
X546277Y668154D01*
X545004Y668355D01*
G37*
%LPD*%
D10*
X370000Y680000D03*
X395400Y680000D03*
X420800Y680000D03*
X446200Y680000D03*
X471600Y680000D03*
X497000Y680000D03*
X522400Y680000D03*
X547800Y680000D03*
D11*
X433436Y210000D03*
X441564Y210000D03*
X433436Y157500D03*
X441564Y157500D03*
X255936Y157500D03*
X264064Y157500D03*
X185936Y157500D03*
X194064Y157500D03*
D12*
X592000Y24000D03*
X175000Y65000D03*
X349500Y65000D03*
X525000Y65000D03*
X262500Y64500D03*
X425000Y180000D03*
X75000Y65000D03*
X525000Y180000D03*
X350500Y322500D03*
X307500Y322500D03*
D13*
X345700Y401800D03*
X349300Y401800D03*
X349300Y398200D03*
X345700Y398200D03*
D12*
X337500Y370000D03*
X270000Y430000D03*
X270500Y487500D03*
X435000Y65000D03*
X285000Y335000D03*
X374000Y335000D03*
X525000Y330000D03*
X505000Y256500D03*
X155000Y260000D03*
X285000Y260000D03*
X105000Y165000D03*
X540000Y664000D03*
X290000Y630000D03*
X345000Y550000D03*
X540000Y550000D03*
X434500Y445000D03*
X380500Y256500D03*
X415500Y256500D03*
X240000Y195000D03*
X600000Y160000D03*
X591500Y64500D03*
X415000Y25000D03*
X504000Y664000D03*
X484500Y664000D03*
X458500Y664000D03*
X433500Y664000D03*
X408000Y664000D03*
D14*
X350000Y244500D03*
D12*
X383000Y664000D03*
X345000Y664000D03*
D15*
X504000Y664000D02*
X540000Y664000D01*
D12*
X297000Y505000D03*
X488500Y494500D03*
X495000Y517500D03*
X305500Y460000D03*
X427500Y495000D03*
X380000Y447500D03*
X275000Y630000D03*
X382500Y550000D03*
X408000Y550000D03*
X459000Y550000D03*
X484000Y550000D03*
X342000Y495000D03*
X360000Y370000D03*
X305000Y370000D03*
X329000Y349500D03*
X329000Y299500D03*
X374000Y305000D03*
X285000Y305000D03*
X329000Y254500D03*
X205000Y240000D03*
X170000Y195000D03*
X105000Y195000D03*
X170000Y165000D03*
X240000Y165000D03*
X127000Y157500D03*
X220000Y165000D03*
X322000Y179000D03*
X342500Y136000D03*
X380000Y174500D03*
X356500Y151000D03*
X500000Y167500D03*
X120000Y130000D03*
X120000Y90000D03*
X240000Y85000D03*
X295000Y85000D03*
X425000Y80000D03*
X465000Y80000D03*
X465000Y390000D03*
X582000Y256000D03*
D14*
X445500Y331500D03*
D12*
X470500Y256500D03*
X545000Y256500D03*
X433000Y550000D03*
X352000Y629500D03*
X378000Y637500D03*
X345000Y604500D03*
X403000Y637500D03*
X428000Y637500D03*
X485000Y645000D03*
X503000Y618500D03*
X379000Y362500D03*
X262500Y418000D03*
X407000Y402500D03*
X365000Y495000D03*
X385000Y495000D03*
X405000Y495000D03*
X570000Y180000D03*
X480000Y180000D03*
X385000Y199500D03*
X500000Y209500D03*
X452500Y637000D03*
D16*
X441564Y157500D02*
X500000Y157500D01*
D12*
X500000Y157500D03*
D16*
X442064Y209500D02*
X441564Y210000D01*
X442064Y209500D02*
X488000Y209500D01*
D12*
X488000Y209500D03*
D16*
X331000Y175000D02*
X331000Y174436D01*
X314064Y157500D01*
X264064Y157500D01*
D12*
X331000Y175000D03*
X365000Y157500D03*
D16*
X433436Y157500D01*
X255936Y157500D02*
X211958Y157500D01*
D12*
X211958Y157500D03*
X396500Y402500D03*
X396500Y358000D03*
D16*
X396500Y402500D01*
D13*
X340700Y393200D03*
D12*
X324500Y387500D03*
D16*
X330200Y393200D01*
X340700Y393200D01*
D13*
X359300Y393200D03*
D12*
X385000Y370000D03*
D16*
X382500Y370000D02*
X359300Y393200D01*
X382500Y370000D02*
X385000Y370000D01*
D12*
X328000Y428000D03*
X370000Y550000D03*
D16*
X328000Y493000D02*
X328000Y428000D01*
X370000Y535000D02*
X370000Y550000D01*
X370000Y535000D02*
X328000Y493000D01*
D12*
X339000Y428000D03*
X395500Y550000D03*
D16*
X395500Y535500D01*
X339000Y479000D01*
X339000Y428000D01*
D12*
X350000Y428000D03*
X421000Y550000D03*
D16*
X350000Y470000D02*
X350000Y428000D01*
X421000Y541000D02*
X421000Y550000D01*
X421000Y541000D02*
X350000Y470000D01*
D12*
X361000Y428000D03*
X446000Y550000D03*
D16*
X361000Y461000D02*
X361000Y428000D01*
X361000Y461000D02*
X446000Y546000D01*
X446000Y550000D01*
D12*
X372000Y428000D03*
X471500Y550000D03*
D16*
X372000Y450500D02*
X372000Y428000D01*
X372000Y450500D02*
X471500Y550000D01*
D12*
X497500Y552500D03*
D16*
X380500Y435500D01*
D13*
X359300Y406800D03*
D16*
X359500Y407000D01*
X362000Y407000D01*
X380500Y425500D01*
X380500Y435500D01*
D13*
X340700Y406800D03*
D16*
X340500Y407000D01*
X263000Y407000D01*
X262500Y407500D01*
D14*
X262500Y407500D03*
D12*
X333000Y140000D03*
X369000Y175000D03*
D16*
X368318Y175000D01*
X333000Y140000D01*
X385000Y210000D02*
X433436Y210000D01*
X209000Y140000D02*
X194064Y154936D01*
X194064Y157500D01*
X209000Y140000D02*
X333000Y140000D01*
D12*
X385000Y210000D03*
X345000Y615000D03*
X385000Y630000D03*
X410000Y630000D03*
X435000Y630000D03*
D16*
X385000Y630000D02*
X370000Y615000D01*
X345000Y615000D01*
X385000Y630000D02*
X410000Y630000D01*
X435000Y630000D01*
D12*
X362500Y630000D03*
X460000Y630000D03*
X485000Y630000D03*
D16*
X362500Y630000D02*
X362500Y640500D01*
X367000Y645000D01*
X460000Y645000D01*
X475000Y645000D01*
X485000Y635000D01*
X485000Y630000D01*
X460000Y630000D02*
X460000Y645000D01*
D12*
X503000Y630000D03*
D17*
X485000Y630000D01*
D13*
X359300Y398200D03*
D16*
X388815Y417774D02*
X417774Y417774D01*
X435000Y435000D01*
D12*
X435000Y435000D03*
D16*
X369241Y398200D02*
X359300Y398200D01*
X369241Y398200D02*
X388815Y417774D01*
X185936Y157500D02*
X138000Y157500D01*
D12*
X138000Y157500D03*
D13*
X354300Y406800D03*
D12*
X314500Y460000D03*
D17*
X314500Y428500D02*
X324500Y418500D01*
X342600Y418500D01*
D18*
X354300Y406800D01*
D17*
X314500Y428500D02*
X314500Y460000D01*
D12*
X395000Y240000D03*
D16*
X390000Y235000D01*
D12*
X280000Y230000D03*
D16*
X285000Y235000D01*
X390000Y235000D01*
M02*
