G04 EAGLE Gerber RS-274X export*
G75*
%MOMM*%
%FSLAX34Y34*%
%LPD*%
%INBottom Copper*%
%IPPOS*%
%AMOC8*
5,1,8,0,0,1.08239X$1,22.5*%
G01*
%ADD10C,1.879600*%
%ADD11R,0.635000X1.270000*%
%ADD12C,0.700000*%
%ADD13C,0.750000*%
%ADD14C,0.250000*%
%ADD15C,0.600000*%
%ADD16C,0.152400*%
%ADD17C,0.254000*%
%ADD18C,0.200000*%

G36*
X647024Y10168D02*
X647024Y10168D01*
X647097Y10166D01*
X647224Y10188D01*
X647351Y10201D01*
X647422Y10222D01*
X647494Y10235D01*
X647613Y10281D01*
X647736Y10319D01*
X647801Y10354D01*
X647869Y10380D01*
X647977Y10449D01*
X648090Y10511D01*
X648147Y10557D01*
X648208Y10597D01*
X648301Y10686D01*
X648400Y10768D01*
X648445Y10825D01*
X648498Y10876D01*
X648572Y10982D01*
X648652Y11082D01*
X648686Y11147D01*
X648727Y11207D01*
X648778Y11325D01*
X648838Y11439D01*
X648858Y11510D01*
X648887Y11577D01*
X648913Y11703D01*
X648949Y11826D01*
X648955Y11899D01*
X648970Y11971D01*
X648971Y12099D01*
X648982Y12228D01*
X648973Y12300D01*
X648974Y12374D01*
X648950Y12500D01*
X648935Y12627D01*
X648912Y12697D01*
X648898Y12769D01*
X648850Y12888D01*
X648810Y13010D01*
X648774Y13074D01*
X648746Y13142D01*
X648675Y13249D01*
X648612Y13361D01*
X648564Y13416D01*
X648524Y13477D01*
X648433Y13568D01*
X648349Y13665D01*
X648291Y13710D01*
X648239Y13762D01*
X648100Y13859D01*
X648031Y13912D01*
X648001Y13927D01*
X647966Y13951D01*
X645516Y15366D01*
X640366Y20516D01*
X636724Y26823D01*
X634839Y33858D01*
X634839Y41142D01*
X636724Y48177D01*
X640366Y54484D01*
X645516Y59634D01*
X651823Y63276D01*
X658858Y65161D01*
X666142Y65161D01*
X673177Y63276D01*
X679484Y59634D01*
X684634Y54484D01*
X686049Y52034D01*
X686092Y51974D01*
X686127Y51910D01*
X686209Y51811D01*
X686284Y51707D01*
X686337Y51657D01*
X686384Y51600D01*
X686484Y51520D01*
X686579Y51432D01*
X686641Y51394D01*
X686698Y51348D01*
X686812Y51289D01*
X686922Y51222D01*
X686990Y51196D01*
X687055Y51162D01*
X687179Y51127D01*
X687299Y51083D01*
X687372Y51071D01*
X687442Y51051D01*
X687571Y51041D01*
X687697Y51021D01*
X687770Y51024D01*
X687844Y51018D01*
X687971Y51033D01*
X688100Y51039D01*
X688171Y51057D01*
X688243Y51065D01*
X688365Y51105D01*
X688490Y51136D01*
X688557Y51167D01*
X688626Y51190D01*
X688738Y51253D01*
X688854Y51308D01*
X688913Y51352D01*
X688977Y51388D01*
X689074Y51472D01*
X689177Y51549D01*
X689226Y51603D01*
X689282Y51651D01*
X689360Y51752D01*
X689446Y51848D01*
X689484Y51911D01*
X689528Y51969D01*
X689585Y52084D01*
X689651Y52195D01*
X689675Y52264D01*
X689708Y52330D01*
X689741Y52454D01*
X689783Y52575D01*
X689793Y52648D01*
X689812Y52718D01*
X689826Y52888D01*
X689838Y52974D01*
X689836Y53007D01*
X689839Y53049D01*
X689839Y646951D01*
X689832Y647024D01*
X689834Y647097D01*
X689812Y647224D01*
X689799Y647351D01*
X689778Y647422D01*
X689765Y647494D01*
X689719Y647613D01*
X689681Y647736D01*
X689646Y647801D01*
X689620Y647869D01*
X689551Y647977D01*
X689489Y648090D01*
X689443Y648147D01*
X689403Y648208D01*
X689314Y648301D01*
X689232Y648400D01*
X689175Y648445D01*
X689124Y648498D01*
X689018Y648572D01*
X688918Y648652D01*
X688853Y648686D01*
X688793Y648727D01*
X688675Y648778D01*
X688561Y648838D01*
X688490Y648858D01*
X688423Y648887D01*
X688297Y648913D01*
X688174Y648949D01*
X688101Y648955D01*
X688029Y648970D01*
X687901Y648971D01*
X687772Y648982D01*
X687700Y648973D01*
X687626Y648974D01*
X687500Y648950D01*
X687373Y648935D01*
X687303Y648912D01*
X687231Y648898D01*
X687112Y648850D01*
X686990Y648810D01*
X686926Y648774D01*
X686858Y648746D01*
X686751Y648675D01*
X686639Y648612D01*
X686584Y648564D01*
X686523Y648524D01*
X686432Y648433D01*
X686335Y648349D01*
X686290Y648291D01*
X686238Y648239D01*
X686141Y648100D01*
X686088Y648031D01*
X686073Y648001D01*
X686049Y647966D01*
X684634Y645516D01*
X679484Y640366D01*
X673177Y636724D01*
X666142Y634839D01*
X658858Y634839D01*
X651823Y636724D01*
X645516Y640366D01*
X640366Y645516D01*
X636724Y651823D01*
X634839Y658858D01*
X634839Y666142D01*
X636724Y673177D01*
X640366Y679484D01*
X645516Y684634D01*
X647966Y686049D01*
X648026Y686092D01*
X648090Y686127D01*
X648189Y686209D01*
X648293Y686284D01*
X648343Y686337D01*
X648400Y686384D01*
X648480Y686484D01*
X648568Y686579D01*
X648606Y686641D01*
X648652Y686698D01*
X648711Y686812D01*
X648778Y686922D01*
X648804Y686990D01*
X648838Y687055D01*
X648873Y687179D01*
X648917Y687299D01*
X648929Y687372D01*
X648949Y687442D01*
X648959Y687571D01*
X648979Y687697D01*
X648976Y687770D01*
X648982Y687844D01*
X648967Y687971D01*
X648961Y688100D01*
X648943Y688171D01*
X648935Y688243D01*
X648895Y688365D01*
X648864Y688490D01*
X648833Y688557D01*
X648810Y688626D01*
X648747Y688738D01*
X648692Y688854D01*
X648648Y688913D01*
X648612Y688977D01*
X648528Y689074D01*
X648451Y689177D01*
X648397Y689226D01*
X648349Y689282D01*
X648248Y689360D01*
X648152Y689446D01*
X648089Y689484D01*
X648031Y689528D01*
X647916Y689585D01*
X647805Y689651D01*
X647736Y689675D01*
X647670Y689708D01*
X647546Y689741D01*
X647425Y689783D01*
X647352Y689793D01*
X647282Y689812D01*
X647112Y689826D01*
X647026Y689838D01*
X646993Y689836D01*
X646951Y689839D01*
X559395Y689839D01*
X559344Y689834D01*
X559293Y689837D01*
X559144Y689814D01*
X558994Y689799D01*
X558946Y689784D01*
X558895Y689777D01*
X558753Y689725D01*
X558609Y689681D01*
X558565Y689657D01*
X558516Y689639D01*
X558388Y689561D01*
X558255Y689489D01*
X558216Y689457D01*
X558172Y689430D01*
X558062Y689328D01*
X557946Y689232D01*
X557914Y689192D01*
X557876Y689157D01*
X557788Y689035D01*
X557694Y688918D01*
X557670Y688873D01*
X557640Y688831D01*
X557578Y688694D01*
X557508Y688561D01*
X557494Y688512D01*
X557473Y688465D01*
X557439Y688318D01*
X557397Y688174D01*
X557393Y688123D01*
X557381Y688073D01*
X557376Y687922D01*
X557364Y687772D01*
X557370Y687722D01*
X557368Y687671D01*
X557393Y687522D01*
X557411Y687373D01*
X557427Y687324D01*
X557435Y687273D01*
X557489Y687133D01*
X557536Y686990D01*
X557561Y686945D01*
X557579Y686897D01*
X557699Y686700D01*
X557734Y686639D01*
X557743Y686629D01*
X557752Y686614D01*
X558011Y686257D01*
X558864Y684583D01*
X559445Y682796D01*
X559485Y682539D01*
X548308Y682539D01*
X548290Y682537D01*
X548273Y682539D01*
X548090Y682518D01*
X547908Y682499D01*
X547891Y682494D01*
X547873Y682492D01*
X547698Y682435D01*
X547523Y682381D01*
X547507Y682373D01*
X547490Y682367D01*
X547330Y682277D01*
X547169Y682189D01*
X547155Y682178D01*
X547139Y682169D01*
X547000Y682049D01*
X546859Y681932D01*
X546848Y681918D01*
X546835Y681906D01*
X546722Y681761D01*
X546607Y681618D01*
X546599Y681602D01*
X546588Y681588D01*
X546506Y681423D01*
X546466Y681347D01*
X546314Y681261D01*
X546152Y681173D01*
X546139Y681162D01*
X546123Y681153D01*
X545984Y681033D01*
X545843Y680915D01*
X545832Y680902D01*
X545818Y680890D01*
X545706Y680745D01*
X545591Y680602D01*
X545583Y680586D01*
X545572Y680572D01*
X545490Y680407D01*
X545405Y680244D01*
X545400Y680227D01*
X545392Y680211D01*
X545344Y680033D01*
X545294Y679858D01*
X545292Y679840D01*
X545288Y679823D01*
X545261Y679492D01*
X545261Y668315D01*
X545004Y668355D01*
X543217Y668936D01*
X541543Y669789D01*
X540022Y670894D01*
X538694Y672222D01*
X537589Y673743D01*
X536736Y675417D01*
X536136Y677265D01*
X536100Y677347D01*
X536073Y677431D01*
X536019Y677530D01*
X535974Y677634D01*
X535923Y677707D01*
X535880Y677784D01*
X535807Y677871D01*
X535742Y677963D01*
X535678Y678024D01*
X535621Y678092D01*
X535533Y678163D01*
X535451Y678241D01*
X535376Y678288D01*
X535306Y678343D01*
X535206Y678395D01*
X535110Y678455D01*
X535027Y678487D01*
X534948Y678527D01*
X534839Y678558D01*
X534734Y678598D01*
X534646Y678613D01*
X534561Y678637D01*
X534448Y678646D01*
X534336Y678664D01*
X534248Y678661D01*
X534159Y678668D01*
X534047Y678655D01*
X533934Y678651D01*
X533848Y678630D01*
X533760Y678620D01*
X533652Y678584D01*
X533542Y678558D01*
X533462Y678521D01*
X533377Y678493D01*
X533279Y678437D01*
X533176Y678390D01*
X533105Y678338D01*
X533028Y678294D01*
X532942Y678219D01*
X532851Y678153D01*
X532791Y678087D01*
X532724Y678029D01*
X532655Y677939D01*
X532579Y677856D01*
X532533Y677780D01*
X532479Y677710D01*
X532414Y677584D01*
X532370Y677512D01*
X532355Y677468D01*
X532327Y677415D01*
X531014Y674244D01*
X528156Y671386D01*
X524421Y669839D01*
X520379Y669839D01*
X516644Y671386D01*
X513786Y674244D01*
X512239Y677979D01*
X512239Y682021D01*
X513786Y685756D01*
X514402Y686372D01*
X514408Y686379D01*
X514415Y686384D01*
X514535Y686533D01*
X514657Y686683D01*
X514662Y686691D01*
X514667Y686698D01*
X514755Y686868D01*
X514846Y687039D01*
X514849Y687048D01*
X514853Y687055D01*
X514906Y687240D01*
X514961Y687425D01*
X514962Y687434D01*
X514964Y687442D01*
X514980Y687633D01*
X514997Y687826D01*
X514996Y687835D01*
X514997Y687844D01*
X514975Y688031D01*
X514954Y688226D01*
X514951Y688235D01*
X514950Y688243D01*
X514890Y688426D01*
X514832Y688610D01*
X514828Y688618D01*
X514825Y688626D01*
X514731Y688793D01*
X514637Y688962D01*
X514632Y688969D01*
X514627Y688977D01*
X514501Y689123D01*
X514377Y689269D01*
X514370Y689275D01*
X514364Y689282D01*
X514211Y689400D01*
X514061Y689519D01*
X514053Y689523D01*
X514046Y689528D01*
X513872Y689615D01*
X513702Y689701D01*
X513694Y689704D01*
X513685Y689708D01*
X513498Y689758D01*
X513314Y689809D01*
X513305Y689810D01*
X513297Y689812D01*
X512966Y689839D01*
X506434Y689839D01*
X506425Y689838D01*
X506416Y689839D01*
X506224Y689818D01*
X506033Y689799D01*
X506025Y689797D01*
X506016Y689796D01*
X505834Y689738D01*
X505648Y689681D01*
X505641Y689677D01*
X505632Y689674D01*
X505464Y689581D01*
X505294Y689489D01*
X505288Y689484D01*
X505280Y689479D01*
X505132Y689354D01*
X504985Y689232D01*
X504980Y689225D01*
X504973Y689219D01*
X504853Y689067D01*
X504733Y688918D01*
X504729Y688910D01*
X504723Y688903D01*
X504635Y688730D01*
X504547Y688561D01*
X504545Y688552D01*
X504541Y688544D01*
X504489Y688359D01*
X504436Y688174D01*
X504435Y688165D01*
X504433Y688156D01*
X504419Y687964D01*
X504403Y687772D01*
X504404Y687764D01*
X504403Y687755D01*
X504428Y687563D01*
X504450Y687373D01*
X504453Y687364D01*
X504454Y687355D01*
X504515Y687173D01*
X504575Y686990D01*
X504579Y686982D01*
X504582Y686974D01*
X504678Y686806D01*
X504773Y686639D01*
X504779Y686632D01*
X504783Y686625D01*
X504998Y686372D01*
X505614Y685756D01*
X507161Y682021D01*
X507161Y677979D01*
X505614Y674244D01*
X502756Y671386D01*
X499021Y669839D01*
X494979Y669839D01*
X491244Y671386D01*
X488386Y674244D01*
X486839Y677979D01*
X486839Y682021D01*
X488386Y685756D01*
X489002Y686372D01*
X489008Y686379D01*
X489015Y686384D01*
X489135Y686533D01*
X489257Y686683D01*
X489262Y686691D01*
X489267Y686698D01*
X489355Y686868D01*
X489446Y687039D01*
X489449Y687048D01*
X489453Y687055D01*
X489506Y687240D01*
X489561Y687425D01*
X489562Y687434D01*
X489564Y687442D01*
X489580Y687633D01*
X489597Y687826D01*
X489596Y687835D01*
X489597Y687844D01*
X489575Y688031D01*
X489554Y688226D01*
X489551Y688235D01*
X489550Y688243D01*
X489490Y688426D01*
X489432Y688610D01*
X489428Y688618D01*
X489425Y688626D01*
X489331Y688793D01*
X489237Y688962D01*
X489232Y688969D01*
X489227Y688977D01*
X489101Y689123D01*
X488977Y689269D01*
X488970Y689275D01*
X488964Y689282D01*
X488811Y689400D01*
X488661Y689519D01*
X488653Y689523D01*
X488646Y689528D01*
X488472Y689615D01*
X488302Y689701D01*
X488294Y689704D01*
X488285Y689708D01*
X488098Y689758D01*
X487914Y689809D01*
X487905Y689810D01*
X487897Y689812D01*
X487566Y689839D01*
X481034Y689839D01*
X481025Y689838D01*
X481016Y689839D01*
X480824Y689818D01*
X480633Y689799D01*
X480625Y689797D01*
X480616Y689796D01*
X480434Y689738D01*
X480248Y689681D01*
X480241Y689677D01*
X480232Y689674D01*
X480064Y689581D01*
X479894Y689489D01*
X479888Y689484D01*
X479880Y689479D01*
X479732Y689354D01*
X479585Y689232D01*
X479580Y689225D01*
X479573Y689219D01*
X479453Y689067D01*
X479333Y688918D01*
X479329Y688910D01*
X479323Y688903D01*
X479235Y688730D01*
X479147Y688561D01*
X479145Y688552D01*
X479141Y688544D01*
X479089Y688359D01*
X479036Y688174D01*
X479035Y688165D01*
X479033Y688156D01*
X479019Y687964D01*
X479003Y687772D01*
X479004Y687764D01*
X479003Y687755D01*
X479028Y687563D01*
X479050Y687373D01*
X479053Y687364D01*
X479054Y687355D01*
X479115Y687173D01*
X479175Y686990D01*
X479179Y686982D01*
X479182Y686974D01*
X479278Y686806D01*
X479373Y686639D01*
X479379Y686632D01*
X479383Y686625D01*
X479598Y686372D01*
X480214Y685756D01*
X481761Y682021D01*
X481761Y677979D01*
X480214Y674244D01*
X477356Y671386D01*
X473621Y669839D01*
X469579Y669839D01*
X465844Y671386D01*
X462986Y674244D01*
X461439Y677979D01*
X461439Y682021D01*
X462986Y685756D01*
X463602Y686372D01*
X463608Y686379D01*
X463615Y686384D01*
X463735Y686533D01*
X463857Y686683D01*
X463862Y686691D01*
X463867Y686698D01*
X463955Y686868D01*
X464046Y687039D01*
X464049Y687048D01*
X464053Y687055D01*
X464106Y687240D01*
X464161Y687425D01*
X464162Y687434D01*
X464164Y687442D01*
X464180Y687633D01*
X464197Y687826D01*
X464196Y687835D01*
X464197Y687844D01*
X464175Y688031D01*
X464154Y688226D01*
X464151Y688235D01*
X464150Y688243D01*
X464090Y688426D01*
X464032Y688610D01*
X464028Y688618D01*
X464025Y688626D01*
X463931Y688793D01*
X463837Y688962D01*
X463832Y688969D01*
X463827Y688977D01*
X463701Y689123D01*
X463577Y689269D01*
X463570Y689275D01*
X463564Y689282D01*
X463411Y689400D01*
X463261Y689519D01*
X463253Y689523D01*
X463246Y689528D01*
X463072Y689615D01*
X462902Y689701D01*
X462894Y689704D01*
X462885Y689708D01*
X462698Y689758D01*
X462514Y689809D01*
X462505Y689810D01*
X462497Y689812D01*
X462166Y689839D01*
X455634Y689839D01*
X455625Y689838D01*
X455616Y689839D01*
X455424Y689818D01*
X455233Y689799D01*
X455225Y689797D01*
X455216Y689796D01*
X455034Y689738D01*
X454848Y689681D01*
X454841Y689677D01*
X454832Y689674D01*
X454664Y689581D01*
X454494Y689489D01*
X454488Y689484D01*
X454480Y689479D01*
X454332Y689354D01*
X454185Y689232D01*
X454180Y689225D01*
X454173Y689219D01*
X454053Y689067D01*
X453933Y688918D01*
X453929Y688910D01*
X453923Y688903D01*
X453835Y688730D01*
X453747Y688561D01*
X453745Y688552D01*
X453741Y688544D01*
X453689Y688359D01*
X453636Y688174D01*
X453635Y688165D01*
X453633Y688156D01*
X453619Y687964D01*
X453603Y687772D01*
X453604Y687764D01*
X453603Y687755D01*
X453628Y687563D01*
X453650Y687373D01*
X453653Y687364D01*
X453654Y687355D01*
X453715Y687173D01*
X453775Y686990D01*
X453779Y686982D01*
X453782Y686974D01*
X453878Y686806D01*
X453973Y686639D01*
X453979Y686632D01*
X453983Y686625D01*
X454198Y686372D01*
X454814Y685756D01*
X456361Y682021D01*
X456361Y677979D01*
X454814Y674244D01*
X451956Y671386D01*
X448221Y669839D01*
X444179Y669839D01*
X440444Y671386D01*
X437586Y674244D01*
X436039Y677979D01*
X436039Y682021D01*
X437586Y685756D01*
X438202Y686372D01*
X438208Y686379D01*
X438215Y686384D01*
X438335Y686533D01*
X438457Y686683D01*
X438462Y686691D01*
X438467Y686698D01*
X438555Y686868D01*
X438646Y687039D01*
X438649Y687048D01*
X438653Y687055D01*
X438706Y687240D01*
X438761Y687425D01*
X438762Y687434D01*
X438764Y687442D01*
X438780Y687633D01*
X438797Y687826D01*
X438796Y687835D01*
X438797Y687844D01*
X438775Y688031D01*
X438754Y688226D01*
X438751Y688235D01*
X438750Y688243D01*
X438690Y688426D01*
X438632Y688610D01*
X438628Y688618D01*
X438625Y688626D01*
X438531Y688793D01*
X438437Y688962D01*
X438432Y688969D01*
X438427Y688977D01*
X438301Y689123D01*
X438177Y689269D01*
X438170Y689275D01*
X438164Y689282D01*
X438011Y689400D01*
X437861Y689519D01*
X437853Y689523D01*
X437846Y689528D01*
X437672Y689615D01*
X437502Y689701D01*
X437494Y689704D01*
X437485Y689708D01*
X437298Y689758D01*
X437114Y689809D01*
X437105Y689810D01*
X437097Y689812D01*
X436766Y689839D01*
X430234Y689839D01*
X430225Y689838D01*
X430216Y689839D01*
X430024Y689818D01*
X429833Y689799D01*
X429825Y689797D01*
X429816Y689796D01*
X429634Y689738D01*
X429448Y689681D01*
X429441Y689677D01*
X429432Y689674D01*
X429264Y689581D01*
X429094Y689489D01*
X429088Y689484D01*
X429080Y689479D01*
X428932Y689354D01*
X428785Y689232D01*
X428780Y689225D01*
X428773Y689219D01*
X428653Y689067D01*
X428533Y688918D01*
X428529Y688910D01*
X428523Y688903D01*
X428435Y688730D01*
X428347Y688561D01*
X428345Y688552D01*
X428341Y688544D01*
X428289Y688359D01*
X428236Y688174D01*
X428235Y688165D01*
X428233Y688156D01*
X428219Y687964D01*
X428203Y687772D01*
X428204Y687764D01*
X428203Y687755D01*
X428228Y687563D01*
X428250Y687373D01*
X428253Y687364D01*
X428254Y687355D01*
X428315Y687173D01*
X428375Y686990D01*
X428379Y686982D01*
X428382Y686974D01*
X428478Y686806D01*
X428573Y686639D01*
X428579Y686632D01*
X428583Y686625D01*
X428798Y686372D01*
X429414Y685756D01*
X430961Y682021D01*
X430961Y677979D01*
X429414Y674244D01*
X426556Y671386D01*
X422821Y669839D01*
X418779Y669839D01*
X415044Y671386D01*
X412186Y674244D01*
X410639Y677979D01*
X410639Y682021D01*
X412186Y685756D01*
X412802Y686372D01*
X412808Y686379D01*
X412815Y686384D01*
X412935Y686533D01*
X413057Y686683D01*
X413062Y686691D01*
X413067Y686698D01*
X413155Y686868D01*
X413246Y687039D01*
X413249Y687048D01*
X413253Y687055D01*
X413306Y687240D01*
X413361Y687425D01*
X413362Y687434D01*
X413364Y687442D01*
X413380Y687633D01*
X413397Y687826D01*
X413396Y687835D01*
X413397Y687844D01*
X413375Y688031D01*
X413354Y688226D01*
X413351Y688235D01*
X413350Y688243D01*
X413290Y688426D01*
X413232Y688610D01*
X413228Y688618D01*
X413225Y688626D01*
X413131Y688793D01*
X413037Y688962D01*
X413032Y688969D01*
X413027Y688977D01*
X412901Y689123D01*
X412777Y689269D01*
X412770Y689275D01*
X412764Y689282D01*
X412611Y689400D01*
X412461Y689519D01*
X412453Y689523D01*
X412446Y689528D01*
X412272Y689615D01*
X412102Y689701D01*
X412094Y689704D01*
X412085Y689708D01*
X411898Y689758D01*
X411714Y689809D01*
X411705Y689810D01*
X411697Y689812D01*
X411366Y689839D01*
X404834Y689839D01*
X404825Y689838D01*
X404816Y689839D01*
X404624Y689818D01*
X404433Y689799D01*
X404425Y689797D01*
X404416Y689796D01*
X404234Y689738D01*
X404048Y689681D01*
X404041Y689677D01*
X404032Y689674D01*
X403864Y689581D01*
X403694Y689489D01*
X403688Y689484D01*
X403680Y689479D01*
X403532Y689354D01*
X403385Y689232D01*
X403380Y689225D01*
X403373Y689219D01*
X403253Y689067D01*
X403133Y688918D01*
X403129Y688910D01*
X403123Y688903D01*
X403035Y688730D01*
X402947Y688561D01*
X402945Y688552D01*
X402941Y688544D01*
X402889Y688359D01*
X402836Y688174D01*
X402835Y688165D01*
X402833Y688156D01*
X402819Y687964D01*
X402803Y687772D01*
X402804Y687764D01*
X402803Y687755D01*
X402828Y687563D01*
X402850Y687373D01*
X402853Y687364D01*
X402854Y687355D01*
X402915Y687173D01*
X402975Y686990D01*
X402979Y686982D01*
X402982Y686974D01*
X403078Y686806D01*
X403173Y686639D01*
X403179Y686632D01*
X403183Y686625D01*
X403398Y686372D01*
X404014Y685756D01*
X405561Y682021D01*
X405561Y677979D01*
X404014Y674244D01*
X401156Y671386D01*
X397421Y669839D01*
X393379Y669839D01*
X389644Y671386D01*
X386786Y674244D01*
X385239Y677979D01*
X385239Y682021D01*
X386786Y685756D01*
X387402Y686372D01*
X387408Y686379D01*
X387415Y686384D01*
X387535Y686533D01*
X387657Y686683D01*
X387662Y686691D01*
X387667Y686698D01*
X387755Y686868D01*
X387846Y687039D01*
X387849Y687048D01*
X387853Y687055D01*
X387906Y687240D01*
X387961Y687425D01*
X387962Y687434D01*
X387964Y687442D01*
X387980Y687633D01*
X387997Y687826D01*
X387996Y687835D01*
X387997Y687844D01*
X387975Y688031D01*
X387954Y688226D01*
X387951Y688235D01*
X387950Y688243D01*
X387890Y688426D01*
X387832Y688610D01*
X387828Y688618D01*
X387825Y688626D01*
X387731Y688793D01*
X387637Y688962D01*
X387632Y688969D01*
X387627Y688977D01*
X387501Y689123D01*
X387377Y689269D01*
X387370Y689275D01*
X387364Y689282D01*
X387211Y689400D01*
X387061Y689519D01*
X387053Y689523D01*
X387046Y689528D01*
X386872Y689615D01*
X386702Y689701D01*
X386694Y689704D01*
X386685Y689708D01*
X386498Y689758D01*
X386314Y689809D01*
X386305Y689810D01*
X386297Y689812D01*
X385966Y689839D01*
X379434Y689839D01*
X379425Y689838D01*
X379416Y689839D01*
X379224Y689818D01*
X379033Y689799D01*
X379025Y689797D01*
X379016Y689796D01*
X378834Y689738D01*
X378648Y689681D01*
X378641Y689677D01*
X378632Y689674D01*
X378464Y689581D01*
X378294Y689489D01*
X378288Y689484D01*
X378280Y689479D01*
X378132Y689354D01*
X377985Y689232D01*
X377980Y689225D01*
X377973Y689219D01*
X377853Y689067D01*
X377733Y688918D01*
X377729Y688910D01*
X377723Y688903D01*
X377635Y688730D01*
X377547Y688561D01*
X377545Y688552D01*
X377541Y688544D01*
X377489Y688359D01*
X377436Y688174D01*
X377435Y688165D01*
X377433Y688156D01*
X377419Y687964D01*
X377403Y687772D01*
X377404Y687764D01*
X377403Y687755D01*
X377428Y687563D01*
X377450Y687373D01*
X377453Y687364D01*
X377454Y687355D01*
X377515Y687173D01*
X377575Y686990D01*
X377579Y686982D01*
X377582Y686974D01*
X377678Y686806D01*
X377773Y686639D01*
X377779Y686632D01*
X377783Y686625D01*
X377998Y686372D01*
X378614Y685756D01*
X380161Y682021D01*
X380161Y677979D01*
X378614Y674244D01*
X375756Y671386D01*
X372021Y669839D01*
X367979Y669839D01*
X364244Y671386D01*
X361386Y674244D01*
X359839Y677979D01*
X359839Y682021D01*
X361386Y685756D01*
X362002Y686372D01*
X362008Y686379D01*
X362015Y686384D01*
X362135Y686533D01*
X362257Y686683D01*
X362262Y686691D01*
X362267Y686698D01*
X362355Y686868D01*
X362446Y687039D01*
X362449Y687048D01*
X362453Y687055D01*
X362506Y687240D01*
X362561Y687425D01*
X362562Y687434D01*
X362564Y687442D01*
X362580Y687633D01*
X362597Y687826D01*
X362596Y687835D01*
X362597Y687844D01*
X362575Y688031D01*
X362554Y688226D01*
X362551Y688235D01*
X362550Y688243D01*
X362490Y688426D01*
X362432Y688610D01*
X362428Y688618D01*
X362425Y688626D01*
X362331Y688793D01*
X362237Y688962D01*
X362232Y688969D01*
X362227Y688977D01*
X362101Y689123D01*
X361977Y689269D01*
X361970Y689275D01*
X361964Y689282D01*
X361811Y689400D01*
X361661Y689519D01*
X361653Y689523D01*
X361646Y689528D01*
X361472Y689615D01*
X361302Y689701D01*
X361294Y689704D01*
X361285Y689708D01*
X361098Y689758D01*
X360914Y689809D01*
X360905Y689810D01*
X360897Y689812D01*
X360566Y689839D01*
X53049Y689839D01*
X52976Y689832D01*
X52903Y689834D01*
X52776Y689812D01*
X52649Y689799D01*
X52578Y689778D01*
X52506Y689765D01*
X52387Y689719D01*
X52264Y689681D01*
X52199Y689646D01*
X52131Y689620D01*
X52023Y689551D01*
X51910Y689489D01*
X51853Y689443D01*
X51792Y689403D01*
X51699Y689314D01*
X51600Y689232D01*
X51555Y689175D01*
X51502Y689124D01*
X51428Y689018D01*
X51348Y688918D01*
X51314Y688853D01*
X51273Y688793D01*
X51222Y688675D01*
X51162Y688561D01*
X51142Y688490D01*
X51113Y688423D01*
X51087Y688297D01*
X51051Y688174D01*
X51045Y688101D01*
X51030Y688029D01*
X51029Y687901D01*
X51018Y687772D01*
X51027Y687700D01*
X51026Y687626D01*
X51050Y687500D01*
X51065Y687373D01*
X51088Y687303D01*
X51102Y687231D01*
X51150Y687112D01*
X51190Y686990D01*
X51226Y686926D01*
X51254Y686858D01*
X51325Y686751D01*
X51388Y686639D01*
X51436Y686584D01*
X51476Y686523D01*
X51567Y686432D01*
X51651Y686335D01*
X51709Y686290D01*
X51761Y686238D01*
X51900Y686141D01*
X51969Y686088D01*
X51999Y686073D01*
X52034Y686049D01*
X54484Y684634D01*
X59634Y679484D01*
X63276Y673177D01*
X65161Y666142D01*
X65161Y658858D01*
X63276Y651823D01*
X59634Y645516D01*
X54484Y640366D01*
X48177Y636724D01*
X41142Y634839D01*
X33858Y634839D01*
X26823Y636724D01*
X20516Y640366D01*
X15366Y645516D01*
X13951Y647966D01*
X13908Y648026D01*
X13873Y648090D01*
X13791Y648189D01*
X13716Y648293D01*
X13663Y648343D01*
X13616Y648400D01*
X13516Y648480D01*
X13421Y648568D01*
X13359Y648606D01*
X13302Y648652D01*
X13188Y648711D01*
X13078Y648778D01*
X13010Y648804D01*
X12945Y648838D01*
X12821Y648873D01*
X12701Y648917D01*
X12628Y648929D01*
X12558Y648949D01*
X12429Y648959D01*
X12303Y648979D01*
X12230Y648976D01*
X12156Y648982D01*
X12029Y648967D01*
X11900Y648961D01*
X11829Y648943D01*
X11757Y648935D01*
X11635Y648895D01*
X11510Y648864D01*
X11443Y648833D01*
X11374Y648810D01*
X11262Y648747D01*
X11146Y648692D01*
X11087Y648648D01*
X11023Y648612D01*
X10926Y648528D01*
X10823Y648451D01*
X10774Y648397D01*
X10718Y648349D01*
X10640Y648248D01*
X10554Y648152D01*
X10516Y648089D01*
X10472Y648031D01*
X10415Y647916D01*
X10349Y647805D01*
X10325Y647736D01*
X10292Y647670D01*
X10259Y647546D01*
X10217Y647425D01*
X10207Y647352D01*
X10188Y647282D01*
X10174Y647112D01*
X10162Y647026D01*
X10164Y646993D01*
X10161Y646951D01*
X10161Y53049D01*
X10168Y52976D01*
X10166Y52903D01*
X10188Y52776D01*
X10201Y52649D01*
X10222Y52578D01*
X10235Y52506D01*
X10281Y52387D01*
X10319Y52264D01*
X10354Y52199D01*
X10380Y52131D01*
X10449Y52023D01*
X10511Y51910D01*
X10557Y51853D01*
X10597Y51792D01*
X10686Y51699D01*
X10768Y51600D01*
X10825Y51555D01*
X10876Y51502D01*
X10982Y51428D01*
X11082Y51348D01*
X11147Y51314D01*
X11207Y51273D01*
X11325Y51222D01*
X11439Y51162D01*
X11510Y51142D01*
X11577Y51113D01*
X11703Y51087D01*
X11826Y51051D01*
X11899Y51045D01*
X11971Y51030D01*
X12099Y51029D01*
X12228Y51018D01*
X12300Y51027D01*
X12374Y51026D01*
X12500Y51050D01*
X12627Y51065D01*
X12697Y51088D01*
X12769Y51102D01*
X12888Y51150D01*
X13010Y51190D01*
X13074Y51226D01*
X13142Y51254D01*
X13249Y51325D01*
X13361Y51388D01*
X13416Y51436D01*
X13477Y51476D01*
X13568Y51567D01*
X13665Y51651D01*
X13710Y51709D01*
X13762Y51761D01*
X13859Y51900D01*
X13912Y51969D01*
X13927Y51999D01*
X13951Y52034D01*
X15366Y54484D01*
X20516Y59634D01*
X26823Y63276D01*
X33858Y65161D01*
X41142Y65161D01*
X48177Y63276D01*
X54484Y59634D01*
X59634Y54484D01*
X63276Y48177D01*
X65161Y41142D01*
X65161Y33858D01*
X63276Y26823D01*
X59634Y20516D01*
X54484Y15366D01*
X52034Y13951D01*
X51974Y13908D01*
X51910Y13873D01*
X51811Y13791D01*
X51707Y13716D01*
X51657Y13663D01*
X51600Y13616D01*
X51520Y13516D01*
X51432Y13421D01*
X51394Y13359D01*
X51348Y13302D01*
X51289Y13188D01*
X51222Y13078D01*
X51196Y13010D01*
X51162Y12945D01*
X51127Y12821D01*
X51083Y12701D01*
X51071Y12628D01*
X51051Y12558D01*
X51041Y12429D01*
X51021Y12303D01*
X51024Y12230D01*
X51018Y12156D01*
X51033Y12029D01*
X51039Y11900D01*
X51057Y11829D01*
X51065Y11757D01*
X51105Y11635D01*
X51136Y11510D01*
X51167Y11443D01*
X51190Y11374D01*
X51253Y11262D01*
X51308Y11146D01*
X51352Y11087D01*
X51388Y11023D01*
X51472Y10926D01*
X51549Y10823D01*
X51603Y10774D01*
X51651Y10718D01*
X51752Y10640D01*
X51848Y10554D01*
X51911Y10516D01*
X51969Y10472D01*
X52084Y10415D01*
X52195Y10349D01*
X52264Y10325D01*
X52330Y10292D01*
X52454Y10259D01*
X52575Y10217D01*
X52648Y10207D01*
X52718Y10188D01*
X52888Y10174D01*
X52974Y10162D01*
X53007Y10164D01*
X53049Y10161D01*
X646951Y10161D01*
X647024Y10168D01*
G37*
%LPC*%
G36*
X261602Y402987D02*
X261602Y402987D01*
X259944Y403674D01*
X258674Y404944D01*
X257987Y406602D01*
X257987Y408398D01*
X258674Y410056D01*
X259944Y411326D01*
X261602Y412013D01*
X263398Y412013D01*
X265056Y411326D01*
X266500Y409882D01*
X266521Y409865D01*
X266539Y409844D01*
X266676Y409737D01*
X266812Y409627D01*
X266835Y409614D01*
X266857Y409598D01*
X267014Y409520D01*
X267168Y409438D01*
X267193Y409430D01*
X267217Y409418D01*
X267387Y409373D01*
X267553Y409323D01*
X267580Y409321D01*
X267606Y409314D01*
X267937Y409287D01*
X322357Y409287D01*
X322366Y409288D01*
X322375Y409287D01*
X322567Y409308D01*
X322758Y409327D01*
X322766Y409329D01*
X322775Y409330D01*
X322957Y409388D01*
X323143Y409445D01*
X323151Y409449D01*
X323159Y409452D01*
X323327Y409545D01*
X323497Y409637D01*
X323503Y409642D01*
X323511Y409647D01*
X323657Y409771D01*
X323806Y409894D01*
X323811Y409901D01*
X323818Y409907D01*
X323938Y410059D01*
X324058Y410208D01*
X324062Y410216D01*
X324068Y410223D01*
X324155Y410395D01*
X324244Y410565D01*
X324246Y410574D01*
X324250Y410582D01*
X324302Y410768D01*
X324355Y410952D01*
X324356Y410961D01*
X324358Y410970D01*
X324372Y411162D01*
X324388Y411354D01*
X324387Y411362D01*
X324388Y411371D01*
X324363Y411564D01*
X324341Y411753D01*
X324338Y411762D01*
X324337Y411771D01*
X324276Y411954D01*
X324216Y412136D01*
X324212Y412144D01*
X324209Y412152D01*
X324114Y412318D01*
X324018Y412487D01*
X324012Y412494D01*
X324008Y412501D01*
X323793Y412754D01*
X322110Y414437D01*
X314705Y421842D01*
X314705Y468071D01*
X314703Y468098D01*
X314705Y468125D01*
X314683Y468299D01*
X314665Y468472D01*
X314658Y468497D01*
X314654Y468524D01*
X314599Y468690D01*
X314547Y468857D01*
X314534Y468880D01*
X314526Y468906D01*
X314439Y469057D01*
X314355Y469211D01*
X314338Y469231D01*
X314325Y469255D01*
X314110Y469508D01*
X313674Y469944D01*
X312987Y471602D01*
X312987Y473398D01*
X313674Y475056D01*
X314944Y476326D01*
X316602Y477013D01*
X318398Y477013D01*
X320056Y476326D01*
X321326Y475056D01*
X322013Y473398D01*
X322013Y471602D01*
X321326Y469944D01*
X320890Y469508D01*
X320873Y469487D01*
X320852Y469469D01*
X320745Y469332D01*
X320635Y469196D01*
X320622Y469173D01*
X320606Y469151D01*
X320528Y468994D01*
X320446Y468840D01*
X320438Y468815D01*
X320426Y468791D01*
X320381Y468621D01*
X320331Y468455D01*
X320329Y468428D01*
X320322Y468402D01*
X320295Y468071D01*
X320295Y430195D01*
X320295Y430190D01*
X320295Y430186D01*
X320315Y429992D01*
X320335Y429794D01*
X320336Y429790D01*
X320336Y429785D01*
X320395Y429598D01*
X320453Y429409D01*
X320455Y429405D01*
X320456Y429401D01*
X320552Y429227D01*
X320645Y429055D01*
X320647Y429052D01*
X320650Y429048D01*
X320778Y428895D01*
X320902Y428746D01*
X320906Y428743D01*
X320909Y428740D01*
X321065Y428615D01*
X321216Y428494D01*
X321220Y428492D01*
X321223Y428489D01*
X321404Y428396D01*
X321573Y428308D01*
X321578Y428307D01*
X321582Y428305D01*
X321772Y428251D01*
X321960Y428197D01*
X321965Y428196D01*
X321969Y428195D01*
X322161Y428180D01*
X322362Y428164D01*
X322366Y428164D01*
X322370Y428164D01*
X322564Y428188D01*
X322761Y428211D01*
X322766Y428212D01*
X322770Y428213D01*
X322955Y428274D01*
X323144Y428336D01*
X323148Y428338D01*
X323152Y428339D01*
X323321Y428436D01*
X323495Y428534D01*
X323498Y428537D01*
X323502Y428539D01*
X323649Y428667D01*
X323799Y428797D01*
X323802Y428800D01*
X323806Y428803D01*
X323926Y428960D01*
X324046Y429115D01*
X324048Y429119D01*
X324051Y429122D01*
X324203Y429418D01*
X324674Y430556D01*
X325618Y431500D01*
X325635Y431521D01*
X325656Y431539D01*
X325763Y431676D01*
X325873Y431812D01*
X325886Y431835D01*
X325902Y431857D01*
X325980Y432014D01*
X326062Y432168D01*
X326070Y432193D01*
X326082Y432217D01*
X326127Y432387D01*
X326177Y432553D01*
X326179Y432580D01*
X326186Y432606D01*
X326213Y432937D01*
X326213Y494447D01*
X367118Y535352D01*
X367135Y535373D01*
X367156Y535390D01*
X367263Y535528D01*
X367373Y535664D01*
X367386Y535687D01*
X367402Y535709D01*
X367480Y535865D01*
X367562Y536019D01*
X367570Y536045D01*
X367582Y536069D01*
X367627Y536238D01*
X367677Y536405D01*
X367679Y536432D01*
X367686Y536458D01*
X367713Y536789D01*
X367713Y545063D01*
X367711Y545090D01*
X367713Y545117D01*
X367691Y545291D01*
X367673Y545464D01*
X367666Y545489D01*
X367662Y545516D01*
X367607Y545682D01*
X367555Y545849D01*
X367542Y545872D01*
X367534Y545898D01*
X367447Y546049D01*
X367363Y546203D01*
X367346Y546223D01*
X367333Y546247D01*
X367118Y546500D01*
X366174Y547444D01*
X365487Y549102D01*
X365487Y550898D01*
X366174Y552556D01*
X367444Y553826D01*
X369102Y554513D01*
X370898Y554513D01*
X372556Y553826D01*
X373826Y552556D01*
X374513Y550898D01*
X374513Y549102D01*
X373826Y547444D01*
X372882Y546500D01*
X372865Y546479D01*
X372844Y546461D01*
X372737Y546324D01*
X372627Y546188D01*
X372614Y546165D01*
X372598Y546143D01*
X372520Y545986D01*
X372438Y545832D01*
X372430Y545807D01*
X372418Y545783D01*
X372373Y545613D01*
X372323Y545447D01*
X372321Y545420D01*
X372314Y545394D01*
X372287Y545063D01*
X372287Y534053D01*
X331382Y493148D01*
X331365Y493127D01*
X331344Y493110D01*
X331237Y492972D01*
X331127Y492836D01*
X331114Y492813D01*
X331098Y492791D01*
X331020Y492635D01*
X330938Y492481D01*
X330930Y492455D01*
X330918Y492431D01*
X330873Y492262D01*
X330823Y492095D01*
X330821Y492068D01*
X330814Y492042D01*
X330787Y491711D01*
X330787Y432937D01*
X330789Y432910D01*
X330787Y432883D01*
X330809Y432710D01*
X330827Y432536D01*
X330834Y432510D01*
X330838Y432484D01*
X330893Y432319D01*
X330945Y432151D01*
X330958Y432128D01*
X330966Y432102D01*
X331053Y431951D01*
X331137Y431797D01*
X331154Y431777D01*
X331167Y431753D01*
X331382Y431500D01*
X331814Y431068D01*
X331827Y431057D01*
X331839Y431043D01*
X331983Y430930D01*
X332125Y430813D01*
X332141Y430805D01*
X332155Y430794D01*
X332318Y430711D01*
X332481Y430625D01*
X332498Y430619D01*
X332514Y430611D01*
X332691Y430562D01*
X332867Y430510D01*
X332884Y430508D01*
X332902Y430503D01*
X333085Y430490D01*
X333268Y430473D01*
X333285Y430475D01*
X333303Y430474D01*
X333486Y430497D01*
X333668Y430517D01*
X333685Y430522D01*
X333703Y430524D01*
X333877Y430583D01*
X334052Y430638D01*
X334067Y430647D01*
X334084Y430653D01*
X334244Y430745D01*
X334404Y430833D01*
X334418Y430845D01*
X334433Y430854D01*
X334686Y431068D01*
X335118Y431500D01*
X335135Y431521D01*
X335156Y431539D01*
X335263Y431676D01*
X335373Y431812D01*
X335386Y431835D01*
X335402Y431857D01*
X335480Y432014D01*
X335562Y432168D01*
X335570Y432193D01*
X335582Y432217D01*
X335627Y432387D01*
X335677Y432553D01*
X335679Y432580D01*
X335686Y432606D01*
X335713Y432937D01*
X335713Y478947D01*
X392618Y535852D01*
X392635Y535873D01*
X392656Y535890D01*
X392763Y536028D01*
X392873Y536164D01*
X392886Y536187D01*
X392902Y536209D01*
X392980Y536365D01*
X393062Y536519D01*
X393070Y536545D01*
X393082Y536569D01*
X393127Y536738D01*
X393177Y536905D01*
X393179Y536932D01*
X393186Y536958D01*
X393213Y537289D01*
X393213Y545063D01*
X393211Y545090D01*
X393213Y545117D01*
X393191Y545291D01*
X393173Y545464D01*
X393166Y545489D01*
X393162Y545516D01*
X393107Y545682D01*
X393055Y545849D01*
X393042Y545872D01*
X393034Y545898D01*
X392947Y546049D01*
X392863Y546203D01*
X392846Y546223D01*
X392833Y546247D01*
X392618Y546500D01*
X391674Y547444D01*
X390987Y549102D01*
X390987Y550898D01*
X391674Y552556D01*
X392944Y553826D01*
X394602Y554513D01*
X396398Y554513D01*
X398056Y553826D01*
X399326Y552556D01*
X400013Y550898D01*
X400013Y549102D01*
X399326Y547444D01*
X398382Y546500D01*
X398365Y546479D01*
X398344Y546461D01*
X398237Y546324D01*
X398127Y546188D01*
X398114Y546165D01*
X398098Y546143D01*
X398020Y545986D01*
X397938Y545832D01*
X397930Y545807D01*
X397918Y545783D01*
X397873Y545613D01*
X397823Y545447D01*
X397821Y545420D01*
X397814Y545394D01*
X397787Y545063D01*
X397787Y534553D01*
X340882Y477648D01*
X340865Y477627D01*
X340844Y477610D01*
X340737Y477472D01*
X340627Y477336D01*
X340614Y477313D01*
X340598Y477291D01*
X340520Y477135D01*
X340438Y476981D01*
X340430Y476955D01*
X340418Y476931D01*
X340373Y476762D01*
X340323Y476595D01*
X340321Y476568D01*
X340314Y476542D01*
X340287Y476211D01*
X340287Y432937D01*
X340289Y432910D01*
X340287Y432883D01*
X340309Y432710D01*
X340327Y432536D01*
X340334Y432510D01*
X340338Y432484D01*
X340393Y432319D01*
X340445Y432151D01*
X340458Y432128D01*
X340466Y432102D01*
X340553Y431951D01*
X340637Y431797D01*
X340654Y431777D01*
X340667Y431753D01*
X340882Y431500D01*
X341314Y431068D01*
X341327Y431057D01*
X341339Y431043D01*
X341483Y430930D01*
X341625Y430813D01*
X341641Y430805D01*
X341655Y430794D01*
X341818Y430711D01*
X341981Y430625D01*
X341998Y430619D01*
X342014Y430611D01*
X342191Y430562D01*
X342367Y430510D01*
X342384Y430508D01*
X342402Y430503D01*
X342585Y430490D01*
X342768Y430473D01*
X342785Y430475D01*
X342803Y430474D01*
X342986Y430497D01*
X343168Y430517D01*
X343185Y430522D01*
X343203Y430524D01*
X343377Y430583D01*
X343552Y430638D01*
X343567Y430647D01*
X343584Y430653D01*
X343744Y430745D01*
X343904Y430833D01*
X343918Y430845D01*
X343933Y430854D01*
X344186Y431068D01*
X344618Y431500D01*
X344635Y431521D01*
X344656Y431539D01*
X344763Y431676D01*
X344873Y431812D01*
X344886Y431835D01*
X344902Y431857D01*
X344980Y432014D01*
X345062Y432168D01*
X345070Y432193D01*
X345082Y432217D01*
X345127Y432387D01*
X345177Y432553D01*
X345179Y432580D01*
X345186Y432606D01*
X345213Y432937D01*
X345213Y468447D01*
X418118Y541352D01*
X418135Y541373D01*
X418156Y541390D01*
X418263Y541528D01*
X418373Y541664D01*
X418386Y541687D01*
X418402Y541709D01*
X418480Y541865D01*
X418562Y542019D01*
X418570Y542045D01*
X418582Y542069D01*
X418627Y542238D01*
X418677Y542405D01*
X418679Y542432D01*
X418686Y542458D01*
X418713Y542789D01*
X418713Y545063D01*
X418711Y545090D01*
X418713Y545117D01*
X418691Y545291D01*
X418673Y545464D01*
X418666Y545489D01*
X418662Y545516D01*
X418607Y545682D01*
X418555Y545849D01*
X418542Y545872D01*
X418534Y545898D01*
X418447Y546049D01*
X418363Y546203D01*
X418346Y546223D01*
X418333Y546247D01*
X418118Y546500D01*
X417174Y547444D01*
X416487Y549102D01*
X416487Y550898D01*
X417174Y552556D01*
X418444Y553826D01*
X420102Y554513D01*
X421898Y554513D01*
X423556Y553826D01*
X424826Y552556D01*
X425513Y550898D01*
X425513Y549102D01*
X424826Y547444D01*
X423882Y546500D01*
X423865Y546479D01*
X423844Y546461D01*
X423737Y546324D01*
X423627Y546188D01*
X423614Y546165D01*
X423598Y546143D01*
X423520Y545986D01*
X423438Y545832D01*
X423430Y545807D01*
X423418Y545783D01*
X423373Y545613D01*
X423323Y545447D01*
X423321Y545420D01*
X423314Y545394D01*
X423287Y545063D01*
X423287Y540053D01*
X350382Y467148D01*
X350365Y467127D01*
X350344Y467110D01*
X350237Y466972D01*
X350127Y466836D01*
X350114Y466813D01*
X350098Y466791D01*
X350020Y466635D01*
X349938Y466481D01*
X349930Y466455D01*
X349918Y466431D01*
X349873Y466262D01*
X349823Y466095D01*
X349821Y466068D01*
X349814Y466042D01*
X349787Y465711D01*
X349787Y432937D01*
X349789Y432910D01*
X349787Y432883D01*
X349809Y432709D01*
X349827Y432536D01*
X349834Y432511D01*
X349838Y432484D01*
X349893Y432318D01*
X349945Y432151D01*
X349958Y432128D01*
X349966Y432102D01*
X350053Y431951D01*
X350137Y431797D01*
X350154Y431777D01*
X350167Y431753D01*
X350382Y431500D01*
X350814Y431068D01*
X350828Y431057D01*
X350839Y431043D01*
X350983Y430929D01*
X351125Y430813D01*
X351141Y430805D01*
X351155Y430794D01*
X351320Y430710D01*
X351481Y430625D01*
X351498Y430620D01*
X351514Y430611D01*
X351691Y430562D01*
X351867Y430510D01*
X351885Y430508D01*
X351902Y430503D01*
X352085Y430490D01*
X352268Y430473D01*
X352286Y430475D01*
X352303Y430474D01*
X352485Y430497D01*
X352668Y430517D01*
X352685Y430522D01*
X352703Y430524D01*
X352876Y430583D01*
X353052Y430638D01*
X353068Y430647D01*
X353084Y430653D01*
X353244Y430745D01*
X353404Y430833D01*
X353418Y430845D01*
X353433Y430854D01*
X353686Y431068D01*
X354118Y431500D01*
X354135Y431521D01*
X354156Y431538D01*
X354263Y431676D01*
X354373Y431812D01*
X354386Y431835D01*
X354402Y431857D01*
X354480Y432014D01*
X354562Y432168D01*
X354570Y432193D01*
X354582Y432217D01*
X354627Y432387D01*
X354677Y432553D01*
X354679Y432580D01*
X354686Y432606D01*
X354713Y432937D01*
X354713Y457947D01*
X441811Y545045D01*
X441825Y545062D01*
X441842Y545076D01*
X441952Y545218D01*
X442066Y545356D01*
X442076Y545376D01*
X442090Y545393D01*
X442171Y545554D01*
X442254Y545712D01*
X442261Y545733D01*
X442271Y545753D01*
X442318Y545926D01*
X442369Y546098D01*
X442371Y546120D01*
X442377Y546142D01*
X442389Y546320D01*
X442406Y546499D01*
X442403Y546521D01*
X442405Y546543D01*
X442382Y546721D01*
X442362Y546899D01*
X442355Y546920D01*
X442353Y546942D01*
X442251Y547258D01*
X441487Y549102D01*
X441487Y550898D01*
X442174Y552556D01*
X443444Y553826D01*
X445102Y554513D01*
X446898Y554513D01*
X448556Y553826D01*
X449826Y552556D01*
X450513Y550898D01*
X450513Y549102D01*
X449826Y547444D01*
X448882Y546500D01*
X448865Y546479D01*
X448844Y546462D01*
X448737Y546324D01*
X448627Y546188D01*
X448614Y546165D01*
X448598Y546143D01*
X448520Y545987D01*
X448438Y545833D01*
X448430Y545807D01*
X448418Y545783D01*
X448373Y545614D01*
X448323Y545447D01*
X448321Y545420D01*
X448314Y545394D01*
X448287Y545063D01*
X448287Y545053D01*
X359882Y456648D01*
X359865Y456627D01*
X359844Y456610D01*
X359737Y456472D01*
X359627Y456336D01*
X359614Y456313D01*
X359598Y456291D01*
X359520Y456135D01*
X359438Y455981D01*
X359430Y455955D01*
X359418Y455931D01*
X359373Y455762D01*
X359323Y455595D01*
X359321Y455568D01*
X359314Y455542D01*
X359287Y455211D01*
X359287Y432937D01*
X359289Y432910D01*
X359287Y432883D01*
X359309Y432709D01*
X359327Y432536D01*
X359334Y432510D01*
X359338Y432484D01*
X359393Y432318D01*
X359445Y432151D01*
X359458Y432127D01*
X359466Y432102D01*
X359553Y431951D01*
X359637Y431797D01*
X359654Y431777D01*
X359667Y431753D01*
X359882Y431500D01*
X360314Y431068D01*
X360327Y431057D01*
X360339Y431043D01*
X360483Y430929D01*
X360625Y430813D01*
X360641Y430805D01*
X360655Y430794D01*
X360820Y430710D01*
X360981Y430625D01*
X360998Y430620D01*
X361014Y430611D01*
X361191Y430562D01*
X361367Y430510D01*
X361385Y430508D01*
X361402Y430503D01*
X361585Y430490D01*
X361768Y430473D01*
X361786Y430475D01*
X361803Y430474D01*
X361985Y430497D01*
X362168Y430517D01*
X362185Y430522D01*
X362203Y430524D01*
X362376Y430583D01*
X362552Y430638D01*
X362568Y430647D01*
X362584Y430653D01*
X362744Y430745D01*
X362904Y430833D01*
X362918Y430845D01*
X362933Y430854D01*
X363186Y431068D01*
X363618Y431500D01*
X363635Y431521D01*
X363656Y431539D01*
X363763Y431676D01*
X363873Y431812D01*
X363886Y431835D01*
X363902Y431857D01*
X363980Y432014D01*
X364062Y432168D01*
X364070Y432193D01*
X364082Y432217D01*
X364127Y432387D01*
X364177Y432553D01*
X364179Y432580D01*
X364186Y432606D01*
X364213Y432937D01*
X364213Y445947D01*
X466392Y548126D01*
X466409Y548147D01*
X466430Y548164D01*
X466537Y548302D01*
X466647Y548438D01*
X466660Y548461D01*
X466676Y548483D01*
X466754Y548639D01*
X466836Y548793D01*
X466844Y548819D01*
X466856Y548843D01*
X466901Y549012D01*
X466951Y549179D01*
X466953Y549206D01*
X466960Y549232D01*
X466987Y549563D01*
X466987Y550898D01*
X467674Y552556D01*
X468944Y553826D01*
X470602Y554513D01*
X472398Y554513D01*
X474056Y553826D01*
X475326Y552556D01*
X476013Y550898D01*
X476013Y549102D01*
X475326Y547444D01*
X474056Y546174D01*
X472398Y545487D01*
X471063Y545487D01*
X471036Y545485D01*
X471009Y545487D01*
X470835Y545465D01*
X470662Y545447D01*
X470636Y545440D01*
X470610Y545436D01*
X470444Y545381D01*
X470277Y545329D01*
X470253Y545316D01*
X470228Y545308D01*
X470076Y545221D01*
X469923Y545137D01*
X469903Y545120D01*
X469879Y545107D01*
X469626Y544892D01*
X369382Y444648D01*
X369365Y444627D01*
X369344Y444610D01*
X369237Y444472D01*
X369127Y444336D01*
X369114Y444313D01*
X369098Y444291D01*
X369020Y444135D01*
X368938Y443981D01*
X368930Y443955D01*
X368918Y443931D01*
X368873Y443762D01*
X368823Y443595D01*
X368821Y443568D01*
X368814Y443542D01*
X368787Y443211D01*
X368787Y432937D01*
X368789Y432910D01*
X368787Y432883D01*
X368809Y432709D01*
X368827Y432536D01*
X368834Y432511D01*
X368838Y432484D01*
X368893Y432318D01*
X368945Y432151D01*
X368958Y432128D01*
X368966Y432102D01*
X369053Y431951D01*
X369137Y431797D01*
X369154Y431777D01*
X369167Y431753D01*
X369382Y431500D01*
X370326Y430556D01*
X371013Y428898D01*
X371013Y427102D01*
X370326Y425444D01*
X369056Y424174D01*
X367398Y423487D01*
X365602Y423487D01*
X363944Y424174D01*
X363186Y424932D01*
X363172Y424943D01*
X363161Y424957D01*
X363017Y425070D01*
X362875Y425187D01*
X362859Y425195D01*
X362845Y425206D01*
X362681Y425289D01*
X362519Y425375D01*
X362502Y425380D01*
X362486Y425389D01*
X362309Y425438D01*
X362133Y425490D01*
X362115Y425492D01*
X362098Y425497D01*
X361915Y425510D01*
X361732Y425527D01*
X361714Y425525D01*
X361697Y425526D01*
X361515Y425503D01*
X361332Y425483D01*
X361315Y425478D01*
X361297Y425476D01*
X361124Y425417D01*
X360948Y425362D01*
X360932Y425353D01*
X360916Y425347D01*
X360756Y425256D01*
X360596Y425167D01*
X360582Y425155D01*
X360567Y425146D01*
X360314Y424932D01*
X359556Y424174D01*
X357898Y423487D01*
X356102Y423487D01*
X354444Y424174D01*
X353686Y424932D01*
X353673Y424943D01*
X353661Y424957D01*
X353517Y425070D01*
X353375Y425187D01*
X353359Y425195D01*
X353345Y425206D01*
X353181Y425289D01*
X353019Y425375D01*
X353002Y425380D01*
X352986Y425389D01*
X352809Y425438D01*
X352633Y425490D01*
X352615Y425492D01*
X352598Y425497D01*
X352415Y425510D01*
X352232Y425527D01*
X352214Y425525D01*
X352197Y425526D01*
X352015Y425503D01*
X351832Y425483D01*
X351815Y425478D01*
X351797Y425476D01*
X351624Y425417D01*
X351448Y425362D01*
X351432Y425353D01*
X351416Y425347D01*
X351257Y425256D01*
X351096Y425167D01*
X351082Y425155D01*
X351067Y425146D01*
X350814Y424932D01*
X350056Y424174D01*
X348398Y423487D01*
X346602Y423487D01*
X344944Y424174D01*
X344186Y424932D01*
X344172Y424943D01*
X344161Y424957D01*
X344017Y425070D01*
X343875Y425187D01*
X343859Y425195D01*
X343845Y425206D01*
X343681Y425289D01*
X343519Y425375D01*
X343502Y425380D01*
X343486Y425389D01*
X343309Y425438D01*
X343133Y425490D01*
X343115Y425492D01*
X343098Y425497D01*
X342915Y425510D01*
X342732Y425527D01*
X342714Y425525D01*
X342697Y425526D01*
X342515Y425503D01*
X342332Y425483D01*
X342315Y425478D01*
X342297Y425476D01*
X342124Y425417D01*
X341948Y425362D01*
X341932Y425353D01*
X341916Y425347D01*
X341756Y425256D01*
X341596Y425167D01*
X341582Y425155D01*
X341567Y425146D01*
X341314Y424932D01*
X340556Y424174D01*
X338898Y423487D01*
X337102Y423487D01*
X335444Y424174D01*
X334686Y424932D01*
X334672Y424943D01*
X334661Y424957D01*
X334517Y425070D01*
X334375Y425187D01*
X334359Y425195D01*
X334345Y425206D01*
X334181Y425289D01*
X334019Y425375D01*
X334002Y425380D01*
X333986Y425389D01*
X333809Y425438D01*
X333633Y425490D01*
X333615Y425492D01*
X333598Y425497D01*
X333415Y425510D01*
X333232Y425527D01*
X333214Y425525D01*
X333197Y425526D01*
X333015Y425503D01*
X332832Y425483D01*
X332815Y425478D01*
X332797Y425476D01*
X332624Y425417D01*
X332448Y425362D01*
X332432Y425353D01*
X332416Y425347D01*
X332256Y425256D01*
X332096Y425167D01*
X332082Y425155D01*
X332067Y425146D01*
X331814Y424932D01*
X331056Y424174D01*
X329398Y423487D01*
X327602Y423487D01*
X325706Y424273D01*
X325702Y424274D01*
X325698Y424276D01*
X325508Y424333D01*
X325321Y424389D01*
X325316Y424390D01*
X325312Y424391D01*
X325114Y424409D01*
X324920Y424427D01*
X324916Y424427D01*
X324911Y424427D01*
X324713Y424406D01*
X324520Y424386D01*
X324515Y424384D01*
X324511Y424384D01*
X324323Y424324D01*
X324135Y424266D01*
X324131Y424264D01*
X324127Y424262D01*
X323954Y424166D01*
X323782Y424072D01*
X323779Y424070D01*
X323775Y424067D01*
X323625Y423940D01*
X323474Y423813D01*
X323471Y423810D01*
X323468Y423807D01*
X323346Y423653D01*
X323223Y423499D01*
X323221Y423495D01*
X323218Y423491D01*
X323128Y423314D01*
X323039Y423140D01*
X323038Y423136D01*
X323036Y423132D01*
X322981Y422936D01*
X322929Y422753D01*
X322929Y422749D01*
X322928Y422744D01*
X322913Y422540D01*
X322898Y422352D01*
X322899Y422347D01*
X322898Y422343D01*
X322924Y422139D01*
X322947Y421952D01*
X322948Y421948D01*
X322949Y421943D01*
X323013Y421752D01*
X323073Y421570D01*
X323076Y421566D01*
X323077Y421562D01*
X323174Y421394D01*
X323273Y421220D01*
X323276Y421217D01*
X323278Y421213D01*
X323493Y420960D01*
X326063Y418390D01*
X326083Y418373D01*
X326101Y418352D01*
X326239Y418246D01*
X326374Y418135D01*
X326398Y418122D01*
X326419Y418106D01*
X326575Y418028D01*
X326730Y417946D01*
X326756Y417938D01*
X326779Y417926D01*
X326948Y417881D01*
X327116Y417831D01*
X327142Y417829D01*
X327168Y417822D01*
X327499Y417795D01*
X347258Y417795D01*
X348975Y416077D01*
X349001Y415999D01*
X349053Y415832D01*
X349066Y415808D01*
X349074Y415783D01*
X349161Y415631D01*
X349245Y415478D01*
X349262Y415457D01*
X349275Y415434D01*
X349490Y415181D01*
X355532Y409139D01*
X355546Y409127D01*
X355557Y409114D01*
X355702Y409000D01*
X355843Y408883D01*
X355859Y408875D01*
X355873Y408864D01*
X356037Y408781D01*
X356199Y408695D01*
X356216Y408690D01*
X356232Y408682D01*
X356409Y408632D01*
X356585Y408580D01*
X356603Y408578D01*
X356620Y408574D01*
X356803Y408560D01*
X356986Y408544D01*
X357004Y408546D01*
X357022Y408544D01*
X357203Y408567D01*
X357386Y408587D01*
X357403Y408592D01*
X357421Y408595D01*
X357595Y408653D01*
X357770Y408709D01*
X357786Y408717D01*
X357803Y408723D01*
X357962Y408815D01*
X358123Y408903D01*
X358136Y408915D01*
X358152Y408924D01*
X358405Y409139D01*
X358553Y409287D01*
X360211Y409287D01*
X360238Y409289D01*
X360265Y409287D01*
X360439Y409309D01*
X360612Y409327D01*
X360638Y409334D01*
X360664Y409338D01*
X360830Y409393D01*
X360997Y409445D01*
X361021Y409458D01*
X361046Y409466D01*
X361198Y409553D01*
X361351Y409637D01*
X361371Y409654D01*
X361395Y409667D01*
X361648Y409882D01*
X375118Y423352D01*
X375135Y423373D01*
X375156Y423390D01*
X375263Y423528D01*
X375373Y423664D01*
X375386Y423687D01*
X375402Y423709D01*
X375480Y423865D01*
X375562Y424019D01*
X375570Y424045D01*
X375582Y424069D01*
X375627Y424238D01*
X375677Y424405D01*
X375679Y424432D01*
X375686Y424458D01*
X375713Y424789D01*
X375713Y431947D01*
X377648Y433881D01*
X377648Y433882D01*
X491892Y548126D01*
X491909Y548147D01*
X491930Y548164D01*
X492037Y548302D01*
X492147Y548438D01*
X492160Y548461D01*
X492176Y548483D01*
X492254Y548639D01*
X492336Y548793D01*
X492344Y548819D01*
X492356Y548843D01*
X492401Y549012D01*
X492451Y549179D01*
X492453Y549206D01*
X492460Y549232D01*
X492487Y549563D01*
X492487Y550898D01*
X493174Y552556D01*
X494444Y553826D01*
X496102Y554513D01*
X497898Y554513D01*
X499556Y553826D01*
X500826Y552556D01*
X501513Y550898D01*
X501513Y549102D01*
X500826Y547444D01*
X499556Y546174D01*
X497898Y545487D01*
X496563Y545487D01*
X496536Y545485D01*
X496509Y545487D01*
X496335Y545465D01*
X496162Y545447D01*
X496136Y545440D01*
X496110Y545436D01*
X495944Y545381D01*
X495777Y545329D01*
X495753Y545316D01*
X495728Y545308D01*
X495576Y545221D01*
X495423Y545137D01*
X495403Y545120D01*
X495379Y545107D01*
X495126Y544892D01*
X380882Y430648D01*
X380865Y430627D01*
X380844Y430610D01*
X380737Y430471D01*
X380627Y430336D01*
X380614Y430313D01*
X380598Y430291D01*
X380520Y430135D01*
X380438Y429981D01*
X380430Y429955D01*
X380418Y429931D01*
X380373Y429762D01*
X380323Y429595D01*
X380321Y429568D01*
X380314Y429542D01*
X380287Y429211D01*
X380287Y422053D01*
X362947Y404713D01*
X361289Y404713D01*
X361262Y404711D01*
X361235Y404713D01*
X361062Y404691D01*
X360888Y404673D01*
X360862Y404666D01*
X360836Y404662D01*
X360670Y404607D01*
X360503Y404555D01*
X360480Y404543D01*
X360454Y404534D01*
X360303Y404447D01*
X360149Y404363D01*
X360129Y404346D01*
X360105Y404333D01*
X359852Y404118D01*
X359688Y403954D01*
X359683Y403947D01*
X359676Y403942D01*
X359555Y403792D01*
X359433Y403643D01*
X359429Y403635D01*
X359423Y403628D01*
X359335Y403458D01*
X359306Y403403D01*
X359254Y403494D01*
X359165Y403654D01*
X359153Y403668D01*
X359144Y403683D01*
X358930Y403936D01*
X358405Y404461D01*
X358391Y404473D01*
X358379Y404486D01*
X358235Y404600D01*
X358093Y404717D01*
X358077Y404725D01*
X358063Y404736D01*
X357899Y404820D01*
X357737Y404905D01*
X357720Y404910D01*
X357704Y404918D01*
X357527Y404968D01*
X357351Y405020D01*
X357334Y405022D01*
X357316Y405026D01*
X357133Y405040D01*
X356951Y405056D01*
X356933Y405054D01*
X356915Y405056D01*
X356734Y405033D01*
X356550Y405013D01*
X356533Y405008D01*
X356515Y405005D01*
X356342Y404947D01*
X356166Y404891D01*
X356151Y404883D01*
X356134Y404877D01*
X355974Y404785D01*
X355814Y404697D01*
X355801Y404685D01*
X355785Y404676D01*
X355532Y404461D01*
X355346Y404275D01*
X353254Y404275D01*
X345919Y411610D01*
X345898Y411627D01*
X345881Y411648D01*
X345743Y411755D01*
X345608Y411865D01*
X345584Y411878D01*
X345563Y411894D01*
X345406Y411972D01*
X345252Y412054D01*
X345226Y412062D01*
X345202Y412074D01*
X345033Y412119D01*
X344866Y412169D01*
X344839Y412171D01*
X344814Y412178D01*
X344483Y412205D01*
X343433Y412205D01*
X343424Y412204D01*
X343415Y412205D01*
X343223Y412184D01*
X343032Y412165D01*
X343023Y412163D01*
X343014Y412162D01*
X342832Y412104D01*
X342647Y412047D01*
X342639Y412043D01*
X342631Y412040D01*
X342462Y411947D01*
X342293Y411855D01*
X342286Y411850D01*
X342278Y411845D01*
X342130Y411720D01*
X341984Y411598D01*
X341978Y411591D01*
X341971Y411585D01*
X341852Y411434D01*
X341731Y411284D01*
X341727Y411276D01*
X341722Y411269D01*
X341635Y411098D01*
X341546Y410927D01*
X341543Y410918D01*
X341539Y410910D01*
X341488Y410724D01*
X341434Y410540D01*
X341434Y410531D01*
X341431Y410522D01*
X341417Y410330D01*
X341402Y410138D01*
X341403Y410130D01*
X341402Y410121D01*
X341426Y409928D01*
X341448Y409739D01*
X341451Y409730D01*
X341452Y409721D01*
X341514Y409538D01*
X341573Y409356D01*
X341578Y409348D01*
X341581Y409340D01*
X341676Y409174D01*
X341771Y409005D01*
X341777Y408998D01*
X341782Y408991D01*
X341996Y408738D01*
X342987Y407747D01*
X342987Y405853D01*
X341647Y404513D01*
X339572Y404513D01*
X339481Y404562D01*
X339455Y404570D01*
X339431Y404582D01*
X339262Y404627D01*
X339095Y404677D01*
X339068Y404679D01*
X339042Y404686D01*
X338711Y404713D01*
X266937Y404713D01*
X266910Y404711D01*
X266883Y404713D01*
X266709Y404691D01*
X266536Y404673D01*
X266511Y404666D01*
X266484Y404662D01*
X266318Y404607D01*
X266151Y404555D01*
X266128Y404542D01*
X266102Y404534D01*
X265951Y404447D01*
X265797Y404363D01*
X265777Y404346D01*
X265753Y404333D01*
X265500Y404118D01*
X265056Y403674D01*
X263398Y402987D01*
X261602Y402987D01*
G37*
%LPD*%
%LPC*%
G36*
X332102Y135487D02*
X332102Y135487D01*
X330444Y136174D01*
X329500Y137118D01*
X329479Y137135D01*
X329461Y137156D01*
X329324Y137263D01*
X329188Y137373D01*
X329165Y137386D01*
X329143Y137402D01*
X328986Y137480D01*
X328832Y137562D01*
X328807Y137570D01*
X328783Y137582D01*
X328613Y137627D01*
X328447Y137677D01*
X328420Y137679D01*
X328394Y137686D01*
X328063Y137713D01*
X208053Y137713D01*
X195974Y149792D01*
X195953Y149809D01*
X195936Y149830D01*
X195798Y149937D01*
X195662Y150047D01*
X195639Y150060D01*
X195617Y150076D01*
X195461Y150154D01*
X195307Y150236D01*
X195281Y150244D01*
X195257Y150256D01*
X195088Y150301D01*
X194921Y150351D01*
X194894Y150353D01*
X194868Y150360D01*
X194537Y150387D01*
X182445Y150387D01*
X181998Y150834D01*
X181998Y153182D01*
X181996Y153200D01*
X181998Y153218D01*
X181977Y153400D01*
X181958Y153583D01*
X181953Y153600D01*
X181951Y153617D01*
X181894Y153792D01*
X181840Y153968D01*
X181832Y153983D01*
X181826Y154000D01*
X181736Y154160D01*
X181648Y154322D01*
X181637Y154335D01*
X181628Y154351D01*
X181508Y154490D01*
X181391Y154631D01*
X181377Y154642D01*
X181365Y154656D01*
X181220Y154768D01*
X181077Y154883D01*
X181061Y154891D01*
X181047Y154902D01*
X180882Y154984D01*
X180720Y155069D01*
X180703Y155074D01*
X180687Y155082D01*
X180508Y155129D01*
X180333Y155180D01*
X180315Y155182D01*
X180298Y155186D01*
X179967Y155213D01*
X142583Y155213D01*
X142557Y155211D01*
X142530Y155213D01*
X142356Y155191D01*
X142182Y155173D01*
X142157Y155166D01*
X142130Y155162D01*
X141965Y155107D01*
X141798Y155055D01*
X141774Y155042D01*
X141749Y155034D01*
X141597Y154947D01*
X141444Y154863D01*
X141423Y154846D01*
X141400Y154833D01*
X141147Y154618D01*
X140415Y153886D01*
X138848Y153237D01*
X137152Y153237D01*
X135585Y153886D01*
X134386Y155085D01*
X133737Y156652D01*
X133737Y158348D01*
X134386Y159915D01*
X135585Y161114D01*
X137152Y161763D01*
X138848Y161763D01*
X140415Y161114D01*
X141147Y160382D01*
X141167Y160365D01*
X141185Y160344D01*
X141323Y160237D01*
X141458Y160127D01*
X141482Y160114D01*
X141503Y160098D01*
X141660Y160020D01*
X141814Y159938D01*
X141839Y159930D01*
X141864Y159918D01*
X142033Y159873D01*
X142200Y159823D01*
X142226Y159821D01*
X142252Y159814D01*
X142583Y159787D01*
X179967Y159787D01*
X179985Y159789D01*
X180003Y159787D01*
X180185Y159808D01*
X180368Y159827D01*
X180385Y159832D01*
X180402Y159834D01*
X180577Y159891D01*
X180753Y159945D01*
X180768Y159953D01*
X180785Y159959D01*
X180945Y160049D01*
X181107Y160137D01*
X181120Y160148D01*
X181136Y160157D01*
X181275Y160277D01*
X181416Y160394D01*
X181427Y160408D01*
X181441Y160420D01*
X181553Y160565D01*
X181668Y160708D01*
X181676Y160724D01*
X181687Y160738D01*
X181769Y160903D01*
X181854Y161065D01*
X181859Y161082D01*
X181867Y161098D01*
X181914Y161277D01*
X181965Y161452D01*
X181967Y161470D01*
X181971Y161487D01*
X181998Y161818D01*
X181998Y164166D01*
X182445Y164613D01*
X197555Y164613D01*
X198002Y164166D01*
X198002Y155074D01*
X198004Y155047D01*
X198002Y155020D01*
X198024Y154846D01*
X198042Y154673D01*
X198049Y154647D01*
X198053Y154621D01*
X198108Y154455D01*
X198160Y154288D01*
X198173Y154264D01*
X198181Y154239D01*
X198268Y154087D01*
X198352Y153934D01*
X198369Y153914D01*
X198382Y153890D01*
X198597Y153637D01*
X209352Y142882D01*
X209373Y142865D01*
X209390Y142844D01*
X209528Y142737D01*
X209664Y142627D01*
X209687Y142614D01*
X209709Y142598D01*
X209865Y142520D01*
X210019Y142438D01*
X210045Y142430D01*
X210069Y142418D01*
X210238Y142373D01*
X210405Y142323D01*
X210432Y142321D01*
X210458Y142314D01*
X210789Y142287D01*
X328063Y142287D01*
X328090Y142289D01*
X328117Y142287D01*
X328291Y142309D01*
X328464Y142327D01*
X328489Y142334D01*
X328516Y142338D01*
X328682Y142393D01*
X328849Y142445D01*
X328872Y142458D01*
X328898Y142466D01*
X329049Y142553D01*
X329203Y142637D01*
X329223Y142654D01*
X329247Y142667D01*
X329500Y142882D01*
X330444Y143826D01*
X332102Y144513D01*
X333469Y144513D01*
X333491Y144515D01*
X333513Y144513D01*
X333692Y144535D01*
X333870Y144553D01*
X333891Y144559D01*
X333913Y144562D01*
X334084Y144618D01*
X334255Y144671D01*
X334274Y144681D01*
X334295Y144688D01*
X334451Y144777D01*
X334609Y144863D01*
X334626Y144877D01*
X334645Y144888D01*
X334899Y145101D01*
X363886Y173827D01*
X363906Y173851D01*
X363930Y173872D01*
X364034Y174006D01*
X364142Y174137D01*
X364157Y174165D01*
X364176Y174190D01*
X364252Y174342D01*
X364333Y174492D01*
X364342Y174522D01*
X364356Y174550D01*
X364400Y174715D01*
X364449Y174878D01*
X364452Y174909D01*
X364460Y174939D01*
X364487Y175270D01*
X364487Y175898D01*
X365174Y177556D01*
X366444Y178826D01*
X368102Y179513D01*
X369898Y179513D01*
X371556Y178826D01*
X372826Y177556D01*
X373513Y175898D01*
X373513Y174102D01*
X372826Y172444D01*
X371556Y171174D01*
X369898Y170487D01*
X367849Y170487D01*
X367827Y170485D01*
X367805Y170487D01*
X367626Y170465D01*
X367448Y170447D01*
X367427Y170441D01*
X367405Y170438D01*
X367234Y170382D01*
X367064Y170329D01*
X367044Y170319D01*
X367023Y170312D01*
X366867Y170223D01*
X366710Y170137D01*
X366693Y170123D01*
X366673Y170112D01*
X366419Y169899D01*
X361282Y164807D01*
X361276Y164800D01*
X361269Y164795D01*
X361148Y164646D01*
X361025Y164497D01*
X361021Y164489D01*
X361015Y164482D01*
X360925Y164311D01*
X360835Y164142D01*
X360832Y164134D01*
X360828Y164125D01*
X360774Y163941D01*
X360718Y163757D01*
X360717Y163748D01*
X360715Y163739D01*
X360698Y163546D01*
X360680Y163356D01*
X360681Y163347D01*
X360680Y163338D01*
X360702Y163146D01*
X360722Y162956D01*
X360724Y162947D01*
X360725Y162938D01*
X360784Y162754D01*
X360841Y162571D01*
X360846Y162563D01*
X360849Y162554D01*
X360942Y162387D01*
X361035Y162218D01*
X361041Y162211D01*
X361045Y162203D01*
X361170Y162057D01*
X361294Y161910D01*
X361301Y161904D01*
X361307Y161897D01*
X361459Y161778D01*
X361609Y161659D01*
X361617Y161655D01*
X361624Y161649D01*
X361796Y161563D01*
X361967Y161475D01*
X361976Y161472D01*
X361984Y161468D01*
X362168Y161418D01*
X362354Y161365D01*
X362363Y161364D01*
X362372Y161362D01*
X362562Y161349D01*
X362755Y161334D01*
X362765Y161335D01*
X362774Y161334D01*
X362962Y161359D01*
X363155Y161382D01*
X363164Y161385D01*
X363173Y161386D01*
X363489Y161488D01*
X364152Y161763D01*
X365848Y161763D01*
X367415Y161114D01*
X368147Y160382D01*
X368167Y160365D01*
X368185Y160344D01*
X368323Y160237D01*
X368458Y160127D01*
X368482Y160114D01*
X368503Y160098D01*
X368660Y160020D01*
X368814Y159938D01*
X368839Y159930D01*
X368864Y159918D01*
X369033Y159873D01*
X369200Y159823D01*
X369226Y159821D01*
X369252Y159814D01*
X369583Y159787D01*
X427467Y159787D01*
X427485Y159789D01*
X427503Y159787D01*
X427685Y159808D01*
X427868Y159827D01*
X427885Y159832D01*
X427902Y159834D01*
X428077Y159891D01*
X428253Y159945D01*
X428268Y159953D01*
X428285Y159959D01*
X428445Y160049D01*
X428607Y160137D01*
X428620Y160148D01*
X428636Y160157D01*
X428775Y160277D01*
X428916Y160394D01*
X428927Y160408D01*
X428941Y160420D01*
X429053Y160565D01*
X429168Y160708D01*
X429176Y160724D01*
X429187Y160738D01*
X429269Y160903D01*
X429354Y161065D01*
X429359Y161082D01*
X429367Y161098D01*
X429414Y161277D01*
X429465Y161452D01*
X429467Y161470D01*
X429471Y161487D01*
X429498Y161818D01*
X429498Y164166D01*
X429945Y164613D01*
X445055Y164613D01*
X445502Y164166D01*
X445502Y161818D01*
X445504Y161800D01*
X445502Y161782D01*
X445523Y161600D01*
X445542Y161417D01*
X445547Y161400D01*
X445549Y161383D01*
X445606Y161208D01*
X445660Y161032D01*
X445668Y161017D01*
X445674Y161000D01*
X445765Y160839D01*
X445852Y160678D01*
X445863Y160665D01*
X445872Y160649D01*
X445992Y160510D01*
X446109Y160369D01*
X446123Y160358D01*
X446135Y160344D01*
X446280Y160232D01*
X446423Y160117D01*
X446439Y160109D01*
X446453Y160098D01*
X446618Y160016D01*
X446780Y159931D01*
X446797Y159926D01*
X446813Y159918D01*
X446992Y159871D01*
X447167Y159820D01*
X447185Y159818D01*
X447202Y159814D01*
X447533Y159787D01*
X495063Y159787D01*
X495090Y159789D01*
X495117Y159787D01*
X495291Y159809D01*
X495464Y159827D01*
X495489Y159834D01*
X495516Y159838D01*
X495682Y159893D01*
X495849Y159945D01*
X495872Y159958D01*
X495898Y159966D01*
X496049Y160053D01*
X496203Y160137D01*
X496223Y160154D01*
X496247Y160167D01*
X496500Y160382D01*
X497444Y161326D01*
X499102Y162013D01*
X500898Y162013D01*
X502556Y161326D01*
X503826Y160056D01*
X504513Y158398D01*
X504513Y156602D01*
X503826Y154944D01*
X502556Y153674D01*
X500898Y152987D01*
X499102Y152987D01*
X497444Y153674D01*
X496500Y154618D01*
X496479Y154635D01*
X496461Y154656D01*
X496324Y154763D01*
X496188Y154873D01*
X496165Y154886D01*
X496143Y154902D01*
X495986Y154980D01*
X495832Y155062D01*
X495807Y155070D01*
X495783Y155082D01*
X495613Y155127D01*
X495447Y155177D01*
X495420Y155179D01*
X495394Y155186D01*
X495063Y155213D01*
X447533Y155213D01*
X447515Y155211D01*
X447497Y155213D01*
X447315Y155192D01*
X447132Y155173D01*
X447115Y155168D01*
X447098Y155166D01*
X446923Y155109D01*
X446747Y155055D01*
X446732Y155047D01*
X446715Y155041D01*
X446555Y154951D01*
X446393Y154863D01*
X446380Y154852D01*
X446364Y154843D01*
X446225Y154723D01*
X446084Y154606D01*
X446073Y154592D01*
X446059Y154580D01*
X445947Y154435D01*
X445832Y154292D01*
X445824Y154276D01*
X445813Y154262D01*
X445731Y154097D01*
X445646Y153935D01*
X445641Y153918D01*
X445633Y153902D01*
X445586Y153723D01*
X445535Y153548D01*
X445533Y153530D01*
X445529Y153513D01*
X445502Y153182D01*
X445502Y150834D01*
X445055Y150387D01*
X429945Y150387D01*
X429498Y150834D01*
X429498Y153182D01*
X429496Y153200D01*
X429498Y153218D01*
X429477Y153400D01*
X429458Y153583D01*
X429453Y153600D01*
X429451Y153617D01*
X429394Y153792D01*
X429340Y153968D01*
X429332Y153983D01*
X429326Y154000D01*
X429236Y154160D01*
X429148Y154322D01*
X429137Y154335D01*
X429128Y154351D01*
X429008Y154490D01*
X428891Y154631D01*
X428877Y154642D01*
X428865Y154656D01*
X428720Y154768D01*
X428577Y154883D01*
X428561Y154891D01*
X428547Y154902D01*
X428382Y154984D01*
X428220Y155069D01*
X428203Y155074D01*
X428187Y155082D01*
X428008Y155129D01*
X427833Y155180D01*
X427815Y155182D01*
X427798Y155186D01*
X427467Y155213D01*
X369583Y155213D01*
X369557Y155211D01*
X369530Y155213D01*
X369356Y155191D01*
X369182Y155173D01*
X369157Y155166D01*
X369130Y155162D01*
X368965Y155107D01*
X368798Y155055D01*
X368774Y155042D01*
X368749Y155034D01*
X368597Y154947D01*
X368444Y154863D01*
X368423Y154846D01*
X368400Y154833D01*
X368147Y154618D01*
X367415Y153886D01*
X365848Y153237D01*
X364152Y153237D01*
X362585Y153886D01*
X361386Y155085D01*
X360737Y156652D01*
X360737Y158348D01*
X361035Y159066D01*
X361107Y159304D01*
X361151Y159451D01*
X361171Y159655D01*
X361189Y159852D01*
X361148Y160253D01*
X361082Y160462D01*
X361028Y160637D01*
X361015Y160661D01*
X360835Y160990D01*
X360743Y161098D01*
X360576Y161298D01*
X360575Y161298D01*
X360387Y161448D01*
X360261Y161549D01*
X360103Y161630D01*
X359903Y161733D01*
X359902Y161733D01*
X359837Y161752D01*
X359515Y161843D01*
X359455Y161848D01*
X359114Y161874D01*
X359080Y161870D01*
X358714Y161825D01*
X358584Y161782D01*
X358332Y161699D01*
X358232Y161642D01*
X357982Y161500D01*
X357982Y161499D01*
X357981Y161499D01*
X357728Y161286D01*
X338114Y141849D01*
X338094Y141825D01*
X338070Y141804D01*
X337966Y141669D01*
X337858Y141538D01*
X337843Y141511D01*
X337824Y141486D01*
X337748Y141333D01*
X337667Y141184D01*
X337658Y141154D01*
X337644Y141125D01*
X337600Y140961D01*
X337551Y140798D01*
X337548Y140767D01*
X337540Y140737D01*
X337513Y140406D01*
X337513Y139102D01*
X336826Y137444D01*
X335556Y136174D01*
X334991Y135940D01*
X333898Y135487D01*
X332102Y135487D01*
G37*
%LPD*%
%LPC*%
G36*
X344102Y610487D02*
X344102Y610487D01*
X342444Y611174D01*
X341174Y612444D01*
X340487Y614102D01*
X340487Y615898D01*
X341174Y617556D01*
X342444Y618826D01*
X344102Y619513D01*
X345437Y619513D01*
X345464Y619515D01*
X345491Y619513D01*
X345665Y619535D01*
X345838Y619553D01*
X345864Y619560D01*
X345890Y619564D01*
X346056Y619619D01*
X346223Y619671D01*
X346247Y619684D01*
X346272Y619692D01*
X346423Y619779D01*
X346577Y619863D01*
X346597Y619880D01*
X346621Y619893D01*
X346874Y620108D01*
X349053Y622287D01*
X356617Y622287D01*
X356622Y622287D01*
X356626Y622287D01*
X356823Y622307D01*
X357018Y622327D01*
X357022Y622328D01*
X357027Y622328D01*
X357215Y622387D01*
X357403Y622445D01*
X357407Y622447D01*
X357411Y622448D01*
X357584Y622543D01*
X357757Y622637D01*
X357760Y622639D01*
X357764Y622642D01*
X357917Y622770D01*
X358066Y622894D01*
X358069Y622898D01*
X358073Y622901D01*
X358196Y623056D01*
X358319Y623208D01*
X358321Y623212D01*
X358323Y623216D01*
X358414Y623392D01*
X358504Y623565D01*
X358505Y623570D01*
X358507Y623574D01*
X358561Y623763D01*
X358615Y623952D01*
X358616Y623957D01*
X358617Y623961D01*
X358632Y624155D01*
X358648Y624354D01*
X358648Y624358D01*
X358648Y624363D01*
X358625Y624556D01*
X358601Y624753D01*
X358600Y624758D01*
X358599Y624762D01*
X358538Y624948D01*
X358477Y625136D01*
X358474Y625140D01*
X358473Y625144D01*
X358376Y625315D01*
X358279Y625487D01*
X358276Y625490D01*
X358273Y625494D01*
X358143Y625643D01*
X358015Y625791D01*
X358012Y625794D01*
X358009Y625798D01*
X357850Y625920D01*
X357697Y626038D01*
X357693Y626040D01*
X357690Y626043D01*
X357454Y626164D01*
X356174Y627444D01*
X355487Y629102D01*
X355487Y630898D01*
X356174Y632556D01*
X357118Y633500D01*
X357135Y633521D01*
X357156Y633538D01*
X357263Y633676D01*
X357373Y633812D01*
X357386Y633835D01*
X357402Y633857D01*
X357480Y634013D01*
X357562Y634167D01*
X357570Y634193D01*
X357582Y634217D01*
X357627Y634386D01*
X357677Y634553D01*
X357679Y634580D01*
X357686Y634606D01*
X357713Y634937D01*
X357713Y640682D01*
X357711Y640700D01*
X357713Y640718D01*
X357692Y640900D01*
X357673Y641083D01*
X357668Y641100D01*
X357666Y641117D01*
X357609Y641292D01*
X357555Y641468D01*
X357547Y641483D01*
X357541Y641500D01*
X357451Y641660D01*
X357363Y641822D01*
X357352Y641835D01*
X357343Y641851D01*
X357223Y641990D01*
X357106Y642131D01*
X357092Y642142D01*
X357080Y642156D01*
X356935Y642268D01*
X356792Y642383D01*
X356776Y642391D01*
X356762Y642402D01*
X356597Y642484D01*
X356435Y642569D01*
X356418Y642574D01*
X356402Y642582D01*
X356223Y642629D01*
X356048Y642680D01*
X356030Y642682D01*
X356013Y642686D01*
X355682Y642713D01*
X349937Y642713D01*
X349910Y642711D01*
X349883Y642713D01*
X349709Y642691D01*
X349536Y642673D01*
X349510Y642666D01*
X349484Y642662D01*
X349318Y642606D01*
X349151Y642555D01*
X349127Y642542D01*
X349102Y642534D01*
X348951Y642447D01*
X348797Y642363D01*
X348776Y642346D01*
X348753Y642333D01*
X348500Y642118D01*
X347556Y641174D01*
X345898Y640487D01*
X344102Y640487D01*
X342444Y641174D01*
X341174Y642444D01*
X340487Y644102D01*
X340487Y645898D01*
X341174Y647556D01*
X342444Y648826D01*
X344102Y649513D01*
X345898Y649513D01*
X347556Y648826D01*
X348500Y647882D01*
X348521Y647865D01*
X348538Y647844D01*
X348676Y647737D01*
X348812Y647627D01*
X348835Y647614D01*
X348857Y647598D01*
X349013Y647520D01*
X349167Y647438D01*
X349193Y647430D01*
X349217Y647418D01*
X349386Y647373D01*
X349553Y647323D01*
X349580Y647321D01*
X349606Y647314D01*
X349937Y647287D01*
X475947Y647287D01*
X487287Y635947D01*
X487287Y634937D01*
X487289Y634910D01*
X487287Y634883D01*
X487309Y634709D01*
X487327Y634536D01*
X487334Y634511D01*
X487338Y634484D01*
X487393Y634318D01*
X487445Y634151D01*
X487458Y634128D01*
X487466Y634102D01*
X487553Y633951D01*
X487637Y633797D01*
X487654Y633777D01*
X487667Y633753D01*
X487882Y633500D01*
X488826Y632556D01*
X489513Y630898D01*
X489513Y629102D01*
X488826Y627444D01*
X487556Y626174D01*
X485898Y625487D01*
X484102Y625487D01*
X482444Y626174D01*
X481174Y627444D01*
X480487Y629102D01*
X480487Y630898D01*
X481174Y632556D01*
X481256Y632638D01*
X481267Y632651D01*
X481281Y632663D01*
X481394Y632807D01*
X481511Y632949D01*
X481519Y632965D01*
X481530Y632979D01*
X481614Y633143D01*
X481699Y633305D01*
X481704Y633322D01*
X481713Y633338D01*
X481762Y633516D01*
X481814Y633691D01*
X481816Y633708D01*
X481821Y633726D01*
X481834Y633909D01*
X481851Y634092D01*
X481849Y634109D01*
X481850Y634127D01*
X481827Y634310D01*
X481807Y634492D01*
X481802Y634509D01*
X481800Y634527D01*
X481741Y634700D01*
X481686Y634876D01*
X481677Y634892D01*
X481671Y634908D01*
X481580Y635067D01*
X481491Y635228D01*
X481479Y635242D01*
X481470Y635257D01*
X481256Y635510D01*
X474648Y642118D01*
X474627Y642135D01*
X474610Y642156D01*
X474472Y642263D01*
X474336Y642373D01*
X474313Y642386D01*
X474291Y642402D01*
X474135Y642480D01*
X473981Y642562D01*
X473955Y642570D01*
X473931Y642582D01*
X473762Y642627D01*
X473595Y642677D01*
X473568Y642679D01*
X473542Y642686D01*
X473211Y642713D01*
X464318Y642713D01*
X464300Y642711D01*
X464282Y642713D01*
X464100Y642692D01*
X463917Y642673D01*
X463900Y642668D01*
X463883Y642666D01*
X463708Y642609D01*
X463532Y642555D01*
X463517Y642547D01*
X463500Y642541D01*
X463340Y642451D01*
X463178Y642363D01*
X463165Y642352D01*
X463149Y642343D01*
X463010Y642223D01*
X462869Y642106D01*
X462858Y642092D01*
X462844Y642080D01*
X462732Y641935D01*
X462617Y641792D01*
X462609Y641776D01*
X462598Y641762D01*
X462516Y641597D01*
X462431Y641435D01*
X462426Y641418D01*
X462418Y641402D01*
X462371Y641223D01*
X462320Y641048D01*
X462318Y641030D01*
X462314Y641013D01*
X462287Y640682D01*
X462287Y634937D01*
X462289Y634910D01*
X462287Y634883D01*
X462309Y634709D01*
X462327Y634536D01*
X462334Y634510D01*
X462338Y634484D01*
X462394Y634318D01*
X462445Y634151D01*
X462458Y634127D01*
X462466Y634102D01*
X462553Y633951D01*
X462637Y633797D01*
X462654Y633776D01*
X462667Y633753D01*
X462882Y633500D01*
X463826Y632556D01*
X464513Y630898D01*
X464513Y629102D01*
X463826Y627444D01*
X462556Y626174D01*
X460898Y625487D01*
X459102Y625487D01*
X457444Y626174D01*
X456174Y627444D01*
X455487Y629102D01*
X455487Y630898D01*
X456174Y632556D01*
X457118Y633500D01*
X457135Y633521D01*
X457156Y633538D01*
X457263Y633676D01*
X457373Y633812D01*
X457386Y633835D01*
X457402Y633857D01*
X457480Y634013D01*
X457562Y634167D01*
X457570Y634193D01*
X457582Y634217D01*
X457627Y634386D01*
X457677Y634553D01*
X457679Y634580D01*
X457686Y634606D01*
X457713Y634937D01*
X457713Y640682D01*
X457711Y640700D01*
X457713Y640718D01*
X457692Y640900D01*
X457673Y641083D01*
X457668Y641100D01*
X457666Y641117D01*
X457609Y641292D01*
X457555Y641468D01*
X457547Y641483D01*
X457541Y641500D01*
X457451Y641660D01*
X457363Y641822D01*
X457352Y641835D01*
X457343Y641851D01*
X457223Y641990D01*
X457106Y642131D01*
X457092Y642142D01*
X457080Y642156D01*
X456935Y642268D01*
X456792Y642383D01*
X456776Y642391D01*
X456762Y642402D01*
X456597Y642484D01*
X456435Y642569D01*
X456418Y642574D01*
X456402Y642582D01*
X456223Y642629D01*
X456048Y642680D01*
X456030Y642682D01*
X456013Y642686D01*
X455682Y642713D01*
X364318Y642713D01*
X364300Y642711D01*
X364282Y642713D01*
X364100Y642692D01*
X363917Y642673D01*
X363900Y642668D01*
X363883Y642666D01*
X363708Y642609D01*
X363532Y642555D01*
X363517Y642547D01*
X363500Y642541D01*
X363340Y642451D01*
X363178Y642363D01*
X363165Y642352D01*
X363149Y642343D01*
X363010Y642223D01*
X362869Y642106D01*
X362858Y642092D01*
X362844Y642080D01*
X362732Y641935D01*
X362617Y641792D01*
X362609Y641776D01*
X362598Y641762D01*
X362516Y641597D01*
X362431Y641435D01*
X362426Y641418D01*
X362418Y641402D01*
X362371Y641223D01*
X362320Y641048D01*
X362318Y641030D01*
X362314Y641013D01*
X362287Y640682D01*
X362287Y634937D01*
X362289Y634910D01*
X362287Y634883D01*
X362309Y634709D01*
X362327Y634536D01*
X362334Y634510D01*
X362338Y634484D01*
X362394Y634318D01*
X362445Y634151D01*
X362458Y634127D01*
X362466Y634102D01*
X362553Y633951D01*
X362637Y633797D01*
X362654Y633776D01*
X362667Y633753D01*
X362882Y633500D01*
X363826Y632556D01*
X364513Y630898D01*
X364513Y629102D01*
X363826Y627444D01*
X362545Y626163D01*
X362424Y626097D01*
X362251Y626005D01*
X362247Y626002D01*
X362243Y625999D01*
X362093Y625874D01*
X361940Y625748D01*
X361937Y625745D01*
X361934Y625742D01*
X361811Y625590D01*
X361686Y625436D01*
X361684Y625431D01*
X361681Y625428D01*
X361593Y625257D01*
X361499Y625079D01*
X361498Y625075D01*
X361496Y625071D01*
X361441Y624879D01*
X361386Y624693D01*
X361386Y624688D01*
X361385Y624684D01*
X361368Y624485D01*
X361352Y624291D01*
X361352Y624287D01*
X361352Y624282D01*
X361375Y624085D01*
X361397Y623891D01*
X361398Y623887D01*
X361399Y623883D01*
X361461Y623691D01*
X361520Y623508D01*
X361522Y623504D01*
X361523Y623500D01*
X361620Y623329D01*
X361716Y623157D01*
X361719Y623153D01*
X361721Y623149D01*
X361850Y623000D01*
X361978Y622851D01*
X361982Y622848D01*
X361985Y622844D01*
X362140Y622724D01*
X362295Y622602D01*
X362299Y622600D01*
X362303Y622598D01*
X362479Y622510D01*
X362655Y622422D01*
X362659Y622420D01*
X362663Y622418D01*
X362854Y622367D01*
X363043Y622315D01*
X363047Y622315D01*
X363052Y622314D01*
X363383Y622287D01*
X380682Y622287D01*
X380700Y622289D01*
X380718Y622287D01*
X380900Y622308D01*
X381083Y622327D01*
X381100Y622332D01*
X381117Y622334D01*
X381292Y622391D01*
X381468Y622445D01*
X381483Y622453D01*
X381500Y622459D01*
X381660Y622549D01*
X381822Y622637D01*
X381835Y622648D01*
X381851Y622657D01*
X381990Y622777D01*
X382131Y622894D01*
X382142Y622908D01*
X382156Y622920D01*
X382268Y623065D01*
X382383Y623208D01*
X382391Y623224D01*
X382402Y623238D01*
X382484Y623403D01*
X382569Y623565D01*
X382574Y623582D01*
X382582Y623598D01*
X382629Y623777D01*
X382680Y623952D01*
X382682Y623970D01*
X382686Y623987D01*
X382713Y624318D01*
X382713Y625063D01*
X382711Y625090D01*
X382713Y625117D01*
X382691Y625291D01*
X382673Y625464D01*
X382666Y625489D01*
X382662Y625516D01*
X382607Y625682D01*
X382555Y625849D01*
X382542Y625872D01*
X382534Y625898D01*
X382447Y626049D01*
X382363Y626203D01*
X382346Y626223D01*
X382333Y626247D01*
X382118Y626500D01*
X381174Y627444D01*
X380487Y629102D01*
X380487Y630898D01*
X381174Y632556D01*
X382444Y633826D01*
X384102Y634513D01*
X385898Y634513D01*
X387556Y633826D01*
X388826Y632556D01*
X389513Y630898D01*
X389513Y629102D01*
X388826Y627444D01*
X387882Y626500D01*
X387865Y626479D01*
X387844Y626461D01*
X387737Y626324D01*
X387627Y626188D01*
X387614Y626165D01*
X387598Y626143D01*
X387520Y625986D01*
X387438Y625832D01*
X387430Y625807D01*
X387418Y625783D01*
X387373Y625613D01*
X387323Y625447D01*
X387321Y625420D01*
X387314Y625394D01*
X387287Y625063D01*
X387287Y624318D01*
X387289Y624300D01*
X387287Y624282D01*
X387308Y624100D01*
X387327Y623917D01*
X387332Y623900D01*
X387334Y623883D01*
X387391Y623708D01*
X387445Y623532D01*
X387453Y623517D01*
X387459Y623500D01*
X387549Y623340D01*
X387637Y623178D01*
X387648Y623165D01*
X387657Y623149D01*
X387777Y623010D01*
X387894Y622869D01*
X387908Y622858D01*
X387920Y622844D01*
X388065Y622732D01*
X388208Y622617D01*
X388224Y622609D01*
X388238Y622598D01*
X388403Y622516D01*
X388565Y622431D01*
X388582Y622426D01*
X388598Y622418D01*
X388777Y622371D01*
X388952Y622320D01*
X388970Y622318D01*
X388987Y622314D01*
X389318Y622287D01*
X405682Y622287D01*
X405700Y622289D01*
X405718Y622287D01*
X405900Y622308D01*
X406083Y622327D01*
X406100Y622332D01*
X406117Y622334D01*
X406292Y622391D01*
X406468Y622445D01*
X406483Y622453D01*
X406500Y622459D01*
X406660Y622549D01*
X406822Y622637D01*
X406835Y622648D01*
X406851Y622657D01*
X406990Y622777D01*
X407131Y622894D01*
X407142Y622908D01*
X407156Y622920D01*
X407268Y623065D01*
X407383Y623208D01*
X407391Y623224D01*
X407402Y623238D01*
X407484Y623403D01*
X407569Y623565D01*
X407574Y623582D01*
X407582Y623598D01*
X407629Y623777D01*
X407680Y623952D01*
X407682Y623970D01*
X407686Y623987D01*
X407713Y624318D01*
X407713Y625063D01*
X407711Y625090D01*
X407713Y625117D01*
X407691Y625291D01*
X407673Y625464D01*
X407666Y625489D01*
X407662Y625516D01*
X407607Y625682D01*
X407555Y625849D01*
X407542Y625872D01*
X407534Y625898D01*
X407447Y626049D01*
X407363Y626203D01*
X407346Y626223D01*
X407333Y626247D01*
X407118Y626500D01*
X406174Y627444D01*
X405487Y629102D01*
X405487Y630898D01*
X406174Y632556D01*
X407444Y633826D01*
X409102Y634513D01*
X410898Y634513D01*
X412556Y633826D01*
X413826Y632556D01*
X414513Y630898D01*
X414513Y629102D01*
X413826Y627444D01*
X412882Y626500D01*
X412865Y626479D01*
X412844Y626461D01*
X412737Y626324D01*
X412627Y626188D01*
X412614Y626165D01*
X412598Y626143D01*
X412520Y625986D01*
X412438Y625832D01*
X412430Y625807D01*
X412418Y625783D01*
X412373Y625613D01*
X412323Y625447D01*
X412321Y625420D01*
X412314Y625394D01*
X412287Y625063D01*
X412287Y624318D01*
X412289Y624300D01*
X412287Y624282D01*
X412308Y624100D01*
X412327Y623917D01*
X412332Y623900D01*
X412334Y623883D01*
X412391Y623708D01*
X412445Y623532D01*
X412453Y623517D01*
X412459Y623500D01*
X412549Y623340D01*
X412637Y623178D01*
X412648Y623165D01*
X412657Y623149D01*
X412777Y623010D01*
X412894Y622869D01*
X412908Y622858D01*
X412920Y622844D01*
X413065Y622732D01*
X413208Y622617D01*
X413224Y622609D01*
X413238Y622598D01*
X413403Y622516D01*
X413565Y622431D01*
X413582Y622426D01*
X413598Y622418D01*
X413777Y622371D01*
X413952Y622320D01*
X413970Y622318D01*
X413987Y622314D01*
X414318Y622287D01*
X428211Y622287D01*
X428238Y622289D01*
X428265Y622287D01*
X428439Y622309D01*
X428612Y622327D01*
X428638Y622334D01*
X428664Y622338D01*
X428830Y622394D01*
X428997Y622445D01*
X429020Y622457D01*
X429046Y622466D01*
X429197Y622553D01*
X429351Y622637D01*
X429372Y622654D01*
X429395Y622667D01*
X429648Y622882D01*
X431256Y624490D01*
X431267Y624503D01*
X431281Y624515D01*
X431395Y624660D01*
X431511Y624801D01*
X431519Y624817D01*
X431530Y624831D01*
X431614Y624995D01*
X431699Y625157D01*
X431704Y625174D01*
X431713Y625190D01*
X431762Y625367D01*
X431814Y625543D01*
X431816Y625561D01*
X431821Y625578D01*
X431834Y625761D01*
X431851Y625944D01*
X431849Y625961D01*
X431850Y625979D01*
X431827Y626161D01*
X431807Y626344D01*
X431802Y626361D01*
X431800Y626379D01*
X431741Y626552D01*
X431686Y626728D01*
X431677Y626744D01*
X431671Y626760D01*
X431580Y626919D01*
X431491Y627080D01*
X431479Y627094D01*
X431470Y627109D01*
X431256Y627362D01*
X431174Y627444D01*
X430487Y629102D01*
X430487Y630898D01*
X431174Y632556D01*
X432444Y633826D01*
X434102Y634513D01*
X435898Y634513D01*
X437556Y633826D01*
X438826Y632556D01*
X439513Y630898D01*
X439513Y629102D01*
X438826Y627444D01*
X437882Y626500D01*
X437865Y626479D01*
X437844Y626461D01*
X437737Y626324D01*
X437627Y626188D01*
X437614Y626165D01*
X437598Y626143D01*
X437520Y625986D01*
X437438Y625832D01*
X437430Y625807D01*
X437418Y625783D01*
X437373Y625613D01*
X437323Y625447D01*
X437321Y625420D01*
X437314Y625394D01*
X437287Y625063D01*
X437287Y624053D01*
X430947Y617713D01*
X351789Y617713D01*
X351762Y617711D01*
X351735Y617713D01*
X351561Y617691D01*
X351388Y617673D01*
X351362Y617666D01*
X351336Y617662D01*
X351170Y617607D01*
X351003Y617555D01*
X350979Y617542D01*
X350954Y617534D01*
X350802Y617447D01*
X350649Y617363D01*
X350629Y617346D01*
X350605Y617333D01*
X350352Y617118D01*
X350108Y616874D01*
X350091Y616853D01*
X350070Y616836D01*
X349963Y616698D01*
X349853Y616562D01*
X349840Y616539D01*
X349824Y616517D01*
X349746Y616361D01*
X349664Y616207D01*
X349656Y616181D01*
X349644Y616157D01*
X349599Y615988D01*
X349549Y615821D01*
X349547Y615794D01*
X349540Y615768D01*
X349513Y615437D01*
X349513Y614102D01*
X348826Y612444D01*
X347556Y611174D01*
X345898Y610487D01*
X344102Y610487D01*
G37*
%LPD*%
%LPC*%
G36*
X521288Y16339D02*
X521288Y16339D01*
X514430Y19180D01*
X509180Y24430D01*
X506339Y31288D01*
X506339Y38712D01*
X509180Y45570D01*
X514430Y50820D01*
X514729Y50944D01*
X521288Y53661D01*
X528712Y53661D01*
X535570Y50820D01*
X540820Y45570D01*
X543661Y38712D01*
X543661Y31288D01*
X540820Y24430D01*
X535570Y19180D01*
X533030Y18128D01*
X533029Y18128D01*
X528712Y16339D01*
X521288Y16339D01*
G37*
%LPD*%
%LPC*%
G36*
X346288Y16339D02*
X346288Y16339D01*
X339430Y19180D01*
X334180Y24430D01*
X331339Y31288D01*
X331339Y38712D01*
X334180Y45570D01*
X339430Y50820D01*
X339729Y50944D01*
X346288Y53661D01*
X353712Y53661D01*
X360570Y50820D01*
X365820Y45570D01*
X368661Y38712D01*
X368661Y31288D01*
X365820Y24430D01*
X360570Y19180D01*
X358030Y18128D01*
X358029Y18128D01*
X353712Y16339D01*
X346288Y16339D01*
G37*
%LPD*%
%LPC*%
G36*
X171288Y16339D02*
X171288Y16339D01*
X164430Y19180D01*
X159180Y24430D01*
X156339Y31288D01*
X156339Y38712D01*
X159180Y45570D01*
X164430Y50820D01*
X164729Y50944D01*
X171288Y53661D01*
X178712Y53661D01*
X185570Y50820D01*
X190820Y45570D01*
X193661Y38712D01*
X193661Y31288D01*
X190820Y24430D01*
X185570Y19180D01*
X183030Y18128D01*
X183029Y18128D01*
X178712Y16339D01*
X171288Y16339D01*
G37*
%LPD*%
%LPC*%
G36*
X521288Y86339D02*
X521288Y86339D01*
X514430Y89180D01*
X509180Y94430D01*
X506339Y101288D01*
X506339Y108712D01*
X509180Y115570D01*
X514430Y120820D01*
X517369Y122037D01*
X517369Y122038D01*
X521288Y123661D01*
X528712Y123661D01*
X535570Y120820D01*
X540820Y115570D01*
X543661Y108712D01*
X543661Y101288D01*
X540820Y94430D01*
X535570Y89180D01*
X528712Y86339D01*
X521288Y86339D01*
G37*
%LPD*%
%LPC*%
G36*
X346288Y86339D02*
X346288Y86339D01*
X339430Y89180D01*
X334180Y94430D01*
X331339Y101288D01*
X331339Y108712D01*
X334180Y115570D01*
X339430Y120820D01*
X342369Y122037D01*
X342369Y122038D01*
X346288Y123661D01*
X353712Y123661D01*
X360570Y120820D01*
X365820Y115570D01*
X368661Y108712D01*
X368661Y101288D01*
X365820Y94430D01*
X360570Y89180D01*
X353712Y86339D01*
X346288Y86339D01*
G37*
%LPD*%
%LPC*%
G36*
X171288Y86339D02*
X171288Y86339D01*
X164430Y89180D01*
X159180Y94430D01*
X156339Y101288D01*
X156339Y108712D01*
X159180Y115570D01*
X164430Y120820D01*
X167369Y122037D01*
X167369Y122038D01*
X171288Y123661D01*
X178712Y123661D01*
X185570Y120820D01*
X190820Y115570D01*
X193661Y108712D01*
X193661Y101288D01*
X190820Y94430D01*
X185570Y89180D01*
X178712Y86339D01*
X171288Y86339D01*
G37*
%LPD*%
%LPC*%
G36*
X252445Y150387D02*
X252445Y150387D01*
X251998Y150834D01*
X251998Y153182D01*
X251996Y153200D01*
X251998Y153218D01*
X251977Y153400D01*
X251958Y153583D01*
X251953Y153600D01*
X251951Y153617D01*
X251894Y153792D01*
X251840Y153968D01*
X251832Y153983D01*
X251826Y154000D01*
X251736Y154160D01*
X251648Y154322D01*
X251637Y154335D01*
X251628Y154351D01*
X251508Y154490D01*
X251391Y154631D01*
X251377Y154642D01*
X251365Y154656D01*
X251220Y154768D01*
X251077Y154883D01*
X251061Y154891D01*
X251047Y154902D01*
X250882Y154984D01*
X250720Y155069D01*
X250703Y155074D01*
X250687Y155082D01*
X250508Y155129D01*
X250333Y155180D01*
X250315Y155182D01*
X250298Y155186D01*
X249967Y155213D01*
X216541Y155213D01*
X216515Y155211D01*
X216488Y155213D01*
X216314Y155191D01*
X216141Y155173D01*
X216115Y155166D01*
X216089Y155162D01*
X215923Y155107D01*
X215756Y155055D01*
X215732Y155042D01*
X215707Y155034D01*
X215555Y154947D01*
X215402Y154863D01*
X215381Y154846D01*
X215358Y154833D01*
X215105Y154618D01*
X214373Y153886D01*
X212806Y153237D01*
X211110Y153237D01*
X209544Y153886D01*
X208344Y155085D01*
X207696Y156652D01*
X207696Y158348D01*
X208344Y159915D01*
X209544Y161114D01*
X211110Y161763D01*
X212806Y161763D01*
X214373Y161114D01*
X215105Y160382D01*
X215126Y160365D01*
X215143Y160344D01*
X215281Y160237D01*
X215417Y160127D01*
X215440Y160114D01*
X215461Y160098D01*
X215618Y160020D01*
X215772Y159938D01*
X215798Y159930D01*
X215822Y159918D01*
X215991Y159873D01*
X216158Y159823D01*
X216185Y159821D01*
X216211Y159814D01*
X216541Y159787D01*
X249967Y159787D01*
X249985Y159789D01*
X250003Y159787D01*
X250185Y159808D01*
X250368Y159827D01*
X250385Y159832D01*
X250402Y159834D01*
X250577Y159891D01*
X250753Y159945D01*
X250768Y159953D01*
X250785Y159959D01*
X250945Y160049D01*
X251107Y160137D01*
X251120Y160148D01*
X251136Y160157D01*
X251275Y160277D01*
X251416Y160394D01*
X251427Y160408D01*
X251441Y160420D01*
X251553Y160565D01*
X251668Y160708D01*
X251676Y160724D01*
X251687Y160738D01*
X251769Y160903D01*
X251854Y161065D01*
X251859Y161082D01*
X251867Y161098D01*
X251914Y161277D01*
X251965Y161452D01*
X251967Y161470D01*
X251971Y161487D01*
X251998Y161818D01*
X251998Y164166D01*
X252445Y164613D01*
X267555Y164613D01*
X268002Y164166D01*
X268002Y161818D01*
X268004Y161800D01*
X268002Y161782D01*
X268023Y161600D01*
X268042Y161417D01*
X268047Y161400D01*
X268049Y161383D01*
X268106Y161208D01*
X268160Y161032D01*
X268168Y161017D01*
X268174Y161000D01*
X268265Y160839D01*
X268352Y160678D01*
X268363Y160665D01*
X268372Y160649D01*
X268492Y160510D01*
X268609Y160369D01*
X268623Y160358D01*
X268635Y160344D01*
X268780Y160232D01*
X268923Y160117D01*
X268939Y160109D01*
X268953Y160098D01*
X269118Y160016D01*
X269280Y159931D01*
X269297Y159926D01*
X269313Y159918D01*
X269492Y159871D01*
X269667Y159820D01*
X269685Y159818D01*
X269702Y159814D01*
X270033Y159787D01*
X312275Y159787D01*
X312302Y159789D01*
X312329Y159787D01*
X312503Y159809D01*
X312676Y159827D01*
X312702Y159834D01*
X312728Y159838D01*
X312894Y159893D01*
X313061Y159945D01*
X313085Y159958D01*
X313110Y159966D01*
X313262Y160053D01*
X313415Y160137D01*
X313435Y160154D01*
X313459Y160167D01*
X313712Y160382D01*
X326142Y172812D01*
X326159Y172833D01*
X326180Y172850D01*
X326287Y172988D01*
X326397Y173124D01*
X326410Y173147D01*
X326426Y173169D01*
X326504Y173325D01*
X326586Y173479D01*
X326594Y173505D01*
X326606Y173529D01*
X326651Y173698D01*
X326701Y173865D01*
X326703Y173892D01*
X326710Y173918D01*
X326737Y174249D01*
X326737Y175848D01*
X327386Y177415D01*
X328585Y178614D01*
X330152Y179263D01*
X331848Y179263D01*
X333415Y178614D01*
X334614Y177415D01*
X335263Y175848D01*
X335263Y174152D01*
X334614Y172585D01*
X333415Y171386D01*
X331848Y170737D01*
X331377Y170737D01*
X331350Y170735D01*
X331323Y170737D01*
X331149Y170715D01*
X330976Y170697D01*
X330950Y170690D01*
X330924Y170686D01*
X330758Y170630D01*
X330591Y170579D01*
X330567Y170566D01*
X330542Y170558D01*
X330390Y170471D01*
X330237Y170387D01*
X330217Y170370D01*
X330193Y170357D01*
X329940Y170142D01*
X316946Y157148D01*
X315011Y155213D01*
X270033Y155213D01*
X270015Y155211D01*
X269997Y155213D01*
X269815Y155192D01*
X269632Y155173D01*
X269615Y155168D01*
X269598Y155166D01*
X269423Y155109D01*
X269247Y155055D01*
X269232Y155047D01*
X269215Y155041D01*
X269055Y154951D01*
X268893Y154863D01*
X268880Y154852D01*
X268864Y154843D01*
X268725Y154723D01*
X268584Y154606D01*
X268573Y154592D01*
X268559Y154580D01*
X268447Y154435D01*
X268332Y154292D01*
X268324Y154276D01*
X268313Y154262D01*
X268231Y154097D01*
X268146Y153935D01*
X268141Y153918D01*
X268133Y153902D01*
X268086Y153723D01*
X268035Y153548D01*
X268033Y153530D01*
X268029Y153513D01*
X268002Y153182D01*
X268002Y150834D01*
X267555Y150387D01*
X252445Y150387D01*
G37*
%LPD*%
%LPC*%
G36*
X384102Y365487D02*
X384102Y365487D01*
X382444Y366174D01*
X381174Y367444D01*
X380871Y368177D01*
X380856Y368204D01*
X380846Y368234D01*
X380761Y368382D01*
X380681Y368532D01*
X380661Y368556D01*
X380645Y368583D01*
X380430Y368836D01*
X379618Y369648D01*
X357013Y392253D01*
X357013Y394147D01*
X357130Y394264D01*
X357141Y394277D01*
X357155Y394289D01*
X357268Y394433D01*
X357385Y394575D01*
X357393Y394591D01*
X357404Y394605D01*
X357487Y394768D01*
X357573Y394931D01*
X357579Y394948D01*
X357587Y394964D01*
X357636Y395140D01*
X357688Y395317D01*
X357690Y395335D01*
X357695Y395352D01*
X357708Y395535D01*
X357725Y395718D01*
X357723Y395735D01*
X357724Y395753D01*
X357701Y395935D01*
X357681Y396118D01*
X357676Y396135D01*
X357674Y396153D01*
X357615Y396327D01*
X357560Y396502D01*
X357551Y396517D01*
X357545Y396534D01*
X357454Y396694D01*
X357365Y396854D01*
X357353Y396868D01*
X357344Y396883D01*
X357130Y397136D01*
X357013Y397253D01*
X357013Y399147D01*
X358930Y401064D01*
X358941Y401078D01*
X358955Y401089D01*
X359069Y401233D01*
X359185Y401375D01*
X359193Y401391D01*
X359204Y401405D01*
X359288Y401569D01*
X359313Y401616D01*
X359360Y401532D01*
X359453Y401364D01*
X359459Y401357D01*
X359463Y401349D01*
X359589Y401204D01*
X359713Y401057D01*
X359721Y401051D01*
X359726Y401044D01*
X359878Y400927D01*
X360029Y400807D01*
X360037Y400803D01*
X360044Y400798D01*
X360216Y400713D01*
X360388Y400625D01*
X360397Y400622D01*
X360405Y400618D01*
X360591Y400568D01*
X360776Y400517D01*
X360785Y400516D01*
X360794Y400514D01*
X361125Y400487D01*
X364953Y400487D01*
X364979Y400489D01*
X365006Y400487D01*
X365180Y400509D01*
X365353Y400527D01*
X365379Y400534D01*
X365406Y400538D01*
X365571Y400593D01*
X365738Y400645D01*
X365762Y400658D01*
X365787Y400666D01*
X365939Y400753D01*
X366092Y400837D01*
X366113Y400854D01*
X366136Y400867D01*
X366389Y401082D01*
X382868Y417561D01*
X413485Y417561D01*
X413512Y417563D01*
X413539Y417561D01*
X413713Y417583D01*
X413886Y417601D01*
X413912Y417608D01*
X413938Y417612D01*
X414104Y417667D01*
X414271Y417719D01*
X414295Y417732D01*
X414320Y417740D01*
X414472Y417827D01*
X414625Y417911D01*
X414645Y417928D01*
X414669Y417941D01*
X414922Y418156D01*
X430142Y433376D01*
X430159Y433397D01*
X430180Y433414D01*
X430287Y433552D01*
X430397Y433688D01*
X430410Y433711D01*
X430426Y433733D01*
X430504Y433889D01*
X430586Y434043D01*
X430594Y434069D01*
X430606Y434093D01*
X430651Y434262D01*
X430701Y434429D01*
X430703Y434456D01*
X430710Y434482D01*
X430737Y434813D01*
X430737Y435848D01*
X431386Y437415D01*
X432585Y438614D01*
X434152Y439263D01*
X435848Y439263D01*
X437415Y438614D01*
X438614Y437415D01*
X439263Y435848D01*
X439263Y434152D01*
X438614Y432585D01*
X437415Y431386D01*
X435848Y430737D01*
X434813Y430737D01*
X434786Y430735D01*
X434759Y430737D01*
X434585Y430715D01*
X434412Y430697D01*
X434386Y430690D01*
X434360Y430686D01*
X434194Y430631D01*
X434027Y430579D01*
X434003Y430566D01*
X433978Y430558D01*
X433826Y430471D01*
X433673Y430387D01*
X433653Y430370D01*
X433629Y430357D01*
X433376Y430142D01*
X416221Y412987D01*
X385604Y412987D01*
X385577Y412985D01*
X385551Y412987D01*
X385377Y412965D01*
X385203Y412947D01*
X385178Y412940D01*
X385151Y412936D01*
X384986Y412881D01*
X384818Y412829D01*
X384795Y412816D01*
X384770Y412808D01*
X384618Y412721D01*
X384464Y412637D01*
X384444Y412620D01*
X384421Y412607D01*
X384168Y412392D01*
X367689Y395913D01*
X364725Y395913D01*
X364716Y395912D01*
X364707Y395913D01*
X364513Y395892D01*
X364324Y395873D01*
X364315Y395871D01*
X364306Y395870D01*
X364121Y395811D01*
X363939Y395755D01*
X363931Y395751D01*
X363923Y395748D01*
X363754Y395655D01*
X363585Y395563D01*
X363578Y395558D01*
X363570Y395553D01*
X363423Y395429D01*
X363276Y395306D01*
X363270Y395299D01*
X363263Y395293D01*
X363144Y395141D01*
X363023Y394992D01*
X363019Y394984D01*
X363014Y394977D01*
X362926Y394804D01*
X362838Y394635D01*
X362835Y394626D01*
X362831Y394618D01*
X362779Y394432D01*
X362726Y394248D01*
X362726Y394239D01*
X362723Y394230D01*
X362709Y394037D01*
X362694Y393846D01*
X362695Y393838D01*
X362694Y393829D01*
X362718Y393636D01*
X362740Y393447D01*
X362743Y393438D01*
X362744Y393429D01*
X362806Y393246D01*
X362865Y393064D01*
X362870Y393056D01*
X362873Y393048D01*
X362969Y392881D01*
X363063Y392713D01*
X363069Y392706D01*
X363074Y392699D01*
X363288Y392446D01*
X381105Y374629D01*
X381123Y374614D01*
X381137Y374598D01*
X381278Y374487D01*
X381417Y374374D01*
X381437Y374363D01*
X381454Y374349D01*
X381615Y374269D01*
X381773Y374185D01*
X381794Y374179D01*
X381814Y374169D01*
X381987Y374121D01*
X382158Y374070D01*
X382181Y374068D01*
X382202Y374062D01*
X382381Y374050D01*
X382559Y374034D01*
X382582Y374036D01*
X382604Y374035D01*
X382782Y374058D01*
X382960Y374077D01*
X382981Y374084D01*
X383003Y374087D01*
X383319Y374188D01*
X384102Y374513D01*
X385898Y374513D01*
X387556Y373826D01*
X388826Y372556D01*
X389513Y370898D01*
X389513Y369102D01*
X388826Y367444D01*
X387556Y366174D01*
X385898Y365487D01*
X384102Y365487D01*
G37*
%LPD*%
%LPC*%
G36*
X429945Y202887D02*
X429945Y202887D01*
X429498Y203334D01*
X429498Y205682D01*
X429496Y205700D01*
X429498Y205718D01*
X429477Y205900D01*
X429458Y206083D01*
X429453Y206100D01*
X429451Y206117D01*
X429394Y206292D01*
X429340Y206468D01*
X429332Y206483D01*
X429326Y206500D01*
X429236Y206660D01*
X429148Y206822D01*
X429137Y206835D01*
X429128Y206851D01*
X429008Y206990D01*
X428891Y207131D01*
X428877Y207142D01*
X428865Y207156D01*
X428720Y207268D01*
X428577Y207383D01*
X428561Y207391D01*
X428547Y207402D01*
X428382Y207484D01*
X428220Y207569D01*
X428203Y207574D01*
X428187Y207582D01*
X428008Y207629D01*
X427833Y207680D01*
X427815Y207682D01*
X427798Y207686D01*
X427467Y207713D01*
X389583Y207713D01*
X389557Y207711D01*
X389530Y207713D01*
X389356Y207691D01*
X389182Y207673D01*
X389157Y207666D01*
X389130Y207662D01*
X388965Y207607D01*
X388798Y207555D01*
X388774Y207542D01*
X388749Y207534D01*
X388597Y207447D01*
X388444Y207363D01*
X388423Y207346D01*
X388400Y207333D01*
X388147Y207118D01*
X387415Y206386D01*
X385848Y205737D01*
X384152Y205737D01*
X382585Y206386D01*
X381386Y207585D01*
X380737Y209152D01*
X380737Y210848D01*
X381386Y212415D01*
X382585Y213614D01*
X384152Y214263D01*
X385848Y214263D01*
X387415Y213614D01*
X388147Y212882D01*
X388167Y212865D01*
X388185Y212844D01*
X388323Y212737D01*
X388458Y212627D01*
X388482Y212614D01*
X388503Y212598D01*
X388660Y212520D01*
X388814Y212438D01*
X388839Y212430D01*
X388864Y212418D01*
X389033Y212373D01*
X389200Y212323D01*
X389226Y212321D01*
X389252Y212314D01*
X389583Y212287D01*
X427467Y212287D01*
X427485Y212289D01*
X427503Y212287D01*
X427685Y212308D01*
X427868Y212327D01*
X427885Y212332D01*
X427902Y212334D01*
X428077Y212391D01*
X428253Y212445D01*
X428268Y212453D01*
X428285Y212459D01*
X428445Y212549D01*
X428607Y212637D01*
X428620Y212648D01*
X428636Y212657D01*
X428775Y212777D01*
X428916Y212894D01*
X428927Y212908D01*
X428941Y212920D01*
X429053Y213065D01*
X429168Y213208D01*
X429176Y213224D01*
X429187Y213238D01*
X429269Y213403D01*
X429354Y213565D01*
X429359Y213582D01*
X429367Y213598D01*
X429414Y213777D01*
X429465Y213952D01*
X429467Y213970D01*
X429471Y213987D01*
X429498Y214318D01*
X429498Y216666D01*
X429945Y217113D01*
X445055Y217113D01*
X445502Y216666D01*
X445502Y214318D01*
X445504Y214300D01*
X445502Y214282D01*
X445523Y214100D01*
X445542Y213917D01*
X445547Y213900D01*
X445549Y213883D01*
X445606Y213708D01*
X445660Y213532D01*
X445668Y213517D01*
X445674Y213500D01*
X445764Y213340D01*
X445852Y213178D01*
X445863Y213165D01*
X445872Y213149D01*
X445992Y213010D01*
X446109Y212869D01*
X446123Y212858D01*
X446135Y212844D01*
X446280Y212732D01*
X446423Y212617D01*
X446439Y212609D01*
X446453Y212598D01*
X446618Y212516D01*
X446780Y212431D01*
X446797Y212426D01*
X446813Y212418D01*
X446992Y212371D01*
X447167Y212320D01*
X447185Y212318D01*
X447202Y212314D01*
X447533Y212287D01*
X475417Y212287D01*
X475444Y212289D01*
X475470Y212287D01*
X475644Y212309D01*
X475818Y212327D01*
X475843Y212335D01*
X475870Y212338D01*
X476035Y212393D01*
X476202Y212445D01*
X476226Y212458D01*
X476251Y212466D01*
X476403Y212553D01*
X476557Y212637D01*
X476577Y212654D01*
X476600Y212667D01*
X476853Y212882D01*
X477585Y213614D01*
X479152Y214263D01*
X480848Y214263D01*
X482415Y213614D01*
X483614Y212415D01*
X484263Y210848D01*
X484263Y209152D01*
X483614Y207585D01*
X482415Y206386D01*
X480848Y205737D01*
X479152Y205737D01*
X477585Y206386D01*
X476853Y207118D01*
X476833Y207135D01*
X476815Y207156D01*
X476677Y207262D01*
X476542Y207373D01*
X476518Y207386D01*
X476497Y207402D01*
X476341Y207480D01*
X476186Y207562D01*
X476160Y207570D01*
X476136Y207582D01*
X475967Y207627D01*
X475800Y207677D01*
X475774Y207679D01*
X475748Y207686D01*
X475417Y207713D01*
X447533Y207713D01*
X447515Y207711D01*
X447497Y207713D01*
X447315Y207692D01*
X447132Y207673D01*
X447115Y207668D01*
X447098Y207666D01*
X446923Y207609D01*
X446747Y207555D01*
X446732Y207547D01*
X446715Y207541D01*
X446555Y207451D01*
X446393Y207363D01*
X446380Y207352D01*
X446364Y207343D01*
X446225Y207223D01*
X446084Y207106D01*
X446073Y207092D01*
X446059Y207080D01*
X445947Y206935D01*
X445832Y206792D01*
X445824Y206776D01*
X445813Y206762D01*
X445731Y206597D01*
X445646Y206435D01*
X445641Y206418D01*
X445633Y206402D01*
X445586Y206223D01*
X445535Y206048D01*
X445533Y206030D01*
X445529Y206013D01*
X445502Y205682D01*
X445502Y203334D01*
X445055Y202887D01*
X429945Y202887D01*
G37*
%LPD*%
%LPC*%
G36*
X279152Y225737D02*
X279152Y225737D01*
X277585Y226386D01*
X276386Y227585D01*
X275737Y229152D01*
X275737Y230848D01*
X276386Y232415D01*
X277585Y233614D01*
X277929Y233756D01*
X279152Y234263D01*
X280187Y234263D01*
X280214Y234265D01*
X280241Y234263D01*
X280415Y234285D01*
X280588Y234303D01*
X280614Y234310D01*
X280640Y234314D01*
X280806Y234369D01*
X280973Y234421D01*
X280997Y234434D01*
X281022Y234442D01*
X281174Y234529D01*
X281327Y234613D01*
X281347Y234630D01*
X281371Y234643D01*
X281624Y234858D01*
X284053Y237287D01*
X388211Y237287D01*
X388238Y237289D01*
X388265Y237287D01*
X388439Y237309D01*
X388612Y237327D01*
X388638Y237334D01*
X388664Y237338D01*
X388830Y237393D01*
X388997Y237445D01*
X389021Y237458D01*
X389046Y237466D01*
X389198Y237553D01*
X389351Y237637D01*
X389371Y237654D01*
X389395Y237667D01*
X389648Y237882D01*
X390142Y238376D01*
X390159Y238397D01*
X390180Y238414D01*
X390287Y238552D01*
X390397Y238688D01*
X390410Y238711D01*
X390426Y238733D01*
X390504Y238889D01*
X390586Y239043D01*
X390594Y239069D01*
X390606Y239093D01*
X390651Y239262D01*
X390701Y239429D01*
X390703Y239456D01*
X390710Y239482D01*
X390737Y239813D01*
X390737Y240848D01*
X391386Y242415D01*
X392585Y243614D01*
X394152Y244263D01*
X395848Y244263D01*
X397415Y243614D01*
X398614Y242415D01*
X399263Y240848D01*
X399263Y239152D01*
X398614Y237585D01*
X397415Y236386D01*
X395848Y235737D01*
X394813Y235737D01*
X394786Y235735D01*
X394759Y235737D01*
X394585Y235715D01*
X394412Y235697D01*
X394386Y235690D01*
X394360Y235686D01*
X394194Y235631D01*
X394027Y235579D01*
X394003Y235566D01*
X393978Y235558D01*
X393826Y235471D01*
X393673Y235387D01*
X393653Y235370D01*
X393629Y235357D01*
X393376Y235142D01*
X390947Y232713D01*
X286789Y232713D01*
X286762Y232711D01*
X286735Y232713D01*
X286561Y232691D01*
X286388Y232673D01*
X286362Y232666D01*
X286336Y232662D01*
X286170Y232607D01*
X286003Y232555D01*
X285979Y232542D01*
X285954Y232534D01*
X285802Y232447D01*
X285649Y232363D01*
X285629Y232346D01*
X285605Y232333D01*
X285352Y232118D01*
X284858Y231624D01*
X284841Y231603D01*
X284820Y231586D01*
X284713Y231448D01*
X284603Y231312D01*
X284590Y231289D01*
X284574Y231267D01*
X284496Y231111D01*
X284414Y230957D01*
X284406Y230931D01*
X284394Y230907D01*
X284349Y230738D01*
X284299Y230571D01*
X284297Y230544D01*
X284290Y230518D01*
X284263Y230187D01*
X284263Y229152D01*
X283614Y227585D01*
X282415Y226386D01*
X280848Y225737D01*
X279152Y225737D01*
G37*
%LPD*%
%LPC*%
G36*
X395602Y353487D02*
X395602Y353487D01*
X393944Y354174D01*
X392674Y355444D01*
X391987Y357102D01*
X391987Y358898D01*
X392674Y360556D01*
X393618Y361500D01*
X393635Y361521D01*
X393656Y361539D01*
X393763Y361676D01*
X393873Y361812D01*
X393886Y361835D01*
X393902Y361857D01*
X393980Y362014D01*
X394062Y362168D01*
X394070Y362193D01*
X394082Y362217D01*
X394127Y362387D01*
X394177Y362553D01*
X394179Y362580D01*
X394186Y362606D01*
X394213Y362937D01*
X394213Y397563D01*
X394211Y397590D01*
X394213Y397617D01*
X394191Y397791D01*
X394173Y397964D01*
X394166Y397989D01*
X394162Y398016D01*
X394107Y398182D01*
X394055Y398349D01*
X394042Y398372D01*
X394034Y398398D01*
X393947Y398549D01*
X393863Y398703D01*
X393846Y398723D01*
X393833Y398747D01*
X393618Y399000D01*
X392674Y399944D01*
X391987Y401602D01*
X391987Y403398D01*
X392674Y405056D01*
X393944Y406326D01*
X395602Y407013D01*
X397398Y407013D01*
X399056Y406326D01*
X400326Y405056D01*
X401013Y403398D01*
X401013Y401602D01*
X400326Y399944D01*
X399382Y399000D01*
X399365Y398979D01*
X399344Y398961D01*
X399237Y398824D01*
X399127Y398688D01*
X399114Y398665D01*
X399098Y398643D01*
X399020Y398486D01*
X398938Y398332D01*
X398930Y398307D01*
X398918Y398283D01*
X398873Y398113D01*
X398823Y397947D01*
X398821Y397920D01*
X398814Y397894D01*
X398787Y397563D01*
X398787Y362937D01*
X398789Y362910D01*
X398787Y362883D01*
X398809Y362709D01*
X398827Y362536D01*
X398834Y362511D01*
X398838Y362484D01*
X398893Y362318D01*
X398945Y362151D01*
X398958Y362128D01*
X398966Y362102D01*
X399053Y361951D01*
X399137Y361797D01*
X399154Y361777D01*
X399167Y361753D01*
X399382Y361500D01*
X400326Y360556D01*
X401013Y358898D01*
X401013Y357102D01*
X400326Y355444D01*
X399056Y354174D01*
X397398Y353487D01*
X395602Y353487D01*
G37*
%LPD*%
%LPC*%
G36*
X323602Y382987D02*
X323602Y382987D01*
X321944Y383674D01*
X320674Y384944D01*
X319987Y386602D01*
X319987Y388398D01*
X320674Y390056D01*
X321944Y391326D01*
X323602Y392013D01*
X324937Y392013D01*
X324964Y392015D01*
X324991Y392013D01*
X325165Y392035D01*
X325338Y392053D01*
X325364Y392060D01*
X325390Y392064D01*
X325556Y392119D01*
X325723Y392171D01*
X325747Y392184D01*
X325772Y392192D01*
X325923Y392279D01*
X326077Y392363D01*
X326097Y392380D01*
X326121Y392393D01*
X326374Y392608D01*
X327318Y393552D01*
X327319Y393553D01*
X329253Y395487D01*
X341647Y395487D01*
X342987Y394147D01*
X342987Y392253D01*
X341647Y390913D01*
X331989Y390913D01*
X331962Y390911D01*
X331935Y390913D01*
X331761Y390891D01*
X331588Y390873D01*
X331562Y390866D01*
X331536Y390862D01*
X331370Y390807D01*
X331203Y390755D01*
X331179Y390742D01*
X331154Y390734D01*
X331002Y390647D01*
X330849Y390563D01*
X330829Y390546D01*
X330805Y390533D01*
X330552Y390318D01*
X329608Y389374D01*
X329591Y389353D01*
X329570Y389336D01*
X329463Y389198D01*
X329353Y389062D01*
X329340Y389039D01*
X329324Y389017D01*
X329246Y388861D01*
X329164Y388707D01*
X329156Y388681D01*
X329144Y388657D01*
X329099Y388488D01*
X329049Y388321D01*
X329047Y388294D01*
X329040Y388268D01*
X329013Y387937D01*
X329013Y386602D01*
X328326Y384944D01*
X327056Y383674D01*
X325398Y382987D01*
X323602Y382987D01*
G37*
%LPD*%
%LPC*%
G36*
X550339Y677461D02*
X550339Y677461D01*
X559485Y677461D01*
X559445Y677204D01*
X558864Y675417D01*
X558011Y673743D01*
X556906Y672222D01*
X555578Y670894D01*
X554057Y669789D01*
X552383Y668936D01*
X550596Y668355D01*
X550339Y668315D01*
X550339Y677461D01*
G37*
%LPD*%
D10*
X370000Y680000D03*
X395400Y680000D03*
X420800Y680000D03*
X446200Y680000D03*
X471600Y680000D03*
X497000Y680000D03*
X522400Y680000D03*
X547800Y680000D03*
D11*
X433436Y210000D03*
X441564Y210000D03*
X433436Y157500D03*
X441564Y157500D03*
X255936Y157500D03*
X264064Y157500D03*
X185936Y157500D03*
X194064Y157500D03*
D12*
X592000Y24000D03*
X175000Y65000D03*
X349500Y65000D03*
X525000Y65000D03*
X262500Y64500D03*
X425000Y180000D03*
X75000Y65000D03*
X525000Y180000D03*
D13*
X350500Y322500D03*
X307500Y322500D03*
D14*
X345700Y401800D03*
X349300Y401800D03*
X349300Y398200D03*
X345700Y398200D03*
D13*
X335000Y370000D03*
X245000Y440000D03*
X245000Y480000D03*
D12*
X435000Y65000D03*
D15*
X323500Y440000D03*
D13*
X276500Y336000D03*
X380500Y336500D03*
X525000Y345000D03*
X525000Y256500D03*
X155000Y260000D03*
X276000Y260500D03*
X105000Y165000D03*
X540000Y635000D03*
X285000Y630000D03*
X330000Y565000D03*
X540000Y560000D03*
X440000Y445000D03*
X380500Y256500D03*
X440500Y256500D03*
D12*
X250000Y185000D03*
D13*
X600000Y160000D03*
X620000Y65000D03*
D12*
X415000Y25000D03*
D16*
X441564Y157500D02*
X500000Y157500D01*
D13*
X500000Y157500D03*
D16*
X480000Y210000D02*
X441564Y210000D01*
D12*
X480000Y210000D03*
D16*
X331000Y175000D02*
X331000Y174436D01*
X314064Y157500D01*
X264064Y157500D01*
D12*
X331000Y175000D03*
X365000Y157500D03*
D16*
X433436Y157500D01*
X255936Y157500D02*
X211958Y157500D01*
D12*
X211958Y157500D03*
D13*
X396500Y402500D03*
X396500Y358000D03*
D16*
X396500Y402500D01*
D14*
X340700Y393200D03*
D13*
X324500Y387500D03*
D16*
X330200Y393200D02*
X340700Y393200D01*
X330200Y393200D02*
X330200Y393200D01*
X324500Y387500D01*
D14*
X359300Y393200D03*
D13*
X385000Y370000D03*
D16*
X382500Y370000D02*
X359300Y393200D01*
X382500Y370000D02*
X385000Y370000D01*
D13*
X328500Y428000D03*
X370000Y550000D03*
D16*
X328500Y493500D02*
X328500Y428000D01*
X370000Y535000D02*
X370000Y550000D01*
X370000Y535000D02*
X328500Y493500D01*
D13*
X338000Y428000D03*
X395500Y550000D03*
D16*
X395500Y535500D01*
X338000Y478000D01*
X338000Y428000D01*
D13*
X347500Y428000D03*
X421000Y550000D03*
D16*
X347500Y467500D02*
X347500Y428000D01*
X421000Y541000D02*
X421000Y550000D01*
X421000Y541000D02*
X347500Y467500D01*
D13*
X357000Y428000D03*
X446000Y550000D03*
D16*
X357000Y457000D02*
X357000Y428000D01*
X357000Y457000D02*
X446000Y546000D01*
X446000Y550000D01*
D13*
X366500Y428000D03*
X471500Y550000D03*
D16*
X366500Y445000D02*
X366500Y428000D01*
X366500Y445000D02*
X471500Y550000D01*
D13*
X497000Y550000D03*
D16*
X378000Y431000D01*
D14*
X359300Y406800D03*
D16*
X359500Y407000D01*
X362000Y407000D01*
X378000Y423000D01*
X378000Y431000D01*
D14*
X340700Y406800D03*
D16*
X340500Y407000D01*
X263000Y407000D01*
X262500Y407500D01*
D13*
X262500Y407500D03*
X333000Y140000D03*
X369000Y175000D03*
D16*
X368318Y175000D01*
X333000Y140000D01*
X385000Y210000D02*
X433436Y210000D01*
X209000Y140000D02*
X194064Y154936D01*
X194064Y157500D01*
X209000Y140000D02*
X333000Y140000D01*
D12*
X385000Y210000D03*
D13*
X345000Y615000D03*
X385000Y630000D03*
X410000Y630000D03*
X435000Y630000D03*
D16*
X350000Y620000D02*
X345000Y615000D01*
X350000Y620000D02*
X385000Y620000D01*
X410000Y620000D01*
X430000Y620000D01*
X435000Y625000D02*
X435000Y630000D01*
X435000Y625000D02*
X430000Y620000D01*
X410000Y620000D02*
X410000Y630000D01*
X385000Y630000D02*
X385000Y620000D01*
D13*
X345000Y645000D03*
X360000Y630000D03*
X460000Y630000D03*
X485000Y630000D03*
D16*
X360000Y645000D02*
X345000Y645000D01*
X360000Y645000D02*
X460000Y645000D01*
X475000Y645000D01*
X485000Y635000D01*
X485000Y630000D01*
X460000Y630000D02*
X460000Y645000D01*
X360000Y645000D02*
X360000Y630000D01*
D14*
X359300Y398200D03*
D16*
X383815Y415274D02*
X415274Y415274D01*
X435000Y435000D01*
D12*
X435000Y435000D03*
D16*
X366741Y398200D02*
X359300Y398200D01*
X366741Y398200D02*
X383815Y415274D01*
X185936Y157500D02*
X138000Y157500D01*
D12*
X138000Y157500D03*
D14*
X354300Y406800D03*
D13*
X317500Y472500D03*
D17*
X317500Y423000D02*
X325500Y415000D01*
X346100Y415000D01*
D18*
X354300Y406800D01*
D17*
X317500Y423000D02*
X317500Y472500D01*
D12*
X395000Y240000D03*
D16*
X390000Y235000D01*
D12*
X280000Y230000D03*
D16*
X285000Y235000D01*
X390000Y235000D01*
M02*
