G04 EAGLE Gerber RS-274X export*
G75*
%MOMM*%
%FSLAX34Y34*%
%LPD*%
%INSilkscreen Bottom*%
%IPPOS*%
%AMOC8*
5,1,8,0,0,1.08239X$1,22.5*%
G01*
%ADD10C,0.152400*%
%ADD11C,0.076200*%
%ADD12C,0.127000*%


D10*
X446136Y220160D02*
X428864Y220160D01*
X448676Y202380D02*
X448674Y202280D01*
X448668Y202181D01*
X448658Y202081D01*
X448645Y201983D01*
X448627Y201884D01*
X448606Y201787D01*
X448581Y201691D01*
X448552Y201595D01*
X448519Y201501D01*
X448483Y201408D01*
X448443Y201317D01*
X448399Y201227D01*
X448352Y201139D01*
X448302Y201053D01*
X448248Y200969D01*
X448191Y200887D01*
X448131Y200808D01*
X448067Y200730D01*
X448001Y200656D01*
X447932Y200584D01*
X447860Y200515D01*
X447786Y200449D01*
X447708Y200385D01*
X447629Y200325D01*
X447547Y200268D01*
X447463Y200214D01*
X447377Y200164D01*
X447289Y200117D01*
X447199Y200073D01*
X447108Y200033D01*
X447015Y199997D01*
X446921Y199964D01*
X446825Y199935D01*
X446729Y199910D01*
X446632Y199889D01*
X446533Y199871D01*
X446435Y199858D01*
X446335Y199848D01*
X446236Y199842D01*
X446136Y199840D01*
X428864Y199840D02*
X428764Y199842D01*
X428665Y199848D01*
X428565Y199858D01*
X428467Y199871D01*
X428368Y199889D01*
X428271Y199910D01*
X428175Y199935D01*
X428079Y199964D01*
X427985Y199997D01*
X427892Y200033D01*
X427801Y200073D01*
X427711Y200117D01*
X427623Y200164D01*
X427537Y200214D01*
X427453Y200268D01*
X427371Y200325D01*
X427292Y200385D01*
X427214Y200449D01*
X427140Y200515D01*
X427068Y200584D01*
X426999Y200656D01*
X426933Y200730D01*
X426869Y200808D01*
X426809Y200887D01*
X426752Y200969D01*
X426698Y201053D01*
X426648Y201139D01*
X426601Y201227D01*
X426557Y201317D01*
X426517Y201408D01*
X426481Y201501D01*
X426448Y201595D01*
X426419Y201691D01*
X426394Y201787D01*
X426373Y201884D01*
X426355Y201983D01*
X426342Y202081D01*
X426332Y202181D01*
X426326Y202280D01*
X426324Y202380D01*
X426324Y217620D02*
X426326Y217720D01*
X426332Y217819D01*
X426342Y217919D01*
X426355Y218017D01*
X426373Y218116D01*
X426394Y218213D01*
X426419Y218309D01*
X426448Y218405D01*
X426481Y218499D01*
X426517Y218592D01*
X426557Y218683D01*
X426601Y218773D01*
X426648Y218861D01*
X426698Y218947D01*
X426752Y219031D01*
X426809Y219113D01*
X426869Y219192D01*
X426933Y219270D01*
X426999Y219344D01*
X427068Y219416D01*
X427140Y219485D01*
X427214Y219551D01*
X427292Y219615D01*
X427371Y219675D01*
X427453Y219732D01*
X427537Y219786D01*
X427623Y219836D01*
X427711Y219883D01*
X427801Y219927D01*
X427892Y219967D01*
X427985Y220003D01*
X428079Y220036D01*
X428175Y220065D01*
X428271Y220090D01*
X428368Y220111D01*
X428467Y220129D01*
X428565Y220142D01*
X428665Y220152D01*
X428764Y220158D01*
X428864Y220160D01*
X446136Y220160D02*
X446236Y220158D01*
X446335Y220152D01*
X446435Y220142D01*
X446533Y220129D01*
X446632Y220111D01*
X446729Y220090D01*
X446825Y220065D01*
X446921Y220036D01*
X447015Y220003D01*
X447108Y219967D01*
X447199Y219927D01*
X447289Y219883D01*
X447377Y219836D01*
X447463Y219786D01*
X447547Y219732D01*
X447629Y219675D01*
X447708Y219615D01*
X447786Y219551D01*
X447860Y219485D01*
X447932Y219416D01*
X448001Y219344D01*
X448067Y219270D01*
X448131Y219192D01*
X448191Y219113D01*
X448248Y219031D01*
X448302Y218947D01*
X448352Y218861D01*
X448399Y218773D01*
X448443Y218683D01*
X448483Y218592D01*
X448519Y218499D01*
X448552Y218405D01*
X448581Y218309D01*
X448606Y218213D01*
X448627Y218116D01*
X448645Y218017D01*
X448658Y217919D01*
X448668Y217819D01*
X448674Y217720D01*
X448676Y217620D01*
X448676Y202380D01*
X426324Y202380D02*
X426324Y217620D01*
X428864Y199840D02*
X446136Y199840D01*
D11*
X449772Y198189D02*
X449772Y192855D01*
X449772Y198189D02*
X448290Y198189D01*
X448215Y198187D01*
X448140Y198181D01*
X448066Y198172D01*
X447992Y198159D01*
X447919Y198142D01*
X447846Y198121D01*
X447775Y198097D01*
X447706Y198069D01*
X447637Y198038D01*
X447571Y198003D01*
X447506Y197965D01*
X447443Y197923D01*
X447383Y197879D01*
X447325Y197831D01*
X447269Y197781D01*
X447216Y197728D01*
X447166Y197672D01*
X447118Y197614D01*
X447074Y197554D01*
X447032Y197491D01*
X446994Y197426D01*
X446959Y197360D01*
X446928Y197291D01*
X446900Y197222D01*
X446876Y197151D01*
X446855Y197078D01*
X446838Y197005D01*
X446825Y196931D01*
X446816Y196857D01*
X446810Y196782D01*
X446808Y196707D01*
X446808Y194337D01*
X446810Y194262D01*
X446816Y194187D01*
X446825Y194113D01*
X446838Y194039D01*
X446855Y193966D01*
X446876Y193893D01*
X446900Y193822D01*
X446928Y193753D01*
X446959Y193684D01*
X446994Y193618D01*
X447032Y193553D01*
X447074Y193490D01*
X447118Y193430D01*
X447166Y193372D01*
X447216Y193316D01*
X447269Y193263D01*
X447325Y193213D01*
X447383Y193165D01*
X447443Y193121D01*
X447506Y193079D01*
X447571Y193041D01*
X447637Y193006D01*
X447706Y192975D01*
X447775Y192947D01*
X447846Y192923D01*
X447919Y192902D01*
X447992Y192885D01*
X448066Y192872D01*
X448140Y192863D01*
X448215Y192857D01*
X448290Y192855D01*
X449772Y192855D01*
X443919Y192855D02*
X443919Y198189D01*
X440956Y192855D01*
X440956Y198189D01*
X438502Y192262D02*
X436132Y192262D01*
X433574Y195818D02*
X432092Y195818D01*
X432092Y195819D02*
X432016Y195817D01*
X431940Y195811D01*
X431864Y195801D01*
X431789Y195788D01*
X431715Y195770D01*
X431641Y195749D01*
X431569Y195724D01*
X431499Y195695D01*
X431429Y195663D01*
X431362Y195627D01*
X431297Y195587D01*
X431233Y195545D01*
X431172Y195499D01*
X431114Y195450D01*
X431058Y195398D01*
X431004Y195344D01*
X430954Y195286D01*
X430907Y195227D01*
X430862Y195164D01*
X430821Y195100D01*
X430784Y195034D01*
X430750Y194965D01*
X430719Y194895D01*
X430692Y194824D01*
X430669Y194751D01*
X430650Y194677D01*
X430634Y194603D01*
X430622Y194527D01*
X430614Y194451D01*
X430610Y194375D01*
X430610Y194299D01*
X430614Y194223D01*
X430622Y194147D01*
X430634Y194071D01*
X430650Y193997D01*
X430669Y193923D01*
X430692Y193850D01*
X430719Y193779D01*
X430750Y193709D01*
X430784Y193640D01*
X430821Y193574D01*
X430862Y193510D01*
X430907Y193447D01*
X430954Y193388D01*
X431004Y193330D01*
X431058Y193276D01*
X431114Y193224D01*
X431172Y193175D01*
X431233Y193129D01*
X431297Y193087D01*
X431362Y193047D01*
X431429Y193011D01*
X431499Y192979D01*
X431569Y192950D01*
X431641Y192925D01*
X431715Y192904D01*
X431789Y192886D01*
X431864Y192873D01*
X431940Y192863D01*
X432016Y192857D01*
X432092Y192855D01*
X433574Y192855D01*
X433574Y198189D01*
X432092Y198189D01*
X432024Y198187D01*
X431957Y198181D01*
X431890Y198172D01*
X431824Y198158D01*
X431758Y198141D01*
X431694Y198120D01*
X431631Y198096D01*
X431569Y198067D01*
X431509Y198036D01*
X431451Y198001D01*
X431395Y197963D01*
X431342Y197921D01*
X431291Y197877D01*
X431242Y197830D01*
X431196Y197780D01*
X431154Y197728D01*
X431114Y197673D01*
X431077Y197616D01*
X431044Y197557D01*
X431014Y197496D01*
X430988Y197434D01*
X430965Y197370D01*
X430946Y197305D01*
X430931Y197239D01*
X430919Y197173D01*
X430911Y197105D01*
X430907Y197038D01*
X430907Y196970D01*
X430911Y196903D01*
X430919Y196835D01*
X430931Y196769D01*
X430946Y196703D01*
X430965Y196638D01*
X430988Y196574D01*
X431014Y196512D01*
X431044Y196451D01*
X431077Y196392D01*
X431114Y196335D01*
X431154Y196280D01*
X431196Y196228D01*
X431242Y196178D01*
X431291Y196131D01*
X431342Y196087D01*
X431395Y196045D01*
X431451Y196007D01*
X431509Y195972D01*
X431569Y195941D01*
X431631Y195912D01*
X431694Y195888D01*
X431758Y195867D01*
X431824Y195850D01*
X431890Y195836D01*
X431957Y195827D01*
X432024Y195821D01*
X432092Y195819D01*
X428192Y198189D02*
X428192Y192855D01*
X425229Y192855D02*
X428192Y198189D01*
X425229Y198189D02*
X425229Y192855D01*
D10*
X428864Y167660D02*
X446136Y167660D01*
X448676Y149880D02*
X448674Y149780D01*
X448668Y149681D01*
X448658Y149581D01*
X448645Y149483D01*
X448627Y149384D01*
X448606Y149287D01*
X448581Y149191D01*
X448552Y149095D01*
X448519Y149001D01*
X448483Y148908D01*
X448443Y148817D01*
X448399Y148727D01*
X448352Y148639D01*
X448302Y148553D01*
X448248Y148469D01*
X448191Y148387D01*
X448131Y148308D01*
X448067Y148230D01*
X448001Y148156D01*
X447932Y148084D01*
X447860Y148015D01*
X447786Y147949D01*
X447708Y147885D01*
X447629Y147825D01*
X447547Y147768D01*
X447463Y147714D01*
X447377Y147664D01*
X447289Y147617D01*
X447199Y147573D01*
X447108Y147533D01*
X447015Y147497D01*
X446921Y147464D01*
X446825Y147435D01*
X446729Y147410D01*
X446632Y147389D01*
X446533Y147371D01*
X446435Y147358D01*
X446335Y147348D01*
X446236Y147342D01*
X446136Y147340D01*
X428864Y147340D02*
X428764Y147342D01*
X428665Y147348D01*
X428565Y147358D01*
X428467Y147371D01*
X428368Y147389D01*
X428271Y147410D01*
X428175Y147435D01*
X428079Y147464D01*
X427985Y147497D01*
X427892Y147533D01*
X427801Y147573D01*
X427711Y147617D01*
X427623Y147664D01*
X427537Y147714D01*
X427453Y147768D01*
X427371Y147825D01*
X427292Y147885D01*
X427214Y147949D01*
X427140Y148015D01*
X427068Y148084D01*
X426999Y148156D01*
X426933Y148230D01*
X426869Y148308D01*
X426809Y148387D01*
X426752Y148469D01*
X426698Y148553D01*
X426648Y148639D01*
X426601Y148727D01*
X426557Y148817D01*
X426517Y148908D01*
X426481Y149001D01*
X426448Y149095D01*
X426419Y149191D01*
X426394Y149287D01*
X426373Y149384D01*
X426355Y149483D01*
X426342Y149581D01*
X426332Y149681D01*
X426326Y149780D01*
X426324Y149880D01*
X426324Y165120D02*
X426326Y165220D01*
X426332Y165319D01*
X426342Y165419D01*
X426355Y165517D01*
X426373Y165616D01*
X426394Y165713D01*
X426419Y165809D01*
X426448Y165905D01*
X426481Y165999D01*
X426517Y166092D01*
X426557Y166183D01*
X426601Y166273D01*
X426648Y166361D01*
X426698Y166447D01*
X426752Y166531D01*
X426809Y166613D01*
X426869Y166692D01*
X426933Y166770D01*
X426999Y166844D01*
X427068Y166916D01*
X427140Y166985D01*
X427214Y167051D01*
X427292Y167115D01*
X427371Y167175D01*
X427453Y167232D01*
X427537Y167286D01*
X427623Y167336D01*
X427711Y167383D01*
X427801Y167427D01*
X427892Y167467D01*
X427985Y167503D01*
X428079Y167536D01*
X428175Y167565D01*
X428271Y167590D01*
X428368Y167611D01*
X428467Y167629D01*
X428565Y167642D01*
X428665Y167652D01*
X428764Y167658D01*
X428864Y167660D01*
X446136Y167660D02*
X446236Y167658D01*
X446335Y167652D01*
X446435Y167642D01*
X446533Y167629D01*
X446632Y167611D01*
X446729Y167590D01*
X446825Y167565D01*
X446921Y167536D01*
X447015Y167503D01*
X447108Y167467D01*
X447199Y167427D01*
X447289Y167383D01*
X447377Y167336D01*
X447463Y167286D01*
X447547Y167232D01*
X447629Y167175D01*
X447708Y167115D01*
X447786Y167051D01*
X447860Y166985D01*
X447932Y166916D01*
X448001Y166844D01*
X448067Y166770D01*
X448131Y166692D01*
X448191Y166613D01*
X448248Y166531D01*
X448302Y166447D01*
X448352Y166361D01*
X448399Y166273D01*
X448443Y166183D01*
X448483Y166092D01*
X448519Y165999D01*
X448552Y165905D01*
X448581Y165809D01*
X448606Y165713D01*
X448627Y165616D01*
X448645Y165517D01*
X448658Y165419D01*
X448668Y165319D01*
X448674Y165220D01*
X448676Y165120D01*
X448676Y149880D01*
X426324Y149880D02*
X426324Y165120D01*
X428864Y147340D02*
X446136Y147340D01*
D12*
X449521Y145435D02*
X449521Y140609D01*
X449521Y145435D02*
X448180Y145435D01*
X448110Y145433D01*
X448040Y145428D01*
X447970Y145418D01*
X447901Y145406D01*
X447833Y145389D01*
X447766Y145369D01*
X447699Y145346D01*
X447635Y145319D01*
X447571Y145289D01*
X447510Y145255D01*
X447450Y145219D01*
X447392Y145179D01*
X447336Y145136D01*
X447283Y145091D01*
X447232Y145042D01*
X447183Y144991D01*
X447138Y144938D01*
X447095Y144882D01*
X447055Y144824D01*
X447019Y144765D01*
X446985Y144703D01*
X446955Y144639D01*
X446928Y144575D01*
X446905Y144508D01*
X446885Y144441D01*
X446868Y144373D01*
X446856Y144304D01*
X446846Y144234D01*
X446841Y144164D01*
X446839Y144094D01*
X446840Y144094D02*
X446840Y141950D01*
X446839Y141950D02*
X446841Y141880D01*
X446846Y141810D01*
X446856Y141740D01*
X446868Y141671D01*
X446885Y141603D01*
X446905Y141536D01*
X446928Y141469D01*
X446955Y141405D01*
X446985Y141341D01*
X447019Y141280D01*
X447055Y141220D01*
X447095Y141162D01*
X447138Y141106D01*
X447183Y141053D01*
X447232Y141002D01*
X447283Y140953D01*
X447336Y140908D01*
X447392Y140865D01*
X447450Y140825D01*
X447510Y140789D01*
X447571Y140755D01*
X447635Y140725D01*
X447699Y140698D01*
X447766Y140675D01*
X447833Y140655D01*
X447901Y140638D01*
X447970Y140626D01*
X448040Y140616D01*
X448110Y140611D01*
X448180Y140609D01*
X449521Y140609D01*
X443522Y140609D02*
X443522Y145435D01*
X442182Y145435D01*
X442111Y145433D01*
X442039Y145427D01*
X441969Y145418D01*
X441899Y145405D01*
X441829Y145388D01*
X441761Y145367D01*
X441694Y145343D01*
X441628Y145315D01*
X441564Y145284D01*
X441501Y145249D01*
X441441Y145211D01*
X441382Y145170D01*
X441326Y145126D01*
X441272Y145079D01*
X441221Y145030D01*
X441173Y144977D01*
X441127Y144922D01*
X441085Y144865D01*
X441045Y144805D01*
X441009Y144744D01*
X440976Y144680D01*
X440947Y144615D01*
X440921Y144549D01*
X440898Y144481D01*
X440879Y144412D01*
X440864Y144342D01*
X440853Y144272D01*
X440845Y144201D01*
X440841Y144130D01*
X440841Y144058D01*
X440845Y143987D01*
X440853Y143916D01*
X440864Y143846D01*
X440879Y143776D01*
X440898Y143707D01*
X440921Y143639D01*
X440947Y143573D01*
X440976Y143508D01*
X441009Y143444D01*
X441045Y143383D01*
X441085Y143323D01*
X441127Y143266D01*
X441173Y143211D01*
X441221Y143158D01*
X441272Y143109D01*
X441326Y143062D01*
X441382Y143018D01*
X441441Y142977D01*
X441501Y142939D01*
X441564Y142904D01*
X441628Y142873D01*
X441694Y142845D01*
X441761Y142821D01*
X441829Y142800D01*
X441899Y142783D01*
X441969Y142770D01*
X442039Y142761D01*
X442111Y142755D01*
X442182Y142753D01*
X442182Y142754D02*
X443522Y142754D01*
X438646Y140073D02*
X436501Y140073D01*
X433647Y143290D02*
X432306Y143290D01*
X432306Y143291D02*
X432235Y143289D01*
X432163Y143283D01*
X432093Y143274D01*
X432023Y143261D01*
X431953Y143244D01*
X431885Y143223D01*
X431818Y143199D01*
X431752Y143171D01*
X431688Y143140D01*
X431625Y143105D01*
X431565Y143067D01*
X431506Y143026D01*
X431450Y142982D01*
X431396Y142935D01*
X431345Y142886D01*
X431297Y142833D01*
X431251Y142778D01*
X431209Y142721D01*
X431169Y142661D01*
X431133Y142600D01*
X431100Y142536D01*
X431071Y142471D01*
X431045Y142405D01*
X431022Y142337D01*
X431003Y142268D01*
X430988Y142198D01*
X430977Y142128D01*
X430969Y142057D01*
X430965Y141986D01*
X430965Y141914D01*
X430969Y141843D01*
X430977Y141772D01*
X430988Y141702D01*
X431003Y141632D01*
X431022Y141563D01*
X431045Y141495D01*
X431071Y141429D01*
X431100Y141364D01*
X431133Y141300D01*
X431169Y141239D01*
X431209Y141179D01*
X431251Y141122D01*
X431297Y141067D01*
X431345Y141014D01*
X431396Y140965D01*
X431450Y140918D01*
X431506Y140874D01*
X431565Y140833D01*
X431625Y140795D01*
X431688Y140760D01*
X431752Y140729D01*
X431818Y140701D01*
X431885Y140677D01*
X431953Y140656D01*
X432023Y140639D01*
X432093Y140626D01*
X432163Y140617D01*
X432235Y140611D01*
X432306Y140609D01*
X433647Y140609D01*
X433647Y145435D01*
X432306Y145435D01*
X432241Y145433D01*
X432177Y145427D01*
X432113Y145417D01*
X432049Y145404D01*
X431987Y145386D01*
X431926Y145365D01*
X431866Y145341D01*
X431808Y145312D01*
X431751Y145280D01*
X431697Y145245D01*
X431645Y145207D01*
X431595Y145165D01*
X431548Y145121D01*
X431504Y145074D01*
X431462Y145024D01*
X431424Y144972D01*
X431389Y144918D01*
X431357Y144861D01*
X431328Y144803D01*
X431304Y144743D01*
X431283Y144682D01*
X431265Y144620D01*
X431252Y144556D01*
X431242Y144492D01*
X431236Y144428D01*
X431234Y144363D01*
X431236Y144298D01*
X431242Y144234D01*
X431252Y144170D01*
X431265Y144106D01*
X431283Y144044D01*
X431304Y143983D01*
X431328Y143923D01*
X431357Y143865D01*
X431389Y143808D01*
X431424Y143754D01*
X431462Y143702D01*
X431504Y143652D01*
X431548Y143605D01*
X431595Y143561D01*
X431645Y143519D01*
X431697Y143481D01*
X431751Y143446D01*
X431808Y143414D01*
X431866Y143385D01*
X431926Y143361D01*
X431987Y143340D01*
X432049Y143322D01*
X432113Y143309D01*
X432177Y143299D01*
X432241Y143293D01*
X432306Y143291D01*
X428160Y145435D02*
X428160Y140609D01*
X428160Y145435D02*
X426820Y145435D01*
X426749Y145433D01*
X426677Y145427D01*
X426607Y145418D01*
X426537Y145405D01*
X426467Y145388D01*
X426399Y145367D01*
X426332Y145343D01*
X426266Y145315D01*
X426202Y145284D01*
X426139Y145249D01*
X426079Y145211D01*
X426020Y145170D01*
X425964Y145126D01*
X425910Y145079D01*
X425859Y145030D01*
X425811Y144977D01*
X425765Y144922D01*
X425723Y144865D01*
X425683Y144805D01*
X425647Y144744D01*
X425614Y144680D01*
X425585Y144615D01*
X425559Y144549D01*
X425536Y144481D01*
X425517Y144412D01*
X425502Y144342D01*
X425491Y144272D01*
X425483Y144201D01*
X425479Y144130D01*
X425479Y144058D01*
X425483Y143987D01*
X425491Y143916D01*
X425502Y143846D01*
X425517Y143776D01*
X425536Y143707D01*
X425559Y143639D01*
X425585Y143573D01*
X425614Y143508D01*
X425647Y143444D01*
X425683Y143383D01*
X425723Y143323D01*
X425765Y143266D01*
X425811Y143211D01*
X425859Y143158D01*
X425910Y143109D01*
X425964Y143062D01*
X426020Y143018D01*
X426079Y142977D01*
X426139Y142939D01*
X426202Y142904D01*
X426266Y142873D01*
X426332Y142845D01*
X426399Y142821D01*
X426467Y142800D01*
X426537Y142783D01*
X426607Y142770D01*
X426677Y142761D01*
X426749Y142755D01*
X426820Y142753D01*
X426820Y142754D02*
X428160Y142754D01*
D10*
X268636Y167660D02*
X251364Y167660D01*
X271176Y149880D02*
X271174Y149780D01*
X271168Y149681D01*
X271158Y149581D01*
X271145Y149483D01*
X271127Y149384D01*
X271106Y149287D01*
X271081Y149191D01*
X271052Y149095D01*
X271019Y149001D01*
X270983Y148908D01*
X270943Y148817D01*
X270899Y148727D01*
X270852Y148639D01*
X270802Y148553D01*
X270748Y148469D01*
X270691Y148387D01*
X270631Y148308D01*
X270567Y148230D01*
X270501Y148156D01*
X270432Y148084D01*
X270360Y148015D01*
X270286Y147949D01*
X270208Y147885D01*
X270129Y147825D01*
X270047Y147768D01*
X269963Y147714D01*
X269877Y147664D01*
X269789Y147617D01*
X269699Y147573D01*
X269608Y147533D01*
X269515Y147497D01*
X269421Y147464D01*
X269325Y147435D01*
X269229Y147410D01*
X269132Y147389D01*
X269033Y147371D01*
X268935Y147358D01*
X268835Y147348D01*
X268736Y147342D01*
X268636Y147340D01*
X251364Y147340D02*
X251264Y147342D01*
X251165Y147348D01*
X251065Y147358D01*
X250967Y147371D01*
X250868Y147389D01*
X250771Y147410D01*
X250675Y147435D01*
X250579Y147464D01*
X250485Y147497D01*
X250392Y147533D01*
X250301Y147573D01*
X250211Y147617D01*
X250123Y147664D01*
X250037Y147714D01*
X249953Y147768D01*
X249871Y147825D01*
X249792Y147885D01*
X249714Y147949D01*
X249640Y148015D01*
X249568Y148084D01*
X249499Y148156D01*
X249433Y148230D01*
X249369Y148308D01*
X249309Y148387D01*
X249252Y148469D01*
X249198Y148553D01*
X249148Y148639D01*
X249101Y148727D01*
X249057Y148817D01*
X249017Y148908D01*
X248981Y149001D01*
X248948Y149095D01*
X248919Y149191D01*
X248894Y149287D01*
X248873Y149384D01*
X248855Y149483D01*
X248842Y149581D01*
X248832Y149681D01*
X248826Y149780D01*
X248824Y149880D01*
X248824Y165120D02*
X248826Y165220D01*
X248832Y165319D01*
X248842Y165419D01*
X248855Y165517D01*
X248873Y165616D01*
X248894Y165713D01*
X248919Y165809D01*
X248948Y165905D01*
X248981Y165999D01*
X249017Y166092D01*
X249057Y166183D01*
X249101Y166273D01*
X249148Y166361D01*
X249198Y166447D01*
X249252Y166531D01*
X249309Y166613D01*
X249369Y166692D01*
X249433Y166770D01*
X249499Y166844D01*
X249568Y166916D01*
X249640Y166985D01*
X249714Y167051D01*
X249792Y167115D01*
X249871Y167175D01*
X249953Y167232D01*
X250037Y167286D01*
X250123Y167336D01*
X250211Y167383D01*
X250301Y167427D01*
X250392Y167467D01*
X250485Y167503D01*
X250579Y167536D01*
X250675Y167565D01*
X250771Y167590D01*
X250868Y167611D01*
X250967Y167629D01*
X251065Y167642D01*
X251165Y167652D01*
X251264Y167658D01*
X251364Y167660D01*
X268636Y167660D02*
X268736Y167658D01*
X268835Y167652D01*
X268935Y167642D01*
X269033Y167629D01*
X269132Y167611D01*
X269229Y167590D01*
X269325Y167565D01*
X269421Y167536D01*
X269515Y167503D01*
X269608Y167467D01*
X269699Y167427D01*
X269789Y167383D01*
X269877Y167336D01*
X269963Y167286D01*
X270047Y167232D01*
X270129Y167175D01*
X270208Y167115D01*
X270286Y167051D01*
X270360Y166985D01*
X270432Y166916D01*
X270501Y166844D01*
X270567Y166770D01*
X270631Y166692D01*
X270691Y166613D01*
X270748Y166531D01*
X270802Y166447D01*
X270852Y166361D01*
X270899Y166273D01*
X270943Y166183D01*
X270983Y166092D01*
X271019Y165999D01*
X271052Y165905D01*
X271081Y165809D01*
X271106Y165713D01*
X271127Y165616D01*
X271145Y165517D01*
X271158Y165419D01*
X271168Y165319D01*
X271174Y165220D01*
X271176Y165120D01*
X271176Y149880D01*
X248824Y149880D02*
X248824Y165120D01*
X251364Y147340D02*
X268636Y147340D01*
D12*
X269317Y140609D02*
X271462Y140609D01*
X271462Y145435D01*
X269317Y145435D01*
X269854Y143290D02*
X271462Y143290D01*
X266581Y145435D02*
X266581Y140609D01*
X266581Y145435D02*
X265240Y145435D01*
X265169Y145433D01*
X265097Y145427D01*
X265027Y145418D01*
X264957Y145405D01*
X264887Y145388D01*
X264819Y145367D01*
X264752Y145343D01*
X264686Y145315D01*
X264622Y145284D01*
X264559Y145249D01*
X264499Y145211D01*
X264440Y145170D01*
X264384Y145126D01*
X264330Y145079D01*
X264279Y145030D01*
X264231Y144977D01*
X264185Y144922D01*
X264143Y144865D01*
X264103Y144805D01*
X264067Y144744D01*
X264034Y144680D01*
X264005Y144615D01*
X263979Y144549D01*
X263956Y144481D01*
X263937Y144412D01*
X263922Y144342D01*
X263911Y144272D01*
X263903Y144201D01*
X263899Y144130D01*
X263899Y144058D01*
X263903Y143987D01*
X263911Y143916D01*
X263922Y143846D01*
X263937Y143776D01*
X263956Y143707D01*
X263979Y143639D01*
X264005Y143573D01*
X264034Y143508D01*
X264067Y143444D01*
X264103Y143383D01*
X264143Y143323D01*
X264185Y143266D01*
X264231Y143211D01*
X264279Y143158D01*
X264330Y143109D01*
X264384Y143062D01*
X264440Y143018D01*
X264499Y142977D01*
X264559Y142939D01*
X264622Y142904D01*
X264686Y142873D01*
X264752Y142845D01*
X264819Y142821D01*
X264887Y142800D01*
X264957Y142783D01*
X265027Y142770D01*
X265097Y142761D01*
X265169Y142755D01*
X265240Y142753D01*
X265240Y142754D02*
X266581Y142754D01*
X261704Y140073D02*
X259559Y140073D01*
X256705Y143290D02*
X255365Y143290D01*
X255365Y143291D02*
X255294Y143289D01*
X255222Y143283D01*
X255152Y143274D01*
X255082Y143261D01*
X255012Y143244D01*
X254944Y143223D01*
X254877Y143199D01*
X254811Y143171D01*
X254747Y143140D01*
X254684Y143105D01*
X254624Y143067D01*
X254565Y143026D01*
X254509Y142982D01*
X254455Y142935D01*
X254404Y142886D01*
X254356Y142833D01*
X254310Y142778D01*
X254268Y142721D01*
X254228Y142661D01*
X254192Y142600D01*
X254159Y142536D01*
X254130Y142471D01*
X254104Y142405D01*
X254081Y142337D01*
X254062Y142268D01*
X254047Y142198D01*
X254036Y142128D01*
X254028Y142057D01*
X254024Y141986D01*
X254024Y141914D01*
X254028Y141843D01*
X254036Y141772D01*
X254047Y141702D01*
X254062Y141632D01*
X254081Y141563D01*
X254104Y141495D01*
X254130Y141429D01*
X254159Y141364D01*
X254192Y141300D01*
X254228Y141239D01*
X254268Y141179D01*
X254310Y141122D01*
X254356Y141067D01*
X254404Y141014D01*
X254455Y140965D01*
X254509Y140918D01*
X254565Y140874D01*
X254624Y140833D01*
X254684Y140795D01*
X254747Y140760D01*
X254811Y140729D01*
X254877Y140701D01*
X254944Y140677D01*
X255012Y140656D01*
X255082Y140639D01*
X255152Y140626D01*
X255222Y140617D01*
X255294Y140611D01*
X255365Y140609D01*
X256705Y140609D01*
X256705Y145435D01*
X255365Y145435D01*
X255300Y145433D01*
X255236Y145427D01*
X255172Y145417D01*
X255108Y145404D01*
X255046Y145386D01*
X254985Y145365D01*
X254925Y145341D01*
X254867Y145312D01*
X254810Y145280D01*
X254756Y145245D01*
X254704Y145207D01*
X254654Y145165D01*
X254607Y145121D01*
X254563Y145074D01*
X254521Y145024D01*
X254483Y144972D01*
X254448Y144918D01*
X254416Y144861D01*
X254387Y144803D01*
X254363Y144743D01*
X254342Y144682D01*
X254324Y144620D01*
X254311Y144556D01*
X254301Y144492D01*
X254295Y144428D01*
X254293Y144363D01*
X254295Y144298D01*
X254301Y144234D01*
X254311Y144170D01*
X254324Y144106D01*
X254342Y144044D01*
X254363Y143983D01*
X254387Y143923D01*
X254416Y143865D01*
X254448Y143808D01*
X254483Y143754D01*
X254521Y143702D01*
X254563Y143652D01*
X254607Y143605D01*
X254654Y143561D01*
X254704Y143519D01*
X254756Y143481D01*
X254810Y143446D01*
X254867Y143414D01*
X254925Y143385D01*
X254985Y143361D01*
X255046Y143340D01*
X255108Y143322D01*
X255172Y143309D01*
X255236Y143299D01*
X255300Y143293D01*
X255365Y143291D01*
X251219Y145435D02*
X251219Y140609D01*
X251219Y145435D02*
X249878Y145435D01*
X249807Y145433D01*
X249735Y145427D01*
X249665Y145418D01*
X249595Y145405D01*
X249525Y145388D01*
X249457Y145367D01*
X249390Y145343D01*
X249324Y145315D01*
X249260Y145284D01*
X249197Y145249D01*
X249137Y145211D01*
X249078Y145170D01*
X249022Y145126D01*
X248968Y145079D01*
X248917Y145030D01*
X248869Y144977D01*
X248823Y144922D01*
X248781Y144865D01*
X248741Y144805D01*
X248705Y144744D01*
X248672Y144680D01*
X248643Y144615D01*
X248617Y144549D01*
X248594Y144481D01*
X248575Y144412D01*
X248560Y144342D01*
X248549Y144272D01*
X248541Y144201D01*
X248537Y144130D01*
X248537Y144058D01*
X248541Y143987D01*
X248549Y143916D01*
X248560Y143846D01*
X248575Y143776D01*
X248594Y143707D01*
X248617Y143639D01*
X248643Y143573D01*
X248672Y143508D01*
X248705Y143444D01*
X248741Y143383D01*
X248781Y143323D01*
X248823Y143266D01*
X248869Y143211D01*
X248917Y143158D01*
X248968Y143109D01*
X249022Y143062D01*
X249078Y143018D01*
X249137Y142977D01*
X249197Y142939D01*
X249260Y142904D01*
X249324Y142873D01*
X249390Y142845D01*
X249457Y142821D01*
X249525Y142800D01*
X249595Y142783D01*
X249665Y142770D01*
X249735Y142761D01*
X249807Y142755D01*
X249878Y142753D01*
X249878Y142754D02*
X251219Y142754D01*
D10*
X198636Y167660D02*
X181364Y167660D01*
X201176Y149880D02*
X201174Y149780D01*
X201168Y149681D01*
X201158Y149581D01*
X201145Y149483D01*
X201127Y149384D01*
X201106Y149287D01*
X201081Y149191D01*
X201052Y149095D01*
X201019Y149001D01*
X200983Y148908D01*
X200943Y148817D01*
X200899Y148727D01*
X200852Y148639D01*
X200802Y148553D01*
X200748Y148469D01*
X200691Y148387D01*
X200631Y148308D01*
X200567Y148230D01*
X200501Y148156D01*
X200432Y148084D01*
X200360Y148015D01*
X200286Y147949D01*
X200208Y147885D01*
X200129Y147825D01*
X200047Y147768D01*
X199963Y147714D01*
X199877Y147664D01*
X199789Y147617D01*
X199699Y147573D01*
X199608Y147533D01*
X199515Y147497D01*
X199421Y147464D01*
X199325Y147435D01*
X199229Y147410D01*
X199132Y147389D01*
X199033Y147371D01*
X198935Y147358D01*
X198835Y147348D01*
X198736Y147342D01*
X198636Y147340D01*
X181364Y147340D02*
X181264Y147342D01*
X181165Y147348D01*
X181065Y147358D01*
X180967Y147371D01*
X180868Y147389D01*
X180771Y147410D01*
X180675Y147435D01*
X180579Y147464D01*
X180485Y147497D01*
X180392Y147533D01*
X180301Y147573D01*
X180211Y147617D01*
X180123Y147664D01*
X180037Y147714D01*
X179953Y147768D01*
X179871Y147825D01*
X179792Y147885D01*
X179714Y147949D01*
X179640Y148015D01*
X179568Y148084D01*
X179499Y148156D01*
X179433Y148230D01*
X179369Y148308D01*
X179309Y148387D01*
X179252Y148469D01*
X179198Y148553D01*
X179148Y148639D01*
X179101Y148727D01*
X179057Y148817D01*
X179017Y148908D01*
X178981Y149001D01*
X178948Y149095D01*
X178919Y149191D01*
X178894Y149287D01*
X178873Y149384D01*
X178855Y149483D01*
X178842Y149581D01*
X178832Y149681D01*
X178826Y149780D01*
X178824Y149880D01*
X178824Y165120D02*
X178826Y165220D01*
X178832Y165319D01*
X178842Y165419D01*
X178855Y165517D01*
X178873Y165616D01*
X178894Y165713D01*
X178919Y165809D01*
X178948Y165905D01*
X178981Y165999D01*
X179017Y166092D01*
X179057Y166183D01*
X179101Y166273D01*
X179148Y166361D01*
X179198Y166447D01*
X179252Y166531D01*
X179309Y166613D01*
X179369Y166692D01*
X179433Y166770D01*
X179499Y166844D01*
X179568Y166916D01*
X179640Y166985D01*
X179714Y167051D01*
X179792Y167115D01*
X179871Y167175D01*
X179953Y167232D01*
X180037Y167286D01*
X180123Y167336D01*
X180211Y167383D01*
X180301Y167427D01*
X180392Y167467D01*
X180485Y167503D01*
X180579Y167536D01*
X180675Y167565D01*
X180771Y167590D01*
X180868Y167611D01*
X180967Y167629D01*
X181065Y167642D01*
X181165Y167652D01*
X181264Y167658D01*
X181364Y167660D01*
X198636Y167660D02*
X198736Y167658D01*
X198835Y167652D01*
X198935Y167642D01*
X199033Y167629D01*
X199132Y167611D01*
X199229Y167590D01*
X199325Y167565D01*
X199421Y167536D01*
X199515Y167503D01*
X199608Y167467D01*
X199699Y167427D01*
X199789Y167383D01*
X199877Y167336D01*
X199963Y167286D01*
X200047Y167232D01*
X200129Y167175D01*
X200208Y167115D01*
X200286Y167051D01*
X200360Y166985D01*
X200432Y166916D01*
X200501Y166844D01*
X200567Y166770D01*
X200631Y166692D01*
X200691Y166613D01*
X200748Y166531D01*
X200802Y166447D01*
X200852Y166361D01*
X200899Y166273D01*
X200943Y166183D01*
X200983Y166092D01*
X201019Y165999D01*
X201052Y165905D01*
X201081Y165809D01*
X201106Y165713D01*
X201127Y165616D01*
X201145Y165517D01*
X201158Y165419D01*
X201168Y165319D01*
X201174Y165220D01*
X201176Y165120D01*
X201176Y149880D01*
X178824Y149880D02*
X178824Y165120D01*
X181364Y147340D02*
X198636Y147340D01*
D12*
X199427Y140609D02*
X201572Y140609D01*
X201572Y145435D01*
X199427Y145435D01*
X199963Y143290D02*
X201572Y143290D01*
X196837Y145435D02*
X196837Y140609D01*
X194156Y140609D02*
X196837Y145435D01*
X194156Y145435D02*
X194156Y140609D01*
X191448Y140073D02*
X189303Y140073D01*
X186449Y143290D02*
X185108Y143290D01*
X185108Y143291D02*
X185037Y143289D01*
X184965Y143283D01*
X184895Y143274D01*
X184825Y143261D01*
X184755Y143244D01*
X184687Y143223D01*
X184620Y143199D01*
X184554Y143171D01*
X184490Y143140D01*
X184427Y143105D01*
X184367Y143067D01*
X184308Y143026D01*
X184252Y142982D01*
X184198Y142935D01*
X184147Y142886D01*
X184099Y142833D01*
X184053Y142778D01*
X184011Y142721D01*
X183971Y142661D01*
X183935Y142600D01*
X183902Y142536D01*
X183873Y142471D01*
X183847Y142405D01*
X183824Y142337D01*
X183805Y142268D01*
X183790Y142198D01*
X183779Y142128D01*
X183771Y142057D01*
X183767Y141986D01*
X183767Y141914D01*
X183771Y141843D01*
X183779Y141772D01*
X183790Y141702D01*
X183805Y141632D01*
X183824Y141563D01*
X183847Y141495D01*
X183873Y141429D01*
X183902Y141364D01*
X183935Y141300D01*
X183971Y141239D01*
X184011Y141179D01*
X184053Y141122D01*
X184099Y141067D01*
X184147Y141014D01*
X184198Y140965D01*
X184252Y140918D01*
X184308Y140874D01*
X184367Y140833D01*
X184427Y140795D01*
X184490Y140760D01*
X184554Y140729D01*
X184620Y140701D01*
X184687Y140677D01*
X184755Y140656D01*
X184825Y140639D01*
X184895Y140626D01*
X184965Y140617D01*
X185037Y140611D01*
X185108Y140609D01*
X186449Y140609D01*
X186449Y145435D01*
X185108Y145435D01*
X185043Y145433D01*
X184979Y145427D01*
X184915Y145417D01*
X184851Y145404D01*
X184789Y145386D01*
X184728Y145365D01*
X184668Y145341D01*
X184610Y145312D01*
X184553Y145280D01*
X184499Y145245D01*
X184447Y145207D01*
X184397Y145165D01*
X184350Y145121D01*
X184306Y145074D01*
X184264Y145024D01*
X184226Y144972D01*
X184191Y144918D01*
X184159Y144861D01*
X184130Y144803D01*
X184106Y144743D01*
X184085Y144682D01*
X184067Y144620D01*
X184054Y144556D01*
X184044Y144492D01*
X184038Y144428D01*
X184036Y144363D01*
X184038Y144298D01*
X184044Y144234D01*
X184054Y144170D01*
X184067Y144106D01*
X184085Y144044D01*
X184106Y143983D01*
X184130Y143923D01*
X184159Y143865D01*
X184191Y143808D01*
X184226Y143754D01*
X184264Y143702D01*
X184306Y143652D01*
X184350Y143605D01*
X184397Y143561D01*
X184447Y143519D01*
X184499Y143481D01*
X184553Y143446D01*
X184610Y143414D01*
X184668Y143385D01*
X184728Y143361D01*
X184789Y143340D01*
X184851Y143322D01*
X184915Y143309D01*
X184979Y143299D01*
X185043Y143293D01*
X185108Y143291D01*
X181109Y145435D02*
X181109Y140609D01*
X178428Y140609D02*
X181109Y145435D01*
X178428Y145435D02*
X178428Y140609D01*
M02*
