G04 EAGLE Gerber RS-274X export*
G75*
%MOMM*%
%FSLAX34Y34*%
%LPD*%
%INSolderpaste Top*%
%IPPOS*%
%AMOC8*
5,1,8,0,0,1.08239X$1,22.5*%
G01*
%ADD10R,2.800000X2.200000*%
%ADD11R,2.800000X2.800000*%
%ADD12R,1.000000X1.100000*%
%ADD13R,0.800000X0.800000*%
%ADD14R,2.235200X2.489200*%
%ADD15C,0.249938*%
%ADD16R,1.100000X1.000000*%
%ADD17R,1.200000X0.550000*%
%ADD18R,0.470000X0.600000*%
%ADD19R,2.489200X2.235200*%


D10*
X313000Y44000D03*
X387000Y24000D03*
D11*
X387000Y118000D03*
D10*
X488000Y44000D03*
X562000Y24000D03*
D11*
X562000Y118000D03*
D10*
X138000Y44000D03*
X212000Y24000D03*
D11*
X212000Y118000D03*
D12*
X75000Y141500D03*
X75000Y158500D03*
D13*
X75000Y112500D03*
X75000Y127500D03*
D14*
X75000Y97000D03*
D15*
X362500Y390000D03*
X357500Y390000D03*
X352500Y390000D03*
X347500Y390000D03*
X342500Y390000D03*
X337500Y390000D03*
X362500Y395000D03*
X357500Y395000D03*
X352500Y395000D03*
X347500Y395000D03*
X342500Y395000D03*
X337500Y395000D03*
X362500Y400000D03*
X357500Y400000D03*
X352500Y400000D03*
X347500Y400000D03*
X342500Y400000D03*
X337500Y400000D03*
X362500Y405000D03*
X357500Y405000D03*
X352500Y405000D03*
X347500Y405000D03*
X342500Y405000D03*
X337500Y405000D03*
X362500Y410000D03*
X357500Y410000D03*
X352500Y410000D03*
X347500Y410000D03*
X342500Y410000D03*
X337500Y410000D03*
D12*
X565000Y268500D03*
X565000Y251500D03*
X480000Y268500D03*
X480000Y251500D03*
X358000Y352000D03*
X358000Y335000D03*
X343000Y335000D03*
X343000Y352000D03*
D16*
X359000Y312000D03*
X342000Y312000D03*
D12*
X315000Y352000D03*
X315000Y335000D03*
X300000Y335000D03*
X300000Y352000D03*
D16*
X316000Y312000D03*
X299000Y312000D03*
D12*
X210000Y218500D03*
X210000Y201500D03*
X138000Y219500D03*
X138000Y202500D03*
X280000Y218500D03*
X280000Y201500D03*
D16*
X313500Y387500D03*
X296500Y387500D03*
X431500Y415000D03*
X448500Y415000D03*
X413500Y370000D03*
X396500Y370000D03*
D12*
X342500Y490500D03*
X342500Y473500D03*
X417500Y500500D03*
X417500Y483500D03*
D17*
X385501Y473500D03*
X385501Y483000D03*
X385501Y492500D03*
X359499Y492500D03*
X359499Y473500D03*
D16*
X381500Y435000D03*
X398500Y435000D03*
X381500Y450000D03*
X398500Y450000D03*
X303500Y472500D03*
X286500Y472500D03*
X303500Y487500D03*
X286500Y487500D03*
X303500Y435000D03*
X286500Y435000D03*
X286500Y415000D03*
X303500Y415000D03*
X413500Y415000D03*
X396500Y415000D03*
D12*
X497000Y578500D03*
X497000Y561500D03*
X471600Y578500D03*
X471600Y561500D03*
X446200Y578500D03*
X446200Y561500D03*
X420800Y578500D03*
X420800Y561500D03*
X395400Y578500D03*
X395400Y561500D03*
X370000Y578500D03*
X370000Y561500D03*
D16*
X396500Y345000D03*
X413500Y345000D03*
D18*
X591350Y117500D03*
X598650Y117500D03*
X458650Y45000D03*
X451350Y45000D03*
X283650Y45000D03*
X276350Y45000D03*
X416350Y120000D03*
X423650Y120000D03*
X248650Y25000D03*
X241350Y25000D03*
X101350Y45000D03*
X108650Y45000D03*
X248150Y118000D03*
X240850Y118000D03*
D12*
X411500Y613250D03*
X411500Y596250D03*
X436000Y613250D03*
X436000Y596250D03*
X387000Y613250D03*
X387000Y596250D03*
D19*
X324936Y615000D03*
D12*
X485000Y613250D03*
X485000Y596250D03*
X362500Y613250D03*
X362500Y596250D03*
X460500Y613250D03*
X460500Y596250D03*
D19*
X324936Y645000D03*
D16*
X303500Y450000D03*
X286500Y450000D03*
X341500Y230000D03*
X358500Y230000D03*
D12*
X225000Y218500D03*
X225000Y201500D03*
X153000Y219500D03*
X153000Y202500D03*
X295000Y218500D03*
X295000Y201500D03*
X358000Y273500D03*
X358000Y256500D03*
X342500Y273500D03*
X342500Y256500D03*
X315500Y273500D03*
X315500Y256500D03*
X299500Y273500D03*
X299500Y256500D03*
X396500Y273500D03*
X396500Y256500D03*
M02*
