G04 EAGLE Gerber RS-274X export*
G75*
%MOMM*%
%FSLAX34Y34*%
%LPD*%
%INSoldermask Top*%
%IPPOS*%
%AMOC8*
5,1,8,0,0,1.08239X$1,22.5*%
G01*
%ADD10C,3.703200*%
%ADD11C,1.903200*%
%ADD12R,3.003200X2.403200*%
%ADD13R,3.003200X3.003200*%
%ADD14R,1.303200X1.203200*%
%ADD15R,1.003200X1.003200*%
%ADD16R,0.838200X1.473200*%
%ADD17C,0.453138*%
%ADD18R,1.203200X1.303200*%
%ADD19R,1.403200X0.753200*%
%ADD20C,2.082800*%
%ADD21R,0.673200X0.803200*%
%ADD22C,0.965200*%
%ADD23R,1.473200X0.838200*%
%ADD24C,0.903200*%
%ADD25C,0.953200*%
%ADD26C,0.453200*%


D10*
X37500Y662500D03*
X662500Y662500D03*
X37500Y37500D03*
X662500Y37500D03*
D11*
X350000Y35000D03*
D12*
X313000Y44000D03*
X387000Y24000D03*
D13*
X387000Y118000D03*
D11*
X350000Y105000D03*
X525000Y35000D03*
D12*
X488000Y44000D03*
X562000Y24000D03*
D13*
X562000Y118000D03*
D11*
X525000Y105000D03*
X175000Y35000D03*
D12*
X138000Y44000D03*
X212000Y24000D03*
D13*
X212000Y118000D03*
D11*
X175000Y105000D03*
D14*
X618500Y615000D03*
X601500Y615000D03*
D15*
X647500Y615000D03*
X632500Y615000D03*
D16*
X667064Y615000D03*
X658936Y615000D03*
D17*
X362500Y390000D03*
X357500Y390000D03*
X352500Y390000D03*
X347500Y390000D03*
X342500Y390000D03*
X337500Y390000D03*
X362500Y395000D03*
X357500Y395000D03*
X352500Y395000D03*
X347500Y395000D03*
X342500Y395000D03*
X337500Y395000D03*
X362500Y400000D03*
X357500Y400000D03*
X352500Y400000D03*
X347500Y400000D03*
X342500Y400000D03*
X337500Y400000D03*
X362500Y405000D03*
X357500Y405000D03*
X352500Y405000D03*
X347500Y405000D03*
X342500Y405000D03*
X337500Y405000D03*
X362500Y410000D03*
X357500Y410000D03*
X352500Y410000D03*
X347500Y410000D03*
X342500Y410000D03*
X337500Y410000D03*
D18*
X562000Y268000D03*
X562000Y251000D03*
X487500Y268000D03*
X487500Y251000D03*
X358000Y352000D03*
X358000Y335000D03*
X343000Y335000D03*
X343000Y352000D03*
D14*
X359000Y312000D03*
X342000Y312000D03*
D18*
X315000Y352000D03*
X315000Y335000D03*
X300000Y335000D03*
X300000Y352000D03*
D14*
X316000Y312000D03*
X299000Y312000D03*
D18*
X210000Y218500D03*
X210000Y201500D03*
X138000Y219500D03*
X138000Y202500D03*
X280000Y218500D03*
X280000Y201500D03*
D14*
X313500Y387500D03*
X296500Y387500D03*
X431500Y415000D03*
X448500Y415000D03*
X413500Y370000D03*
X396500Y370000D03*
D18*
X450000Y475500D03*
X450000Y458500D03*
X511000Y480500D03*
X511000Y463500D03*
D19*
X490501Y455500D03*
X490501Y465000D03*
X490501Y474500D03*
X464499Y474500D03*
X464499Y455500D03*
D14*
X396500Y430500D03*
X413500Y430500D03*
X396500Y446000D03*
X413500Y446000D03*
X314500Y472000D03*
X297500Y472000D03*
X314500Y487500D03*
X297500Y487500D03*
X314500Y432500D03*
X297500Y432500D03*
X296500Y403000D03*
X313500Y403000D03*
X413500Y415000D03*
X396500Y415000D03*
D18*
X497000Y578500D03*
X497000Y561500D03*
X471600Y578500D03*
X471600Y561500D03*
X446200Y578500D03*
X446200Y561500D03*
X420800Y578500D03*
X420800Y561500D03*
X395400Y578500D03*
X395400Y561500D03*
X370000Y578500D03*
X370000Y561500D03*
D14*
X396500Y345000D03*
X413500Y345000D03*
D20*
X370000Y680000D03*
X395400Y680000D03*
X420800Y680000D03*
X446200Y680000D03*
X471600Y680000D03*
X497000Y680000D03*
X522400Y680000D03*
X547800Y680000D03*
D21*
X591350Y117500D03*
X598650Y117500D03*
X458650Y44000D03*
X451350Y44000D03*
X283650Y45000D03*
X276350Y45000D03*
X416350Y120000D03*
X423650Y120000D03*
X248650Y25000D03*
X241350Y25000D03*
X101350Y45000D03*
X108650Y45000D03*
X248150Y118000D03*
X240850Y118000D03*
D22*
X550500Y180000D03*
X499000Y180500D03*
X360000Y180000D03*
X340000Y180000D03*
X291500Y180500D03*
X130000Y180000D03*
X205000Y180000D03*
X253000Y407500D03*
D16*
X303436Y293000D03*
X311564Y293000D03*
X346436Y293000D03*
X354564Y293000D03*
D18*
X411500Y613250D03*
X411500Y596250D03*
X436000Y613250D03*
X436000Y596250D03*
X387000Y613250D03*
X387000Y596250D03*
D16*
X322872Y615000D03*
X331000Y615000D03*
D18*
X485000Y613250D03*
X485000Y596250D03*
X362500Y613250D03*
X362500Y596250D03*
X460500Y613250D03*
X460500Y596250D03*
D16*
X512500Y644500D03*
X504372Y644500D03*
D14*
X314500Y448000D03*
X297500Y448000D03*
D22*
X447500Y435000D03*
D14*
X341500Y230000D03*
X358500Y230000D03*
D16*
X360936Y210000D03*
X369064Y210000D03*
X330936Y210000D03*
X339064Y210000D03*
D18*
X225000Y218500D03*
X225000Y201500D03*
X153000Y219500D03*
X153000Y202500D03*
D23*
X190000Y205936D03*
X190000Y214064D03*
X118000Y206936D03*
X118000Y215064D03*
D18*
X295000Y218500D03*
X295000Y201500D03*
D23*
X260000Y205936D03*
X260000Y214064D03*
D18*
X358000Y273500D03*
X358000Y256500D03*
X342500Y273500D03*
X342500Y256500D03*
X315500Y273500D03*
X315500Y256500D03*
X299500Y273500D03*
X299500Y256500D03*
X396500Y273500D03*
X396500Y256500D03*
D24*
X592000Y24000D03*
X175000Y65000D03*
X349500Y65000D03*
X525000Y65000D03*
X262500Y64500D03*
X425000Y180000D03*
X75000Y65000D03*
X525000Y180000D03*
D25*
X350500Y322500D03*
X307500Y322500D03*
D26*
X345700Y401800D03*
X349300Y401800D03*
X349300Y398200D03*
X345700Y398200D03*
D25*
X335000Y370000D03*
X260000Y440000D03*
X260000Y485000D03*
D24*
X435000Y65000D03*
D25*
X276500Y336000D03*
X380500Y336500D03*
X525000Y345000D03*
X525000Y256500D03*
X155000Y260000D03*
X276000Y260500D03*
X105000Y165000D03*
X540000Y664000D03*
X300000Y630000D03*
X345000Y550000D03*
X540000Y550000D03*
X447500Y445000D03*
X380500Y256500D03*
X440500Y256500D03*
D24*
X250000Y185000D03*
D25*
X600000Y160000D03*
X620000Y65000D03*
D24*
X415000Y25000D03*
D25*
X504000Y664000D03*
X484500Y664000D03*
X458500Y664000D03*
X433500Y664000D03*
X408000Y664000D03*
X350000Y244500D03*
X383000Y664000D03*
X345000Y664000D03*
X297000Y520000D03*
X488500Y494500D03*
X495000Y517500D03*
X296500Y460000D03*
X427500Y494500D03*
X380000Y447500D03*
X260000Y630000D03*
X382500Y550500D03*
X408000Y551500D03*
X459000Y551500D03*
X484000Y551500D03*
X342000Y494500D03*
X500000Y157500D03*
D24*
X488000Y209500D03*
X331000Y175000D03*
X365000Y157500D03*
X211958Y157500D03*
D25*
X396500Y402500D03*
X396500Y358000D03*
D26*
X340700Y393200D03*
D25*
X324500Y387500D03*
D26*
X359300Y393200D03*
D25*
X385000Y370000D03*
X328000Y428000D03*
X370000Y550000D03*
X339000Y428000D03*
X395500Y550000D03*
X350000Y428000D03*
X421000Y550000D03*
X361000Y428000D03*
X446000Y550000D03*
X372000Y428000D03*
X471500Y550000D03*
X497500Y552500D03*
D26*
X359300Y406800D03*
X340700Y406800D03*
D25*
X262500Y407500D03*
X333000Y140000D03*
X369000Y175000D03*
D24*
X385000Y210000D03*
D25*
X345000Y615000D03*
X385000Y630000D03*
X410000Y630000D03*
X435000Y630000D03*
X362500Y630000D03*
X460000Y630000D03*
X485000Y630000D03*
X503000Y630000D03*
D26*
X359300Y398200D03*
D24*
X435000Y435000D03*
X138000Y157500D03*
D26*
X354300Y406800D03*
D25*
X314500Y460000D03*
D24*
X395000Y240000D03*
X280000Y230000D03*
M02*
