G04 EAGLE Gerber RS-274X export*
G75*
%MOMM*%
%FSLAX34Y34*%
%LPD*%
%INSoldermask Bottom*%
%IPPOS*%
%AMOC8*
5,1,8,0,0,1.08239X$1,22.5*%
G01*
%ADD10C,3.703200*%
%ADD11C,1.903200*%
%ADD12C,2.082800*%
%ADD13R,0.838200X1.473200*%
%ADD14C,0.903200*%
%ADD15C,0.953200*%
%ADD16C,0.453200*%
%ADD17C,0.803200*%


D10*
X37500Y662500D03*
X662500Y662500D03*
X37500Y37500D03*
X662500Y37500D03*
D11*
X350000Y35000D03*
X350000Y105000D03*
X525000Y35000D03*
X525000Y105000D03*
X175000Y35000D03*
X175000Y105000D03*
D12*
X370000Y680000D03*
X395400Y680000D03*
X420800Y680000D03*
X446200Y680000D03*
X471600Y680000D03*
X497000Y680000D03*
X522400Y680000D03*
X547800Y680000D03*
D13*
X433436Y210000D03*
X441564Y210000D03*
X433436Y157500D03*
X441564Y157500D03*
X255936Y157500D03*
X264064Y157500D03*
X185936Y157500D03*
X194064Y157500D03*
D14*
X592000Y24000D03*
X175000Y65000D03*
X349500Y65000D03*
X525000Y65000D03*
X262500Y64500D03*
X425000Y180000D03*
X75000Y65000D03*
X525000Y180000D03*
D15*
X350500Y322500D03*
X307500Y322500D03*
D16*
X345700Y401800D03*
X349300Y401800D03*
X349300Y398200D03*
X345700Y398200D03*
D15*
X335000Y370000D03*
X245000Y440000D03*
X245000Y480000D03*
D14*
X435000Y65000D03*
D17*
X323500Y440000D03*
D15*
X276500Y336000D03*
X380500Y336500D03*
X525000Y345000D03*
X525000Y256500D03*
X155000Y260000D03*
X276000Y260500D03*
X105000Y165000D03*
X540000Y635000D03*
X285000Y630000D03*
X330000Y565000D03*
X540000Y560000D03*
X440000Y445000D03*
X380500Y256500D03*
X440500Y256500D03*
D14*
X250000Y185000D03*
D15*
X600000Y160000D03*
X620000Y65000D03*
D14*
X415000Y25000D03*
D15*
X500000Y157500D03*
D14*
X480000Y210000D03*
X331000Y175000D03*
X365000Y157500D03*
X211958Y157500D03*
D15*
X396500Y402500D03*
X396500Y358000D03*
D16*
X340700Y393200D03*
D15*
X324500Y387500D03*
D16*
X359300Y393200D03*
D15*
X385000Y370000D03*
X328500Y428000D03*
X370000Y550000D03*
X338000Y428000D03*
X395500Y550000D03*
X347500Y428000D03*
X421000Y550000D03*
X357000Y428000D03*
X446000Y550000D03*
X366500Y428000D03*
X471500Y550000D03*
X497000Y550000D03*
D16*
X359300Y406800D03*
X340700Y406800D03*
D15*
X262500Y407500D03*
X333000Y140000D03*
X369000Y175000D03*
D14*
X385000Y210000D03*
D15*
X345000Y615000D03*
X385000Y630000D03*
X410000Y630000D03*
X435000Y630000D03*
X345000Y645000D03*
X360000Y630000D03*
X460000Y630000D03*
X485000Y630000D03*
D16*
X359300Y398200D03*
D14*
X435000Y435000D03*
X138000Y157500D03*
D16*
X354300Y406800D03*
D15*
X317500Y472500D03*
D14*
X395000Y240000D03*
X280000Y230000D03*
M02*
