M48
;GenerationSoftware,Autodesk,EAGLE,9.6.2*%
;CreationDate,2024-04-21T17:45:19Z*%
FMAT,2
ICI,OFF
METRIC,TZ,000.000
T7C0.350
T6C1.016
T5C1.100
T4C1.700
T3C3.250
T2C3.500
%
G90
M71
T2
X3750Y66250
X66250Y66250
X66250Y3750
X3750Y3750
T3
X47250Y14000
X57250Y14000
X47250Y34500
X57250Y34500
T4
X26500Y3500
X26500Y10500
T5
X13700Y2300
X13700Y9300
T6
X33750Y67800
X13430Y67800
X10890Y67800
X31210Y67800
X28670Y67800
X26130Y67800
X23590Y67800
X21050Y67800
X18510Y67800
X15970Y67800
T7
X12300Y25000
X47200Y63450
X19400Y62450
X17200Y63250
X37000Y63450
X10950Y60700
X10650Y50250
X10650Y37000
X10800Y26300
X18700Y23300
X20400Y23300
X20400Y21700
X18700Y21700
X21750Y30250
X5950Y6950
X5850Y18450
X8150Y5850
X8150Y18450
X30200Y14000
X27000Y22250
X42200Y25700
X16000Y63250
X22450Y23700
X27000Y20750
X42250Y21500
X20800Y6500
X12250Y23950
X11750Y13950
X12250Y22450
X18500Y61750
X22450Y24850
X41900Y20600
X41900Y24800
X27850Y21550
X21850Y7050
X31000Y14750
X19750Y65750
X47400Y17200
X47200Y59500
X47200Y50250
X37000Y65750
X37750Y37000
X37750Y50250
X37500Y19800
X47600Y30750
X37500Y23150
X37500Y21500
X30000Y65750
X27500Y65750
X24750Y65750
X22250Y65750
X56100Y17000
X17250Y65750
X10850Y65750
X63000Y65500
X63250Y50000
X58250Y38500
X8400Y26300
X8250Y37000
X8250Y50250
X8250Y64500
X53750Y23250
X42500Y24000
X47250Y64750
X20450Y31100
X12750Y56450
X46500Y23100
X32000Y65750
X33150Y4250
X8150Y3250
X18150Y3250
X5950Y10250
X18150Y10250
X21850Y10250
X29150Y19250
X27150Y28250
X21750Y32150
X14650Y32050
X12650Y32050
X11750Y15000
X17200Y59950
X22400Y62750
X24900Y62750
X30000Y62750
X27500Y62750
X15300Y65750
X12750Y50250
X14250Y50250
X25250Y50250
X30500Y37000
X30500Y50250
X55850Y30750
X55000Y23250
M30