G04 EAGLE Gerber RS-274X export*
G75*
%MOMM*%
%FSLAX34Y34*%
%LPD*%
%INSoldermask Top*%
%IPPOS*%
%AMOC8*
5,1,8,0,0,1.08239X$1,22.5*%
G01*
%ADD10C,3.703200*%
%ADD11C,3.453200*%
%ADD12R,1.203200X1.303200*%
%ADD13R,1.003200X1.003200*%
%ADD14R,1.473200X0.838200*%
%ADD15R,2.082800X2.082800*%
%ADD16C,2.082800*%
%ADD17R,0.803200X0.743200*%
%ADD18R,1.303200X1.203200*%
%ADD19R,1.403200X0.753200*%
%ADD20C,0.959600*%

G36*
X108835Y47472D02*
X108835Y47472D01*
X108901Y47474D01*
X108944Y47492D01*
X108991Y47500D01*
X109048Y47534D01*
X109108Y47559D01*
X109143Y47590D01*
X109184Y47615D01*
X109226Y47666D01*
X109274Y47710D01*
X109296Y47752D01*
X109325Y47789D01*
X109346Y47851D01*
X109377Y47910D01*
X109385Y47964D01*
X109397Y48001D01*
X109396Y48041D01*
X109404Y48095D01*
X109404Y51905D01*
X109393Y51970D01*
X109391Y52036D01*
X109373Y52079D01*
X109365Y52126D01*
X109331Y52183D01*
X109306Y52243D01*
X109275Y52278D01*
X109250Y52319D01*
X109199Y52361D01*
X109155Y52409D01*
X109113Y52431D01*
X109076Y52460D01*
X109014Y52481D01*
X108955Y52512D01*
X108901Y52520D01*
X108864Y52532D01*
X108824Y52531D01*
X108770Y52539D01*
X106230Y52539D01*
X106165Y52528D01*
X106099Y52526D01*
X106056Y52508D01*
X106009Y52500D01*
X105952Y52466D01*
X105892Y52441D01*
X105857Y52410D01*
X105816Y52385D01*
X105775Y52334D01*
X105726Y52290D01*
X105704Y52248D01*
X105675Y52211D01*
X105654Y52149D01*
X105623Y52090D01*
X105615Y52036D01*
X105603Y51999D01*
X105603Y51995D01*
X105603Y51994D01*
X105604Y51959D01*
X105596Y51905D01*
X105596Y48095D01*
X105607Y48030D01*
X105609Y47964D01*
X105627Y47921D01*
X105635Y47874D01*
X105669Y47817D01*
X105694Y47757D01*
X105725Y47722D01*
X105750Y47681D01*
X105801Y47640D01*
X105845Y47591D01*
X105887Y47569D01*
X105924Y47540D01*
X105986Y47519D01*
X106045Y47488D01*
X106099Y47480D01*
X106136Y47468D01*
X106176Y47469D01*
X106230Y47461D01*
X108770Y47461D01*
X108835Y47472D01*
G37*
D10*
X37500Y662500D03*
X662500Y662500D03*
X662500Y37500D03*
X37500Y37500D03*
D11*
X522500Y140000D03*
X622500Y140000D03*
X622500Y345000D03*
X522500Y345000D03*
D12*
X107500Y94000D03*
X107500Y111000D03*
D13*
X107500Y65000D03*
X107500Y80000D03*
D14*
X107500Y44920D03*
X107500Y55080D03*
D15*
X165000Y287500D03*
X368200Y287500D03*
D16*
X165000Y262100D03*
X368200Y262100D03*
X165000Y236700D03*
X368200Y236700D03*
X165000Y211300D03*
X368200Y211300D03*
X165000Y185900D03*
X368200Y185900D03*
X165000Y160500D03*
X368200Y160500D03*
X165000Y135100D03*
X368200Y135100D03*
X165000Y109700D03*
X368200Y109700D03*
X165000Y84300D03*
X368200Y84300D03*
X165000Y58900D03*
X368200Y58900D03*
X108900Y678000D03*
X134300Y678000D03*
X159700Y678000D03*
X185100Y678000D03*
X210500Y678000D03*
X235900Y678000D03*
X261300Y678000D03*
X286700Y678000D03*
X312100Y678000D03*
X337500Y678000D03*
X455500Y678000D03*
X480900Y678000D03*
X506300Y678000D03*
X531700Y678000D03*
X557100Y678000D03*
X582500Y678000D03*
D17*
X567250Y272150D03*
X567250Y252850D03*
X577750Y252850D03*
X577750Y272150D03*
D18*
X577500Y314000D03*
X560500Y314000D03*
X577500Y298500D03*
X560500Y298500D03*
D19*
X471999Y274500D03*
X471999Y265000D03*
X471999Y255500D03*
X498001Y255500D03*
X498001Y274500D03*
D18*
X536000Y272500D03*
X519000Y272500D03*
X536000Y255000D03*
X519000Y255000D03*
X476500Y295000D03*
X493500Y295000D03*
X493500Y310000D03*
X476500Y310000D03*
X476500Y325000D03*
X493500Y325000D03*
X492000Y225000D03*
X475000Y225000D03*
X492000Y240500D03*
X475000Y240500D03*
D17*
X567250Y207150D03*
X567250Y187850D03*
X577750Y187850D03*
X577750Y207150D03*
D19*
X471999Y209000D03*
X471999Y199500D03*
X471999Y190000D03*
X498001Y190000D03*
X498001Y209000D03*
D18*
X533500Y207500D03*
X516500Y207500D03*
X533500Y190000D03*
X516500Y190000D03*
X492000Y160000D03*
X475000Y160000D03*
X492000Y175000D03*
X475000Y175000D03*
D20*
X134000Y642500D03*
X480000Y643000D03*
X82500Y645000D03*
X107500Y25000D03*
X82500Y497500D03*
X82500Y370000D03*
X87500Y252500D03*
X632500Y385000D03*
X632500Y500000D03*
X630000Y645000D03*
X122500Y657500D03*
X147500Y657500D03*
X172500Y657500D03*
X197500Y657500D03*
X222500Y657500D03*
X247500Y657500D03*
X275000Y657500D03*
X300000Y657500D03*
X325000Y657500D03*
X388500Y232500D03*
X388500Y200000D03*
X388500Y110000D03*
X388500Y80000D03*
X388500Y47500D03*
X520000Y642500D03*
X545000Y642500D03*
X570000Y642500D03*
X595000Y642500D03*
X460500Y265000D03*
X460500Y200000D03*
X388500Y275000D03*
X458500Y227500D03*
X461000Y295000D03*
X536000Y297500D03*
X553500Y252500D03*
X460500Y167500D03*
X377500Y497500D03*
X375000Y370000D03*
X370000Y657500D03*
X475000Y500000D03*
X475000Y595000D03*
X195000Y110000D03*
X276000Y127000D03*
X461000Y250500D03*
X461000Y185000D03*
M02*
