<?xml version="1.0" encoding="utf-8"?>
<!-- Generator: Adobe Illustrator 16.0.3, SVG Export Plug-In . SVG Version: 6.00 Build 0)  -->
<!DOCTYPE svg PUBLIC "-//W3C//DTD SVG 1.1//EN" "http://www.w3.org/Graphics/SVG/1.1/DTD/svg11.dtd">
<svg version="1.1"
	 id="svg2" xmlns:dc="http://purl.org/dc/elements/1.1/" xmlns:cc="http://creativecommons.org/ns#" xmlns:rdf="http://www.w3.org/1999/02/22-rdf-syntax-ns#" xmlns:svg="http://www.w3.org/2000/svg"
	 xmlns="http://www.w3.org/2000/svg" xmlns:xlink="http://www.w3.org/1999/xlink" x="0px" y="0px" width="1098.428px"
	 height="840.816px" viewBox="0 0 1098.428 840.816" enable-background="new 0 0 1098.428 840.816" xml:space="preserve">
<rect id="rect17" x="0" y="-3.334" fill="#FFFFFF" width="1098.428" height="840.816"/>
<line id="line19" fill="none" stroke="#000000" stroke-miterlimit="10" x1="257.462" y1="210.622" x2="257.462" y2="821.379"/>
<line id="line29" fill="none" stroke="#000000" stroke-miterlimit="10" stroke-dasharray="6.0018,6.0018" x1="276.06" y1="210.622" x2="276.06" y2="747.79"/>
<line id="line21" fill="none" stroke="#000000" stroke-miterlimit="10" x1="391.372" y1="210.622" x2="391.372" y2="821.379"/>
<line id="line39" fill="none" stroke="#000000" stroke-miterlimit="10" stroke-dasharray="6.0018,6.0018" x1="409.97" y1="210.622" x2="409.97" y2="747.79"/>
<line id="line49" fill="none" stroke="#000000" stroke-miterlimit="10" stroke-dasharray="6.0018,6.0018" x1="484.364" y1="210.622" x2="484.364" y2="747.79"/>
<line id="line59" fill="none" stroke="#000000" stroke-miterlimit="10" stroke-dasharray="6.0018,6.0018" x1="560.618" y1="210.622" x2="560.618" y2="747.79"/>
<line id="line63" fill="none" stroke="#000000" stroke-miterlimit="10" x1="634.748" y1="210.622" x2="634.748" y2="821.379"/>
<line id="line73" fill="none" stroke="#000000" stroke-miterlimit="10" stroke-dasharray="6.0018,6.0018" x1="653.348" y1="210.622" x2="653.348" y2="747.79"/>
<line id="line65" fill="none" stroke="#000000" stroke-miterlimit="10" x1="768.658" y1="210.622" x2="768.658" y2="821.379"/>
<line id="line83" fill="none" stroke="#000000" stroke-miterlimit="10" stroke-dasharray="6.0018,6.0018" x1="787.257" y1="210.622" x2="787.257" y2="747.79"/>
<path id="path89" fill="none" stroke="#FF3300" stroke-width="3" stroke-miterlimit="10" d="M847.591,258.077
	c-26.617-6.758-47.619-13.22-54.48-17.098c-11.311-6.395-11.125,12.359-19.777,11.742c-8.613-1.996-10.246-18.53-35.74-31.122
	c-33.782-6.115-65.803,41.642-77.355,64.495c-9.949,3.482-58.389-1.649-96.092-8.283c-37.702-6.635-134.11-28.798-148.324-36.832
	c-11.312-6.395-11.124,12.359-19.775,11.742c-7.958-4.313-12.333-19.735-38.383-32.723c-35.833-2.832-66.977,50.902-74.712,66.096
	c-5.941,11.669-84.826-3.771-120.67-14.277"/>
<path id="path91" fill="none" stroke="#FFBB4A" stroke-width="3" stroke-miterlimit="10" d="M842.339,419.006
	c-8.767-0.107-16.498-0.197-22.345-0.197c-24.104,0-31.518-9.889-35.226-9.889c-5.561,0-66.744,15.452-90.229,15.452
	c-27.367,0-32.136-13.596-39.552-13.596c-8.034,0-12.362,14.028-20.238,14.028c-10.044,0-16.224-20.826-37.855-20.826
	c-15.138,0-25.122,11.854-44.152,14.004c-19.03,2.149-85.605,0.828-110.034,0.828c-24.102,0-31.518-9.889-35.226-9.889
	c-5.562,0-66.746,15.453-90.23,15.453c-27.368,0-32.136-13.597-39.552-13.597c-8.034,0-12.36,14.028-20.238,14.028
	c-10.044,0-16.224-20.826-37.855-20.826c-18.311,0-40.946,18.362-62.576,12.798"/>
<path id="path93" fill="none" stroke="#0000FF" stroke-width="3" stroke-miterlimit="10" d="M842.339,432.988
	c-32.566-0.228-48.238-4.746-52.626-12.326c-13.488-23.3-7.064-117.176-15.473-149.298c-4.922-18.8-34.346-66.154-70.43-55.88
	c-64.85,18.462-62.418,207.032-69.06,209.32c-8.885,3.06-14.372-13.95-28.584-13.95c-25.341,0-38.86,15.898-71.528,16.738
	s-115.414,4.812-122.212-6.931c-13.49-23.3-7.066-117.176-15.475-149.298c-4.92-18.8-34.346-66.154-70.43-55.88
	c-64.851,18.462-62.418,207.032-69.061,209.32c-8.886,3.06-14.372-13.95-28.584-13.95c-25.338,0-40.17,16.738-71.846,16.738"/>
<path id="path97" fill="none" stroke="#FF00FF" stroke-width="3" stroke-miterlimit="10" d="M842.339,532.486
	c-8.206,2.704-16.013,6.172-22.958,10.683c-16.923,10.987-24.106,54.191-35.23,54.191c-54.036,0-67.708-9.688-94.554-45.116
	c-18.356-24.22-31.658-52.266-37.7-55.622c-5.56-3.09-12.36,0.62-23.484,0c-11.124-0.619-19.775-4.325-32.134-1.854
	c-12.357,2.472-30.618,21.738-38.62,24.72c-12.914,4.813-77.296-1.168-115.563,23.678c-16.924,10.988-24.106,54.192-35.23,54.192
	c-54.038,0-67.708-9.688-94.554-45.116c-18.356-24.22-31.66-52.266-37.7-55.622c-5.563-3.09-12.36,0.62-23.484,0
	s-19.775-4.325-32.136-1.854s-29.198,21.724-37.082,24.72s-19.204,3.622-24.878,3.668"/>
<path id="path95" fill="none" stroke="#00EA80" stroke-width="3" stroke-miterlimit="10" d="M842.339,633.82
	c-27.383,0-53.19,0-56.334,0c-6.797,0-31.148-18.54-45.116-18.54c-15.118,0-40.788,18.54-47.586,18.54c-4.326,0-35.227,0-38.316,0
	c-4.22,0-6.81,38.937-9.99,38.937c-4.325,0-2.237-75.396-9.065-75.396c-4.358,0-10.244,50.058-12.601,50.058
	c-2.235,0-5.298-13.598-9.132-13.598c-2.47,0-25.956,0-32.756,0c-6.796,0-13.542-12.976-22.708-12.976s-18.12,12.976-24.918,12.976
	c-5.562,0-118.302,0-125.1,0s-31.15-18.54-45.116-18.54c-15.118,0-40.788,18.54-47.586,18.54c-4.326,0-35.227,0-38.316,0
	c-4.22,0-6.812,38.937-9.99,38.937c-4.326,0-2.237-75.396-9.065-75.396c-4.358,0-10.244,50.058-12.601,50.058
	c-2.237,0-5.298-13.598-9.132-13.598c-2.472,0-25.956,0-32.754,0s-12.146-12.976-22.776-12.976
	c-10.63,0-16.668,12.976-23.466,12.976c-0.242,0-0.368,0-0.456,0c-0.102,0-0.144,0-0.128,0c-0.067,0-0.16,0-0.298,0"/>
<path id="path87" fill="none" stroke="#808080" stroke-width="3" stroke-miterlimit="10" d="M842.339,711.682h-4.019
	c0,0-29.188,0-32.738,0c-2.39,0-3.008-1.937-4.602-1.937c-1.656,0-2.652,4.244-4.242,4.244c-1.682,0-2.3-6.456-3.802-6.456
	c-1.946,0-2.366,10.637-3.868,10.637c-1.49,0-1.084-12.937-3.032-12.937c-1.68,0-1.149,15.924-2.918,15.924
	c-1.768,0-1.06-25.119-3.271-25.119c-2.122,0-1.592,31.281-3.624,31.281c-1.946,0-2.124-39.812-3.714-39.812
	c-1.681,0-2.21,24.172-3.891,24.172c-2.372,0-93.31,0-96.863,0c-2.389,0-3.009-1.937-4.601-1.937c-1.658,0-2.653,4.244-4.244,4.244
	c-1.682,0-2.3-6.456-3.802-6.456c-1.946,0-2.366,10.637-3.868,10.637c-1.489,0-1.084-12.937-3.032-12.937
	c-1.68,0-1.149,15.924-2.918,15.924c-1.768,0-1.06-25.119-3.271-25.119c-2.122,0-1.592,31.281-3.624,31.281
	c-1.946,0-2.124-39.812-3.714-39.812c-1.68,0-2.21,23.901-3.891,23.901c-2.371,0-135.666,0-139.218,0
	c-3.403,0-4.334,2.108-5.926,2.108c-1.68,0-1.813-5.892-3.314-5.892c-1.945,0-2.365,9.707-3.867,9.707
	c-1.492,0-1.339-11.806-3.284-11.806c-1.681,0-1.51,6.152-3.278,6.152H461.29c0,0-29.188,0-32.739,0
	c-2.389,0-3.007-1.937-4.601-1.937c-1.658,0-2.651,4.244-4.244,4.244c-1.68,0-2.298-6.456-3.802-6.456
	c-1.946,0-2.364,10.636-3.868,10.636c-1.489,0-1.084-12.936-3.031-12.936c-1.681,0-1.15,15.924-2.918,15.924
	c-1.769,0-1.061-25.12-3.272-25.12c-2.122,0-1.592,31.282-3.626,31.282c-1.946,0-2.122-39.812-3.714-39.812
	c-1.681,0-2.21,24.172-3.893,24.172c-2.369,0-93.31,0-96.864,0c-2.388,0-3.006-1.937-4.598-1.937c-1.658,0-2.654,4.244-4.246,4.244
	c-1.68,0-2.298-6.456-3.802-6.456c-1.946,0-2.364,10.636-3.868,10.636c-1.49,0-1.084-12.936-3.032-12.936
	c-1.68,0-1.149,15.924-2.918,15.924c-1.768,0-1.06-25.12-3.271-25.12c-2.122,0-1.592,31.282-3.626,31.282
	c-1.946,0-2.122-39.812-3.714-39.812c-1.681,0-2.21,23.901-3.893,23.901c-2.37,0-96.828,0-101.094,0"/>
<text id="text99" transform="matrix(0.7071 -0.7071 0.7071 0.7071 266.0203 190.1355)" font-family="'ArialMT'" font-size="19.9998">Isovolumic contraction</text>
<text id="text103" transform="matrix(0.7071 -0.7071 0.7071 0.7071 332.3396 190.1345)" font-family="'ArialMT'" font-size="19.9998">Ejection</text>
<text id="text101" transform="matrix(0.7071 -0.7071 0.7071 0.7071 399.4539 190.1345)" font-family="'ArialMT'" font-size="19.9998">Isovolumic relaxation</text>
<text id="text201" transform="matrix(0.7071 -0.7071 0.7071 0.7071 452.1189 190.1335)" font-family="'ArialMT'" font-size="19.9998">Rapid inflow</text>
<text id="text199" transform="matrix(0.7071 -0.7071 0.7071 0.7071 523.6707 190.1345)" font-family="'ArialMT'" font-size="19.9998">Diastasis</text>
<text id="text109" transform="matrix(0.7071 -0.7071 0.7071 0.7071 597.9109 190.1335)" font-family="'ArialMT'" font-size="19.9998">Atrial systole</text>
<text id="text151" transform="matrix(1 0 0 1 858.6765 267.531)" fill="#FF3300" font-family="'ArialMT'" font-size="20">Aortic pressure</text>
<text id="text177" transform="matrix(1 0 0 1 858.6765 413.5417)" fill="#FF9F1F" font-family="'ArialMT'" font-size="20">Atrial pressure</text>
<text id="text179" transform="matrix(1 0 0 1 858.6765 449.3279)" fill="#0000FF" font-family="'ArialMT'" font-size="20">Ventricular pressure</text>
<text id="text181" transform="matrix(1 0 0 1 858.6765 540.4939)" fill="#FF00FF" font-family="'ArialMT'" font-size="20">Ventricular volume</text>
<text id="text185" transform="matrix(1 0 0 1 858.6765 638.9705)" fill="#00FF33" font-family="'ArialMT'" font-size="20">Electrocardiogram</text>
<text id="text183" transform="matrix(1 0 0 1 858.6765 717.8298)" font-family="'ArialMT'" font-size="20">Phonocardiogram</text>
<text transform="matrix(1 0 0 1 290.6863 784.1599)" font-family="'ArialMT'" font-size="20">Systole</text>
<text transform="matrix(1 0 0 1 480.3376 783.9197)" font-family="'ArialMT'" font-size="20">Diastole</text>
<text transform="matrix(1 0 0 1 671.7898 784.1599)" font-family="'ArialMT'" font-size="20">Systole</text>
<text id="text115" transform="matrix(1 0 0 1 285.1526 695.1208)" font-family="'ArialMT'" font-size="20">1st</text>
<text id="text117" transform="matrix(1 0 0 1 416.7151 695.1208)" font-family="'ArialMT'" font-size="20">2nd</text>
<text id="text119" transform="matrix(1 0 0 1 490.0754 695.1208)" font-family="'ArialMT'" font-size="20">3rd</text>
<text id="text113" transform="matrix(1 0 0 1 537.9719 615.0935)" font-family="'ArialMT'" font-size="20">P</text>
<text id="text121" transform="matrix(1 0 0 1 613.2078 591.449)" font-family="'ArialMT'" font-size="20">R</text>
<text id="text123" transform="matrix(1 0 0 1 735.575 641.1638)" font-family="'ArialMT'" font-size="20">T</text>
<text id="text127" transform="matrix(1 0 0 1 606.5828 669.6599)" font-family="'ArialMT'" font-size="20">Q</text>
<text id="text125" transform="matrix(1 0 0 1 655.5906 680.574)" font-family="'ArialMT'" font-size="20">S</text>
<text id="text111" transform="matrix(1 0 0 1 592.4343 398.2439)" font-family="'ArialMT'" font-size="20">a</text>
<text id="text129" transform="matrix(1 0 0 1 661.5046 398.2439)" font-family="'ArialMT'" font-size="20">c</text>
<text id="text131" transform="matrix(1 0 0 1 752.448 398.2439)" font-family="'ArialMT'" font-size="20">v</text>
<text transform="matrix(0 -1 1 0 47.6121 405.8396)" font-family="'ArialMT'" font-size="20">Pressure (mmHg)</text>
<text transform="matrix(1 0 0 1 71.5549 232.9861)" font-family="'ArialMT'" font-size="20">120</text>
<text transform="matrix(1 0 0 1 71.5549 266.0046)" font-family="'ArialMT'" font-size="20">100</text>
<text transform="matrix(1 0 0 1 82.678 299.0232)" font-family="'ArialMT'" font-size="20">80</text>
<text transform="matrix(1 0 0 1 82.678 332.0417)" font-family="'ArialMT'" font-size="20">60</text>
<text transform="matrix(1 0 0 1 82.678 365.0603)" font-family="'ArialMT'" font-size="20">40</text>
<text transform="matrix(1 0 0 1 82.678 398.0808)" font-family="'ArialMT'" font-size="20">20</text>
<text transform="matrix(1 0 0 1 93.801 431.0994)" font-family="'ArialMT'" font-size="20">0</text>
<text transform="matrix(0 -1 1 0 47.7322 601.7957)" font-family="'ArialMT'" font-size="20">Volume (mL)</text>
<text transform="matrix(1 0 0 1 71.5549 504.2263)" font-family="'ArialMT'" font-size="20">130</text>
<text transform="matrix(1 0 0 1 82.678 554.0857)" font-family="'ArialMT'" font-size="20">90</text>
<text transform="matrix(1 0 0 1 82.678 603.9412)" font-family="'ArialMT'" font-size="20">50</text>
<g id="g3467">
	<line id="line205" fill="none" stroke="#000000" stroke-miterlimit="10" x1="108.06" y1="258.902" x2="117.134" y2="258.902"/>
	<line id="line207" fill="none" stroke="#000000" stroke-miterlimit="10" x1="108.06" y1="291.898" x2="117.134" y2="291.898"/>
	<line id="line209" fill="none" stroke="#000000" stroke-miterlimit="10" x1="108.06" y1="324.892" x2="117.134" y2="324.892"/>
	<line id="line211" fill="none" stroke="#000000" stroke-miterlimit="10" x1="108.06" y1="357.888" x2="117.134" y2="357.888"/>
	<line id="line213" fill="none" stroke="#000000" stroke-miterlimit="10" x1="108.06" y1="390.884" x2="117.134" y2="390.884"/>
	<polyline id="polyline215" fill="none" stroke="#000000" stroke-width="0.5" stroke-miterlimit="10" points="108.06,423.881 
		117.134,423.881 117.134,225.908 108.06,225.908 	"/>
</g>
<g id="g3463">
	<line id="line219" fill="none" stroke="#000000" stroke-miterlimit="10" x1="108.06" y1="546.68" x2="117.134" y2="546.68"/>
	<polyline id="polyline221" fill="none" stroke="#000000" stroke-width="0.5" stroke-miterlimit="10" points="108.06,596.589 
		117.134,596.589 117.134,496.776 108.06,496.776 	"/>
</g>
<text transform="matrix(1 0 0 1 165.3293 224.6121)" fill="#808080" font-family="'ArialMT'" font-size="16">Aortic valve</text>
<text transform="matrix(1 0 0 1 204.4309 244.6121)" fill="#808080" font-family="'ArialMT'" font-size="16">opens</text>
<text transform="matrix(1 0 0 1 430.0071 292.9324)" fill="#808080" font-family="'ArialMT'" font-size="16">Aortic valve</text>
<text transform="matrix(1 0 0 1 430.0071 312.9324)" fill="#808080" font-family="'ArialMT'" font-size="16">closes</text>
<text transform="matrix(1 0 0 1 167.1184 357.1804)" fill="#808080" font-family="'ArialMT'" font-size="16">Mitral valve</text>
<text transform="matrix(1 0 0 1 202.6731 377.1804)" fill="#808080" font-family="'ArialMT'" font-size="16">closes</text>
<text transform="matrix(1 0 0 1 430.0071 353.9548)" fill="#808080" font-family="'ArialMT'" font-size="16">Mitral valve</text>
<text transform="matrix(1 0 0 1 430.0071 373.9548)" fill="#808080" font-family="'ArialMT'" font-size="16">opens</text>
<path id="path3971-3" fill="none" stroke="#000000" stroke-dasharray="1,1" d="M240.933,251.398l34.854,39.006l0,0"/>
<path id="path3971-4" fill="none" stroke="#000000" stroke-dasharray="1,1" d="M391.898,257.095l61.853,21.386l0,0"/>
<path id="path3971" fill="none" stroke="#000000" stroke-dasharray="1,1" d="M240.72,380.111l15.564,43.062l0,0"/>
<path id="path3971-0" fill="none" stroke="#000000" stroke-dasharray="1,1" d="M454.97,379.352l-45.415,27.977l0,0"/>
</svg>
