M48
;GenerationSoftware,Autodesk,EAGLE,9.6.2*%
;CreationDate,2024-03-24T20:55:38Z*%
FMAT,2
ICI,OFF
METRIC,TZ,000.000
T6C0.350
T5C1.016
T4C1.100
T3C1.700
T2C3.250
T1C3.500
%
G90
M71
T1
X3750Y66250
X66250Y66250
X66250Y3750
X3750Y3750
T2
X47250Y14000
X57250Y14000
X57250Y34500
X47250Y34500
T3
X26500Y3500
X26500Y10500
T4
X13700Y2300
X13700Y9300
T5
X33750Y67800
X10890Y67800
X13430Y67800
X15970Y67800
X18510Y67800
X21050Y67800
X23590Y67800
X26130Y67800
X28670Y67800
X31210Y67800
T6
X37500Y19800
X37750Y49750
X37500Y37000
X37000Y65750
X47500Y50000
X47500Y59500
X47400Y17200
X56100Y17000
X56100Y23250
X55850Y30750
X42200Y27250
X30500Y50000
X30500Y37000
X25250Y50250
X14250Y50250
X12750Y50250
X15300Y65800
X27500Y62750
X29900Y62850
X24900Y62850
X22400Y62750
X17200Y59950
X13300Y56450
X12650Y32050
X14650Y32050
X21750Y32150
X27150Y28250
X29150Y19250
X22150Y10250
X18150Y10250
X5950Y10250
X17250Y65750
X8150Y3250
X33150Y4250
X32000Y65750
X47500Y22800
X8150Y5850
X8150Y18450
X5950Y18250
X5950Y6950
X21750Y30250
X18700Y21700
X20400Y21700
X20400Y23300
X18700Y23300
X10800Y26300
X10650Y37000
X10650Y49850
X10950Y60700
X37100Y63550
X22450Y24850
X18500Y61750
X12250Y22450
X30200Y14000
X12250Y23950
X20800Y6500
X42250Y21500
X11750Y15000
X22450Y23700
X16000Y63250
X42200Y25700
X27000Y22250
X20450Y31100
X47250Y64750
X42500Y24000
X53750Y23250
X8250Y64500
X8250Y49750
X8250Y37000
X8400Y26300
X18150Y3250
X58250Y38500
X63250Y50000
X63000Y65500
X10850Y65750
X19750Y65750
X22250Y65750
X24750Y65750
X27500Y65750
X30000Y65750
X37500Y21500
X37500Y23150
X47600Y30750
X27000Y20750
M30