M48
;GenerationSoftware,Autodesk,EAGLE,9.6.2*%
;CreationDate,2024-04-02T16:17:00Z*%
FMAT,2
ICI,OFF
METRIC,TZ,000.000
T3C0.350
T2C1.016
T1C3.500
%
G90
M71
T1
X3750Y66250
X66250Y66250
X3750Y3750
X66250Y3750
T2
X67950Y24680
X3800Y59700
X3800Y57160
X3800Y54620
X3800Y52080
X3850Y48750
X67950Y32300
X67950Y29760
X67950Y27220
X67950Y22140
X67950Y19600
X3800Y35300
X3800Y37840
X3800Y40380
X3800Y42920
X3800Y45460
X68000Y7950
X68000Y10490
X68000Y13030
T3
X52500Y35500
X68500Y39000
X52500Y39000
X52500Y51000
X68500Y51000
X43950Y62500
X68500Y35500
X60500Y38500
X51650Y68550
X51000Y62000
X42000Y68550
X42000Y65000
X23400Y65150
X23400Y68550
X55000Y43750
X55950Y54600
X63950Y18000
X6150Y32200
X52700Y67500
X28400Y65250
X52700Y60000
X29600Y63800
X46500Y65500
X46500Y67500
X12000Y67500
X17950Y67500
X29600Y67500
X18500Y65150
X55500Y60000
X34000Y63900
X26800Y62000
X27650Y63150
X34500Y62000
X31050Y61200
X64700Y30500
X52750Y28000
X52750Y25500
X54200Y22600
X56750Y21100
X59000Y46500
X59000Y43500
X62000Y43500
X62000Y46500
X65150Y50400
X12500Y66250
X35800Y65400
X13900Y63400
X3800Y61700
X7400Y64400
X48800Y65400
X57650Y62950
X58450Y65750
X55500Y21150
X54000Y28650
X10000Y4000
X27000Y6000
X43000Y5500
X54700Y5500
X52500Y16050
X68000Y15950
X60050Y16000
X60500Y35500
M30