M48
;GenerationSoftware,Autodesk,EAGLE,9.6.2*%
;CreationDate,2024-04-18T14:46:31Z*%
FMAT,2
ICI,OFF
METRIC,TZ,000.000
T4C0.350
T3C1.016
T2C3.500
%
G90
M71
T2
X3750Y66250
X66250Y66250
X3750Y3750
X66250Y3750
T3
X68000Y13030
X3800Y59700
X3800Y57160
X3800Y54620
X3800Y52080
X3850Y48750
X67950Y32300
X67950Y29760
X67950Y24680
X67950Y27220
X68000Y10490
X68000Y7950
X3800Y45460
X3800Y42920
X3800Y37840
X3800Y35300
X67950Y19600
X67950Y22140
X3800Y40380
T4
X18500Y65150
X29600Y67500
X17950Y67500
X12000Y67500
X46500Y67500
X46500Y65500
X29600Y63800
X52700Y60000
X58450Y65750
X52700Y67500
X6150Y32200
X63950Y18000
X55500Y60000
X34000Y63900
X26800Y62000
X27650Y63150
X34500Y62000
X31050Y61200
X52750Y28000
X52750Y25500
X54200Y22600
X56750Y21100
X64700Y30550
X55950Y54600
X57700Y64900
X52500Y35500
X60500Y35500
X60050Y16000
X68000Y15950
X52500Y16050
X54700Y5500
X43000Y5500
X27000Y6000
X10000Y4000
X53550Y28750
X55500Y21150
X68500Y39000
X47600Y65750
X28800Y64400
X7400Y64400
X3800Y61700
X13900Y63400
X34900Y64700
X12500Y66650
X65150Y50400
X62000Y46500
X62000Y43500
X59000Y43500
X55200Y61000
X55000Y43750
X23400Y68550
X23400Y65150
X42000Y65000
X42000Y68550
X51000Y62000
X51650Y68550
X6200Y33400
X64000Y16950
X54950Y42650
X55950Y55600
X59000Y46500
X51800Y61050
X41200Y65750
X34000Y61200
X18500Y64100
X60500Y38500
X68500Y35500
X43950Y62500
X68500Y51000
X52500Y51000
X52500Y39000
M30