G04 EAGLE Gerber RS-274X export*
G75*
%MOMM*%
%FSLAX34Y34*%
%LPD*%
%INSoldermask Bottom*%
%IPPOS*%
%AMOC8*
5,1,8,0,0,1.08239X$1,22.5*%
G01*
%ADD10C,3.703200*%
%ADD11C,2.082800*%
%ADD12C,0.953200*%
%ADD13C,0.903200*%


D10*
X37500Y662500D03*
X662500Y662500D03*
X37500Y37500D03*
X662500Y37500D03*
D11*
X370000Y680000D03*
X395400Y680000D03*
X420800Y680000D03*
X446200Y680000D03*
X471600Y680000D03*
X497000Y680000D03*
X522400Y680000D03*
X547800Y680000D03*
X573200Y680000D03*
D12*
X548000Y663000D03*
X511000Y664000D03*
X484500Y664000D03*
X458500Y664000D03*
X433500Y664000D03*
X408000Y664000D03*
X383000Y664000D03*
X359000Y664000D03*
X503000Y567500D03*
X536000Y567500D03*
X402500Y567500D03*
X436000Y567500D03*
X469500Y567500D03*
X529500Y493500D03*
X463000Y614500D03*
X493000Y614500D03*
X433000Y614500D03*
X436500Y502500D03*
X469500Y502500D03*
X469500Y535500D03*
X436500Y535500D03*
X390500Y504500D03*
X375500Y504500D03*
X582000Y585500D03*
X383500Y546500D03*
X451000Y616500D03*
X380500Y597500D03*
X496000Y653000D03*
X466000Y653500D03*
X436000Y653000D03*
X604500Y634000D03*
X406000Y654500D03*
X526000Y654500D03*
X604000Y654500D03*
X376000Y654500D03*
X556000Y654500D03*
X511500Y588500D03*
X544000Y588500D03*
X411000Y588500D03*
X444500Y588500D03*
X478000Y588500D03*
X482000Y506000D03*
X405000Y504500D03*
X361000Y504500D03*
X572000Y589000D03*
X524500Y576000D03*
X557500Y576000D03*
X425000Y575500D03*
X457500Y576000D03*
X491000Y576000D03*
X519000Y493500D03*
X422500Y504500D03*
D13*
X420500Y617000D03*
D12*
X372500Y604500D03*
X480500Y616500D03*
X390000Y588500D03*
M02*
