<?xml version="1.0" encoding="utf-8" standalone="no"?>
<!DOCTYPE svg PUBLIC "-//W3C//DTD SVG 1.1//EN"
  "http://www.w3.org/Graphics/SVG/1.1/DTD/svg11.dtd">
<svg xmlns:xlink="http://www.w3.org/1999/xlink" width="460.8pt" height="345.6pt" viewBox="0 0 460.8 345.6" xmlns="http://www.w3.org/2000/svg" version="1.1">
 <metadata>
  <rdf:RDF xmlns:dc="http://purl.org/dc/elements/1.1/" xmlns:cc="http://creativecommons.org/ns#" xmlns:rdf="http://www.w3.org/1999/02/22-rdf-syntax-ns#">
   <cc:Work>
    <dc:type rdf:resource="http://purl.org/dc/dcmitype/StillImage"/>
    <dc:date>2024-08-09T16:25:06.214130</dc:date>
    <dc:format>image/svg+xml</dc:format>
    <dc:creator>
     <cc:Agent>
      <dc:title>Matplotlib v3.9.1, https://matplotlib.org/</dc:title>
     </cc:Agent>
    </dc:creator>
   </cc:Work>
  </rdf:RDF>
 </metadata>
 <defs>
  <style type="text/css">*{stroke-linejoin: round; stroke-linecap: butt}</style>
 </defs>
 <g id="figure_1">
  <g id="patch_1">
   <path d="M 0 345.6 
L 460.8 345.6 
L 460.8 0 
L 0 0 
z
" style="fill: #ffffff"/>
  </g>
  <g id="axes_1">
   <g id="patch_2">
    <path d="M 57.6 307.584 
L 414.72 307.584 
L 414.72 41.472 
L 57.6 41.472 
z
" style="fill: #ffffff"/>
   </g>
   <g id="matplotlib.axis_1">
    <g id="xtick_1">
     <g id="line2d_1">
      <path d="M 73.832727 307.584 
L 73.832727 41.472 
" clip-path="url(#p61030fdfbc)" style="fill: none; stroke: #b0b0b0; stroke-width: 0.8; stroke-linecap: square"/>
     </g>
     <g id="line2d_2">
      <defs>
       <path id="m15a1cb3dda" d="M 0 0 
L 0 3.5 
" style="stroke: #000000; stroke-width: 0.8"/>
      </defs>
      <g>
       <use xlink:href="#m15a1cb3dda" x="73.832727" y="307.584" style="stroke: #000000; stroke-width: 0.8"/>
      </g>
     </g>
     <g id="text_1">
      <!-- 0.00000 -->
      <g transform="translate(53.156165 322.182437) scale(0.1 -0.1)">
       <defs>
        <path id="DejaVuSans-30" d="M 2034 4250 
Q 1547 4250 1301 3770 
Q 1056 3291 1056 2328 
Q 1056 1369 1301 889 
Q 1547 409 2034 409 
Q 2525 409 2770 889 
Q 3016 1369 3016 2328 
Q 3016 3291 2770 3770 
Q 2525 4250 2034 4250 
z
M 2034 4750 
Q 2819 4750 3233 4129 
Q 3647 3509 3647 2328 
Q 3647 1150 3233 529 
Q 2819 -91 2034 -91 
Q 1250 -91 836 529 
Q 422 1150 422 2328 
Q 422 3509 836 4129 
Q 1250 4750 2034 4750 
z
" transform="scale(0.015625)"/>
        <path id="DejaVuSans-2e" d="M 684 794 
L 1344 794 
L 1344 0 
L 684 0 
L 684 794 
z
" transform="scale(0.015625)"/>
       </defs>
       <use xlink:href="#DejaVuSans-30"/>
       <use xlink:href="#DejaVuSans-2e" x="63.623047"/>
       <use xlink:href="#DejaVuSans-30" x="95.410156"/>
       <use xlink:href="#DejaVuSans-30" x="159.033203"/>
       <use xlink:href="#DejaVuSans-30" x="222.65625"/>
       <use xlink:href="#DejaVuSans-30" x="286.279297"/>
       <use xlink:href="#DejaVuSans-30" x="349.902344"/>
      </g>
     </g>
    </g>
    <g id="xtick_2">
     <g id="line2d_3">
      <path d="M 146.142149 307.584 
L 146.142149 41.472 
" clip-path="url(#p61030fdfbc)" style="fill: none; stroke: #b0b0b0; stroke-width: 0.8; stroke-linecap: square"/>
     </g>
     <g id="line2d_4">
      <g>
       <use xlink:href="#m15a1cb3dda" x="146.142149" y="307.584" style="stroke: #000000; stroke-width: 0.8"/>
      </g>
     </g>
     <g id="text_2">
      <!-- 0.00005 -->
      <g transform="translate(125.465586 322.182437) scale(0.1 -0.1)">
       <defs>
        <path id="DejaVuSans-35" d="M 691 4666 
L 3169 4666 
L 3169 4134 
L 1269 4134 
L 1269 2991 
Q 1406 3038 1543 3061 
Q 1681 3084 1819 3084 
Q 2600 3084 3056 2656 
Q 3513 2228 3513 1497 
Q 3513 744 3044 326 
Q 2575 -91 1722 -91 
Q 1428 -91 1123 -41 
Q 819 9 494 109 
L 494 744 
Q 775 591 1075 516 
Q 1375 441 1709 441 
Q 2250 441 2565 725 
Q 2881 1009 2881 1497 
Q 2881 1984 2565 2268 
Q 2250 2553 1709 2553 
Q 1456 2553 1204 2497 
Q 953 2441 691 2322 
L 691 4666 
z
" transform="scale(0.015625)"/>
       </defs>
       <use xlink:href="#DejaVuSans-30"/>
       <use xlink:href="#DejaVuSans-2e" x="63.623047"/>
       <use xlink:href="#DejaVuSans-30" x="95.410156"/>
       <use xlink:href="#DejaVuSans-30" x="159.033203"/>
       <use xlink:href="#DejaVuSans-30" x="222.65625"/>
       <use xlink:href="#DejaVuSans-30" x="286.279297"/>
       <use xlink:href="#DejaVuSans-35" x="349.902344"/>
      </g>
     </g>
    </g>
    <g id="xtick_3">
     <g id="line2d_5">
      <path d="M 218.45157 307.584 
L 218.45157 41.472 
" clip-path="url(#p61030fdfbc)" style="fill: none; stroke: #b0b0b0; stroke-width: 0.8; stroke-linecap: square"/>
     </g>
     <g id="line2d_6">
      <g>
       <use xlink:href="#m15a1cb3dda" x="218.45157" y="307.584" style="stroke: #000000; stroke-width: 0.8"/>
      </g>
     </g>
     <g id="text_3">
      <!-- 0.00010 -->
      <g transform="translate(197.775008 322.182437) scale(0.1 -0.1)">
       <defs>
        <path id="DejaVuSans-31" d="M 794 531 
L 1825 531 
L 1825 4091 
L 703 3866 
L 703 4441 
L 1819 4666 
L 2450 4666 
L 2450 531 
L 3481 531 
L 3481 0 
L 794 0 
L 794 531 
z
" transform="scale(0.015625)"/>
       </defs>
       <use xlink:href="#DejaVuSans-30"/>
       <use xlink:href="#DejaVuSans-2e" x="63.623047"/>
       <use xlink:href="#DejaVuSans-30" x="95.410156"/>
       <use xlink:href="#DejaVuSans-30" x="159.033203"/>
       <use xlink:href="#DejaVuSans-30" x="222.65625"/>
       <use xlink:href="#DejaVuSans-31" x="286.279297"/>
       <use xlink:href="#DejaVuSans-30" x="349.902344"/>
      </g>
     </g>
    </g>
    <g id="xtick_4">
     <g id="line2d_7">
      <path d="M 290.760992 307.584 
L 290.760992 41.472 
" clip-path="url(#p61030fdfbc)" style="fill: none; stroke: #b0b0b0; stroke-width: 0.8; stroke-linecap: square"/>
     </g>
     <g id="line2d_8">
      <g>
       <use xlink:href="#m15a1cb3dda" x="290.760992" y="307.584" style="stroke: #000000; stroke-width: 0.8"/>
      </g>
     </g>
     <g id="text_4">
      <!-- 0.00015 -->
      <g transform="translate(270.084429 322.182437) scale(0.1 -0.1)">
       <use xlink:href="#DejaVuSans-30"/>
       <use xlink:href="#DejaVuSans-2e" x="63.623047"/>
       <use xlink:href="#DejaVuSans-30" x="95.410156"/>
       <use xlink:href="#DejaVuSans-30" x="159.033203"/>
       <use xlink:href="#DejaVuSans-30" x="222.65625"/>
       <use xlink:href="#DejaVuSans-31" x="286.279297"/>
       <use xlink:href="#DejaVuSans-35" x="349.902344"/>
      </g>
     </g>
    </g>
    <g id="xtick_5">
     <g id="line2d_9">
      <path d="M 363.070413 307.584 
L 363.070413 41.472 
" clip-path="url(#p61030fdfbc)" style="fill: none; stroke: #b0b0b0; stroke-width: 0.8; stroke-linecap: square"/>
     </g>
     <g id="line2d_10">
      <g>
       <use xlink:href="#m15a1cb3dda" x="363.070413" y="307.584" style="stroke: #000000; stroke-width: 0.8"/>
      </g>
     </g>
     <g id="text_5">
      <!-- 0.00020 -->
      <g transform="translate(342.393851 322.182437) scale(0.1 -0.1)">
       <defs>
        <path id="DejaVuSans-32" d="M 1228 531 
L 3431 531 
L 3431 0 
L 469 0 
L 469 531 
Q 828 903 1448 1529 
Q 2069 2156 2228 2338 
Q 2531 2678 2651 2914 
Q 2772 3150 2772 3378 
Q 2772 3750 2511 3984 
Q 2250 4219 1831 4219 
Q 1534 4219 1204 4116 
Q 875 4013 500 3803 
L 500 4441 
Q 881 4594 1212 4672 
Q 1544 4750 1819 4750 
Q 2544 4750 2975 4387 
Q 3406 4025 3406 3419 
Q 3406 3131 3298 2873 
Q 3191 2616 2906 2266 
Q 2828 2175 2409 1742 
Q 1991 1309 1228 531 
z
" transform="scale(0.015625)"/>
       </defs>
       <use xlink:href="#DejaVuSans-30"/>
       <use xlink:href="#DejaVuSans-2e" x="63.623047"/>
       <use xlink:href="#DejaVuSans-30" x="95.410156"/>
       <use xlink:href="#DejaVuSans-30" x="159.033203"/>
       <use xlink:href="#DejaVuSans-30" x="222.65625"/>
       <use xlink:href="#DejaVuSans-32" x="286.279297"/>
       <use xlink:href="#DejaVuSans-30" x="349.902344"/>
      </g>
     </g>
    </g>
    <g id="text_6">
     <!-- Samples -->
     <g transform="translate(214.806875 335.860562) scale(0.1 -0.1)">
      <defs>
       <path id="DejaVuSans-53" d="M 3425 4513 
L 3425 3897 
Q 3066 4069 2747 4153 
Q 2428 4238 2131 4238 
Q 1616 4238 1336 4038 
Q 1056 3838 1056 3469 
Q 1056 3159 1242 3001 
Q 1428 2844 1947 2747 
L 2328 2669 
Q 3034 2534 3370 2195 
Q 3706 1856 3706 1288 
Q 3706 609 3251 259 
Q 2797 -91 1919 -91 
Q 1588 -91 1214 -16 
Q 841 59 441 206 
L 441 856 
Q 825 641 1194 531 
Q 1563 422 1919 422 
Q 2459 422 2753 634 
Q 3047 847 3047 1241 
Q 3047 1584 2836 1778 
Q 2625 1972 2144 2069 
L 1759 2144 
Q 1053 2284 737 2584 
Q 422 2884 422 3419 
Q 422 4038 858 4394 
Q 1294 4750 2059 4750 
Q 2388 4750 2728 4690 
Q 3069 4631 3425 4513 
z
" transform="scale(0.015625)"/>
       <path id="DejaVuSans-61" d="M 2194 1759 
Q 1497 1759 1228 1600 
Q 959 1441 959 1056 
Q 959 750 1161 570 
Q 1363 391 1709 391 
Q 2188 391 2477 730 
Q 2766 1069 2766 1631 
L 2766 1759 
L 2194 1759 
z
M 3341 1997 
L 3341 0 
L 2766 0 
L 2766 531 
Q 2569 213 2275 61 
Q 1981 -91 1556 -91 
Q 1019 -91 701 211 
Q 384 513 384 1019 
Q 384 1609 779 1909 
Q 1175 2209 1959 2209 
L 2766 2209 
L 2766 2266 
Q 2766 2663 2505 2880 
Q 2244 3097 1772 3097 
Q 1472 3097 1187 3025 
Q 903 2953 641 2809 
L 641 3341 
Q 956 3463 1253 3523 
Q 1550 3584 1831 3584 
Q 2591 3584 2966 3190 
Q 3341 2797 3341 1997 
z
" transform="scale(0.015625)"/>
       <path id="DejaVuSans-6d" d="M 3328 2828 
Q 3544 3216 3844 3400 
Q 4144 3584 4550 3584 
Q 5097 3584 5394 3201 
Q 5691 2819 5691 2113 
L 5691 0 
L 5113 0 
L 5113 2094 
Q 5113 2597 4934 2840 
Q 4756 3084 4391 3084 
Q 3944 3084 3684 2787 
Q 3425 2491 3425 1978 
L 3425 0 
L 2847 0 
L 2847 2094 
Q 2847 2600 2669 2842 
Q 2491 3084 2119 3084 
Q 1678 3084 1418 2786 
Q 1159 2488 1159 1978 
L 1159 0 
L 581 0 
L 581 3500 
L 1159 3500 
L 1159 2956 
Q 1356 3278 1631 3431 
Q 1906 3584 2284 3584 
Q 2666 3584 2933 3390 
Q 3200 3197 3328 2828 
z
" transform="scale(0.015625)"/>
       <path id="DejaVuSans-70" d="M 1159 525 
L 1159 -1331 
L 581 -1331 
L 581 3500 
L 1159 3500 
L 1159 2969 
Q 1341 3281 1617 3432 
Q 1894 3584 2278 3584 
Q 2916 3584 3314 3078 
Q 3713 2572 3713 1747 
Q 3713 922 3314 415 
Q 2916 -91 2278 -91 
Q 1894 -91 1617 61 
Q 1341 213 1159 525 
z
M 3116 1747 
Q 3116 2381 2855 2742 
Q 2594 3103 2138 3103 
Q 1681 3103 1420 2742 
Q 1159 2381 1159 1747 
Q 1159 1113 1420 752 
Q 1681 391 2138 391 
Q 2594 391 2855 752 
Q 3116 1113 3116 1747 
z
" transform="scale(0.015625)"/>
       <path id="DejaVuSans-6c" d="M 603 4863 
L 1178 4863 
L 1178 0 
L 603 0 
L 603 4863 
z
" transform="scale(0.015625)"/>
       <path id="DejaVuSans-65" d="M 3597 1894 
L 3597 1613 
L 953 1613 
Q 991 1019 1311 708 
Q 1631 397 2203 397 
Q 2534 397 2845 478 
Q 3156 559 3463 722 
L 3463 178 
Q 3153 47 2828 -22 
Q 2503 -91 2169 -91 
Q 1331 -91 842 396 
Q 353 884 353 1716 
Q 353 2575 817 3079 
Q 1281 3584 2069 3584 
Q 2775 3584 3186 3129 
Q 3597 2675 3597 1894 
z
M 3022 2063 
Q 3016 2534 2758 2815 
Q 2500 3097 2075 3097 
Q 1594 3097 1305 2825 
Q 1016 2553 972 2059 
L 3022 2063 
z
" transform="scale(0.015625)"/>
       <path id="DejaVuSans-73" d="M 2834 3397 
L 2834 2853 
Q 2591 2978 2328 3040 
Q 2066 3103 1784 3103 
Q 1356 3103 1142 2972 
Q 928 2841 928 2578 
Q 928 2378 1081 2264 
Q 1234 2150 1697 2047 
L 1894 2003 
Q 2506 1872 2764 1633 
Q 3022 1394 3022 966 
Q 3022 478 2636 193 
Q 2250 -91 1575 -91 
Q 1294 -91 989 -36 
Q 684 19 347 128 
L 347 722 
Q 666 556 975 473 
Q 1284 391 1588 391 
Q 1994 391 2212 530 
Q 2431 669 2431 922 
Q 2431 1156 2273 1281 
Q 2116 1406 1581 1522 
L 1381 1569 
Q 847 1681 609 1914 
Q 372 2147 372 2553 
Q 372 3047 722 3315 
Q 1072 3584 1716 3584 
Q 2034 3584 2315 3537 
Q 2597 3491 2834 3397 
z
" transform="scale(0.015625)"/>
      </defs>
      <use xlink:href="#DejaVuSans-53"/>
      <use xlink:href="#DejaVuSans-61" x="63.476562"/>
      <use xlink:href="#DejaVuSans-6d" x="124.755859"/>
      <use xlink:href="#DejaVuSans-70" x="222.167969"/>
      <use xlink:href="#DejaVuSans-6c" x="285.644531"/>
      <use xlink:href="#DejaVuSans-65" x="313.427734"/>
      <use xlink:href="#DejaVuSans-73" x="374.951172"/>
     </g>
    </g>
   </g>
   <g id="matplotlib.axis_2">
    <g id="ytick_1">
     <g id="line2d_11">
      <path d="M 57.6 295.488 
L 414.72 295.488 
" clip-path="url(#p61030fdfbc)" style="fill: none; stroke: #b0b0b0; stroke-width: 0.8; stroke-linecap: square"/>
     </g>
     <g id="line2d_12">
      <defs>
       <path id="mb2004c5182" d="M 0 0 
L -3.5 0 
" style="stroke: #000000; stroke-width: 0.8"/>
      </defs>
      <g>
       <use xlink:href="#mb2004c5182" x="57.6" y="295.488" style="stroke: #000000; stroke-width: 0.8"/>
      </g>
     </g>
     <g id="text_7">
      <!-- 0.0 -->
      <g transform="translate(34.696875 299.287219) scale(0.1 -0.1)">
       <use xlink:href="#DejaVuSans-30"/>
       <use xlink:href="#DejaVuSans-2e" x="63.623047"/>
       <use xlink:href="#DejaVuSans-30" x="95.410156"/>
      </g>
     </g>
    </g>
    <g id="ytick_2">
     <g id="line2d_13">
      <path d="M 57.6 241.826474 
L 414.72 241.826474 
" clip-path="url(#p61030fdfbc)" style="fill: none; stroke: #b0b0b0; stroke-width: 0.8; stroke-linecap: square"/>
     </g>
     <g id="line2d_14">
      <g>
       <use xlink:href="#mb2004c5182" x="57.6" y="241.826474" style="stroke: #000000; stroke-width: 0.8"/>
      </g>
     </g>
     <g id="text_8">
      <!-- 0.2 -->
      <g transform="translate(34.696875 245.625693) scale(0.1 -0.1)">
       <use xlink:href="#DejaVuSans-30"/>
       <use xlink:href="#DejaVuSans-2e" x="63.623047"/>
       <use xlink:href="#DejaVuSans-32" x="95.410156"/>
      </g>
     </g>
    </g>
    <g id="ytick_3">
     <g id="line2d_15">
      <path d="M 57.6 188.164949 
L 414.72 188.164949 
" clip-path="url(#p61030fdfbc)" style="fill: none; stroke: #b0b0b0; stroke-width: 0.8; stroke-linecap: square"/>
     </g>
     <g id="line2d_16">
      <g>
       <use xlink:href="#mb2004c5182" x="57.6" y="188.164949" style="stroke: #000000; stroke-width: 0.8"/>
      </g>
     </g>
     <g id="text_9">
      <!-- 0.4 -->
      <g transform="translate(34.696875 191.964167) scale(0.1 -0.1)">
       <defs>
        <path id="DejaVuSans-34" d="M 2419 4116 
L 825 1625 
L 2419 1625 
L 2419 4116 
z
M 2253 4666 
L 3047 4666 
L 3047 1625 
L 3713 1625 
L 3713 1100 
L 3047 1100 
L 3047 0 
L 2419 0 
L 2419 1100 
L 313 1100 
L 313 1709 
L 2253 4666 
z
" transform="scale(0.015625)"/>
       </defs>
       <use xlink:href="#DejaVuSans-30"/>
       <use xlink:href="#DejaVuSans-2e" x="63.623047"/>
       <use xlink:href="#DejaVuSans-34" x="95.410156"/>
      </g>
     </g>
    </g>
    <g id="ytick_4">
     <g id="line2d_17">
      <path d="M 57.6 134.503423 
L 414.72 134.503423 
" clip-path="url(#p61030fdfbc)" style="fill: none; stroke: #b0b0b0; stroke-width: 0.8; stroke-linecap: square"/>
     </g>
     <g id="line2d_18">
      <g>
       <use xlink:href="#mb2004c5182" x="57.6" y="134.503423" style="stroke: #000000; stroke-width: 0.8"/>
      </g>
     </g>
     <g id="text_10">
      <!-- 0.6 -->
      <g transform="translate(34.696875 138.302642) scale(0.1 -0.1)">
       <defs>
        <path id="DejaVuSans-36" d="M 2113 2584 
Q 1688 2584 1439 2293 
Q 1191 2003 1191 1497 
Q 1191 994 1439 701 
Q 1688 409 2113 409 
Q 2538 409 2786 701 
Q 3034 994 3034 1497 
Q 3034 2003 2786 2293 
Q 2538 2584 2113 2584 
z
M 3366 4563 
L 3366 3988 
Q 3128 4100 2886 4159 
Q 2644 4219 2406 4219 
Q 1781 4219 1451 3797 
Q 1122 3375 1075 2522 
Q 1259 2794 1537 2939 
Q 1816 3084 2150 3084 
Q 2853 3084 3261 2657 
Q 3669 2231 3669 1497 
Q 3669 778 3244 343 
Q 2819 -91 2113 -91 
Q 1303 -91 875 529 
Q 447 1150 447 2328 
Q 447 3434 972 4092 
Q 1497 4750 2381 4750 
Q 2619 4750 2861 4703 
Q 3103 4656 3366 4563 
z
" transform="scale(0.015625)"/>
       </defs>
       <use xlink:href="#DejaVuSans-30"/>
       <use xlink:href="#DejaVuSans-2e" x="63.623047"/>
       <use xlink:href="#DejaVuSans-36" x="95.410156"/>
      </g>
     </g>
    </g>
    <g id="ytick_5">
     <g id="line2d_19">
      <path d="M 57.6 80.841897 
L 414.72 80.841897 
" clip-path="url(#p61030fdfbc)" style="fill: none; stroke: #b0b0b0; stroke-width: 0.8; stroke-linecap: square"/>
     </g>
     <g id="line2d_20">
      <g>
       <use xlink:href="#mb2004c5182" x="57.6" y="80.841897" style="stroke: #000000; stroke-width: 0.8"/>
      </g>
     </g>
     <g id="text_11">
      <!-- 0.8 -->
      <g transform="translate(34.696875 84.641116) scale(0.1 -0.1)">
       <defs>
        <path id="DejaVuSans-38" d="M 2034 2216 
Q 1584 2216 1326 1975 
Q 1069 1734 1069 1313 
Q 1069 891 1326 650 
Q 1584 409 2034 409 
Q 2484 409 2743 651 
Q 3003 894 3003 1313 
Q 3003 1734 2745 1975 
Q 2488 2216 2034 2216 
z
M 1403 2484 
Q 997 2584 770 2862 
Q 544 3141 544 3541 
Q 544 4100 942 4425 
Q 1341 4750 2034 4750 
Q 2731 4750 3128 4425 
Q 3525 4100 3525 3541 
Q 3525 3141 3298 2862 
Q 3072 2584 2669 2484 
Q 3125 2378 3379 2068 
Q 3634 1759 3634 1313 
Q 3634 634 3220 271 
Q 2806 -91 2034 -91 
Q 1263 -91 848 271 
Q 434 634 434 1313 
Q 434 1759 690 2068 
Q 947 2378 1403 2484 
z
M 1172 3481 
Q 1172 3119 1398 2916 
Q 1625 2713 2034 2713 
Q 2441 2713 2670 2916 
Q 2900 3119 2900 3481 
Q 2900 3844 2670 4047 
Q 2441 4250 2034 4250 
Q 1625 4250 1398 4047 
Q 1172 3844 1172 3481 
z
" transform="scale(0.015625)"/>
       </defs>
       <use xlink:href="#DejaVuSans-30"/>
       <use xlink:href="#DejaVuSans-2e" x="63.623047"/>
       <use xlink:href="#DejaVuSans-38" x="95.410156"/>
      </g>
     </g>
    </g>
    <g id="text_12">
     <!-- Amplitude -->
     <g transform="translate(28.617187 200.150656) rotate(-90) scale(0.1 -0.1)">
      <defs>
       <path id="DejaVuSans-41" d="M 2188 4044 
L 1331 1722 
L 3047 1722 
L 2188 4044 
z
M 1831 4666 
L 2547 4666 
L 4325 0 
L 3669 0 
L 3244 1197 
L 1141 1197 
L 716 0 
L 50 0 
L 1831 4666 
z
" transform="scale(0.015625)"/>
       <path id="DejaVuSans-69" d="M 603 3500 
L 1178 3500 
L 1178 0 
L 603 0 
L 603 3500 
z
M 603 4863 
L 1178 4863 
L 1178 4134 
L 603 4134 
L 603 4863 
z
" transform="scale(0.015625)"/>
       <path id="DejaVuSans-74" d="M 1172 4494 
L 1172 3500 
L 2356 3500 
L 2356 3053 
L 1172 3053 
L 1172 1153 
Q 1172 725 1289 603 
Q 1406 481 1766 481 
L 2356 481 
L 2356 0 
L 1766 0 
Q 1100 0 847 248 
Q 594 497 594 1153 
L 594 3053 
L 172 3053 
L 172 3500 
L 594 3500 
L 594 4494 
L 1172 4494 
z
" transform="scale(0.015625)"/>
       <path id="DejaVuSans-75" d="M 544 1381 
L 544 3500 
L 1119 3500 
L 1119 1403 
Q 1119 906 1312 657 
Q 1506 409 1894 409 
Q 2359 409 2629 706 
Q 2900 1003 2900 1516 
L 2900 3500 
L 3475 3500 
L 3475 0 
L 2900 0 
L 2900 538 
Q 2691 219 2414 64 
Q 2138 -91 1772 -91 
Q 1169 -91 856 284 
Q 544 659 544 1381 
z
M 1991 3584 
L 1991 3584 
z
" transform="scale(0.015625)"/>
       <path id="DejaVuSans-64" d="M 2906 2969 
L 2906 4863 
L 3481 4863 
L 3481 0 
L 2906 0 
L 2906 525 
Q 2725 213 2448 61 
Q 2172 -91 1784 -91 
Q 1150 -91 751 415 
Q 353 922 353 1747 
Q 353 2572 751 3078 
Q 1150 3584 1784 3584 
Q 2172 3584 2448 3432 
Q 2725 3281 2906 2969 
z
M 947 1747 
Q 947 1113 1208 752 
Q 1469 391 1925 391 
Q 2381 391 2643 752 
Q 2906 1113 2906 1747 
Q 2906 2381 2643 2742 
Q 2381 3103 1925 3103 
Q 1469 3103 1208 2742 
Q 947 2381 947 1747 
z
" transform="scale(0.015625)"/>
      </defs>
      <use xlink:href="#DejaVuSans-41"/>
      <use xlink:href="#DejaVuSans-6d" x="68.408203"/>
      <use xlink:href="#DejaVuSans-70" x="165.820312"/>
      <use xlink:href="#DejaVuSans-6c" x="229.296875"/>
      <use xlink:href="#DejaVuSans-69" x="257.080078"/>
      <use xlink:href="#DejaVuSans-74" x="284.863281"/>
      <use xlink:href="#DejaVuSans-75" x="324.072266"/>
      <use xlink:href="#DejaVuSans-64" x="387.451172"/>
      <use xlink:href="#DejaVuSans-65" x="450.927734"/>
     </g>
    </g>
   </g>
   <g id="LineCollection_1">
    <path d="M 73.832727 295.488 
L 73.832727 295.434633 
" clip-path="url(#p61030fdfbc)" style="fill: none; stroke: #1f77b4; stroke-width: 1.5"/>
    <path d="M 77.112066 295.488 
L 77.112066 295.223354 
" clip-path="url(#p61030fdfbc)" style="fill: none; stroke: #1f77b4; stroke-width: 1.5"/>
    <path d="M 80.391405 295.488 
L 80.391405 294.807315 
" clip-path="url(#p61030fdfbc)" style="fill: none; stroke: #1f77b4; stroke-width: 1.5"/>
    <path d="M 83.670744 295.488 
L 83.670744 294.195083 
" clip-path="url(#p61030fdfbc)" style="fill: none; stroke: #1f77b4; stroke-width: 1.5"/>
    <path d="M 86.950083 295.488 
L 86.950083 293.395046 
" clip-path="url(#p61030fdfbc)" style="fill: none; stroke: #1f77b4; stroke-width: 1.5"/>
    <path d="M 90.229421 295.488 
L 90.229421 292.415409 
" clip-path="url(#p61030fdfbc)" style="fill: none; stroke: #1f77b4; stroke-width: 1.5"/>
    <path d="M 93.50876 295.488 
L 93.50876 291.264196 
" clip-path="url(#p61030fdfbc)" style="fill: none; stroke: #1f77b4; stroke-width: 1.5"/>
    <path d="M 96.788099 295.488 
L 96.788099 289.949249 
" clip-path="url(#p61030fdfbc)" style="fill: none; stroke: #1f77b4; stroke-width: 1.5"/>
    <path d="M 100.067438 295.488 
L 100.067438 288.478233 
" clip-path="url(#p61030fdfbc)" style="fill: none; stroke: #1f77b4; stroke-width: 1.5"/>
    <path d="M 103.346777 295.488 
L 103.346777 286.858633 
" clip-path="url(#p61030fdfbc)" style="fill: none; stroke: #1f77b4; stroke-width: 1.5"/>
    <path d="M 106.626116 295.488 
L 106.626116 285.097756 
" clip-path="url(#p61030fdfbc)" style="fill: none; stroke: #1f77b4; stroke-width: 1.5"/>
    <path d="M 109.905455 295.488 
L 109.905455 283.202734 
" clip-path="url(#p61030fdfbc)" style="fill: none; stroke: #1f77b4; stroke-width: 1.5"/>
    <path d="M 113.184793 295.488 
L 113.184793 281.180524 
" clip-path="url(#p61030fdfbc)" style="fill: none; stroke: #1f77b4; stroke-width: 1.5"/>
    <path d="M 116.464132 295.488 
L 116.464132 279.037909 
" clip-path="url(#p61030fdfbc)" style="fill: none; stroke: #1f77b4; stroke-width: 1.5"/>
    <path d="M 119.743471 295.488 
L 119.743471 276.781498 
" clip-path="url(#p61030fdfbc)" style="fill: none; stroke: #1f77b4; stroke-width: 1.5"/>
    <path d="M 123.02281 295.488 
L 123.02281 274.417734 
" clip-path="url(#p61030fdfbc)" style="fill: none; stroke: #1f77b4; stroke-width: 1.5"/>
    <path d="M 126.302149 295.488 
L 126.302149 271.952886 
" clip-path="url(#p61030fdfbc)" style="fill: none; stroke: #1f77b4; stroke-width: 1.5"/>
    <path d="M 129.581488 295.488 
L 129.581488 269.39306 
" clip-path="url(#p61030fdfbc)" style="fill: none; stroke: #1f77b4; stroke-width: 1.5"/>
    <path d="M 132.860826 295.488 
L 132.860826 266.744193 
" clip-path="url(#p61030fdfbc)" style="fill: none; stroke: #1f77b4; stroke-width: 1.5"/>
    <path d="M 136.140165 295.488 
L 136.140165 264.012059 
" clip-path="url(#p61030fdfbc)" style="fill: none; stroke: #1f77b4; stroke-width: 1.5"/>
    <path d="M 139.419504 295.488 
L 139.419504 261.202273 
" clip-path="url(#p61030fdfbc)" style="fill: none; stroke: #1f77b4; stroke-width: 1.5"/>
    <path d="M 142.698843 295.488 
L 142.698843 258.320286 
" clip-path="url(#p61030fdfbc)" style="fill: none; stroke: #1f77b4; stroke-width: 1.5"/>
    <path d="M 145.978182 295.488 
L 145.978182 255.371394 
" clip-path="url(#p61030fdfbc)" style="fill: none; stroke: #1f77b4; stroke-width: 1.5"/>
    <path d="M 149.257521 295.488 
L 149.257521 252.360735 
" clip-path="url(#p61030fdfbc)" style="fill: none; stroke: #1f77b4; stroke-width: 1.5"/>
    <path d="M 152.53686 295.488 
L 152.53686 249.293295 
" clip-path="url(#p61030fdfbc)" style="fill: none; stroke: #1f77b4; stroke-width: 1.5"/>
    <path d="M 155.816198 295.488 
L 155.816198 246.173908 
" clip-path="url(#p61030fdfbc)" style="fill: none; stroke: #1f77b4; stroke-width: 1.5"/>
    <path d="M 159.095537 295.488 
L 159.095537 243.007255 
" clip-path="url(#p61030fdfbc)" style="fill: none; stroke: #1f77b4; stroke-width: 1.5"/>
    <path d="M 162.374876 295.488 
L 162.374876 239.797875 
" clip-path="url(#p61030fdfbc)" style="fill: none; stroke: #1f77b4; stroke-width: 1.5"/>
    <path d="M 165.654215 295.488 
L 165.654215 236.550159 
" clip-path="url(#p61030fdfbc)" style="fill: none; stroke: #1f77b4; stroke-width: 1.5"/>
    <path d="M 168.933554 295.488 
L 168.933554 233.268353 
" clip-path="url(#p61030fdfbc)" style="fill: none; stroke: #1f77b4; stroke-width: 1.5"/>
    <path d="M 172.212893 295.488 
L 172.212893 229.956566 
" clip-path="url(#p61030fdfbc)" style="fill: none; stroke: #1f77b4; stroke-width: 1.5"/>
    <path d="M 175.492231 295.488 
L 175.492231 226.618767 
" clip-path="url(#p61030fdfbc)" style="fill: none; stroke: #1f77b4; stroke-width: 1.5"/>
    <path d="M 178.77157 295.488 
L 178.77157 223.258788 
" clip-path="url(#p61030fdfbc)" style="fill: none; stroke: #1f77b4; stroke-width: 1.5"/>
    <path d="M 182.050909 295.488 
L 182.050909 219.880329 
" clip-path="url(#p61030fdfbc)" style="fill: none; stroke: #1f77b4; stroke-width: 1.5"/>
    <path d="M 185.330248 295.488 
L 185.330248 216.486957 
" clip-path="url(#p61030fdfbc)" style="fill: none; stroke: #1f77b4; stroke-width: 1.5"/>
    <path d="M 188.609587 295.488 
L 188.609587 213.082111 
" clip-path="url(#p61030fdfbc)" style="fill: none; stroke: #1f77b4; stroke-width: 1.5"/>
    <path d="M 191.888926 295.488 
L 191.888926 209.669103 
" clip-path="url(#p61030fdfbc)" style="fill: none; stroke: #1f77b4; stroke-width: 1.5"/>
    <path d="M 195.168264 295.488 
L 195.168264 206.251119 
" clip-path="url(#p61030fdfbc)" style="fill: none; stroke: #1f77b4; stroke-width: 1.5"/>
    <path d="M 198.447603 295.488 
L 198.447603 202.831226 
" clip-path="url(#p61030fdfbc)" style="fill: none; stroke: #1f77b4; stroke-width: 1.5"/>
    <path d="M 201.726942 295.488 
L 201.726942 199.412369 
" clip-path="url(#p61030fdfbc)" style="fill: none; stroke: #1f77b4; stroke-width: 1.5"/>
    <path d="M 205.006281 295.488 
L 205.006281 195.997377 
" clip-path="url(#p61030fdfbc)" style="fill: none; stroke: #1f77b4; stroke-width: 1.5"/>
    <path d="M 208.28562 295.488 
L 208.28562 192.588964 
" clip-path="url(#p61030fdfbc)" style="fill: none; stroke: #1f77b4; stroke-width: 1.5"/>
    <path d="M 211.564959 295.488 
L 211.564959 189.189731 
" clip-path="url(#p61030fdfbc)" style="fill: none; stroke: #1f77b4; stroke-width: 1.5"/>
    <path d="M 214.844298 295.488 
L 214.844298 185.802169 
" clip-path="url(#p61030fdfbc)" style="fill: none; stroke: #1f77b4; stroke-width: 1.5"/>
    <path d="M 218.123636 295.488 
L 218.123636 182.428662 
" clip-path="url(#p61030fdfbc)" style="fill: none; stroke: #1f77b4; stroke-width: 1.5"/>
    <path d="M 221.402975 295.488 
L 221.402975 179.071487 
" clip-path="url(#p61030fdfbc)" style="fill: none; stroke: #1f77b4; stroke-width: 1.5"/>
    <path d="M 224.682314 295.488 
L 224.682314 175.73282 
" clip-path="url(#p61030fdfbc)" style="fill: none; stroke: #1f77b4; stroke-width: 1.5"/>
    <path d="M 227.961653 295.488 
L 227.961653 172.414735 
" clip-path="url(#p61030fdfbc)" style="fill: none; stroke: #1f77b4; stroke-width: 1.5"/>
    <path d="M 231.240992 295.488 
L 231.240992 169.119207 
" clip-path="url(#p61030fdfbc)" style="fill: none; stroke: #1f77b4; stroke-width: 1.5"/>
    <path d="M 234.520331 295.488 
L 234.520331 165.848118 
" clip-path="url(#p61030fdfbc)" style="fill: none; stroke: #1f77b4; stroke-width: 1.5"/>
    <path d="M 237.799669 295.488 
L 237.799669 162.603253 
" clip-path="url(#p61030fdfbc)" style="fill: none; stroke: #1f77b4; stroke-width: 1.5"/>
    <path d="M 241.079008 295.488 
L 241.079008 159.386307 
" clip-path="url(#p61030fdfbc)" style="fill: none; stroke: #1f77b4; stroke-width: 1.5"/>
    <path d="M 244.358347 295.488 
L 244.358347 156.198886 
" clip-path="url(#p61030fdfbc)" style="fill: none; stroke: #1f77b4; stroke-width: 1.5"/>
    <path d="M 247.637686 295.488 
L 247.637686 153.042507 
" clip-path="url(#p61030fdfbc)" style="fill: none; stroke: #1f77b4; stroke-width: 1.5"/>
    <path d="M 250.917025 295.488 
L 250.917025 149.918604 
" clip-path="url(#p61030fdfbc)" style="fill: none; stroke: #1f77b4; stroke-width: 1.5"/>
    <path d="M 254.196364 295.488 
L 254.196364 146.82853 
" clip-path="url(#p61030fdfbc)" style="fill: none; stroke: #1f77b4; stroke-width: 1.5"/>
    <path d="M 257.475702 295.488 
L 257.475702 143.773555 
" clip-path="url(#p61030fdfbc)" style="fill: none; stroke: #1f77b4; stroke-width: 1.5"/>
    <path d="M 260.755041 295.488 
L 260.755041 140.754871 
" clip-path="url(#p61030fdfbc)" style="fill: none; stroke: #1f77b4; stroke-width: 1.5"/>
    <path d="M 264.03438 295.488 
L 264.03438 137.773595 
" clip-path="url(#p61030fdfbc)" style="fill: none; stroke: #1f77b4; stroke-width: 1.5"/>
    <path d="M 267.313719 295.488 
L 267.313719 134.830771 
" clip-path="url(#p61030fdfbc)" style="fill: none; stroke: #1f77b4; stroke-width: 1.5"/>
    <path d="M 270.593058 295.488 
L 270.593058 131.927368 
" clip-path="url(#p61030fdfbc)" style="fill: none; stroke: #1f77b4; stroke-width: 1.5"/>
    <path d="M 273.872397 295.488 
L 273.872397 129.064288 
" clip-path="url(#p61030fdfbc)" style="fill: none; stroke: #1f77b4; stroke-width: 1.5"/>
    <path d="M 277.151736 295.488 
L 277.151736 126.242365 
" clip-path="url(#p61030fdfbc)" style="fill: none; stroke: #1f77b4; stroke-width: 1.5"/>
    <path d="M 280.431074 295.488 
L 280.431074 123.462366 
" clip-path="url(#p61030fdfbc)" style="fill: none; stroke: #1f77b4; stroke-width: 1.5"/>
    <path d="M 283.710413 295.488 
L 283.710413 120.724995 
" clip-path="url(#p61030fdfbc)" style="fill: none; stroke: #1f77b4; stroke-width: 1.5"/>
    <path d="M 286.989752 295.488 
L 286.989752 118.030894 
" clip-path="url(#p61030fdfbc)" style="fill: none; stroke: #1f77b4; stroke-width: 1.5"/>
    <path d="M 290.269091 295.488 
L 290.269091 115.380646 
" clip-path="url(#p61030fdfbc)" style="fill: none; stroke: #1f77b4; stroke-width: 1.5"/>
    <path d="M 293.54843 295.488 
L 293.54843 112.774774 
" clip-path="url(#p61030fdfbc)" style="fill: none; stroke: #1f77b4; stroke-width: 1.5"/>
    <path d="M 296.827769 295.488 
L 296.827769 110.213748 
" clip-path="url(#p61030fdfbc)" style="fill: none; stroke: #1f77b4; stroke-width: 1.5"/>
    <path d="M 300.107107 295.488 
L 300.107107 107.69798 
" clip-path="url(#p61030fdfbc)" style="fill: none; stroke: #1f77b4; stroke-width: 1.5"/>
    <path d="M 303.386446 295.488 
L 303.386446 105.227834 
" clip-path="url(#p61030fdfbc)" style="fill: none; stroke: #1f77b4; stroke-width: 1.5"/>
    <path d="M 306.665785 295.488 
L 306.665785 102.803619 
" clip-path="url(#p61030fdfbc)" style="fill: none; stroke: #1f77b4; stroke-width: 1.5"/>
    <path d="M 309.945124 295.488 
L 309.945124 100.425597 
" clip-path="url(#p61030fdfbc)" style="fill: none; stroke: #1f77b4; stroke-width: 1.5"/>
    <path d="M 313.224463 295.488 
L 313.224463 98.093985 
" clip-path="url(#p61030fdfbc)" style="fill: none; stroke: #1f77b4; stroke-width: 1.5"/>
    <path d="M 316.503802 295.488 
L 316.503802 95.80895 
" clip-path="url(#p61030fdfbc)" style="fill: none; stroke: #1f77b4; stroke-width: 1.5"/>
    <path d="M 319.78314 295.488 
L 319.78314 93.570619 
" clip-path="url(#p61030fdfbc)" style="fill: none; stroke: #1f77b4; stroke-width: 1.5"/>
    <path d="M 323.062479 295.488 
L 323.062479 91.379075 
" clip-path="url(#p61030fdfbc)" style="fill: none; stroke: #1f77b4; stroke-width: 1.5"/>
    <path d="M 326.341818 295.488 
L 326.341818 89.234361 
" clip-path="url(#p61030fdfbc)" style="fill: none; stroke: #1f77b4; stroke-width: 1.5"/>
    <path d="M 329.621157 295.488 
L 329.621157 87.13648 
" clip-path="url(#p61030fdfbc)" style="fill: none; stroke: #1f77b4; stroke-width: 1.5"/>
    <path d="M 332.900496 295.488 
L 332.900496 85.085399 
" clip-path="url(#p61030fdfbc)" style="fill: none; stroke: #1f77b4; stroke-width: 1.5"/>
    <path d="M 336.179835 295.488 
L 336.179835 83.081049 
" clip-path="url(#p61030fdfbc)" style="fill: none; stroke: #1f77b4; stroke-width: 1.5"/>
    <path d="M 339.459174 295.488 
L 339.459174 81.123325 
" clip-path="url(#p61030fdfbc)" style="fill: none; stroke: #1f77b4; stroke-width: 1.5"/>
    <path d="M 342.738512 295.488 
L 342.738512 79.21209 
" clip-path="url(#p61030fdfbc)" style="fill: none; stroke: #1f77b4; stroke-width: 1.5"/>
    <path d="M 346.017851 295.488 
L 346.017851 77.347175 
" clip-path="url(#p61030fdfbc)" style="fill: none; stroke: #1f77b4; stroke-width: 1.5"/>
    <path d="M 349.29719 295.488 
L 349.29719 75.528381 
" clip-path="url(#p61030fdfbc)" style="fill: none; stroke: #1f77b4; stroke-width: 1.5"/>
    <path d="M 352.576529 295.488 
L 352.576529 73.755481 
" clip-path="url(#p61030fdfbc)" style="fill: none; stroke: #1f77b4; stroke-width: 1.5"/>
    <path d="M 355.855868 295.488 
L 355.855868 72.028218 
" clip-path="url(#p61030fdfbc)" style="fill: none; stroke: #1f77b4; stroke-width: 1.5"/>
    <path d="M 359.135207 295.488 
L 359.135207 70.346311 
" clip-path="url(#p61030fdfbc)" style="fill: none; stroke: #1f77b4; stroke-width: 1.5"/>
    <path d="M 362.414545 295.488 
L 362.414545 68.709453 
" clip-path="url(#p61030fdfbc)" style="fill: none; stroke: #1f77b4; stroke-width: 1.5"/>
    <path d="M 365.693884 295.488 
L 365.693884 67.117313 
" clip-path="url(#p61030fdfbc)" style="fill: none; stroke: #1f77b4; stroke-width: 1.5"/>
    <path d="M 368.973223 295.488 
L 368.973223 65.569539 
" clip-path="url(#p61030fdfbc)" style="fill: none; stroke: #1f77b4; stroke-width: 1.5"/>
    <path d="M 372.252562 295.488 
L 372.252562 64.065755 
" clip-path="url(#p61030fdfbc)" style="fill: none; stroke: #1f77b4; stroke-width: 1.5"/>
    <path d="M 375.531901 295.488 
L 375.531901 62.605567 
" clip-path="url(#p61030fdfbc)" style="fill: none; stroke: #1f77b4; stroke-width: 1.5"/>
    <path d="M 378.81124 295.488 
L 378.81124 61.18856 
" clip-path="url(#p61030fdfbc)" style="fill: none; stroke: #1f77b4; stroke-width: 1.5"/>
    <path d="M 382.090579 295.488 
L 382.090579 59.814302 
" clip-path="url(#p61030fdfbc)" style="fill: none; stroke: #1f77b4; stroke-width: 1.5"/>
    <path d="M 385.369917 295.488 
L 385.369917 58.482345 
" clip-path="url(#p61030fdfbc)" style="fill: none; stroke: #1f77b4; stroke-width: 1.5"/>
    <path d="M 388.649256 295.488 
L 388.649256 57.192224 
" clip-path="url(#p61030fdfbc)" style="fill: none; stroke: #1f77b4; stroke-width: 1.5"/>
    <path d="M 391.928595 295.488 
L 391.928595 55.943457 
" clip-path="url(#p61030fdfbc)" style="fill: none; stroke: #1f77b4; stroke-width: 1.5"/>
    <path d="M 395.207934 295.488 
L 395.207934 54.735552 
" clip-path="url(#p61030fdfbc)" style="fill: none; stroke: #1f77b4; stroke-width: 1.5"/>
    <path d="M 398.487273 295.488 
L 398.487273 53.568 
" clip-path="url(#p61030fdfbc)" style="fill: none; stroke: #1f77b4; stroke-width: 1.5"/>
   </g>
   <g id="line2d_21">
    <defs>
     <path id="m6def74ca99" d="M 0 3 
C 0.795609 3 1.55874 2.683901 2.12132 2.12132 
C 2.683901 1.55874 3 0.795609 3 0 
C 3 -0.795609 2.683901 -1.55874 2.12132 -2.12132 
C 1.55874 -2.683901 0.795609 -3 0 -3 
C -0.795609 -3 -1.55874 -2.683901 -2.12132 -2.12132 
C -2.683901 -1.55874 -3 -0.795609 -3 0 
C -3 0.795609 -2.683901 1.55874 -2.12132 2.12132 
C -1.55874 2.683901 -0.795609 3 0 3 
z
" style="stroke: #1f77b4"/>
    </defs>
    <g clip-path="url(#p61030fdfbc)">
     <use xlink:href="#m6def74ca99" x="73.832727" y="295.434633" style="fill: #1f77b4; stroke: #1f77b4"/>
     <use xlink:href="#m6def74ca99" x="77.112066" y="295.223354" style="fill: #1f77b4; stroke: #1f77b4"/>
     <use xlink:href="#m6def74ca99" x="80.391405" y="294.807315" style="fill: #1f77b4; stroke: #1f77b4"/>
     <use xlink:href="#m6def74ca99" x="83.670744" y="294.195083" style="fill: #1f77b4; stroke: #1f77b4"/>
     <use xlink:href="#m6def74ca99" x="86.950083" y="293.395046" style="fill: #1f77b4; stroke: #1f77b4"/>
     <use xlink:href="#m6def74ca99" x="90.229421" y="292.415409" style="fill: #1f77b4; stroke: #1f77b4"/>
     <use xlink:href="#m6def74ca99" x="93.50876" y="291.264196" style="fill: #1f77b4; stroke: #1f77b4"/>
     <use xlink:href="#m6def74ca99" x="96.788099" y="289.949249" style="fill: #1f77b4; stroke: #1f77b4"/>
     <use xlink:href="#m6def74ca99" x="100.067438" y="288.478233" style="fill: #1f77b4; stroke: #1f77b4"/>
     <use xlink:href="#m6def74ca99" x="103.346777" y="286.858633" style="fill: #1f77b4; stroke: #1f77b4"/>
     <use xlink:href="#m6def74ca99" x="106.626116" y="285.097756" style="fill: #1f77b4; stroke: #1f77b4"/>
     <use xlink:href="#m6def74ca99" x="109.905455" y="283.202734" style="fill: #1f77b4; stroke: #1f77b4"/>
     <use xlink:href="#m6def74ca99" x="113.184793" y="281.180524" style="fill: #1f77b4; stroke: #1f77b4"/>
     <use xlink:href="#m6def74ca99" x="116.464132" y="279.037909" style="fill: #1f77b4; stroke: #1f77b4"/>
     <use xlink:href="#m6def74ca99" x="119.743471" y="276.781498" style="fill: #1f77b4; stroke: #1f77b4"/>
     <use xlink:href="#m6def74ca99" x="123.02281" y="274.417734" style="fill: #1f77b4; stroke: #1f77b4"/>
     <use xlink:href="#m6def74ca99" x="126.302149" y="271.952886" style="fill: #1f77b4; stroke: #1f77b4"/>
     <use xlink:href="#m6def74ca99" x="129.581488" y="269.39306" style="fill: #1f77b4; stroke: #1f77b4"/>
     <use xlink:href="#m6def74ca99" x="132.860826" y="266.744193" style="fill: #1f77b4; stroke: #1f77b4"/>
     <use xlink:href="#m6def74ca99" x="136.140165" y="264.012059" style="fill: #1f77b4; stroke: #1f77b4"/>
     <use xlink:href="#m6def74ca99" x="139.419504" y="261.202273" style="fill: #1f77b4; stroke: #1f77b4"/>
     <use xlink:href="#m6def74ca99" x="142.698843" y="258.320286" style="fill: #1f77b4; stroke: #1f77b4"/>
     <use xlink:href="#m6def74ca99" x="145.978182" y="255.371394" style="fill: #1f77b4; stroke: #1f77b4"/>
     <use xlink:href="#m6def74ca99" x="149.257521" y="252.360735" style="fill: #1f77b4; stroke: #1f77b4"/>
     <use xlink:href="#m6def74ca99" x="152.53686" y="249.293295" style="fill: #1f77b4; stroke: #1f77b4"/>
     <use xlink:href="#m6def74ca99" x="155.816198" y="246.173908" style="fill: #1f77b4; stroke: #1f77b4"/>
     <use xlink:href="#m6def74ca99" x="159.095537" y="243.007255" style="fill: #1f77b4; stroke: #1f77b4"/>
     <use xlink:href="#m6def74ca99" x="162.374876" y="239.797875" style="fill: #1f77b4; stroke: #1f77b4"/>
     <use xlink:href="#m6def74ca99" x="165.654215" y="236.550159" style="fill: #1f77b4; stroke: #1f77b4"/>
     <use xlink:href="#m6def74ca99" x="168.933554" y="233.268353" style="fill: #1f77b4; stroke: #1f77b4"/>
     <use xlink:href="#m6def74ca99" x="172.212893" y="229.956566" style="fill: #1f77b4; stroke: #1f77b4"/>
     <use xlink:href="#m6def74ca99" x="175.492231" y="226.618767" style="fill: #1f77b4; stroke: #1f77b4"/>
     <use xlink:href="#m6def74ca99" x="178.77157" y="223.258788" style="fill: #1f77b4; stroke: #1f77b4"/>
     <use xlink:href="#m6def74ca99" x="182.050909" y="219.880329" style="fill: #1f77b4; stroke: #1f77b4"/>
     <use xlink:href="#m6def74ca99" x="185.330248" y="216.486957" style="fill: #1f77b4; stroke: #1f77b4"/>
     <use xlink:href="#m6def74ca99" x="188.609587" y="213.082111" style="fill: #1f77b4; stroke: #1f77b4"/>
     <use xlink:href="#m6def74ca99" x="191.888926" y="209.669103" style="fill: #1f77b4; stroke: #1f77b4"/>
     <use xlink:href="#m6def74ca99" x="195.168264" y="206.251119" style="fill: #1f77b4; stroke: #1f77b4"/>
     <use xlink:href="#m6def74ca99" x="198.447603" y="202.831226" style="fill: #1f77b4; stroke: #1f77b4"/>
     <use xlink:href="#m6def74ca99" x="201.726942" y="199.412369" style="fill: #1f77b4; stroke: #1f77b4"/>
     <use xlink:href="#m6def74ca99" x="205.006281" y="195.997377" style="fill: #1f77b4; stroke: #1f77b4"/>
     <use xlink:href="#m6def74ca99" x="208.28562" y="192.588964" style="fill: #1f77b4; stroke: #1f77b4"/>
     <use xlink:href="#m6def74ca99" x="211.564959" y="189.189731" style="fill: #1f77b4; stroke: #1f77b4"/>
     <use xlink:href="#m6def74ca99" x="214.844298" y="185.802169" style="fill: #1f77b4; stroke: #1f77b4"/>
     <use xlink:href="#m6def74ca99" x="218.123636" y="182.428662" style="fill: #1f77b4; stroke: #1f77b4"/>
     <use xlink:href="#m6def74ca99" x="221.402975" y="179.071487" style="fill: #1f77b4; stroke: #1f77b4"/>
     <use xlink:href="#m6def74ca99" x="224.682314" y="175.73282" style="fill: #1f77b4; stroke: #1f77b4"/>
     <use xlink:href="#m6def74ca99" x="227.961653" y="172.414735" style="fill: #1f77b4; stroke: #1f77b4"/>
     <use xlink:href="#m6def74ca99" x="231.240992" y="169.119207" style="fill: #1f77b4; stroke: #1f77b4"/>
     <use xlink:href="#m6def74ca99" x="234.520331" y="165.848118" style="fill: #1f77b4; stroke: #1f77b4"/>
     <use xlink:href="#m6def74ca99" x="237.799669" y="162.603253" style="fill: #1f77b4; stroke: #1f77b4"/>
     <use xlink:href="#m6def74ca99" x="241.079008" y="159.386307" style="fill: #1f77b4; stroke: #1f77b4"/>
     <use xlink:href="#m6def74ca99" x="244.358347" y="156.198886" style="fill: #1f77b4; stroke: #1f77b4"/>
     <use xlink:href="#m6def74ca99" x="247.637686" y="153.042507" style="fill: #1f77b4; stroke: #1f77b4"/>
     <use xlink:href="#m6def74ca99" x="250.917025" y="149.918604" style="fill: #1f77b4; stroke: #1f77b4"/>
     <use xlink:href="#m6def74ca99" x="254.196364" y="146.82853" style="fill: #1f77b4; stroke: #1f77b4"/>
     <use xlink:href="#m6def74ca99" x="257.475702" y="143.773555" style="fill: #1f77b4; stroke: #1f77b4"/>
     <use xlink:href="#m6def74ca99" x="260.755041" y="140.754871" style="fill: #1f77b4; stroke: #1f77b4"/>
     <use xlink:href="#m6def74ca99" x="264.03438" y="137.773595" style="fill: #1f77b4; stroke: #1f77b4"/>
     <use xlink:href="#m6def74ca99" x="267.313719" y="134.830771" style="fill: #1f77b4; stroke: #1f77b4"/>
     <use xlink:href="#m6def74ca99" x="270.593058" y="131.927368" style="fill: #1f77b4; stroke: #1f77b4"/>
     <use xlink:href="#m6def74ca99" x="273.872397" y="129.064288" style="fill: #1f77b4; stroke: #1f77b4"/>
     <use xlink:href="#m6def74ca99" x="277.151736" y="126.242365" style="fill: #1f77b4; stroke: #1f77b4"/>
     <use xlink:href="#m6def74ca99" x="280.431074" y="123.462366" style="fill: #1f77b4; stroke: #1f77b4"/>
     <use xlink:href="#m6def74ca99" x="283.710413" y="120.724995" style="fill: #1f77b4; stroke: #1f77b4"/>
     <use xlink:href="#m6def74ca99" x="286.989752" y="118.030894" style="fill: #1f77b4; stroke: #1f77b4"/>
     <use xlink:href="#m6def74ca99" x="290.269091" y="115.380646" style="fill: #1f77b4; stroke: #1f77b4"/>
     <use xlink:href="#m6def74ca99" x="293.54843" y="112.774774" style="fill: #1f77b4; stroke: #1f77b4"/>
     <use xlink:href="#m6def74ca99" x="296.827769" y="110.213748" style="fill: #1f77b4; stroke: #1f77b4"/>
     <use xlink:href="#m6def74ca99" x="300.107107" y="107.69798" style="fill: #1f77b4; stroke: #1f77b4"/>
     <use xlink:href="#m6def74ca99" x="303.386446" y="105.227834" style="fill: #1f77b4; stroke: #1f77b4"/>
     <use xlink:href="#m6def74ca99" x="306.665785" y="102.803619" style="fill: #1f77b4; stroke: #1f77b4"/>
     <use xlink:href="#m6def74ca99" x="309.945124" y="100.425597" style="fill: #1f77b4; stroke: #1f77b4"/>
     <use xlink:href="#m6def74ca99" x="313.224463" y="98.093985" style="fill: #1f77b4; stroke: #1f77b4"/>
     <use xlink:href="#m6def74ca99" x="316.503802" y="95.80895" style="fill: #1f77b4; stroke: #1f77b4"/>
     <use xlink:href="#m6def74ca99" x="319.78314" y="93.570619" style="fill: #1f77b4; stroke: #1f77b4"/>
     <use xlink:href="#m6def74ca99" x="323.062479" y="91.379075" style="fill: #1f77b4; stroke: #1f77b4"/>
     <use xlink:href="#m6def74ca99" x="326.341818" y="89.234361" style="fill: #1f77b4; stroke: #1f77b4"/>
     <use xlink:href="#m6def74ca99" x="329.621157" y="87.13648" style="fill: #1f77b4; stroke: #1f77b4"/>
     <use xlink:href="#m6def74ca99" x="332.900496" y="85.085399" style="fill: #1f77b4; stroke: #1f77b4"/>
     <use xlink:href="#m6def74ca99" x="336.179835" y="83.081049" style="fill: #1f77b4; stroke: #1f77b4"/>
     <use xlink:href="#m6def74ca99" x="339.459174" y="81.123325" style="fill: #1f77b4; stroke: #1f77b4"/>
     <use xlink:href="#m6def74ca99" x="342.738512" y="79.21209" style="fill: #1f77b4; stroke: #1f77b4"/>
     <use xlink:href="#m6def74ca99" x="346.017851" y="77.347175" style="fill: #1f77b4; stroke: #1f77b4"/>
     <use xlink:href="#m6def74ca99" x="349.29719" y="75.528381" style="fill: #1f77b4; stroke: #1f77b4"/>
     <use xlink:href="#m6def74ca99" x="352.576529" y="73.755481" style="fill: #1f77b4; stroke: #1f77b4"/>
     <use xlink:href="#m6def74ca99" x="355.855868" y="72.028218" style="fill: #1f77b4; stroke: #1f77b4"/>
     <use xlink:href="#m6def74ca99" x="359.135207" y="70.346311" style="fill: #1f77b4; stroke: #1f77b4"/>
     <use xlink:href="#m6def74ca99" x="362.414545" y="68.709453" style="fill: #1f77b4; stroke: #1f77b4"/>
     <use xlink:href="#m6def74ca99" x="365.693884" y="67.117313" style="fill: #1f77b4; stroke: #1f77b4"/>
     <use xlink:href="#m6def74ca99" x="368.973223" y="65.569539" style="fill: #1f77b4; stroke: #1f77b4"/>
     <use xlink:href="#m6def74ca99" x="372.252562" y="64.065755" style="fill: #1f77b4; stroke: #1f77b4"/>
     <use xlink:href="#m6def74ca99" x="375.531901" y="62.605567" style="fill: #1f77b4; stroke: #1f77b4"/>
     <use xlink:href="#m6def74ca99" x="378.81124" y="61.18856" style="fill: #1f77b4; stroke: #1f77b4"/>
     <use xlink:href="#m6def74ca99" x="382.090579" y="59.814302" style="fill: #1f77b4; stroke: #1f77b4"/>
     <use xlink:href="#m6def74ca99" x="385.369917" y="58.482345" style="fill: #1f77b4; stroke: #1f77b4"/>
     <use xlink:href="#m6def74ca99" x="388.649256" y="57.192224" style="fill: #1f77b4; stroke: #1f77b4"/>
     <use xlink:href="#m6def74ca99" x="391.928595" y="55.943457" style="fill: #1f77b4; stroke: #1f77b4"/>
     <use xlink:href="#m6def74ca99" x="395.207934" y="54.735552" style="fill: #1f77b4; stroke: #1f77b4"/>
     <use xlink:href="#m6def74ca99" x="398.487273" y="53.568" style="fill: #1f77b4; stroke: #1f77b4"/>
    </g>
   </g>
   <g id="line2d_22">
    <path d="M 73.832727 295.488 
L 398.487273 295.488 
" clip-path="url(#p61030fdfbc)" style="fill: none; stroke: #d62728; stroke-width: 1.5; stroke-linecap: square"/>
   </g>
   <g id="patch_3">
    <path d="M 57.6 307.584 
L 57.6 41.472 
" style="fill: none; stroke: #000000; stroke-width: 0.8; stroke-linejoin: miter; stroke-linecap: square"/>
   </g>
   <g id="patch_4">
    <path d="M 414.72 307.584 
L 414.72 41.472 
" style="fill: none; stroke: #000000; stroke-width: 0.8; stroke-linejoin: miter; stroke-linecap: square"/>
   </g>
   <g id="patch_5">
    <path d="M 57.6 307.584 
L 414.72 307.584 
" style="fill: none; stroke: #000000; stroke-width: 0.8; stroke-linejoin: miter; stroke-linecap: square"/>
   </g>
   <g id="patch_6">
    <path d="M 57.6 41.472 
L 414.72 41.472 
" style="fill: none; stroke: #000000; stroke-width: 0.8; stroke-linejoin: miter; stroke-linecap: square"/>
   </g>
   <g id="text_13">
    <!-- Step Response -->
    <g transform="translate(191.774063 35.472) scale(0.12 -0.12)">
     <defs>
      <path id="DejaVuSans-20" transform="scale(0.015625)"/>
      <path id="DejaVuSans-52" d="M 2841 2188 
Q 3044 2119 3236 1894 
Q 3428 1669 3622 1275 
L 4263 0 
L 3584 0 
L 2988 1197 
Q 2756 1666 2539 1819 
Q 2322 1972 1947 1972 
L 1259 1972 
L 1259 0 
L 628 0 
L 628 4666 
L 2053 4666 
Q 2853 4666 3247 4331 
Q 3641 3997 3641 3322 
Q 3641 2881 3436 2590 
Q 3231 2300 2841 2188 
z
M 1259 4147 
L 1259 2491 
L 2053 2491 
Q 2509 2491 2742 2702 
Q 2975 2913 2975 3322 
Q 2975 3731 2742 3939 
Q 2509 4147 2053 4147 
L 1259 4147 
z
" transform="scale(0.015625)"/>
      <path id="DejaVuSans-6f" d="M 1959 3097 
Q 1497 3097 1228 2736 
Q 959 2375 959 1747 
Q 959 1119 1226 758 
Q 1494 397 1959 397 
Q 2419 397 2687 759 
Q 2956 1122 2956 1747 
Q 2956 2369 2687 2733 
Q 2419 3097 1959 3097 
z
M 1959 3584 
Q 2709 3584 3137 3096 
Q 3566 2609 3566 1747 
Q 3566 888 3137 398 
Q 2709 -91 1959 -91 
Q 1206 -91 779 398 
Q 353 888 353 1747 
Q 353 2609 779 3096 
Q 1206 3584 1959 3584 
z
" transform="scale(0.015625)"/>
      <path id="DejaVuSans-6e" d="M 3513 2113 
L 3513 0 
L 2938 0 
L 2938 2094 
Q 2938 2591 2744 2837 
Q 2550 3084 2163 3084 
Q 1697 3084 1428 2787 
Q 1159 2491 1159 1978 
L 1159 0 
L 581 0 
L 581 3500 
L 1159 3500 
L 1159 2956 
Q 1366 3272 1645 3428 
Q 1925 3584 2291 3584 
Q 2894 3584 3203 3211 
Q 3513 2838 3513 2113 
z
" transform="scale(0.015625)"/>
     </defs>
     <use xlink:href="#DejaVuSans-53"/>
     <use xlink:href="#DejaVuSans-74" x="63.476562"/>
     <use xlink:href="#DejaVuSans-65" x="102.685547"/>
     <use xlink:href="#DejaVuSans-70" x="164.208984"/>
     <use xlink:href="#DejaVuSans-20" x="227.685547"/>
     <use xlink:href="#DejaVuSans-52" x="259.472656"/>
     <use xlink:href="#DejaVuSans-65" x="324.455078"/>
     <use xlink:href="#DejaVuSans-73" x="385.978516"/>
     <use xlink:href="#DejaVuSans-70" x="438.078125"/>
     <use xlink:href="#DejaVuSans-6f" x="501.554688"/>
     <use xlink:href="#DejaVuSans-6e" x="562.736328"/>
     <use xlink:href="#DejaVuSans-73" x="626.115234"/>
     <use xlink:href="#DejaVuSans-65" x="678.214844"/>
    </g>
   </g>
  </g>
 </g>
 <defs>
  <clipPath id="p61030fdfbc">
   <rect x="57.6" y="41.472" width="357.12" height="266.112"/>
  </clipPath>
 </defs>
</svg>
