M48
;GenerationSoftware,Autodesk,EAGLE,9.6.2*%
;CreationDate,2024-04-18T14:28:15Z*%
FMAT,2
ICI,OFF
METRIC,TZ,000.000
T5C0.350
T4C1.016
T3C3.302
T2C3.500
%
G90
M71
T2
X3750Y66250
X66250Y66250
X3750Y3750
X66250Y3750
T3
X22500Y9500
X47500Y9500
T4
X39150Y8080
X36380Y8080
X30850Y8080
X33620Y8080
X26680Y67300
X29220Y67300
X31760Y67300
X34300Y67300
X36840Y67300
X39380Y67300
X41920Y67300
X47000Y67300
X44460Y67300
X29460Y10920
X32230Y10920
X35000Y10920
X37770Y10920
X40540Y10920
X54620Y67300
X52080Y67300
X49540Y67300
T5
X48500Y47750
X38781Y38319
X29600Y27350
X40950Y16600
X37950Y16350
X33500Y16550
X25500Y14000
X67100Y58300
X50700Y56650
X48350Y56650
X45700Y54500
X43150Y53650
X38100Y53700
X33000Y53650
X25750Y56250
X26700Y55700
X47650Y48450
X28900Y28000
X33500Y15600
X26500Y14000
X37200Y39150
X37200Y15600
X40950Y15600
X37900Y35900
X39856Y35905
X32000Y13000
X30100Y13000
X32450Y14850
X43400Y63800
X17100Y9500
X26900Y23750
X26950Y19100
X23800Y15100
X45800Y15100
X42600Y19050
X22600Y63700
X28581Y63800
X30400Y63800
X33200Y63800
X35600Y63800
X38400Y63800
X41000Y63800
X29900Y35200
X45800Y63800
X48200Y63800
X51000Y63800
X54700Y63800
X54750Y54150
X54850Y32150
X54850Y42400
X42800Y43100
X42600Y29950
X42550Y23600
X25700Y37200
X23750Y32300
X35550Y53650
X29600Y14850
X29600Y30300
X29600Y26500
X29577Y23700
X29600Y20900
X29600Y18000
X32450Y18000
X32450Y20900
X32450Y23700
X32450Y26500
X32450Y30300
X54100Y9500
X40600Y53650
X23800Y42750
X52850Y63800
X29300Y53650
X21500Y55650
X20350Y42750
X20400Y32300
X34400Y29950
X34300Y23750
X34400Y19100
X31950Y39200
X34050Y37050
X31950Y37050
X34050Y39200
M30