M48
;GenerationSoftware,Autodesk,EAGLE,9.6.2*%
;CreationDate,2024-03-16T23:14:39Z*%
FMAT,2
ICI,OFF
METRIC,TZ,000.000
T4C0.350
T3C1.016
T2C3.302
T1C3.500
%
G90
M71
T1
X3750Y66250
X66250Y66250
X3750Y3750
X66250Y3750
T2
X22500Y9500
X47500Y9500
T3
X31760Y67300
X26680Y67300
X29220Y67300
X34300Y67300
X36840Y67300
X39380Y67300
X41920Y67300
X44460Y67300
X47000Y67300
X49540Y67300
X52080Y67300
X54620Y67300
X37770Y10920
X35000Y10920
X32230Y10920
X29460Y10920
X39150Y8080
X36380Y8080
X33620Y8080
X30850Y8080
X40540Y10920
T4
X29900Y35200
X34050Y39200
X31950Y37050
X34050Y37050
X31950Y39200
X34400Y19100
X34300Y23700
X34400Y29950
X17200Y30200
X16750Y42650
X21500Y55650
X29300Y53650
X52850Y63800
X51000Y63800
X40600Y53650
X26700Y55700
X48600Y49050
X28900Y28000
X33600Y15600
X25700Y13400
X37200Y39150
X38000Y15600
X42600Y15600
X38100Y35900
X40600Y35900
X32000Y13000
X30100Y13000
X23200Y43000
X22900Y32400
X25700Y37200
X42550Y23600
X42600Y29950
X42800Y43100
X54850Y42650
X54750Y34200
X54750Y54150
X54700Y63800
X48200Y63800
X45800Y63800
X43400Y63800
X41000Y63800
X38400Y63800
X35600Y63800
X35550Y53650
X33200Y63800
X30400Y63800
X28581Y63800
X22600Y63700
X42600Y19050
X45800Y15100
X23800Y15100
X26950Y19100
X27100Y23700
X10400Y5100
M30