G04 EAGLE Gerber RS-274X export*
G75*
%MOMM*%
%FSLAX34Y34*%
%LPD*%
%INSoldermask Top*%
%IPPOS*%
%AMOC8*
5,1,8,0,0,1.08239X$1,22.5*%
G01*
%ADD10C,3.703200*%
%ADD11R,1.203200X1.303200*%
%ADD12C,1.903200*%
%ADD13R,3.003200X2.403200*%
%ADD14R,3.003200X3.003200*%
%ADD15R,1.473200X0.838200*%
%ADD16C,1.473200*%
%ADD17C,2.082800*%
%ADD18R,1.303200X1.203200*%
%ADD19R,1.003200X1.003200*%
%ADD20C,0.959600*%

G36*
X108835Y47472D02*
X108835Y47472D01*
X108901Y47474D01*
X108944Y47492D01*
X108991Y47500D01*
X109048Y47534D01*
X109108Y47559D01*
X109143Y47590D01*
X109184Y47615D01*
X109226Y47666D01*
X109274Y47710D01*
X109296Y47752D01*
X109325Y47789D01*
X109346Y47851D01*
X109377Y47910D01*
X109385Y47964D01*
X109397Y48001D01*
X109396Y48041D01*
X109404Y48095D01*
X109404Y51905D01*
X109393Y51970D01*
X109391Y52036D01*
X109373Y52079D01*
X109365Y52126D01*
X109331Y52183D01*
X109306Y52243D01*
X109275Y52278D01*
X109250Y52319D01*
X109199Y52361D01*
X109155Y52409D01*
X109113Y52431D01*
X109076Y52460D01*
X109014Y52481D01*
X108955Y52512D01*
X108901Y52520D01*
X108864Y52532D01*
X108824Y52531D01*
X108770Y52539D01*
X106230Y52539D01*
X106165Y52528D01*
X106099Y52526D01*
X106056Y52508D01*
X106009Y52500D01*
X105952Y52466D01*
X105892Y52441D01*
X105857Y52410D01*
X105816Y52385D01*
X105775Y52334D01*
X105726Y52290D01*
X105704Y52248D01*
X105675Y52211D01*
X105654Y52149D01*
X105623Y52090D01*
X105615Y52036D01*
X105603Y51999D01*
X105603Y51995D01*
X105603Y51994D01*
X105604Y51959D01*
X105596Y51905D01*
X105596Y48095D01*
X105607Y48030D01*
X105609Y47964D01*
X105627Y47921D01*
X105635Y47874D01*
X105669Y47817D01*
X105694Y47757D01*
X105725Y47722D01*
X105750Y47681D01*
X105801Y47640D01*
X105845Y47591D01*
X105887Y47569D01*
X105924Y47540D01*
X105986Y47519D01*
X106045Y47488D01*
X106099Y47480D01*
X106136Y47468D01*
X106176Y47469D01*
X106230Y47461D01*
X108770Y47461D01*
X108835Y47472D01*
G37*
D10*
X37500Y662500D03*
X662500Y662500D03*
X662500Y37500D03*
X37500Y37500D03*
D11*
X560000Y198500D03*
X560000Y181500D03*
X600000Y198500D03*
X600000Y181500D03*
X580000Y198500D03*
X580000Y181500D03*
D12*
X525000Y35000D03*
D13*
X488000Y44000D03*
X562000Y24000D03*
D14*
X562000Y118000D03*
D12*
X525000Y105000D03*
D15*
X385000Y515936D03*
X385000Y524064D03*
X410000Y515936D03*
X410000Y524064D03*
X435000Y515936D03*
X435000Y524064D03*
X460000Y515936D03*
X460000Y524064D03*
D16*
X570000Y220000D03*
X545000Y165000D03*
X625000Y200000D03*
X605000Y165000D03*
D17*
X460000Y677500D03*
X434600Y677500D03*
X409200Y677500D03*
X383800Y677500D03*
X358400Y677500D03*
X333000Y677500D03*
X307600Y677500D03*
X282200Y677500D03*
D18*
X436500Y582500D03*
X453500Y582500D03*
X436500Y552500D03*
X453500Y552500D03*
D11*
X107500Y94000D03*
X107500Y111000D03*
D19*
X107500Y65000D03*
X107500Y80000D03*
D15*
X107500Y44920D03*
X107500Y55080D03*
D11*
X387500Y195000D03*
X387500Y178000D03*
X427500Y195000D03*
X427500Y178000D03*
X407500Y195000D03*
X407500Y178000D03*
D12*
X350000Y35000D03*
D13*
X313000Y44000D03*
X387000Y24000D03*
D14*
X387000Y118000D03*
D12*
X350000Y105000D03*
D15*
X332500Y515936D03*
X332500Y524064D03*
X357500Y515936D03*
X357500Y524064D03*
D16*
X397500Y225000D03*
X370000Y165000D03*
X450000Y195000D03*
X427500Y157500D03*
D11*
X212500Y195000D03*
X212500Y178000D03*
X252500Y195000D03*
X252500Y178000D03*
X232500Y195000D03*
X232500Y178000D03*
D12*
X175000Y35000D03*
D13*
X138000Y44000D03*
X212000Y24000D03*
D14*
X212000Y118000D03*
D12*
X175000Y105000D03*
D15*
X282500Y515936D03*
X282500Y524064D03*
X307500Y515936D03*
X307500Y524064D03*
D16*
X222500Y224000D03*
X195000Y166500D03*
X275000Y194000D03*
X252500Y160000D03*
D20*
X107500Y130000D03*
X570000Y207500D03*
X222500Y207500D03*
X460000Y500000D03*
X397500Y207500D03*
X432500Y500000D03*
X400000Y500000D03*
X370000Y500000D03*
X485000Y500000D03*
X235000Y25000D03*
X535000Y500000D03*
X535000Y645000D03*
X230000Y645000D03*
X82500Y645000D03*
X107500Y25000D03*
X447500Y645000D03*
X370000Y645000D03*
X397500Y645000D03*
X422500Y645000D03*
X400000Y247500D03*
X572500Y247500D03*
X497500Y160000D03*
X637500Y182500D03*
X497500Y247500D03*
X462500Y132500D03*
X462500Y25000D03*
X445000Y567500D03*
X345000Y645000D03*
X320000Y645000D03*
X295000Y645000D03*
X267500Y645000D03*
X477500Y645000D03*
X345000Y500000D03*
X320000Y500000D03*
X295000Y500000D03*
X270000Y500000D03*
X342500Y247500D03*
X280000Y247500D03*
X222500Y247500D03*
X157500Y247500D03*
X157500Y165000D03*
X345000Y162500D03*
X412500Y25000D03*
X582500Y25000D03*
X285000Y25000D03*
X285000Y130000D03*
X595000Y130000D03*
X82500Y497500D03*
X82500Y370000D03*
X87500Y252500D03*
X632500Y385000D03*
X632500Y500000D03*
X630000Y645000D03*
M02*
