<?xml version="1.0" encoding="UTF-8" standalone="no"?>
<!-- Generator: Circuit Diagram, cdlibrary.dll 4.0.0.0 -->

<svg
   version="1.1"
   width="1220"
   height="540"
   id="svg450"
   sodipodi:docname="circuit.svg"
   inkscape:version="1.1 (c68e22c387, 2021-05-23)"
   xmlns:inkscape="http://www.inkscape.org/namespaces/inkscape"
   xmlns:sodipodi="http://sodipodi.sourceforge.net/DTD/sodipodi-0.dtd"
   xmlns="http://www.w3.org/2000/svg"
   xmlns:svg="http://www.w3.org/2000/svg">
  <defs
     id="defs454" />
  <sodipodi:namedview
     id="namedview452"
     pagecolor="#ffffff"
     bordercolor="#666666"
     borderopacity="1.0"
     inkscape:pageshadow="2"
     inkscape:pageopacity="0.0"
     inkscape:pagecheckerboard="0"
     showgrid="false"
     inkscape:zoom="1.4142136"
     inkscape:cx="331.98663"
     inkscape:cy="100.76272"
     inkscape:window-width="2560"
     inkscape:window-height="1351"
     inkscape:window-x="-9"
     inkscape:window-y="-9"
     inkscape:window-maximized="1"
     inkscape:current-layer="svg450" />
  <rect
     style="opacity:0.97;fill:#00b7ff;fill-opacity:0.136778;stroke:#00ceff;stroke-width:0.0967995;stroke-linejoin:bevel;stroke-opacity:1"
     id="rect27472"
     width="517.93835"
     height="296.5"
     x="694.06165"
     y="31.5" />
  <line
     x1="150"
     y1="428"
     x2="150"
     y2="488"
     style="stroke:#000000;stroke-width:2;stroke-linecap:square"
     id="line2" />
  <line
     x1="150"
     y1="336"
     x2="150"
     y2="406"
     style="stroke:#000000;stroke-width:2;stroke-linecap:square"
     id="line4" />
  <text
     x="105"
     y="290"
     style="font-family:Arial;font-size:12px;text-anchor:end"
     dominant-baseline="middle"
     transform="rotate(0, 105, 290)"
     id="text8">+1.6V</text>
  <line
     x1="110"
     y1="290"
     x2="120"
     y2="290"
     style="stroke:rgb(0, 0, 0);stroke-linecap:square;stroke-width:2"
     id="line10" />
  <line
     x1="150"
     y1="220"
     x2="150"
     y2="300"
     style="stroke:rgb(0, 0, 0);stroke-linecap:square;stroke-width:2"
     id="line12" />
  <line
     x1="150"
     y1="184"
     x2="150"
     y2="194"
     style="stroke:#000000;stroke-width:2;stroke-linecap:square"
     id="line14" />
  <line
     x1="150"
     y1="62"
     x2="150"
     y2="152"
     style="stroke:#000000;stroke-width:2;stroke-linecap:square"
     id="line16" />
  <line
     x1="120"
     y1="230"
     x2="120"
     y2="290"
     style="stroke:rgb(0, 0, 0);stroke-linecap:square;stroke-width:2"
     id="line18" />
  <line
     x1="60"
     y1="170"
     x2="60"
     y2="220"
     style="stroke:rgb(0, 0, 0);stroke-linecap:square;stroke-width:2"
     id="line20" />
  <line
     x1="30"
     y1="220"
     x2="60"
     y2="220"
     style="stroke:rgb(0, 0, 0);stroke-linecap:square;stroke-width:2"
     id="line22" />
  <line
     x1="60"
     y1="170"
     x2="160"
     y2="170"
     style="stroke:rgb(0, 0, 0);stroke-linecap:square;stroke-width:2"
     id="line24" />
  <line
     x1="120"
     y1="210"
     x2="160"
     y2="210"
     style="stroke:rgb(0, 0, 0);stroke-linecap:square;stroke-width:2"
     id="line26" />
  <line
     x1="120"
     y1="230"
     x2="110"
     y2="230"
     style="stroke:rgb(0, 0, 0);stroke-linecap:square;stroke-width:2"
     id="line28" />
  <line
     x1="120"
     y1="210"
     x2="110"
     y2="210"
     style="stroke:rgb(0, 0, 0);stroke-linecap:square;stroke-width:2"
     id="line30" />
  <line
     x1="66"
     y1="220"
     x2="60"
     y2="220"
     style="stroke:rgb(0, 0, 0);stroke-linecap:square;stroke-width:2"
     id="line32" />
  <path
     d="M 110,220 L 110,190 L 66,220 L 110,250 L 110,220 M 105,230 L 95,230 M 100,235 L 100,225 M 105,210 L 95,210 M 67,220"
     style="fill-opacity:0;fill:rgb(0, 0, 0);stroke:rgb(0, 0, 0);stroke-linecap:square;stroke-width:2"
     id="path34" />
  <line
     x1="720"
     y1="50"
     x2="730"
     y2="50"
     style="stroke:rgb(0, 0, 0);stroke-linecap:square;stroke-width:2"
     id="line36" />
  <line
     x1="730"
     y1="50"
     x2="730"
     y2="70"
     style="stroke:rgb(0, 0, 0);stroke-linecap:square;stroke-width:2"
     id="line38" />
  <line
     x1="730"
     y1="80"
     x2="730"
     y2="100"
     style="stroke:rgb(0, 0, 0);stroke-linecap:square;stroke-width:2"
     id="line40" />
  <line
     x1="730"
     y1="100"
     x2="730"
     y2="110"
     style="stroke:rgb(0, 0, 0);stroke-linecap:square;stroke-width:2"
     id="line42" />
  <line
     x1="730"
     y1="120"
     x2="730"
     y2="150"
     style="stroke:rgb(0, 0, 0);stroke-linecap:square;stroke-width:2"
     id="line44" />
  <line
     x1="730"
     y1="160"
     x2="730"
     y2="180"
     style="stroke:rgb(0, 0, 0);stroke-linecap:square;stroke-width:2"
     id="line46" />
  <line
     x1="730"
     y1="190"
     x2="730"
     y2="210"
     style="stroke:rgb(0, 0, 0);stroke-linecap:square;stroke-width:2"
     id="line48" />
  <line
     x1="730"
     y1="220"
     x2="730"
     y2="240"
     style="stroke:rgb(0, 0, 0);stroke-linecap:square;stroke-width:2"
     id="line50" />
  <line
     x1="730"
     y1="250"
     x2="730"
     y2="270"
     style="stroke:rgb(0, 0, 0);stroke-linecap:square;stroke-width:2"
     id="line52" />
  <line
     x1="730"
     y1="280"
     x2="730"
     y2="300"
     style="stroke:rgb(0, 0, 0);stroke-linecap:square;stroke-width:2"
     id="line54" />
  <line
     x1="710"
     y1="50"
     x2="720"
     y2="50"
     style="stroke:rgb(0, 0, 0);stroke-linecap:square;stroke-width:2"
     id="line56" />
  <line
     x1="710"
     y1="50"
     x2="710"
     y2="60"
     style="stroke:rgb(0, 0, 0);stroke-linecap:square;stroke-width:2"
     id="line58" />
  <line
     x1="710"
     y1="60"
     x2="710"
     y2="60"
     style="stroke:rgb(0, 0, 0);stroke-linecap:square;stroke-width:2"
     id="line60" />
  <line
     x1="710"
     y1="60"
     x2="710"
     y2="68"
     style="stroke:rgb(0, 0, 0);stroke-linecap:square;stroke-width:2"
     id="line62" />
  <path
     d="M 702,68 L 718,68 L 710,76 L 702,68"
     style="fill-opacity:0;fill:rgb(0, 0, 0);stroke:rgb(0, 0, 0);stroke-linecap:square;stroke-width:2"
     id="path64" />
  <line
     x1="820"
     y1="100"
     x2="820"
     y2="120"
     style="stroke:rgb(0, 0, 0);stroke-linecap:square;stroke-width:2"
     id="line66" />
  <line
     x1="730"
     y1="100"
     x2="820"
     y2="100"
     style="stroke:rgb(0, 0, 0);stroke-linecap:square;stroke-width:2"
     id="line68" />
  <line
     x1="600"
     y1="300"
     x2="600"
     y2="310"
     style="stroke:rgb(0, 0, 0);stroke-linecap:square;stroke-width:2"
     id="line72" />
  <line
     x1="770"
     y1="460"
     x2="840"
     y2="460"
     style="stroke:rgb(0, 0, 0);stroke-linecap:square;stroke-width:2"
     id="line74" />
  <line
     x1="840"
     y1="450"
     x2="840"
     y2="460"
     style="stroke:rgb(0, 0, 0);stroke-linecap:square;stroke-width:2"
     id="line76" />
  <line
     x1="840"
     y1="380"
     x2="840"
     y2="410"
     style="stroke:rgb(0, 0, 0);stroke-linecap:square;stroke-width:2"
     id="line78" />
  <line
     x1="770"
     y1="380"
     x2="840"
     y2="380"
     style="stroke:rgb(0, 0, 0);stroke-linecap:square;stroke-width:2"
     id="line80" />
  <line
     x1="840"
     y1="400"
     x2="840"
     y2="421"
     style="stroke:rgb(0, 0, 0);stroke-linecap:square;stroke-width:2"
     id="line82" />
  <line
     x1="840"
     y1="429"
     x2="840"
     y2="450"
     style="stroke:rgb(0, 0, 0);stroke-linecap:square;stroke-width:2"
     id="line84" />
  <line
     x1="826"
     y1="421"
     x2="854"
     y2="421"
     style="stroke:rgb(0, 0, 0);stroke-linecap:square;stroke-width:2"
     id="line86" />
  <line
     x1="826"
     y1="429"
     x2="854"
     y2="429"
     style="stroke:rgb(0, 0, 0);stroke-linecap:square;stroke-width:2"
     id="line88" />
  <text
     x="820"
     y="425"
     style="font-family:Arial;font-size:11px;text-anchor:end"
     dominant-baseline="middle"
     transform="rotate(0, 820, 425)"
     id="text90">1 µF</text>
  <line
     x1="540"
     y1="240"
     x2="540"
     y2="290"
     style="stroke:rgb(0, 0, 0);stroke-linecap:square;stroke-width:2"
     id="line92" />
  <line
     x1="540"
     y1="240"
     x2="550"
     y2="240"
     style="stroke:rgb(0, 0, 0);stroke-linecap:square;stroke-width:2"
     id="line94" />
  <line
     x1="610"
     y1="240"
     x2="610"
     y2="280"
     style="stroke:rgb(0, 0, 0);stroke-linecap:square;stroke-width:2"
     id="line96" />
  <line
     x1="600"
     y1="240"
     x2="610"
     y2="240"
     style="stroke:rgb(0, 0, 0);stroke-linecap:square;stroke-width:2"
     id="line98" />
  <line
     x1="550"
     y1="240"
     x2="555"
     y2="240"
     style="stroke:rgb(0, 0, 0);stroke-linecap:square;stroke-width:2"
     id="line100" />
  <line
     x1="595"
     y1="240"
     x2="600"
     y2="240"
     style="stroke:rgb(0, 0, 0);stroke-linecap:square;stroke-width:2"
     id="line102" />
  <path
     d="M 555,240 L 557,240 L 560,233 L 566,247 L 572,233 L 578,247 L 584,233 L 590,247 L 593,240 L 595,240"
     style="fill-opacity:0;fill:rgb(0, 0, 0);stroke:rgb(0, 0, 0);stroke-linecap:square;stroke-width:2"
     id="path104" />
  <text
     x="575"
     y="226"
     style="font-family:Arial;font-size:11px;text-anchor:middle"
     dominant-baseline="baseline"
     transform="rotate(0, 575, 226)"
     id="text106">RFB</text>
  <line
     x1="910"
     y1="170"
     x2="930"
     y2="170"
     style="stroke:rgb(0, 0, 0);stroke-linecap:square;stroke-width:2"
     id="line108" />
  <line
     x1="910"
     y1="170"
     x2="910"
     y2="190"
     style="stroke:rgb(0, 0, 0);stroke-linecap:square;stroke-width:2"
     id="line110" />
  <line
     x1="890"
     y1="190"
     x2="910"
     y2="190"
     style="stroke:rgb(0, 0, 0);stroke-linecap:square;stroke-width:2"
     id="line112" />
  <line
     x1="830"
     y1="190"
     x2="840"
     y2="190"
     style="stroke:rgb(0, 0, 0);stroke-linecap:square;stroke-width:2"
     id="line114" />
  <line
     x1="360"
     y1="290"
     x2="360"
     y2="520"
     style="stroke:rgb(0, 0, 0);stroke-linecap:square;stroke-width:2"
     id="line116" />
  <line
     x1="360"
     y1="520"
     x2="1080"
     y2="520"
     style="stroke:rgb(0, 0, 0);stroke-linecap:square;stroke-width:2"
     id="line118" />
  <line
     x1="1080"
     y1="200"
     x2="1080"
     y2="520"
     style="stroke:rgb(0, 0, 0);stroke-linecap:square;stroke-width:2"
     id="line120" />
  <line
     x1="1040"
     y1="220"
     x2="1040"
     y2="500"
     style="stroke:rgb(0, 0, 0);stroke-linecap:square;stroke-width:2"
     id="line122" />
  <line
     x1="600"
     y1="500"
     x2="1040"
     y2="500"
     style="stroke:rgb(0, 0, 0);stroke-linecap:square;stroke-width:2"
     id="line124" />
  <line
     x1="600"
     y1="390"
     x2="600"
     y2="500"
     style="stroke:rgb(0, 0, 0);stroke-linecap:square;stroke-width:2"
     id="line126" />
  <line
     x1="930"
     y1="170"
     x2="1000"
     y2="170"
     style="stroke:rgb(0, 0, 0);stroke-linecap:square;stroke-width:2"
     id="line128" />
  <line
     x1="930"
     y1="230"
     x2="1000"
     y2="230"
     style="stroke:rgb(0, 0, 0);stroke-linecap:square;stroke-width:2"
     id="line130" />
  <line
     x1="1000"
     y1="220"
     x2="1000"
     y2="230"
     style="stroke:rgb(0, 0, 0);stroke-linecap:square;stroke-width:2"
     id="line132" />
  <line
     x1="1000"
     y1="170"
     x2="1000"
     y2="190"
     style="stroke:rgb(0, 0, 0);stroke-linecap:square;stroke-width:2"
     id="line134" />
  <line
     x1="1000"
     y1="190"
     x2="1020"
     y2="190"
     style="stroke:rgb(0, 0, 0);stroke-linecap:square;stroke-width:2"
     id="line136" />
  <line
     x1="1000"
     y1="210"
     x2="1020"
     y2="210"
     style="stroke:rgb(0, 0, 0);stroke-linecap:square;stroke-width:2"
     id="line138" />
  <line
     x1="1000"
     y1="210"
     x2="1000"
     y2="220"
     style="stroke:rgb(0, 0, 0);stroke-linecap:square;stroke-width:2"
     id="line140" />
  <line
     x1="1180"
     y1="230"
     x2="1180"
     y2="250"
     style="stroke:rgb(0, 0, 0);stroke-linecap:square;stroke-width:2"
     id="line142" />
  <line
     x1="1050"
     y1="250"
     x2="1180"
     y2="250"
     style="stroke:rgb(0, 0, 0);stroke-linecap:square;stroke-width:2"
     id="line144" />
  <line
     x1="1050"
     y1="240"
     x2="1050"
     y2="250"
     style="stroke:rgb(0, 0, 0);stroke-linecap:square;stroke-width:2"
     id="line146" />
  <line
     x1="1180"
     y1="160"
     x2="1180"
     y2="180"
     style="stroke:rgb(0, 0, 0);stroke-linecap:square;stroke-width:2"
     id="line148" />
  <line
     x1="1050"
     y1="160"
     x2="1180"
     y2="160"
     style="stroke:rgb(0, 0, 0);stroke-linecap:square;stroke-width:2"
     id="line150" />
  <line
     x1="930"
     y1="230"
     x2="930"
     y2="280"
     style="stroke:rgb(0, 0, 0);stroke-linecap:square;stroke-width:2"
     id="line152" />
  <line
     x1="820"
     y1="280"
     x2="930"
     y2="280"
     style="stroke:rgb(0, 0, 0);stroke-linecap:square;stroke-width:2"
     id="line154" />
  <line
     x1="820"
     y1="230"
     x2="820"
     y2="280"
     style="stroke:rgb(0, 0, 0);stroke-linecap:square;stroke-width:2"
     id="line156" />
  <line
     x1="820"
     y1="190"
     x2="820"
     y2="230"
     style="stroke:rgb(0, 0, 0);stroke-linecap:square;stroke-width:2"
     id="line158" />
  <line
     x1="930"
     y1="130"
     x2="930"
     y2="180"
     style="stroke:rgb(0, 0, 0);stroke-linecap:square;stroke-width:2"
     id="line160" />
  <line
     x1="910"
     y1="130"
     x2="930"
     y2="130"
     style="stroke:rgb(0, 0, 0);stroke-linecap:square;stroke-width:2"
     id="line162" />
  <line
     x1="820"
     y1="190"
     x2="830"
     y2="190"
     style="stroke:rgb(0, 0, 0);stroke-linecap:square;stroke-width:2"
     id="line164" />
  <line
     x1="1180"
     y1="180"
     x2="1180"
     y2="185"
     style="stroke:rgb(0, 0, 0);stroke-linecap:square;stroke-width:2"
     id="line166" />
  <line
     x1="1180"
     y1="225"
     x2="1180"
     y2="230"
     style="stroke:rgb(0, 0, 0);stroke-linecap:square;stroke-width:2"
     id="line168" />
  <path
     d="M 1180,185 L 1180,187 L 1173,190 L 1187,196 L 1173,202 L 1187,208 L 1173,214 L 1187,220 L 1180,223 L 1180,225"
     style="fill-opacity:0;fill:rgb(0, 0, 0);stroke:rgb(0, 0, 0);stroke-linecap:square;stroke-width:2"
     id="path170" />
  <text
     x="1166"
     y="205"
     style="font-family:Arial;font-size:11px;text-anchor:end"
     dominant-baseline="middle"
     transform="rotate(0, 1166, 205)"
     id="text172">R_INA_GAIN</text>
  <line
     x1="1020"
     y1="210"
     x2="1030"
     y2="210"
     style="stroke:rgb(0, 0, 0);stroke-linecap:square;stroke-width:2"
     id="line174" />
  <line
     x1="1020"
     y1="190"
     x2="1030"
     y2="190"
     style="stroke:rgb(0, 0, 0);stroke-linecap:square;stroke-width:2"
     id="line176" />
  <line
     x1="1074"
     y1="200"
     x2="1080"
     y2="200"
     style="stroke:rgb(0, 0, 0);stroke-linecap:square;stroke-width:2"
     id="line178" />
  <path
     d="M 1030,200 L 1030,170 L 1074,200 L 1030,230 L 1030,200 M 1035,210 L 1045,210 M 1040,215 L 1040,205 M 1035,190 L 1045,190 M 1073,200"
     style="fill-opacity:0;fill:rgb(0, 0, 0);stroke:rgb(0, 0, 0);stroke-linecap:square;stroke-width:2"
     id="path180" />
  <line
     x1="1050"
     y1="240"
     x2="1050"
     y2="218"
     style="stroke:rgb(0, 0, 0);stroke-linecap:square;stroke-width:2"
     id="line182" />
  <line
     x1="1050"
     y1="182"
     x2="1050"
     y2="160"
     style="stroke:rgb(0, 0, 0);stroke-linecap:square;stroke-width:2"
     id="line184" />
  <line
     x1="930"
     y1="180"
     x2="930"
     y2="201"
     style="stroke:rgb(0, 0, 0);stroke-linecap:square;stroke-width:2"
     id="line186" />
  <line
     x1="930"
     y1="209"
     x2="930"
     y2="230"
     style="stroke:rgb(0, 0, 0);stroke-linecap:square;stroke-width:2"
     id="line188" />
  <line
     x1="916"
     y1="201"
     x2="944"
     y2="201"
     style="stroke:rgb(0, 0, 0);stroke-linecap:square;stroke-width:2"
     id="line190" />
  <line
     x1="916"
     y1="209"
     x2="944"
     y2="209"
     style="stroke:rgb(0, 0, 0);stroke-linecap:square;stroke-width:2"
     id="line192" />
  <text
     x="910"
     y="205"
     style="font-family:Arial;font-size:11px;text-anchor:end"
     dominant-baseline="middle"
     transform="rotate(0, 910, 205)"
     id="text194">Z</text>
  <line
     x1="880"
     y1="130"
     x2="910"
     y2="130"
     style="stroke:rgb(0, 0, 0);stroke-linecap:square;stroke-width:2"
     id="line196" />
  <line
     x1="840"
     y1="190"
     x2="845"
     y2="190"
     style="stroke:rgb(0, 0, 0);stroke-linecap:square;stroke-width:2"
     id="line198" />
  <line
     x1="885"
     y1="190"
     x2="890"
     y2="190"
     style="stroke:rgb(0, 0, 0);stroke-linecap:square;stroke-width:2"
     id="line200" />
  <path
     d="M 845,190 L 847,190 L 850,183 L 856,197 L 862,183 L 868,197 L 874,183 L 880,197 L 883,190 L 885,190"
     style="fill-opacity:0;fill:rgb(0, 0, 0);stroke:rgb(0, 0, 0);stroke-linecap:square;stroke-width:2"
     id="path202" />
  <text
     x="865"
     y="176"
     style="font-family:Arial;font-size:11px;text-anchor:middle"
     dominant-baseline="baseline"
     transform="rotate(0, 865, 176)"
     id="text204">R_VCC_protect</text>
  <line
     x1="820"
     y1="140"
     x2="820"
     y2="190"
     style="stroke:rgb(0, 0, 0);stroke-linecap:square;stroke-width:2"
     id="line206" />
  <line
     x1="800"
     y1="140"
     x2="820"
     y2="140"
     style="stroke:rgb(0, 0, 0);stroke-linecap:square;stroke-width:2"
     id="line208" />
  <line
     x1="820"
     y1="120"
     x2="830"
     y2="120"
     style="stroke:rgb(0, 0, 0);stroke-linecap:square;stroke-width:2"
     id="line210" />
  <line
     x1="820"
     y1="140"
     x2="830"
     y2="140"
     style="stroke:rgb(0, 0, 0);stroke-linecap:square;stroke-width:2"
     id="line212" />
  <line
     x1="874"
     y1="130"
     x2="880"
     y2="130"
     style="stroke:rgb(0, 0, 0);stroke-linecap:square;stroke-width:2"
     id="line214" />
  <path
     d="M 830,130 L 830,160 L 874,130 L 830,100 L 830,130 M 835,120 L 845,120 M 840,115 L 840,125 M 835,140 L 845,140 M 873,130"
     style="fill-opacity:0;fill:rgb(0, 0, 0);stroke:rgb(0, 0, 0);stroke-linecap:square;stroke-width:2"
     id="path216" />
  <line
     x1="700"
     y1="140"
     x2="750"
     y2="140"
     style="stroke:rgb(0, 0, 0);stroke-linecap:square;stroke-width:2"
     id="line218" />
  <line
     x1="750"
     y1="140"
     x2="755"
     y2="140"
     style="stroke:rgb(0, 0, 0);stroke-linecap:square;stroke-width:2"
     id="line220" />
  <line
     x1="795"
     y1="140"
     x2="800"
     y2="140"
     style="stroke:rgb(0, 0, 0);stroke-linecap:square;stroke-width:2"
     id="line222" />
  <path
     d="M 755,140 L 757,140 L 760,133 L 766,147 L 772,133 L 778,147 L 784,133 L 790,147 L 793,140 L 795,140"
     style="fill-opacity:0;fill:rgb(0, 0, 0);stroke:rgb(0, 0, 0);stroke-linecap:square;stroke-width:2"
     id="path224" />
  <text
     x="775"
     y="126"
     style="font-family:Arial;font-size:11px;text-anchor:middle"
     dominant-baseline="baseline"
     transform="rotate(0, 775, 126)"
     id="text226">R_VCC_current</text>
  <line
     x1="600"
     y1="390"
     x2="620"
     y2="390"
     style="stroke:rgb(0, 0, 0);stroke-linecap:square;stroke-width:2"
     id="line228" />
  <line
     x1="680"
     y1="400"
     x2="680"
     y2="430"
     style="stroke:rgb(0, 0, 0);stroke-linecap:square;stroke-width:2"
     id="line230" />
  <line
     x1="620"
     y1="430"
     x2="680"
     y2="430"
     style="stroke:rgb(0, 0, 0);stroke-linecap:square;stroke-width:2"
     id="line232" />
  <line
     x1="620"
     y1="390"
     x2="620"
     y2="430"
     style="stroke:rgb(0, 0, 0);stroke-linecap:square;stroke-width:2"
     id="line234" />
  <line
     x1="680"
     y1="380"
     x2="670"
     y2="380"
     style="stroke:rgb(0, 0, 0);stroke-linecap:square;stroke-width:2"
     id="line236" />
  <line
     x1="680"
     y1="400"
     x2="670"
     y2="400"
     style="stroke:rgb(0, 0, 0);stroke-linecap:square;stroke-width:2"
     id="line238" />
  <line
     x1="626"
     y1="390"
     x2="620"
     y2="390"
     style="stroke:rgb(0, 0, 0);stroke-linecap:square;stroke-width:2"
     id="line240" />
  <path
     d="M 670,390 L 670,420 L 626,390 L 670,360 L 670,390 M 665,380 L 655,380 M 660,375 L 660,385 M 665,400 L 655,400 M 627,390"
     style="fill-opacity:0;fill:rgb(0, 0, 0);stroke:rgb(0, 0, 0);stroke-linecap:square;stroke-width:2"
     id="path242" />
  <line
     x1="360"
     y1="290"
     x2="540"
     y2="290"
     style="stroke:rgb(0, 0, 0);stroke-linecap:square;stroke-width:2"
     id="line244" />
  <line
     x1="360"
     y1="220"
     x2="360"
     y2="290"
     style="stroke:rgb(0, 0, 0);stroke-linecap:square;stroke-width:2"
     id="line246" />
  <line
     x1="360"
     y1="210"
     x2="360"
     y2="220"
     style="stroke:rgb(0, 0, 0);stroke-linecap:square;stroke-width:2"
     id="line248" />
  <line
     x1="300"
     y1="210"
     x2="310"
     y2="210"
     style="stroke:rgb(0, 0, 0);stroke-linecap:square;stroke-width:2"
     id="line250" />
  <line
     x1="300"
     y1="170"
     x2="300"
     y2="210"
     style="stroke:rgb(0, 0, 0);stroke-linecap:square;stroke-width:2"
     id="line252" />
  <line
     x1="250"
     y1="210"
     x2="300"
     y2="210"
     style="stroke:rgb(0, 0, 0);stroke-linecap:square;stroke-width:2"
     id="line254" />
  <line
     x1="250"
     y1="170"
     x2="255"
     y2="170"
     style="stroke:rgb(0, 0, 0);stroke-linecap:square;stroke-width:2"
     id="line256" />
  <line
     x1="295"
     y1="170"
     x2="300"
     y2="170"
     style="stroke:rgb(0, 0, 0);stroke-linecap:square;stroke-width:2"
     id="line258" />
  <path
     d="M 255,170 L 257,170 L 260,163 L 266,177 L 272,163 L 278,177 L 284,163 L 290,177 L 293,170 L 295,170"
     style="fill-opacity:0;fill:rgb(0, 0, 0);stroke:rgb(0, 0, 0);stroke-linecap:square;stroke-width:2"
     id="path260" />
  <text
     x="275"
     y="156"
     style="font-family:Arial;font-size:11px;text-anchor:middle"
     dominant-baseline="baseline"
     transform="rotate(0, 275, 156)"
     id="text262">R_AD_FB</text>
  <line
     x1="310"
     y1="210"
     x2="315"
     y2="210"
     style="stroke:rgb(0, 0, 0);stroke-linecap:square;stroke-width:2"
     id="line264" />
  <line
     x1="355"
     y1="210"
     x2="360"
     y2="210"
     style="stroke:rgb(0, 0, 0);stroke-linecap:square;stroke-width:2"
     id="line266" />
  <path
     d="M 315,210 L 317,210 L 320,203 L 326,217 L 332,203 L 338,217 L 344,203 L 350,217 L 353,210 L 355,210"
     style="fill-opacity:0;fill:rgb(0, 0, 0);stroke:rgb(0, 0, 0);stroke-linecap:square;stroke-width:2"
     id="path268" />
  <text
     x="335"
     y="196"
     style="font-family:Arial;font-size:11px;text-anchor:middle"
     dominant-baseline="baseline"
     transform="rotate(0, 335, 196)"
     id="text270">R_AD_IN</text>
  <text
     x="770"
     y="295"
     style="font-family:Arial;font-size:12px;text-anchor:middle"
     dominant-baseline="baseline"
     transform="rotate(0, 770, 295)"
     id="text272">+3.3V</text>
  <line
     x1="770"
     y1="300"
     x2="770"
     y2="310"
     style="stroke:rgb(0, 0, 0);stroke-linecap:square;stroke-width:2"
     id="line274" />
  <line
     x1="770"
     y1="380"
     x2="770"
     y2="400"
     style="stroke:rgb(0, 0, 0);stroke-linecap:square;stroke-width:2"
     id="line276" />
  <line
     x1="770"
     y1="310"
     x2="770"
     y2="315"
     style="stroke:rgb(0, 0, 0);stroke-linecap:square;stroke-width:2"
     id="line278" />
  <line
     x1="770"
     y1="355"
     x2="770"
     y2="360"
     style="stroke:rgb(0, 0, 0);stroke-linecap:square;stroke-width:2"
     id="line280" />
  <path
     d="M 770,315 L 770,317 L 763,320 L 777,326 L 763,332 L 777,338 L 763,344 L 777,350 L 770,353 L 770,355"
     style="fill-opacity:0;fill:rgb(0, 0, 0);stroke:rgb(0, 0, 0);stroke-linecap:square;stroke-width:2"
     id="path282" />
  <text
     x="758"
     y="327"
     style="font-size:11px;font-family:Arial;text-anchor:end"
     dominant-baseline="middle"
     id="text284">R_REFGEN</text>
  <line
     x1="770"
     y1="400"
     x2="770"
     y2="405"
     style="stroke:rgb(0, 0, 0);stroke-linecap:square;stroke-width:2"
     id="line286" />
  <line
     x1="770"
     y1="445"
     x2="770"
     y2="450"
     style="stroke:rgb(0, 0, 0);stroke-linecap:square;stroke-width:2"
     id="line288" />
  <path
     d="M 770,405 L 770,407 L 763,410 L 777,416 L 763,422 L 777,428 L 763,434 L 777,440 L 770,443 L 770,445"
     style="fill-opacity:0;fill:rgb(0, 0, 0);stroke:rgb(0, 0, 0);stroke-linecap:square;stroke-width:2"
     id="path290" />
  <text
     x="756"
     y="425"
     style="font-family:Arial;font-size:11px;text-anchor:end"
     dominant-baseline="middle"
     transform="rotate(0, 756, 425)"
     id="text292">R_REFGEN</text>
  <line
     x1="770"
     y1="450"
     x2="770"
     y2="472"
     style="stroke:rgb(0, 0, 0);stroke-linecap:square;stroke-width:2"
     id="line294" />
  <path
     d="M 762,472 L 778,472 L 770,480 L 762,472"
     style="fill-opacity:0;fill:rgb(0, 0, 0);stroke:rgb(0, 0, 0);stroke-linecap:square;stroke-width:2"
     id="path296" />
  <line
     x1="770"
     y1="360"
     x2="770"
     y2="380"
     style="stroke:rgb(0, 0, 0);stroke-linecap:square;stroke-width:2"
     id="line298" />
  <line
     x1="680"
     y1="380"
     x2="770"
     y2="380"
     style="stroke:rgb(0, 0, 0);stroke-linecap:square;stroke-width:2"
     id="line300" />
  <line
     x1="600"
     y1="300"
     x2="600"
     y2="390"
     style="stroke:rgb(0, 0, 0);stroke-linecap:square;stroke-width:2"
     id="line302" />
  <line
     x1="676"
     y1="230"
     x2="676"
     y2="280"
     style="stroke:#000000;stroke-width:2;stroke-linecap:square"
     id="line304" />
  <line
     x1="600"
     y1="280"
     x2="676"
     y2="280"
     style="stroke:#000000;stroke-width:1.74356;stroke-linecap:square"
     id="line306" />
  <line
     x1="600"
     y1="300"
     x2="590"
     y2="300"
     style="stroke:rgb(0, 0, 0);stroke-linecap:square;stroke-width:2"
     id="line308" />
  <line
     x1="600"
     y1="280"
     x2="590"
     y2="280"
     style="stroke:rgb(0, 0, 0);stroke-linecap:square;stroke-width:2"
     id="line310" />
  <line
     x1="546"
     y1="290"
     x2="540"
     y2="290"
     style="stroke:rgb(0, 0, 0);stroke-linecap:square;stroke-width:2"
     id="line312" />
  <path
     d="M 590,290 L 590,260 L 546,290 L 590,320 L 590,290 M 585,300 L 575,300 M 580,305 L 580,295 M 585,280 L 575,280 M 547,290"
     style="fill-opacity:0;fill:rgb(0, 0, 0);stroke:rgb(0, 0, 0);stroke-linecap:square;stroke-width:2"
     id="path314" />
  <line
     x1="676"
     y1="140"
     x2="676"
     y2="180"
     style="stroke:#000000;stroke-width:2;stroke-linecap:square"
     id="line316" />
  <line
     x1="676"
     y1="180"
     x2="676"
     y2="201"
     style="stroke:#000000;stroke-width:2;stroke-linecap:square"
     id="line318" />
  <line
     x1="676"
     y1="209"
     x2="676"
     y2="230"
     style="stroke:#000000;stroke-width:2;stroke-linecap:square"
     id="line320" />
  <line
     x1="662"
     y1="201"
     x2="690"
     y2="201"
     style="stroke:#000000;stroke-width:2;stroke-linecap:square"
     id="line322" />
  <line
     x1="662"
     y1="209"
     x2="690"
     y2="209"
     style="stroke:#000000;stroke-width:2;stroke-linecap:square"
     id="line324" />
  <text
     x="656"
     y="205"
     style="font-size:11px;font-family:Arial;text-anchor:end"
     dominant-baseline="middle"
     id="text326">Z</text>
  <line
     x1="600"
     y1="140"
     x2="700"
     y2="140"
     style="stroke:rgb(0, 0, 0);stroke-linecap:square;stroke-width:2"
     id="line328" />
  <line
     x1="600"
     y1="140"
     x2="600"
     y2="180"
     style="stroke:rgb(0, 0, 0);stroke-linecap:square;stroke-width:2"
     id="line330" />
  <line
     x1="540"
     y1="180"
     x2="600"
     y2="180"
     style="stroke:rgb(0, 0, 0);stroke-linecap:square;stroke-width:2"
     id="line332" />
  <line
     x1="430"
     y1="130"
     x2="540"
     y2="130"
     style="stroke:rgb(0, 0, 0);stroke-linecap:square;stroke-width:2"
     id="line334" />
  <line
     x1="430"
     y1="130"
     x2="430"
     y2="140"
     style="stroke:rgb(0, 0, 0);stroke-linecap:square;stroke-width:2"
     id="line336" />
  <line
     x1="540"
     y1="150"
     x2="540"
     y2="180"
     style="stroke:rgb(0, 0, 0);stroke-linecap:square;stroke-width:2"
     id="line338" />
  <line
     x1="430"
     y1="60"
     x2="430"
     y2="70"
     style="stroke:rgb(0, 0, 0);stroke-linecap:square;stroke-width:2"
     id="line340" />
  <line
     x1="430"
     y1="70"
     x2="430"
     y2="80"
     style="stroke:#000000;stroke-width:2;stroke-linecap:square"
     id="line342" />
  <text
     x="430"
     y="45"
     style="font-family:Arial;font-size:12px;text-anchor:middle"
     dominant-baseline="baseline"
     transform="rotate(0, 430, 45)"
     id="text344">+3.3V</text>
  <line
     x1="430"
     y1="50"
     x2="430"
     y2="60"
     style="stroke:rgb(0, 0, 0);stroke-linecap:square;stroke-width:2"
     id="line346" />
  <line
     x1="540"
     y1="130"
     x2="550"
     y2="130"
     style="stroke:rgb(0, 0, 0);stroke-linecap:square;stroke-width:2"
     id="line348" />
  <line
     x1="540"
     y1="150"
     x2="550"
     y2="150"
     style="stroke:rgb(0, 0, 0);stroke-linecap:square;stroke-width:2"
     id="line350" />
  <line
     x1="594"
     y1="140"
     x2="600"
     y2="140"
     style="stroke:rgb(0, 0, 0);stroke-linecap:square;stroke-width:2"
     id="line352" />
  <path
     d="M 550,140 L 550,170 L 594,140 L 550,110 L 550,140 M 555,130 L 565,130 M 560,125 L 560,135 M 555,150 L 565,150 M 593,140"
     style="fill-opacity:0;fill:rgb(0, 0, 0);stroke:rgb(0, 0, 0);stroke-linecap:square;stroke-width:2"
     id="path354" />
  <line
     x1="430"
     y1="200"
     x2="430"
     y2="210"
     style="stroke:rgb(0, 0, 0);stroke-linecap:square;stroke-width:2"
     id="line356" />
  <line
     x1="430"
     y1="190"
     x2="430"
     y2="200"
     style="stroke:rgb(0, 0, 0);stroke-linecap:square;stroke-width:2"
     id="line358" />
  <line
     x1="430"
     y1="200"
     x2="430"
     y2="210"
     style="stroke:rgb(0, 0, 0);stroke-linecap:square;stroke-width:2"
     id="line360" />
  <line
     x1="430"
     y1="200"
     x2="430"
     y2="202"
     style="stroke:rgb(0, 0, 0);stroke-linecap:square;stroke-width:2"
     id="line362" />
  <path
     d="M 422,202 L 438,202 L 430,210 L 422,202"
     style="fill-opacity:0;fill:rgb(0, 0, 0);stroke:rgb(0, 0, 0);stroke-linecap:square;stroke-width:2"
     id="path364" />
  <line
     x1="370"
     y1="130"
     x2="430"
     y2="130"
     style="stroke:rgb(0, 0, 0);stroke-linecap:square;stroke-width:2"
     id="line366" />
  <line
     x1="430"
     y1="140"
     x2="430"
     y2="145"
     style="stroke:rgb(0, 0, 0);stroke-linecap:square;stroke-width:2"
     id="line368" />
  <line
     x1="430"
     y1="185"
     x2="430"
     y2="190"
     style="stroke:rgb(0, 0, 0);stroke-linecap:square;stroke-width:2"
     id="line370" />
  <path
     d="M 430,145 L 430,147 L 423,150 L 437,156 L 423,162 L 437,168 L 423,174 L 437,180 L 430,183 L 430,185"
     style="fill-opacity:0;fill:rgb(0, 0, 0);stroke:rgb(0, 0, 0);stroke-linecap:square;stroke-width:2"
     id="path372" />
  <text
     x="416"
     y="165"
     style="font-family:Arial;font-size:11px;text-anchor:end"
     dominant-baseline="middle"
     transform="rotate(0, 416, 165)"
     id="text374">R_HP</text>
  <line
     x1="430"
     y1="80"
     x2="430"
     y2="85"
     style="stroke:rgb(0, 0, 0);stroke-linecap:square;stroke-width:2"
     id="line376" />
  <line
     x1="430"
     y1="125"
     x2="430"
     y2="130"
     style="stroke:rgb(0, 0, 0);stroke-linecap:square;stroke-width:2"
     id="line378" />
  <path
     d="M 430,85 L 430,87 L 423,90 L 437,96 L 423,102 L 437,108 L 423,114 L 437,120 L 430,123 L 430,125"
     style="fill-opacity:0;fill:rgb(0, 0, 0);stroke:rgb(0, 0, 0);stroke-linecap:square;stroke-width:2"
     id="path380" />
  <text
     x="416"
     y="105"
     style="font-family:Arial;font-size:11px;text-anchor:end"
     dominant-baseline="middle"
     transform="rotate(0, 416, 105)"
     id="text382">R_HP</text>
  <line
     x1="250"
     y1="130"
     x2="320"
     y2="130"
     style="stroke:rgb(0, 0, 0);stroke-linecap:square;stroke-width:2"
     id="line384" />
  <line
     x1="320"
     y1="130"
     x2="341"
     y2="130"
     style="stroke:rgb(0, 0, 0);stroke-linecap:square;stroke-width:2"
     id="line386" />
  <line
     x1="349"
     y1="130"
     x2="370"
     y2="130"
     style="stroke:rgb(0, 0, 0);stroke-linecap:square;stroke-width:2"
     id="line388" />
  <line
     x1="341"
     y1="116"
     x2="341"
     y2="144"
     style="stroke:rgb(0, 0, 0);stroke-linecap:square;stroke-width:2"
     id="line390" />
  <path
     d="M 349,130 M 351,143.5 A 15,25 0 0 1 351,116.5"
     style="fill-opacity:0;fill:rgb(0, 0, 0);stroke:rgb(0, 0, 0);stroke-linecap:square;stroke-width:2"
     id="path392" />
  <text
     x="345"
     y="110"
     style="font-family:Arial;font-size:11px;text-anchor:middle"
     dominant-baseline="baseline"
     transform="rotate(0, 345, 110)"
     id="text394">C_HP</text>
  <text
     x="192"
     y="210"
     style="font-family:Arial;font-size:12px;text-anchor:end"
     dominant-baseline="middle"
     transform="rotate(0, 192, 210)"
     id="text396">V_in</text>
  <line
     x1="203"
     y1="210"
     x2="250"
     y2="210"
     style="stroke:rgb(0, 0, 0);stroke-linecap:square;stroke-width:2"
     id="line398" />
  <ellipse
     cx="200"
     cy="210"
     rx="3"
     ry="3"
     style="fill-opacity:0;fill:rgb(0, 0, 0);stroke:rgb(0, 0, 0);stroke-width:2"
     id="ellipse400" />
  <text
     x="192"
     y="130"
     style="font-family:Arial;font-size:12px;text-anchor:end"
     dominant-baseline="middle"
     transform="rotate(0, 192, 130)"
     id="text402">V_out</text>
  <line
     x1="203"
     y1="130"
     x2="250"
     y2="130"
     style="stroke:rgb(0, 0, 0);stroke-linecap:square;stroke-width:2"
     id="line404" />
  <ellipse
     cx="200"
     cy="130"
     rx="3"
     ry="3"
     style="fill-opacity:0;fill:rgb(0, 0, 0);stroke:rgb(0, 0, 0);stroke-width:2"
     id="ellipse406" />
  <text
     x="192"
     y="170"
     style="font-family:Arial;font-size:12px;text-anchor:end"
     dominant-baseline="middle"
     transform="rotate(0, 192, 170)"
     id="text408">RFB</text>
  <line
     x1="203"
     y1="170"
     x2="250"
     y2="170"
     style="stroke:rgb(0, 0, 0);stroke-linecap:square;stroke-width:2"
     id="line410" />
  <ellipse
     cx="200"
     cy="170"
     rx="3"
     ry="3"
     style="fill-opacity:0;fill:rgb(0, 0, 0);stroke:rgb(0, 0, 0);stroke-width:2"
     id="ellipse412" />
  <ellipse
     cx="60"
     cy="220"
     rx="2"
     ry="2"
     style="fill-opacity:1;fill:rgb(0, 0, 0);stroke:rgb(0, 0, 0);stroke-width:2"
     id="ellipse414" />
  <ellipse
     cx="730"
     cy="100"
     rx="2"
     ry="2"
     style="fill-opacity:1;fill:rgb(0, 0, 0);stroke:rgb(0, 0, 0);stroke-width:2"
     id="ellipse416" />
  <ellipse
     cx="600"
     cy="300"
     rx="2"
     ry="2"
     style="fill-opacity:1;fill:rgb(0, 0, 0);stroke:rgb(0, 0, 0);stroke-width:2"
     id="ellipse418" />
  <ellipse
     cx="770"
     cy="460"
     rx="2"
     ry="2"
     style="fill-opacity:1;fill:rgb(0, 0, 0);stroke:rgb(0, 0, 0);stroke-width:2"
     id="ellipse420" />
  <ellipse
     cx="770"
     cy="380"
     rx="2"
     ry="2"
     style="fill-opacity:1;fill:rgb(0, 0, 0);stroke:rgb(0, 0, 0);stroke-width:2"
     id="ellipse422" />
  <ellipse
     cx="540"
     cy="290"
     rx="2"
     ry="2"
     style="fill-opacity:1;fill:rgb(0, 0, 0);stroke:rgb(0, 0, 0);stroke-width:2"
     id="ellipse424" />
  <ellipse
     cx="610"
     cy="280"
     rx="2"
     ry="2"
     style="fill-opacity:1;fill:rgb(0, 0, 0);stroke:rgb(0, 0, 0);stroke-width:2"
     id="ellipse426" />
  <ellipse
     cx="930"
     cy="170"
     rx="2"
     ry="2"
     style="fill-opacity:1;fill:rgb(0, 0, 0);stroke:rgb(0, 0, 0);stroke-width:2"
     id="ellipse428" />
  <ellipse
     cx="360"
     cy="290"
     rx="2"
     ry="2"
     style="fill-opacity:1;fill:rgb(0, 0, 0);stroke:rgb(0, 0, 0);stroke-width:2"
     id="ellipse430" />
  <ellipse
     cx="600"
     cy="390"
     rx="2"
     ry="2"
     style="fill-opacity:1;fill:rgb(0, 0, 0);stroke:rgb(0, 0, 0);stroke-width:2"
     id="ellipse432" />
  <ellipse
     cx="930"
     cy="230"
     rx="2"
     ry="2"
     style="fill-opacity:1;fill:rgb(0, 0, 0);stroke:rgb(0, 0, 0);stroke-width:2"
     id="ellipse434" />
  <ellipse
     cx="820"
     cy="190"
     rx="2"
     ry="2"
     style="fill-opacity:1;fill:rgb(0, 0, 0);stroke:rgb(0, 0, 0);stroke-width:2"
     id="ellipse436" />
  <ellipse
     cx="820"
     cy="140"
     rx="2"
     ry="2"
     style="fill-opacity:1;fill:rgb(0, 0, 0);stroke:rgb(0, 0, 0);stroke-width:2"
     id="ellipse438" />
  <circle
     cx="676"
     cy="140"
     style="fill:#000000;fill-opacity:1;stroke:#000000;stroke-width:2"
     id="ellipse440"
     r="2" />
  <ellipse
     cx="620"
     cy="390"
     rx="2"
     ry="2"
     style="fill-opacity:1;fill:rgb(0, 0, 0);stroke:rgb(0, 0, 0);stroke-width:2"
     id="ellipse442" />
  <ellipse
     cx="300"
     cy="210"
     rx="2"
     ry="2"
     style="fill-opacity:1;fill:rgb(0, 0, 0);stroke:rgb(0, 0, 0);stroke-width:2"
     id="ellipse444" />
  <ellipse
     cx="600"
     cy="140"
     rx="2"
     ry="2"
     style="fill-opacity:1;fill:rgb(0, 0, 0);stroke:rgb(0, 0, 0);stroke-width:2"
     id="ellipse446" />
  <ellipse
     cx="430"
     cy="130"
     rx="2"
     ry="2"
     style="fill-opacity:1;fill:rgb(0, 0, 0);stroke:rgb(0, 0, 0);stroke-width:2"
     id="ellipse448" />
  <text
     xml:space="preserve"
     style="font-style:normal;font-weight:normal;font-size:40px;line-height:1.25;font-family:sans-serif;fill:#000000;fill-opacity:1;stroke:none"
     x="531.07031"
     y="92.571884"
     id="text4001"><tspan
       sodipodi:role="line"
       id="tspan3999"
       x="531.07031"
       y="92.571884"
       style="font-style:normal;font-variant:normal;font-weight:normal;font-stretch:normal;font-size:24px;font-family:sans-serif;-inkscape-font-specification:'sans-serif, Normal';font-variant-ligatures:normal;font-variant-caps:normal;font-variant-numeric:normal;font-variant-east-asian:normal;fill:#008000">Buffer</tspan></text>
  <text
     xml:space="preserve"
     style="font-style:normal;font-weight:normal;font-size:40px;line-height:1.25;font-family:sans-serif;fill:#000000;fill-opacity:1;stroke:none"
     x="271.86905"
     y="94.52076"
     id="text7811"><tspan
       sodipodi:role="line"
       id="tspan7809"
       x="271.86905"
       y="94.52076"
       style="font-style:normal;font-variant:normal;font-weight:normal;font-stretch:normal;font-size:24px;font-family:sans-serif;-inkscape-font-specification:'sans-serif, Normal';font-variant-ligatures:normal;font-variant-caps:normal;font-variant-numeric:normal;font-variant-east-asian:normal;fill:#008000">High Pass</tspan></text>
  <text
     xml:space="preserve"
     style="font-style:normal;font-weight:normal;font-size:40px;line-height:1.25;font-family:sans-serif;fill:#000000;fill-opacity:1;stroke:none"
     x="741.54956"
     y="88.674118"
     id="text8987"><tspan
       sodipodi:role="line"
       id="tspan8985"
       x="741.54956"
       y="88.674118"
       style="font-style:normal;font-variant:normal;font-weight:normal;font-stretch:normal;font-size:24px;font-family:sans-serif;-inkscape-font-specification:'sans-serif, Normal';font-variant-ligatures:normal;font-variant-caps:normal;font-variant-numeric:normal;font-variant-east-asian:normal;fill:#008000">Voltage to Current Converter</tspan></text>
  <text
     xml:space="preserve"
     style="font-style:normal;font-weight:normal;font-size:40px;line-height:1.25;font-family:sans-serif;fill:#000000;fill-opacity:1;stroke:none"
     x="952.02881"
     y="143.4984"
     id="text10869"><tspan
       sodipodi:role="line"
       id="tspan10867"
       x="952.02881"
       y="143.4984"
       style="font-style:normal;font-variant:normal;font-weight:normal;font-stretch:normal;font-size:24px;font-family:sans-serif;-inkscape-font-specification:'sans-serif, Normal';font-variant-ligatures:normal;font-variant-caps:normal;font-variant-numeric:normal;font-variant-east-asian:normal;fill:#008000">Instrument Amplifier</tspan></text>
  <text
     xml:space="preserve"
     style="font-style:normal;font-weight:normal;font-size:40px;line-height:1.25;font-family:sans-serif;fill:#000000;fill-opacity:1;stroke:none"
     x="601.5528"
     y="494.59424"
     id="text12607"><tspan
       sodipodi:role="line"
       x="601.5528"
       y="494.59424"
       style="font-style:normal;font-variant:normal;font-weight:normal;font-stretch:normal;font-size:24px;font-family:sans-serif;-inkscape-font-specification:'sans-serif, Normal';font-variant-ligatures:normal;font-variant-caps:normal;font-variant-numeric:normal;font-variant-east-asian:normal;fill:#008000"
       id="tspan12631">Offset Voltage Generator</tspan></text>
  <text
     xml:space="preserve"
     style="font-style:normal;font-weight:normal;font-size:40px;line-height:1.25;font-family:sans-serif;fill:#000000;fill-opacity:1;stroke:none"
     x="20.463337"
     y="325.36099"
     id="text13783"><tspan
       sodipodi:role="line"
       x="20.463337"
       y="325.36099"
       style="font-style:normal;font-variant:normal;font-weight:normal;font-stretch:normal;font-size:24px;font-family:sans-serif;-inkscape-font-specification:'sans-serif, Normal';font-variant-ligatures:normal;font-variant-caps:normal;font-variant-numeric:normal;font-variant-east-asian:normal;fill:#008000"
       id="tspan13781">Internal AD5933 Amplifier</tspan></text>
  <text
     xml:space="preserve"
     style="font-style:normal;font-weight:normal;font-size:40px;line-height:1.25;font-family:sans-serif;fill:#000000;fill-opacity:1;stroke:none"
     x="499.57516"
     y="58.85141"
     id="text15685"><tspan
       sodipodi:role="line"
       x="499.57516"
       y="58.85141"
       style="font-style:normal;font-variant:normal;font-weight:normal;font-stretch:normal;font-size:24px;font-family:sans-serif;-inkscape-font-specification:'sans-serif, Normal';font-variant-ligatures:normal;font-variant-caps:normal;font-variant-numeric:normal;font-variant-east-asian:normal;fill:#000000;fill-opacity:1"
       id="tspan15683">Single Lead</tspan></text>
  <text
     xml:space="preserve"
     style="font-style:normal;font-weight:normal;font-size:40px;line-height:1.25;font-family:sans-serif;fill:#000000;fill-opacity:1;stroke:none"
     x="917.71252"
     y="58.423309"
     id="text16967"><tspan
       sodipodi:role="line"
       x="917.71252"
       y="58.423309"
       style="font-style:normal;font-variant:normal;font-weight:normal;font-stretch:normal;font-size:24px;font-family:sans-serif;-inkscape-font-specification:'sans-serif, Normal';font-variant-ligatures:normal;font-variant-caps:normal;font-variant-numeric:normal;font-variant-east-asian:normal;fill:#0000ff;fill-opacity:1"
       id="tspan16965">Dual Lead</tspan></text>
  <text
     xml:space="preserve"
     style="font-style:normal;font-weight:normal;font-size:40px;line-height:1.25;font-family:sans-serif;fill:#ff0000;fill-opacity:1;stroke:none"
     x="740.63177"
     y="255.10461"
     id="text18399"><tspan
       sodipodi:role="line"
       x="740.63177"
       y="255.10461"
       style="font-style:normal;font-variant:normal;font-weight:normal;font-stretch:normal;font-size:24px;font-family:sans-serif;-inkscape-font-specification:'sans-serif, Normal';font-variant-ligatures:normal;font-variant-caps:normal;font-variant-numeric:normal;font-variant-east-asian:normal;fill:#ff0000"
       id="tspan18397">Impedance</tspan></text>
  <path
     style="fill:#ff0000;stroke:#ff0000;stroke-width:1px;stroke-linecap:butt;stroke-linejoin:miter;stroke-opacity:1"
     d="m 700.5,215.75 26,29.5"
     id="path20366"
     sodipodi:nodetypes="cc" />
  <path
     style="fill:#ff0000;stroke:#ff0000;stroke-width:1px;stroke-linecap:butt;stroke-linejoin:miter;stroke-opacity:1"
     d="m 913.5,216 -31.25,31.25"
     id="path20684"
     sodipodi:nodetypes="cc" />
  <text
     x="635"
     y="127"
     style="font-size:12px;font-family:Arial;text-anchor:end"
     dominant-baseline="middle"
     id="text24744">V_buffer</text>
  <text
     x="978"
     y="204"
     style="font-size:12px;font-family:Arial;text-anchor:end"
     dominant-baseline="middle"
     id="text25304">V_Z</text>
  <text
     x="794"
     y="168"
     style="font-size:12px;font-family:Arial;text-anchor:end"
     dominant-baseline="middle"
     id="text25738">I_VCC</text>
  <text
     x="859"
     y="224"
     style="font-size:12px;font-family:Arial;text-anchor:end"
     dominant-baseline="middle"
     id="text26442">I_VCC</text>
  <text
     x="1120"
     y="278"
     style="font-size:12px;font-family:Arial;text-anchor:end"
     dominant-baseline="middle"
     id="text26444">V_INA</text>
  <text
     x="64.5"
     y="239"
     style="font-size:12px;font-family:Arial;text-anchor:end"
     dominant-baseline="middle"
     id="text27280">V_AD5933</text>
  <line
     x1="710"
     y1="300"
     x2="730"
     y2="300"
     style="stroke:#000000;stroke-width:2;stroke-linecap:square"
     id="line1401" />
  <line
     x1="672"
     y1="300"
     x2="692"
     y2="300"
     style="stroke:#000000;stroke-width:2;stroke-linecap:square"
     id="line1403" />
  <line
     x1="636"
     y1="300"
     x2="656"
     y2="300"
     style="stroke:#000000;stroke-width:2;stroke-linecap:square"
     id="line1405" />
  <line
     x1="600"
     y1="300"
     x2="620"
     y2="300"
     style="stroke:#000000;stroke-width:2;stroke-linecap:square"
     id="line1407" />
</svg>
