M48
;GenerationSoftware,Autodesk,EAGLE,9.6.2*%
;CreationDate,2024-02-24T15:45:21Z*%
FMAT,2
ICI,OFF
METRIC,TZ,000.000
T4C0.350
T3C1.016
T2C1.700
T1C3.500
%
G90
M71
T1
X3750Y3750
X3750Y66250
X66250Y66250
X66250Y3750
T2
X52500Y10500
X52500Y3500
X35000Y3500
X35000Y10500
X17500Y3500
X17500Y10500
T3
X46000Y67750
X43460Y67750
X40920Y67750
X38380Y67750
X35840Y67750
X33300Y67750
X30760Y67750
X28220Y67750
T4
X42250Y64500
X40000Y24750
X57250Y24750
X49750Y16000
X63750Y18250
X49750Y24750
X46250Y13250
X46250Y2500
X44500Y56750
X34500Y64500
X32000Y64500
X29500Y64500
X26750Y64500
X47750Y64500
X34500Y50000
X32000Y50000
X29500Y50000
X48500Y50000
X34250Y24750
X28000Y24750
X22250Y24750
X15750Y24750
X15750Y16500
X34500Y16250
X41250Y2500
X58250Y2500
X28500Y2500
X28500Y13000
X59500Y13000
X8250Y49750
X8250Y37000
X8750Y25250
X63250Y38500
X63250Y50000
X63000Y64500
X10750Y13000
X57000Y20750
X22250Y20750
X46000Y50000
X39750Y20750
X43250Y50000
X40000Y50000
X37000Y50000
X23500Y2500
X27000Y50000
X53500Y50000
X53500Y64500
X23000Y64500
X8250Y64500
X10750Y2500
X44750Y64500
X37000Y64500
X39750Y64500
M30