G04 EAGLE Gerber RS-274X export*
G75*
%MOMM*%
%FSLAX34Y34*%
%LPD*%
%INBottom Copper*%
%IPPOS*%
%AMOC8*
5,1,8,0,0,1.08239X$1,22.5*%
G01*
%ADD10C,1.524000*%
%ADD11R,1.879600X1.879600*%
%ADD12C,1.879600*%
%ADD13C,5.080000*%
%ADD14C,0.756400*%
%ADD15C,0.508000*%
%ADD16C,0.254000*%
%ADD17C,0.152400*%

G36*
X654807Y10169D02*
X654807Y10169D01*
X654845Y10168D01*
X654891Y10189D01*
X654939Y10200D01*
X654968Y10224D01*
X655003Y10240D01*
X655034Y10279D01*
X655073Y10310D01*
X655088Y10345D01*
X655112Y10374D01*
X655123Y10423D01*
X655144Y10469D01*
X655142Y10506D01*
X655151Y10543D01*
X655139Y10592D01*
X655137Y10642D01*
X655119Y10675D01*
X655110Y10712D01*
X655078Y10750D01*
X655054Y10794D01*
X655024Y10816D01*
X654999Y10845D01*
X654944Y10872D01*
X654913Y10894D01*
X654890Y10898D01*
X654869Y10908D01*
X651823Y11724D01*
X645516Y15366D01*
X640366Y20516D01*
X636724Y26823D01*
X636373Y28133D01*
X635864Y30034D01*
X634839Y33858D01*
X634839Y41142D01*
X636724Y48177D01*
X640366Y54484D01*
X645516Y59634D01*
X651823Y63276D01*
X658858Y65161D01*
X666142Y65161D01*
X673177Y63276D01*
X679484Y59634D01*
X684634Y54484D01*
X688276Y48177D01*
X689092Y45131D01*
X689110Y45098D01*
X689118Y45061D01*
X689150Y45022D01*
X689174Y44978D01*
X689204Y44956D01*
X689228Y44927D01*
X689274Y44907D01*
X689315Y44878D01*
X689352Y44872D01*
X689387Y44856D01*
X689436Y44858D01*
X689486Y44850D01*
X689522Y44861D01*
X689560Y44863D01*
X689604Y44887D01*
X689651Y44901D01*
X689679Y44928D01*
X689712Y44946D01*
X689741Y44986D01*
X689777Y45021D01*
X689790Y45056D01*
X689812Y45087D01*
X689823Y45148D01*
X689836Y45183D01*
X689835Y45207D01*
X689839Y45230D01*
X689839Y654770D01*
X689831Y654807D01*
X689832Y654845D01*
X689811Y654891D01*
X689800Y654939D01*
X689776Y654968D01*
X689760Y655003D01*
X689721Y655034D01*
X689690Y655073D01*
X689655Y655088D01*
X689626Y655112D01*
X689577Y655123D01*
X689531Y655144D01*
X689494Y655142D01*
X689457Y655151D01*
X689408Y655139D01*
X689358Y655137D01*
X689325Y655119D01*
X689288Y655110D01*
X689250Y655078D01*
X689206Y655054D01*
X689184Y655024D01*
X689155Y654999D01*
X689128Y654944D01*
X689106Y654913D01*
X689102Y654890D01*
X689092Y654869D01*
X688276Y651823D01*
X684634Y645516D01*
X679484Y640366D01*
X673177Y636724D01*
X666142Y634839D01*
X658858Y634839D01*
X651823Y636724D01*
X645516Y640366D01*
X640366Y645516D01*
X636724Y651823D01*
X635625Y655926D01*
X634839Y658858D01*
X634839Y666142D01*
X636724Y673177D01*
X640366Y679484D01*
X645516Y684634D01*
X651823Y688276D01*
X654869Y689092D01*
X654902Y689110D01*
X654939Y689118D01*
X654978Y689150D01*
X655022Y689174D01*
X655044Y689204D01*
X655073Y689228D01*
X655093Y689274D01*
X655122Y689315D01*
X655128Y689352D01*
X655144Y689387D01*
X655142Y689436D01*
X655150Y689486D01*
X655139Y689522D01*
X655137Y689560D01*
X655113Y689604D01*
X655099Y689651D01*
X655073Y689679D01*
X655054Y689712D01*
X655014Y689741D01*
X654979Y689777D01*
X654944Y689790D01*
X654913Y689812D01*
X654852Y689823D01*
X654817Y689836D01*
X654793Y689835D01*
X654770Y689839D01*
X551967Y689839D01*
X551914Y689827D01*
X551858Y689823D01*
X551830Y689807D01*
X551799Y689800D01*
X551756Y689765D01*
X551708Y689737D01*
X551690Y689710D01*
X551665Y689690D01*
X551642Y689639D01*
X551612Y689593D01*
X551607Y689561D01*
X551594Y689531D01*
X551596Y689476D01*
X551589Y689421D01*
X551600Y689391D01*
X551601Y689358D01*
X551627Y689310D01*
X551645Y689257D01*
X551670Y689230D01*
X551684Y689206D01*
X551711Y689187D01*
X551744Y689151D01*
X552819Y688370D01*
X553950Y687239D01*
X554890Y685945D01*
X555616Y684520D01*
X556111Y682999D01*
X556361Y681420D01*
X556361Y673761D01*
X546581Y673761D01*
X546531Y673750D01*
X546480Y673748D01*
X546448Y673730D01*
X546412Y673722D01*
X546373Y673689D01*
X546328Y673665D01*
X546307Y673635D01*
X546279Y673612D01*
X546258Y673565D01*
X546229Y673523D01*
X546220Y673481D01*
X546208Y673453D01*
X546209Y673423D01*
X546201Y673381D01*
X546201Y672999D01*
X545819Y672999D01*
X545769Y672987D01*
X545718Y672986D01*
X545686Y672968D01*
X545650Y672960D01*
X545611Y672927D01*
X545566Y672903D01*
X545545Y672873D01*
X545517Y672849D01*
X545496Y672803D01*
X545466Y672761D01*
X545458Y672719D01*
X545446Y672691D01*
X545447Y672661D01*
X545439Y672619D01*
X545439Y655219D01*
X545400Y655219D01*
X543821Y655469D01*
X542300Y655964D01*
X540875Y656690D01*
X539581Y657630D01*
X538450Y658761D01*
X537510Y660055D01*
X536784Y661480D01*
X536362Y662779D01*
X536347Y662803D01*
X536341Y662830D01*
X536303Y662876D01*
X536272Y662927D01*
X536248Y662942D01*
X536231Y662963D01*
X536176Y662988D01*
X536126Y663020D01*
X536098Y663023D01*
X536072Y663034D01*
X536013Y663032D01*
X535954Y663039D01*
X535927Y663029D01*
X535899Y663028D01*
X535847Y662999D01*
X535791Y662979D01*
X535772Y662958D01*
X535747Y662945D01*
X535713Y662896D01*
X535672Y662853D01*
X535663Y662826D01*
X535647Y662803D01*
X535632Y662724D01*
X535621Y662687D01*
X535622Y662674D01*
X535620Y662661D01*
X535620Y552658D01*
X480745Y497783D01*
X480706Y497720D01*
X480663Y497660D01*
X480660Y497645D01*
X480654Y497636D01*
X480650Y497597D01*
X480634Y497518D01*
X480542Y488124D01*
X480554Y488069D01*
X480555Y488034D01*
X480564Y488019D01*
X480572Y487972D01*
X480578Y487964D01*
X480579Y487955D01*
X480602Y487928D01*
X480653Y487852D01*
X481807Y486698D01*
X481807Y482302D01*
X478698Y479193D01*
X474302Y479193D01*
X471193Y482302D01*
X471193Y486698D01*
X472300Y487805D01*
X472339Y487868D01*
X472382Y487928D01*
X472385Y487942D01*
X472391Y487952D01*
X472395Y487990D01*
X472411Y488070D01*
X472416Y488532D01*
X472410Y488559D01*
X472412Y488586D01*
X472402Y488613D01*
X472402Y488616D01*
X472399Y488622D01*
X472391Y488642D01*
X472378Y488701D01*
X472361Y488722D01*
X472351Y488748D01*
X472307Y488789D01*
X472269Y488836D01*
X472244Y488847D01*
X472224Y488866D01*
X472166Y488883D01*
X472112Y488908D01*
X472084Y488907D01*
X472057Y488915D01*
X471998Y488905D01*
X471938Y488903D01*
X471914Y488890D01*
X471887Y488885D01*
X471819Y488840D01*
X471785Y488822D01*
X471779Y488812D01*
X471767Y488804D01*
X384343Y401380D01*
X306908Y401380D01*
X292380Y415908D01*
X292380Y445000D01*
X292363Y445074D01*
X292350Y445149D01*
X292343Y445159D01*
X292341Y445169D01*
X292317Y445198D01*
X292269Y445269D01*
X282380Y455158D01*
X282380Y495500D01*
X282363Y495574D01*
X282350Y495649D01*
X282343Y495659D01*
X282341Y495669D01*
X282317Y495698D01*
X282269Y495769D01*
X277269Y500769D01*
X277204Y500809D01*
X277142Y500853D01*
X277130Y500855D01*
X277122Y500860D01*
X277085Y500864D01*
X277000Y500880D01*
X265158Y500880D01*
X258380Y507658D01*
X258380Y537343D01*
X273324Y552286D01*
X273337Y552308D01*
X273357Y552324D01*
X273383Y552381D01*
X273415Y552433D01*
X273418Y552459D01*
X273428Y552483D01*
X273426Y552544D01*
X273432Y552606D01*
X273423Y552630D01*
X273422Y552656D01*
X273392Y552710D01*
X273370Y552768D01*
X273351Y552785D01*
X273339Y552808D01*
X273289Y552843D01*
X273243Y552885D01*
X273218Y552893D01*
X273197Y552908D01*
X273113Y552924D01*
X273077Y552935D01*
X273067Y552933D01*
X273055Y552935D01*
X270598Y552935D01*
X270524Y552918D01*
X270449Y552905D01*
X270439Y552898D01*
X270429Y552896D01*
X270400Y552872D01*
X270329Y552824D01*
X269198Y551693D01*
X264802Y551693D01*
X261693Y554802D01*
X261693Y559198D01*
X264802Y562307D01*
X269198Y562307D01*
X270329Y561176D01*
X270393Y561136D01*
X270455Y561092D01*
X270467Y561090D01*
X270476Y561085D01*
X270513Y561081D01*
X270598Y561065D01*
X277000Y561065D01*
X277050Y561076D01*
X277101Y561078D01*
X277133Y561096D01*
X277169Y561104D01*
X277208Y561137D01*
X277253Y561161D01*
X277274Y561191D01*
X277302Y561214D01*
X277323Y561261D01*
X277353Y561303D01*
X277361Y561345D01*
X277373Y561373D01*
X277372Y561403D01*
X277380Y561445D01*
X277380Y689459D01*
X277369Y689509D01*
X277367Y689560D01*
X277349Y689592D01*
X277341Y689628D01*
X277308Y689667D01*
X277284Y689712D01*
X277254Y689733D01*
X277231Y689761D01*
X277184Y689782D01*
X277142Y689812D01*
X277100Y689820D01*
X277072Y689832D01*
X277042Y689831D01*
X277000Y689839D01*
X270351Y689839D01*
X270338Y689836D01*
X270325Y689838D01*
X270254Y689817D01*
X270182Y689800D01*
X270172Y689792D01*
X270159Y689788D01*
X270106Y689737D01*
X270048Y689690D01*
X270043Y689678D01*
X270033Y689669D01*
X270008Y689599D01*
X269977Y689531D01*
X269978Y689518D01*
X269973Y689506D01*
X269981Y689433D01*
X269984Y689358D01*
X269990Y689347D01*
X269992Y689334D01*
X270031Y689271D01*
X270067Y689206D01*
X270077Y689199D01*
X270084Y689188D01*
X270205Y689108D01*
X271980Y688373D01*
X274553Y685800D01*
X275945Y682439D01*
X275945Y663561D01*
X274553Y660200D01*
X271980Y657627D01*
X268619Y656235D01*
X264981Y656235D01*
X261620Y657627D01*
X259047Y660200D01*
X257655Y663561D01*
X257655Y682439D01*
X259047Y685800D01*
X261620Y688373D01*
X263395Y689108D01*
X263405Y689115D01*
X263418Y689118D01*
X263475Y689165D01*
X263536Y689209D01*
X263542Y689220D01*
X263552Y689228D01*
X263582Y689296D01*
X263617Y689362D01*
X263617Y689375D01*
X263623Y689387D01*
X263620Y689461D01*
X263622Y689535D01*
X263617Y689547D01*
X263616Y689560D01*
X263581Y689625D01*
X263550Y689692D01*
X263539Y689701D01*
X263533Y689712D01*
X263473Y689754D01*
X263415Y689801D01*
X263402Y689804D01*
X263392Y689812D01*
X263249Y689839D01*
X45230Y689839D01*
X45193Y689831D01*
X45155Y689832D01*
X45109Y689811D01*
X45061Y689800D01*
X45032Y689776D01*
X44997Y689760D01*
X44966Y689721D01*
X44927Y689690D01*
X44912Y689655D01*
X44888Y689626D01*
X44877Y689577D01*
X44856Y689531D01*
X44858Y689494D01*
X44849Y689457D01*
X44861Y689408D01*
X44863Y689358D01*
X44881Y689325D01*
X44890Y689288D01*
X44922Y689250D01*
X44946Y689206D01*
X44976Y689184D01*
X45001Y689155D01*
X45056Y689128D01*
X45087Y689106D01*
X45110Y689102D01*
X45131Y689092D01*
X48177Y688276D01*
X54484Y684634D01*
X59634Y679484D01*
X63276Y673177D01*
X64997Y666752D01*
X65161Y666142D01*
X65161Y658858D01*
X63276Y651823D01*
X59634Y645516D01*
X54484Y640366D01*
X48177Y636724D01*
X41142Y634839D01*
X33858Y634839D01*
X26823Y636724D01*
X20516Y640366D01*
X15366Y645516D01*
X11724Y651823D01*
X10908Y654869D01*
X10890Y654902D01*
X10882Y654939D01*
X10850Y654978D01*
X10826Y655022D01*
X10796Y655044D01*
X10772Y655073D01*
X10726Y655093D01*
X10685Y655122D01*
X10648Y655128D01*
X10613Y655144D01*
X10564Y655142D01*
X10514Y655150D01*
X10478Y655139D01*
X10440Y655137D01*
X10396Y655113D01*
X10349Y655099D01*
X10321Y655073D01*
X10288Y655054D01*
X10259Y655014D01*
X10223Y654979D01*
X10210Y654944D01*
X10188Y654913D01*
X10177Y654852D01*
X10164Y654817D01*
X10165Y654793D01*
X10161Y654770D01*
X10161Y45230D01*
X10169Y45193D01*
X10168Y45155D01*
X10189Y45109D01*
X10200Y45061D01*
X10224Y45032D01*
X10240Y44997D01*
X10279Y44966D01*
X10310Y44927D01*
X10345Y44912D01*
X10374Y44888D01*
X10423Y44877D01*
X10469Y44856D01*
X10506Y44858D01*
X10543Y44849D01*
X10592Y44861D01*
X10642Y44863D01*
X10675Y44881D01*
X10712Y44890D01*
X10750Y44922D01*
X10794Y44946D01*
X10816Y44977D01*
X10845Y45001D01*
X10872Y45056D01*
X10894Y45087D01*
X10898Y45110D01*
X10908Y45131D01*
X11724Y48177D01*
X15366Y54484D01*
X20516Y59634D01*
X26823Y63276D01*
X33858Y65161D01*
X41142Y65161D01*
X48177Y63276D01*
X54484Y59634D01*
X59634Y54484D01*
X63276Y48177D01*
X63402Y47705D01*
X65161Y41142D01*
X65161Y33858D01*
X63276Y26823D01*
X59634Y20516D01*
X54484Y15366D01*
X48177Y11724D01*
X45131Y10908D01*
X45098Y10890D01*
X45061Y10882D01*
X45022Y10850D01*
X44978Y10826D01*
X44956Y10796D01*
X44927Y10772D01*
X44907Y10726D01*
X44878Y10685D01*
X44872Y10648D01*
X44856Y10613D01*
X44858Y10564D01*
X44850Y10514D01*
X44861Y10478D01*
X44863Y10440D01*
X44887Y10396D01*
X44901Y10349D01*
X44927Y10321D01*
X44946Y10288D01*
X44986Y10259D01*
X45021Y10223D01*
X45056Y10210D01*
X45087Y10188D01*
X45148Y10177D01*
X45183Y10164D01*
X45207Y10165D01*
X45230Y10161D01*
X654770Y10161D01*
X654807Y10169D01*
G37*
G36*
X482156Y506250D02*
X482156Y506250D01*
X482216Y506252D01*
X482241Y506265D01*
X482268Y506269D01*
X482335Y506315D01*
X482369Y506333D01*
X482376Y506342D01*
X482388Y506350D01*
X531269Y555231D01*
X531309Y555296D01*
X531353Y555358D01*
X531355Y555370D01*
X531360Y555378D01*
X531364Y555415D01*
X531380Y555500D01*
X531380Y662460D01*
X531377Y662473D01*
X531379Y662486D01*
X531358Y662557D01*
X531341Y662629D01*
X531333Y662639D01*
X531329Y662651D01*
X531278Y662705D01*
X531231Y662762D01*
X531219Y662768D01*
X531210Y662777D01*
X531140Y662803D01*
X531072Y662833D01*
X531059Y662833D01*
X531047Y662837D01*
X530974Y662830D01*
X530899Y662827D01*
X530888Y662821D01*
X530875Y662819D01*
X530812Y662779D01*
X530747Y662744D01*
X530740Y662733D01*
X530729Y662726D01*
X530649Y662606D01*
X529414Y659624D01*
X526556Y656766D01*
X522821Y655219D01*
X518779Y655219D01*
X515044Y656766D01*
X512186Y659624D01*
X510639Y663359D01*
X510639Y682641D01*
X512186Y686376D01*
X515001Y689190D01*
X515014Y689212D01*
X515034Y689228D01*
X515060Y689285D01*
X515092Y689337D01*
X515095Y689363D01*
X515105Y689387D01*
X515103Y689448D01*
X515109Y689510D01*
X515100Y689534D01*
X515099Y689560D01*
X515069Y689614D01*
X515047Y689672D01*
X515028Y689689D01*
X515016Y689712D01*
X514965Y689747D01*
X514920Y689789D01*
X514895Y689797D01*
X514874Y689812D01*
X514790Y689828D01*
X514754Y689839D01*
X514744Y689837D01*
X514732Y689839D01*
X501468Y689839D01*
X501443Y689833D01*
X501417Y689836D01*
X501360Y689814D01*
X501299Y689800D01*
X501280Y689783D01*
X501255Y689774D01*
X501213Y689729D01*
X501166Y689690D01*
X501155Y689666D01*
X501138Y689647D01*
X501120Y689588D01*
X501095Y689531D01*
X501096Y689506D01*
X501089Y689481D01*
X501099Y689420D01*
X501101Y689358D01*
X501114Y689336D01*
X501118Y689310D01*
X501166Y689239D01*
X501184Y689206D01*
X501192Y689200D01*
X501199Y689190D01*
X504014Y686376D01*
X505561Y682641D01*
X505561Y663359D01*
X504014Y659624D01*
X501156Y656766D01*
X497421Y655219D01*
X493379Y655219D01*
X489644Y656766D01*
X486786Y659624D01*
X485239Y663359D01*
X485239Y682641D01*
X486786Y686376D01*
X489601Y689190D01*
X489614Y689212D01*
X489634Y689228D01*
X489660Y689285D01*
X489692Y689337D01*
X489695Y689363D01*
X489705Y689387D01*
X489703Y689448D01*
X489709Y689510D01*
X489700Y689534D01*
X489699Y689560D01*
X489669Y689614D01*
X489647Y689672D01*
X489628Y689689D01*
X489616Y689712D01*
X489565Y689747D01*
X489520Y689789D01*
X489495Y689797D01*
X489474Y689812D01*
X489390Y689828D01*
X489354Y689839D01*
X489344Y689837D01*
X489332Y689839D01*
X476068Y689839D01*
X476043Y689833D01*
X476017Y689836D01*
X475960Y689814D01*
X475899Y689800D01*
X475880Y689783D01*
X475855Y689774D01*
X475813Y689729D01*
X475766Y689690D01*
X475755Y689666D01*
X475738Y689647D01*
X475720Y689588D01*
X475695Y689531D01*
X475696Y689506D01*
X475689Y689481D01*
X475699Y689420D01*
X475701Y689358D01*
X475714Y689336D01*
X475718Y689310D01*
X475766Y689239D01*
X475784Y689206D01*
X475792Y689200D01*
X475799Y689190D01*
X478614Y686376D01*
X480161Y682641D01*
X480161Y663359D01*
X478614Y659624D01*
X475756Y656766D01*
X472021Y655219D01*
X467979Y655219D01*
X464244Y656766D01*
X461386Y659624D01*
X459839Y663359D01*
X459839Y682641D01*
X461386Y686376D01*
X464201Y689190D01*
X464214Y689212D01*
X464234Y689228D01*
X464260Y689285D01*
X464292Y689337D01*
X464295Y689363D01*
X464305Y689387D01*
X464303Y689448D01*
X464309Y689510D01*
X464300Y689534D01*
X464299Y689560D01*
X464269Y689614D01*
X464247Y689672D01*
X464228Y689689D01*
X464216Y689712D01*
X464165Y689747D01*
X464120Y689789D01*
X464095Y689797D01*
X464074Y689812D01*
X463990Y689828D01*
X463954Y689839D01*
X463944Y689837D01*
X463932Y689839D01*
X450668Y689839D01*
X450643Y689833D01*
X450617Y689836D01*
X450560Y689814D01*
X450499Y689800D01*
X450480Y689783D01*
X450455Y689774D01*
X450413Y689729D01*
X450366Y689690D01*
X450355Y689666D01*
X450338Y689647D01*
X450320Y689588D01*
X450295Y689531D01*
X450296Y689506D01*
X450289Y689481D01*
X450299Y689420D01*
X450301Y689358D01*
X450314Y689336D01*
X450318Y689310D01*
X450366Y689239D01*
X450384Y689206D01*
X450392Y689200D01*
X450399Y689190D01*
X453214Y686376D01*
X454761Y682641D01*
X454761Y663359D01*
X453214Y659624D01*
X450356Y656766D01*
X446621Y655219D01*
X442579Y655219D01*
X438844Y656766D01*
X435986Y659624D01*
X434439Y663359D01*
X434439Y682641D01*
X435986Y686376D01*
X438801Y689190D01*
X438814Y689212D01*
X438834Y689228D01*
X438860Y689285D01*
X438892Y689337D01*
X438895Y689363D01*
X438905Y689387D01*
X438903Y689448D01*
X438909Y689510D01*
X438900Y689534D01*
X438899Y689560D01*
X438869Y689614D01*
X438847Y689672D01*
X438828Y689689D01*
X438816Y689712D01*
X438765Y689747D01*
X438720Y689789D01*
X438695Y689797D01*
X438674Y689812D01*
X438590Y689828D01*
X438554Y689839D01*
X438544Y689837D01*
X438532Y689839D01*
X425268Y689839D01*
X425243Y689833D01*
X425217Y689836D01*
X425160Y689814D01*
X425099Y689800D01*
X425080Y689783D01*
X425055Y689774D01*
X425013Y689729D01*
X424966Y689690D01*
X424955Y689666D01*
X424938Y689647D01*
X424920Y689588D01*
X424895Y689531D01*
X424896Y689506D01*
X424889Y689481D01*
X424899Y689420D01*
X424901Y689358D01*
X424914Y689336D01*
X424918Y689310D01*
X424966Y689239D01*
X424984Y689206D01*
X424992Y689200D01*
X424999Y689190D01*
X427814Y686376D01*
X429361Y682641D01*
X429361Y663359D01*
X427814Y659624D01*
X424956Y656766D01*
X421221Y655219D01*
X417179Y655219D01*
X413444Y656766D01*
X410586Y659624D01*
X409039Y663359D01*
X409039Y682641D01*
X410586Y686376D01*
X413401Y689190D01*
X413414Y689212D01*
X413434Y689228D01*
X413460Y689285D01*
X413492Y689337D01*
X413495Y689363D01*
X413505Y689387D01*
X413503Y689448D01*
X413509Y689510D01*
X413500Y689534D01*
X413499Y689560D01*
X413469Y689614D01*
X413447Y689672D01*
X413428Y689689D01*
X413416Y689712D01*
X413365Y689747D01*
X413320Y689789D01*
X413295Y689797D01*
X413274Y689812D01*
X413190Y689828D01*
X413154Y689839D01*
X413144Y689837D01*
X413132Y689839D01*
X399868Y689839D01*
X399843Y689833D01*
X399817Y689836D01*
X399760Y689814D01*
X399699Y689800D01*
X399680Y689783D01*
X399655Y689774D01*
X399613Y689729D01*
X399566Y689690D01*
X399555Y689666D01*
X399538Y689647D01*
X399520Y689588D01*
X399495Y689531D01*
X399496Y689506D01*
X399489Y689481D01*
X399499Y689420D01*
X399501Y689358D01*
X399514Y689336D01*
X399518Y689310D01*
X399566Y689239D01*
X399584Y689206D01*
X399592Y689200D01*
X399599Y689190D01*
X402414Y686376D01*
X403961Y682641D01*
X403961Y663359D01*
X402414Y659624D01*
X399556Y656766D01*
X395821Y655219D01*
X391779Y655219D01*
X388044Y656766D01*
X385186Y659624D01*
X383639Y663359D01*
X383639Y682641D01*
X385186Y686376D01*
X388001Y689190D01*
X388014Y689212D01*
X388034Y689228D01*
X388060Y689285D01*
X388092Y689337D01*
X388095Y689363D01*
X388105Y689387D01*
X388103Y689448D01*
X388109Y689510D01*
X388100Y689534D01*
X388099Y689560D01*
X388069Y689614D01*
X388047Y689672D01*
X388028Y689689D01*
X388016Y689712D01*
X387965Y689747D01*
X387920Y689789D01*
X387895Y689797D01*
X387874Y689812D01*
X387790Y689828D01*
X387754Y689839D01*
X387744Y689837D01*
X387732Y689839D01*
X374468Y689839D01*
X374443Y689833D01*
X374417Y689836D01*
X374360Y689814D01*
X374299Y689800D01*
X374280Y689783D01*
X374255Y689774D01*
X374213Y689729D01*
X374166Y689690D01*
X374155Y689666D01*
X374138Y689647D01*
X374120Y689588D01*
X374095Y689531D01*
X374096Y689506D01*
X374089Y689481D01*
X374099Y689420D01*
X374101Y689358D01*
X374114Y689336D01*
X374118Y689310D01*
X374166Y689239D01*
X374184Y689206D01*
X374192Y689200D01*
X374199Y689190D01*
X377014Y686376D01*
X378561Y682641D01*
X378561Y663359D01*
X377014Y659624D01*
X374156Y656766D01*
X370421Y655219D01*
X366379Y655219D01*
X362644Y656766D01*
X359786Y659624D01*
X358239Y663359D01*
X358239Y682641D01*
X359786Y686376D01*
X362601Y689190D01*
X362614Y689212D01*
X362634Y689228D01*
X362660Y689285D01*
X362692Y689337D01*
X362695Y689363D01*
X362705Y689387D01*
X362703Y689448D01*
X362709Y689510D01*
X362700Y689534D01*
X362699Y689560D01*
X362669Y689614D01*
X362647Y689672D01*
X362628Y689689D01*
X362616Y689712D01*
X362565Y689747D01*
X362520Y689789D01*
X362495Y689797D01*
X362474Y689812D01*
X362390Y689828D01*
X362354Y689839D01*
X362344Y689837D01*
X362332Y689839D01*
X349068Y689839D01*
X349043Y689833D01*
X349017Y689836D01*
X348960Y689814D01*
X348899Y689800D01*
X348880Y689783D01*
X348855Y689774D01*
X348813Y689729D01*
X348766Y689690D01*
X348755Y689666D01*
X348738Y689647D01*
X348720Y689588D01*
X348695Y689531D01*
X348696Y689506D01*
X348689Y689481D01*
X348699Y689420D01*
X348701Y689358D01*
X348714Y689336D01*
X348718Y689310D01*
X348766Y689239D01*
X348784Y689206D01*
X348792Y689200D01*
X348799Y689190D01*
X351614Y686376D01*
X353161Y682641D01*
X353161Y663359D01*
X351614Y659624D01*
X348756Y656766D01*
X345021Y655219D01*
X340979Y655219D01*
X337244Y656766D01*
X334386Y659624D01*
X332839Y663359D01*
X332839Y682641D01*
X334386Y686376D01*
X337201Y689190D01*
X337214Y689212D01*
X337234Y689228D01*
X337260Y689285D01*
X337292Y689337D01*
X337295Y689363D01*
X337305Y689387D01*
X337303Y689448D01*
X337309Y689510D01*
X337300Y689534D01*
X337299Y689560D01*
X337269Y689614D01*
X337247Y689672D01*
X337228Y689689D01*
X337216Y689712D01*
X337165Y689747D01*
X337120Y689789D01*
X337095Y689797D01*
X337074Y689812D01*
X336990Y689828D01*
X336954Y689839D01*
X336944Y689837D01*
X336932Y689839D01*
X323668Y689839D01*
X323643Y689833D01*
X323617Y689836D01*
X323560Y689814D01*
X323499Y689800D01*
X323480Y689783D01*
X323455Y689774D01*
X323413Y689729D01*
X323366Y689690D01*
X323355Y689666D01*
X323338Y689647D01*
X323320Y689588D01*
X323295Y689531D01*
X323296Y689506D01*
X323289Y689481D01*
X323299Y689420D01*
X323301Y689358D01*
X323314Y689336D01*
X323318Y689310D01*
X323366Y689239D01*
X323384Y689206D01*
X323392Y689200D01*
X323399Y689190D01*
X326214Y686376D01*
X327761Y682641D01*
X327761Y663359D01*
X326214Y659624D01*
X323356Y656766D01*
X319621Y655219D01*
X315579Y655219D01*
X311844Y656766D01*
X308986Y659624D01*
X307439Y663359D01*
X307439Y682641D01*
X308986Y686376D01*
X311801Y689190D01*
X311814Y689212D01*
X311834Y689228D01*
X311860Y689285D01*
X311892Y689337D01*
X311895Y689363D01*
X311905Y689387D01*
X311903Y689448D01*
X311909Y689510D01*
X311900Y689534D01*
X311899Y689560D01*
X311869Y689614D01*
X311847Y689672D01*
X311828Y689689D01*
X311816Y689712D01*
X311765Y689747D01*
X311720Y689789D01*
X311695Y689797D01*
X311674Y689812D01*
X311590Y689828D01*
X311554Y689839D01*
X311544Y689837D01*
X311532Y689839D01*
X298268Y689839D01*
X298243Y689833D01*
X298217Y689836D01*
X298160Y689814D01*
X298099Y689800D01*
X298080Y689783D01*
X298055Y689774D01*
X298013Y689729D01*
X297966Y689690D01*
X297955Y689666D01*
X297938Y689647D01*
X297920Y689588D01*
X297895Y689531D01*
X297896Y689506D01*
X297889Y689481D01*
X297899Y689420D01*
X297901Y689358D01*
X297914Y689336D01*
X297918Y689310D01*
X297966Y689239D01*
X297984Y689206D01*
X297992Y689200D01*
X297999Y689190D01*
X300814Y686376D01*
X302361Y682641D01*
X302361Y663359D01*
X300814Y659624D01*
X297956Y656766D01*
X294221Y655219D01*
X290179Y655219D01*
X286444Y656766D01*
X283586Y659624D01*
X282996Y661048D01*
X282988Y661059D01*
X282985Y661073D01*
X282938Y661129D01*
X282895Y661189D01*
X282883Y661195D01*
X282875Y661206D01*
X282807Y661236D01*
X282742Y661270D01*
X282729Y661271D01*
X282716Y661276D01*
X282643Y661273D01*
X282569Y661275D01*
X282557Y661270D01*
X282543Y661269D01*
X282479Y661234D01*
X282412Y661203D01*
X282403Y661192D01*
X282391Y661186D01*
X282349Y661126D01*
X282303Y661068D01*
X282300Y661055D01*
X282292Y661044D01*
X282265Y660901D01*
X282630Y562460D01*
X282642Y562411D01*
X282644Y562360D01*
X282662Y562327D01*
X282670Y562291D01*
X282702Y562252D01*
X282726Y562208D01*
X282757Y562187D01*
X282781Y562158D01*
X282827Y562137D01*
X282868Y562108D01*
X282911Y562100D01*
X282939Y562087D01*
X282969Y562089D01*
X283010Y562081D01*
X473105Y562081D01*
X479107Y556078D01*
X479171Y556039D01*
X479192Y556023D01*
X480702Y554484D01*
X480703Y554483D01*
X480704Y554481D01*
X482194Y552992D01*
X482173Y550885D01*
X482173Y550884D01*
X482173Y550882D01*
X482173Y548749D01*
X482171Y548746D01*
X482167Y548707D01*
X482160Y548672D01*
X482157Y548666D01*
X482158Y548661D01*
X482151Y548627D01*
X481739Y506623D01*
X481745Y506596D01*
X481742Y506568D01*
X481764Y506512D01*
X481777Y506454D01*
X481794Y506432D01*
X481804Y506407D01*
X481848Y506366D01*
X481886Y506319D01*
X481911Y506308D01*
X481931Y506289D01*
X481989Y506272D01*
X482043Y506247D01*
X482071Y506247D01*
X482097Y506240D01*
X482156Y506250D01*
G37*
G36*
X381574Y405637D02*
X381574Y405637D01*
X381649Y405650D01*
X381659Y405657D01*
X381669Y405659D01*
X381698Y405683D01*
X381769Y405731D01*
X471358Y495320D01*
X471397Y495383D01*
X471440Y495443D01*
X471443Y495457D01*
X471449Y495467D01*
X471453Y495505D01*
X471469Y495585D01*
X471989Y548664D01*
X471972Y548740D01*
X471959Y548817D01*
X471953Y548825D01*
X471951Y548833D01*
X471929Y548861D01*
X471878Y548937D01*
X469007Y551808D01*
X468942Y551848D01*
X468880Y551892D01*
X468868Y551894D01*
X468860Y551899D01*
X468823Y551903D01*
X468738Y551919D01*
X279539Y551919D01*
X279465Y551902D01*
X279390Y551889D01*
X279380Y551882D01*
X279370Y551880D01*
X279341Y551856D01*
X279270Y551808D01*
X263231Y535769D01*
X263191Y535704D01*
X263147Y535642D01*
X263145Y535630D01*
X263140Y535622D01*
X263136Y535585D01*
X263120Y535500D01*
X263120Y511000D01*
X263137Y510926D01*
X263150Y510851D01*
X263157Y510841D01*
X263159Y510831D01*
X263183Y510802D01*
X263231Y510731D01*
X268731Y505231D01*
X268796Y505191D01*
X268858Y505147D01*
X268870Y505145D01*
X268878Y505140D01*
X268915Y505136D01*
X269000Y505120D01*
X280303Y505120D01*
X286620Y498803D01*
X286620Y456023D01*
X286636Y455954D01*
X286646Y455883D01*
X286656Y455868D01*
X286659Y455854D01*
X286684Y455824D01*
X286724Y455761D01*
X296120Y445848D01*
X296120Y417500D01*
X296137Y417426D01*
X296150Y417351D01*
X296157Y417341D01*
X296159Y417331D01*
X296183Y417302D01*
X296231Y417231D01*
X307731Y405731D01*
X307796Y405691D01*
X307858Y405647D01*
X307870Y405645D01*
X307878Y405640D01*
X307915Y405636D01*
X308000Y405620D01*
X381500Y405620D01*
X381574Y405637D01*
G37*
%LPC*%
G36*
X369802Y150693D02*
X369802Y150693D01*
X366693Y153802D01*
X366693Y158198D01*
X369094Y160599D01*
X369134Y160663D01*
X369178Y160725D01*
X369180Y160737D01*
X369185Y160746D01*
X369189Y160783D01*
X369205Y160868D01*
X369205Y386632D01*
X369193Y386687D01*
X369192Y386709D01*
X369186Y386720D01*
X369175Y386781D01*
X369168Y386791D01*
X369166Y386801D01*
X369142Y386830D01*
X369094Y386901D01*
X366693Y389302D01*
X366693Y393698D01*
X369802Y396807D01*
X374198Y396807D01*
X377307Y393698D01*
X377307Y389302D01*
X374906Y386901D01*
X374866Y386837D01*
X374822Y386775D01*
X374820Y386763D01*
X374815Y386754D01*
X374811Y386717D01*
X374806Y386690D01*
X374802Y386681D01*
X374802Y386670D01*
X374795Y386632D01*
X374795Y363218D01*
X374801Y363192D01*
X374798Y363167D01*
X374820Y363109D01*
X374834Y363049D01*
X374851Y363029D01*
X374860Y363005D01*
X374905Y362963D01*
X374944Y362915D01*
X374968Y362905D01*
X374987Y362887D01*
X375046Y362870D01*
X375103Y362844D01*
X375128Y362845D01*
X375153Y362838D01*
X375214Y362849D01*
X375276Y362851D01*
X375298Y362863D01*
X375324Y362868D01*
X375395Y362916D01*
X375428Y362934D01*
X375434Y362942D01*
X375444Y362949D01*
X376802Y364307D01*
X381198Y364307D01*
X382329Y363176D01*
X382393Y363136D01*
X382455Y363092D01*
X382467Y363090D01*
X382476Y363085D01*
X382513Y363081D01*
X382598Y363065D01*
X394912Y363065D01*
X394986Y363082D01*
X395061Y363095D01*
X395071Y363102D01*
X395081Y363104D01*
X395110Y363128D01*
X395181Y363176D01*
X396362Y364357D01*
X400758Y364357D01*
X403867Y361248D01*
X403867Y356852D01*
X400758Y353743D01*
X396362Y353743D01*
X395281Y354824D01*
X395217Y354864D01*
X395155Y354908D01*
X395143Y354910D01*
X395134Y354915D01*
X395097Y354919D01*
X395012Y354935D01*
X382598Y354935D01*
X382524Y354918D01*
X382449Y354905D01*
X382439Y354898D01*
X382429Y354896D01*
X382400Y354872D01*
X382329Y354824D01*
X381198Y353693D01*
X376802Y353693D01*
X375444Y355051D01*
X375422Y355065D01*
X375406Y355085D01*
X375349Y355110D01*
X375297Y355143D01*
X375271Y355145D01*
X375247Y355156D01*
X375186Y355153D01*
X375124Y355159D01*
X375100Y355150D01*
X375074Y355149D01*
X375020Y355120D01*
X374962Y355098D01*
X374945Y355079D01*
X374922Y355066D01*
X374887Y355016D01*
X374845Y354971D01*
X374837Y354946D01*
X374822Y354925D01*
X374806Y354840D01*
X374795Y354804D01*
X374797Y354794D01*
X374795Y354782D01*
X374795Y161315D01*
X374812Y161241D01*
X374825Y161166D01*
X374832Y161156D01*
X374834Y161146D01*
X374858Y161118D01*
X374906Y161046D01*
X377046Y158906D01*
X377111Y158866D01*
X377173Y158822D01*
X377185Y158820D01*
X377193Y158815D01*
X377230Y158811D01*
X377315Y158795D01*
X404632Y158795D01*
X404706Y158812D01*
X404781Y158825D01*
X404791Y158832D01*
X404801Y158834D01*
X404830Y158858D01*
X404901Y158906D01*
X407302Y161307D01*
X411698Y161307D01*
X414807Y158198D01*
X414807Y153802D01*
X411698Y150693D01*
X407302Y150693D01*
X404901Y153094D01*
X404837Y153134D01*
X404775Y153178D01*
X404763Y153180D01*
X404754Y153185D01*
X404717Y153189D01*
X404632Y153205D01*
X376868Y153205D01*
X376794Y153188D01*
X376719Y153175D01*
X376709Y153168D01*
X376699Y153166D01*
X376670Y153142D01*
X376599Y153094D01*
X374198Y150693D01*
X369802Y150693D01*
G37*
%LPD*%
%LPC*%
G36*
X262802Y134693D02*
X262802Y134693D01*
X259693Y137802D01*
X259693Y142198D01*
X262094Y144599D01*
X262134Y144663D01*
X262178Y144725D01*
X262180Y144737D01*
X262185Y144746D01*
X262189Y144783D01*
X262205Y144868D01*
X262205Y149158D01*
X271842Y158795D01*
X285825Y158795D01*
X285875Y158806D01*
X285926Y158808D01*
X285958Y158826D01*
X285994Y158834D01*
X286033Y158867D01*
X286078Y158891D01*
X286099Y158921D01*
X286127Y158944D01*
X286148Y158991D01*
X286178Y159033D01*
X286186Y159075D01*
X286198Y159103D01*
X286197Y159133D01*
X286205Y159175D01*
X286205Y275132D01*
X286188Y275206D01*
X286175Y275281D01*
X286168Y275291D01*
X286166Y275301D01*
X286142Y275330D01*
X286094Y275401D01*
X283693Y277802D01*
X283693Y282198D01*
X286802Y285307D01*
X291198Y285307D01*
X294307Y282198D01*
X294307Y277802D01*
X291906Y275401D01*
X291866Y275337D01*
X291822Y275275D01*
X291820Y275263D01*
X291815Y275254D01*
X291811Y275217D01*
X291795Y275132D01*
X291795Y159175D01*
X291806Y159125D01*
X291808Y159074D01*
X291826Y159042D01*
X291834Y159006D01*
X291867Y158967D01*
X291891Y158922D01*
X291921Y158901D01*
X291944Y158873D01*
X291991Y158852D01*
X292033Y158822D01*
X292075Y158814D01*
X292103Y158802D01*
X292133Y158803D01*
X292175Y158795D01*
X330132Y158795D01*
X330206Y158812D01*
X330281Y158825D01*
X330291Y158832D01*
X330301Y158834D01*
X330330Y158858D01*
X330401Y158906D01*
X332802Y161307D01*
X337198Y161307D01*
X340307Y158198D01*
X340307Y153802D01*
X337198Y150693D01*
X332802Y150693D01*
X330401Y153094D01*
X330337Y153134D01*
X330275Y153178D01*
X330263Y153180D01*
X330254Y153185D01*
X330217Y153189D01*
X330132Y153205D01*
X274315Y153205D01*
X274241Y153188D01*
X274166Y153175D01*
X274156Y153168D01*
X274146Y153166D01*
X274118Y153142D01*
X274046Y153094D01*
X267906Y146954D01*
X267874Y146902D01*
X267873Y146901D01*
X267871Y146896D01*
X267866Y146889D01*
X267822Y146827D01*
X267820Y146815D01*
X267815Y146807D01*
X267811Y146770D01*
X267809Y146760D01*
X267802Y146743D01*
X267802Y146724D01*
X267795Y146685D01*
X267795Y144868D01*
X267812Y144794D01*
X267825Y144719D01*
X267832Y144709D01*
X267834Y144699D01*
X267858Y144670D01*
X267906Y144599D01*
X270307Y142198D01*
X270307Y137802D01*
X267198Y134693D01*
X262802Y134693D01*
G37*
%LPD*%
%LPC*%
G36*
X225761Y95761D02*
X225761Y95761D01*
X225761Y122941D01*
X226569Y122941D01*
X229687Y122589D01*
X232747Y121891D01*
X235709Y120855D01*
X238537Y119493D01*
X241194Y117823D01*
X243648Y115867D01*
X245867Y113648D01*
X247823Y111194D01*
X249493Y108537D01*
X250855Y105709D01*
X251891Y102747D01*
X252589Y99687D01*
X252941Y96569D01*
X252941Y95761D01*
X225761Y95761D01*
G37*
%LPD*%
%LPC*%
G36*
X475761Y95761D02*
X475761Y95761D01*
X475761Y122941D01*
X476569Y122941D01*
X479687Y122589D01*
X482747Y121891D01*
X485709Y120855D01*
X488537Y119493D01*
X491194Y117823D01*
X493648Y115867D01*
X495867Y113648D01*
X497823Y111194D01*
X499493Y108537D01*
X500855Y105709D01*
X501891Y102747D01*
X502589Y99687D01*
X502941Y96569D01*
X502941Y95761D01*
X475761Y95761D01*
G37*
%LPD*%
%LPC*%
G36*
X447059Y95761D02*
X447059Y95761D01*
X447059Y96569D01*
X447411Y99687D01*
X448109Y102747D01*
X449145Y105709D01*
X450507Y108537D01*
X452177Y111194D01*
X454133Y113648D01*
X456352Y115867D01*
X458806Y117823D01*
X461463Y119493D01*
X464291Y120855D01*
X467253Y121891D01*
X470313Y122589D01*
X473431Y122941D01*
X474239Y122941D01*
X474239Y95761D01*
X447059Y95761D01*
G37*
%LPD*%
%LPC*%
G36*
X197059Y95761D02*
X197059Y95761D01*
X197059Y96569D01*
X197411Y99687D01*
X198109Y102747D01*
X199145Y105709D01*
X200507Y108537D01*
X202177Y111194D01*
X204133Y113648D01*
X206352Y115867D01*
X208806Y117823D01*
X211463Y119493D01*
X214291Y120855D01*
X217253Y121891D01*
X220313Y122589D01*
X223431Y122941D01*
X224239Y122941D01*
X224239Y95761D01*
X197059Y95761D01*
G37*
%LPD*%
%LPC*%
G36*
X475761Y67059D02*
X475761Y67059D01*
X475761Y94239D01*
X502941Y94239D01*
X502941Y93431D01*
X502589Y90313D01*
X501891Y87253D01*
X500855Y84291D01*
X499493Y81463D01*
X497823Y78806D01*
X495867Y76352D01*
X493648Y74133D01*
X491194Y72177D01*
X488537Y70507D01*
X485709Y69145D01*
X482747Y68109D01*
X479687Y67411D01*
X476569Y67059D01*
X475761Y67059D01*
G37*
%LPD*%
%LPC*%
G36*
X225761Y67059D02*
X225761Y67059D01*
X225761Y94239D01*
X252941Y94239D01*
X252941Y93431D01*
X252589Y90313D01*
X251891Y87253D01*
X250855Y84291D01*
X249493Y81463D01*
X247823Y78806D01*
X245867Y76352D01*
X243648Y74133D01*
X241194Y72177D01*
X238537Y70507D01*
X235709Y69145D01*
X232747Y68109D01*
X229687Y67411D01*
X226569Y67059D01*
X225761Y67059D01*
G37*
%LPD*%
%LPC*%
G36*
X473431Y67059D02*
X473431Y67059D01*
X470313Y67411D01*
X467253Y68109D01*
X464291Y69145D01*
X461463Y70507D01*
X458806Y72177D01*
X456352Y74133D01*
X454133Y76352D01*
X452177Y78806D01*
X450507Y81463D01*
X449145Y84291D01*
X448109Y87253D01*
X447411Y90313D01*
X447059Y93431D01*
X447059Y94239D01*
X474239Y94239D01*
X474239Y67059D01*
X473431Y67059D01*
G37*
%LPD*%
%LPC*%
G36*
X223431Y67059D02*
X223431Y67059D01*
X220313Y67411D01*
X217253Y68109D01*
X214291Y69145D01*
X211463Y70507D01*
X208806Y72177D01*
X206352Y74133D01*
X204133Y76352D01*
X202177Y78806D01*
X200507Y81463D01*
X199145Y84291D01*
X198109Y87253D01*
X197411Y90313D01*
X197059Y93431D01*
X197059Y94239D01*
X224239Y94239D01*
X224239Y67059D01*
X223431Y67059D01*
G37*
%LPD*%
%LPC*%
G36*
X395370Y98277D02*
X395370Y98277D01*
X394477Y99170D01*
X394477Y119230D01*
X395370Y120123D01*
X415430Y120123D01*
X416323Y119230D01*
X416323Y99170D01*
X415430Y98277D01*
X395370Y98277D01*
G37*
%LPD*%
%LPC*%
G36*
X375527Y98277D02*
X375527Y98277D01*
X371513Y99940D01*
X368440Y103013D01*
X366777Y107027D01*
X366777Y111373D01*
X368440Y115387D01*
X371513Y118460D01*
X375527Y120123D01*
X379873Y120123D01*
X383887Y118460D01*
X386960Y115387D01*
X388623Y111373D01*
X388623Y107027D01*
X386960Y103013D01*
X383887Y99940D01*
X379873Y98277D01*
X375527Y98277D01*
G37*
%LPD*%
%LPC*%
G36*
X292427Y98277D02*
X292427Y98277D01*
X288413Y99940D01*
X285340Y103013D01*
X283677Y107027D01*
X283677Y111373D01*
X285340Y115387D01*
X288413Y118460D01*
X292427Y120123D01*
X296773Y120123D01*
X300787Y118460D01*
X303860Y115387D01*
X305523Y111373D01*
X305523Y107027D01*
X303860Y103013D01*
X300787Y99940D01*
X296773Y98277D01*
X292427Y98277D01*
G37*
%LPD*%
%LPC*%
G36*
X320127Y98277D02*
X320127Y98277D01*
X316113Y99940D01*
X313040Y103013D01*
X311377Y107027D01*
X311377Y111373D01*
X313040Y115387D01*
X316113Y118460D01*
X320127Y120123D01*
X324473Y120123D01*
X328487Y118460D01*
X331560Y115387D01*
X333223Y111373D01*
X333223Y107027D01*
X331560Y103013D01*
X328487Y99940D01*
X324473Y98277D01*
X320127Y98277D01*
G37*
%LPD*%
%LPC*%
G36*
X347827Y98277D02*
X347827Y98277D01*
X343813Y99940D01*
X340740Y103013D01*
X339077Y107027D01*
X339077Y111373D01*
X340740Y115387D01*
X343813Y118460D01*
X347827Y120123D01*
X352173Y120123D01*
X356187Y118460D01*
X359260Y115387D01*
X360923Y111373D01*
X360923Y107027D01*
X359260Y103013D01*
X356187Y99940D01*
X352173Y98277D01*
X347827Y98277D01*
G37*
%LPD*%
%LPC*%
G36*
X389327Y69877D02*
X389327Y69877D01*
X385313Y71540D01*
X382240Y74613D01*
X380577Y78627D01*
X380577Y82973D01*
X382240Y86987D01*
X385313Y90060D01*
X389327Y91723D01*
X393673Y91723D01*
X397687Y90060D01*
X400760Y86987D01*
X402423Y82973D01*
X402423Y78627D01*
X400760Y74613D01*
X397687Y71540D01*
X393673Y69877D01*
X389327Y69877D01*
G37*
%LPD*%
%LPC*%
G36*
X334027Y69877D02*
X334027Y69877D01*
X330013Y71540D01*
X326940Y74613D01*
X325277Y78627D01*
X325277Y82973D01*
X326940Y86987D01*
X330013Y90060D01*
X334027Y91723D01*
X338373Y91723D01*
X342387Y90060D01*
X345460Y86987D01*
X347123Y82973D01*
X347123Y78627D01*
X345460Y74613D01*
X342387Y71540D01*
X338373Y69877D01*
X334027Y69877D01*
G37*
%LPD*%
%LPC*%
G36*
X306327Y69877D02*
X306327Y69877D01*
X302313Y71540D01*
X299240Y74613D01*
X297577Y78627D01*
X297577Y82973D01*
X299240Y86987D01*
X302313Y90060D01*
X306327Y91723D01*
X310673Y91723D01*
X314687Y90060D01*
X317760Y86987D01*
X319423Y82973D01*
X319423Y78627D01*
X317760Y74613D01*
X314687Y71540D01*
X310673Y69877D01*
X306327Y69877D01*
G37*
%LPD*%
%LPC*%
G36*
X298802Y124693D02*
X298802Y124693D01*
X295693Y127802D01*
X295693Y132198D01*
X298802Y135307D01*
X303198Y135307D01*
X306107Y132398D01*
X306171Y132358D01*
X306233Y132314D01*
X306245Y132312D01*
X306254Y132307D01*
X306291Y132303D01*
X306376Y132287D01*
X314624Y132287D01*
X314698Y132304D01*
X314773Y132317D01*
X314783Y132324D01*
X314793Y132326D01*
X314822Y132350D01*
X314893Y132398D01*
X317802Y135307D01*
X322198Y135307D01*
X325307Y132198D01*
X325307Y127802D01*
X322198Y124693D01*
X317802Y124693D01*
X314893Y127602D01*
X314829Y127642D01*
X314767Y127686D01*
X314755Y127688D01*
X314746Y127693D01*
X314709Y127697D01*
X314624Y127713D01*
X306376Y127713D01*
X306302Y127696D01*
X306227Y127683D01*
X306217Y127676D01*
X306207Y127674D01*
X306178Y127650D01*
X306107Y127602D01*
X303198Y124693D01*
X298802Y124693D01*
G37*
%LPD*%
%LPC*%
G36*
X546961Y655219D02*
X546961Y655219D01*
X546961Y672239D01*
X556361Y672239D01*
X556361Y664580D01*
X556111Y663001D01*
X555616Y661480D01*
X554890Y660055D01*
X553950Y658761D01*
X552819Y657630D01*
X551525Y656690D01*
X550100Y655964D01*
X548579Y655469D01*
X547000Y655219D01*
X546961Y655219D01*
G37*
%LPD*%
%LPC*%
G36*
X364561Y81561D02*
X364561Y81561D01*
X364561Y92739D01*
X364740Y92739D01*
X366596Y92445D01*
X368383Y91864D01*
X370057Y91011D01*
X371578Y89906D01*
X372906Y88578D01*
X374011Y87057D01*
X374864Y85383D01*
X375445Y83596D01*
X375739Y81740D01*
X375739Y81561D01*
X364561Y81561D01*
G37*
%LPD*%
%LPC*%
G36*
X351861Y81561D02*
X351861Y81561D01*
X351861Y81740D01*
X352155Y83596D01*
X352736Y85383D01*
X353589Y87057D01*
X354694Y88578D01*
X356022Y89906D01*
X357543Y91011D01*
X359217Y91864D01*
X361004Y92445D01*
X362860Y92739D01*
X363039Y92739D01*
X363039Y81561D01*
X351861Y81561D01*
G37*
%LPD*%
%LPC*%
G36*
X364561Y68861D02*
X364561Y68861D01*
X364561Y80039D01*
X375739Y80039D01*
X375739Y79860D01*
X375445Y78004D01*
X374864Y76217D01*
X374011Y74543D01*
X372906Y73022D01*
X371578Y71694D01*
X370057Y70589D01*
X368383Y69736D01*
X366596Y69155D01*
X364740Y68861D01*
X364561Y68861D01*
G37*
%LPD*%
%LPC*%
G36*
X362860Y68861D02*
X362860Y68861D01*
X361004Y69155D01*
X359217Y69736D01*
X357543Y70589D01*
X356022Y71694D01*
X354694Y73022D01*
X353589Y74543D01*
X352736Y76217D01*
X352155Y78004D01*
X351861Y79860D01*
X351861Y80039D01*
X363039Y80039D01*
X363039Y68861D01*
X362860Y68861D01*
G37*
%LPD*%
%LPC*%
G36*
X224999Y94999D02*
X224999Y94999D01*
X224999Y95001D01*
X225001Y95001D01*
X225001Y94999D01*
X224999Y94999D01*
G37*
%LPD*%
%LPC*%
G36*
X474999Y94999D02*
X474999Y94999D01*
X474999Y95001D01*
X475001Y95001D01*
X475001Y94999D01*
X474999Y94999D01*
G37*
%LPD*%
%LPC*%
G36*
X363799Y80799D02*
X363799Y80799D01*
X363799Y80801D01*
X363801Y80801D01*
X363801Y80799D01*
X363799Y80799D01*
G37*
%LPD*%
D10*
X266800Y665380D02*
X266800Y680620D01*
X292200Y680620D02*
X292200Y665380D01*
X317600Y665380D02*
X317600Y680620D01*
X343000Y680620D02*
X343000Y665380D01*
X368400Y665380D02*
X368400Y680620D01*
X393800Y680620D02*
X393800Y665380D01*
X419200Y665380D02*
X419200Y680620D01*
X444600Y680620D02*
X444600Y665380D01*
X470000Y665380D02*
X470000Y680620D01*
X495400Y680620D02*
X495400Y665380D01*
X520800Y665380D02*
X520800Y680620D01*
X546200Y680620D02*
X546200Y665380D01*
D11*
X405400Y109200D03*
D12*
X377700Y109200D03*
X350000Y109200D03*
X322300Y109200D03*
X294600Y109200D03*
X391500Y80800D03*
X363800Y80800D03*
X336200Y80800D03*
X308500Y80800D03*
D13*
X475000Y95000D03*
X225000Y95000D03*
D14*
X238000Y427500D03*
X237500Y323000D03*
X257000Y372000D03*
X425500Y236000D03*
X426000Y299500D03*
X428000Y431000D03*
X548500Y424000D03*
X548500Y321500D03*
X547500Y541500D03*
X547000Y638000D03*
X510000Y638000D03*
X482000Y638000D03*
X458000Y638000D03*
X434000Y638000D03*
X410000Y638000D03*
X384000Y638000D03*
X356000Y638000D03*
X332000Y638000D03*
X304000Y638000D03*
X285810Y638000D03*
X226000Y637000D03*
X426000Y190500D03*
X458000Y151000D03*
X238000Y151000D03*
X269500Y191000D03*
X271000Y237000D03*
X171000Y95000D03*
X299000Y352000D03*
X340500Y392000D03*
X319500Y370500D03*
X340500Y370500D03*
X319500Y392000D03*
X344000Y191000D03*
X343000Y237000D03*
X344000Y299500D03*
X204000Y323000D03*
X203500Y427500D03*
X215000Y556500D03*
X293000Y536500D03*
X528500Y638000D03*
D15*
X547000Y638000D01*
D14*
X355500Y536500D03*
X406000Y536500D03*
X541000Y95000D03*
X267000Y557000D03*
D15*
X471000Y557000D01*
X477092Y550908D01*
X476442Y484558D01*
X476500Y484500D01*
D14*
X476500Y484500D03*
D16*
X289000Y280000D02*
X289000Y156000D01*
D14*
X289000Y280000D03*
X335000Y156000D03*
X265000Y140000D03*
D16*
X265000Y148000D02*
X273000Y156000D01*
X265000Y148000D02*
X265000Y140000D01*
X289000Y156000D02*
X335000Y156000D01*
X289000Y156000D02*
X273000Y156000D01*
D14*
X372000Y391500D03*
X372000Y156000D03*
X409500Y156000D03*
D16*
X376000Y156000D01*
X372000Y156000D01*
X372000Y163000D02*
X372000Y391500D01*
X372000Y163000D02*
X372000Y160000D01*
X372000Y156000D01*
X372000Y160000D02*
X376000Y156000D01*
D14*
X379000Y359000D03*
X398560Y359050D03*
D15*
X398510Y359000D01*
X379000Y359000D01*
D14*
X320000Y130000D03*
D17*
X301000Y130000D01*
D14*
X301000Y130000D03*
M02*
