G04 EAGLE Gerber RS-274X export*
G75*
%MOMM*%
%FSLAX34Y34*%
%LPD*%
%INTop Copper*%
%IPPOS*%
%AMOC8*
5,1,8,0,0,1.08239X$1,22.5*%
G01*
%ADD10R,1.000000X1.100000*%
%ADD11R,1.100000X1.000000*%
%ADD12R,1.000000X0.500000*%
%ADD13C,1.524000*%
%ADD14C,0.762000*%
%ADD15R,2.400000X1.900000*%
%ADD16R,1.879600X1.879600*%
%ADD17C,1.879600*%
%ADD18C,5.080000*%
%ADD19R,0.800000X0.800000*%
%ADD20C,0.254000*%
%ADD21R,0.635000X1.270000*%
%ADD22R,2.700000X1.300000*%
%ADD23R,1.300000X2.700000*%
%ADD24R,0.300000X0.900000*%
%ADD25R,0.900000X0.300000*%
%ADD26R,3.606800X3.606800*%
%ADD27C,0.756400*%
%ADD28C,0.508000*%
%ADD29C,0.152400*%

G36*
X654807Y10169D02*
X654807Y10169D01*
X654845Y10168D01*
X654891Y10189D01*
X654939Y10200D01*
X654968Y10224D01*
X655003Y10240D01*
X655034Y10279D01*
X655073Y10310D01*
X655088Y10345D01*
X655112Y10374D01*
X655123Y10423D01*
X655144Y10469D01*
X655142Y10506D01*
X655151Y10543D01*
X655139Y10592D01*
X655137Y10642D01*
X655119Y10675D01*
X655110Y10712D01*
X655078Y10750D01*
X655054Y10794D01*
X655024Y10816D01*
X654999Y10845D01*
X654944Y10872D01*
X654913Y10894D01*
X654890Y10898D01*
X654869Y10908D01*
X651823Y11724D01*
X645516Y15366D01*
X640366Y20516D01*
X636724Y26823D01*
X636373Y28133D01*
X635864Y30034D01*
X634839Y33858D01*
X634839Y41142D01*
X636724Y48177D01*
X640366Y54484D01*
X645516Y59634D01*
X651823Y63276D01*
X658858Y65161D01*
X666142Y65161D01*
X673177Y63276D01*
X679484Y59634D01*
X684634Y54484D01*
X688276Y48177D01*
X689092Y45131D01*
X689110Y45098D01*
X689118Y45061D01*
X689150Y45022D01*
X689174Y44978D01*
X689204Y44956D01*
X689228Y44927D01*
X689274Y44907D01*
X689315Y44878D01*
X689352Y44872D01*
X689387Y44856D01*
X689436Y44858D01*
X689486Y44850D01*
X689522Y44861D01*
X689560Y44863D01*
X689604Y44887D01*
X689651Y44901D01*
X689679Y44928D01*
X689712Y44946D01*
X689741Y44986D01*
X689777Y45021D01*
X689790Y45056D01*
X689812Y45087D01*
X689823Y45148D01*
X689836Y45183D01*
X689835Y45207D01*
X689839Y45230D01*
X689839Y654770D01*
X689831Y654807D01*
X689832Y654845D01*
X689811Y654891D01*
X689800Y654939D01*
X689776Y654968D01*
X689760Y655003D01*
X689721Y655034D01*
X689690Y655073D01*
X689655Y655088D01*
X689626Y655112D01*
X689577Y655123D01*
X689531Y655144D01*
X689494Y655142D01*
X689457Y655151D01*
X689408Y655139D01*
X689358Y655137D01*
X689325Y655119D01*
X689288Y655110D01*
X689250Y655078D01*
X689206Y655054D01*
X689184Y655024D01*
X689155Y654999D01*
X689128Y654944D01*
X689106Y654913D01*
X689102Y654890D01*
X689092Y654869D01*
X688276Y651823D01*
X684634Y645516D01*
X679484Y640366D01*
X673177Y636724D01*
X666142Y634839D01*
X658858Y634839D01*
X651823Y636724D01*
X645516Y640366D01*
X640366Y645516D01*
X636724Y651823D01*
X635625Y655926D01*
X634839Y658858D01*
X634839Y666142D01*
X636724Y673177D01*
X640366Y679484D01*
X645516Y684634D01*
X651823Y688276D01*
X654869Y689092D01*
X654902Y689110D01*
X654939Y689118D01*
X654978Y689150D01*
X655022Y689174D01*
X655044Y689204D01*
X655073Y689228D01*
X655093Y689274D01*
X655122Y689315D01*
X655128Y689352D01*
X655144Y689387D01*
X655142Y689436D01*
X655150Y689486D01*
X655139Y689522D01*
X655137Y689560D01*
X655113Y689604D01*
X655099Y689651D01*
X655073Y689679D01*
X655054Y689712D01*
X655014Y689741D01*
X654979Y689777D01*
X654944Y689790D01*
X654913Y689812D01*
X654852Y689823D01*
X654817Y689836D01*
X654793Y689835D01*
X654770Y689839D01*
X551967Y689839D01*
X551914Y689827D01*
X551858Y689823D01*
X551830Y689807D01*
X551799Y689800D01*
X551756Y689765D01*
X551708Y689737D01*
X551690Y689710D01*
X551665Y689690D01*
X551642Y689639D01*
X551612Y689593D01*
X551607Y689561D01*
X551594Y689531D01*
X551596Y689476D01*
X551589Y689421D01*
X551600Y689391D01*
X551601Y689358D01*
X551627Y689310D01*
X551645Y689257D01*
X551670Y689230D01*
X551684Y689206D01*
X551711Y689187D01*
X551744Y689151D01*
X552819Y688370D01*
X553950Y687239D01*
X554890Y685945D01*
X555616Y684520D01*
X556111Y682999D01*
X556361Y681420D01*
X556361Y673761D01*
X546581Y673761D01*
X546531Y673750D01*
X546480Y673748D01*
X546448Y673730D01*
X546412Y673722D01*
X546373Y673689D01*
X546328Y673665D01*
X546307Y673635D01*
X546279Y673612D01*
X546258Y673565D01*
X546229Y673523D01*
X546220Y673481D01*
X546208Y673453D01*
X546209Y673423D01*
X546201Y673381D01*
X546201Y672999D01*
X545819Y672999D01*
X545769Y672987D01*
X545718Y672986D01*
X545686Y672968D01*
X545650Y672960D01*
X545611Y672927D01*
X545566Y672903D01*
X545545Y672873D01*
X545517Y672849D01*
X545496Y672803D01*
X545466Y672761D01*
X545458Y672719D01*
X545446Y672691D01*
X545447Y672661D01*
X545439Y672619D01*
X545439Y655219D01*
X545400Y655219D01*
X543821Y655469D01*
X542300Y655964D01*
X540875Y656690D01*
X539581Y657630D01*
X538450Y658761D01*
X537510Y660055D01*
X536784Y661480D01*
X536362Y662779D01*
X536347Y662803D01*
X536341Y662830D01*
X536303Y662876D01*
X536272Y662927D01*
X536248Y662942D01*
X536231Y662963D01*
X536176Y662988D01*
X536126Y663020D01*
X536098Y663023D01*
X536072Y663034D01*
X536013Y663032D01*
X535954Y663038D01*
X535927Y663029D01*
X535899Y663028D01*
X535847Y662999D01*
X535791Y662979D01*
X535772Y662958D01*
X535747Y662945D01*
X535713Y662896D01*
X535672Y662853D01*
X535663Y662826D01*
X535647Y662803D01*
X535632Y662724D01*
X535621Y662687D01*
X535622Y662674D01*
X535620Y662661D01*
X535620Y552658D01*
X384343Y401380D01*
X366890Y401380D01*
X366877Y401377D01*
X366863Y401379D01*
X366793Y401358D01*
X366721Y401341D01*
X366711Y401332D01*
X366698Y401328D01*
X366645Y401277D01*
X366588Y401231D01*
X366582Y401218D01*
X366572Y401209D01*
X366547Y401140D01*
X366517Y401072D01*
X366517Y401059D01*
X366513Y401046D01*
X366523Y400902D01*
X366541Y400835D01*
X366541Y399749D01*
X359869Y399749D01*
X359820Y399738D01*
X359769Y399736D01*
X359736Y399718D01*
X359700Y399710D01*
X359661Y399677D01*
X359616Y399653D01*
X359595Y399623D01*
X359567Y399600D01*
X359546Y399553D01*
X359517Y399511D01*
X359508Y399469D01*
X359498Y399447D01*
X359497Y399470D01*
X359480Y399502D01*
X359472Y399538D01*
X359439Y399577D01*
X359415Y399622D01*
X359385Y399643D01*
X359361Y399671D01*
X359315Y399692D01*
X359273Y399722D01*
X359231Y399730D01*
X359203Y399742D01*
X359173Y399741D01*
X359131Y399749D01*
X352459Y399749D01*
X352459Y400835D01*
X352477Y400902D01*
X352478Y400915D01*
X352483Y400928D01*
X352480Y401001D01*
X352483Y401075D01*
X352477Y401087D01*
X352477Y401101D01*
X352442Y401165D01*
X352411Y401232D01*
X352400Y401241D01*
X352394Y401253D01*
X352334Y401295D01*
X352277Y401342D01*
X352263Y401345D01*
X352252Y401353D01*
X352110Y401380D01*
X350560Y401380D01*
X350499Y401366D01*
X350437Y401360D01*
X350416Y401346D01*
X350392Y401341D01*
X350343Y401301D01*
X350290Y401267D01*
X350277Y401246D01*
X350258Y401231D01*
X350232Y401173D01*
X350199Y401119D01*
X350197Y401095D01*
X350187Y401072D01*
X350190Y401010D01*
X350184Y400947D01*
X350193Y400921D01*
X350194Y400899D01*
X350212Y400866D01*
X350231Y400810D01*
X350402Y400515D01*
X350575Y399869D01*
X350575Y382261D01*
X330381Y382261D01*
X330331Y382250D01*
X330280Y382248D01*
X330248Y382230D01*
X330212Y382222D01*
X330173Y382189D01*
X330128Y382165D01*
X330107Y382135D01*
X330079Y382111D01*
X330058Y382065D01*
X330028Y382023D01*
X330020Y381981D01*
X330008Y381953D01*
X330009Y381923D01*
X330001Y381881D01*
X330001Y381499D01*
X329619Y381499D01*
X329569Y381488D01*
X329518Y381486D01*
X329486Y381468D01*
X329450Y381460D01*
X329411Y381427D01*
X329366Y381403D01*
X329345Y381373D01*
X329317Y381349D01*
X329296Y381303D01*
X329266Y381261D01*
X329258Y381219D01*
X329246Y381191D01*
X329247Y381161D01*
X329239Y381119D01*
X329239Y360925D01*
X311631Y360925D01*
X310985Y361098D01*
X310406Y361433D01*
X309933Y361906D01*
X309598Y362485D01*
X309513Y362803D01*
X309484Y362859D01*
X309461Y362917D01*
X309443Y362934D01*
X309432Y362956D01*
X309380Y362992D01*
X309334Y363035D01*
X309311Y363042D01*
X309290Y363056D01*
X309228Y363066D01*
X309168Y363084D01*
X309144Y363080D01*
X309119Y363084D01*
X309059Y363065D01*
X308997Y363055D01*
X308974Y363039D01*
X308954Y363033D01*
X308927Y363007D01*
X308877Y362973D01*
X308192Y362289D01*
X308188Y362281D01*
X308179Y362274D01*
X307528Y361551D01*
X307514Y361526D01*
X307493Y361505D01*
X307473Y361450D01*
X307444Y361399D01*
X307443Y361370D01*
X307433Y361343D01*
X307439Y361265D01*
X307437Y361226D01*
X307442Y361214D01*
X307443Y361198D01*
X307541Y360835D01*
X307541Y359749D01*
X300869Y359749D01*
X300820Y359738D01*
X300769Y359736D01*
X300736Y359718D01*
X300700Y359710D01*
X300661Y359677D01*
X300616Y359653D01*
X300595Y359623D01*
X300567Y359600D01*
X300546Y359553D01*
X300517Y359511D01*
X300508Y359469D01*
X300496Y359441D01*
X300497Y359411D01*
X300489Y359369D01*
X300489Y358631D01*
X300501Y358581D01*
X300503Y358530D01*
X300520Y358498D01*
X300528Y358462D01*
X300561Y358423D01*
X300585Y358378D01*
X300615Y358357D01*
X300639Y358329D01*
X300685Y358308D01*
X300727Y358278D01*
X300769Y358270D01*
X300797Y358258D01*
X300827Y358259D01*
X300869Y358251D01*
X307577Y358251D01*
X307580Y358236D01*
X307613Y358197D01*
X307637Y358152D01*
X307667Y358131D01*
X307690Y358103D01*
X307737Y358082D01*
X307779Y358052D01*
X307821Y358044D01*
X307848Y358032D01*
X307879Y358033D01*
X307921Y358025D01*
X309632Y358025D01*
X309731Y357925D01*
X309774Y357898D01*
X309812Y357864D01*
X309847Y357853D01*
X309878Y357834D01*
X309929Y357829D01*
X309978Y357814D01*
X310014Y357821D01*
X310051Y357817D01*
X310098Y357835D01*
X310149Y357844D01*
X310184Y357868D01*
X310213Y357879D01*
X310233Y357901D01*
X310269Y357925D01*
X310368Y358025D01*
X313774Y358025D01*
X313848Y358042D01*
X313923Y358055D01*
X313933Y358062D01*
X313943Y358064D01*
X313972Y358088D01*
X314043Y358136D01*
X314440Y358533D01*
X315019Y358868D01*
X315665Y359041D01*
X316751Y359041D01*
X316751Y352369D01*
X316762Y352320D01*
X316764Y352269D01*
X316782Y352236D01*
X316790Y352200D01*
X316823Y352161D01*
X316847Y352116D01*
X316877Y352095D01*
X316900Y352067D01*
X316947Y352046D01*
X316989Y352017D01*
X317031Y352008D01*
X317058Y351996D01*
X317089Y351997D01*
X317131Y351989D01*
X317869Y351989D01*
X317919Y352001D01*
X317970Y352003D01*
X318002Y352020D01*
X318038Y352028D01*
X318077Y352061D01*
X318122Y352085D01*
X318143Y352115D01*
X318171Y352139D01*
X318192Y352185D01*
X318222Y352227D01*
X318230Y352269D01*
X318242Y352297D01*
X318242Y352312D01*
X318242Y352313D01*
X318242Y352330D01*
X318249Y352369D01*
X318249Y359041D01*
X319335Y359041D01*
X319981Y358868D01*
X320560Y358533D01*
X320957Y358136D01*
X321022Y358096D01*
X321084Y358052D01*
X321096Y358050D01*
X321104Y358045D01*
X321141Y358041D01*
X321226Y358025D01*
X324632Y358025D01*
X324731Y357925D01*
X324774Y357898D01*
X324812Y357864D01*
X324847Y357853D01*
X324878Y357834D01*
X324929Y357829D01*
X324978Y357814D01*
X325014Y357821D01*
X325051Y357817D01*
X325098Y357835D01*
X325149Y357844D01*
X325184Y357868D01*
X325213Y357879D01*
X325233Y357901D01*
X325269Y357925D01*
X325368Y358025D01*
X329632Y358025D01*
X329731Y357925D01*
X329774Y357898D01*
X329812Y357864D01*
X329847Y357853D01*
X329878Y357834D01*
X329929Y357829D01*
X329978Y357814D01*
X330014Y357821D01*
X330051Y357817D01*
X330098Y357835D01*
X330149Y357844D01*
X330184Y357868D01*
X330213Y357879D01*
X330233Y357901D01*
X330269Y357925D01*
X330368Y358025D01*
X334632Y358025D01*
X334731Y357925D01*
X334774Y357898D01*
X334812Y357864D01*
X334847Y357853D01*
X334878Y357834D01*
X334929Y357829D01*
X334978Y357814D01*
X335014Y357821D01*
X335051Y357817D01*
X335098Y357835D01*
X335149Y357844D01*
X335184Y357868D01*
X335213Y357879D01*
X335233Y357901D01*
X335269Y357925D01*
X335368Y358025D01*
X338774Y358025D01*
X338848Y358042D01*
X338923Y358055D01*
X338933Y358062D01*
X338943Y358064D01*
X338972Y358088D01*
X339043Y358136D01*
X339440Y358533D01*
X340019Y358868D01*
X340665Y359041D01*
X341751Y359041D01*
X341751Y352369D01*
X341762Y352320D01*
X341764Y352269D01*
X341782Y352236D01*
X341790Y352200D01*
X341823Y352161D01*
X341847Y352116D01*
X341877Y352095D01*
X341900Y352067D01*
X341947Y352046D01*
X341989Y352017D01*
X342031Y352008D01*
X342058Y351996D01*
X342089Y351997D01*
X342131Y351989D01*
X342869Y351989D01*
X342919Y352001D01*
X342970Y352003D01*
X343002Y352020D01*
X343038Y352028D01*
X343077Y352061D01*
X343122Y352085D01*
X343143Y352115D01*
X343171Y352139D01*
X343192Y352185D01*
X343222Y352227D01*
X343230Y352269D01*
X343242Y352297D01*
X343242Y352312D01*
X343242Y352313D01*
X343242Y352330D01*
X343249Y352369D01*
X343249Y359041D01*
X344335Y359041D01*
X344981Y358868D01*
X345560Y358533D01*
X345957Y358136D01*
X346022Y358096D01*
X346084Y358052D01*
X346096Y358050D01*
X346104Y358045D01*
X346141Y358041D01*
X346226Y358025D01*
X349632Y358025D01*
X349731Y357925D01*
X349774Y357898D01*
X349812Y357864D01*
X349847Y357853D01*
X349878Y357834D01*
X349929Y357829D01*
X349978Y357814D01*
X350014Y357821D01*
X350051Y357817D01*
X350098Y357835D01*
X350149Y357844D01*
X350184Y357868D01*
X350213Y357879D01*
X350233Y357901D01*
X350269Y357925D01*
X350368Y358025D01*
X353095Y358025D01*
X353145Y358036D01*
X353196Y358038D01*
X353228Y358056D01*
X353264Y358064D01*
X353303Y358097D01*
X353348Y358121D01*
X353369Y358151D01*
X353397Y358174D01*
X353418Y358221D01*
X353448Y358263D01*
X353456Y358305D01*
X353468Y358333D01*
X353467Y358363D01*
X353475Y358405D01*
X353475Y360274D01*
X353458Y360348D01*
X353445Y360423D01*
X353438Y360433D01*
X353436Y360443D01*
X353412Y360472D01*
X353364Y360543D01*
X352967Y360940D01*
X352632Y361519D01*
X352459Y362165D01*
X352459Y363251D01*
X359131Y363251D01*
X359180Y363262D01*
X359231Y363264D01*
X359264Y363282D01*
X359300Y363290D01*
X359339Y363323D01*
X359384Y363347D01*
X359405Y363377D01*
X359433Y363400D01*
X359454Y363447D01*
X359483Y363489D01*
X359492Y363531D01*
X359502Y363553D01*
X359503Y363530D01*
X359520Y363498D01*
X359528Y363462D01*
X359561Y363423D01*
X359585Y363378D01*
X359615Y363357D01*
X359639Y363329D01*
X359685Y363308D01*
X359727Y363278D01*
X359769Y363270D01*
X359797Y363258D01*
X359827Y363259D01*
X359869Y363251D01*
X366541Y363251D01*
X366541Y362175D01*
X366552Y362125D01*
X366554Y362074D01*
X366572Y362042D01*
X366580Y362006D01*
X366613Y361967D01*
X366637Y361922D01*
X366667Y361901D01*
X366690Y361873D01*
X366737Y361852D01*
X366779Y361822D01*
X366821Y361814D01*
X366849Y361802D01*
X366879Y361803D01*
X366921Y361795D01*
X374132Y361795D01*
X374206Y361812D01*
X374281Y361825D01*
X374291Y361832D01*
X374301Y361834D01*
X374330Y361858D01*
X374401Y361906D01*
X376802Y364307D01*
X381198Y364307D01*
X383553Y361952D01*
X383575Y361939D01*
X383591Y361919D01*
X383647Y361893D01*
X383700Y361861D01*
X383725Y361858D01*
X383749Y361848D01*
X383811Y361850D01*
X383872Y361844D01*
X383896Y361853D01*
X383922Y361854D01*
X383977Y361884D01*
X384034Y361906D01*
X384052Y361924D01*
X384074Y361937D01*
X384110Y361987D01*
X384152Y362033D01*
X384159Y362057D01*
X384174Y362078D01*
X384191Y362163D01*
X384201Y362199D01*
X384200Y362209D01*
X384202Y362220D01*
X384204Y363686D01*
X384186Y363760D01*
X384173Y363835D01*
X384167Y363845D01*
X384164Y363855D01*
X384141Y363883D01*
X384092Y363955D01*
X376954Y371094D01*
X376889Y371134D01*
X376827Y371178D01*
X376815Y371180D01*
X376807Y371185D01*
X376770Y371189D01*
X376685Y371205D01*
X366921Y371205D01*
X366871Y371194D01*
X366820Y371192D01*
X366788Y371174D01*
X366752Y371166D01*
X366713Y371133D01*
X366668Y371109D01*
X366647Y371079D01*
X366619Y371056D01*
X366598Y371009D01*
X366568Y370967D01*
X366560Y370925D01*
X366548Y370897D01*
X366549Y370867D01*
X366541Y370825D01*
X366541Y369749D01*
X359869Y369749D01*
X359820Y369738D01*
X359769Y369736D01*
X359736Y369718D01*
X359700Y369710D01*
X359661Y369677D01*
X359616Y369653D01*
X359595Y369623D01*
X359567Y369600D01*
X359546Y369553D01*
X359517Y369511D01*
X359508Y369469D01*
X359498Y369447D01*
X359497Y369470D01*
X359480Y369502D01*
X359472Y369538D01*
X359439Y369577D01*
X359415Y369622D01*
X359385Y369643D01*
X359361Y369671D01*
X359315Y369692D01*
X359273Y369722D01*
X359231Y369730D01*
X359203Y369742D01*
X359173Y369741D01*
X359131Y369749D01*
X352459Y369749D01*
X352459Y370835D01*
X352632Y371481D01*
X352967Y372060D01*
X353364Y372457D01*
X353404Y372522D01*
X353448Y372584D01*
X353450Y372596D01*
X353455Y372604D01*
X353459Y372641D01*
X353475Y372726D01*
X353475Y376132D01*
X353575Y376231D01*
X353602Y376274D01*
X353636Y376312D01*
X353647Y376347D01*
X353666Y376378D01*
X353671Y376429D01*
X353686Y376478D01*
X353679Y376514D01*
X353683Y376551D01*
X353665Y376598D01*
X353656Y376649D01*
X353632Y376684D01*
X353621Y376713D01*
X353599Y376733D01*
X353575Y376769D01*
X353475Y376868D01*
X353475Y380274D01*
X353458Y380348D01*
X353445Y380423D01*
X353438Y380433D01*
X353436Y380443D01*
X353412Y380472D01*
X353364Y380543D01*
X352967Y380940D01*
X352632Y381519D01*
X352459Y382165D01*
X352459Y383251D01*
X359131Y383251D01*
X359180Y383262D01*
X359231Y383264D01*
X359264Y383282D01*
X359300Y383290D01*
X359339Y383323D01*
X359384Y383347D01*
X359405Y383377D01*
X359433Y383400D01*
X359454Y383447D01*
X359483Y383489D01*
X359492Y383531D01*
X359502Y383553D01*
X359503Y383530D01*
X359520Y383498D01*
X359528Y383462D01*
X359561Y383423D01*
X359585Y383378D01*
X359615Y383357D01*
X359639Y383329D01*
X359685Y383308D01*
X359727Y383278D01*
X359769Y383270D01*
X359797Y383258D01*
X359827Y383259D01*
X359869Y383251D01*
X366541Y383251D01*
X366541Y382175D01*
X366552Y382125D01*
X366554Y382074D01*
X366572Y382042D01*
X366580Y382006D01*
X366613Y381967D01*
X366637Y381922D01*
X366667Y381901D01*
X366690Y381873D01*
X366737Y381852D01*
X366779Y381822D01*
X366821Y381814D01*
X366849Y381802D01*
X366879Y381803D01*
X366921Y381795D01*
X383158Y381795D01*
X384906Y380046D01*
X393048Y371905D01*
X393054Y371901D01*
X393980Y370973D01*
X393980Y370972D01*
X394796Y370156D01*
X394795Y368986D01*
X394795Y367692D01*
X394793Y367684D01*
X394788Y363702D01*
X394794Y363676D01*
X394792Y363651D01*
X394814Y363593D01*
X394828Y363533D01*
X394844Y363513D01*
X394854Y363489D01*
X394899Y363447D01*
X394938Y363399D01*
X394962Y363389D01*
X394981Y363371D01*
X395040Y363353D01*
X395096Y363328D01*
X395122Y363329D01*
X395147Y363322D01*
X395207Y363332D01*
X395269Y363335D01*
X395292Y363347D01*
X395318Y363351D01*
X395388Y363399D01*
X395421Y363417D01*
X395427Y363425D01*
X395438Y363432D01*
X396362Y364357D01*
X400758Y364357D01*
X401919Y363196D01*
X401983Y363156D01*
X402045Y363112D01*
X402057Y363110D01*
X402066Y363105D01*
X402103Y363101D01*
X402188Y363085D01*
X403805Y363085D01*
X403855Y363096D01*
X403906Y363098D01*
X403938Y363116D01*
X403974Y363124D01*
X404013Y363157D01*
X404058Y363181D01*
X404079Y363211D01*
X404107Y363234D01*
X404128Y363281D01*
X404158Y363323D01*
X404166Y363365D01*
X404178Y363393D01*
X404177Y363423D01*
X404185Y363465D01*
X404185Y365152D01*
X405078Y366045D01*
X416342Y366045D01*
X417235Y365152D01*
X417235Y363465D01*
X417246Y363415D01*
X417248Y363364D01*
X417266Y363332D01*
X417274Y363296D01*
X417307Y363257D01*
X417331Y363212D01*
X417361Y363191D01*
X417384Y363163D01*
X417431Y363142D01*
X417473Y363112D01*
X417515Y363104D01*
X417543Y363092D01*
X417573Y363093D01*
X417615Y363085D01*
X420125Y363085D01*
X420175Y363096D01*
X420226Y363098D01*
X420258Y363116D01*
X420294Y363124D01*
X420333Y363157D01*
X420378Y363181D01*
X420399Y363211D01*
X420427Y363234D01*
X420448Y363281D01*
X420478Y363323D01*
X420486Y363365D01*
X420498Y363393D01*
X420497Y363423D01*
X420505Y363465D01*
X420505Y365152D01*
X421398Y366045D01*
X432662Y366045D01*
X433555Y365152D01*
X433555Y363465D01*
X433566Y363415D01*
X433568Y363364D01*
X433586Y363332D01*
X433594Y363296D01*
X433627Y363257D01*
X433651Y363212D01*
X433681Y363191D01*
X433704Y363163D01*
X433751Y363142D01*
X433793Y363112D01*
X433835Y363104D01*
X433863Y363092D01*
X433893Y363093D01*
X433935Y363085D01*
X436595Y363085D01*
X436645Y363096D01*
X436696Y363098D01*
X436728Y363116D01*
X436764Y363124D01*
X436803Y363157D01*
X436848Y363181D01*
X436869Y363211D01*
X436897Y363234D01*
X436918Y363281D01*
X436948Y363323D01*
X436956Y363365D01*
X436968Y363393D01*
X436967Y363423D01*
X436975Y363465D01*
X436975Y366132D01*
X437868Y367025D01*
X466132Y367025D01*
X467025Y366132D01*
X467025Y351868D01*
X466132Y350975D01*
X437868Y350975D01*
X436975Y351868D01*
X436975Y354575D01*
X436964Y354625D01*
X436962Y354676D01*
X436944Y354708D01*
X436936Y354744D01*
X436903Y354783D01*
X436879Y354828D01*
X436849Y354849D01*
X436826Y354877D01*
X436779Y354898D01*
X436737Y354928D01*
X436695Y354936D01*
X436667Y354948D01*
X436637Y354947D01*
X436595Y354955D01*
X433935Y354955D01*
X433885Y354944D01*
X433834Y354942D01*
X433802Y354924D01*
X433766Y354916D01*
X433727Y354883D01*
X433682Y354859D01*
X433661Y354829D01*
X433633Y354806D01*
X433612Y354759D01*
X433582Y354717D01*
X433574Y354675D01*
X433562Y354647D01*
X433563Y354617D01*
X433555Y354575D01*
X433555Y352888D01*
X432662Y351995D01*
X421398Y351995D01*
X420505Y352888D01*
X420505Y354575D01*
X420494Y354625D01*
X420492Y354676D01*
X420474Y354708D01*
X420466Y354744D01*
X420433Y354783D01*
X420409Y354828D01*
X420379Y354849D01*
X420356Y354877D01*
X420309Y354898D01*
X420267Y354928D01*
X420225Y354936D01*
X420197Y354948D01*
X420167Y354947D01*
X420125Y354955D01*
X417615Y354955D01*
X417565Y354944D01*
X417514Y354942D01*
X417482Y354924D01*
X417446Y354916D01*
X417407Y354883D01*
X417362Y354859D01*
X417341Y354829D01*
X417313Y354806D01*
X417292Y354759D01*
X417262Y354717D01*
X417254Y354675D01*
X417242Y354647D01*
X417243Y354617D01*
X417235Y354575D01*
X417235Y352888D01*
X416342Y351995D01*
X405078Y351995D01*
X404185Y352888D01*
X404185Y354575D01*
X404174Y354625D01*
X404172Y354676D01*
X404154Y354708D01*
X404146Y354744D01*
X404113Y354783D01*
X404089Y354828D01*
X404059Y354849D01*
X404036Y354877D01*
X403989Y354898D01*
X403947Y354928D01*
X403905Y354936D01*
X403877Y354948D01*
X403847Y354947D01*
X403805Y354955D01*
X402128Y354955D01*
X402054Y354938D01*
X401979Y354925D01*
X401969Y354918D01*
X401959Y354916D01*
X401930Y354892D01*
X401859Y354844D01*
X400758Y353743D01*
X396362Y353743D01*
X395427Y354679D01*
X395405Y354692D01*
X395389Y354712D01*
X395332Y354737D01*
X395279Y354770D01*
X395254Y354772D01*
X395231Y354783D01*
X395169Y354781D01*
X395107Y354786D01*
X395083Y354777D01*
X395058Y354776D01*
X395003Y354747D01*
X394945Y354725D01*
X394928Y354706D01*
X394905Y354694D01*
X394869Y354643D01*
X394827Y354598D01*
X394820Y354573D01*
X394805Y354552D01*
X394789Y354467D01*
X394778Y354432D01*
X394780Y354422D01*
X394778Y354410D01*
X394530Y144605D01*
X394536Y144579D01*
X394533Y144553D01*
X394555Y144496D01*
X394569Y144436D01*
X394586Y144416D01*
X394595Y144391D01*
X394640Y144350D01*
X394679Y144302D01*
X394703Y144291D01*
X394722Y144274D01*
X394781Y144256D01*
X394837Y144231D01*
X394863Y144232D01*
X394888Y144225D01*
X394949Y144235D01*
X395010Y144237D01*
X395033Y144250D01*
X395059Y144254D01*
X395130Y144302D01*
X395163Y144320D01*
X395169Y144328D01*
X395179Y144335D01*
X395368Y144525D01*
X406632Y144525D01*
X407525Y143632D01*
X407525Y137368D01*
X406632Y136475D01*
X395368Y136475D01*
X395194Y136650D01*
X395172Y136663D01*
X395156Y136683D01*
X395099Y136709D01*
X395047Y136741D01*
X395021Y136744D01*
X394997Y136754D01*
X394936Y136752D01*
X394874Y136758D01*
X394850Y136749D01*
X394824Y136748D01*
X394770Y136718D01*
X394712Y136696D01*
X394695Y136677D01*
X394672Y136665D01*
X394637Y136614D01*
X394595Y136569D01*
X394587Y136544D01*
X394572Y136523D01*
X394556Y136439D01*
X394545Y136403D01*
X394547Y136393D01*
X394545Y136381D01*
X394545Y122092D01*
X387397Y114945D01*
X387364Y114891D01*
X387324Y114841D01*
X387318Y114818D01*
X387306Y114798D01*
X387300Y114734D01*
X387286Y114672D01*
X387291Y114646D01*
X387289Y114625D01*
X387303Y114590D01*
X387315Y114530D01*
X388623Y111373D01*
X388623Y107027D01*
X386960Y103013D01*
X383887Y99940D01*
X379873Y98277D01*
X375527Y98277D01*
X371513Y99940D01*
X368440Y103013D01*
X366777Y107027D01*
X366777Y111373D01*
X368440Y115387D01*
X371513Y118460D01*
X373700Y119366D01*
X373710Y119373D01*
X373723Y119376D01*
X373780Y119423D01*
X373841Y119467D01*
X373847Y119478D01*
X373857Y119486D01*
X373887Y119554D01*
X373922Y119620D01*
X373922Y119633D01*
X373928Y119645D01*
X373925Y119719D01*
X373927Y119793D01*
X373921Y119805D01*
X373921Y119818D01*
X373886Y119883D01*
X373855Y119950D01*
X373844Y119959D01*
X373838Y119970D01*
X373778Y120012D01*
X373720Y120059D01*
X373707Y120062D01*
X373697Y120070D01*
X373554Y120097D01*
X365007Y120097D01*
X364933Y120080D01*
X364858Y120067D01*
X364848Y120060D01*
X364838Y120058D01*
X364810Y120034D01*
X364738Y119986D01*
X359697Y114945D01*
X359664Y114891D01*
X359624Y114841D01*
X359618Y114818D01*
X359606Y114798D01*
X359600Y114734D01*
X359586Y114672D01*
X359591Y114646D01*
X359589Y114625D01*
X359603Y114590D01*
X359615Y114530D01*
X360923Y111373D01*
X360923Y107027D01*
X359260Y103013D01*
X356187Y99940D01*
X352173Y98277D01*
X347827Y98277D01*
X343813Y99940D01*
X340740Y103013D01*
X339077Y107027D01*
X339077Y111373D01*
X340740Y115387D01*
X343813Y118460D01*
X347827Y120123D01*
X352173Y120123D01*
X355330Y118815D01*
X355393Y118804D01*
X355454Y118786D01*
X355478Y118791D01*
X355501Y118787D01*
X355562Y118805D01*
X355625Y118816D01*
X355647Y118831D01*
X355667Y118837D01*
X355694Y118863D01*
X355745Y118897D01*
X362534Y125687D01*
X379877Y125687D01*
X379951Y125704D01*
X380026Y125717D01*
X380036Y125724D01*
X380046Y125726D01*
X380074Y125750D01*
X380146Y125798D01*
X383824Y129476D01*
X383864Y129541D01*
X383908Y129603D01*
X383910Y129615D01*
X383915Y129623D01*
X383919Y129660D01*
X383935Y129745D01*
X383935Y135595D01*
X383924Y135645D01*
X383922Y135696D01*
X383904Y135728D01*
X383896Y135764D01*
X383863Y135803D01*
X383839Y135848D01*
X383809Y135869D01*
X383786Y135897D01*
X383739Y135918D01*
X383697Y135948D01*
X383655Y135956D01*
X383627Y135968D01*
X383597Y135967D01*
X383555Y135975D01*
X372368Y135975D01*
X371475Y136868D01*
X371475Y137654D01*
X371469Y137679D01*
X371472Y137704D01*
X371450Y137762D01*
X371436Y137822D01*
X371419Y137842D01*
X371410Y137866D01*
X371365Y137908D01*
X371326Y137956D01*
X371302Y137967D01*
X371283Y137984D01*
X371224Y138002D01*
X371167Y138027D01*
X371142Y138026D01*
X371117Y138033D01*
X371056Y138023D01*
X370994Y138020D01*
X370972Y138008D01*
X370946Y138004D01*
X370875Y137955D01*
X370842Y137938D01*
X370836Y137929D01*
X370826Y137922D01*
X366636Y133732D01*
X366596Y133668D01*
X366552Y133606D01*
X366550Y133594D01*
X366545Y133585D01*
X366541Y133548D01*
X366525Y133464D01*
X366525Y130368D01*
X365632Y129475D01*
X354368Y129475D01*
X353475Y130368D01*
X353475Y136632D01*
X354368Y137525D01*
X362366Y137525D01*
X362440Y137542D01*
X362515Y137555D01*
X362525Y137562D01*
X362535Y137564D01*
X362564Y137588D01*
X362635Y137636D01*
X365866Y140867D01*
X365905Y140931D01*
X365949Y140992D01*
X365951Y141004D01*
X365957Y141014D01*
X365965Y141089D01*
X365977Y141163D01*
X365973Y141174D01*
X365974Y141187D01*
X365947Y141257D01*
X365925Y141328D01*
X365917Y141337D01*
X365912Y141349D01*
X365857Y141400D01*
X365806Y141454D01*
X365794Y141458D01*
X365785Y141466D01*
X365713Y141488D01*
X365643Y141513D01*
X365630Y141513D01*
X365619Y141516D01*
X365582Y141509D01*
X365499Y141503D01*
X365334Y141459D01*
X360761Y141459D01*
X360761Y146119D01*
X360750Y146169D01*
X360748Y146220D01*
X360730Y146252D01*
X360722Y146288D01*
X360689Y146327D01*
X360665Y146372D01*
X360635Y146393D01*
X360611Y146421D01*
X360565Y146442D01*
X360523Y146472D01*
X360481Y146480D01*
X360453Y146492D01*
X360423Y146491D01*
X360381Y146499D01*
X359999Y146499D01*
X359999Y146501D01*
X360381Y146501D01*
X360431Y146512D01*
X360482Y146514D01*
X360514Y146532D01*
X360550Y146540D01*
X360589Y146573D01*
X360634Y146597D01*
X360655Y146627D01*
X360683Y146651D01*
X360704Y146697D01*
X360734Y146739D01*
X360742Y146781D01*
X360754Y146809D01*
X360753Y146839D01*
X360761Y146881D01*
X360761Y151541D01*
X365335Y151541D01*
X366021Y151357D01*
X366034Y151356D01*
X366047Y151351D01*
X366120Y151354D01*
X366194Y151351D01*
X366206Y151357D01*
X366220Y151357D01*
X366284Y151393D01*
X366351Y151423D01*
X366360Y151434D01*
X366372Y151440D01*
X366414Y151500D01*
X366461Y151558D01*
X366464Y151571D01*
X366472Y151582D01*
X366499Y151724D01*
X366499Y154452D01*
X366582Y154534D01*
X366622Y154599D01*
X366666Y154661D01*
X366668Y154673D01*
X366673Y154681D01*
X366677Y154718D01*
X366693Y154803D01*
X366693Y158198D01*
X369802Y161307D01*
X374198Y161307D01*
X377307Y158198D01*
X377307Y153802D01*
X374198Y150693D01*
X372469Y150693D01*
X372419Y150682D01*
X372368Y150680D01*
X372336Y150662D01*
X372300Y150654D01*
X372261Y150621D01*
X372216Y150597D01*
X372195Y150567D01*
X372167Y150544D01*
X372146Y150497D01*
X372116Y150455D01*
X372108Y150413D01*
X372096Y150385D01*
X372097Y150355D01*
X372089Y150313D01*
X372089Y144405D01*
X372100Y144355D01*
X372102Y144304D01*
X372120Y144272D01*
X372128Y144236D01*
X372161Y144197D01*
X372185Y144152D01*
X372215Y144131D01*
X372238Y144103D01*
X372285Y144082D01*
X372327Y144052D01*
X372369Y144044D01*
X372397Y144032D01*
X372427Y144033D01*
X372469Y144025D01*
X383560Y144025D01*
X383610Y144036D01*
X383661Y144038D01*
X383693Y144056D01*
X383729Y144064D01*
X383768Y144097D01*
X383813Y144121D01*
X383834Y144151D01*
X383863Y144174D01*
X383883Y144221D01*
X383913Y144262D01*
X383921Y144304D01*
X383934Y144333D01*
X383932Y144363D01*
X383941Y144405D01*
X384194Y355771D01*
X384188Y355796D01*
X384191Y355822D01*
X384169Y355880D01*
X384155Y355940D01*
X384138Y355960D01*
X384129Y355984D01*
X384084Y356026D01*
X384045Y356073D01*
X384021Y356084D01*
X384002Y356102D01*
X383943Y356119D01*
X383887Y356145D01*
X383861Y356144D01*
X383836Y356151D01*
X383775Y356140D01*
X383714Y356138D01*
X383691Y356126D01*
X383665Y356121D01*
X383594Y356073D01*
X383561Y356056D01*
X383556Y356047D01*
X383545Y356040D01*
X381198Y353693D01*
X376802Y353693D01*
X374401Y356094D01*
X374337Y356134D01*
X374275Y356178D01*
X374263Y356180D01*
X374254Y356185D01*
X374217Y356189D01*
X374132Y356205D01*
X365019Y356205D01*
X364945Y356188D01*
X364870Y356175D01*
X364860Y356168D01*
X364850Y356166D01*
X364822Y356142D01*
X364750Y356094D01*
X364632Y355975D01*
X355905Y355975D01*
X355855Y355964D01*
X355804Y355962D01*
X355772Y355944D01*
X355736Y355936D01*
X355697Y355903D01*
X355652Y355879D01*
X355631Y355849D01*
X355603Y355826D01*
X355582Y355779D01*
X355552Y355737D01*
X355544Y355695D01*
X355532Y355667D01*
X355533Y355637D01*
X355525Y355595D01*
X355525Y346868D01*
X354632Y345975D01*
X350675Y345975D01*
X350625Y345964D01*
X350574Y345962D01*
X350542Y345944D01*
X350506Y345936D01*
X350467Y345903D01*
X350422Y345879D01*
X350401Y345849D01*
X350373Y345826D01*
X350352Y345779D01*
X350322Y345737D01*
X350314Y345695D01*
X350302Y345667D01*
X350303Y345637D01*
X350295Y345595D01*
X350295Y344975D01*
X350306Y344925D01*
X350308Y344874D01*
X350326Y344842D01*
X350334Y344806D01*
X350367Y344767D01*
X350391Y344722D01*
X350421Y344701D01*
X350444Y344673D01*
X350491Y344652D01*
X350533Y344622D01*
X350575Y344614D01*
X350603Y344602D01*
X350633Y344603D01*
X350675Y344595D01*
X358632Y344595D01*
X359525Y343702D01*
X359525Y331438D01*
X358632Y330545D01*
X347368Y330545D01*
X346475Y331438D01*
X346475Y339165D01*
X346458Y339239D01*
X346445Y339314D01*
X346438Y339324D01*
X346436Y339334D01*
X346412Y339362D01*
X346364Y339434D01*
X345614Y340184D01*
X345602Y340191D01*
X345592Y340204D01*
X345151Y340579D01*
X345142Y340584D01*
X345136Y340592D01*
X345066Y340623D01*
X344997Y340658D01*
X344987Y340658D01*
X344977Y340663D01*
X344901Y340660D01*
X344824Y340661D01*
X344815Y340656D01*
X344804Y340656D01*
X344737Y340619D01*
X344668Y340586D01*
X344661Y340578D01*
X344652Y340573D01*
X344608Y340511D01*
X344560Y340450D01*
X344558Y340440D01*
X344552Y340432D01*
X344525Y340289D01*
X344525Y331368D01*
X343632Y330475D01*
X332368Y330475D01*
X331475Y331368D01*
X331475Y343632D01*
X332368Y344525D01*
X334568Y344525D01*
X334624Y344538D01*
X334681Y344542D01*
X334707Y344557D01*
X334737Y344564D01*
X334781Y344601D01*
X334830Y344630D01*
X334847Y344655D01*
X334870Y344674D01*
X334894Y344727D01*
X334925Y344775D01*
X334931Y344809D01*
X334941Y344833D01*
X334940Y344867D01*
X334948Y344918D01*
X334924Y345608D01*
X334912Y345651D01*
X334911Y345696D01*
X334890Y345734D01*
X334879Y345775D01*
X334849Y345809D01*
X334828Y345848D01*
X334793Y345873D01*
X334764Y345905D01*
X334723Y345922D01*
X334686Y345948D01*
X334636Y345957D01*
X334604Y345971D01*
X334578Y345969D01*
X334544Y345975D01*
X330662Y345975D01*
X330637Y345969D01*
X330611Y345972D01*
X330554Y345950D01*
X330493Y345936D01*
X330474Y345919D01*
X330449Y345910D01*
X330407Y345865D01*
X330360Y345826D01*
X330349Y345802D01*
X330332Y345783D01*
X330314Y345724D01*
X330289Y345667D01*
X330290Y345642D01*
X330283Y345617D01*
X330293Y345556D01*
X330295Y345494D01*
X330308Y345472D01*
X330312Y345446D01*
X330360Y345375D01*
X330378Y345342D01*
X330386Y345336D01*
X330393Y345326D01*
X330509Y345211D01*
X330509Y328020D01*
X330515Y327995D01*
X330512Y327969D01*
X330534Y327911D01*
X330548Y327851D01*
X330565Y327831D01*
X330574Y327807D01*
X330619Y327765D01*
X330658Y327717D01*
X330682Y327707D01*
X330701Y327689D01*
X330760Y327672D01*
X330817Y327647D01*
X330842Y327648D01*
X330867Y327640D01*
X330928Y327651D01*
X330990Y327653D01*
X331012Y327666D01*
X331038Y327670D01*
X331109Y327718D01*
X331142Y327736D01*
X331148Y327744D01*
X331158Y327751D01*
X331440Y328033D01*
X332019Y328368D01*
X332665Y328541D01*
X337239Y328541D01*
X337239Y320881D01*
X337250Y320831D01*
X337252Y320780D01*
X337270Y320748D01*
X337278Y320712D01*
X337311Y320673D01*
X337335Y320628D01*
X337365Y320607D01*
X337388Y320579D01*
X337435Y320558D01*
X337477Y320528D01*
X337519Y320520D01*
X337547Y320508D01*
X337577Y320509D01*
X337619Y320501D01*
X338001Y320501D01*
X338001Y320499D01*
X337619Y320499D01*
X337569Y320488D01*
X337518Y320486D01*
X337486Y320468D01*
X337450Y320460D01*
X337411Y320427D01*
X337366Y320403D01*
X337345Y320373D01*
X337317Y320349D01*
X337296Y320303D01*
X337266Y320261D01*
X337258Y320219D01*
X337246Y320191D01*
X337247Y320161D01*
X337239Y320119D01*
X337239Y312459D01*
X332665Y312459D01*
X332019Y312632D01*
X331440Y312967D01*
X331158Y313249D01*
X331136Y313263D01*
X331120Y313283D01*
X331063Y313308D01*
X331011Y313340D01*
X330985Y313343D01*
X330961Y313353D01*
X330900Y313351D01*
X330838Y313357D01*
X330814Y313348D01*
X330788Y313347D01*
X330734Y313317D01*
X330676Y313295D01*
X330659Y313276D01*
X330636Y313264D01*
X330601Y313214D01*
X330559Y313168D01*
X330551Y313143D01*
X330536Y313122D01*
X330520Y313038D01*
X330509Y313002D01*
X330511Y312992D01*
X330509Y312980D01*
X330509Y312789D01*
X330211Y312491D01*
X320175Y312491D01*
X320125Y312480D01*
X320074Y312478D01*
X320042Y312460D01*
X320006Y312452D01*
X319967Y312419D01*
X319922Y312395D01*
X319901Y312365D01*
X319873Y312342D01*
X319852Y312295D01*
X319822Y312253D01*
X319814Y312211D01*
X319802Y312183D01*
X319803Y312154D01*
X319802Y312152D01*
X319802Y312148D01*
X319795Y312111D01*
X319795Y143369D01*
X319801Y143344D01*
X319798Y143318D01*
X319820Y143260D01*
X319834Y143200D01*
X319851Y143180D01*
X319860Y143156D01*
X319905Y143114D01*
X319944Y143067D01*
X319968Y143056D01*
X319987Y143039D01*
X320046Y143021D01*
X320103Y142996D01*
X320128Y142997D01*
X320153Y142989D01*
X320214Y143000D01*
X320276Y143002D01*
X320298Y143015D01*
X320324Y143019D01*
X320395Y143067D01*
X320428Y143085D01*
X320434Y143093D01*
X320444Y143100D01*
X321368Y144025D01*
X332632Y144025D01*
X333525Y143132D01*
X333525Y136868D01*
X332632Y135975D01*
X330175Y135975D01*
X330125Y135964D01*
X330074Y135962D01*
X330042Y135944D01*
X330006Y135936D01*
X329967Y135903D01*
X329922Y135879D01*
X329901Y135849D01*
X329873Y135826D01*
X329852Y135779D01*
X329822Y135737D01*
X329814Y135695D01*
X329802Y135667D01*
X329803Y135637D01*
X329795Y135595D01*
X329795Y124842D01*
X325301Y120349D01*
X325281Y120316D01*
X325253Y120290D01*
X325236Y120243D01*
X325210Y120201D01*
X325206Y120163D01*
X325193Y120127D01*
X325198Y120078D01*
X325193Y120029D01*
X325207Y119993D01*
X325211Y119955D01*
X325237Y119913D01*
X325255Y119867D01*
X325283Y119841D01*
X325304Y119808D01*
X325354Y119775D01*
X325382Y119749D01*
X325402Y119743D01*
X325424Y119728D01*
X328487Y118460D01*
X331560Y115387D01*
X333223Y111373D01*
X333223Y107027D01*
X331560Y103013D01*
X328487Y99940D01*
X324473Y98277D01*
X320127Y98277D01*
X316113Y99940D01*
X313040Y103013D01*
X312026Y105461D01*
X312019Y105471D01*
X312016Y105484D01*
X311969Y105541D01*
X311925Y105601D01*
X311914Y105607D01*
X311906Y105617D01*
X311838Y105648D01*
X311772Y105683D01*
X311759Y105683D01*
X311747Y105688D01*
X311673Y105685D01*
X311599Y105688D01*
X311587Y105682D01*
X311574Y105682D01*
X311509Y105646D01*
X311442Y105615D01*
X311433Y105605D01*
X311422Y105599D01*
X311380Y105538D01*
X311333Y105481D01*
X311330Y105468D01*
X311322Y105457D01*
X311295Y105315D01*
X311295Y91719D01*
X311309Y91657D01*
X311316Y91594D01*
X311329Y91574D01*
X311334Y91550D01*
X311375Y91501D01*
X311409Y91448D01*
X311431Y91433D01*
X311444Y91417D01*
X311479Y91401D01*
X311529Y91368D01*
X314687Y90060D01*
X317760Y86987D01*
X319423Y82973D01*
X319423Y78627D01*
X317760Y74613D01*
X314687Y71540D01*
X310673Y69877D01*
X306327Y69877D01*
X302313Y71540D01*
X299240Y74613D01*
X297577Y78627D01*
X297577Y82973D01*
X299240Y86987D01*
X302313Y90060D01*
X305471Y91368D01*
X305522Y91405D01*
X305578Y91435D01*
X305592Y91455D01*
X305611Y91469D01*
X305641Y91525D01*
X305678Y91577D01*
X305683Y91603D01*
X305693Y91622D01*
X305694Y91660D01*
X305705Y91719D01*
X305705Y105556D01*
X305702Y105569D01*
X305704Y105582D01*
X305683Y105653D01*
X305666Y105725D01*
X305658Y105735D01*
X305654Y105748D01*
X305603Y105802D01*
X305556Y105859D01*
X305544Y105864D01*
X305535Y105874D01*
X305465Y105899D01*
X305397Y105930D01*
X305384Y105929D01*
X305372Y105934D01*
X305299Y105926D01*
X305224Y105923D01*
X305213Y105917D01*
X305200Y105916D01*
X305137Y105876D01*
X305072Y105840D01*
X305065Y105830D01*
X305054Y105823D01*
X304974Y105702D01*
X303860Y103013D01*
X300787Y99940D01*
X296773Y98277D01*
X292427Y98277D01*
X288413Y99940D01*
X285340Y103013D01*
X283677Y107027D01*
X283677Y111373D01*
X285340Y115387D01*
X288413Y118460D01*
X290471Y119312D01*
X290522Y119349D01*
X290578Y119380D01*
X290592Y119399D01*
X290611Y119413D01*
X290626Y119441D01*
X290627Y119442D01*
X290631Y119451D01*
X290641Y119469D01*
X290678Y119521D01*
X290683Y119548D01*
X290693Y119566D01*
X290693Y119589D01*
X290698Y119600D01*
X290697Y119623D01*
X290705Y119663D01*
X290705Y135595D01*
X290694Y135645D01*
X290692Y135696D01*
X290674Y135728D01*
X290666Y135764D01*
X290633Y135803D01*
X290609Y135848D01*
X290579Y135869D01*
X290556Y135897D01*
X290509Y135918D01*
X290467Y135948D01*
X290425Y135956D01*
X290397Y135968D01*
X290367Y135967D01*
X290325Y135975D01*
X287868Y135975D01*
X286975Y136868D01*
X286975Y143132D01*
X287868Y144025D01*
X299132Y144025D01*
X299556Y143600D01*
X299578Y143587D01*
X299594Y143567D01*
X299651Y143541D01*
X299703Y143509D01*
X299729Y143506D01*
X299753Y143496D01*
X299814Y143498D01*
X299876Y143492D01*
X299900Y143501D01*
X299926Y143502D01*
X299980Y143532D01*
X300038Y143554D01*
X300055Y143573D01*
X300078Y143585D01*
X300113Y143636D01*
X300155Y143681D01*
X300163Y143706D01*
X300178Y143727D01*
X300194Y143811D01*
X300205Y143847D01*
X300203Y143857D01*
X300205Y143869D01*
X300205Y314061D01*
X300189Y314132D01*
X300178Y314203D01*
X300169Y314217D01*
X300166Y314230D01*
X300141Y314260D01*
X300099Y314325D01*
X300051Y314375D01*
X299984Y314418D01*
X299919Y314464D01*
X299911Y314465D01*
X299906Y314469D01*
X299873Y314473D01*
X299777Y314491D01*
X291789Y314491D01*
X291491Y314789D01*
X291491Y328921D01*
X291485Y328946D01*
X291488Y328972D01*
X291466Y329029D01*
X291452Y329090D01*
X291435Y329110D01*
X291426Y329134D01*
X291381Y329176D01*
X291342Y329223D01*
X291318Y329234D01*
X291299Y329251D01*
X291240Y329269D01*
X291183Y329294D01*
X291158Y329293D01*
X291133Y329301D01*
X291072Y329290D01*
X291010Y329288D01*
X290988Y329275D01*
X290962Y329271D01*
X290891Y329223D01*
X290858Y329205D01*
X290852Y329197D01*
X290842Y329190D01*
X289436Y327784D01*
X289396Y327719D01*
X289352Y327657D01*
X289350Y327645D01*
X289345Y327637D01*
X289341Y327600D01*
X289325Y327515D01*
X289325Y318968D01*
X288432Y318075D01*
X286745Y318075D01*
X286695Y318064D01*
X286644Y318062D01*
X286612Y318044D01*
X286576Y318036D01*
X286537Y318003D01*
X286492Y317979D01*
X286471Y317949D01*
X286443Y317926D01*
X286422Y317879D01*
X286392Y317837D01*
X286384Y317795D01*
X286372Y317767D01*
X286373Y317737D01*
X286365Y317695D01*
X286365Y310605D01*
X286376Y310555D01*
X286378Y310504D01*
X286396Y310472D01*
X286404Y310436D01*
X286437Y310397D01*
X286461Y310352D01*
X286491Y310331D01*
X286514Y310303D01*
X286561Y310282D01*
X286603Y310252D01*
X286645Y310244D01*
X286673Y310232D01*
X286703Y310233D01*
X286745Y310225D01*
X288432Y310225D01*
X289325Y309332D01*
X289325Y298068D01*
X288432Y297175D01*
X286745Y297175D01*
X286695Y297164D01*
X286644Y297162D01*
X286612Y297144D01*
X286576Y297136D01*
X286537Y297103D01*
X286492Y297079D01*
X286471Y297049D01*
X286443Y297026D01*
X286422Y296979D01*
X286392Y296937D01*
X286384Y296895D01*
X286372Y296867D01*
X286373Y296837D01*
X286365Y296795D01*
X286365Y293345D01*
X286382Y293271D01*
X286395Y293196D01*
X286402Y293186D01*
X286404Y293176D01*
X286428Y293148D01*
X286476Y293076D01*
X290046Y289506D01*
X291795Y287758D01*
X291795Y284868D01*
X291812Y284794D01*
X291825Y284719D01*
X291832Y284709D01*
X291834Y284699D01*
X291858Y284670D01*
X291906Y284599D01*
X294307Y282198D01*
X294307Y277802D01*
X291198Y274693D01*
X286802Y274693D01*
X283693Y277802D01*
X283693Y282198D01*
X286094Y284599D01*
X286134Y284663D01*
X286178Y284725D01*
X286180Y284737D01*
X286185Y284746D01*
X286189Y284783D01*
X286205Y284868D01*
X286205Y285285D01*
X286188Y285359D01*
X286175Y285434D01*
X286168Y285444D01*
X286166Y285454D01*
X286142Y285482D01*
X286094Y285554D01*
X283467Y288181D01*
X283424Y288208D01*
X283386Y288242D01*
X283351Y288253D01*
X283320Y288272D01*
X283269Y288277D01*
X283220Y288292D01*
X283184Y288285D01*
X283147Y288289D01*
X283100Y288271D01*
X283049Y288262D01*
X283014Y288238D01*
X282985Y288227D01*
X282965Y288205D01*
X282929Y288181D01*
X282136Y287388D01*
X282096Y287323D01*
X282052Y287261D01*
X282050Y287249D01*
X282045Y287240D01*
X282041Y287203D01*
X282025Y287119D01*
X282025Y258868D01*
X281132Y257975D01*
X266868Y257975D01*
X265975Y258868D01*
X265975Y287132D01*
X266868Y288025D01*
X271119Y288025D01*
X271193Y288042D01*
X271268Y288055D01*
X271278Y288062D01*
X271288Y288064D01*
X271316Y288088D01*
X271388Y288136D01*
X278124Y294872D01*
X278164Y294937D01*
X278208Y294999D01*
X278210Y295011D01*
X278215Y295019D01*
X278219Y295057D01*
X278235Y295141D01*
X278235Y296795D01*
X278224Y296845D01*
X278222Y296896D01*
X278204Y296928D01*
X278196Y296964D01*
X278163Y297003D01*
X278139Y297048D01*
X278109Y297069D01*
X278086Y297097D01*
X278039Y297118D01*
X277997Y297148D01*
X277955Y297156D01*
X277927Y297168D01*
X277897Y297167D01*
X277855Y297175D01*
X276168Y297175D01*
X275275Y298068D01*
X275275Y309332D01*
X276168Y310225D01*
X277855Y310225D01*
X277905Y310236D01*
X277956Y310238D01*
X277988Y310256D01*
X278024Y310264D01*
X278063Y310297D01*
X278108Y310321D01*
X278129Y310351D01*
X278157Y310374D01*
X278178Y310421D01*
X278208Y310463D01*
X278216Y310505D01*
X278228Y310533D01*
X278227Y310563D01*
X278235Y310605D01*
X278235Y317695D01*
X278224Y317745D01*
X278222Y317796D01*
X278204Y317828D01*
X278196Y317864D01*
X278163Y317903D01*
X278139Y317948D01*
X278109Y317969D01*
X278086Y317997D01*
X278039Y318018D01*
X277997Y318048D01*
X277955Y318056D01*
X277927Y318068D01*
X277897Y318067D01*
X277855Y318075D01*
X276168Y318075D01*
X275275Y318968D01*
X275275Y330232D01*
X276168Y331125D01*
X284715Y331125D01*
X284789Y331142D01*
X284864Y331155D01*
X284874Y331162D01*
X284884Y331164D01*
X284912Y331188D01*
X284984Y331236D01*
X287394Y333646D01*
X287434Y333711D01*
X287478Y333773D01*
X287480Y333785D01*
X287485Y333793D01*
X287489Y333830D01*
X287505Y333915D01*
X287505Y336319D01*
X287494Y336369D01*
X287492Y336420D01*
X287474Y336452D01*
X287466Y336488D01*
X287433Y336527D01*
X287409Y336572D01*
X287379Y336593D01*
X287356Y336621D01*
X287309Y336642D01*
X287267Y336672D01*
X287225Y336680D01*
X287197Y336692D01*
X287167Y336691D01*
X287125Y336699D01*
X283181Y336699D01*
X283181Y344359D01*
X283170Y344409D01*
X283168Y344460D01*
X283150Y344492D01*
X283142Y344528D01*
X283109Y344567D01*
X283085Y344612D01*
X283055Y344633D01*
X283031Y344661D01*
X282985Y344682D01*
X282943Y344712D01*
X282901Y344720D01*
X282873Y344732D01*
X282843Y344731D01*
X282801Y344739D01*
X282419Y344739D01*
X282419Y344741D01*
X282801Y344741D01*
X282851Y344752D01*
X282902Y344754D01*
X282934Y344772D01*
X282970Y344780D01*
X283009Y344813D01*
X283054Y344837D01*
X283075Y344867D01*
X283103Y344891D01*
X283124Y344937D01*
X283154Y344979D01*
X283162Y345021D01*
X283174Y345049D01*
X283173Y345079D01*
X283181Y345121D01*
X283181Y352781D01*
X287125Y352781D01*
X287175Y352792D01*
X287226Y352794D01*
X287258Y352812D01*
X287294Y352820D01*
X287333Y352853D01*
X287378Y352877D01*
X287399Y352907D01*
X287427Y352930D01*
X287448Y352977D01*
X287478Y353019D01*
X287486Y353061D01*
X287498Y353089D01*
X287497Y353119D01*
X287505Y353161D01*
X287505Y354335D01*
X287494Y354385D01*
X287492Y354436D01*
X287474Y354468D01*
X287466Y354504D01*
X287433Y354543D01*
X287409Y354588D01*
X287379Y354609D01*
X287356Y354637D01*
X287309Y354658D01*
X287267Y354688D01*
X287225Y354696D01*
X287197Y354708D01*
X287167Y354707D01*
X287125Y354715D01*
X276788Y354715D01*
X275895Y355608D01*
X275895Y358565D01*
X275884Y358615D01*
X275882Y358666D01*
X275864Y358698D01*
X275856Y358734D01*
X275823Y358773D01*
X275799Y358818D01*
X275769Y358839D01*
X275746Y358867D01*
X275699Y358888D01*
X275657Y358918D01*
X275615Y358926D01*
X275587Y358938D01*
X275557Y358937D01*
X275515Y358945D01*
X271205Y358945D01*
X271155Y358934D01*
X271104Y358932D01*
X271072Y358914D01*
X271036Y358906D01*
X270997Y358873D01*
X270952Y358849D01*
X270931Y358819D01*
X270903Y358796D01*
X270882Y358749D01*
X270852Y358707D01*
X270844Y358665D01*
X270832Y358637D01*
X270833Y358607D01*
X270825Y358565D01*
X270825Y340468D01*
X269932Y339575D01*
X244668Y339575D01*
X243775Y340468D01*
X243775Y360732D01*
X244668Y361625D01*
X263515Y361625D01*
X263589Y361642D01*
X263664Y361655D01*
X263674Y361662D01*
X263684Y361664D01*
X263712Y361688D01*
X263784Y361736D01*
X266582Y364535D01*
X275515Y364535D01*
X275565Y364546D01*
X275616Y364548D01*
X275648Y364566D01*
X275684Y364574D01*
X275723Y364607D01*
X275768Y364631D01*
X275789Y364661D01*
X275817Y364684D01*
X275838Y364731D01*
X275868Y364773D01*
X275876Y364815D01*
X275888Y364843D01*
X275888Y364860D01*
X275888Y364862D01*
X275888Y364876D01*
X275895Y364915D01*
X275895Y367872D01*
X276788Y368765D01*
X284655Y368765D01*
X284729Y368782D01*
X284804Y368795D01*
X284814Y368802D01*
X284824Y368804D01*
X284852Y368828D01*
X284924Y368876D01*
X286094Y370046D01*
X286719Y370671D01*
X286746Y370714D01*
X286780Y370752D01*
X286791Y370787D01*
X286810Y370818D01*
X286815Y370869D01*
X286830Y370918D01*
X286823Y370954D01*
X286827Y370991D01*
X286809Y371038D01*
X286800Y371089D01*
X286776Y371124D01*
X286765Y371153D01*
X286743Y371174D01*
X286719Y371209D01*
X285144Y372784D01*
X285079Y372824D01*
X285017Y372868D01*
X285005Y372870D01*
X284997Y372875D01*
X284960Y372879D01*
X284875Y372895D01*
X276328Y372895D01*
X275435Y373788D01*
X275435Y376745D01*
X275424Y376795D01*
X275422Y376846D01*
X275404Y376878D01*
X275396Y376914D01*
X275363Y376953D01*
X275339Y376998D01*
X275309Y377019D01*
X275286Y377047D01*
X275239Y377068D01*
X275197Y377098D01*
X275155Y377106D01*
X275127Y377118D01*
X275097Y377117D01*
X275055Y377125D01*
X267822Y377125D01*
X264484Y380464D01*
X264419Y380504D01*
X264357Y380548D01*
X264345Y380550D01*
X264337Y380555D01*
X264300Y380559D01*
X264215Y380575D01*
X244668Y380575D01*
X243775Y381468D01*
X243775Y401732D01*
X244668Y402625D01*
X269932Y402625D01*
X270825Y401732D01*
X270825Y383095D01*
X270836Y383045D01*
X270838Y382994D01*
X270856Y382962D01*
X270864Y382926D01*
X270897Y382887D01*
X270921Y382842D01*
X270951Y382821D01*
X270974Y382793D01*
X271021Y382772D01*
X271063Y382742D01*
X271105Y382734D01*
X271133Y382722D01*
X271163Y382723D01*
X271205Y382715D01*
X275055Y382715D01*
X275105Y382726D01*
X275156Y382728D01*
X275188Y382746D01*
X275224Y382754D01*
X275263Y382787D01*
X275308Y382811D01*
X275329Y382841D01*
X275357Y382864D01*
X275378Y382911D01*
X275408Y382953D01*
X275416Y382995D01*
X275428Y383023D01*
X275427Y383053D01*
X275435Y383095D01*
X275435Y386052D01*
X276328Y386945D01*
X287592Y386945D01*
X288485Y386052D01*
X288485Y377505D01*
X288502Y377431D01*
X288515Y377356D01*
X288522Y377346D01*
X288524Y377336D01*
X288548Y377308D01*
X288596Y377236D01*
X288926Y376906D01*
X288991Y376866D01*
X289053Y376822D01*
X289065Y376820D01*
X289073Y376815D01*
X289110Y376811D01*
X289195Y376795D01*
X293079Y376795D01*
X293129Y376806D01*
X293180Y376808D01*
X293212Y376826D01*
X293248Y376834D01*
X293287Y376867D01*
X293332Y376891D01*
X293353Y376921D01*
X293381Y376944D01*
X293402Y376991D01*
X293432Y377033D01*
X293440Y377075D01*
X293452Y377103D01*
X293451Y377133D01*
X293459Y377175D01*
X293459Y378251D01*
X300131Y378251D01*
X300180Y378262D01*
X300231Y378264D01*
X300264Y378282D01*
X300300Y378290D01*
X300339Y378323D01*
X300384Y378347D01*
X300405Y378377D01*
X300433Y378400D01*
X300454Y378447D01*
X300483Y378489D01*
X300492Y378531D01*
X300504Y378558D01*
X300503Y378589D01*
X300511Y378631D01*
X300511Y379369D01*
X300499Y379419D01*
X300497Y379470D01*
X300480Y379502D01*
X300472Y379538D01*
X300439Y379577D01*
X300415Y379622D01*
X300385Y379643D01*
X300361Y379671D01*
X300315Y379692D01*
X300273Y379722D01*
X300231Y379730D01*
X300203Y379742D01*
X300173Y379741D01*
X300131Y379749D01*
X293459Y379749D01*
X293459Y380835D01*
X293632Y381481D01*
X293967Y382060D01*
X294364Y382457D01*
X294404Y382522D01*
X294448Y382584D01*
X294450Y382596D01*
X294455Y382604D01*
X294459Y382641D01*
X294475Y382726D01*
X294475Y386132D01*
X294575Y386231D01*
X294602Y386274D01*
X294636Y386312D01*
X294647Y386347D01*
X294666Y386378D01*
X294671Y386429D01*
X294686Y386478D01*
X294679Y386514D01*
X294683Y386551D01*
X294665Y386598D01*
X294656Y386649D01*
X294632Y386684D01*
X294621Y386713D01*
X294599Y386734D01*
X294575Y386769D01*
X294475Y386868D01*
X294475Y391132D01*
X294575Y391231D01*
X294602Y391274D01*
X294636Y391312D01*
X294647Y391347D01*
X294666Y391378D01*
X294671Y391429D01*
X294686Y391478D01*
X294679Y391514D01*
X294683Y391551D01*
X294665Y391598D01*
X294656Y391649D01*
X294632Y391684D01*
X294621Y391713D01*
X294599Y391734D01*
X294575Y391769D01*
X294475Y391868D01*
X294475Y395274D01*
X294458Y395348D01*
X294445Y395423D01*
X294438Y395433D01*
X294436Y395443D01*
X294412Y395472D01*
X294364Y395543D01*
X293967Y395940D01*
X293632Y396519D01*
X293459Y397165D01*
X293459Y398251D01*
X300131Y398251D01*
X300180Y398262D01*
X300231Y398264D01*
X300264Y398282D01*
X300300Y398290D01*
X300339Y398323D01*
X300384Y398347D01*
X300405Y398377D01*
X300433Y398400D01*
X300454Y398447D01*
X300483Y398489D01*
X300492Y398531D01*
X300502Y398553D01*
X300503Y398530D01*
X300520Y398498D01*
X300528Y398462D01*
X300561Y398423D01*
X300585Y398378D01*
X300615Y398357D01*
X300639Y398329D01*
X300685Y398308D01*
X300727Y398278D01*
X300769Y398270D01*
X300797Y398258D01*
X300827Y398259D01*
X300869Y398251D01*
X307541Y398251D01*
X307541Y397142D01*
X307534Y397121D01*
X307541Y397064D01*
X307539Y397005D01*
X307551Y396979D01*
X307554Y396949D01*
X307594Y396883D01*
X307610Y396848D01*
X307621Y396839D01*
X307629Y396825D01*
X308350Y396027D01*
X308357Y396022D01*
X308363Y396012D01*
X308776Y395599D01*
X308798Y395586D01*
X308814Y395566D01*
X308871Y395540D01*
X308923Y395508D01*
X308949Y395505D01*
X308973Y395495D01*
X309034Y395497D01*
X309096Y395491D01*
X309120Y395501D01*
X309146Y395501D01*
X309200Y395531D01*
X309258Y395553D01*
X309275Y395572D01*
X309298Y395584D01*
X309333Y395635D01*
X309375Y395680D01*
X309383Y395705D01*
X309398Y395726D01*
X309414Y395810D01*
X309425Y395846D01*
X309423Y395856D01*
X309425Y395868D01*
X309425Y399869D01*
X309598Y400515D01*
X309769Y400810D01*
X309787Y400870D01*
X309813Y400928D01*
X309812Y400952D01*
X309819Y400976D01*
X309809Y401038D01*
X309806Y401101D01*
X309794Y401122D01*
X309790Y401147D01*
X309754Y401198D01*
X309723Y401253D01*
X309703Y401267D01*
X309689Y401287D01*
X309633Y401316D01*
X309582Y401353D01*
X309555Y401358D01*
X309536Y401368D01*
X309498Y401369D01*
X309440Y401380D01*
X307890Y401380D01*
X307877Y401377D01*
X307863Y401379D01*
X307793Y401358D01*
X307721Y401341D01*
X307711Y401332D01*
X307698Y401328D01*
X307645Y401277D01*
X307588Y401231D01*
X307582Y401218D01*
X307572Y401209D01*
X307547Y401140D01*
X307517Y401072D01*
X307517Y401059D01*
X307513Y401046D01*
X307523Y400902D01*
X307541Y400835D01*
X307541Y399749D01*
X300869Y399749D01*
X300820Y399738D01*
X300769Y399736D01*
X300736Y399718D01*
X300700Y399710D01*
X300661Y399677D01*
X300616Y399653D01*
X300595Y399623D01*
X300567Y399600D01*
X300546Y399553D01*
X300517Y399511D01*
X300508Y399469D01*
X300498Y399447D01*
X300497Y399470D01*
X300480Y399502D01*
X300472Y399538D01*
X300439Y399577D01*
X300415Y399622D01*
X300385Y399643D01*
X300361Y399671D01*
X300315Y399692D01*
X300273Y399722D01*
X300231Y399730D01*
X300203Y399742D01*
X300173Y399741D01*
X300131Y399749D01*
X293459Y399749D01*
X293459Y400835D01*
X293632Y401481D01*
X293967Y402060D01*
X294364Y402457D01*
X294404Y402522D01*
X294448Y402584D01*
X294450Y402596D01*
X294455Y402604D01*
X294459Y402641D01*
X294475Y402726D01*
X294475Y404115D01*
X294463Y404168D01*
X294462Y404200D01*
X294453Y404216D01*
X294445Y404264D01*
X294438Y404274D01*
X294436Y404284D01*
X294412Y404312D01*
X294364Y404384D01*
X287484Y411264D01*
X287419Y411304D01*
X287357Y411348D01*
X287345Y411350D01*
X287337Y411355D01*
X287300Y411359D01*
X287215Y411375D01*
X278668Y411375D01*
X277775Y412268D01*
X277775Y423532D01*
X278668Y424425D01*
X280355Y424425D01*
X280405Y424436D01*
X280456Y424438D01*
X280488Y424456D01*
X280524Y424464D01*
X280563Y424497D01*
X280608Y424521D01*
X280629Y424551D01*
X280657Y424574D01*
X280678Y424621D01*
X280708Y424663D01*
X280716Y424705D01*
X280728Y424733D01*
X280727Y424763D01*
X280735Y424805D01*
X280735Y431895D01*
X280724Y431945D01*
X280722Y431996D01*
X280704Y432028D01*
X280696Y432064D01*
X280663Y432103D01*
X280639Y432148D01*
X280609Y432169D01*
X280586Y432197D01*
X280539Y432218D01*
X280497Y432248D01*
X280455Y432256D01*
X280427Y432268D01*
X280397Y432267D01*
X280355Y432275D01*
X278168Y432275D01*
X277275Y433168D01*
X277275Y444432D01*
X277779Y444935D01*
X277806Y444978D01*
X277840Y445016D01*
X277851Y445051D01*
X277870Y445082D01*
X277875Y445133D01*
X277890Y445182D01*
X277883Y445218D01*
X277887Y445255D01*
X277869Y445302D01*
X277860Y445353D01*
X277836Y445388D01*
X277825Y445417D01*
X277803Y445437D01*
X277779Y445473D01*
X269935Y453316D01*
X269935Y453595D01*
X269924Y453645D01*
X269922Y453696D01*
X269904Y453728D01*
X269896Y453764D01*
X269863Y453803D01*
X269839Y453848D01*
X269809Y453869D01*
X269786Y453897D01*
X269739Y453918D01*
X269697Y453948D01*
X269655Y453956D01*
X269627Y453968D01*
X269597Y453967D01*
X269555Y453975D01*
X266868Y453975D01*
X265975Y454868D01*
X265975Y483132D01*
X266868Y484025D01*
X270825Y484025D01*
X270875Y484036D01*
X270926Y484038D01*
X270958Y484056D01*
X270994Y484064D01*
X271033Y484097D01*
X271078Y484121D01*
X271099Y484151D01*
X271127Y484174D01*
X271148Y484221D01*
X271178Y484263D01*
X271186Y484305D01*
X271198Y484333D01*
X271197Y484363D01*
X271205Y484405D01*
X271205Y500500D01*
X271194Y500550D01*
X271192Y500601D01*
X271174Y500633D01*
X271166Y500669D01*
X271133Y500708D01*
X271109Y500753D01*
X271079Y500774D01*
X271056Y500802D01*
X271009Y500823D01*
X270967Y500853D01*
X270925Y500861D01*
X270897Y500873D01*
X270867Y500872D01*
X270825Y500880D01*
X264888Y500880D01*
X258380Y507388D01*
X258380Y536843D01*
X277269Y555731D01*
X277309Y555796D01*
X277353Y555858D01*
X277355Y555870D01*
X277360Y555878D01*
X277364Y555915D01*
X277380Y556000D01*
X277380Y689459D01*
X277369Y689509D01*
X277367Y689560D01*
X277349Y689592D01*
X277341Y689628D01*
X277308Y689667D01*
X277284Y689712D01*
X277254Y689733D01*
X277231Y689761D01*
X277184Y689782D01*
X277142Y689812D01*
X277100Y689820D01*
X277072Y689832D01*
X277042Y689831D01*
X277000Y689839D01*
X270351Y689839D01*
X270338Y689836D01*
X270325Y689838D01*
X270254Y689817D01*
X270182Y689800D01*
X270172Y689792D01*
X270159Y689788D01*
X270106Y689737D01*
X270048Y689690D01*
X270043Y689678D01*
X270033Y689669D01*
X270008Y689599D01*
X269977Y689531D01*
X269978Y689518D01*
X269973Y689506D01*
X269981Y689433D01*
X269984Y689358D01*
X269990Y689347D01*
X269992Y689334D01*
X270031Y689271D01*
X270067Y689206D01*
X270077Y689199D01*
X270084Y689188D01*
X270205Y689108D01*
X271980Y688373D01*
X274553Y685800D01*
X275945Y682439D01*
X275945Y663561D01*
X274553Y660200D01*
X271980Y657627D01*
X271076Y657253D01*
X271024Y657216D01*
X270969Y657186D01*
X270955Y657166D01*
X270935Y657152D01*
X270905Y657096D01*
X270869Y657044D01*
X270863Y657017D01*
X270853Y656999D01*
X270852Y656961D01*
X270841Y656902D01*
X270774Y612306D01*
X270786Y612256D01*
X270788Y612204D01*
X270805Y612172D01*
X270814Y612137D01*
X270846Y612097D01*
X270871Y612052D01*
X270901Y612031D01*
X270924Y612003D01*
X270970Y611982D01*
X271012Y611952D01*
X271054Y611944D01*
X271082Y611932D01*
X271112Y611933D01*
X271155Y611925D01*
X273232Y611925D01*
X274125Y611032D01*
X274125Y599768D01*
X273232Y598875D01*
X271545Y598875D01*
X271495Y598864D01*
X271444Y598862D01*
X271412Y598844D01*
X271376Y598836D01*
X271337Y598803D01*
X271292Y598779D01*
X271271Y598749D01*
X271243Y598726D01*
X271222Y598679D01*
X271192Y598637D01*
X271184Y598595D01*
X271172Y598567D01*
X271173Y598537D01*
X271165Y598495D01*
X271165Y589205D01*
X271176Y589155D01*
X271178Y589104D01*
X271196Y589072D01*
X271204Y589036D01*
X271237Y588997D01*
X271261Y588952D01*
X271291Y588931D01*
X271314Y588903D01*
X271361Y588882D01*
X271403Y588852D01*
X271445Y588844D01*
X271473Y588832D01*
X271503Y588833D01*
X271545Y588825D01*
X273232Y588825D01*
X274125Y587932D01*
X274125Y576668D01*
X273232Y575775D01*
X271545Y575775D01*
X271495Y575764D01*
X271444Y575762D01*
X271412Y575744D01*
X271376Y575736D01*
X271337Y575703D01*
X271292Y575679D01*
X271271Y575649D01*
X271243Y575626D01*
X271222Y575579D01*
X271192Y575537D01*
X271184Y575495D01*
X271172Y575467D01*
X271173Y575437D01*
X271165Y575395D01*
X271165Y560498D01*
X271182Y560424D01*
X271195Y560349D01*
X271202Y560339D01*
X271204Y560329D01*
X271228Y560300D01*
X271276Y560229D01*
X272307Y559198D01*
X272307Y554802D01*
X269198Y551693D01*
X267599Y551693D01*
X267525Y551676D01*
X267450Y551663D01*
X267440Y551656D01*
X267430Y551654D01*
X267402Y551630D01*
X267330Y551582D01*
X231676Y515928D01*
X231636Y515863D01*
X231592Y515801D01*
X231590Y515789D01*
X231585Y515780D01*
X231581Y515743D01*
X231565Y515659D01*
X231565Y473545D01*
X231582Y473471D01*
X231595Y473396D01*
X231602Y473386D01*
X231604Y473376D01*
X231628Y473348D01*
X231676Y473276D01*
X232546Y472406D01*
X232611Y472366D01*
X232673Y472322D01*
X232685Y472320D01*
X232693Y472315D01*
X232730Y472311D01*
X232815Y472295D01*
X237595Y472295D01*
X237645Y472306D01*
X237696Y472308D01*
X237728Y472326D01*
X237764Y472334D01*
X237803Y472367D01*
X237848Y472391D01*
X237869Y472421D01*
X237897Y472444D01*
X237918Y472491D01*
X237948Y472533D01*
X237956Y472575D01*
X237968Y472603D01*
X237967Y472633D01*
X237975Y472675D01*
X237975Y483132D01*
X238868Y484025D01*
X253132Y484025D01*
X254025Y483132D01*
X254025Y471585D01*
X254042Y471511D01*
X254055Y471436D01*
X254062Y471426D01*
X254064Y471416D01*
X254088Y471388D01*
X254136Y471316D01*
X254795Y470658D01*
X254795Y468342D01*
X254136Y467684D01*
X254096Y467619D01*
X254052Y467557D01*
X254050Y467545D01*
X254045Y467537D01*
X254041Y467500D01*
X254025Y467415D01*
X254025Y454868D01*
X253132Y453975D01*
X238868Y453975D01*
X237975Y454868D01*
X237975Y466325D01*
X237964Y466375D01*
X237962Y466426D01*
X237944Y466458D01*
X237936Y466494D01*
X237903Y466533D01*
X237879Y466578D01*
X237849Y466599D01*
X237826Y466627D01*
X237779Y466648D01*
X237737Y466678D01*
X237695Y466686D01*
X237667Y466698D01*
X237637Y466697D01*
X237595Y466705D01*
X232815Y466705D01*
X232741Y466688D01*
X232666Y466675D01*
X232656Y466668D01*
X232646Y466666D01*
X232618Y466642D01*
X232546Y466594D01*
X231676Y465724D01*
X231636Y465659D01*
X231592Y465597D01*
X231590Y465585D01*
X231585Y465577D01*
X231581Y465540D01*
X231565Y465455D01*
X231565Y286981D01*
X231576Y286931D01*
X231578Y286882D01*
X231590Y286860D01*
X231595Y286832D01*
X231602Y286822D01*
X231604Y286812D01*
X231628Y286784D01*
X231648Y286754D01*
X231661Y286730D01*
X231667Y286726D01*
X231676Y286712D01*
X231892Y286496D01*
X237326Y281062D01*
X237348Y281049D01*
X237364Y281029D01*
X237421Y281003D01*
X237473Y280971D01*
X237499Y280968D01*
X237523Y280958D01*
X237584Y280960D01*
X237646Y280954D01*
X237670Y280963D01*
X237696Y280964D01*
X237750Y280994D01*
X237808Y281016D01*
X237825Y281035D01*
X237848Y281047D01*
X237883Y281098D01*
X237925Y281143D01*
X237933Y281168D01*
X237948Y281189D01*
X237964Y281273D01*
X237975Y281309D01*
X237973Y281319D01*
X237975Y281331D01*
X237975Y287132D01*
X238868Y288025D01*
X253132Y288025D01*
X254025Y287132D01*
X254025Y258868D01*
X253132Y257975D01*
X238868Y257975D01*
X237975Y258868D01*
X237975Y268759D01*
X237962Y268814D01*
X237962Y268831D01*
X237957Y268841D01*
X237945Y268908D01*
X237938Y268918D01*
X237936Y268928D01*
X237912Y268956D01*
X237864Y269028D01*
X228438Y278454D01*
X228373Y278494D01*
X228311Y278538D01*
X228299Y278540D01*
X228290Y278545D01*
X228253Y278549D01*
X228210Y278557D01*
X226555Y280213D01*
X226552Y280224D01*
X226552Y280239D01*
X226547Y280247D01*
X226535Y280318D01*
X226528Y280328D01*
X226526Y280338D01*
X226502Y280366D01*
X226454Y280438D01*
X226144Y280748D01*
X225928Y280964D01*
X223435Y283456D01*
X223435Y519184D01*
X261582Y557330D01*
X261622Y557395D01*
X261666Y557457D01*
X261668Y557469D01*
X261673Y557478D01*
X261677Y557515D01*
X261693Y557599D01*
X261693Y559198D01*
X262924Y560429D01*
X262964Y560493D01*
X263008Y560555D01*
X263010Y560567D01*
X263015Y560576D01*
X263019Y560613D01*
X263035Y560698D01*
X263035Y575395D01*
X263024Y575445D01*
X263022Y575496D01*
X263004Y575528D01*
X262996Y575564D01*
X262963Y575603D01*
X262939Y575648D01*
X262909Y575669D01*
X262886Y575697D01*
X262839Y575718D01*
X262797Y575748D01*
X262755Y575756D01*
X262727Y575768D01*
X262697Y575767D01*
X262655Y575775D01*
X260968Y575775D01*
X260075Y576668D01*
X260075Y587932D01*
X260968Y588825D01*
X262655Y588825D01*
X262705Y588836D01*
X262756Y588838D01*
X262788Y588856D01*
X262824Y588864D01*
X262863Y588897D01*
X262908Y588921D01*
X262929Y588951D01*
X262957Y588974D01*
X262978Y589021D01*
X263008Y589063D01*
X263016Y589105D01*
X263028Y589133D01*
X263027Y589163D01*
X263035Y589205D01*
X263035Y598495D01*
X263024Y598545D01*
X263022Y598596D01*
X263004Y598628D01*
X262996Y598664D01*
X262963Y598703D01*
X262939Y598748D01*
X262909Y598769D01*
X262886Y598797D01*
X262839Y598818D01*
X262797Y598848D01*
X262755Y598856D01*
X262727Y598868D01*
X262697Y598867D01*
X262655Y598875D01*
X260968Y598875D01*
X260075Y599768D01*
X260075Y611032D01*
X260968Y611925D01*
X262265Y611925D01*
X262314Y611936D01*
X262365Y611938D01*
X262397Y611956D01*
X262433Y611964D01*
X262473Y611997D01*
X262517Y612021D01*
X262539Y612051D01*
X262567Y612074D01*
X262588Y612121D01*
X262617Y612162D01*
X262625Y612204D01*
X262638Y612233D01*
X262637Y612263D01*
X262645Y612304D01*
X262711Y656921D01*
X262697Y656983D01*
X262690Y657046D01*
X262678Y657066D01*
X262672Y657090D01*
X262632Y657139D01*
X262597Y657193D01*
X262575Y657207D01*
X262562Y657223D01*
X262528Y657239D01*
X262477Y657273D01*
X261620Y657627D01*
X259047Y660200D01*
X257655Y663561D01*
X257655Y682439D01*
X259047Y685800D01*
X261620Y688373D01*
X263395Y689108D01*
X263405Y689115D01*
X263418Y689118D01*
X263475Y689165D01*
X263536Y689209D01*
X263542Y689220D01*
X263552Y689228D01*
X263582Y689296D01*
X263617Y689362D01*
X263617Y689375D01*
X263623Y689387D01*
X263620Y689461D01*
X263622Y689535D01*
X263617Y689547D01*
X263616Y689560D01*
X263581Y689625D01*
X263550Y689692D01*
X263539Y689701D01*
X263533Y689712D01*
X263473Y689754D01*
X263415Y689801D01*
X263402Y689804D01*
X263392Y689812D01*
X263249Y689839D01*
X45230Y689839D01*
X45193Y689831D01*
X45155Y689832D01*
X45109Y689811D01*
X45061Y689800D01*
X45032Y689776D01*
X44997Y689760D01*
X44966Y689721D01*
X44927Y689690D01*
X44912Y689655D01*
X44888Y689626D01*
X44877Y689577D01*
X44856Y689531D01*
X44858Y689494D01*
X44849Y689457D01*
X44861Y689408D01*
X44863Y689358D01*
X44881Y689325D01*
X44890Y689288D01*
X44922Y689250D01*
X44946Y689206D01*
X44976Y689184D01*
X45001Y689155D01*
X45056Y689128D01*
X45087Y689106D01*
X45110Y689102D01*
X45131Y689092D01*
X48177Y688276D01*
X54484Y684634D01*
X59634Y679484D01*
X63276Y673177D01*
X64997Y666752D01*
X65161Y666142D01*
X65161Y658858D01*
X63276Y651823D01*
X59634Y645516D01*
X54484Y640366D01*
X48177Y636724D01*
X41142Y634839D01*
X33858Y634839D01*
X26823Y636724D01*
X20516Y640366D01*
X15366Y645516D01*
X11724Y651823D01*
X10908Y654869D01*
X10890Y654902D01*
X10882Y654939D01*
X10850Y654978D01*
X10826Y655022D01*
X10796Y655044D01*
X10772Y655073D01*
X10726Y655093D01*
X10685Y655122D01*
X10648Y655128D01*
X10613Y655144D01*
X10564Y655142D01*
X10514Y655150D01*
X10478Y655139D01*
X10440Y655137D01*
X10396Y655113D01*
X10349Y655099D01*
X10321Y655073D01*
X10288Y655054D01*
X10259Y655014D01*
X10223Y654979D01*
X10210Y654944D01*
X10188Y654913D01*
X10177Y654852D01*
X10164Y654817D01*
X10165Y654793D01*
X10161Y654770D01*
X10161Y45230D01*
X10169Y45193D01*
X10168Y45155D01*
X10189Y45109D01*
X10200Y45061D01*
X10224Y45032D01*
X10240Y44997D01*
X10279Y44966D01*
X10310Y44927D01*
X10345Y44912D01*
X10374Y44888D01*
X10423Y44877D01*
X10469Y44856D01*
X10506Y44858D01*
X10543Y44849D01*
X10592Y44861D01*
X10642Y44863D01*
X10675Y44881D01*
X10712Y44890D01*
X10750Y44922D01*
X10794Y44946D01*
X10816Y44977D01*
X10845Y45001D01*
X10872Y45056D01*
X10894Y45087D01*
X10898Y45110D01*
X10908Y45131D01*
X11724Y48177D01*
X15366Y54484D01*
X20516Y59634D01*
X26823Y63276D01*
X33858Y65161D01*
X41142Y65161D01*
X48177Y63276D01*
X54484Y59634D01*
X59634Y54484D01*
X63276Y48177D01*
X63402Y47705D01*
X65161Y41142D01*
X65161Y33858D01*
X63276Y26823D01*
X59634Y20516D01*
X54484Y15366D01*
X48177Y11724D01*
X45131Y10908D01*
X45098Y10890D01*
X45061Y10882D01*
X45022Y10850D01*
X44978Y10826D01*
X44956Y10796D01*
X44927Y10772D01*
X44907Y10726D01*
X44878Y10685D01*
X44872Y10648D01*
X44856Y10613D01*
X44858Y10564D01*
X44850Y10514D01*
X44861Y10478D01*
X44863Y10440D01*
X44887Y10396D01*
X44901Y10349D01*
X44927Y10321D01*
X44946Y10288D01*
X44986Y10259D01*
X45021Y10223D01*
X45056Y10210D01*
X45087Y10188D01*
X45148Y10177D01*
X45183Y10164D01*
X45207Y10165D01*
X45230Y10161D01*
X654770Y10161D01*
X654807Y10169D01*
G37*
G36*
X381574Y405637D02*
X381574Y405637D01*
X381649Y405650D01*
X381659Y405657D01*
X381669Y405659D01*
X381698Y405683D01*
X381769Y405731D01*
X531269Y555231D01*
X531309Y555296D01*
X531353Y555358D01*
X531355Y555370D01*
X531360Y555378D01*
X531364Y555415D01*
X531380Y555500D01*
X531380Y662460D01*
X531377Y662473D01*
X531379Y662486D01*
X531358Y662556D01*
X531341Y662629D01*
X531333Y662639D01*
X531329Y662651D01*
X531278Y662705D01*
X531231Y662762D01*
X531219Y662768D01*
X531210Y662777D01*
X531140Y662803D01*
X531072Y662833D01*
X531059Y662833D01*
X531047Y662837D01*
X530974Y662830D01*
X530899Y662827D01*
X530888Y662821D01*
X530875Y662819D01*
X530812Y662779D01*
X530747Y662744D01*
X530740Y662733D01*
X530729Y662726D01*
X530649Y662606D01*
X529414Y659624D01*
X526556Y656766D01*
X524505Y655917D01*
X524454Y655880D01*
X524398Y655850D01*
X524384Y655830D01*
X524365Y655816D01*
X524335Y655760D01*
X524298Y655708D01*
X524293Y655681D01*
X524283Y655663D01*
X524282Y655625D01*
X524271Y655566D01*
X524271Y610131D01*
X524282Y610081D01*
X524284Y610030D01*
X524302Y609998D01*
X524310Y609962D01*
X524343Y609923D01*
X524367Y609878D01*
X524397Y609857D01*
X524420Y609829D01*
X524467Y609808D01*
X524509Y609778D01*
X524551Y609770D01*
X524579Y609758D01*
X524609Y609759D01*
X524651Y609751D01*
X526512Y609751D01*
X528001Y608262D01*
X528001Y595158D01*
X526512Y593669D01*
X514408Y593669D01*
X512919Y595158D01*
X512919Y608262D01*
X514408Y609751D01*
X516269Y609751D01*
X516319Y609762D01*
X516370Y609764D01*
X516402Y609782D01*
X516438Y609790D01*
X516477Y609823D01*
X516522Y609847D01*
X516543Y609877D01*
X516571Y609900D01*
X516592Y609947D01*
X516622Y609989D01*
X516630Y610031D01*
X516642Y610059D01*
X516641Y610089D01*
X516649Y610131D01*
X516649Y655847D01*
X516637Y655901D01*
X516636Y655925D01*
X516633Y655931D01*
X516628Y655972D01*
X516615Y655993D01*
X516610Y656016D01*
X516569Y656065D01*
X516535Y656119D01*
X516513Y656134D01*
X516500Y656150D01*
X516465Y656165D01*
X516415Y656199D01*
X515044Y656766D01*
X512186Y659624D01*
X510639Y663359D01*
X510639Y682641D01*
X512186Y686376D01*
X515001Y689190D01*
X515014Y689212D01*
X515034Y689228D01*
X515060Y689285D01*
X515092Y689337D01*
X515095Y689363D01*
X515105Y689387D01*
X515103Y689448D01*
X515109Y689510D01*
X515100Y689534D01*
X515099Y689560D01*
X515069Y689614D01*
X515047Y689672D01*
X515028Y689689D01*
X515016Y689712D01*
X514965Y689747D01*
X514920Y689789D01*
X514895Y689797D01*
X514874Y689812D01*
X514790Y689828D01*
X514754Y689839D01*
X514744Y689837D01*
X514732Y689839D01*
X501468Y689839D01*
X501443Y689833D01*
X501417Y689836D01*
X501360Y689814D01*
X501299Y689800D01*
X501280Y689783D01*
X501255Y689774D01*
X501213Y689729D01*
X501166Y689690D01*
X501155Y689666D01*
X501138Y689647D01*
X501120Y689588D01*
X501095Y689531D01*
X501096Y689506D01*
X501089Y689481D01*
X501099Y689420D01*
X501101Y689358D01*
X501114Y689336D01*
X501118Y689310D01*
X501166Y689239D01*
X501184Y689206D01*
X501192Y689200D01*
X501199Y689190D01*
X504014Y686376D01*
X505561Y682641D01*
X505561Y663359D01*
X504014Y659624D01*
X501156Y656766D01*
X499445Y656058D01*
X499394Y656021D01*
X499338Y655990D01*
X499324Y655971D01*
X499305Y655957D01*
X499275Y655901D01*
X499238Y655849D01*
X499233Y655822D01*
X499223Y655804D01*
X499222Y655766D01*
X499211Y655706D01*
X499211Y610191D01*
X499222Y610141D01*
X499224Y610090D01*
X499242Y610058D01*
X499250Y610022D01*
X499283Y609983D01*
X499307Y609938D01*
X499337Y609917D01*
X499360Y609889D01*
X499407Y609868D01*
X499449Y609838D01*
X499491Y609830D01*
X499519Y609818D01*
X499549Y609819D01*
X499591Y609811D01*
X501162Y609811D01*
X502651Y608322D01*
X502651Y595218D01*
X501162Y593729D01*
X489058Y593729D01*
X487569Y595218D01*
X487569Y608322D01*
X489058Y609811D01*
X491209Y609811D01*
X491259Y609822D01*
X491310Y609824D01*
X491342Y609842D01*
X491378Y609850D01*
X491417Y609883D01*
X491462Y609907D01*
X491483Y609937D01*
X491511Y609960D01*
X491532Y610007D01*
X491562Y610049D01*
X491570Y610091D01*
X491582Y610119D01*
X491582Y610122D01*
X491581Y610150D01*
X491589Y610191D01*
X491589Y655706D01*
X491575Y655768D01*
X491568Y655831D01*
X491555Y655852D01*
X491550Y655875D01*
X491509Y655924D01*
X491475Y655978D01*
X491453Y655993D01*
X491440Y656009D01*
X491405Y656024D01*
X491355Y656058D01*
X489644Y656766D01*
X486786Y659624D01*
X485239Y663359D01*
X485239Y682641D01*
X486786Y686376D01*
X489601Y689190D01*
X489614Y689212D01*
X489634Y689228D01*
X489660Y689285D01*
X489692Y689337D01*
X489695Y689363D01*
X489705Y689387D01*
X489703Y689448D01*
X489709Y689510D01*
X489700Y689534D01*
X489699Y689560D01*
X489669Y689614D01*
X489647Y689672D01*
X489628Y689689D01*
X489616Y689712D01*
X489565Y689747D01*
X489520Y689789D01*
X489495Y689797D01*
X489474Y689812D01*
X489390Y689828D01*
X489354Y689839D01*
X489344Y689837D01*
X489332Y689839D01*
X476068Y689839D01*
X476043Y689833D01*
X476017Y689836D01*
X475960Y689814D01*
X475899Y689800D01*
X475880Y689783D01*
X475855Y689774D01*
X475813Y689729D01*
X475766Y689690D01*
X475755Y689666D01*
X475738Y689647D01*
X475720Y689588D01*
X475695Y689531D01*
X475696Y689506D01*
X475689Y689481D01*
X475699Y689420D01*
X475701Y689358D01*
X475714Y689336D01*
X475718Y689310D01*
X475766Y689239D01*
X475784Y689206D01*
X475792Y689200D01*
X475799Y689190D01*
X478614Y686376D01*
X480161Y682641D01*
X480161Y663359D01*
X478614Y659624D01*
X475756Y656766D01*
X474465Y656232D01*
X474414Y656195D01*
X474358Y656164D01*
X474344Y656145D01*
X474325Y656131D01*
X474295Y656075D01*
X474258Y656023D01*
X474253Y655996D01*
X474243Y655978D01*
X474242Y655940D01*
X474231Y655880D01*
X474231Y609811D01*
X474242Y609761D01*
X474244Y609710D01*
X474262Y609678D01*
X474270Y609642D01*
X474303Y609603D01*
X474327Y609558D01*
X474357Y609537D01*
X474380Y609509D01*
X474427Y609488D01*
X474469Y609458D01*
X474511Y609450D01*
X474539Y609438D01*
X474569Y609439D01*
X474611Y609431D01*
X476472Y609431D01*
X477961Y607942D01*
X477961Y594838D01*
X476472Y593349D01*
X464368Y593349D01*
X462879Y594838D01*
X462879Y607942D01*
X464368Y609431D01*
X466229Y609431D01*
X466279Y609442D01*
X466330Y609444D01*
X466362Y609462D01*
X466398Y609470D01*
X466437Y609503D01*
X466482Y609527D01*
X466503Y609557D01*
X466531Y609580D01*
X466552Y609627D01*
X466582Y609669D01*
X466590Y609711D01*
X466602Y609739D01*
X466602Y609741D01*
X466602Y609742D01*
X466601Y609770D01*
X466609Y609811D01*
X466609Y655533D01*
X466595Y655594D01*
X466588Y655658D01*
X466575Y655678D01*
X466570Y655701D01*
X466529Y655750D01*
X466495Y655804D01*
X466473Y655819D01*
X466460Y655835D01*
X466425Y655850D01*
X466375Y655884D01*
X464244Y656766D01*
X461386Y659624D01*
X459839Y663359D01*
X459839Y682641D01*
X461386Y686376D01*
X464201Y689190D01*
X464214Y689212D01*
X464234Y689228D01*
X464260Y689285D01*
X464292Y689337D01*
X464295Y689363D01*
X464305Y689387D01*
X464303Y689448D01*
X464309Y689510D01*
X464300Y689534D01*
X464299Y689560D01*
X464269Y689614D01*
X464247Y689672D01*
X464228Y689689D01*
X464216Y689712D01*
X464165Y689747D01*
X464120Y689789D01*
X464095Y689797D01*
X464074Y689812D01*
X463990Y689828D01*
X463954Y689839D01*
X463944Y689837D01*
X463932Y689839D01*
X450668Y689839D01*
X450643Y689833D01*
X450617Y689836D01*
X450560Y689814D01*
X450499Y689800D01*
X450480Y689783D01*
X450455Y689774D01*
X450413Y689729D01*
X450366Y689690D01*
X450355Y689666D01*
X450338Y689647D01*
X450320Y689588D01*
X450295Y689531D01*
X450296Y689506D01*
X450289Y689481D01*
X450299Y689420D01*
X450301Y689358D01*
X450314Y689336D01*
X450318Y689310D01*
X450366Y689239D01*
X450384Y689206D01*
X450392Y689200D01*
X450399Y689190D01*
X453214Y686376D01*
X454761Y682641D01*
X454761Y663359D01*
X453214Y659624D01*
X450356Y656766D01*
X448621Y656048D01*
X448570Y656011D01*
X448514Y655981D01*
X448500Y655961D01*
X448480Y655947D01*
X448451Y655891D01*
X448414Y655839D01*
X448409Y655812D01*
X448399Y655794D01*
X448398Y655756D01*
X448386Y655697D01*
X448322Y609722D01*
X448333Y609672D01*
X448335Y609620D01*
X448353Y609588D01*
X448361Y609553D01*
X448393Y609513D01*
X448418Y609468D01*
X448448Y609447D01*
X448471Y609419D01*
X448518Y609398D01*
X448560Y609368D01*
X448601Y609360D01*
X448629Y609348D01*
X448660Y609349D01*
X448702Y609341D01*
X451252Y609341D01*
X452741Y607852D01*
X452741Y594748D01*
X451252Y593259D01*
X439148Y593259D01*
X437659Y594748D01*
X437659Y607852D01*
X439148Y609341D01*
X440320Y609341D01*
X440369Y609352D01*
X440420Y609354D01*
X440453Y609372D01*
X440489Y609380D01*
X440528Y609413D01*
X440572Y609437D01*
X440594Y609467D01*
X440622Y609490D01*
X440643Y609537D01*
X440672Y609578D01*
X440681Y609620D01*
X440693Y609649D01*
X440692Y609679D01*
X440700Y609720D01*
X440765Y655716D01*
X440750Y655778D01*
X440744Y655842D01*
X440731Y655862D01*
X440726Y655885D01*
X440685Y655934D01*
X440651Y655988D01*
X440629Y656003D01*
X440616Y656019D01*
X440581Y656034D01*
X440530Y656068D01*
X438844Y656766D01*
X435986Y659624D01*
X434439Y663359D01*
X434439Y682641D01*
X435986Y686376D01*
X438801Y689190D01*
X438814Y689212D01*
X438834Y689228D01*
X438860Y689285D01*
X438892Y689337D01*
X438895Y689363D01*
X438905Y689387D01*
X438903Y689448D01*
X438909Y689510D01*
X438900Y689534D01*
X438899Y689560D01*
X438869Y689614D01*
X438847Y689672D01*
X438828Y689689D01*
X438816Y689712D01*
X438765Y689747D01*
X438720Y689789D01*
X438695Y689797D01*
X438674Y689812D01*
X438590Y689828D01*
X438554Y689839D01*
X438544Y689837D01*
X438532Y689839D01*
X425268Y689839D01*
X425243Y689833D01*
X425217Y689836D01*
X425160Y689814D01*
X425099Y689800D01*
X425080Y689783D01*
X425055Y689774D01*
X425013Y689729D01*
X424966Y689690D01*
X424955Y689666D01*
X424938Y689647D01*
X424920Y689588D01*
X424895Y689531D01*
X424896Y689506D01*
X424889Y689481D01*
X424899Y689420D01*
X424901Y689358D01*
X424914Y689336D01*
X424918Y689310D01*
X424966Y689239D01*
X424984Y689206D01*
X424992Y689200D01*
X424999Y689190D01*
X427814Y686376D01*
X429361Y682641D01*
X429361Y663359D01*
X427814Y659624D01*
X424956Y656766D01*
X423635Y656219D01*
X423584Y656182D01*
X423528Y656152D01*
X423514Y656132D01*
X423495Y656118D01*
X423465Y656062D01*
X423428Y656010D01*
X423423Y655984D01*
X423413Y655965D01*
X423412Y655928D01*
X423401Y655868D01*
X423401Y609301D01*
X423412Y609251D01*
X423414Y609200D01*
X423432Y609168D01*
X423440Y609132D01*
X423473Y609093D01*
X423497Y609048D01*
X423527Y609027D01*
X423550Y608999D01*
X423597Y608978D01*
X423639Y608948D01*
X423681Y608940D01*
X423709Y608928D01*
X423739Y608929D01*
X423781Y608921D01*
X425642Y608921D01*
X427131Y607432D01*
X427131Y594328D01*
X425642Y592839D01*
X413538Y592839D01*
X412049Y594328D01*
X412049Y607432D01*
X413538Y608921D01*
X415399Y608921D01*
X415449Y608932D01*
X415500Y608934D01*
X415532Y608952D01*
X415568Y608960D01*
X415607Y608993D01*
X415652Y609017D01*
X415673Y609047D01*
X415701Y609070D01*
X415722Y609117D01*
X415752Y609159D01*
X415760Y609201D01*
X415772Y609229D01*
X415771Y609259D01*
X415779Y609301D01*
X415779Y655545D01*
X415765Y655607D01*
X415758Y655670D01*
X415745Y655690D01*
X415740Y655714D01*
X415699Y655763D01*
X415665Y655816D01*
X415643Y655831D01*
X415630Y655847D01*
X415595Y655863D01*
X415545Y655896D01*
X413444Y656766D01*
X410586Y659624D01*
X409039Y663359D01*
X409039Y682641D01*
X410586Y686376D01*
X413401Y689190D01*
X413414Y689212D01*
X413434Y689228D01*
X413460Y689285D01*
X413492Y689337D01*
X413495Y689363D01*
X413505Y689387D01*
X413503Y689448D01*
X413509Y689510D01*
X413500Y689534D01*
X413499Y689560D01*
X413469Y689614D01*
X413447Y689672D01*
X413428Y689689D01*
X413416Y689712D01*
X413365Y689747D01*
X413320Y689789D01*
X413295Y689797D01*
X413274Y689812D01*
X413190Y689828D01*
X413154Y689839D01*
X413144Y689837D01*
X413132Y689839D01*
X399868Y689839D01*
X399843Y689833D01*
X399817Y689836D01*
X399760Y689814D01*
X399699Y689800D01*
X399680Y689783D01*
X399655Y689774D01*
X399613Y689729D01*
X399566Y689690D01*
X399555Y689666D01*
X399538Y689647D01*
X399520Y689588D01*
X399495Y689531D01*
X399496Y689506D01*
X399489Y689481D01*
X399499Y689420D01*
X399501Y689358D01*
X399514Y689336D01*
X399518Y689310D01*
X399566Y689239D01*
X399584Y689206D01*
X399592Y689200D01*
X399599Y689190D01*
X402414Y686376D01*
X403961Y682641D01*
X403961Y663359D01*
X402414Y659624D01*
X399556Y656766D01*
X398235Y656219D01*
X398184Y656182D01*
X398128Y656152D01*
X398114Y656132D01*
X398095Y656118D01*
X398065Y656062D01*
X398028Y656010D01*
X398023Y655984D01*
X398013Y655965D01*
X398012Y655928D01*
X398001Y655868D01*
X398001Y609821D01*
X398012Y609771D01*
X398014Y609720D01*
X398032Y609688D01*
X398040Y609652D01*
X398073Y609613D01*
X398097Y609568D01*
X398127Y609547D01*
X398150Y609519D01*
X398197Y609498D01*
X398239Y609468D01*
X398281Y609460D01*
X398309Y609448D01*
X398339Y609449D01*
X398381Y609441D01*
X400242Y609441D01*
X401731Y607952D01*
X401731Y594848D01*
X400242Y593359D01*
X388138Y593359D01*
X386649Y594848D01*
X386649Y607952D01*
X388138Y609441D01*
X389999Y609441D01*
X390049Y609452D01*
X390100Y609454D01*
X390132Y609472D01*
X390168Y609480D01*
X390207Y609513D01*
X390252Y609537D01*
X390273Y609567D01*
X390301Y609590D01*
X390322Y609637D01*
X390352Y609679D01*
X390360Y609721D01*
X390372Y609749D01*
X390371Y609779D01*
X390379Y609821D01*
X390379Y655545D01*
X390365Y655607D01*
X390358Y655670D01*
X390345Y655690D01*
X390340Y655714D01*
X390299Y655763D01*
X390265Y655816D01*
X390243Y655831D01*
X390230Y655847D01*
X390195Y655863D01*
X390145Y655896D01*
X388044Y656766D01*
X385186Y659624D01*
X383639Y663359D01*
X383639Y682641D01*
X385186Y686376D01*
X388001Y689190D01*
X388014Y689212D01*
X388034Y689228D01*
X388060Y689285D01*
X388092Y689337D01*
X388095Y689363D01*
X388105Y689387D01*
X388103Y689448D01*
X388109Y689510D01*
X388100Y689534D01*
X388099Y689560D01*
X388069Y689614D01*
X388047Y689672D01*
X388028Y689689D01*
X388016Y689712D01*
X387965Y689747D01*
X387920Y689789D01*
X387895Y689797D01*
X387874Y689812D01*
X387790Y689828D01*
X387754Y689839D01*
X387744Y689837D01*
X387732Y689839D01*
X374468Y689839D01*
X374443Y689833D01*
X374417Y689836D01*
X374360Y689814D01*
X374299Y689800D01*
X374280Y689783D01*
X374255Y689774D01*
X374213Y689729D01*
X374166Y689690D01*
X374155Y689666D01*
X374138Y689647D01*
X374120Y689588D01*
X374095Y689531D01*
X374096Y689506D01*
X374089Y689481D01*
X374099Y689420D01*
X374101Y689358D01*
X374114Y689336D01*
X374118Y689310D01*
X374166Y689239D01*
X374184Y689206D01*
X374192Y689200D01*
X374199Y689190D01*
X377014Y686376D01*
X378561Y682641D01*
X378561Y663359D01*
X377014Y659624D01*
X374156Y656766D01*
X372835Y656219D01*
X372784Y656182D01*
X372728Y656152D01*
X372714Y656132D01*
X372695Y656118D01*
X372665Y656062D01*
X372628Y656010D01*
X372623Y655984D01*
X372613Y655965D01*
X372612Y655928D01*
X372601Y655868D01*
X372601Y610341D01*
X372612Y610291D01*
X372614Y610240D01*
X372632Y610208D01*
X372640Y610172D01*
X372673Y610133D01*
X372697Y610088D01*
X372727Y610067D01*
X372750Y610039D01*
X372797Y610018D01*
X372839Y609988D01*
X372881Y609980D01*
X372909Y609968D01*
X372939Y609969D01*
X372981Y609961D01*
X374842Y609961D01*
X376331Y608472D01*
X376331Y595368D01*
X374842Y593879D01*
X362738Y593879D01*
X361249Y595368D01*
X361249Y608472D01*
X362738Y609961D01*
X364599Y609961D01*
X364649Y609972D01*
X364700Y609974D01*
X364732Y609992D01*
X364768Y610000D01*
X364807Y610033D01*
X364852Y610057D01*
X364873Y610087D01*
X364901Y610110D01*
X364922Y610157D01*
X364952Y610199D01*
X364960Y610241D01*
X364972Y610269D01*
X364971Y610299D01*
X364979Y610341D01*
X364979Y655545D01*
X364965Y655607D01*
X364958Y655670D01*
X364945Y655690D01*
X364940Y655714D01*
X364899Y655763D01*
X364865Y655816D01*
X364843Y655831D01*
X364830Y655847D01*
X364795Y655863D01*
X364745Y655896D01*
X362644Y656766D01*
X359786Y659624D01*
X358239Y663359D01*
X358239Y682641D01*
X359786Y686376D01*
X362601Y689190D01*
X362614Y689212D01*
X362634Y689228D01*
X362660Y689285D01*
X362692Y689337D01*
X362695Y689363D01*
X362705Y689387D01*
X362703Y689448D01*
X362709Y689510D01*
X362700Y689534D01*
X362699Y689560D01*
X362669Y689614D01*
X362647Y689672D01*
X362628Y689689D01*
X362616Y689712D01*
X362565Y689747D01*
X362520Y689789D01*
X362495Y689797D01*
X362474Y689812D01*
X362390Y689828D01*
X362354Y689839D01*
X362344Y689837D01*
X362332Y689839D01*
X349068Y689839D01*
X349043Y689833D01*
X349017Y689836D01*
X348960Y689814D01*
X348899Y689800D01*
X348880Y689783D01*
X348855Y689774D01*
X348813Y689729D01*
X348766Y689690D01*
X348755Y689666D01*
X348738Y689647D01*
X348720Y689588D01*
X348695Y689531D01*
X348696Y689506D01*
X348689Y689481D01*
X348699Y689420D01*
X348701Y689358D01*
X348714Y689336D01*
X348718Y689310D01*
X348766Y689239D01*
X348784Y689206D01*
X348792Y689200D01*
X348799Y689190D01*
X351614Y686376D01*
X353161Y682641D01*
X353161Y663359D01*
X351614Y659624D01*
X348756Y656766D01*
X346165Y655693D01*
X346114Y655656D01*
X346058Y655626D01*
X346044Y655606D01*
X346025Y655592D01*
X345995Y655536D01*
X345958Y655484D01*
X345953Y655458D01*
X345943Y655439D01*
X345942Y655402D01*
X345931Y655342D01*
X345931Y609591D01*
X345942Y609541D01*
X345944Y609490D01*
X345962Y609458D01*
X345970Y609422D01*
X346003Y609383D01*
X346027Y609338D01*
X346057Y609317D01*
X346080Y609289D01*
X346127Y609268D01*
X346169Y609238D01*
X346211Y609230D01*
X346239Y609218D01*
X346269Y609219D01*
X346311Y609211D01*
X348172Y609211D01*
X349661Y607722D01*
X349661Y594618D01*
X348172Y593129D01*
X336068Y593129D01*
X334579Y594618D01*
X334579Y607722D01*
X336068Y609211D01*
X337929Y609211D01*
X337979Y609222D01*
X338030Y609224D01*
X338062Y609242D01*
X338098Y609250D01*
X338137Y609283D01*
X338182Y609307D01*
X338203Y609337D01*
X338231Y609360D01*
X338252Y609407D01*
X338282Y609449D01*
X338290Y609491D01*
X338302Y609519D01*
X338301Y609549D01*
X338309Y609591D01*
X338309Y656071D01*
X338295Y656133D01*
X338288Y656196D01*
X338275Y656216D01*
X338270Y656240D01*
X338229Y656289D01*
X338195Y656342D01*
X338173Y656357D01*
X338160Y656373D01*
X338125Y656389D01*
X338075Y656422D01*
X337244Y656766D01*
X334386Y659624D01*
X332839Y663359D01*
X332839Y682641D01*
X334386Y686376D01*
X337201Y689190D01*
X337214Y689212D01*
X337234Y689228D01*
X337260Y689285D01*
X337292Y689337D01*
X337295Y689363D01*
X337305Y689387D01*
X337303Y689448D01*
X337309Y689510D01*
X337300Y689534D01*
X337299Y689560D01*
X337269Y689614D01*
X337247Y689672D01*
X337228Y689689D01*
X337216Y689712D01*
X337165Y689747D01*
X337120Y689789D01*
X337095Y689797D01*
X337074Y689812D01*
X336990Y689828D01*
X336954Y689839D01*
X336944Y689837D01*
X336932Y689839D01*
X323668Y689839D01*
X323643Y689833D01*
X323617Y689836D01*
X323560Y689814D01*
X323499Y689800D01*
X323480Y689783D01*
X323455Y689774D01*
X323413Y689729D01*
X323366Y689690D01*
X323355Y689666D01*
X323338Y689647D01*
X323320Y689588D01*
X323295Y689531D01*
X323296Y689506D01*
X323289Y689481D01*
X323299Y689420D01*
X323301Y689358D01*
X323314Y689336D01*
X323318Y689310D01*
X323366Y689239D01*
X323384Y689206D01*
X323392Y689200D01*
X323399Y689190D01*
X326214Y686376D01*
X327761Y682641D01*
X327761Y663359D01*
X326214Y659624D01*
X323356Y656766D01*
X320765Y655693D01*
X320714Y655656D01*
X320658Y655626D01*
X320644Y655606D01*
X320625Y655592D01*
X320595Y655536D01*
X320558Y655484D01*
X320553Y655458D01*
X320543Y655439D01*
X320542Y655402D01*
X320531Y655342D01*
X320531Y609881D01*
X320542Y609831D01*
X320544Y609780D01*
X320562Y609748D01*
X320570Y609712D01*
X320603Y609673D01*
X320627Y609628D01*
X320657Y609607D01*
X320680Y609579D01*
X320727Y609558D01*
X320769Y609528D01*
X320811Y609520D01*
X320839Y609508D01*
X320869Y609509D01*
X320911Y609501D01*
X322772Y609501D01*
X324261Y608012D01*
X324261Y594908D01*
X322772Y593419D01*
X310668Y593419D01*
X309179Y594908D01*
X309179Y608012D01*
X310668Y609501D01*
X312529Y609501D01*
X312579Y609512D01*
X312630Y609514D01*
X312662Y609532D01*
X312698Y609540D01*
X312737Y609573D01*
X312782Y609597D01*
X312803Y609627D01*
X312831Y609650D01*
X312852Y609697D01*
X312882Y609739D01*
X312890Y609781D01*
X312902Y609809D01*
X312901Y609839D01*
X312909Y609881D01*
X312909Y656071D01*
X312895Y656133D01*
X312888Y656196D01*
X312875Y656216D01*
X312870Y656240D01*
X312829Y656289D01*
X312795Y656342D01*
X312773Y656357D01*
X312760Y656373D01*
X312725Y656389D01*
X312675Y656422D01*
X311844Y656766D01*
X308986Y659624D01*
X307439Y663359D01*
X307439Y682641D01*
X308986Y686376D01*
X311801Y689190D01*
X311814Y689212D01*
X311834Y689228D01*
X311860Y689285D01*
X311892Y689337D01*
X311895Y689363D01*
X311905Y689387D01*
X311903Y689448D01*
X311909Y689510D01*
X311900Y689534D01*
X311899Y689560D01*
X311869Y689614D01*
X311847Y689672D01*
X311828Y689689D01*
X311816Y689712D01*
X311765Y689747D01*
X311720Y689789D01*
X311695Y689797D01*
X311674Y689812D01*
X311590Y689828D01*
X311554Y689839D01*
X311544Y689837D01*
X311532Y689839D01*
X298268Y689839D01*
X298243Y689833D01*
X298217Y689836D01*
X298160Y689814D01*
X298099Y689800D01*
X298080Y689783D01*
X298055Y689774D01*
X298013Y689729D01*
X297966Y689690D01*
X297955Y689666D01*
X297938Y689647D01*
X297920Y689588D01*
X297895Y689531D01*
X297896Y689506D01*
X297889Y689481D01*
X297899Y689420D01*
X297901Y689358D01*
X297914Y689336D01*
X297918Y689310D01*
X297966Y689239D01*
X297984Y689206D01*
X297992Y689200D01*
X297999Y689190D01*
X300814Y686376D01*
X302361Y682641D01*
X302361Y663359D01*
X300814Y659624D01*
X297956Y656766D01*
X296635Y656219D01*
X296584Y656182D01*
X296528Y656152D01*
X296514Y656132D01*
X296495Y656118D01*
X296465Y656062D01*
X296428Y656010D01*
X296423Y655984D01*
X296413Y655965D01*
X296412Y655928D01*
X296401Y655868D01*
X296401Y609361D01*
X296412Y609311D01*
X296414Y609260D01*
X296432Y609228D01*
X296440Y609192D01*
X296473Y609153D01*
X296497Y609108D01*
X296527Y609087D01*
X296550Y609059D01*
X296597Y609038D01*
X296639Y609008D01*
X296681Y609000D01*
X296709Y608988D01*
X296739Y608989D01*
X296781Y608981D01*
X298642Y608981D01*
X300131Y607492D01*
X300131Y594388D01*
X298642Y592899D01*
X286538Y592899D01*
X285049Y594388D01*
X285049Y607492D01*
X286538Y608981D01*
X288399Y608981D01*
X288449Y608992D01*
X288500Y608994D01*
X288532Y609012D01*
X288568Y609020D01*
X288607Y609053D01*
X288652Y609077D01*
X288673Y609107D01*
X288701Y609130D01*
X288722Y609177D01*
X288752Y609219D01*
X288760Y609261D01*
X288772Y609289D01*
X288771Y609319D01*
X288779Y609361D01*
X288779Y655545D01*
X288765Y655607D01*
X288758Y655670D01*
X288745Y655690D01*
X288740Y655714D01*
X288699Y655763D01*
X288665Y655816D01*
X288643Y655831D01*
X288630Y655847D01*
X288595Y655863D01*
X288545Y655896D01*
X286444Y656766D01*
X283586Y659624D01*
X283025Y660980D01*
X283017Y660991D01*
X283013Y661005D01*
X282967Y661061D01*
X282924Y661121D01*
X282912Y661127D01*
X282903Y661138D01*
X282836Y661168D01*
X282771Y661202D01*
X282757Y661203D01*
X282744Y661208D01*
X282671Y661205D01*
X282597Y661207D01*
X282585Y661202D01*
X282571Y661201D01*
X282507Y661166D01*
X282440Y661135D01*
X282431Y661124D01*
X282419Y661118D01*
X282377Y661057D01*
X282331Y661000D01*
X282328Y660987D01*
X282320Y660976D01*
X282293Y660833D01*
X282657Y555195D01*
X270152Y542690D01*
X270139Y542668D01*
X270119Y542652D01*
X270093Y542595D01*
X270061Y542543D01*
X270058Y542517D01*
X270048Y542493D01*
X270050Y542432D01*
X270044Y542370D01*
X270053Y542346D01*
X270054Y542320D01*
X270084Y542266D01*
X270106Y542208D01*
X270125Y542191D01*
X270137Y542168D01*
X270187Y542133D01*
X270233Y542091D01*
X270258Y542083D01*
X270279Y542068D01*
X270363Y542052D01*
X270399Y542041D01*
X270409Y542043D01*
X270421Y542041D01*
X276994Y542041D01*
X277068Y542058D01*
X277143Y542071D01*
X277153Y542078D01*
X277163Y542080D01*
X277192Y542104D01*
X277263Y542152D01*
X286328Y551217D01*
X286718Y551607D01*
X288668Y553557D01*
X288708Y553622D01*
X288752Y553684D01*
X288754Y553696D01*
X288759Y553704D01*
X288763Y553741D01*
X288779Y553826D01*
X288779Y575519D01*
X288768Y575569D01*
X288766Y575620D01*
X288748Y575652D01*
X288740Y575688D01*
X288707Y575727D01*
X288683Y575772D01*
X288653Y575793D01*
X288630Y575821D01*
X288583Y575842D01*
X288541Y575872D01*
X288499Y575880D01*
X288471Y575892D01*
X288441Y575891D01*
X288399Y575899D01*
X286538Y575899D01*
X285049Y577388D01*
X285049Y590492D01*
X286538Y591981D01*
X298642Y591981D01*
X300131Y590492D01*
X300131Y577388D01*
X298642Y575899D01*
X296781Y575899D01*
X296731Y575888D01*
X296680Y575886D01*
X296648Y575868D01*
X296612Y575860D01*
X296573Y575827D01*
X296528Y575803D01*
X296507Y575773D01*
X296479Y575750D01*
X296458Y575703D01*
X296428Y575661D01*
X296420Y575619D01*
X296408Y575591D01*
X296409Y575561D01*
X296401Y575519D01*
X296401Y553926D01*
X296418Y553852D01*
X296423Y553825D01*
X296423Y553817D01*
X296425Y553813D01*
X296431Y553777D01*
X296438Y553767D01*
X296440Y553757D01*
X296464Y553728D01*
X296500Y553675D01*
X296506Y553664D01*
X296509Y553662D01*
X296512Y553657D01*
X311811Y538358D01*
X311811Y427736D01*
X311828Y427662D01*
X311841Y427587D01*
X311848Y427577D01*
X311850Y427567D01*
X311874Y427538D01*
X311922Y427467D01*
X313040Y426349D01*
X313062Y426335D01*
X313078Y426316D01*
X313135Y426290D01*
X313187Y426258D01*
X313213Y426255D01*
X313237Y426245D01*
X313298Y426247D01*
X313360Y426241D01*
X313384Y426250D01*
X313410Y426251D01*
X313464Y426281D01*
X313522Y426303D01*
X313539Y426322D01*
X313562Y426334D01*
X313597Y426384D01*
X313639Y426430D01*
X313647Y426455D01*
X313662Y426476D01*
X313678Y426560D01*
X313689Y426596D01*
X313687Y426606D01*
X313689Y426618D01*
X313689Y576039D01*
X313678Y576089D01*
X313676Y576140D01*
X313658Y576172D01*
X313650Y576208D01*
X313617Y576247D01*
X313593Y576292D01*
X313563Y576313D01*
X313540Y576341D01*
X313493Y576362D01*
X313451Y576392D01*
X313409Y576400D01*
X313381Y576412D01*
X313351Y576411D01*
X313309Y576419D01*
X310668Y576419D01*
X309179Y577908D01*
X309179Y591012D01*
X310668Y592501D01*
X322772Y592501D01*
X324261Y591012D01*
X324261Y577908D01*
X322772Y576419D01*
X321691Y576419D01*
X321641Y576408D01*
X321590Y576406D01*
X321558Y576388D01*
X321522Y576380D01*
X321483Y576347D01*
X321438Y576323D01*
X321417Y576293D01*
X321389Y576270D01*
X321368Y576223D01*
X321338Y576181D01*
X321330Y576139D01*
X321318Y576111D01*
X321319Y576081D01*
X321311Y576039D01*
X321311Y467625D01*
X321317Y467600D01*
X321314Y467575D01*
X321336Y467517D01*
X321350Y467457D01*
X321367Y467437D01*
X321376Y467413D01*
X321421Y467371D01*
X321460Y467323D01*
X321484Y467312D01*
X321503Y467295D01*
X321562Y467277D01*
X321619Y467252D01*
X321644Y467253D01*
X321669Y467246D01*
X321730Y467256D01*
X321792Y467259D01*
X321814Y467271D01*
X321840Y467275D01*
X321911Y467324D01*
X321944Y467341D01*
X321950Y467350D01*
X321960Y467356D01*
X338198Y483594D01*
X338238Y483659D01*
X338282Y483721D01*
X338284Y483733D01*
X338289Y483742D01*
X338293Y483779D01*
X338309Y483863D01*
X338309Y575749D01*
X338298Y575799D01*
X338296Y575850D01*
X338278Y575882D01*
X338270Y575918D01*
X338237Y575957D01*
X338213Y576002D01*
X338183Y576023D01*
X338160Y576051D01*
X338113Y576072D01*
X338071Y576102D01*
X338029Y576110D01*
X338001Y576122D01*
X337971Y576121D01*
X337929Y576129D01*
X336068Y576129D01*
X334579Y577618D01*
X334579Y590722D01*
X336068Y592211D01*
X348172Y592211D01*
X349661Y590722D01*
X349661Y577618D01*
X348172Y576129D01*
X346311Y576129D01*
X346261Y576118D01*
X346210Y576116D01*
X346178Y576098D01*
X346142Y576090D01*
X346103Y576057D01*
X346058Y576033D01*
X346037Y576003D01*
X346009Y575980D01*
X345988Y575933D01*
X345958Y575891D01*
X345950Y575849D01*
X345938Y575821D01*
X345939Y575791D01*
X345931Y575749D01*
X345931Y480549D01*
X326422Y461040D01*
X326389Y460987D01*
X326388Y460986D01*
X326382Y460976D01*
X326338Y460914D01*
X326336Y460902D01*
X326331Y460893D01*
X326327Y460856D01*
X326325Y460845D01*
X326318Y460828D01*
X326318Y460811D01*
X326311Y460771D01*
X326311Y457885D01*
X326317Y457860D01*
X326314Y457835D01*
X326336Y457777D01*
X326350Y457717D01*
X326367Y457697D01*
X326376Y457673D01*
X326421Y457631D01*
X326460Y457583D01*
X326484Y457572D01*
X326503Y457555D01*
X326562Y457537D01*
X326619Y457512D01*
X326644Y457513D01*
X326669Y457506D01*
X326730Y457516D01*
X326792Y457519D01*
X326814Y457531D01*
X326840Y457535D01*
X326911Y457584D01*
X326944Y457601D01*
X326950Y457610D01*
X326960Y457616D01*
X364868Y495524D01*
X364908Y495589D01*
X364952Y495651D01*
X364954Y495663D01*
X364959Y495672D01*
X364963Y495709D01*
X364979Y495793D01*
X364979Y576499D01*
X364968Y576549D01*
X364966Y576600D01*
X364948Y576632D01*
X364940Y576668D01*
X364907Y576707D01*
X364883Y576752D01*
X364853Y576773D01*
X364830Y576801D01*
X364783Y576822D01*
X364741Y576852D01*
X364699Y576860D01*
X364671Y576872D01*
X364641Y576871D01*
X364599Y576879D01*
X362738Y576879D01*
X361249Y578368D01*
X361249Y591472D01*
X362738Y592961D01*
X374842Y592961D01*
X376331Y591472D01*
X376331Y578368D01*
X374842Y576879D01*
X372981Y576879D01*
X372931Y576868D01*
X372880Y576866D01*
X372848Y576848D01*
X372812Y576840D01*
X372773Y576807D01*
X372728Y576783D01*
X372707Y576753D01*
X372679Y576730D01*
X372658Y576683D01*
X372628Y576641D01*
X372620Y576599D01*
X372608Y576571D01*
X372609Y576541D01*
X372601Y576499D01*
X372601Y492479D01*
X331422Y451300D01*
X331382Y451236D01*
X331338Y451174D01*
X331336Y451162D01*
X331331Y451153D01*
X331327Y451116D01*
X331311Y451031D01*
X331311Y447618D01*
X331317Y447593D01*
X331314Y447567D01*
X331336Y447509D01*
X331350Y447449D01*
X331367Y447429D01*
X331376Y447405D01*
X331421Y447363D01*
X331460Y447316D01*
X331484Y447305D01*
X331503Y447287D01*
X331562Y447270D01*
X331619Y447245D01*
X331644Y447246D01*
X331669Y447238D01*
X331730Y447249D01*
X331792Y447251D01*
X331814Y447264D01*
X331840Y447268D01*
X331911Y447316D01*
X331944Y447334D01*
X331950Y447342D01*
X331960Y447349D01*
X390268Y505657D01*
X390308Y505722D01*
X390352Y505784D01*
X390354Y505796D01*
X390359Y505804D01*
X390363Y505841D01*
X390379Y505926D01*
X390379Y575979D01*
X390368Y576029D01*
X390366Y576080D01*
X390348Y576112D01*
X390340Y576148D01*
X390307Y576187D01*
X390283Y576232D01*
X390253Y576253D01*
X390230Y576281D01*
X390183Y576302D01*
X390141Y576332D01*
X390099Y576340D01*
X390071Y576352D01*
X390041Y576351D01*
X389999Y576359D01*
X388138Y576359D01*
X386649Y577848D01*
X386649Y590952D01*
X388138Y592441D01*
X400242Y592441D01*
X401731Y590952D01*
X401731Y577848D01*
X400242Y576359D01*
X398381Y576359D01*
X398331Y576348D01*
X398280Y576346D01*
X398248Y576328D01*
X398212Y576320D01*
X398173Y576287D01*
X398128Y576263D01*
X398107Y576233D01*
X398079Y576210D01*
X398058Y576163D01*
X398028Y576121D01*
X398020Y576079D01*
X398008Y576051D01*
X398008Y576045D01*
X398008Y576044D01*
X398009Y576020D01*
X398001Y575979D01*
X398001Y502612D01*
X336422Y441033D01*
X336382Y440968D01*
X336338Y440906D01*
X336336Y440894D01*
X336331Y440886D01*
X336327Y440849D01*
X336311Y440764D01*
X336311Y438618D01*
X336317Y438593D01*
X336314Y438567D01*
X336336Y438509D01*
X336350Y438449D01*
X336367Y438429D01*
X336376Y438405D01*
X336421Y438363D01*
X336460Y438316D01*
X336484Y438305D01*
X336503Y438287D01*
X336562Y438270D01*
X336619Y438245D01*
X336644Y438246D01*
X336669Y438238D01*
X336730Y438249D01*
X336792Y438251D01*
X336814Y438264D01*
X336840Y438268D01*
X336911Y438316D01*
X336944Y438334D01*
X336950Y438342D01*
X336960Y438349D01*
X415578Y516967D01*
X415618Y517032D01*
X415662Y517094D01*
X415664Y517106D01*
X415669Y517114D01*
X415673Y517151D01*
X415689Y517236D01*
X415689Y518092D01*
X415708Y518122D01*
X415752Y518184D01*
X415754Y518196D01*
X415759Y518204D01*
X415763Y518241D01*
X415779Y518326D01*
X415779Y575459D01*
X415768Y575509D01*
X415766Y575560D01*
X415748Y575592D01*
X415740Y575628D01*
X415707Y575667D01*
X415683Y575712D01*
X415653Y575733D01*
X415630Y575761D01*
X415583Y575782D01*
X415541Y575812D01*
X415499Y575820D01*
X415471Y575832D01*
X415441Y575831D01*
X415399Y575839D01*
X413538Y575839D01*
X412049Y577328D01*
X412049Y590432D01*
X413538Y591921D01*
X425642Y591921D01*
X427131Y590432D01*
X427131Y577328D01*
X425642Y575839D01*
X423781Y575839D01*
X423731Y575828D01*
X423680Y575826D01*
X423648Y575808D01*
X423612Y575800D01*
X423573Y575767D01*
X423528Y575743D01*
X423507Y575713D01*
X423479Y575690D01*
X423458Y575643D01*
X423428Y575601D01*
X423420Y575559D01*
X423408Y575531D01*
X423409Y575501D01*
X423401Y575459D01*
X423401Y514998D01*
X423393Y514985D01*
X423389Y514982D01*
X423383Y514971D01*
X423382Y514968D01*
X423338Y514906D01*
X423336Y514894D01*
X423331Y514886D01*
X423327Y514849D01*
X423326Y514842D01*
X423318Y514824D01*
X423318Y514804D01*
X423311Y514764D01*
X423311Y513922D01*
X341422Y432033D01*
X341382Y431968D01*
X341338Y431906D01*
X341336Y431894D01*
X341331Y431886D01*
X341327Y431849D01*
X341311Y431764D01*
X341311Y430118D01*
X341317Y430093D01*
X341314Y430067D01*
X341336Y430009D01*
X341350Y429949D01*
X341367Y429929D01*
X341376Y429905D01*
X341421Y429863D01*
X341460Y429816D01*
X341484Y429805D01*
X341503Y429787D01*
X341562Y429770D01*
X341619Y429745D01*
X341644Y429746D01*
X341669Y429738D01*
X341730Y429749D01*
X341792Y429751D01*
X341814Y429764D01*
X341840Y429768D01*
X341911Y429816D01*
X341944Y429834D01*
X341950Y429842D01*
X341960Y429849D01*
X441278Y529167D01*
X441318Y529232D01*
X441362Y529294D01*
X441364Y529306D01*
X441369Y529314D01*
X441373Y529351D01*
X441389Y529436D01*
X441389Y575879D01*
X441378Y575929D01*
X441376Y575980D01*
X441358Y576012D01*
X441350Y576048D01*
X441317Y576087D01*
X441293Y576132D01*
X441263Y576153D01*
X441240Y576181D01*
X441193Y576202D01*
X441151Y576232D01*
X441109Y576240D01*
X441081Y576252D01*
X441051Y576251D01*
X441009Y576259D01*
X439148Y576259D01*
X437659Y577748D01*
X437659Y590852D01*
X439148Y592341D01*
X451252Y592341D01*
X452741Y590852D01*
X452741Y577748D01*
X451252Y576259D01*
X449391Y576259D01*
X449341Y576248D01*
X449290Y576246D01*
X449258Y576228D01*
X449222Y576220D01*
X449183Y576187D01*
X449138Y576163D01*
X449117Y576133D01*
X449089Y576110D01*
X449068Y576063D01*
X449038Y576021D01*
X449030Y575979D01*
X449018Y575951D01*
X449019Y575921D01*
X449011Y575879D01*
X449011Y526122D01*
X346422Y423533D01*
X346382Y423468D01*
X346338Y423406D01*
X346336Y423394D01*
X346331Y423386D01*
X346327Y423349D01*
X346311Y423264D01*
X346311Y421069D01*
X346317Y421044D01*
X346314Y421018D01*
X346336Y420961D01*
X346350Y420901D01*
X346367Y420881D01*
X346376Y420857D01*
X346421Y420815D01*
X346460Y420767D01*
X346484Y420756D01*
X346503Y420739D01*
X346562Y420721D01*
X346619Y420696D01*
X346644Y420697D01*
X346669Y420690D01*
X346730Y420700D01*
X346792Y420703D01*
X346814Y420715D01*
X346840Y420719D01*
X346911Y420768D01*
X346944Y420785D01*
X346950Y420793D01*
X346960Y420800D01*
X466498Y540338D01*
X466513Y540363D01*
X466531Y540378D01*
X466551Y540421D01*
X466582Y540465D01*
X466584Y540477D01*
X466589Y540486D01*
X466592Y540513D01*
X466602Y540536D01*
X466601Y540566D01*
X466609Y540607D01*
X466609Y575969D01*
X466598Y576019D01*
X466596Y576070D01*
X466578Y576102D01*
X466570Y576138D01*
X466537Y576177D01*
X466513Y576222D01*
X466483Y576243D01*
X466460Y576271D01*
X466413Y576292D01*
X466371Y576322D01*
X466329Y576330D01*
X466301Y576342D01*
X466271Y576341D01*
X466229Y576349D01*
X464368Y576349D01*
X462879Y577838D01*
X462879Y590942D01*
X464368Y592431D01*
X476472Y592431D01*
X477961Y590942D01*
X477961Y577838D01*
X476472Y576349D01*
X474611Y576349D01*
X474561Y576338D01*
X474510Y576336D01*
X474478Y576318D01*
X474442Y576310D01*
X474403Y576277D01*
X474358Y576253D01*
X474337Y576223D01*
X474309Y576200D01*
X474288Y576153D01*
X474258Y576111D01*
X474250Y576069D01*
X474238Y576041D01*
X474239Y576011D01*
X474231Y575969D01*
X474231Y537293D01*
X355284Y418347D01*
X355258Y418303D01*
X355223Y418266D01*
X355212Y418230D01*
X355193Y418199D01*
X355188Y418149D01*
X355174Y418100D01*
X355180Y418063D01*
X355176Y418027D01*
X355195Y417979D01*
X355203Y417929D01*
X355227Y417894D01*
X355238Y417865D01*
X355261Y417844D01*
X355284Y417809D01*
X356541Y416552D01*
X356541Y416348D01*
X356547Y416323D01*
X356544Y416297D01*
X356566Y416239D01*
X356580Y416179D01*
X356597Y416159D01*
X356606Y416135D01*
X356651Y416093D01*
X356690Y416046D01*
X356714Y416035D01*
X356733Y416017D01*
X356792Y416000D01*
X356849Y415975D01*
X356874Y415976D01*
X356899Y415968D01*
X356960Y415979D01*
X357022Y415981D01*
X357044Y415994D01*
X357070Y415998D01*
X357141Y416046D01*
X357174Y416064D01*
X357180Y416072D01*
X357190Y416079D01*
X491188Y550077D01*
X491228Y550142D01*
X491272Y550204D01*
X491274Y550216D01*
X491279Y550224D01*
X491283Y550261D01*
X491299Y550346D01*
X491299Y576349D01*
X491288Y576399D01*
X491286Y576450D01*
X491268Y576482D01*
X491260Y576518D01*
X491227Y576557D01*
X491203Y576602D01*
X491173Y576623D01*
X491150Y576651D01*
X491103Y576672D01*
X491061Y576702D01*
X491019Y576710D01*
X490991Y576722D01*
X490961Y576721D01*
X490919Y576729D01*
X489058Y576729D01*
X487569Y578218D01*
X487569Y591322D01*
X489058Y592811D01*
X501162Y592811D01*
X502651Y591322D01*
X502651Y578218D01*
X501162Y576729D01*
X499301Y576729D01*
X499251Y576718D01*
X499200Y576716D01*
X499168Y576698D01*
X499132Y576690D01*
X499093Y576657D01*
X499048Y576633D01*
X499027Y576603D01*
X498999Y576580D01*
X498978Y576533D01*
X498948Y576491D01*
X498940Y576449D01*
X498928Y576421D01*
X498929Y576391D01*
X498921Y576349D01*
X498921Y547032D01*
X361422Y409533D01*
X360579Y408690D01*
X360565Y408668D01*
X360546Y408652D01*
X360520Y408595D01*
X360488Y408543D01*
X360485Y408517D01*
X360475Y408493D01*
X360477Y408432D01*
X360471Y408370D01*
X360480Y408346D01*
X360481Y408320D01*
X360511Y408266D01*
X360533Y408208D01*
X360552Y408191D01*
X360564Y408168D01*
X360614Y408133D01*
X360660Y408091D01*
X360685Y408083D01*
X360706Y408068D01*
X360790Y408052D01*
X360826Y408041D01*
X360836Y408043D01*
X360848Y408041D01*
X363494Y408041D01*
X363568Y408058D01*
X363643Y408071D01*
X363653Y408078D01*
X363663Y408080D01*
X363692Y408104D01*
X363763Y408152D01*
X516538Y560927D01*
X516578Y560992D01*
X516622Y561054D01*
X516624Y561066D01*
X516629Y561074D01*
X516633Y561111D01*
X516649Y561196D01*
X516649Y576289D01*
X516638Y576339D01*
X516636Y576390D01*
X516618Y576422D01*
X516610Y576458D01*
X516577Y576497D01*
X516553Y576542D01*
X516523Y576563D01*
X516500Y576591D01*
X516453Y576612D01*
X516411Y576642D01*
X516369Y576650D01*
X516341Y576662D01*
X516311Y576661D01*
X516269Y576669D01*
X514408Y576669D01*
X512919Y578158D01*
X512919Y591262D01*
X514408Y592751D01*
X526512Y592751D01*
X528001Y591262D01*
X528001Y578158D01*
X526512Y576669D01*
X524651Y576669D01*
X524601Y576658D01*
X524550Y576656D01*
X524518Y576638D01*
X524482Y576630D01*
X524443Y576597D01*
X524398Y576573D01*
X524377Y576543D01*
X524349Y576520D01*
X524328Y576473D01*
X524298Y576431D01*
X524290Y576389D01*
X524278Y576361D01*
X524279Y576331D01*
X524271Y576289D01*
X524271Y557882D01*
X521927Y555538D01*
X372658Y406269D01*
X372644Y406247D01*
X372625Y406231D01*
X372599Y406174D01*
X372567Y406122D01*
X372564Y406096D01*
X372554Y406072D01*
X372556Y406011D01*
X372550Y405949D01*
X372559Y405925D01*
X372560Y405899D01*
X372590Y405845D01*
X372612Y405787D01*
X372631Y405770D01*
X372643Y405747D01*
X372693Y405712D01*
X372739Y405670D01*
X372764Y405662D01*
X372785Y405647D01*
X372869Y405631D01*
X372905Y405620D01*
X372915Y405622D01*
X372927Y405620D01*
X381500Y405620D01*
X381574Y405637D01*
G37*
%LPC*%
G36*
X437868Y322975D02*
X437868Y322975D01*
X436975Y323868D01*
X436975Y338132D01*
X437868Y339025D01*
X466132Y339025D01*
X467036Y338121D01*
X467050Y338083D01*
X467064Y338022D01*
X467081Y338002D01*
X467090Y337978D01*
X467135Y337936D01*
X467174Y337889D01*
X467198Y337878D01*
X467217Y337861D01*
X467276Y337843D01*
X467333Y337818D01*
X467358Y337819D01*
X467383Y337811D01*
X467444Y337822D01*
X467506Y337824D01*
X467528Y337837D01*
X467554Y337841D01*
X467625Y337889D01*
X467658Y337907D01*
X467664Y337915D01*
X467674Y337922D01*
X472324Y342572D01*
X472364Y342637D01*
X472408Y342699D01*
X472410Y342711D01*
X472415Y342720D01*
X472419Y342757D01*
X472435Y342841D01*
X472435Y411159D01*
X472418Y411233D01*
X472405Y411308D01*
X472398Y411318D01*
X472396Y411328D01*
X472372Y411356D01*
X472324Y411428D01*
X469428Y414324D01*
X468428Y415324D01*
X468363Y415364D01*
X468301Y415408D01*
X468289Y415410D01*
X468280Y415415D01*
X468243Y415419D01*
X468159Y415435D01*
X467405Y415435D01*
X467355Y415424D01*
X467304Y415422D01*
X467272Y415404D01*
X467236Y415396D01*
X467197Y415363D01*
X467152Y415339D01*
X467131Y415309D01*
X467103Y415286D01*
X467082Y415239D01*
X467052Y415197D01*
X467044Y415155D01*
X467032Y415127D01*
X467033Y415097D01*
X467025Y415055D01*
X467025Y412368D01*
X466132Y411475D01*
X437868Y411475D01*
X436975Y412368D01*
X436975Y426632D01*
X437868Y427525D01*
X466132Y427525D01*
X467025Y426632D01*
X467025Y423945D01*
X467036Y423895D01*
X467038Y423844D01*
X467056Y423812D01*
X467064Y423776D01*
X467097Y423737D01*
X467121Y423692D01*
X467151Y423671D01*
X467174Y423643D01*
X467221Y423622D01*
X467263Y423592D01*
X467305Y423584D01*
X467333Y423572D01*
X467363Y423573D01*
X467405Y423565D01*
X470159Y423565D01*
X470233Y423582D01*
X470308Y423595D01*
X470318Y423602D01*
X470328Y423604D01*
X470356Y423628D01*
X470428Y423676D01*
X472324Y425572D01*
X472364Y425637D01*
X472408Y425699D01*
X472410Y425711D01*
X472415Y425720D01*
X472419Y425757D01*
X472435Y425841D01*
X472435Y480902D01*
X472418Y480976D01*
X472414Y480997D01*
X472414Y481011D01*
X472411Y481016D01*
X472405Y481051D01*
X472398Y481061D01*
X472396Y481071D01*
X472372Y481100D01*
X472338Y481150D01*
X472331Y481163D01*
X472328Y481165D01*
X472324Y481171D01*
X471193Y482302D01*
X471193Y486698D01*
X474302Y489807D01*
X478698Y489807D01*
X481099Y487406D01*
X481163Y487366D01*
X481225Y487322D01*
X481237Y487320D01*
X481246Y487315D01*
X481283Y487311D01*
X481368Y487295D01*
X556685Y487295D01*
X556759Y487312D01*
X556834Y487325D01*
X556844Y487332D01*
X556854Y487334D01*
X556882Y487358D01*
X556954Y487406D01*
X578094Y508546D01*
X578134Y508611D01*
X578178Y508673D01*
X578180Y508685D01*
X578185Y508693D01*
X578189Y508730D01*
X578205Y508815D01*
X578205Y597158D01*
X590534Y609486D01*
X590574Y609551D01*
X590618Y609613D01*
X590620Y609625D01*
X590625Y609633D01*
X590629Y609670D01*
X590645Y609755D01*
X590645Y617132D01*
X591538Y618025D01*
X603802Y618025D01*
X604695Y617132D01*
X604695Y605868D01*
X603802Y604975D01*
X594085Y604975D01*
X594011Y604958D01*
X593936Y604945D01*
X593926Y604938D01*
X593916Y604936D01*
X593888Y604912D01*
X593816Y604864D01*
X583906Y594954D01*
X583866Y594889D01*
X583822Y594827D01*
X583820Y594815D01*
X583815Y594807D01*
X583811Y594770D01*
X583795Y594685D01*
X583795Y506342D01*
X559158Y481705D01*
X481368Y481705D01*
X481294Y481688D01*
X481219Y481675D01*
X481209Y481668D01*
X481199Y481666D01*
X481170Y481642D01*
X481099Y481594D01*
X480676Y481171D01*
X480664Y481152D01*
X480650Y481141D01*
X480634Y481103D01*
X480592Y481045D01*
X480590Y481033D01*
X480585Y481024D01*
X480581Y480987D01*
X480581Y480986D01*
X480580Y480983D01*
X480580Y480979D01*
X480565Y480902D01*
X480565Y339316D01*
X468184Y326935D01*
X467405Y326935D01*
X467355Y326924D01*
X467304Y326922D01*
X467272Y326904D01*
X467236Y326896D01*
X467197Y326863D01*
X467152Y326839D01*
X467131Y326809D01*
X467103Y326786D01*
X467082Y326739D01*
X467052Y326697D01*
X467044Y326655D01*
X467032Y326627D01*
X467033Y326603D01*
X467032Y326601D01*
X467032Y326593D01*
X467025Y326555D01*
X467025Y323868D01*
X466132Y322975D01*
X437868Y322975D01*
G37*
%LPD*%
G36*
X297379Y414248D02*
X297379Y414248D01*
X297410Y414250D01*
X297460Y414277D01*
X297513Y414295D01*
X297535Y414317D01*
X297562Y414332D01*
X297594Y414379D01*
X297634Y414419D01*
X297644Y414449D01*
X297662Y414474D01*
X297676Y414546D01*
X297688Y414584D01*
X297686Y414598D01*
X297689Y414616D01*
X297689Y447264D01*
X297672Y447338D01*
X297659Y447413D01*
X297652Y447423D01*
X297650Y447433D01*
X297626Y447462D01*
X297578Y447533D01*
X289989Y455122D01*
X289989Y467079D01*
X289978Y467129D01*
X289976Y467180D01*
X289958Y467212D01*
X289950Y467248D01*
X289917Y467287D01*
X289893Y467332D01*
X289863Y467353D01*
X289840Y467381D01*
X289793Y467402D01*
X289751Y467432D01*
X289709Y467440D01*
X289681Y467452D01*
X289651Y467451D01*
X289609Y467459D01*
X287748Y467459D01*
X286259Y468948D01*
X286259Y482052D01*
X287748Y483541D01*
X299852Y483541D01*
X301341Y482052D01*
X301341Y468948D01*
X299852Y467459D01*
X297991Y467459D01*
X297941Y467448D01*
X297890Y467446D01*
X297858Y467428D01*
X297822Y467420D01*
X297783Y467387D01*
X297738Y467363D01*
X297717Y467333D01*
X297689Y467310D01*
X297668Y467263D01*
X297638Y467221D01*
X297630Y467179D01*
X297618Y467151D01*
X297619Y467121D01*
X297611Y467079D01*
X297611Y458436D01*
X297624Y458379D01*
X297624Y458374D01*
X297626Y458371D01*
X297628Y458362D01*
X297641Y458287D01*
X297648Y458277D01*
X297650Y458267D01*
X297674Y458238D01*
X297722Y458167D01*
X303540Y452349D01*
X303562Y452335D01*
X303578Y452316D01*
X303635Y452290D01*
X303687Y452258D01*
X303713Y452255D01*
X303737Y452245D01*
X303798Y452247D01*
X303860Y452241D01*
X303884Y452250D01*
X303910Y452251D01*
X303964Y452281D01*
X304022Y452303D01*
X304039Y452322D01*
X304062Y452334D01*
X304097Y452384D01*
X304139Y452430D01*
X304147Y452455D01*
X304162Y452476D01*
X304178Y452560D01*
X304189Y452596D01*
X304187Y452606D01*
X304189Y452618D01*
X304189Y535044D01*
X304172Y535118D01*
X304159Y535193D01*
X304152Y535203D01*
X304150Y535213D01*
X304126Y535242D01*
X304078Y535313D01*
X293173Y546218D01*
X293108Y546258D01*
X293046Y546302D01*
X293034Y546304D01*
X293026Y546309D01*
X292989Y546313D01*
X292904Y546329D01*
X292376Y546329D01*
X292302Y546312D01*
X292227Y546299D01*
X292217Y546292D01*
X292207Y546290D01*
X292178Y546266D01*
X292107Y546218D01*
X291717Y545828D01*
X282152Y536263D01*
X282112Y536198D01*
X282068Y536136D01*
X282066Y536124D01*
X282061Y536116D01*
X282057Y536079D01*
X282041Y535994D01*
X282041Y527448D01*
X280552Y525959D01*
X268448Y525959D01*
X266959Y527448D01*
X266959Y538579D01*
X266953Y538604D01*
X266956Y538630D01*
X266934Y538688D01*
X266920Y538748D01*
X266903Y538768D01*
X266894Y538792D01*
X266849Y538834D01*
X266810Y538881D01*
X266786Y538892D01*
X266767Y538909D01*
X266708Y538927D01*
X266651Y538952D01*
X266626Y538951D01*
X266601Y538959D01*
X266540Y538948D01*
X266478Y538946D01*
X266456Y538933D01*
X266430Y538929D01*
X266359Y538881D01*
X266326Y538863D01*
X266320Y538855D01*
X266310Y538848D01*
X263001Y535539D01*
X262991Y535522D01*
X262983Y535516D01*
X262972Y535492D01*
X262961Y535474D01*
X262917Y535412D01*
X262915Y535400D01*
X262910Y535392D01*
X262906Y535355D01*
X262890Y535270D01*
X262890Y511230D01*
X262907Y511156D01*
X262920Y511081D01*
X262927Y511071D01*
X262929Y511061D01*
X262953Y511032D01*
X263001Y510961D01*
X268731Y505231D01*
X268796Y505191D01*
X268858Y505147D01*
X268870Y505145D01*
X268878Y505140D01*
X268915Y505136D01*
X269000Y505120D01*
X269809Y505120D01*
X269859Y505131D01*
X269910Y505133D01*
X269942Y505151D01*
X269978Y505159D01*
X270017Y505192D01*
X270062Y505216D01*
X270083Y505246D01*
X270111Y505269D01*
X270132Y505316D01*
X270162Y505358D01*
X270170Y505400D01*
X270182Y505428D01*
X270181Y505458D01*
X270189Y505500D01*
X270189Y508579D01*
X270178Y508629D01*
X270176Y508680D01*
X270158Y508712D01*
X270150Y508748D01*
X270117Y508787D01*
X270093Y508832D01*
X270063Y508853D01*
X270040Y508881D01*
X269993Y508902D01*
X269951Y508932D01*
X269909Y508940D01*
X269881Y508952D01*
X269851Y508951D01*
X269809Y508959D01*
X268448Y508959D01*
X266959Y510448D01*
X266959Y523552D01*
X268448Y525041D01*
X280552Y525041D01*
X282041Y523552D01*
X282041Y510448D01*
X280552Y508959D01*
X278191Y508959D01*
X278141Y508948D01*
X278090Y508946D01*
X278058Y508928D01*
X278022Y508920D01*
X277983Y508887D01*
X277938Y508863D01*
X277917Y508833D01*
X277889Y508810D01*
X277868Y508763D01*
X277838Y508721D01*
X277830Y508679D01*
X277818Y508651D01*
X277819Y508621D01*
X277811Y508579D01*
X277811Y505500D01*
X277822Y505450D01*
X277824Y505399D01*
X277842Y505367D01*
X277850Y505331D01*
X277883Y505292D01*
X277907Y505247D01*
X277937Y505226D01*
X277960Y505198D01*
X278007Y505177D01*
X278049Y505147D01*
X278091Y505139D01*
X278119Y505127D01*
X278149Y505128D01*
X278191Y505120D01*
X281343Y505120D01*
X284120Y502343D01*
X284120Y458133D01*
X284136Y458064D01*
X284146Y457993D01*
X284156Y457978D01*
X284159Y457964D01*
X284184Y457934D01*
X284224Y457871D01*
X295620Y445848D01*
X295620Y416000D01*
X295636Y415931D01*
X295646Y415861D01*
X295656Y415846D01*
X295659Y415831D01*
X295684Y415801D01*
X295724Y415739D01*
X297033Y414355D01*
X297059Y414338D01*
X297078Y414314D01*
X297130Y414291D01*
X297177Y414259D01*
X297208Y414256D01*
X297237Y414243D01*
X297293Y414245D01*
X297349Y414238D01*
X297379Y414248D01*
G37*
%LPC*%
G36*
X437868Y383475D02*
X437868Y383475D01*
X436975Y384368D01*
X436975Y387055D01*
X436964Y387105D01*
X436962Y387156D01*
X436944Y387188D01*
X436936Y387224D01*
X436903Y387263D01*
X436879Y387308D01*
X436849Y387329D01*
X436826Y387357D01*
X436779Y387378D01*
X436737Y387408D01*
X436695Y387416D01*
X436667Y387428D01*
X436637Y387427D01*
X436595Y387435D01*
X434405Y387435D01*
X434355Y387424D01*
X434304Y387422D01*
X434272Y387404D01*
X434236Y387396D01*
X434197Y387363D01*
X434152Y387339D01*
X434131Y387309D01*
X434103Y387286D01*
X434082Y387239D01*
X434052Y387197D01*
X434044Y387155D01*
X434032Y387127D01*
X434033Y387097D01*
X434025Y387055D01*
X434025Y385368D01*
X433132Y384475D01*
X421868Y384475D01*
X420975Y385368D01*
X420975Y387055D01*
X420964Y387105D01*
X420962Y387156D01*
X420944Y387188D01*
X420936Y387224D01*
X420903Y387263D01*
X420879Y387308D01*
X420849Y387329D01*
X420826Y387357D01*
X420779Y387378D01*
X420737Y387408D01*
X420695Y387416D01*
X420667Y387428D01*
X420637Y387427D01*
X420595Y387435D01*
X417405Y387435D01*
X417355Y387424D01*
X417304Y387422D01*
X417272Y387404D01*
X417236Y387396D01*
X417197Y387363D01*
X417152Y387339D01*
X417131Y387309D01*
X417103Y387286D01*
X417082Y387239D01*
X417052Y387197D01*
X417044Y387155D01*
X417032Y387127D01*
X417033Y387097D01*
X417025Y387055D01*
X417025Y385368D01*
X416132Y384475D01*
X404868Y384475D01*
X403975Y385368D01*
X403975Y387055D01*
X403964Y387105D01*
X403962Y387156D01*
X403944Y387188D01*
X403936Y387224D01*
X403903Y387263D01*
X403879Y387308D01*
X403849Y387329D01*
X403826Y387357D01*
X403779Y387378D01*
X403737Y387408D01*
X403695Y387416D01*
X403667Y387428D01*
X403637Y387427D01*
X403595Y387435D01*
X375598Y387435D01*
X375524Y387418D01*
X375449Y387405D01*
X375439Y387398D01*
X375429Y387396D01*
X375400Y387372D01*
X375329Y387324D01*
X374198Y386193D01*
X370267Y386193D01*
X370244Y386188D01*
X370213Y386189D01*
X369374Y386070D01*
X369295Y386129D01*
X369249Y386149D01*
X369209Y386178D01*
X369165Y386186D01*
X369136Y386199D01*
X369107Y386198D01*
X369067Y386205D01*
X366921Y386205D01*
X366871Y386194D01*
X366820Y386192D01*
X366788Y386174D01*
X366752Y386166D01*
X366713Y386133D01*
X366668Y386109D01*
X366647Y386079D01*
X366619Y386056D01*
X366598Y386009D01*
X366568Y385967D01*
X366560Y385925D01*
X366548Y385897D01*
X366549Y385867D01*
X366541Y385825D01*
X366541Y384749D01*
X359869Y384749D01*
X359820Y384738D01*
X359769Y384736D01*
X359736Y384718D01*
X359700Y384710D01*
X359661Y384677D01*
X359616Y384653D01*
X359595Y384623D01*
X359567Y384600D01*
X359546Y384553D01*
X359517Y384511D01*
X359508Y384469D01*
X359498Y384447D01*
X359497Y384470D01*
X359480Y384502D01*
X359472Y384538D01*
X359439Y384577D01*
X359415Y384622D01*
X359385Y384643D01*
X359361Y384671D01*
X359315Y384692D01*
X359273Y384722D01*
X359231Y384730D01*
X359203Y384742D01*
X359173Y384741D01*
X359131Y384749D01*
X352459Y384749D01*
X352459Y385835D01*
X352632Y386481D01*
X352967Y387060D01*
X353364Y387457D01*
X353404Y387522D01*
X353448Y387584D01*
X353450Y387596D01*
X353455Y387604D01*
X353459Y387641D01*
X353464Y387666D01*
X353468Y387677D01*
X353468Y387688D01*
X353475Y387726D01*
X353475Y391132D01*
X353575Y391231D01*
X353602Y391274D01*
X353636Y391312D01*
X353647Y391347D01*
X353666Y391378D01*
X353671Y391429D01*
X353686Y391478D01*
X353679Y391514D01*
X353683Y391551D01*
X353665Y391598D01*
X353656Y391649D01*
X353632Y391684D01*
X353621Y391713D01*
X353599Y391733D01*
X353575Y391769D01*
X353475Y391868D01*
X353475Y395274D01*
X353458Y395348D01*
X353445Y395423D01*
X353438Y395433D01*
X353436Y395443D01*
X353412Y395472D01*
X353364Y395543D01*
X352967Y395940D01*
X352632Y396519D01*
X352459Y397165D01*
X352459Y398251D01*
X359131Y398251D01*
X359180Y398262D01*
X359231Y398264D01*
X359264Y398282D01*
X359300Y398290D01*
X359339Y398323D01*
X359384Y398347D01*
X359405Y398377D01*
X359433Y398400D01*
X359454Y398447D01*
X359483Y398489D01*
X359492Y398531D01*
X359502Y398553D01*
X359503Y398530D01*
X359520Y398498D01*
X359528Y398462D01*
X359561Y398423D01*
X359585Y398378D01*
X359615Y398357D01*
X359639Y398329D01*
X359685Y398308D01*
X359727Y398278D01*
X359769Y398270D01*
X359797Y398258D01*
X359827Y398259D01*
X359869Y398251D01*
X366541Y398251D01*
X366541Y397175D01*
X366552Y397125D01*
X366554Y397074D01*
X366572Y397042D01*
X366580Y397006D01*
X366613Y396967D01*
X366637Y396922D01*
X366667Y396901D01*
X366690Y396873D01*
X366737Y396852D01*
X366779Y396822D01*
X366821Y396814D01*
X366849Y396802D01*
X366879Y396803D01*
X366921Y396795D01*
X368962Y396795D01*
X368974Y396798D01*
X368991Y396796D01*
X370038Y396876D01*
X370051Y396870D01*
X370102Y396834D01*
X370130Y396829D01*
X370150Y396818D01*
X370187Y396818D01*
X370244Y396807D01*
X374198Y396807D01*
X375329Y395676D01*
X375393Y395636D01*
X375455Y395592D01*
X375467Y395590D01*
X375476Y395585D01*
X375513Y395581D01*
X375598Y395565D01*
X403595Y395565D01*
X403645Y395576D01*
X403696Y395578D01*
X403728Y395596D01*
X403764Y395604D01*
X403803Y395637D01*
X403848Y395661D01*
X403869Y395691D01*
X403897Y395714D01*
X403918Y395761D01*
X403948Y395803D01*
X403956Y395845D01*
X403968Y395873D01*
X403967Y395903D01*
X403975Y395945D01*
X403975Y397632D01*
X404868Y398525D01*
X416132Y398525D01*
X417025Y397632D01*
X417025Y395945D01*
X417036Y395895D01*
X417038Y395844D01*
X417056Y395812D01*
X417064Y395776D01*
X417097Y395737D01*
X417121Y395692D01*
X417151Y395671D01*
X417174Y395643D01*
X417221Y395622D01*
X417263Y395592D01*
X417305Y395584D01*
X417333Y395572D01*
X417363Y395573D01*
X417405Y395565D01*
X420595Y395565D01*
X420645Y395576D01*
X420696Y395578D01*
X420728Y395596D01*
X420764Y395604D01*
X420803Y395637D01*
X420848Y395661D01*
X420869Y395691D01*
X420897Y395714D01*
X420918Y395761D01*
X420948Y395803D01*
X420956Y395845D01*
X420968Y395873D01*
X420967Y395903D01*
X420975Y395945D01*
X420975Y397632D01*
X421868Y398525D01*
X433132Y398525D01*
X434025Y397632D01*
X434025Y395945D01*
X434036Y395895D01*
X434038Y395844D01*
X434056Y395812D01*
X434064Y395776D01*
X434097Y395737D01*
X434121Y395692D01*
X434151Y395671D01*
X434174Y395643D01*
X434221Y395622D01*
X434263Y395592D01*
X434305Y395584D01*
X434333Y395572D01*
X434363Y395573D01*
X434405Y395565D01*
X436595Y395565D01*
X436645Y395576D01*
X436696Y395578D01*
X436728Y395596D01*
X436764Y395604D01*
X436803Y395637D01*
X436848Y395661D01*
X436869Y395691D01*
X436897Y395714D01*
X436918Y395761D01*
X436948Y395803D01*
X436956Y395845D01*
X436968Y395873D01*
X436967Y395903D01*
X436975Y395945D01*
X436975Y398632D01*
X437868Y399525D01*
X466132Y399525D01*
X467025Y398632D01*
X467025Y384368D01*
X466132Y383475D01*
X437868Y383475D01*
G37*
%LPD*%
%LPC*%
G36*
X475761Y95761D02*
X475761Y95761D01*
X475761Y122941D01*
X476569Y122941D01*
X479687Y122589D01*
X482747Y121891D01*
X485709Y120855D01*
X488537Y119493D01*
X491194Y117823D01*
X493648Y115867D01*
X495867Y113648D01*
X497823Y111194D01*
X499493Y108537D01*
X500855Y105709D01*
X501891Y102747D01*
X502589Y99687D01*
X502941Y96569D01*
X502941Y95761D01*
X475761Y95761D01*
G37*
%LPD*%
%LPC*%
G36*
X225761Y95761D02*
X225761Y95761D01*
X225761Y122941D01*
X226569Y122941D01*
X229687Y122589D01*
X232747Y121891D01*
X235709Y120855D01*
X238537Y119493D01*
X241194Y117823D01*
X243648Y115867D01*
X245867Y113648D01*
X247823Y111194D01*
X249493Y108537D01*
X250855Y105709D01*
X251891Y102747D01*
X252589Y99687D01*
X252941Y96569D01*
X252941Y95761D01*
X225761Y95761D01*
G37*
%LPD*%
%LPC*%
G36*
X447059Y95761D02*
X447059Y95761D01*
X447059Y96569D01*
X447411Y99687D01*
X448109Y102747D01*
X449145Y105709D01*
X450507Y108537D01*
X452177Y111194D01*
X454133Y113648D01*
X456352Y115867D01*
X458806Y117823D01*
X461463Y119493D01*
X464291Y120855D01*
X467253Y121891D01*
X470313Y122589D01*
X473431Y122941D01*
X474239Y122941D01*
X474239Y95761D01*
X447059Y95761D01*
G37*
%LPD*%
%LPC*%
G36*
X197059Y95761D02*
X197059Y95761D01*
X197059Y96569D01*
X197411Y99687D01*
X198109Y102747D01*
X199145Y105709D01*
X200507Y108537D01*
X202177Y111194D01*
X204133Y113648D01*
X206352Y115867D01*
X208806Y117823D01*
X211463Y119493D01*
X214291Y120855D01*
X217253Y121891D01*
X220313Y122589D01*
X223431Y122941D01*
X224239Y122941D01*
X224239Y95761D01*
X197059Y95761D01*
G37*
%LPD*%
%LPC*%
G36*
X225761Y67059D02*
X225761Y67059D01*
X225761Y94239D01*
X252941Y94239D01*
X252941Y93431D01*
X252589Y90313D01*
X251891Y87253D01*
X250855Y84291D01*
X249493Y81463D01*
X247823Y78806D01*
X245867Y76352D01*
X243648Y74133D01*
X241194Y72177D01*
X238537Y70507D01*
X235709Y69145D01*
X232747Y68109D01*
X229687Y67411D01*
X226569Y67059D01*
X225761Y67059D01*
G37*
%LPD*%
%LPC*%
G36*
X475761Y67059D02*
X475761Y67059D01*
X475761Y94239D01*
X502941Y94239D01*
X502941Y93431D01*
X502589Y90313D01*
X501891Y87253D01*
X500855Y84291D01*
X499493Y81463D01*
X497823Y78806D01*
X495867Y76352D01*
X493648Y74133D01*
X491194Y72177D01*
X488537Y70507D01*
X485709Y69145D01*
X482747Y68109D01*
X479687Y67411D01*
X476569Y67059D01*
X475761Y67059D01*
G37*
%LPD*%
%LPC*%
G36*
X223431Y67059D02*
X223431Y67059D01*
X220313Y67411D01*
X217253Y68109D01*
X214291Y69145D01*
X211463Y70507D01*
X208806Y72177D01*
X206352Y74133D01*
X204133Y76352D01*
X202177Y78806D01*
X200507Y81463D01*
X199145Y84291D01*
X198109Y87253D01*
X197411Y90313D01*
X197059Y93431D01*
X197059Y94239D01*
X224239Y94239D01*
X224239Y67059D01*
X223431Y67059D01*
G37*
%LPD*%
%LPC*%
G36*
X473431Y67059D02*
X473431Y67059D01*
X470313Y67411D01*
X467253Y68109D01*
X464291Y69145D01*
X461463Y70507D01*
X458806Y72177D01*
X456352Y74133D01*
X454133Y76352D01*
X452177Y78806D01*
X450507Y81463D01*
X449145Y84291D01*
X448109Y87253D01*
X447411Y90313D01*
X447059Y93431D01*
X447059Y94239D01*
X474239Y94239D01*
X474239Y67059D01*
X473431Y67059D01*
G37*
%LPD*%
%LPC*%
G36*
X395370Y98277D02*
X395370Y98277D01*
X394477Y99170D01*
X394477Y119230D01*
X395370Y120123D01*
X415430Y120123D01*
X416323Y119230D01*
X416323Y99170D01*
X415430Y98277D01*
X395370Y98277D01*
G37*
%LPD*%
%LPC*%
G36*
X667460Y602609D02*
X667460Y602609D01*
X666814Y602782D01*
X666235Y603117D01*
X665762Y603590D01*
X665578Y603909D01*
X665568Y603919D01*
X665563Y603932D01*
X665509Y603982D01*
X665459Y604036D01*
X665446Y604040D01*
X665436Y604050D01*
X665366Y604071D01*
X665297Y604096D01*
X665283Y604095D01*
X665270Y604099D01*
X665198Y604086D01*
X665124Y604079D01*
X665113Y604071D01*
X665099Y604069D01*
X664979Y603988D01*
X664617Y603625D01*
X657003Y603625D01*
X656110Y604518D01*
X656110Y608325D01*
X656099Y608375D01*
X656097Y608426D01*
X656079Y608458D01*
X656071Y608494D01*
X656038Y608533D01*
X656014Y608578D01*
X655984Y608599D01*
X655961Y608627D01*
X655914Y608648D01*
X655872Y608678D01*
X655830Y608686D01*
X655802Y608698D01*
X655772Y608697D01*
X655730Y608705D01*
X650450Y608705D01*
X650400Y608694D01*
X650349Y608692D01*
X650317Y608674D01*
X650281Y608666D01*
X650242Y608633D01*
X650197Y608609D01*
X650176Y608579D01*
X650148Y608556D01*
X650127Y608509D01*
X650097Y608467D01*
X650089Y608425D01*
X650077Y608397D01*
X650078Y608369D01*
X650077Y608366D01*
X650077Y608362D01*
X650070Y608325D01*
X650070Y606868D01*
X649177Y605975D01*
X639913Y605975D01*
X639020Y606868D01*
X639020Y616132D01*
X639913Y617025D01*
X649177Y617025D01*
X650070Y616132D01*
X650070Y614675D01*
X650081Y614625D01*
X650083Y614574D01*
X650101Y614542D01*
X650109Y614506D01*
X650142Y614467D01*
X650166Y614422D01*
X650196Y614401D01*
X650219Y614373D01*
X650266Y614352D01*
X650308Y614322D01*
X650350Y614314D01*
X650378Y614302D01*
X650408Y614303D01*
X650450Y614295D01*
X655730Y614295D01*
X655780Y614306D01*
X655831Y614308D01*
X655863Y614326D01*
X655899Y614334D01*
X655938Y614367D01*
X655983Y614391D01*
X656004Y614421D01*
X656032Y614444D01*
X656053Y614491D01*
X656083Y614533D01*
X656091Y614575D01*
X656103Y614603D01*
X656102Y614633D01*
X656110Y614675D01*
X656110Y618482D01*
X657003Y619375D01*
X664617Y619375D01*
X664979Y619012D01*
X664991Y619005D01*
X664999Y618994D01*
X665064Y618959D01*
X665127Y618921D01*
X665140Y618919D01*
X665152Y618913D01*
X665226Y618911D01*
X665299Y618904D01*
X665312Y618909D01*
X665325Y618908D01*
X665392Y618939D01*
X665461Y618966D01*
X665470Y618976D01*
X665483Y618981D01*
X665578Y619091D01*
X665762Y619410D01*
X666235Y619883D01*
X666814Y620218D01*
X667460Y620391D01*
X670209Y620391D01*
X670209Y614675D01*
X670220Y614625D01*
X670222Y614574D01*
X670240Y614542D01*
X670248Y614506D01*
X670281Y614467D01*
X670305Y614422D01*
X670335Y614401D01*
X670358Y614373D01*
X670405Y614352D01*
X670447Y614322D01*
X670489Y614314D01*
X670517Y614302D01*
X670547Y614303D01*
X670589Y614295D01*
X671351Y614295D01*
X671401Y614306D01*
X671452Y614308D01*
X671484Y614326D01*
X671520Y614334D01*
X671559Y614367D01*
X671604Y614391D01*
X671625Y614421D01*
X671653Y614444D01*
X671674Y614491D01*
X671704Y614533D01*
X671712Y614575D01*
X671724Y614603D01*
X671723Y614633D01*
X671731Y614675D01*
X671731Y620391D01*
X674480Y620391D01*
X675126Y620218D01*
X675705Y619883D01*
X676178Y619410D01*
X676513Y618831D01*
X676686Y618185D01*
X676686Y612261D01*
X674145Y612261D01*
X674095Y612250D01*
X674044Y612248D01*
X674012Y612230D01*
X673976Y612222D01*
X673937Y612189D01*
X673892Y612165D01*
X673871Y612135D01*
X673843Y612111D01*
X673822Y612065D01*
X673792Y612023D01*
X673784Y611981D01*
X673772Y611953D01*
X673773Y611923D01*
X673765Y611881D01*
X673765Y611119D01*
X673776Y611069D01*
X673778Y611018D01*
X673796Y610986D01*
X673804Y610950D01*
X673837Y610911D01*
X673861Y610866D01*
X673891Y610845D01*
X673914Y610817D01*
X673961Y610796D01*
X674003Y610766D01*
X674045Y610758D01*
X674073Y610746D01*
X674103Y610747D01*
X674145Y610739D01*
X676686Y610739D01*
X676686Y604815D01*
X676513Y604169D01*
X676178Y603590D01*
X675705Y603117D01*
X675126Y602782D01*
X674480Y602609D01*
X671731Y602609D01*
X671731Y608325D01*
X671720Y608375D01*
X671718Y608426D01*
X671700Y608458D01*
X671692Y608494D01*
X671659Y608533D01*
X671635Y608578D01*
X671605Y608599D01*
X671581Y608627D01*
X671535Y608648D01*
X671493Y608678D01*
X671451Y608686D01*
X671423Y608698D01*
X671393Y608697D01*
X671351Y608705D01*
X670589Y608705D01*
X670539Y608694D01*
X670488Y608692D01*
X670456Y608674D01*
X670420Y608666D01*
X670381Y608633D01*
X670336Y608609D01*
X670315Y608579D01*
X670287Y608556D01*
X670266Y608509D01*
X670236Y608467D01*
X670228Y608425D01*
X670216Y608397D01*
X670217Y608369D01*
X670216Y608366D01*
X670216Y608362D01*
X670209Y608325D01*
X670209Y602609D01*
X667460Y602609D01*
G37*
%LPD*%
%LPC*%
G36*
X330761Y360925D02*
X330761Y360925D01*
X330761Y380739D01*
X350575Y380739D01*
X350575Y363131D01*
X350402Y362485D01*
X350067Y361906D01*
X349594Y361433D01*
X349015Y361098D01*
X348369Y360925D01*
X330761Y360925D01*
G37*
%LPD*%
%LPC*%
G36*
X334027Y69877D02*
X334027Y69877D01*
X330013Y71540D01*
X326940Y74613D01*
X325277Y78627D01*
X325277Y82973D01*
X326940Y86987D01*
X330013Y90060D01*
X334027Y91723D01*
X338373Y91723D01*
X342387Y90060D01*
X345460Y86987D01*
X347123Y82973D01*
X347123Y78627D01*
X345460Y74613D01*
X342387Y71540D01*
X338373Y69877D01*
X334027Y69877D01*
G37*
%LPD*%
%LPC*%
G36*
X389327Y69877D02*
X389327Y69877D01*
X385313Y71540D01*
X382240Y74613D01*
X380577Y78627D01*
X380577Y82973D01*
X382240Y86987D01*
X385313Y90060D01*
X389327Y91723D01*
X393673Y91723D01*
X397687Y90060D01*
X400760Y86987D01*
X402423Y82973D01*
X402423Y78627D01*
X400760Y74613D01*
X397687Y71540D01*
X393673Y69877D01*
X389327Y69877D01*
G37*
%LPD*%
%LPC*%
G36*
X287748Y484459D02*
X287748Y484459D01*
X286259Y485948D01*
X286259Y499052D01*
X287824Y500618D01*
X287858Y500672D01*
X287898Y500721D01*
X287903Y500744D01*
X287916Y500765D01*
X287922Y500828D01*
X287936Y500890D01*
X287930Y500916D01*
X287932Y500937D01*
X287919Y500972D01*
X287907Y501032D01*
X287449Y502137D01*
X287449Y504663D01*
X288416Y506997D01*
X290203Y508784D01*
X292537Y509751D01*
X295063Y509751D01*
X297397Y508784D01*
X299184Y506997D01*
X300151Y504663D01*
X300151Y502137D01*
X299693Y501032D01*
X299683Y500969D01*
X299665Y500908D01*
X299669Y500885D01*
X299665Y500861D01*
X299684Y500800D01*
X299694Y500738D01*
X299710Y500715D01*
X299716Y500695D01*
X299742Y500668D01*
X299776Y500618D01*
X301341Y499052D01*
X301341Y485948D01*
X299852Y484459D01*
X287748Y484459D01*
G37*
%LPD*%
%LPC*%
G36*
X608538Y604975D02*
X608538Y604975D01*
X607645Y605868D01*
X607645Y617132D01*
X608538Y618025D01*
X620802Y618025D01*
X621695Y617132D01*
X621695Y614675D01*
X621706Y614625D01*
X621708Y614574D01*
X621726Y614542D01*
X621734Y614506D01*
X621767Y614467D01*
X621791Y614422D01*
X621821Y614401D01*
X621844Y614373D01*
X621891Y614352D01*
X621933Y614322D01*
X621975Y614314D01*
X622003Y614302D01*
X622033Y614303D01*
X622075Y614295D01*
X623640Y614295D01*
X623690Y614306D01*
X623741Y614308D01*
X623773Y614326D01*
X623809Y614334D01*
X623848Y614367D01*
X623893Y614391D01*
X623914Y614421D01*
X623942Y614444D01*
X623963Y614491D01*
X623993Y614533D01*
X624001Y614575D01*
X624013Y614603D01*
X624012Y614633D01*
X624020Y614675D01*
X624020Y616132D01*
X624913Y617025D01*
X634177Y617025D01*
X635070Y616132D01*
X635070Y606868D01*
X634177Y605975D01*
X624913Y605975D01*
X624020Y606868D01*
X624020Y608325D01*
X624009Y608375D01*
X624007Y608426D01*
X623989Y608458D01*
X623981Y608494D01*
X623948Y608533D01*
X623924Y608578D01*
X623894Y608599D01*
X623871Y608627D01*
X623824Y608648D01*
X623782Y608678D01*
X623740Y608686D01*
X623712Y608698D01*
X623682Y608697D01*
X623640Y608705D01*
X622075Y608705D01*
X622025Y608694D01*
X621974Y608692D01*
X621942Y608674D01*
X621906Y608666D01*
X621867Y608633D01*
X621822Y608609D01*
X621801Y608579D01*
X621773Y608556D01*
X621752Y608509D01*
X621722Y608467D01*
X621714Y608425D01*
X621702Y608397D01*
X621703Y608369D01*
X621702Y608366D01*
X621702Y608362D01*
X621695Y608325D01*
X621695Y605868D01*
X620802Y604975D01*
X608538Y604975D01*
G37*
%LPD*%
%LPC*%
G36*
X269868Y129475D02*
X269868Y129475D01*
X268975Y130368D01*
X268975Y131915D01*
X268958Y131989D01*
X268945Y132064D01*
X268938Y132074D01*
X268936Y132084D01*
X268912Y132112D01*
X268864Y132184D01*
X266466Y134582D01*
X266401Y134622D01*
X266339Y134666D01*
X266327Y134668D01*
X266319Y134673D01*
X266282Y134677D01*
X266197Y134693D01*
X262802Y134693D01*
X259693Y137802D01*
X259693Y142198D01*
X262802Y145307D01*
X267198Y145307D01*
X267310Y145195D01*
X267332Y145181D01*
X267348Y145161D01*
X267405Y145136D01*
X267457Y145103D01*
X267483Y145101D01*
X267507Y145090D01*
X267568Y145093D01*
X267630Y145087D01*
X267654Y145096D01*
X267680Y145097D01*
X267734Y145126D01*
X267792Y145148D01*
X267809Y145167D01*
X267832Y145180D01*
X267867Y145230D01*
X267909Y145275D01*
X267917Y145300D01*
X267932Y145321D01*
X267948Y145406D01*
X267959Y145442D01*
X267957Y145452D01*
X267959Y145464D01*
X267959Y145739D01*
X274739Y145739D01*
X274739Y141459D01*
X270687Y141459D01*
X270637Y141448D01*
X270586Y141446D01*
X270554Y141428D01*
X270518Y141420D01*
X270479Y141387D01*
X270434Y141363D01*
X270413Y141333D01*
X270385Y141310D01*
X270364Y141263D01*
X270334Y141221D01*
X270326Y141179D01*
X270314Y141151D01*
X270315Y141121D01*
X270307Y141079D01*
X270307Y138803D01*
X270324Y138729D01*
X270337Y138654D01*
X270344Y138644D01*
X270346Y138634D01*
X270370Y138606D01*
X270418Y138534D01*
X271316Y137636D01*
X271381Y137596D01*
X271443Y137552D01*
X271455Y137550D01*
X271463Y137545D01*
X271500Y137541D01*
X271585Y137525D01*
X281132Y137525D01*
X282025Y136632D01*
X282025Y130368D01*
X281132Y129475D01*
X269868Y129475D01*
G37*
%LPD*%
%LPC*%
G36*
X339368Y142475D02*
X339368Y142475D01*
X338475Y143368D01*
X338475Y148415D01*
X338458Y148489D01*
X338445Y148564D01*
X338438Y148574D01*
X338436Y148584D01*
X338412Y148612D01*
X338364Y148684D01*
X336466Y150582D01*
X336401Y150622D01*
X336339Y150666D01*
X336327Y150668D01*
X336319Y150673D01*
X336282Y150677D01*
X336197Y150693D01*
X332802Y150693D01*
X329693Y153802D01*
X329693Y158198D01*
X332802Y161307D01*
X337198Y161307D01*
X340307Y158198D01*
X340307Y154803D01*
X340324Y154729D01*
X340337Y154654D01*
X340344Y154644D01*
X340346Y154634D01*
X340370Y154606D01*
X340418Y154534D01*
X344316Y150636D01*
X344381Y150596D01*
X344443Y150552D01*
X344455Y150550D01*
X344463Y150545D01*
X344500Y150541D01*
X344585Y150525D01*
X350632Y150525D01*
X351525Y149632D01*
X351525Y143368D01*
X350632Y142475D01*
X339368Y142475D01*
G37*
%LPD*%
%LPC*%
G36*
X413368Y142975D02*
X413368Y142975D01*
X412475Y143868D01*
X412475Y148915D01*
X412458Y148989D01*
X412445Y149064D01*
X412438Y149074D01*
X412436Y149084D01*
X412412Y149112D01*
X412364Y149184D01*
X410966Y150582D01*
X410901Y150622D01*
X410839Y150666D01*
X410827Y150668D01*
X410819Y150673D01*
X410782Y150677D01*
X410697Y150693D01*
X407302Y150693D01*
X404193Y153802D01*
X404193Y158198D01*
X407302Y161307D01*
X411698Y161307D01*
X414807Y158198D01*
X414807Y154803D01*
X414824Y154729D01*
X414837Y154654D01*
X414844Y154644D01*
X414846Y154634D01*
X414870Y154606D01*
X414918Y154534D01*
X418316Y151136D01*
X418381Y151096D01*
X418443Y151052D01*
X418455Y151050D01*
X418463Y151045D01*
X418500Y151041D01*
X418585Y151025D01*
X424632Y151025D01*
X425525Y150132D01*
X425525Y143868D01*
X424632Y142975D01*
X413368Y142975D01*
G37*
%LPD*%
%LPC*%
G36*
X546961Y655219D02*
X546961Y655219D01*
X546961Y672239D01*
X556361Y672239D01*
X556361Y664580D01*
X556111Y663001D01*
X555616Y661480D01*
X554890Y660055D01*
X553950Y658761D01*
X552819Y657630D01*
X551525Y656690D01*
X550100Y655964D01*
X548579Y655469D01*
X547000Y655219D01*
X546961Y655219D01*
G37*
%LPD*%
%LPC*%
G36*
X338761Y321261D02*
X338761Y321261D01*
X338761Y328541D01*
X343335Y328541D01*
X343981Y328368D01*
X344560Y328033D01*
X345033Y327560D01*
X345150Y327357D01*
X345194Y327311D01*
X345230Y327260D01*
X345252Y327248D01*
X345269Y327230D01*
X345328Y327208D01*
X345384Y327179D01*
X345408Y327178D01*
X345431Y327170D01*
X345494Y327176D01*
X345557Y327174D01*
X345579Y327185D01*
X345604Y327187D01*
X345657Y327221D01*
X345714Y327247D01*
X345732Y327268D01*
X345750Y327280D01*
X345770Y327312D01*
X345809Y327357D01*
X345967Y327630D01*
X346440Y328103D01*
X347019Y328438D01*
X347665Y328611D01*
X352239Y328611D01*
X352239Y321331D01*
X345921Y321331D01*
X345871Y321320D01*
X345820Y321318D01*
X345788Y321300D01*
X345752Y321292D01*
X345715Y321261D01*
X338761Y321261D01*
G37*
%LPD*%
%LPC*%
G36*
X338761Y312459D02*
X338761Y312459D01*
X338761Y319739D01*
X345079Y319739D01*
X345129Y319750D01*
X345180Y319752D01*
X345212Y319770D01*
X345248Y319778D01*
X345285Y319809D01*
X352239Y319809D01*
X352239Y312529D01*
X347665Y312529D01*
X347019Y312702D01*
X346440Y313037D01*
X345967Y313510D01*
X345850Y313713D01*
X345806Y313759D01*
X345770Y313810D01*
X345748Y313822D01*
X345731Y313840D01*
X345672Y313862D01*
X345616Y313891D01*
X345592Y313892D01*
X345569Y313900D01*
X345506Y313894D01*
X345443Y313896D01*
X345421Y313885D01*
X345396Y313883D01*
X345343Y313849D01*
X345286Y313823D01*
X345268Y313802D01*
X345250Y313790D01*
X345230Y313758D01*
X345191Y313713D01*
X345033Y313440D01*
X344560Y312967D01*
X343981Y312632D01*
X343335Y312459D01*
X338761Y312459D01*
G37*
%LPD*%
%LPC*%
G36*
X364561Y81561D02*
X364561Y81561D01*
X364561Y92739D01*
X364740Y92739D01*
X366596Y92445D01*
X368383Y91864D01*
X370057Y91011D01*
X371578Y89906D01*
X372906Y88578D01*
X374011Y87057D01*
X374864Y85383D01*
X375445Y83596D01*
X375739Y81740D01*
X375739Y81561D01*
X364561Y81561D01*
G37*
%LPD*%
%LPC*%
G36*
X351861Y81561D02*
X351861Y81561D01*
X351861Y81740D01*
X352155Y83596D01*
X352736Y85383D01*
X353589Y87057D01*
X354694Y88578D01*
X356022Y89906D01*
X357543Y91011D01*
X359217Y91864D01*
X361004Y92445D01*
X362860Y92739D01*
X363039Y92739D01*
X363039Y81561D01*
X351861Y81561D01*
G37*
%LPD*%
%LPC*%
G36*
X364561Y68861D02*
X364561Y68861D01*
X364561Y80039D01*
X375739Y80039D01*
X375739Y79860D01*
X375445Y78004D01*
X374864Y76217D01*
X374011Y74543D01*
X372906Y73022D01*
X371578Y71694D01*
X370057Y70589D01*
X368383Y69736D01*
X366596Y69155D01*
X364740Y68861D01*
X364561Y68861D01*
G37*
%LPD*%
%LPC*%
G36*
X362860Y68861D02*
X362860Y68861D01*
X361004Y69155D01*
X359217Y69736D01*
X357543Y70589D01*
X356022Y71694D01*
X354694Y73022D01*
X353589Y74543D01*
X352736Y76217D01*
X352155Y78004D01*
X351861Y79860D01*
X351861Y80039D01*
X363039Y80039D01*
X363039Y68861D01*
X362860Y68861D01*
G37*
%LPD*%
%LPC*%
G36*
X427791Y342781D02*
X427791Y342781D01*
X427791Y350061D01*
X432365Y350061D01*
X433011Y349888D01*
X433590Y349553D01*
X434063Y349080D01*
X434398Y348501D01*
X434571Y347855D01*
X434571Y342781D01*
X427791Y342781D01*
G37*
%LPD*%
%LPC*%
G36*
X411471Y342781D02*
X411471Y342781D01*
X411471Y350061D01*
X416045Y350061D01*
X416691Y349888D01*
X417270Y349553D01*
X417743Y349080D01*
X418078Y348501D01*
X418251Y347855D01*
X418251Y342781D01*
X411471Y342781D01*
G37*
%LPD*%
%LPC*%
G36*
X353761Y321331D02*
X353761Y321331D01*
X353761Y328611D01*
X358335Y328611D01*
X358981Y328438D01*
X359560Y328103D01*
X360033Y327630D01*
X360368Y327051D01*
X360541Y326405D01*
X360541Y321331D01*
X353761Y321331D01*
G37*
%LPD*%
%LPC*%
G36*
X428261Y409261D02*
X428261Y409261D01*
X428261Y416541D01*
X432835Y416541D01*
X433481Y416368D01*
X434060Y416033D01*
X434533Y415560D01*
X434868Y414981D01*
X435041Y414335D01*
X435041Y409261D01*
X428261Y409261D01*
G37*
%LPD*%
%LPC*%
G36*
X411261Y409261D02*
X411261Y409261D01*
X411261Y416541D01*
X415835Y416541D01*
X416481Y416368D01*
X417060Y416033D01*
X417533Y415560D01*
X417868Y414981D01*
X418041Y414335D01*
X418041Y409261D01*
X411261Y409261D01*
G37*
%LPD*%
%LPC*%
G36*
X282721Y397681D02*
X282721Y397681D01*
X282721Y404961D01*
X287295Y404961D01*
X287941Y404788D01*
X288520Y404453D01*
X288993Y403980D01*
X289328Y403401D01*
X289473Y402858D01*
X289501Y402755D01*
X289501Y397681D01*
X282721Y397681D01*
G37*
%LPD*%
%LPC*%
G36*
X268561Y418661D02*
X268561Y418661D01*
X268561Y425441D01*
X273635Y425441D01*
X274281Y425268D01*
X274860Y424933D01*
X275333Y424460D01*
X275668Y423881D01*
X275841Y423235D01*
X275841Y418661D01*
X268561Y418661D01*
G37*
%LPD*%
%LPC*%
G36*
X268061Y439561D02*
X268061Y439561D01*
X268061Y446341D01*
X273135Y446341D01*
X273781Y446168D01*
X274360Y445833D01*
X274833Y445360D01*
X275168Y444781D01*
X275341Y444135D01*
X275341Y439561D01*
X268061Y439561D01*
G37*
%LPD*%
%LPC*%
G36*
X266061Y304461D02*
X266061Y304461D01*
X266061Y311241D01*
X271135Y311241D01*
X271781Y311068D01*
X272360Y310733D01*
X272833Y310260D01*
X273168Y309681D01*
X273341Y309035D01*
X273341Y304461D01*
X266061Y304461D01*
G37*
%LPD*%
%LPC*%
G36*
X250861Y583061D02*
X250861Y583061D01*
X250861Y589841D01*
X255935Y589841D01*
X256581Y589668D01*
X257160Y589333D01*
X257633Y588860D01*
X257968Y588281D01*
X258141Y587635D01*
X258141Y583061D01*
X250861Y583061D01*
G37*
%LPD*%
%LPC*%
G36*
X266061Y325361D02*
X266061Y325361D01*
X266061Y332141D01*
X271135Y332141D01*
X271781Y331968D01*
X272360Y331633D01*
X272833Y331160D01*
X273168Y330581D01*
X273341Y329935D01*
X273341Y325361D01*
X266061Y325361D01*
G37*
%LPD*%
%LPC*%
G36*
X250861Y606161D02*
X250861Y606161D01*
X250861Y612941D01*
X255935Y612941D01*
X256581Y612768D01*
X257160Y612433D01*
X257633Y611960D01*
X257968Y611381D01*
X258141Y610735D01*
X258141Y606161D01*
X250861Y606161D01*
G37*
%LPD*%
%LPC*%
G36*
X259259Y439561D02*
X259259Y439561D01*
X259259Y444135D01*
X259432Y444781D01*
X259767Y445360D01*
X260240Y445833D01*
X260819Y446168D01*
X261465Y446341D01*
X266539Y446341D01*
X266539Y439561D01*
X259259Y439561D01*
G37*
%LPD*%
%LPC*%
G36*
X259759Y418661D02*
X259759Y418661D01*
X259759Y423235D01*
X259932Y423881D01*
X260267Y424460D01*
X260740Y424933D01*
X261319Y425268D01*
X261965Y425441D01*
X267039Y425441D01*
X267039Y418661D01*
X259759Y418661D01*
G37*
%LPD*%
%LPC*%
G36*
X257259Y304461D02*
X257259Y304461D01*
X257259Y309035D01*
X257432Y309681D01*
X257767Y310260D01*
X258240Y310733D01*
X258819Y311068D01*
X259465Y311241D01*
X264539Y311241D01*
X264539Y304461D01*
X257259Y304461D01*
G37*
%LPD*%
%LPC*%
G36*
X242059Y583061D02*
X242059Y583061D01*
X242059Y587635D01*
X242232Y588281D01*
X242567Y588860D01*
X243040Y589333D01*
X243619Y589668D01*
X244265Y589841D01*
X249339Y589841D01*
X249339Y583061D01*
X242059Y583061D01*
G37*
%LPD*%
%LPC*%
G36*
X257259Y325361D02*
X257259Y325361D01*
X257259Y329935D01*
X257432Y330581D01*
X257767Y331160D01*
X258240Y331633D01*
X258819Y331968D01*
X259465Y332141D01*
X264539Y332141D01*
X264539Y325361D01*
X257259Y325361D01*
G37*
%LPD*%
%LPC*%
G36*
X242059Y606161D02*
X242059Y606161D01*
X242059Y610735D01*
X242232Y611381D01*
X242567Y611960D01*
X243040Y612433D01*
X243619Y612768D01*
X244265Y612941D01*
X249339Y612941D01*
X249339Y606161D01*
X242059Y606161D01*
G37*
%LPD*%
%LPC*%
G36*
X419959Y409261D02*
X419959Y409261D01*
X419959Y414335D01*
X420132Y414981D01*
X420467Y415560D01*
X420940Y416033D01*
X421519Y416368D01*
X422165Y416541D01*
X426739Y416541D01*
X426739Y409261D01*
X419959Y409261D01*
G37*
%LPD*%
%LPC*%
G36*
X266061Y296159D02*
X266061Y296159D01*
X266061Y302939D01*
X273341Y302939D01*
X273341Y298365D01*
X273168Y297719D01*
X272833Y297140D01*
X272360Y296667D01*
X271781Y296332D01*
X271135Y296159D01*
X266061Y296159D01*
G37*
%LPD*%
%LPC*%
G36*
X250861Y574759D02*
X250861Y574759D01*
X250861Y581539D01*
X258141Y581539D01*
X258141Y576965D01*
X257968Y576319D01*
X257633Y575740D01*
X257160Y575267D01*
X256581Y574932D01*
X255935Y574759D01*
X250861Y574759D01*
G37*
%LPD*%
%LPC*%
G36*
X268561Y410359D02*
X268561Y410359D01*
X268561Y417139D01*
X275841Y417139D01*
X275841Y412565D01*
X275668Y411919D01*
X275333Y411340D01*
X274860Y410867D01*
X274281Y410532D01*
X273635Y410359D01*
X268561Y410359D01*
G37*
%LPD*%
%LPC*%
G36*
X266061Y317059D02*
X266061Y317059D01*
X266061Y323839D01*
X273341Y323839D01*
X273341Y319265D01*
X273168Y318619D01*
X272833Y318040D01*
X272360Y317567D01*
X271781Y317232D01*
X271135Y317059D01*
X266061Y317059D01*
G37*
%LPD*%
%LPC*%
G36*
X274419Y397681D02*
X274419Y397681D01*
X274419Y402755D01*
X274592Y403401D01*
X274927Y403980D01*
X275400Y404453D01*
X275979Y404788D01*
X276625Y404961D01*
X281199Y404961D01*
X281199Y397681D01*
X274419Y397681D01*
G37*
%LPD*%
%LPC*%
G36*
X250861Y597859D02*
X250861Y597859D01*
X250861Y604639D01*
X258141Y604639D01*
X258141Y600065D01*
X257968Y599419D01*
X257633Y598840D01*
X257160Y598367D01*
X256581Y598032D01*
X255935Y597859D01*
X250861Y597859D01*
G37*
%LPD*%
%LPC*%
G36*
X274879Y345501D02*
X274879Y345501D01*
X274879Y350575D01*
X275052Y351221D01*
X275387Y351800D01*
X275860Y352273D01*
X276439Y352608D01*
X277085Y352781D01*
X281659Y352781D01*
X281659Y345501D01*
X274879Y345501D01*
G37*
%LPD*%
%LPC*%
G36*
X403169Y342781D02*
X403169Y342781D01*
X403169Y347855D01*
X403342Y348501D01*
X403677Y349080D01*
X404150Y349553D01*
X404729Y349888D01*
X405375Y350061D01*
X409949Y350061D01*
X409949Y342781D01*
X403169Y342781D01*
G37*
%LPD*%
%LPC*%
G36*
X419489Y342781D02*
X419489Y342781D01*
X419489Y347855D01*
X419662Y348501D01*
X419997Y349080D01*
X420470Y349553D01*
X421049Y349888D01*
X421695Y350061D01*
X426269Y350061D01*
X426269Y342781D01*
X419489Y342781D01*
G37*
%LPD*%
%LPC*%
G36*
X402959Y409261D02*
X402959Y409261D01*
X402959Y414335D01*
X403132Y414981D01*
X403467Y415560D01*
X403940Y416033D01*
X404519Y416368D01*
X405165Y416541D01*
X409739Y416541D01*
X409739Y409261D01*
X402959Y409261D01*
G37*
%LPD*%
%LPC*%
G36*
X268061Y431259D02*
X268061Y431259D01*
X268061Y438039D01*
X275341Y438039D01*
X275341Y433465D01*
X275168Y432819D01*
X274833Y432240D01*
X274360Y431767D01*
X273781Y431432D01*
X273135Y431259D01*
X268061Y431259D01*
G37*
%LPD*%
%LPC*%
G36*
X427791Y333979D02*
X427791Y333979D01*
X427791Y341259D01*
X434571Y341259D01*
X434571Y336185D01*
X434398Y335539D01*
X434063Y334960D01*
X433590Y334487D01*
X433011Y334152D01*
X432365Y333979D01*
X427791Y333979D01*
G37*
%LPD*%
%LPC*%
G36*
X282721Y388879D02*
X282721Y388879D01*
X282721Y396159D01*
X289501Y396159D01*
X289501Y391085D01*
X289328Y390439D01*
X288993Y389860D01*
X288520Y389387D01*
X287941Y389052D01*
X287295Y388879D01*
X282721Y388879D01*
G37*
%LPD*%
%LPC*%
G36*
X353761Y312529D02*
X353761Y312529D01*
X353761Y319809D01*
X360541Y319809D01*
X360541Y314735D01*
X360368Y314089D01*
X360033Y313510D01*
X359560Y313037D01*
X358981Y312702D01*
X358335Y312529D01*
X353761Y312529D01*
G37*
%LPD*%
%LPC*%
G36*
X411261Y400459D02*
X411261Y400459D01*
X411261Y407739D01*
X418041Y407739D01*
X418041Y402665D01*
X417868Y402019D01*
X417533Y401440D01*
X417060Y400967D01*
X416481Y400632D01*
X415835Y400459D01*
X411261Y400459D01*
G37*
%LPD*%
%LPC*%
G36*
X428261Y400459D02*
X428261Y400459D01*
X428261Y407739D01*
X435041Y407739D01*
X435041Y402665D01*
X434868Y402019D01*
X434533Y401440D01*
X434060Y400967D01*
X433481Y400632D01*
X432835Y400459D01*
X428261Y400459D01*
G37*
%LPD*%
%LPC*%
G36*
X411471Y333979D02*
X411471Y333979D01*
X411471Y341259D01*
X418251Y341259D01*
X418251Y336185D01*
X418078Y335539D01*
X417743Y334960D01*
X417270Y334487D01*
X416691Y334152D01*
X416045Y333979D01*
X411471Y333979D01*
G37*
%LPD*%
%LPC*%
G36*
X244265Y597859D02*
X244265Y597859D01*
X243619Y598032D01*
X243040Y598367D01*
X242567Y598840D01*
X242232Y599419D01*
X242171Y599649D01*
X242059Y600065D01*
X242059Y604639D01*
X249339Y604639D01*
X249339Y597859D01*
X244265Y597859D01*
G37*
%LPD*%
%LPC*%
G36*
X261465Y431259D02*
X261465Y431259D01*
X260819Y431432D01*
X260240Y431767D01*
X259767Y432240D01*
X259432Y432819D01*
X259357Y433099D01*
X259259Y433465D01*
X259259Y438039D01*
X266539Y438039D01*
X266539Y431259D01*
X261465Y431259D01*
G37*
%LPD*%
%LPC*%
G36*
X276625Y388879D02*
X276625Y388879D01*
X275979Y389052D01*
X275400Y389387D01*
X274927Y389860D01*
X274592Y390439D01*
X274471Y390892D01*
X274419Y391085D01*
X274419Y396159D01*
X281199Y396159D01*
X281199Y388879D01*
X276625Y388879D01*
G37*
%LPD*%
%LPC*%
G36*
X405165Y400459D02*
X405165Y400459D01*
X404519Y400632D01*
X403940Y400967D01*
X403467Y401440D01*
X403132Y402019D01*
X402959Y402665D01*
X402959Y407739D01*
X409739Y407739D01*
X409739Y400459D01*
X405165Y400459D01*
G37*
%LPD*%
%LPC*%
G36*
X244265Y574759D02*
X244265Y574759D01*
X243619Y574932D01*
X243040Y575267D01*
X242567Y575740D01*
X242232Y576319D01*
X242059Y576965D01*
X242059Y581539D01*
X249339Y581539D01*
X249339Y574759D01*
X244265Y574759D01*
G37*
%LPD*%
%LPC*%
G36*
X422165Y400459D02*
X422165Y400459D01*
X421519Y400632D01*
X420940Y400967D01*
X420467Y401440D01*
X420132Y402019D01*
X419959Y402665D01*
X419959Y407739D01*
X426739Y407739D01*
X426739Y400459D01*
X422165Y400459D01*
G37*
%LPD*%
%LPC*%
G36*
X259465Y296159D02*
X259465Y296159D01*
X258819Y296332D01*
X258240Y296667D01*
X257767Y297140D01*
X257432Y297719D01*
X257259Y298365D01*
X257259Y302939D01*
X264539Y302939D01*
X264539Y296159D01*
X259465Y296159D01*
G37*
%LPD*%
%LPC*%
G36*
X259465Y317059D02*
X259465Y317059D01*
X258819Y317232D01*
X258240Y317567D01*
X257767Y318040D01*
X257432Y318619D01*
X257259Y319265D01*
X257259Y323839D01*
X264539Y323839D01*
X264539Y317059D01*
X259465Y317059D01*
G37*
%LPD*%
%LPC*%
G36*
X261965Y410359D02*
X261965Y410359D01*
X261319Y410532D01*
X260740Y410867D01*
X260267Y411340D01*
X259932Y411919D01*
X259759Y412565D01*
X259759Y417139D01*
X267039Y417139D01*
X267039Y410359D01*
X261965Y410359D01*
G37*
%LPD*%
%LPC*%
G36*
X277085Y336699D02*
X277085Y336699D01*
X276439Y336872D01*
X275860Y337207D01*
X275387Y337680D01*
X275052Y338259D01*
X274879Y338905D01*
X274879Y343979D01*
X281659Y343979D01*
X281659Y336699D01*
X277085Y336699D01*
G37*
%LPD*%
%LPC*%
G36*
X405375Y333979D02*
X405375Y333979D01*
X404729Y334152D01*
X404150Y334487D01*
X403677Y334960D01*
X403342Y335539D01*
X403169Y336185D01*
X403169Y341259D01*
X409949Y341259D01*
X409949Y333979D01*
X405375Y333979D01*
G37*
%LPD*%
%LPC*%
G36*
X421695Y333979D02*
X421695Y333979D01*
X421049Y334152D01*
X420470Y334487D01*
X419997Y334960D01*
X419662Y335539D01*
X419489Y336185D01*
X419489Y341259D01*
X426269Y341259D01*
X426269Y333979D01*
X421695Y333979D01*
G37*
%LPD*%
%LPC*%
G36*
X419761Y134761D02*
X419761Y134761D01*
X419761Y139041D01*
X424335Y139041D01*
X424981Y138868D01*
X425560Y138533D01*
X426033Y138060D01*
X426368Y137481D01*
X426541Y136835D01*
X426541Y134761D01*
X419761Y134761D01*
G37*
%LPD*%
%LPC*%
G36*
X345761Y134261D02*
X345761Y134261D01*
X345761Y138541D01*
X350335Y138541D01*
X350981Y138368D01*
X351560Y138033D01*
X352033Y137560D01*
X352368Y136981D01*
X352541Y136335D01*
X352541Y134261D01*
X345761Y134261D01*
G37*
%LPD*%
%LPC*%
G36*
X276261Y147261D02*
X276261Y147261D01*
X276261Y151541D01*
X280835Y151541D01*
X281481Y151368D01*
X282060Y151033D01*
X282533Y150560D01*
X282868Y149981D01*
X283041Y149335D01*
X283041Y147261D01*
X276261Y147261D01*
G37*
%LPD*%
%LPC*%
G36*
X411459Y134761D02*
X411459Y134761D01*
X411459Y136835D01*
X411632Y137481D01*
X411967Y138060D01*
X412440Y138533D01*
X413019Y138868D01*
X413665Y139041D01*
X418239Y139041D01*
X418239Y134761D01*
X411459Y134761D01*
G37*
%LPD*%
%LPC*%
G36*
X337459Y134261D02*
X337459Y134261D01*
X337459Y136335D01*
X337632Y136981D01*
X337967Y137560D01*
X338440Y138033D01*
X339019Y138368D01*
X339665Y138541D01*
X344239Y138541D01*
X344239Y134261D01*
X337459Y134261D01*
G37*
%LPD*%
%LPC*%
G36*
X267959Y147261D02*
X267959Y147261D01*
X267959Y149335D01*
X268132Y149981D01*
X268467Y150560D01*
X268940Y151033D01*
X269519Y151368D01*
X270165Y151541D01*
X274739Y151541D01*
X274739Y147261D01*
X267959Y147261D01*
G37*
%LPD*%
%LPC*%
G36*
X352459Y147261D02*
X352459Y147261D01*
X352459Y149335D01*
X352632Y149981D01*
X352967Y150560D01*
X353440Y151033D01*
X354019Y151368D01*
X354665Y151541D01*
X359239Y151541D01*
X359239Y147261D01*
X352459Y147261D01*
G37*
%LPD*%
%LPC*%
G36*
X276261Y145739D02*
X276261Y145739D01*
X283041Y145739D01*
X283041Y143665D01*
X282868Y143019D01*
X282533Y142440D01*
X282060Y141967D01*
X281481Y141632D01*
X280835Y141459D01*
X276261Y141459D01*
X276261Y145739D01*
G37*
%LPD*%
%LPC*%
G36*
X419761Y133239D02*
X419761Y133239D01*
X426541Y133239D01*
X426541Y131165D01*
X426368Y130519D01*
X426033Y129940D01*
X425560Y129467D01*
X424981Y129132D01*
X424335Y128959D01*
X419761Y128959D01*
X419761Y133239D01*
G37*
%LPD*%
%LPC*%
G36*
X345761Y132739D02*
X345761Y132739D01*
X352541Y132739D01*
X352541Y130665D01*
X352368Y130019D01*
X352033Y129440D01*
X351560Y128967D01*
X350981Y128632D01*
X350335Y128459D01*
X345761Y128459D01*
X345761Y132739D01*
G37*
%LPD*%
%LPC*%
G36*
X339665Y128459D02*
X339665Y128459D01*
X339019Y128632D01*
X338440Y128967D01*
X337967Y129440D01*
X337632Y130019D01*
X337627Y130040D01*
X337459Y130665D01*
X337459Y132739D01*
X344239Y132739D01*
X344239Y128459D01*
X339665Y128459D01*
G37*
%LPD*%
%LPC*%
G36*
X354665Y141459D02*
X354665Y141459D01*
X354019Y141632D01*
X353440Y141967D01*
X352967Y142440D01*
X352632Y143019D01*
X352459Y143665D01*
X352459Y145739D01*
X359239Y145739D01*
X359239Y141459D01*
X354665Y141459D01*
G37*
%LPD*%
%LPC*%
G36*
X413665Y128959D02*
X413665Y128959D01*
X413019Y129132D01*
X412440Y129467D01*
X411967Y129940D01*
X411632Y130519D01*
X411459Y131165D01*
X411459Y133239D01*
X418239Y133239D01*
X418239Y128959D01*
X413665Y128959D01*
G37*
%LPD*%
%LPC*%
G36*
X360249Y364749D02*
X360249Y364749D01*
X360249Y368251D01*
X366541Y368251D01*
X366541Y367165D01*
X366389Y366598D01*
X366388Y366571D01*
X366379Y366546D01*
X366384Y366463D01*
X366383Y366425D01*
X366388Y366415D01*
X366389Y366402D01*
X366541Y365835D01*
X366541Y364749D01*
X360249Y364749D01*
G37*
%LPD*%
%LPC*%
G36*
X352459Y364749D02*
X352459Y364749D01*
X352459Y365835D01*
X352611Y366402D01*
X352612Y366429D01*
X352621Y366454D01*
X352616Y366537D01*
X352617Y366575D01*
X352612Y366585D01*
X352611Y366598D01*
X352459Y367165D01*
X352459Y368251D01*
X358751Y368251D01*
X358751Y364749D01*
X352459Y364749D01*
G37*
%LPD*%
%LPC*%
G36*
X363799Y80799D02*
X363799Y80799D01*
X363799Y80801D01*
X363801Y80801D01*
X363801Y80799D01*
X363799Y80799D01*
G37*
%LPD*%
%LPC*%
G36*
X224999Y94999D02*
X224999Y94999D01*
X224999Y95001D01*
X225001Y95001D01*
X225001Y94999D01*
X224999Y94999D01*
G37*
%LPD*%
%LPC*%
G36*
X474999Y94999D02*
X474999Y94999D01*
X474999Y95001D01*
X475001Y95001D01*
X475001Y94999D01*
X474999Y94999D01*
G37*
%LPD*%
%LPC*%
G36*
X250099Y582299D02*
X250099Y582299D01*
X250099Y582301D01*
X250101Y582301D01*
X250101Y582299D01*
X250099Y582299D01*
G37*
%LPD*%
%LPC*%
G36*
X427029Y342019D02*
X427029Y342019D01*
X427029Y342021D01*
X427031Y342021D01*
X427031Y342019D01*
X427029Y342019D01*
G37*
%LPD*%
%LPC*%
G36*
X410499Y408499D02*
X410499Y408499D01*
X410499Y408501D01*
X410501Y408501D01*
X410501Y408499D01*
X410499Y408499D01*
G37*
%LPD*%
%LPC*%
G36*
X250099Y605399D02*
X250099Y605399D01*
X250099Y605401D01*
X250101Y605401D01*
X250101Y605399D01*
X250099Y605399D01*
G37*
%LPD*%
%LPC*%
G36*
X410709Y342019D02*
X410709Y342019D01*
X410709Y342021D01*
X410711Y342021D01*
X410711Y342019D01*
X410709Y342019D01*
G37*
%LPD*%
%LPC*%
G36*
X265299Y324599D02*
X265299Y324599D01*
X265299Y324601D01*
X265301Y324601D01*
X265301Y324599D01*
X265299Y324599D01*
G37*
%LPD*%
%LPC*%
G36*
X427499Y408499D02*
X427499Y408499D01*
X427499Y408501D01*
X427501Y408501D01*
X427501Y408499D01*
X427499Y408499D01*
G37*
%LPD*%
%LPC*%
G36*
X352999Y320569D02*
X352999Y320569D01*
X352999Y320571D01*
X353001Y320571D01*
X353001Y320569D01*
X352999Y320569D01*
G37*
%LPD*%
%LPC*%
G36*
X344999Y133499D02*
X344999Y133499D01*
X344999Y133501D01*
X345001Y133501D01*
X345001Y133499D01*
X344999Y133499D01*
G37*
%LPD*%
%LPC*%
G36*
X281959Y396919D02*
X281959Y396919D01*
X281959Y396921D01*
X281961Y396921D01*
X281961Y396919D01*
X281959Y396919D01*
G37*
%LPD*%
%LPC*%
G36*
X265299Y303699D02*
X265299Y303699D01*
X265299Y303701D01*
X265301Y303701D01*
X265301Y303699D01*
X265299Y303699D01*
G37*
%LPD*%
%LPC*%
G36*
X267799Y417899D02*
X267799Y417899D01*
X267799Y417901D01*
X267801Y417901D01*
X267801Y417899D01*
X267799Y417899D01*
G37*
%LPD*%
%LPC*%
G36*
X275499Y146499D02*
X275499Y146499D01*
X275499Y146501D01*
X275501Y146501D01*
X275501Y146499D01*
X275499Y146499D01*
G37*
%LPD*%
%LPC*%
G36*
X267299Y438799D02*
X267299Y438799D01*
X267299Y438801D01*
X267301Y438801D01*
X267301Y438799D01*
X267299Y438799D01*
G37*
%LPD*%
%LPC*%
G36*
X418999Y133999D02*
X418999Y133999D01*
X418999Y134001D01*
X419001Y134001D01*
X419001Y133999D01*
X418999Y133999D01*
G37*
%LPD*%
D10*
X427500Y391500D03*
X427500Y408500D03*
X281960Y379920D03*
X281960Y396920D03*
D11*
X267100Y582300D03*
X250100Y582300D03*
X267100Y605400D03*
X250100Y605400D03*
X284300Y438800D03*
X267300Y438800D03*
X282300Y303700D03*
X265300Y303700D03*
D10*
X410710Y359020D03*
X410710Y342020D03*
X410500Y391500D03*
X410500Y408500D03*
X427030Y359020D03*
X427030Y342020D03*
X299000Y322500D03*
X299000Y339500D03*
X353000Y337570D03*
X353000Y320570D03*
D11*
X284800Y417900D03*
X267800Y417900D03*
X282300Y324600D03*
X265300Y324600D03*
D10*
X282420Y361740D03*
X282420Y344740D03*
D12*
X401000Y140500D03*
X419000Y134000D03*
X419000Y147000D03*
X378000Y140000D03*
X360000Y146500D03*
X360000Y133500D03*
X327000Y140000D03*
X345000Y133500D03*
X345000Y146500D03*
X293500Y140000D03*
X275500Y146500D03*
X275500Y133500D03*
D10*
X445200Y584300D03*
X445200Y601300D03*
X293800Y475500D03*
X293800Y492500D03*
X274500Y534000D03*
X274500Y517000D03*
D13*
X266800Y665380D02*
X266800Y680620D01*
X292200Y680620D02*
X292200Y665380D01*
X317600Y665380D02*
X317600Y680620D01*
X343000Y680620D02*
X343000Y665380D01*
X368400Y665380D02*
X368400Y680620D01*
X393800Y680620D02*
X393800Y665380D01*
X419200Y665380D02*
X419200Y680620D01*
X444600Y680620D02*
X444600Y665380D01*
X470000Y665380D02*
X470000Y680620D01*
X495400Y680620D02*
X495400Y665380D01*
X520800Y665380D02*
X520800Y680620D01*
X546200Y680620D02*
X546200Y665380D01*
D14*
X293800Y503400D03*
D15*
X257300Y391600D03*
X257300Y350600D03*
D16*
X405400Y109200D03*
D17*
X377700Y109200D03*
X350000Y109200D03*
X322300Y109200D03*
X294600Y109200D03*
X391500Y80800D03*
X363800Y80800D03*
X336200Y80800D03*
X308500Y80800D03*
D18*
X475000Y95000D03*
X225000Y95000D03*
D11*
X614670Y611500D03*
X597670Y611500D03*
D19*
X644545Y611500D03*
X629545Y611500D03*
D20*
X660810Y611500D02*
X670970Y611500D01*
D21*
X670970Y611500D03*
X660810Y611500D03*
D10*
X323000Y320500D03*
X323000Y337500D03*
D22*
X452000Y419500D03*
X452000Y391500D03*
X452000Y331000D03*
X452000Y359000D03*
D23*
X246000Y469000D03*
X274000Y469000D03*
X246000Y273000D03*
X274000Y273000D03*
D24*
X307500Y352000D03*
X312500Y352000D03*
X317500Y352000D03*
X322500Y352000D03*
X327500Y352000D03*
X332500Y352000D03*
X337500Y352000D03*
X342500Y352000D03*
X347500Y352000D03*
X352500Y352000D03*
D25*
X359500Y359000D03*
X359500Y364000D03*
X359500Y369000D03*
X359500Y374000D03*
X359500Y379000D03*
X359500Y384000D03*
X359500Y389000D03*
X359500Y394000D03*
X359500Y399000D03*
X359500Y404000D03*
D24*
X352500Y411000D03*
X347500Y411000D03*
X342500Y411000D03*
X337500Y411000D03*
X332500Y411000D03*
X327500Y411000D03*
X322500Y411000D03*
X317500Y411000D03*
X312500Y411000D03*
X307500Y411000D03*
D25*
X300500Y404000D03*
X300500Y399000D03*
X300500Y394000D03*
X300500Y389000D03*
X300500Y384000D03*
X300500Y379000D03*
X300500Y374000D03*
X300500Y369000D03*
X300500Y364000D03*
X300500Y359000D03*
D26*
X330000Y381500D03*
D10*
X338000Y337500D03*
X338000Y320500D03*
X470420Y584390D03*
X470420Y601390D03*
X495110Y584770D03*
X495110Y601770D03*
X419590Y583880D03*
X419590Y600880D03*
X394190Y584400D03*
X394190Y601400D03*
X368790Y584920D03*
X368790Y601920D03*
X342120Y584170D03*
X342120Y601170D03*
X292590Y583940D03*
X292590Y600940D03*
X316720Y584460D03*
X316720Y601460D03*
X520460Y584710D03*
X520460Y601710D03*
D27*
X238000Y427500D03*
X237500Y323000D03*
X257000Y372000D03*
X425500Y236000D03*
X426000Y299500D03*
X428000Y431000D03*
X548500Y424000D03*
X548500Y321500D03*
X547500Y541500D03*
X547000Y638000D03*
X510000Y638000D03*
X482000Y638000D03*
X458000Y638000D03*
X434000Y638000D03*
X410000Y638000D03*
X384000Y638000D03*
X356000Y638000D03*
X332000Y638000D03*
X304000Y638000D03*
X285810Y638000D03*
X226000Y637000D03*
X426000Y190500D03*
X458000Y151000D03*
X238000Y151000D03*
X269500Y191000D03*
X269000Y237500D03*
X171000Y95000D03*
D20*
X342500Y352000D02*
X342294Y352206D01*
D28*
X299000Y352000D02*
X299000Y339500D01*
D27*
X299000Y352000D03*
D20*
X299000Y357500D01*
D29*
X330000Y381500D02*
X339500Y391000D01*
X340000Y391000D01*
D27*
X340500Y392000D03*
X319500Y370500D03*
X340500Y370500D03*
X319500Y392000D03*
D29*
X330000Y381500D01*
X330000Y381000D02*
X319500Y370500D01*
X330000Y381000D02*
X330000Y381500D01*
X330000Y381000D02*
X340500Y370500D01*
D27*
X344000Y191000D03*
X343000Y237500D03*
X344000Y299500D03*
X204000Y323000D03*
X203500Y427500D03*
X215000Y556500D03*
X293000Y536500D03*
X528500Y638000D03*
X355500Y536500D03*
X406000Y536500D03*
D28*
X547000Y638000D02*
X547000Y672200D01*
X546200Y673000D01*
D27*
X541000Y95000D03*
X324500Y303000D03*
X324500Y265000D03*
X324500Y237000D03*
X324500Y209000D03*
X324500Y180000D03*
X296000Y180000D03*
X296000Y209000D03*
X295770Y237000D03*
X296000Y265000D03*
X296000Y303000D03*
X296000Y148500D03*
X324500Y148500D03*
X330000Y536500D03*
X381000Y537000D03*
X431500Y536500D03*
X457000Y545000D03*
X483500Y566500D03*
X507000Y566500D03*
X671000Y583000D03*
X255000Y140000D03*
X335000Y165500D03*
X379500Y163500D03*
X409500Y166000D03*
X296000Y273500D03*
X387810Y383190D03*
X485000Y477500D03*
X257500Y562500D03*
D20*
X520460Y601710D02*
X520460Y672660D01*
X520800Y673000D01*
D28*
X267100Y605400D02*
X267100Y582300D01*
X227500Y457500D02*
X227500Y285140D01*
X267100Y605400D02*
X266700Y605800D01*
X266800Y673000D01*
X267100Y582300D02*
X267100Y557100D01*
X227500Y517500D02*
X227500Y473500D01*
X227500Y469500D01*
X227500Y465500D01*
X227500Y458500D01*
X267000Y557000D02*
X267100Y557100D01*
X267000Y557000D02*
X227500Y517500D01*
D27*
X267000Y557000D03*
X476500Y484500D03*
D28*
X472000Y419500D02*
X471000Y418500D01*
X472000Y419500D02*
X476500Y424000D01*
X476500Y413000D02*
X476500Y341000D01*
X466500Y331000D02*
X452000Y331000D01*
X466500Y331000D02*
X476500Y341000D01*
X246000Y273000D02*
X239640Y273000D01*
X235820Y276820D01*
X230320Y282320D01*
X227500Y285140D01*
D20*
X251500Y469000D02*
X252000Y469500D01*
X251500Y469000D02*
X246000Y469000D01*
X252000Y469500D02*
X231500Y469500D01*
X227500Y469500D01*
X231500Y469500D02*
X227500Y473500D01*
X231500Y469500D02*
X227500Y465500D01*
X230320Y282320D02*
X229360Y281360D01*
X235640Y276640D02*
X235820Y276820D01*
D28*
X452000Y419500D02*
X472000Y419500D01*
X471000Y418500D02*
X476500Y413000D01*
D20*
X227500Y457500D02*
X227500Y458500D01*
D28*
X476500Y424000D02*
X476500Y413000D01*
X476500Y424000D02*
X476500Y484500D01*
D20*
X558000Y484500D01*
X581000Y507500D02*
X581000Y596000D01*
X596500Y611500D01*
X597670Y611500D01*
X581000Y507500D02*
X558000Y484500D01*
X282420Y362420D02*
X282420Y361740D01*
X282420Y362420D02*
X289000Y369000D01*
X282420Y361740D02*
X267740Y361740D01*
X257300Y351300D02*
X257300Y350600D01*
X257300Y351300D02*
X267740Y361740D01*
X289000Y369000D02*
X300500Y369000D01*
X287880Y374000D02*
X281960Y379920D01*
X268980Y379920D01*
X257300Y391600D01*
X287880Y374000D02*
X300500Y374000D01*
X294600Y109440D02*
X294600Y109200D01*
X294600Y109440D02*
X295687Y111687D01*
X307576Y123576D01*
X293500Y110300D02*
X293500Y140000D01*
X293500Y110300D02*
X294600Y109200D01*
X307576Y351924D02*
X307500Y352000D01*
X307576Y351924D02*
X307576Y123576D01*
X327000Y126000D02*
X327000Y140000D01*
X308500Y117253D02*
X308500Y80800D01*
X308500Y117253D02*
X312374Y121127D01*
X312374Y126000D01*
X313747Y122500D02*
X312374Y121127D01*
X323500Y122500D02*
X327000Y126000D01*
X323500Y122500D02*
X315500Y122500D01*
X313747Y122500D01*
X315500Y122874D02*
X312374Y126000D01*
X315500Y122874D02*
X315500Y122500D01*
X312374Y351874D02*
X312500Y352000D01*
X312374Y351874D02*
X312374Y126000D01*
X386730Y140000D02*
X387000Y365000D01*
X386730Y140000D02*
X386730Y128430D01*
X378000Y374000D02*
X359500Y374000D01*
X378000Y374000D02*
X387000Y365000D01*
X381192Y122892D02*
X363692Y122892D01*
X381192Y122892D02*
X386730Y128430D01*
X363692Y122892D02*
X350000Y109200D01*
X378000Y140000D02*
X386730Y140000D01*
X392000Y369000D02*
X382000Y379000D01*
X359500Y379000D01*
X401000Y140500D02*
X401000Y140250D01*
X391750Y123250D02*
X377700Y109200D01*
X391730Y140250D02*
X401000Y140250D01*
X391730Y123270D02*
X391750Y123250D01*
X391730Y140250D02*
X392000Y369000D01*
X391750Y140230D02*
X391750Y123250D01*
X391750Y140230D02*
X391730Y140250D01*
X290300Y359300D02*
X295000Y364000D01*
D28*
X282300Y303700D02*
X282300Y293300D01*
D27*
X289000Y280000D03*
D20*
X275500Y133500D02*
X271500Y133500D01*
X265000Y140000D01*
X344500Y146500D02*
X345000Y146500D01*
X344500Y146500D02*
X335000Y156000D01*
D27*
X335000Y156000D03*
X265000Y140000D03*
D20*
X282300Y324600D02*
X290300Y332600D01*
X290300Y359300D01*
D28*
X282300Y324600D02*
X282300Y303700D01*
D20*
X282300Y293300D02*
X289000Y286600D01*
X289000Y280000D01*
D28*
X274000Y285000D02*
X274000Y273000D01*
X274000Y285000D02*
X282300Y293300D01*
D20*
X306157Y364206D02*
X308500Y366810D01*
X308500Y391687D02*
X306329Y394094D01*
X308500Y391687D02*
X308500Y366810D01*
X300706Y364206D02*
X300500Y364000D01*
X300706Y364206D02*
X306157Y364206D01*
X306329Y394094D02*
X300594Y394094D01*
X300500Y394000D01*
X300500Y364000D02*
X295000Y364000D01*
D27*
X372000Y391500D03*
D20*
X372000Y156000D02*
X370000Y154000D01*
X418500Y147000D02*
X419000Y147000D01*
X418500Y147000D02*
X409500Y156000D01*
D27*
X372000Y156000D03*
X409500Y156000D03*
D28*
X410500Y391500D02*
X427500Y391500D01*
X452000Y391500D01*
D20*
X369083Y394000D02*
X359500Y394000D01*
X369083Y394000D02*
X372000Y391500D01*
X370125Y389000D02*
X359500Y389000D01*
X370125Y389000D02*
X372000Y391500D01*
D28*
X410500Y391500D01*
D20*
X372000Y156000D02*
X369294Y153294D01*
X369294Y140343D01*
X362451Y133500D01*
X360000Y133500D01*
D27*
X379000Y359000D03*
D28*
X398560Y359050D02*
X398620Y359020D01*
D27*
X398560Y359050D03*
D28*
X451980Y359020D02*
X452000Y359000D01*
X451980Y359020D02*
X427030Y359020D01*
D20*
X379000Y359000D02*
X359500Y359000D01*
D28*
X410710Y359020D02*
X427030Y359020D01*
X410710Y359020D02*
X398620Y359020D01*
X284800Y438300D02*
X284300Y438800D01*
X284800Y438300D02*
X284800Y417900D01*
X274000Y455000D02*
X274000Y469000D01*
X274000Y455000D02*
X284300Y444700D01*
X284300Y438800D01*
D20*
X274000Y514118D02*
X274500Y517000D01*
X274000Y514118D02*
X274000Y469000D01*
X298700Y404000D02*
X300500Y404000D01*
X298700Y404000D02*
X284800Y417900D01*
X614670Y611500D02*
X629545Y611500D01*
X644545Y611500D02*
X660810Y611500D01*
X323000Y320500D02*
X317000Y314500D01*
X317000Y133000D02*
X320000Y130000D01*
X317000Y133000D02*
X317000Y314500D01*
D27*
X320000Y130000D03*
X301000Y130000D03*
D20*
X303000Y132000D01*
X303000Y315340D02*
X299000Y319500D01*
X299000Y322500D01*
X303000Y315340D02*
X303000Y132000D01*
X444500Y602000D02*
X444600Y673000D01*
X444500Y602000D02*
X445200Y601300D01*
X337500Y352000D02*
X338000Y337500D01*
X347500Y342250D02*
X353000Y337570D01*
X347500Y342250D02*
X347500Y352000D01*
X312500Y411000D02*
X312500Y421500D01*
X308000Y536780D02*
X294640Y550140D01*
X292590Y552190D01*
X308000Y426000D02*
X312500Y421500D01*
X308000Y426000D02*
X308000Y536780D01*
X292590Y552190D02*
X292590Y583940D01*
X290250Y549750D02*
X274500Y534000D01*
X290640Y550140D02*
X292590Y552090D01*
X292590Y552190D01*
X290640Y550140D02*
X290250Y549750D01*
X290640Y550140D02*
X294640Y550140D01*
X293800Y475500D02*
X293800Y456700D01*
X301500Y449000D02*
X301500Y415000D01*
X305500Y411000D01*
X307500Y411000D01*
X301500Y449000D02*
X293800Y456700D01*
X317500Y411000D02*
X317500Y583680D01*
X316720Y584460D01*
X495400Y602060D02*
X495400Y673000D01*
X495400Y602060D02*
X495110Y601770D01*
X470420Y601390D02*
X470420Y672580D01*
X470000Y673000D01*
X419590Y672610D02*
X419590Y600880D01*
X419590Y672610D02*
X419200Y673000D01*
X394190Y672610D02*
X394190Y601400D01*
X394190Y672610D02*
X393800Y673000D01*
X368790Y672610D02*
X368790Y601920D01*
X368790Y672610D02*
X368400Y673000D01*
X342120Y672120D02*
X342120Y601170D01*
X342120Y672120D02*
X343000Y673000D01*
X316720Y672120D02*
X316720Y601460D01*
X316720Y672120D02*
X317600Y673000D01*
X292590Y672610D02*
X292590Y600940D01*
X292590Y672610D02*
X292200Y673000D01*
X520460Y559460D02*
X365000Y404000D01*
X359500Y404000D01*
X520460Y559460D02*
X520460Y584710D01*
X495110Y584770D02*
X495110Y548610D01*
X357500Y411000D01*
X352500Y411000D01*
X347706Y411206D02*
X347706Y416157D01*
X347706Y411206D02*
X347500Y411000D01*
X470420Y538871D02*
X470420Y584390D01*
X470420Y538871D02*
X347706Y416157D01*
X445200Y527700D02*
X445200Y584300D01*
X445200Y527700D02*
X342500Y425000D01*
X342500Y411000D01*
X419590Y516590D02*
X419590Y583880D01*
X419590Y516590D02*
X419500Y516500D01*
X337500Y433500D02*
X337500Y411000D01*
X419500Y515500D02*
X419500Y516500D01*
X419500Y515500D02*
X337500Y433500D01*
X332500Y442500D02*
X332500Y411000D01*
X394190Y504190D02*
X394190Y584400D01*
X394190Y504190D02*
X332500Y442500D01*
X368790Y494057D02*
X368790Y584920D01*
X327500Y452767D02*
X327500Y411000D01*
X327500Y452767D02*
X368790Y494057D01*
X342120Y482127D02*
X342120Y584170D01*
X322500Y462507D02*
X322500Y411000D01*
X322500Y462507D02*
X342120Y482127D01*
X293800Y492500D02*
X293800Y503400D01*
X322500Y352000D02*
X322500Y338000D01*
X323000Y337500D01*
M02*
