G04 EAGLE Gerber RS-274X export*
G75*
%MOMM*%
%FSLAX34Y34*%
%LPD*%
%INBottom Copper*%
%IPPOS*%
%AMOC8*
5,1,8,0,0,1.08239X$1,22.5*%
G01*
%ADD10C,1.524000*%
%ADD11R,1.879600X1.879600*%
%ADD12C,1.879600*%
%ADD13C,5.080000*%
%ADD14C,0.756400*%
%ADD15C,0.508000*%
%ADD16C,0.254000*%
%ADD17C,0.152400*%

G36*
X651900Y10165D02*
X651900Y10165D01*
X651924Y10162D01*
X652021Y10184D01*
X652119Y10200D01*
X652141Y10212D01*
X652164Y10217D01*
X652249Y10269D01*
X652337Y10316D01*
X652353Y10333D01*
X652374Y10346D01*
X652438Y10422D01*
X652506Y10494D01*
X652516Y10516D01*
X652532Y10534D01*
X652568Y10627D01*
X652610Y10717D01*
X652612Y10741D01*
X652621Y10763D01*
X652626Y10863D01*
X652637Y10961D01*
X652632Y10985D01*
X652633Y11009D01*
X652606Y11105D01*
X652584Y11202D01*
X652572Y11222D01*
X652565Y11246D01*
X652509Y11328D01*
X652458Y11413D01*
X652440Y11429D01*
X652426Y11448D01*
X652347Y11508D01*
X652271Y11573D01*
X652249Y11582D01*
X652230Y11596D01*
X652073Y11657D01*
X651823Y11724D01*
X645516Y15366D01*
X640366Y20516D01*
X636724Y26823D01*
X634839Y33858D01*
X634839Y41142D01*
X636724Y48177D01*
X640366Y54484D01*
X645516Y59634D01*
X651823Y63276D01*
X658858Y65161D01*
X666142Y65161D01*
X673177Y63276D01*
X679484Y59634D01*
X684634Y54484D01*
X688276Y48177D01*
X688343Y47927D01*
X688353Y47904D01*
X688357Y47881D01*
X688403Y47793D01*
X688444Y47702D01*
X688460Y47685D01*
X688472Y47663D01*
X688544Y47595D01*
X688611Y47522D01*
X688632Y47511D01*
X688650Y47494D01*
X688740Y47452D01*
X688827Y47405D01*
X688851Y47401D01*
X688873Y47390D01*
X688972Y47379D01*
X689070Y47362D01*
X689094Y47366D01*
X689117Y47363D01*
X689215Y47384D01*
X689313Y47399D01*
X689334Y47410D01*
X689358Y47416D01*
X689443Y47466D01*
X689531Y47512D01*
X689548Y47529D01*
X689569Y47542D01*
X689634Y47617D01*
X689703Y47689D01*
X689713Y47710D01*
X689729Y47729D01*
X689766Y47821D01*
X689809Y47910D01*
X689812Y47934D01*
X689821Y47957D01*
X689839Y48124D01*
X689839Y651876D01*
X689835Y651900D01*
X689838Y651924D01*
X689816Y652021D01*
X689800Y652119D01*
X689788Y652141D01*
X689783Y652164D01*
X689731Y652249D01*
X689684Y652337D01*
X689667Y652353D01*
X689654Y652374D01*
X689578Y652438D01*
X689506Y652506D01*
X689484Y652516D01*
X689466Y652532D01*
X689373Y652568D01*
X689283Y652610D01*
X689259Y652612D01*
X689237Y652621D01*
X689137Y652626D01*
X689039Y652637D01*
X689015Y652632D01*
X688991Y652633D01*
X688895Y652606D01*
X688798Y652584D01*
X688778Y652572D01*
X688754Y652565D01*
X688672Y652509D01*
X688587Y652458D01*
X688571Y652440D01*
X688552Y652426D01*
X688492Y652347D01*
X688427Y652271D01*
X688418Y652249D01*
X688404Y652230D01*
X688343Y652073D01*
X688276Y651823D01*
X684634Y645516D01*
X679484Y640366D01*
X673177Y636724D01*
X666142Y634839D01*
X658858Y634839D01*
X651823Y636724D01*
X645516Y640366D01*
X640366Y645516D01*
X636724Y651823D01*
X634839Y658858D01*
X634839Y666142D01*
X636724Y673177D01*
X640366Y679484D01*
X645516Y684634D01*
X651823Y688276D01*
X652073Y688343D01*
X652096Y688353D01*
X652119Y688357D01*
X652207Y688403D01*
X652298Y688444D01*
X652315Y688460D01*
X652337Y688472D01*
X652405Y688544D01*
X652478Y688611D01*
X652489Y688632D01*
X652506Y688650D01*
X652548Y688740D01*
X652595Y688827D01*
X652599Y688851D01*
X652610Y688873D01*
X652621Y688972D01*
X652638Y689070D01*
X652634Y689094D01*
X652637Y689117D01*
X652616Y689215D01*
X652601Y689313D01*
X652590Y689334D01*
X652584Y689358D01*
X652534Y689443D01*
X652488Y689531D01*
X652471Y689548D01*
X652458Y689569D01*
X652383Y689634D01*
X652311Y689703D01*
X652290Y689713D01*
X652271Y689729D01*
X652179Y689766D01*
X652090Y689809D01*
X652066Y689812D01*
X652043Y689821D01*
X651876Y689839D01*
X553140Y689839D01*
X553132Y689838D01*
X553124Y689839D01*
X553010Y689818D01*
X552897Y689800D01*
X552890Y689796D01*
X552882Y689794D01*
X552781Y689738D01*
X552680Y689684D01*
X552674Y689679D01*
X552667Y689675D01*
X552590Y689589D01*
X552511Y689506D01*
X552507Y689499D01*
X552502Y689493D01*
X552455Y689387D01*
X552407Y689283D01*
X552406Y689275D01*
X552403Y689268D01*
X552392Y689152D01*
X552380Y689039D01*
X552382Y689031D01*
X552381Y689023D01*
X552408Y688911D01*
X552432Y688798D01*
X552436Y688791D01*
X552438Y688784D01*
X552499Y688686D01*
X552558Y688587D01*
X552564Y688582D01*
X552569Y688575D01*
X552693Y688462D01*
X552819Y688370D01*
X553950Y687239D01*
X554890Y685945D01*
X555616Y684520D01*
X556111Y682999D01*
X556361Y681420D01*
X556361Y674523D01*
X546962Y674523D01*
X546942Y674520D01*
X546923Y674522D01*
X546821Y674500D01*
X546719Y674483D01*
X546702Y674474D01*
X546682Y674470D01*
X546593Y674417D01*
X546502Y674368D01*
X546488Y674354D01*
X546471Y674344D01*
X546404Y674265D01*
X546333Y674190D01*
X546324Y674172D01*
X546311Y674157D01*
X546273Y674061D01*
X546229Y673967D01*
X546227Y673947D01*
X546219Y673929D01*
X546201Y673762D01*
X546201Y672999D01*
X545438Y672999D01*
X545418Y672996D01*
X545399Y672998D01*
X545297Y672976D01*
X545195Y672959D01*
X545178Y672950D01*
X545158Y672946D01*
X545069Y672893D01*
X544978Y672844D01*
X544964Y672830D01*
X544947Y672820D01*
X544880Y672741D01*
X544809Y672666D01*
X544800Y672648D01*
X544787Y672633D01*
X544748Y672537D01*
X544705Y672443D01*
X544703Y672423D01*
X544695Y672405D01*
X544677Y672238D01*
X544677Y655334D01*
X543821Y655469D01*
X542300Y655964D01*
X540875Y656690D01*
X539581Y657630D01*
X538450Y658761D01*
X537510Y660055D01*
X536784Y661480D01*
X536724Y661663D01*
X536722Y661667D01*
X536722Y661671D01*
X536666Y661776D01*
X536611Y661882D01*
X536608Y661885D01*
X536606Y661888D01*
X536521Y661969D01*
X536435Y662053D01*
X536431Y662055D01*
X536428Y662058D01*
X536320Y662108D01*
X536213Y662159D01*
X536209Y662160D01*
X536205Y662161D01*
X536087Y662174D01*
X535969Y662189D01*
X535965Y662188D01*
X535961Y662188D01*
X535844Y662163D01*
X535728Y662139D01*
X535724Y662137D01*
X535720Y662136D01*
X535617Y662075D01*
X535515Y662015D01*
X535513Y662012D01*
X535509Y662010D01*
X535431Y661919D01*
X535353Y661830D01*
X535352Y661826D01*
X535349Y661823D01*
X535304Y661711D01*
X535259Y661603D01*
X535259Y661599D01*
X535257Y661595D01*
X535239Y661428D01*
X535239Y552815D01*
X490455Y508031D01*
X490403Y507960D01*
X490346Y507894D01*
X490332Y507861D01*
X490311Y507831D01*
X490285Y507748D01*
X490252Y507667D01*
X490246Y507621D01*
X490239Y507596D01*
X490239Y507565D01*
X490232Y507500D01*
X490101Y494226D01*
X490116Y494132D01*
X490123Y494038D01*
X490134Y494011D01*
X490139Y493983D01*
X490182Y493899D01*
X490220Y493811D01*
X490242Y493783D01*
X490252Y493765D01*
X490275Y493742D01*
X490324Y493680D01*
X491307Y492698D01*
X491307Y488302D01*
X488198Y485193D01*
X483802Y485193D01*
X480693Y488302D01*
X480693Y492698D01*
X481749Y493754D01*
X481800Y493825D01*
X481858Y493891D01*
X481872Y493925D01*
X481893Y493954D01*
X481918Y494037D01*
X481952Y494118D01*
X481958Y494164D01*
X481965Y494189D01*
X481964Y494220D01*
X481972Y494285D01*
X482006Y497737D01*
X481995Y497812D01*
X481993Y497887D01*
X481976Y497933D01*
X481969Y497980D01*
X481934Y498047D01*
X481908Y498118D01*
X481878Y498156D01*
X481856Y498199D01*
X481802Y498251D01*
X481754Y498310D01*
X481714Y498336D01*
X481679Y498370D01*
X481611Y498402D01*
X481548Y498443D01*
X481501Y498455D01*
X481457Y498476D01*
X481382Y498485D01*
X481309Y498503D01*
X481261Y498500D01*
X481213Y498505D01*
X481139Y498490D01*
X481064Y498484D01*
X481019Y498465D01*
X480972Y498455D01*
X480907Y498417D01*
X480838Y498388D01*
X480787Y498347D01*
X480760Y498331D01*
X480743Y498312D01*
X480707Y498283D01*
X384185Y401761D01*
X307065Y401761D01*
X292761Y416065D01*
X292761Y445000D01*
X292747Y445090D01*
X292739Y445181D01*
X292727Y445211D01*
X292722Y445243D01*
X292679Y445323D01*
X292643Y445407D01*
X292617Y445439D01*
X292606Y445460D01*
X292583Y445482D01*
X292538Y445538D01*
X282761Y455315D01*
X282761Y495500D01*
X282747Y495590D01*
X282739Y495681D01*
X282727Y495711D01*
X282722Y495743D01*
X282679Y495823D01*
X282643Y495907D01*
X282617Y495939D01*
X282606Y495960D01*
X282583Y495982D01*
X282538Y496038D01*
X277538Y501038D01*
X277464Y501091D01*
X277395Y501151D01*
X277365Y501163D01*
X277339Y501182D01*
X277252Y501209D01*
X277167Y501243D01*
X277126Y501247D01*
X277103Y501254D01*
X277071Y501253D01*
X277000Y501261D01*
X265315Y501261D01*
X258761Y507815D01*
X258761Y537185D01*
X273212Y551636D01*
X273254Y551694D01*
X273304Y551746D01*
X273326Y551793D01*
X273356Y551835D01*
X273377Y551904D01*
X273407Y551969D01*
X273413Y552021D01*
X273428Y552071D01*
X273426Y552142D01*
X273434Y552213D01*
X273423Y552264D01*
X273422Y552316D01*
X273397Y552384D01*
X273382Y552454D01*
X273355Y552498D01*
X273337Y552547D01*
X273293Y552603D01*
X273256Y552665D01*
X273216Y552699D01*
X273184Y552739D01*
X273123Y552778D01*
X273069Y552825D01*
X273021Y552844D01*
X272977Y552872D01*
X272907Y552890D01*
X272841Y552917D01*
X272769Y552925D01*
X272738Y552933D01*
X272715Y552931D01*
X272674Y552935D01*
X270755Y552935D01*
X270665Y552921D01*
X270574Y552913D01*
X270545Y552901D01*
X270513Y552896D01*
X270432Y552853D01*
X270348Y552817D01*
X270316Y552791D01*
X270295Y552780D01*
X270292Y552777D01*
X270272Y552757D01*
X270217Y552712D01*
X269198Y551693D01*
X264802Y551693D01*
X261693Y554802D01*
X261693Y559198D01*
X264802Y562307D01*
X269198Y562307D01*
X270217Y561288D01*
X270291Y561235D01*
X270361Y561175D01*
X270391Y561163D01*
X270417Y561144D01*
X270504Y561117D01*
X270589Y561083D01*
X270630Y561079D01*
X270652Y561072D01*
X270684Y561073D01*
X270755Y561065D01*
X277000Y561065D01*
X277020Y561068D01*
X277039Y561066D01*
X277141Y561088D01*
X277243Y561104D01*
X277260Y561114D01*
X277280Y561118D01*
X277369Y561171D01*
X277460Y561220D01*
X277474Y561234D01*
X277491Y561244D01*
X277558Y561323D01*
X277630Y561398D01*
X277638Y561416D01*
X277651Y561431D01*
X277690Y561527D01*
X277733Y561621D01*
X277735Y561641D01*
X277743Y561659D01*
X277761Y561826D01*
X277761Y689078D01*
X277758Y689098D01*
X277760Y689117D01*
X277738Y689219D01*
X277722Y689321D01*
X277712Y689338D01*
X277708Y689358D01*
X277655Y689447D01*
X277606Y689538D01*
X277592Y689552D01*
X277582Y689569D01*
X277503Y689636D01*
X277428Y689708D01*
X277410Y689716D01*
X277395Y689729D01*
X277299Y689768D01*
X277205Y689811D01*
X277185Y689813D01*
X277167Y689821D01*
X277000Y689839D01*
X272266Y689839D01*
X272170Y689824D01*
X272073Y689814D01*
X272049Y689804D01*
X272023Y689800D01*
X271937Y689754D01*
X271848Y689714D01*
X271829Y689697D01*
X271806Y689684D01*
X271739Y689614D01*
X271667Y689548D01*
X271655Y689525D01*
X271637Y689506D01*
X271596Y689418D01*
X271549Y689332D01*
X271544Y689307D01*
X271533Y689283D01*
X271522Y689186D01*
X271505Y689090D01*
X271509Y689064D01*
X271506Y689039D01*
X271527Y688943D01*
X271541Y688847D01*
X271553Y688824D01*
X271558Y688798D01*
X271608Y688714D01*
X271652Y688628D01*
X271671Y688609D01*
X271684Y688587D01*
X271758Y688524D01*
X271828Y688455D01*
X271856Y688440D01*
X271871Y688427D01*
X271902Y688415D01*
X271975Y688375D01*
X271980Y688372D01*
X274553Y685800D01*
X275945Y682439D01*
X275945Y663561D01*
X274553Y660200D01*
X271980Y657627D01*
X268619Y656235D01*
X264981Y656235D01*
X261620Y657627D01*
X259047Y660200D01*
X257655Y663561D01*
X257655Y682439D01*
X259047Y685800D01*
X261620Y688372D01*
X261625Y688375D01*
X261708Y688426D01*
X261794Y688472D01*
X261812Y688490D01*
X261834Y688504D01*
X261896Y688579D01*
X261963Y688650D01*
X261974Y688674D01*
X261991Y688694D01*
X262026Y688785D01*
X262067Y688873D01*
X262070Y688899D01*
X262079Y688923D01*
X262083Y689021D01*
X262094Y689117D01*
X262089Y689143D01*
X262090Y689169D01*
X262063Y689262D01*
X262042Y689358D01*
X262029Y689380D01*
X262021Y689405D01*
X261966Y689485D01*
X261916Y689569D01*
X261896Y689586D01*
X261881Y689607D01*
X261803Y689665D01*
X261729Y689729D01*
X261705Y689739D01*
X261684Y689754D01*
X261591Y689784D01*
X261501Y689821D01*
X261468Y689824D01*
X261450Y689830D01*
X261417Y689830D01*
X261334Y689839D01*
X48124Y689839D01*
X48100Y689835D01*
X48076Y689838D01*
X47979Y689816D01*
X47881Y689800D01*
X47859Y689788D01*
X47836Y689783D01*
X47751Y689731D01*
X47663Y689684D01*
X47647Y689667D01*
X47626Y689654D01*
X47562Y689578D01*
X47494Y689506D01*
X47484Y689484D01*
X47468Y689466D01*
X47432Y689373D01*
X47390Y689283D01*
X47388Y689259D01*
X47379Y689237D01*
X47374Y689137D01*
X47363Y689039D01*
X47368Y689015D01*
X47367Y688991D01*
X47394Y688895D01*
X47416Y688798D01*
X47428Y688778D01*
X47435Y688754D01*
X47491Y688672D01*
X47542Y688587D01*
X47560Y688571D01*
X47574Y688552D01*
X47653Y688492D01*
X47729Y688427D01*
X47751Y688418D01*
X47770Y688404D01*
X47927Y688343D01*
X48177Y688276D01*
X54484Y684634D01*
X59634Y679484D01*
X63276Y673177D01*
X65161Y666142D01*
X65161Y658858D01*
X63276Y651823D01*
X59634Y645516D01*
X54484Y640366D01*
X48177Y636724D01*
X41142Y634839D01*
X33858Y634839D01*
X26823Y636724D01*
X20516Y640366D01*
X15366Y645516D01*
X11724Y651823D01*
X11657Y652073D01*
X11647Y652096D01*
X11643Y652119D01*
X11597Y652207D01*
X11556Y652298D01*
X11540Y652315D01*
X11528Y652337D01*
X11456Y652405D01*
X11389Y652478D01*
X11368Y652489D01*
X11350Y652506D01*
X11260Y652548D01*
X11173Y652595D01*
X11149Y652599D01*
X11127Y652610D01*
X11028Y652621D01*
X10930Y652638D01*
X10906Y652634D01*
X10883Y652637D01*
X10785Y652616D01*
X10687Y652601D01*
X10666Y652590D01*
X10642Y652584D01*
X10557Y652534D01*
X10469Y652488D01*
X10452Y652471D01*
X10431Y652458D01*
X10366Y652383D01*
X10297Y652311D01*
X10287Y652290D01*
X10271Y652271D01*
X10234Y652179D01*
X10191Y652090D01*
X10188Y652066D01*
X10179Y652043D01*
X10161Y651876D01*
X10161Y48124D01*
X10165Y48100D01*
X10162Y48076D01*
X10184Y47979D01*
X10200Y47881D01*
X10212Y47859D01*
X10217Y47836D01*
X10269Y47751D01*
X10316Y47663D01*
X10333Y47647D01*
X10346Y47626D01*
X10422Y47562D01*
X10494Y47494D01*
X10516Y47484D01*
X10534Y47468D01*
X10627Y47432D01*
X10717Y47390D01*
X10741Y47388D01*
X10763Y47379D01*
X10863Y47374D01*
X10961Y47363D01*
X10985Y47368D01*
X11009Y47367D01*
X11105Y47394D01*
X11202Y47416D01*
X11222Y47428D01*
X11246Y47435D01*
X11328Y47491D01*
X11413Y47542D01*
X11429Y47560D01*
X11448Y47574D01*
X11508Y47653D01*
X11573Y47729D01*
X11582Y47751D01*
X11596Y47770D01*
X11657Y47927D01*
X11724Y48177D01*
X15366Y54484D01*
X20516Y59634D01*
X26823Y63276D01*
X33858Y65161D01*
X41142Y65161D01*
X48177Y63276D01*
X54484Y59634D01*
X59634Y54484D01*
X63276Y48177D01*
X65161Y41142D01*
X65161Y33858D01*
X63276Y26823D01*
X59634Y20516D01*
X54484Y15366D01*
X48177Y11724D01*
X47927Y11657D01*
X47904Y11647D01*
X47881Y11643D01*
X47793Y11597D01*
X47702Y11556D01*
X47685Y11540D01*
X47663Y11528D01*
X47595Y11456D01*
X47522Y11389D01*
X47511Y11368D01*
X47494Y11350D01*
X47452Y11260D01*
X47405Y11173D01*
X47401Y11149D01*
X47390Y11127D01*
X47379Y11028D01*
X47362Y10930D01*
X47366Y10906D01*
X47363Y10883D01*
X47384Y10785D01*
X47399Y10687D01*
X47410Y10666D01*
X47416Y10642D01*
X47466Y10557D01*
X47512Y10469D01*
X47529Y10452D01*
X47542Y10431D01*
X47617Y10366D01*
X47689Y10297D01*
X47710Y10287D01*
X47729Y10271D01*
X47821Y10234D01*
X47910Y10191D01*
X47934Y10188D01*
X47957Y10179D01*
X48124Y10161D01*
X651876Y10161D01*
X651900Y10165D01*
G37*
G36*
X492204Y515853D02*
X492204Y515853D01*
X492279Y515859D01*
X492324Y515878D01*
X492371Y515887D01*
X492436Y515926D01*
X492505Y515955D01*
X492556Y515996D01*
X492583Y516012D01*
X492600Y516031D01*
X492636Y516060D01*
X531538Y554962D01*
X531591Y555036D01*
X531651Y555105D01*
X531663Y555135D01*
X531682Y555161D01*
X531709Y555248D01*
X531743Y555333D01*
X531747Y555374D01*
X531754Y555397D01*
X531753Y555429D01*
X531761Y555500D01*
X531761Y661464D01*
X531746Y661561D01*
X531736Y661658D01*
X531726Y661681D01*
X531722Y661707D01*
X531676Y661793D01*
X531636Y661882D01*
X531619Y661902D01*
X531606Y661925D01*
X531536Y661992D01*
X531470Y662063D01*
X531447Y662076D01*
X531428Y662094D01*
X531340Y662135D01*
X531254Y662182D01*
X531229Y662187D01*
X531205Y662198D01*
X531108Y662208D01*
X531012Y662226D01*
X530986Y662222D01*
X530961Y662225D01*
X530865Y662204D01*
X530769Y662190D01*
X530746Y662178D01*
X530720Y662172D01*
X530637Y662123D01*
X530550Y662078D01*
X530531Y662060D01*
X530509Y662046D01*
X530446Y661972D01*
X530378Y661903D01*
X530362Y661874D01*
X530349Y661859D01*
X530337Y661829D01*
X530297Y661756D01*
X529414Y659624D01*
X526556Y656766D01*
X522821Y655219D01*
X518779Y655219D01*
X515044Y656766D01*
X512186Y659624D01*
X510639Y663359D01*
X510639Y682641D01*
X512186Y686376D01*
X514350Y688540D01*
X514392Y688598D01*
X514442Y688650D01*
X514463Y688697D01*
X514494Y688739D01*
X514515Y688808D01*
X514545Y688873D01*
X514551Y688925D01*
X514566Y688975D01*
X514564Y689046D01*
X514572Y689117D01*
X514561Y689168D01*
X514560Y689220D01*
X514535Y689288D01*
X514520Y689358D01*
X514493Y689403D01*
X514475Y689451D01*
X514431Y689507D01*
X514394Y689569D01*
X514354Y689603D01*
X514322Y689643D01*
X514261Y689682D01*
X514207Y689729D01*
X514159Y689748D01*
X514115Y689776D01*
X514045Y689794D01*
X513979Y689821D01*
X513907Y689829D01*
X513876Y689837D01*
X513853Y689835D01*
X513812Y689839D01*
X502388Y689839D01*
X502317Y689828D01*
X502246Y689826D01*
X502197Y689808D01*
X502145Y689800D01*
X502082Y689766D01*
X502015Y689741D01*
X501974Y689709D01*
X501928Y689684D01*
X501879Y689632D01*
X501823Y689588D01*
X501794Y689544D01*
X501758Y689506D01*
X501728Y689441D01*
X501690Y689381D01*
X501677Y689330D01*
X501655Y689283D01*
X501647Y689212D01*
X501629Y689142D01*
X501634Y689090D01*
X501628Y689039D01*
X501643Y688968D01*
X501649Y688897D01*
X501669Y688849D01*
X501680Y688798D01*
X501717Y688737D01*
X501745Y688671D01*
X501790Y688615D01*
X501806Y688587D01*
X501824Y688572D01*
X501850Y688540D01*
X504014Y686376D01*
X505561Y682641D01*
X505561Y663359D01*
X504014Y659624D01*
X501156Y656766D01*
X497421Y655219D01*
X493379Y655219D01*
X489644Y656766D01*
X486786Y659624D01*
X485239Y663359D01*
X485239Y682641D01*
X486786Y686376D01*
X488950Y688540D01*
X488992Y688598D01*
X489042Y688650D01*
X489063Y688697D01*
X489094Y688739D01*
X489115Y688808D01*
X489145Y688873D01*
X489151Y688925D01*
X489166Y688975D01*
X489164Y689046D01*
X489172Y689117D01*
X489161Y689168D01*
X489160Y689220D01*
X489135Y689288D01*
X489120Y689358D01*
X489093Y689403D01*
X489075Y689451D01*
X489031Y689507D01*
X488994Y689569D01*
X488954Y689603D01*
X488922Y689643D01*
X488861Y689682D01*
X488807Y689729D01*
X488759Y689748D01*
X488715Y689776D01*
X488645Y689794D01*
X488579Y689821D01*
X488507Y689829D01*
X488476Y689837D01*
X488453Y689835D01*
X488412Y689839D01*
X476988Y689839D01*
X476917Y689828D01*
X476846Y689826D01*
X476797Y689808D01*
X476745Y689800D01*
X476682Y689766D01*
X476615Y689741D01*
X476574Y689709D01*
X476528Y689684D01*
X476479Y689632D01*
X476423Y689588D01*
X476394Y689544D01*
X476358Y689506D01*
X476328Y689441D01*
X476290Y689381D01*
X476277Y689330D01*
X476255Y689283D01*
X476247Y689212D01*
X476229Y689142D01*
X476234Y689090D01*
X476228Y689039D01*
X476243Y688968D01*
X476249Y688897D01*
X476269Y688849D01*
X476280Y688798D01*
X476317Y688737D01*
X476345Y688671D01*
X476390Y688615D01*
X476406Y688587D01*
X476424Y688572D01*
X476450Y688540D01*
X478614Y686376D01*
X480161Y682641D01*
X480161Y663359D01*
X478614Y659624D01*
X475756Y656766D01*
X472021Y655219D01*
X467979Y655219D01*
X464244Y656766D01*
X461386Y659624D01*
X459839Y663359D01*
X459839Y682641D01*
X461386Y686376D01*
X463550Y688540D01*
X463592Y688598D01*
X463642Y688650D01*
X463663Y688697D01*
X463694Y688739D01*
X463715Y688808D01*
X463745Y688873D01*
X463751Y688925D01*
X463766Y688975D01*
X463764Y689046D01*
X463772Y689117D01*
X463761Y689168D01*
X463760Y689220D01*
X463735Y689288D01*
X463720Y689358D01*
X463693Y689403D01*
X463675Y689451D01*
X463631Y689507D01*
X463594Y689569D01*
X463554Y689603D01*
X463522Y689643D01*
X463461Y689682D01*
X463407Y689729D01*
X463359Y689748D01*
X463315Y689776D01*
X463245Y689794D01*
X463179Y689821D01*
X463107Y689829D01*
X463076Y689837D01*
X463053Y689835D01*
X463012Y689839D01*
X451588Y689839D01*
X451517Y689828D01*
X451446Y689826D01*
X451397Y689808D01*
X451345Y689800D01*
X451282Y689766D01*
X451215Y689741D01*
X451174Y689709D01*
X451128Y689684D01*
X451079Y689632D01*
X451023Y689588D01*
X450994Y689544D01*
X450958Y689506D01*
X450928Y689441D01*
X450890Y689381D01*
X450877Y689330D01*
X450855Y689283D01*
X450847Y689212D01*
X450829Y689142D01*
X450834Y689090D01*
X450828Y689039D01*
X450843Y688968D01*
X450849Y688897D01*
X450869Y688849D01*
X450880Y688798D01*
X450917Y688737D01*
X450945Y688671D01*
X450990Y688615D01*
X451006Y688587D01*
X451024Y688572D01*
X451050Y688540D01*
X453214Y686376D01*
X454761Y682641D01*
X454761Y663359D01*
X453214Y659624D01*
X450356Y656766D01*
X446621Y655219D01*
X442579Y655219D01*
X438844Y656766D01*
X435986Y659624D01*
X434439Y663359D01*
X434439Y682641D01*
X435986Y686376D01*
X438150Y688540D01*
X438192Y688598D01*
X438242Y688650D01*
X438263Y688697D01*
X438294Y688739D01*
X438315Y688808D01*
X438345Y688873D01*
X438351Y688925D01*
X438366Y688975D01*
X438364Y689046D01*
X438372Y689117D01*
X438361Y689168D01*
X438360Y689220D01*
X438335Y689288D01*
X438320Y689358D01*
X438293Y689403D01*
X438275Y689451D01*
X438231Y689507D01*
X438194Y689569D01*
X438154Y689603D01*
X438122Y689643D01*
X438061Y689682D01*
X438007Y689729D01*
X437959Y689748D01*
X437915Y689776D01*
X437845Y689794D01*
X437779Y689821D01*
X437707Y689829D01*
X437676Y689837D01*
X437653Y689835D01*
X437612Y689839D01*
X426188Y689839D01*
X426117Y689828D01*
X426046Y689826D01*
X425997Y689808D01*
X425945Y689800D01*
X425882Y689766D01*
X425815Y689741D01*
X425774Y689709D01*
X425728Y689684D01*
X425679Y689632D01*
X425623Y689588D01*
X425594Y689544D01*
X425558Y689506D01*
X425528Y689441D01*
X425490Y689381D01*
X425477Y689330D01*
X425455Y689283D01*
X425447Y689212D01*
X425429Y689142D01*
X425434Y689090D01*
X425428Y689039D01*
X425443Y688968D01*
X425449Y688897D01*
X425469Y688849D01*
X425480Y688798D01*
X425517Y688737D01*
X425545Y688671D01*
X425590Y688615D01*
X425606Y688587D01*
X425624Y688572D01*
X425650Y688540D01*
X427814Y686376D01*
X429361Y682641D01*
X429361Y663359D01*
X427814Y659624D01*
X424956Y656766D01*
X421221Y655219D01*
X417179Y655219D01*
X413444Y656766D01*
X410586Y659624D01*
X409039Y663359D01*
X409039Y682641D01*
X410586Y686376D01*
X412750Y688540D01*
X412792Y688598D01*
X412842Y688650D01*
X412863Y688697D01*
X412894Y688739D01*
X412915Y688808D01*
X412945Y688873D01*
X412951Y688925D01*
X412966Y688975D01*
X412964Y689046D01*
X412972Y689117D01*
X412961Y689168D01*
X412960Y689220D01*
X412935Y689288D01*
X412920Y689358D01*
X412893Y689403D01*
X412875Y689451D01*
X412831Y689507D01*
X412794Y689569D01*
X412754Y689603D01*
X412722Y689643D01*
X412661Y689682D01*
X412607Y689729D01*
X412559Y689748D01*
X412515Y689776D01*
X412445Y689794D01*
X412379Y689821D01*
X412307Y689829D01*
X412276Y689837D01*
X412253Y689835D01*
X412212Y689839D01*
X400788Y689839D01*
X400717Y689828D01*
X400646Y689826D01*
X400597Y689808D01*
X400545Y689800D01*
X400482Y689766D01*
X400415Y689741D01*
X400374Y689709D01*
X400328Y689684D01*
X400279Y689632D01*
X400223Y689588D01*
X400194Y689544D01*
X400158Y689506D01*
X400128Y689441D01*
X400090Y689381D01*
X400077Y689330D01*
X400055Y689283D01*
X400047Y689212D01*
X400029Y689142D01*
X400034Y689090D01*
X400028Y689039D01*
X400043Y688968D01*
X400049Y688897D01*
X400069Y688849D01*
X400080Y688798D01*
X400117Y688737D01*
X400145Y688671D01*
X400190Y688615D01*
X400206Y688587D01*
X400224Y688572D01*
X400250Y688540D01*
X402414Y686376D01*
X403961Y682641D01*
X403961Y663359D01*
X402414Y659624D01*
X399556Y656766D01*
X395821Y655219D01*
X391779Y655219D01*
X388044Y656766D01*
X385186Y659624D01*
X383639Y663359D01*
X383639Y682641D01*
X385186Y686376D01*
X387350Y688540D01*
X387392Y688598D01*
X387442Y688650D01*
X387463Y688697D01*
X387494Y688739D01*
X387515Y688808D01*
X387545Y688873D01*
X387551Y688925D01*
X387566Y688975D01*
X387564Y689046D01*
X387572Y689117D01*
X387561Y689168D01*
X387560Y689220D01*
X387535Y689288D01*
X387520Y689358D01*
X387493Y689403D01*
X387475Y689451D01*
X387431Y689507D01*
X387394Y689569D01*
X387354Y689603D01*
X387322Y689643D01*
X387261Y689682D01*
X387207Y689729D01*
X387159Y689748D01*
X387115Y689776D01*
X387045Y689794D01*
X386979Y689821D01*
X386907Y689829D01*
X386876Y689837D01*
X386853Y689835D01*
X386812Y689839D01*
X375388Y689839D01*
X375317Y689828D01*
X375246Y689826D01*
X375197Y689808D01*
X375145Y689800D01*
X375082Y689766D01*
X375015Y689741D01*
X374974Y689709D01*
X374928Y689684D01*
X374879Y689632D01*
X374823Y689588D01*
X374794Y689544D01*
X374758Y689506D01*
X374728Y689441D01*
X374690Y689381D01*
X374677Y689330D01*
X374655Y689283D01*
X374647Y689212D01*
X374629Y689142D01*
X374634Y689090D01*
X374628Y689039D01*
X374643Y688968D01*
X374649Y688897D01*
X374669Y688849D01*
X374680Y688798D01*
X374717Y688737D01*
X374745Y688671D01*
X374790Y688615D01*
X374806Y688587D01*
X374824Y688572D01*
X374850Y688540D01*
X377014Y686376D01*
X378561Y682641D01*
X378561Y663359D01*
X377014Y659624D01*
X374156Y656766D01*
X370421Y655219D01*
X366379Y655219D01*
X362644Y656766D01*
X359786Y659624D01*
X358239Y663359D01*
X358239Y682641D01*
X359786Y686376D01*
X361950Y688540D01*
X361992Y688598D01*
X362042Y688650D01*
X362063Y688697D01*
X362094Y688739D01*
X362115Y688808D01*
X362145Y688873D01*
X362151Y688925D01*
X362166Y688975D01*
X362164Y689046D01*
X362172Y689117D01*
X362161Y689168D01*
X362160Y689220D01*
X362135Y689288D01*
X362120Y689358D01*
X362093Y689403D01*
X362075Y689451D01*
X362031Y689507D01*
X361994Y689569D01*
X361954Y689603D01*
X361922Y689643D01*
X361861Y689682D01*
X361807Y689729D01*
X361759Y689748D01*
X361715Y689776D01*
X361645Y689794D01*
X361579Y689821D01*
X361507Y689829D01*
X361476Y689837D01*
X361453Y689835D01*
X361412Y689839D01*
X349988Y689839D01*
X349917Y689828D01*
X349846Y689826D01*
X349797Y689808D01*
X349745Y689800D01*
X349682Y689766D01*
X349615Y689741D01*
X349574Y689709D01*
X349528Y689684D01*
X349479Y689632D01*
X349423Y689588D01*
X349394Y689544D01*
X349358Y689506D01*
X349328Y689441D01*
X349290Y689381D01*
X349277Y689330D01*
X349255Y689283D01*
X349247Y689212D01*
X349229Y689142D01*
X349234Y689090D01*
X349228Y689039D01*
X349243Y688968D01*
X349249Y688897D01*
X349269Y688849D01*
X349280Y688798D01*
X349317Y688737D01*
X349345Y688671D01*
X349390Y688615D01*
X349406Y688587D01*
X349424Y688572D01*
X349450Y688540D01*
X351614Y686376D01*
X353161Y682641D01*
X353161Y663359D01*
X351614Y659624D01*
X348756Y656766D01*
X345021Y655219D01*
X340979Y655219D01*
X337244Y656766D01*
X334386Y659624D01*
X332839Y663359D01*
X332839Y682641D01*
X334386Y686376D01*
X336550Y688540D01*
X336592Y688598D01*
X336642Y688650D01*
X336663Y688697D01*
X336694Y688739D01*
X336715Y688808D01*
X336745Y688873D01*
X336751Y688925D01*
X336766Y688975D01*
X336764Y689046D01*
X336772Y689117D01*
X336761Y689168D01*
X336760Y689220D01*
X336735Y689288D01*
X336720Y689358D01*
X336693Y689403D01*
X336675Y689451D01*
X336631Y689507D01*
X336594Y689569D01*
X336554Y689603D01*
X336522Y689643D01*
X336461Y689682D01*
X336407Y689729D01*
X336359Y689748D01*
X336315Y689776D01*
X336245Y689794D01*
X336179Y689821D01*
X336107Y689829D01*
X336076Y689837D01*
X336053Y689835D01*
X336012Y689839D01*
X324588Y689839D01*
X324517Y689828D01*
X324446Y689826D01*
X324397Y689808D01*
X324345Y689800D01*
X324282Y689766D01*
X324215Y689741D01*
X324174Y689709D01*
X324128Y689684D01*
X324079Y689632D01*
X324023Y689588D01*
X323994Y689544D01*
X323958Y689506D01*
X323928Y689441D01*
X323890Y689381D01*
X323877Y689330D01*
X323855Y689283D01*
X323847Y689212D01*
X323829Y689142D01*
X323834Y689090D01*
X323828Y689039D01*
X323843Y688968D01*
X323849Y688897D01*
X323869Y688849D01*
X323880Y688798D01*
X323917Y688737D01*
X323945Y688671D01*
X323990Y688615D01*
X324006Y688587D01*
X324024Y688572D01*
X324050Y688540D01*
X326214Y686376D01*
X327761Y682641D01*
X327761Y663359D01*
X326214Y659624D01*
X323356Y656766D01*
X319621Y655219D01*
X315579Y655219D01*
X311844Y656766D01*
X308986Y659624D01*
X307439Y663359D01*
X307439Y682641D01*
X308986Y686376D01*
X311150Y688540D01*
X311192Y688598D01*
X311242Y688650D01*
X311263Y688697D01*
X311294Y688739D01*
X311315Y688808D01*
X311345Y688873D01*
X311351Y688925D01*
X311366Y688975D01*
X311364Y689046D01*
X311372Y689117D01*
X311361Y689168D01*
X311360Y689220D01*
X311335Y689288D01*
X311320Y689358D01*
X311293Y689403D01*
X311275Y689451D01*
X311231Y689507D01*
X311194Y689569D01*
X311154Y689603D01*
X311122Y689643D01*
X311061Y689682D01*
X311007Y689729D01*
X310959Y689748D01*
X310915Y689776D01*
X310845Y689794D01*
X310779Y689821D01*
X310707Y689829D01*
X310676Y689837D01*
X310653Y689835D01*
X310612Y689839D01*
X299188Y689839D01*
X299117Y689828D01*
X299046Y689826D01*
X298997Y689808D01*
X298945Y689800D01*
X298882Y689766D01*
X298815Y689741D01*
X298774Y689709D01*
X298728Y689684D01*
X298679Y689632D01*
X298623Y689588D01*
X298594Y689544D01*
X298558Y689506D01*
X298528Y689441D01*
X298490Y689381D01*
X298477Y689330D01*
X298455Y689283D01*
X298447Y689212D01*
X298429Y689142D01*
X298434Y689090D01*
X298428Y689039D01*
X298443Y688968D01*
X298449Y688897D01*
X298469Y688849D01*
X298480Y688798D01*
X298517Y688737D01*
X298545Y688671D01*
X298590Y688615D01*
X298606Y688587D01*
X298624Y688572D01*
X298650Y688540D01*
X300814Y686376D01*
X302361Y682641D01*
X302361Y663359D01*
X300814Y659624D01*
X297956Y656766D01*
X294221Y655219D01*
X290179Y655219D01*
X286444Y656766D01*
X283586Y659624D01*
X283352Y660189D01*
X283300Y660273D01*
X283254Y660360D01*
X283236Y660377D01*
X283223Y660398D01*
X283146Y660461D01*
X283075Y660529D01*
X283052Y660540D01*
X283033Y660555D01*
X282941Y660591D01*
X282851Y660632D01*
X282827Y660635D01*
X282803Y660643D01*
X282705Y660648D01*
X282607Y660658D01*
X282582Y660653D01*
X282558Y660654D01*
X282463Y660626D01*
X282366Y660605D01*
X282345Y660592D01*
X282321Y660585D01*
X282240Y660529D01*
X282156Y660478D01*
X282140Y660459D01*
X282119Y660445D01*
X282060Y660366D01*
X281997Y660291D01*
X281987Y660268D01*
X281973Y660248D01*
X281942Y660154D01*
X281905Y660062D01*
X281902Y660032D01*
X281896Y660014D01*
X281897Y659981D01*
X281888Y659895D01*
X282248Y562839D01*
X282251Y562821D01*
X282249Y562803D01*
X282271Y562700D01*
X282288Y562597D01*
X282297Y562580D01*
X282301Y562562D01*
X282355Y562472D01*
X282404Y562380D01*
X282418Y562367D01*
X282427Y562351D01*
X282507Y562283D01*
X282583Y562211D01*
X282600Y562203D01*
X282614Y562191D01*
X282712Y562152D01*
X282807Y562108D01*
X282825Y562106D01*
X282842Y562099D01*
X283009Y562081D01*
X473105Y562081D01*
X488405Y546780D01*
X488476Y546729D01*
X488543Y546671D01*
X488547Y546669D01*
X490108Y545077D01*
X490110Y545076D01*
X490113Y545072D01*
X491601Y543584D01*
X491581Y541479D01*
X491581Y541476D01*
X491581Y541472D01*
X491581Y539239D01*
X491577Y539231D01*
X491572Y539185D01*
X491564Y539160D01*
X491565Y539129D01*
X491557Y539064D01*
X491337Y516606D01*
X491348Y516531D01*
X491350Y516456D01*
X491367Y516410D01*
X491374Y516362D01*
X491409Y516296D01*
X491435Y516225D01*
X491465Y516187D01*
X491487Y516144D01*
X491541Y516092D01*
X491588Y516033D01*
X491629Y516006D01*
X491664Y515973D01*
X491732Y515940D01*
X491795Y515900D01*
X491842Y515888D01*
X491886Y515867D01*
X491961Y515858D01*
X492034Y515840D01*
X492082Y515843D01*
X492130Y515838D01*
X492204Y515853D01*
G37*
G36*
X381590Y405254D02*
X381590Y405254D01*
X381681Y405261D01*
X381711Y405273D01*
X381743Y405279D01*
X381823Y405321D01*
X381907Y405357D01*
X381939Y405383D01*
X381960Y405394D01*
X381982Y405417D01*
X382038Y405462D01*
X480836Y504260D01*
X480887Y504331D01*
X480945Y504397D01*
X480959Y504430D01*
X480980Y504459D01*
X481005Y504543D01*
X481039Y504624D01*
X481045Y504670D01*
X481052Y504694D01*
X481051Y504726D01*
X481059Y504790D01*
X481395Y539096D01*
X481381Y539190D01*
X481374Y539285D01*
X481362Y539311D01*
X481358Y539340D01*
X481315Y539424D01*
X481277Y539511D01*
X481255Y539539D01*
X481245Y539558D01*
X481222Y539581D01*
X481173Y539642D01*
X469118Y551696D01*
X469045Y551749D01*
X468975Y551809D01*
X468945Y551821D01*
X468919Y551840D01*
X468832Y551867D01*
X468747Y551901D01*
X468706Y551905D01*
X468684Y551912D01*
X468651Y551911D01*
X468580Y551919D01*
X279158Y551919D01*
X279068Y551905D01*
X278977Y551897D01*
X278947Y551885D01*
X278915Y551880D01*
X278835Y551837D01*
X278751Y551801D01*
X278719Y551775D01*
X278698Y551764D01*
X278676Y551741D01*
X278620Y551696D01*
X262962Y536038D01*
X262909Y535964D01*
X262849Y535895D01*
X262837Y535865D01*
X262818Y535839D01*
X262791Y535752D01*
X262757Y535667D01*
X262753Y535626D01*
X262746Y535603D01*
X262747Y535571D01*
X262739Y535500D01*
X262739Y511000D01*
X262754Y510910D01*
X262761Y510819D01*
X262773Y510789D01*
X262779Y510757D01*
X262821Y510677D01*
X262857Y510593D01*
X262883Y510561D01*
X262894Y510540D01*
X262917Y510518D01*
X262962Y510462D01*
X268462Y504962D01*
X268536Y504909D01*
X268605Y504849D01*
X268635Y504837D01*
X268661Y504818D01*
X268748Y504791D01*
X268833Y504757D01*
X268874Y504753D01*
X268897Y504746D01*
X268929Y504747D01*
X269000Y504739D01*
X282685Y504739D01*
X286239Y501185D01*
X286239Y456023D01*
X286252Y455942D01*
X286256Y455861D01*
X286272Y455822D01*
X286279Y455780D01*
X286316Y455708D01*
X286346Y455633D01*
X286380Y455588D01*
X286394Y455562D01*
X286414Y455543D01*
X286448Y455499D01*
X295739Y445697D01*
X295739Y417500D01*
X295754Y417410D01*
X295761Y417319D01*
X295773Y417289D01*
X295779Y417257D01*
X295821Y417177D01*
X295857Y417093D01*
X295883Y417061D01*
X295894Y417040D01*
X295917Y417018D01*
X295962Y416962D01*
X307462Y405462D01*
X307536Y405409D01*
X307605Y405349D01*
X307635Y405337D01*
X307661Y405318D01*
X307748Y405291D01*
X307833Y405257D01*
X307874Y405253D01*
X307897Y405246D01*
X307929Y405247D01*
X308000Y405239D01*
X381500Y405239D01*
X381590Y405254D01*
G37*
%LPC*%
G36*
X377802Y150693D02*
X377802Y150693D01*
X374693Y153802D01*
X374693Y157039D01*
X374679Y157129D01*
X374671Y157220D01*
X374659Y157250D01*
X374654Y157282D01*
X374611Y157362D01*
X374575Y157446D01*
X374549Y157478D01*
X374538Y157499D01*
X374515Y157521D01*
X374470Y157577D01*
X369205Y162842D01*
X369205Y386475D01*
X369191Y386565D01*
X369183Y386656D01*
X369171Y386685D01*
X369166Y386717D01*
X369123Y386798D01*
X369087Y386882D01*
X369061Y386914D01*
X369050Y386935D01*
X369027Y386957D01*
X368982Y387013D01*
X366693Y389302D01*
X366693Y393698D01*
X369802Y396807D01*
X374198Y396807D01*
X377307Y393698D01*
X377307Y389302D01*
X375018Y387013D01*
X374965Y386939D01*
X374905Y386869D01*
X374893Y386839D01*
X374874Y386813D01*
X374847Y386726D01*
X374813Y386641D01*
X374809Y386600D01*
X374802Y386578D01*
X374803Y386546D01*
X374795Y386475D01*
X374795Y362137D01*
X374806Y362067D01*
X374808Y361995D01*
X374826Y361946D01*
X374834Y361895D01*
X374868Y361831D01*
X374893Y361764D01*
X374925Y361723D01*
X374950Y361677D01*
X375002Y361628D01*
X375046Y361572D01*
X375090Y361544D01*
X375128Y361508D01*
X375193Y361478D01*
X375253Y361439D01*
X375304Y361426D01*
X375351Y361404D01*
X375422Y361396D01*
X375492Y361379D01*
X375544Y361383D01*
X375595Y361377D01*
X375666Y361392D01*
X375737Y361398D01*
X375785Y361418D01*
X375836Y361429D01*
X375897Y361466D01*
X375963Y361494D01*
X376019Y361539D01*
X376047Y361556D01*
X376062Y361573D01*
X376094Y361599D01*
X378802Y364307D01*
X383198Y364307D01*
X384217Y363288D01*
X384291Y363235D01*
X384361Y363175D01*
X384391Y363163D01*
X384417Y363144D01*
X384504Y363117D01*
X384589Y363083D01*
X384630Y363079D01*
X384652Y363072D01*
X384684Y363073D01*
X384755Y363065D01*
X402245Y363065D01*
X402335Y363079D01*
X402426Y363087D01*
X402455Y363099D01*
X402487Y363104D01*
X402568Y363147D01*
X402652Y363183D01*
X402684Y363209D01*
X402705Y363220D01*
X402727Y363243D01*
X402783Y363288D01*
X403802Y364307D01*
X408198Y364307D01*
X411307Y361198D01*
X411307Y356802D01*
X408198Y353693D01*
X403802Y353693D01*
X402783Y354712D01*
X402709Y354765D01*
X402639Y354825D01*
X402609Y354837D01*
X402583Y354856D01*
X402496Y354883D01*
X402411Y354917D01*
X402370Y354921D01*
X402348Y354928D01*
X402316Y354927D01*
X402245Y354935D01*
X384755Y354935D01*
X384665Y354921D01*
X384574Y354913D01*
X384545Y354901D01*
X384513Y354896D01*
X384432Y354853D01*
X384348Y354817D01*
X384316Y354791D01*
X384295Y354780D01*
X384273Y354757D01*
X384217Y354712D01*
X383198Y353693D01*
X378802Y353693D01*
X376094Y356401D01*
X376036Y356443D01*
X375984Y356492D01*
X375937Y356514D01*
X375895Y356544D01*
X375826Y356566D01*
X375761Y356596D01*
X375709Y356601D01*
X375659Y356617D01*
X375588Y356615D01*
X375517Y356623D01*
X375466Y356612D01*
X375414Y356610D01*
X375346Y356586D01*
X375276Y356571D01*
X375231Y356544D01*
X375183Y356526D01*
X375127Y356481D01*
X375065Y356444D01*
X375031Y356405D01*
X374991Y356372D01*
X374952Y356312D01*
X374905Y356257D01*
X374886Y356209D01*
X374858Y356165D01*
X374840Y356096D01*
X374813Y356029D01*
X374805Y355958D01*
X374797Y355927D01*
X374799Y355904D01*
X374795Y355863D01*
X374795Y165473D01*
X374809Y165383D01*
X374817Y165292D01*
X374829Y165262D01*
X374834Y165230D01*
X374877Y165150D01*
X374913Y165066D01*
X374939Y165034D01*
X374950Y165013D01*
X374973Y164991D01*
X374985Y164976D01*
X374991Y164965D01*
X374998Y164959D01*
X375018Y164935D01*
X378423Y161530D01*
X378497Y161477D01*
X378566Y161417D01*
X378596Y161405D01*
X378622Y161386D01*
X378709Y161359D01*
X378794Y161325D01*
X378835Y161321D01*
X378857Y161314D01*
X378890Y161315D01*
X378961Y161307D01*
X382198Y161307D01*
X384487Y159018D01*
X384561Y158965D01*
X384631Y158905D01*
X384661Y158893D01*
X384687Y158874D01*
X384774Y158847D01*
X384859Y158813D01*
X384900Y158809D01*
X384922Y158802D01*
X384954Y158803D01*
X385025Y158795D01*
X420975Y158795D01*
X421065Y158809D01*
X421156Y158817D01*
X421185Y158829D01*
X421217Y158834D01*
X421298Y158877D01*
X421382Y158913D01*
X421414Y158939D01*
X421435Y158950D01*
X421457Y158973D01*
X421513Y159018D01*
X423802Y161307D01*
X428198Y161307D01*
X431307Y158198D01*
X431307Y153802D01*
X428198Y150693D01*
X423802Y150693D01*
X421513Y152982D01*
X421439Y153035D01*
X421369Y153095D01*
X421339Y153107D01*
X421313Y153126D01*
X421226Y153153D01*
X421141Y153187D01*
X421100Y153191D01*
X421078Y153198D01*
X421046Y153197D01*
X420975Y153205D01*
X385025Y153205D01*
X384935Y153191D01*
X384844Y153183D01*
X384815Y153171D01*
X384783Y153166D01*
X384702Y153123D01*
X384618Y153087D01*
X384586Y153061D01*
X384565Y153050D01*
X384543Y153027D01*
X384487Y152982D01*
X382198Y150693D01*
X377802Y150693D01*
G37*
%LPD*%
%LPC*%
G36*
X254802Y128693D02*
X254802Y128693D01*
X251693Y131802D01*
X251693Y136198D01*
X253982Y138487D01*
X254035Y138561D01*
X254095Y138631D01*
X254107Y138661D01*
X254126Y138687D01*
X254153Y138774D01*
X254187Y138859D01*
X254191Y138900D01*
X254198Y138922D01*
X254197Y138954D01*
X254205Y139025D01*
X254205Y154158D01*
X260842Y160795D01*
X271527Y160795D01*
X271617Y160809D01*
X271708Y160817D01*
X271738Y160829D01*
X271770Y160834D01*
X271850Y160877D01*
X271934Y160913D01*
X271966Y160939D01*
X271987Y160950D01*
X272009Y160973D01*
X272065Y161018D01*
X285982Y174935D01*
X286035Y175009D01*
X286095Y175078D01*
X286107Y175108D01*
X286126Y175134D01*
X286153Y175221D01*
X286187Y175306D01*
X286191Y175347D01*
X286198Y175369D01*
X286197Y175402D01*
X286205Y175473D01*
X286205Y274975D01*
X286191Y275065D01*
X286183Y275156D01*
X286171Y275185D01*
X286166Y275217D01*
X286123Y275298D01*
X286087Y275382D01*
X286061Y275414D01*
X286050Y275435D01*
X286027Y275457D01*
X285982Y275513D01*
X283693Y277802D01*
X283693Y282198D01*
X286802Y285307D01*
X291198Y285307D01*
X294307Y282198D01*
X294307Y277802D01*
X292018Y275513D01*
X291965Y275439D01*
X291905Y275369D01*
X291893Y275339D01*
X291874Y275313D01*
X291847Y275226D01*
X291813Y275141D01*
X291809Y275100D01*
X291802Y275078D01*
X291803Y275046D01*
X291795Y274975D01*
X291795Y175473D01*
X291809Y175383D01*
X291817Y175292D01*
X291829Y175262D01*
X291834Y175230D01*
X291877Y175150D01*
X291913Y175066D01*
X291939Y175034D01*
X291950Y175013D01*
X291973Y174991D01*
X292018Y174935D01*
X307935Y159018D01*
X308009Y158965D01*
X308078Y158905D01*
X308108Y158893D01*
X308134Y158874D01*
X308221Y158847D01*
X308306Y158813D01*
X308347Y158809D01*
X308369Y158802D01*
X308402Y158803D01*
X308473Y158795D01*
X330975Y158795D01*
X331065Y158809D01*
X331156Y158817D01*
X331185Y158829D01*
X331217Y158834D01*
X331298Y158877D01*
X331382Y158913D01*
X331414Y158939D01*
X331435Y158950D01*
X331457Y158973D01*
X331513Y159018D01*
X333802Y161307D01*
X338198Y161307D01*
X341307Y158198D01*
X341307Y153802D01*
X338198Y150693D01*
X333802Y150693D01*
X331513Y152982D01*
X331439Y153035D01*
X331369Y153095D01*
X331339Y153107D01*
X331313Y153126D01*
X331226Y153153D01*
X331141Y153187D01*
X331100Y153191D01*
X331078Y153198D01*
X331046Y153197D01*
X330975Y153205D01*
X305842Y153205D01*
X289538Y169509D01*
X289522Y169521D01*
X289510Y169537D01*
X289422Y169593D01*
X289339Y169653D01*
X289320Y169659D01*
X289303Y169670D01*
X289202Y169695D01*
X289103Y169725D01*
X289084Y169725D01*
X289064Y169730D01*
X288961Y169722D01*
X288858Y169719D01*
X288839Y169712D01*
X288819Y169710D01*
X288724Y169670D01*
X288627Y169634D01*
X288611Y169622D01*
X288593Y169614D01*
X288462Y169509D01*
X276018Y157065D01*
X274158Y155205D01*
X263473Y155205D01*
X263383Y155191D01*
X263292Y155183D01*
X263262Y155171D01*
X263230Y155166D01*
X263150Y155123D01*
X263066Y155087D01*
X263034Y155061D01*
X263013Y155050D01*
X262991Y155027D01*
X262935Y154982D01*
X260018Y152065D01*
X259965Y151991D01*
X259905Y151922D01*
X259893Y151892D01*
X259874Y151866D01*
X259847Y151779D01*
X259813Y151694D01*
X259809Y151653D01*
X259802Y151631D01*
X259803Y151598D01*
X259795Y151527D01*
X259795Y139025D01*
X259809Y138935D01*
X259817Y138844D01*
X259829Y138815D01*
X259834Y138783D01*
X259877Y138702D01*
X259913Y138618D01*
X259939Y138586D01*
X259950Y138565D01*
X259973Y138543D01*
X260018Y138487D01*
X262307Y136198D01*
X262307Y131802D01*
X259198Y128693D01*
X254802Y128693D01*
G37*
%LPD*%
%LPC*%
G36*
X476523Y96523D02*
X476523Y96523D01*
X476523Y122941D01*
X476569Y122941D01*
X479688Y122589D01*
X481906Y122083D01*
X482747Y121891D01*
X485709Y120855D01*
X488537Y119493D01*
X491194Y117823D01*
X493648Y115867D01*
X495867Y113648D01*
X497823Y111194D01*
X499493Y108537D01*
X500855Y105709D01*
X501891Y102747D01*
X502589Y99688D01*
X502941Y96569D01*
X502941Y96523D01*
X476523Y96523D01*
G37*
%LPD*%
%LPC*%
G36*
X226523Y96523D02*
X226523Y96523D01*
X226523Y122941D01*
X226569Y122941D01*
X229688Y122589D01*
X231906Y122083D01*
X232747Y121891D01*
X235709Y120855D01*
X238537Y119493D01*
X241194Y117823D01*
X243648Y115867D01*
X245867Y113648D01*
X247823Y111194D01*
X249493Y108537D01*
X250855Y105709D01*
X251891Y102747D01*
X252589Y99688D01*
X252941Y96569D01*
X252941Y96523D01*
X226523Y96523D01*
G37*
%LPD*%
%LPC*%
G36*
X197059Y96523D02*
X197059Y96523D01*
X197059Y96569D01*
X197411Y99688D01*
X198109Y102747D01*
X199145Y105709D01*
X200507Y108537D01*
X202177Y111194D01*
X204133Y113648D01*
X206352Y115867D01*
X208806Y117823D01*
X211463Y119493D01*
X214291Y120855D01*
X217253Y121891D01*
X220312Y122589D01*
X223431Y122941D01*
X223477Y122941D01*
X223477Y96523D01*
X197059Y96523D01*
G37*
%LPD*%
%LPC*%
G36*
X447059Y96523D02*
X447059Y96523D01*
X447059Y96569D01*
X447411Y99688D01*
X448109Y102747D01*
X449145Y105709D01*
X450507Y108537D01*
X452177Y111194D01*
X454133Y113648D01*
X456352Y115867D01*
X458806Y117823D01*
X461463Y119493D01*
X464291Y120855D01*
X467253Y121891D01*
X470312Y122589D01*
X473431Y122941D01*
X473477Y122941D01*
X473477Y96523D01*
X447059Y96523D01*
G37*
%LPD*%
%LPC*%
G36*
X476523Y67059D02*
X476523Y67059D01*
X476523Y93477D01*
X502941Y93477D01*
X502941Y93431D01*
X502589Y90312D01*
X501891Y87253D01*
X500855Y84291D01*
X499493Y81463D01*
X497823Y78806D01*
X495867Y76352D01*
X493648Y74133D01*
X491194Y72177D01*
X488537Y70507D01*
X485709Y69145D01*
X482747Y68109D01*
X479688Y67411D01*
X476569Y67059D01*
X476523Y67059D01*
G37*
%LPD*%
%LPC*%
G36*
X226523Y67059D02*
X226523Y67059D01*
X226523Y93477D01*
X252941Y93477D01*
X252941Y93431D01*
X252589Y90312D01*
X251891Y87253D01*
X250855Y84291D01*
X249493Y81463D01*
X247823Y78806D01*
X245867Y76352D01*
X243648Y74133D01*
X241194Y72177D01*
X238537Y70507D01*
X235709Y69145D01*
X232747Y68109D01*
X229688Y67411D01*
X226569Y67059D01*
X226523Y67059D01*
G37*
%LPD*%
%LPC*%
G36*
X473431Y67059D02*
X473431Y67059D01*
X470312Y67411D01*
X467742Y67997D01*
X467253Y68109D01*
X464291Y69145D01*
X461463Y70507D01*
X458806Y72177D01*
X456352Y74133D01*
X454133Y76352D01*
X452177Y78806D01*
X450507Y81463D01*
X449145Y84291D01*
X448109Y87253D01*
X447411Y90312D01*
X447059Y93431D01*
X447059Y93477D01*
X473477Y93477D01*
X473477Y67059D01*
X473431Y67059D01*
G37*
%LPD*%
%LPC*%
G36*
X223431Y67059D02*
X223431Y67059D01*
X220312Y67411D01*
X217742Y67997D01*
X217253Y68109D01*
X214291Y69145D01*
X211463Y70507D01*
X208806Y72177D01*
X206352Y74133D01*
X204133Y76352D01*
X202177Y78806D01*
X200507Y81463D01*
X199145Y84291D01*
X198109Y87253D01*
X197411Y90312D01*
X197059Y93431D01*
X197059Y93477D01*
X223477Y93477D01*
X223477Y67059D01*
X223431Y67059D01*
G37*
%LPD*%
%LPC*%
G36*
X395370Y98277D02*
X395370Y98277D01*
X394477Y99170D01*
X394477Y119230D01*
X395370Y120123D01*
X415430Y120123D01*
X416323Y119230D01*
X416323Y99170D01*
X415430Y98277D01*
X395370Y98277D01*
G37*
%LPD*%
%LPC*%
G36*
X375527Y98277D02*
X375527Y98277D01*
X371513Y99940D01*
X368440Y103013D01*
X366777Y107027D01*
X366777Y111373D01*
X368440Y115387D01*
X371513Y118460D01*
X375527Y120123D01*
X379873Y120123D01*
X383887Y118460D01*
X386960Y115387D01*
X388623Y111373D01*
X388623Y107027D01*
X386960Y103013D01*
X383887Y99940D01*
X379873Y98277D01*
X375527Y98277D01*
G37*
%LPD*%
%LPC*%
G36*
X347827Y98277D02*
X347827Y98277D01*
X343813Y99940D01*
X340740Y103013D01*
X339077Y107027D01*
X339077Y111373D01*
X340740Y115387D01*
X343813Y118460D01*
X347827Y120123D01*
X352173Y120123D01*
X356187Y118460D01*
X359260Y115387D01*
X360923Y111373D01*
X360923Y107027D01*
X359260Y103013D01*
X356187Y99940D01*
X352173Y98277D01*
X347827Y98277D01*
G37*
%LPD*%
%LPC*%
G36*
X320127Y98277D02*
X320127Y98277D01*
X316113Y99940D01*
X313040Y103013D01*
X311377Y107027D01*
X311377Y111373D01*
X313040Y115387D01*
X316113Y118460D01*
X320127Y120123D01*
X324473Y120123D01*
X328487Y118460D01*
X331560Y115387D01*
X333223Y111373D01*
X333223Y107027D01*
X331560Y103013D01*
X328487Y99940D01*
X324473Y98277D01*
X320127Y98277D01*
G37*
%LPD*%
%LPC*%
G36*
X292427Y98277D02*
X292427Y98277D01*
X288413Y99940D01*
X285340Y103013D01*
X283677Y107027D01*
X283677Y111373D01*
X285340Y115387D01*
X288413Y118460D01*
X292427Y120123D01*
X296773Y120123D01*
X300787Y118460D01*
X303860Y115387D01*
X305523Y111373D01*
X305523Y107027D01*
X303860Y103013D01*
X300787Y99940D01*
X296773Y98277D01*
X292427Y98277D01*
G37*
%LPD*%
%LPC*%
G36*
X389327Y69877D02*
X389327Y69877D01*
X385313Y71540D01*
X382240Y74613D01*
X380577Y78627D01*
X380577Y82973D01*
X382240Y86987D01*
X385313Y90060D01*
X389327Y91723D01*
X393673Y91723D01*
X397687Y90060D01*
X400760Y86987D01*
X402423Y82973D01*
X402423Y78627D01*
X400760Y74613D01*
X397687Y71540D01*
X393673Y69877D01*
X389327Y69877D01*
G37*
%LPD*%
%LPC*%
G36*
X334027Y69877D02*
X334027Y69877D01*
X330013Y71540D01*
X326940Y74613D01*
X325277Y78627D01*
X325277Y82973D01*
X326940Y86987D01*
X330013Y90060D01*
X334027Y91723D01*
X338373Y91723D01*
X342387Y90060D01*
X345460Y86987D01*
X347123Y82973D01*
X347123Y78627D01*
X345460Y74613D01*
X342387Y71540D01*
X338373Y69877D01*
X334027Y69877D01*
G37*
%LPD*%
%LPC*%
G36*
X306327Y69877D02*
X306327Y69877D01*
X302313Y71540D01*
X299240Y74613D01*
X297577Y78627D01*
X297577Y82973D01*
X299240Y86987D01*
X302313Y90060D01*
X306327Y91723D01*
X310673Y91723D01*
X314687Y90060D01*
X317760Y86987D01*
X319423Y82973D01*
X319423Y78627D01*
X317760Y74613D01*
X314687Y71540D01*
X310673Y69877D01*
X306327Y69877D01*
G37*
%LPD*%
%LPC*%
G36*
X298802Y124693D02*
X298802Y124693D01*
X295693Y127802D01*
X295693Y132198D01*
X298802Y135307D01*
X303198Y135307D01*
X305995Y132510D01*
X306069Y132457D01*
X306139Y132397D01*
X306169Y132385D01*
X306195Y132366D01*
X306282Y132339D01*
X306367Y132305D01*
X306408Y132301D01*
X306430Y132294D01*
X306462Y132295D01*
X306533Y132287D01*
X314467Y132287D01*
X314557Y132301D01*
X314648Y132309D01*
X314677Y132321D01*
X314709Y132326D01*
X314790Y132369D01*
X314874Y132405D01*
X314906Y132431D01*
X314927Y132442D01*
X314949Y132465D01*
X315005Y132510D01*
X317802Y135307D01*
X322198Y135307D01*
X325307Y132198D01*
X325307Y127802D01*
X322198Y124693D01*
X317802Y124693D01*
X315005Y127490D01*
X314931Y127543D01*
X314861Y127603D01*
X314831Y127615D01*
X314805Y127634D01*
X314718Y127661D01*
X314633Y127695D01*
X314592Y127699D01*
X314570Y127706D01*
X314538Y127705D01*
X314467Y127713D01*
X306533Y127713D01*
X306443Y127699D01*
X306352Y127691D01*
X306323Y127679D01*
X306291Y127674D01*
X306210Y127631D01*
X306126Y127595D01*
X306094Y127569D01*
X306073Y127558D01*
X306051Y127535D01*
X305995Y127490D01*
X303198Y124693D01*
X298802Y124693D01*
G37*
%LPD*%
%LPC*%
G36*
X547723Y671477D02*
X547723Y671477D01*
X556361Y671477D01*
X556361Y664580D01*
X556111Y663001D01*
X555616Y661480D01*
X554890Y660055D01*
X553950Y658761D01*
X552819Y657630D01*
X551525Y656690D01*
X550100Y655964D01*
X548579Y655469D01*
X547723Y655334D01*
X547723Y671477D01*
G37*
%LPD*%
%LPC*%
G36*
X365323Y82323D02*
X365323Y82323D01*
X365323Y92646D01*
X366596Y92445D01*
X368383Y91864D01*
X370057Y91011D01*
X371578Y89906D01*
X372906Y88578D01*
X374011Y87057D01*
X374864Y85383D01*
X375445Y83596D01*
X375646Y82323D01*
X365323Y82323D01*
G37*
%LPD*%
%LPC*%
G36*
X351954Y82323D02*
X351954Y82323D01*
X352155Y83596D01*
X352736Y85383D01*
X353589Y87057D01*
X354694Y88578D01*
X356022Y89906D01*
X357543Y91011D01*
X359217Y91864D01*
X361004Y92445D01*
X362277Y92646D01*
X362277Y82323D01*
X351954Y82323D01*
G37*
%LPD*%
%LPC*%
G36*
X365323Y79277D02*
X365323Y79277D01*
X375646Y79277D01*
X375445Y78004D01*
X374864Y76217D01*
X374011Y74543D01*
X372906Y73022D01*
X371578Y71694D01*
X370057Y70589D01*
X368383Y69736D01*
X366596Y69155D01*
X365323Y68954D01*
X365323Y79277D01*
G37*
%LPD*%
%LPC*%
G36*
X361004Y69155D02*
X361004Y69155D01*
X359217Y69736D01*
X357543Y70589D01*
X356022Y71694D01*
X354694Y73022D01*
X353589Y74543D01*
X352736Y76217D01*
X352155Y78004D01*
X351954Y79277D01*
X362277Y79277D01*
X362277Y68954D01*
X361004Y69155D01*
G37*
%LPD*%
%LPC*%
G36*
X474999Y94999D02*
X474999Y94999D01*
X474999Y95001D01*
X475001Y95001D01*
X475001Y94999D01*
X474999Y94999D01*
G37*
%LPD*%
%LPC*%
G36*
X224999Y94999D02*
X224999Y94999D01*
X224999Y95001D01*
X225001Y95001D01*
X225001Y94999D01*
X224999Y94999D01*
G37*
%LPD*%
%LPC*%
G36*
X363799Y80799D02*
X363799Y80799D01*
X363799Y80801D01*
X363801Y80801D01*
X363801Y80799D01*
X363799Y80799D01*
G37*
%LPD*%
D10*
X266800Y665380D02*
X266800Y680620D01*
X292200Y680620D02*
X292200Y665380D01*
X317600Y665380D02*
X317600Y680620D01*
X343000Y680620D02*
X343000Y665380D01*
X368400Y665380D02*
X368400Y680620D01*
X393800Y680620D02*
X393800Y665380D01*
X419200Y665380D02*
X419200Y680620D01*
X444600Y680620D02*
X444600Y665380D01*
X470000Y665380D02*
X470000Y680620D01*
X495400Y680620D02*
X495400Y665380D01*
X520800Y665380D02*
X520800Y680620D01*
X546200Y680620D02*
X546200Y665380D01*
D11*
X405400Y109200D03*
D12*
X377700Y109200D03*
X350000Y109200D03*
X322300Y109200D03*
X294600Y109200D03*
X391500Y80800D03*
X363800Y80800D03*
X336200Y80800D03*
X308500Y80800D03*
D13*
X475000Y95000D03*
X225000Y95000D03*
D14*
X232000Y430000D03*
X229000Y324000D03*
X257000Y372000D03*
X425500Y236000D03*
X426000Y299500D03*
X428000Y431000D03*
X548500Y426500D03*
X547500Y342000D03*
X547500Y541500D03*
X547000Y638000D03*
X510000Y638000D03*
X482000Y638000D03*
X458000Y638000D03*
X434000Y638000D03*
X410000Y638000D03*
X384000Y638000D03*
X356000Y638000D03*
X332000Y638000D03*
X304000Y638000D03*
X285810Y638000D03*
X226000Y637000D03*
X426000Y190500D03*
X458000Y151000D03*
X238000Y151000D03*
X269500Y191000D03*
X271000Y237000D03*
X104000Y51000D03*
X299000Y352000D03*
X340500Y392000D03*
X319500Y370500D03*
X340500Y370500D03*
X319500Y392000D03*
X344000Y191000D03*
X343000Y237000D03*
X344000Y299500D03*
X172000Y302000D03*
X167500Y426500D03*
X215000Y556500D03*
X293000Y536500D03*
X528500Y638000D03*
D15*
X547000Y638000D01*
D14*
X355500Y536500D03*
X406000Y536500D03*
X267000Y557000D03*
D15*
X471000Y557000D01*
X486500Y541500D01*
X486000Y490500D01*
D14*
X486000Y490500D03*
D16*
X289000Y280000D02*
X289000Y174000D01*
D14*
X289000Y280000D03*
X336000Y156000D03*
X257000Y134000D03*
D16*
X273000Y158000D02*
X289000Y174000D01*
X273000Y158000D02*
X262000Y158000D01*
X257000Y153000D01*
X257000Y134000D01*
X307000Y156000D02*
X336000Y156000D01*
X307000Y156000D02*
X289000Y174000D01*
D14*
X372000Y391500D03*
X380000Y156000D03*
X426000Y156000D03*
D16*
X380000Y156000D01*
X372000Y164000D01*
X372000Y391500D01*
D14*
X381000Y359000D03*
X406000Y359000D03*
D15*
X381000Y359000D01*
D14*
X320000Y130000D03*
D17*
X301000Y130000D01*
D14*
X301000Y130000D03*
M02*
