G04 EAGLE Gerber RS-274X export*
G75*
%MOMM*%
%FSLAX34Y34*%
%LPD*%
%INSoldermask Top*%
%IPPOS*%
%AMOC8*
5,1,8,0,0,1.08239X$1,22.5*%
G01*
%ADD10C,3.703200*%
%ADD11R,1.203200X1.303200*%
%ADD12R,1.303200X1.203200*%
%ADD13R,1.203200X0.703200*%
%ADD14C,1.727200*%
%ADD15C,0.965200*%
%ADD16R,2.603200X2.103200*%
%ADD17R,2.082800X2.082800*%
%ADD18C,2.082800*%
%ADD19C,5.283200*%
%ADD20R,1.003200X1.003200*%
%ADD21R,0.838200X1.473200*%
%ADD22R,2.903200X1.503200*%
%ADD23R,1.503200X2.903200*%
%ADD24R,0.503200X1.103200*%
%ADD25R,1.103200X0.503200*%
%ADD26R,3.810000X3.810000*%
%ADD27C,0.959600*%

G36*
X667860Y609607D02*
X667860Y609607D01*
X667926Y609609D01*
X667969Y609627D01*
X668016Y609635D01*
X668073Y609669D01*
X668133Y609694D01*
X668168Y609725D01*
X668209Y609750D01*
X668251Y609801D01*
X668299Y609845D01*
X668321Y609887D01*
X668350Y609924D01*
X668371Y609986D01*
X668402Y610045D01*
X668410Y610099D01*
X668422Y610136D01*
X668421Y610176D01*
X668429Y610230D01*
X668429Y612770D01*
X668418Y612835D01*
X668416Y612901D01*
X668398Y612944D01*
X668390Y612991D01*
X668356Y613048D01*
X668331Y613108D01*
X668300Y613143D01*
X668275Y613184D01*
X668224Y613226D01*
X668180Y613274D01*
X668138Y613296D01*
X668101Y613325D01*
X668039Y613346D01*
X667980Y613377D01*
X667926Y613385D01*
X667889Y613397D01*
X667849Y613396D01*
X667795Y613404D01*
X663985Y613404D01*
X663920Y613393D01*
X663854Y613391D01*
X663811Y613373D01*
X663764Y613365D01*
X663707Y613331D01*
X663647Y613306D01*
X663612Y613275D01*
X663571Y613250D01*
X663530Y613199D01*
X663481Y613155D01*
X663459Y613113D01*
X663430Y613076D01*
X663409Y613014D01*
X663378Y612955D01*
X663370Y612901D01*
X663358Y612864D01*
X663358Y612861D01*
X663359Y612824D01*
X663351Y612770D01*
X663351Y610230D01*
X663362Y610165D01*
X663364Y610099D01*
X663382Y610056D01*
X663390Y610009D01*
X663424Y609952D01*
X663449Y609892D01*
X663480Y609857D01*
X663505Y609816D01*
X663556Y609775D01*
X663600Y609726D01*
X663642Y609704D01*
X663679Y609675D01*
X663741Y609654D01*
X663800Y609623D01*
X663854Y609615D01*
X663891Y609603D01*
X663931Y609604D01*
X663985Y609596D01*
X667795Y609596D01*
X667860Y609607D01*
G37*
D10*
X37500Y662500D03*
X662500Y662500D03*
X37500Y37500D03*
X662500Y37500D03*
D11*
X439000Y390500D03*
X439000Y407500D03*
X281960Y379920D03*
X281960Y396920D03*
D12*
X267100Y582300D03*
X250100Y582300D03*
X267100Y605400D03*
X250100Y605400D03*
X284300Y438800D03*
X267300Y438800D03*
X282300Y303700D03*
X265300Y303700D03*
D11*
X417000Y358500D03*
X417000Y341500D03*
X417000Y390500D03*
X417000Y407500D03*
X439000Y358500D03*
X439000Y341500D03*
X299000Y322500D03*
X299000Y339500D03*
X353000Y337570D03*
X353000Y320570D03*
D12*
X284800Y417900D03*
X267800Y417900D03*
X282300Y324600D03*
X265300Y324600D03*
D11*
X282420Y361740D03*
X282420Y344740D03*
D13*
X408000Y140000D03*
X426000Y133500D03*
X426000Y146500D03*
X362000Y140000D03*
X380000Y133500D03*
X380000Y146500D03*
X328000Y140000D03*
X346000Y133500D03*
X346000Y146500D03*
X292000Y140000D03*
X274000Y146500D03*
X274000Y133500D03*
D11*
X445200Y584300D03*
X445200Y601300D03*
X293800Y475500D03*
X293800Y492500D03*
X274500Y534000D03*
X274500Y517000D03*
D14*
X266800Y665380D02*
X266800Y680620D01*
X292200Y680620D02*
X292200Y665380D01*
X317600Y665380D02*
X317600Y680620D01*
X343000Y680620D02*
X343000Y665380D01*
X368400Y665380D02*
X368400Y680620D01*
X393800Y680620D02*
X393800Y665380D01*
X419200Y665380D02*
X419200Y680620D01*
X444600Y680620D02*
X444600Y665380D01*
X470000Y665380D02*
X470000Y680620D01*
X495400Y680620D02*
X495400Y665380D01*
X520800Y665380D02*
X520800Y680620D01*
X546200Y680620D02*
X546200Y665380D01*
D15*
X293800Y503400D03*
D16*
X257300Y391600D03*
X257300Y350600D03*
D17*
X405400Y109200D03*
D18*
X377700Y109200D03*
X350000Y109200D03*
X322300Y109200D03*
X294600Y109200D03*
X391500Y80800D03*
X363800Y80800D03*
X336200Y80800D03*
X308500Y80800D03*
D19*
X475000Y95000D03*
X225000Y95000D03*
D12*
X614670Y611500D03*
X597670Y611500D03*
D20*
X644545Y611500D03*
X629545Y611500D03*
D21*
X670970Y611500D03*
X660810Y611500D03*
D11*
X323000Y320500D03*
X323000Y337500D03*
D22*
X466000Y418500D03*
X466000Y390500D03*
X467000Y331000D03*
X467000Y359000D03*
D23*
X246000Y469000D03*
X274000Y469000D03*
X246000Y273000D03*
X274000Y273000D03*
D24*
X307500Y352000D03*
X312500Y352000D03*
X317500Y352000D03*
X322500Y352000D03*
X327500Y352000D03*
X332500Y352000D03*
X337500Y352000D03*
X342500Y352000D03*
X347500Y352000D03*
X352500Y352000D03*
D25*
X359500Y359000D03*
X359500Y364000D03*
X359500Y369000D03*
X359500Y374000D03*
X359500Y379000D03*
X359500Y384000D03*
X359500Y389000D03*
X359500Y394000D03*
X359500Y399000D03*
X359500Y404000D03*
D24*
X352500Y411000D03*
X347500Y411000D03*
X342500Y411000D03*
X337500Y411000D03*
X332500Y411000D03*
X327500Y411000D03*
X322500Y411000D03*
X317500Y411000D03*
X312500Y411000D03*
X307500Y411000D03*
D25*
X300500Y404000D03*
X300500Y399000D03*
X300500Y394000D03*
X300500Y389000D03*
X300500Y384000D03*
X300500Y379000D03*
X300500Y374000D03*
X300500Y369000D03*
X300500Y364000D03*
X300500Y359000D03*
D26*
X330000Y381500D03*
D11*
X338000Y337500D03*
X338000Y320500D03*
X470420Y584390D03*
X470420Y601390D03*
X495110Y584770D03*
X495110Y601770D03*
X419590Y583880D03*
X419590Y600880D03*
X394190Y584400D03*
X394190Y601400D03*
X368790Y584920D03*
X368790Y601920D03*
X342120Y584170D03*
X342120Y601170D03*
X292590Y583940D03*
X292590Y600940D03*
X316720Y584460D03*
X316720Y601460D03*
X520460Y584710D03*
X520460Y601710D03*
D27*
X232000Y430000D03*
X229000Y324000D03*
X257000Y372000D03*
X425500Y236000D03*
X426000Y299500D03*
X428000Y431000D03*
X548500Y426500D03*
X547500Y342000D03*
X547500Y541500D03*
X547000Y638000D03*
X510000Y638000D03*
X482000Y638000D03*
X458000Y638000D03*
X434000Y638000D03*
X410000Y638000D03*
X384000Y638000D03*
X356000Y638000D03*
X332000Y638000D03*
X304000Y638000D03*
X285810Y638000D03*
X226000Y637000D03*
X426000Y190500D03*
X458000Y151000D03*
X238000Y151000D03*
X269500Y191000D03*
X271000Y237000D03*
X104000Y51000D03*
X299000Y352000D03*
X340500Y392000D03*
X319500Y370500D03*
X340500Y370500D03*
X319500Y392000D03*
X344000Y191000D03*
X343000Y237000D03*
X344000Y299500D03*
X172000Y302000D03*
X167500Y426500D03*
X215000Y556500D03*
X293000Y536500D03*
X528500Y638000D03*
X355500Y536500D03*
X406000Y536500D03*
X267000Y557000D03*
X486000Y490500D03*
X289000Y280000D03*
X336000Y156000D03*
X257000Y134000D03*
X372000Y391500D03*
X380000Y156000D03*
X426000Y156000D03*
X381000Y359000D03*
X406000Y359000D03*
X320000Y130000D03*
X301000Y130000D03*
M02*
