G04 EAGLE Gerber RS-274X export*
G75*
%MOMM*%
%FSLAX34Y34*%
%LPD*%
%INSoldermask Bottom*%
%IPPOS*%
%AMOC8*
5,1,8,0,0,1.08239X$1,22.5*%
G01*
%ADD10C,3.703200*%
%ADD11C,1.727200*%
%ADD12R,2.082800X2.082800*%
%ADD13C,2.082800*%
%ADD14C,5.283200*%
%ADD15C,0.959600*%


D10*
X37500Y662500D03*
X662500Y662500D03*
X37500Y37500D03*
X662500Y37500D03*
D11*
X266800Y665380D02*
X266800Y680620D01*
X292200Y680620D02*
X292200Y665380D01*
X317600Y665380D02*
X317600Y680620D01*
X343000Y680620D02*
X343000Y665380D01*
X368400Y665380D02*
X368400Y680620D01*
X393800Y680620D02*
X393800Y665380D01*
X419200Y665380D02*
X419200Y680620D01*
X444600Y680620D02*
X444600Y665380D01*
X470000Y665380D02*
X470000Y680620D01*
X495400Y680620D02*
X495400Y665380D01*
X520800Y665380D02*
X520800Y680620D01*
X546200Y680620D02*
X546200Y665380D01*
D12*
X405400Y109200D03*
D13*
X377700Y109200D03*
X350000Y109200D03*
X322300Y109200D03*
X294600Y109200D03*
X391500Y80800D03*
X363800Y80800D03*
X336200Y80800D03*
X308500Y80800D03*
D14*
X475000Y95000D03*
X225000Y95000D03*
D15*
X238000Y427500D03*
X237500Y323000D03*
X257000Y372000D03*
X425500Y236000D03*
X426000Y299500D03*
X428000Y431000D03*
X548500Y424000D03*
X548500Y321500D03*
X547500Y541500D03*
X547000Y638000D03*
X510000Y638000D03*
X482000Y638000D03*
X458000Y638000D03*
X434000Y638000D03*
X410000Y638000D03*
X384000Y638000D03*
X356000Y638000D03*
X332000Y638000D03*
X304000Y638000D03*
X285810Y638000D03*
X226000Y637000D03*
X426000Y190500D03*
X458000Y151000D03*
X238000Y151000D03*
X269500Y191000D03*
X271000Y237000D03*
X171000Y95000D03*
X299000Y352000D03*
X340500Y392000D03*
X319500Y370500D03*
X340500Y370500D03*
X319500Y392000D03*
X344000Y191000D03*
X343000Y237000D03*
X344000Y299500D03*
X204000Y323000D03*
X203500Y427500D03*
X215000Y556500D03*
X293000Y536500D03*
X528500Y638000D03*
X355500Y536500D03*
X406000Y536500D03*
X541000Y95000D03*
X267000Y557000D03*
X476500Y484500D03*
X289000Y280000D03*
X335000Y156000D03*
X265000Y140000D03*
X372000Y391500D03*
X372000Y156000D03*
X409500Y156000D03*
X379000Y359000D03*
X398560Y359050D03*
X320000Y130000D03*
X301000Y130000D03*
M02*
