G04 EAGLE Gerber RS-274X export*
G75*
%MOMM*%
%FSLAX34Y34*%
%LPD*%
%INSolderpaste Top*%
%IPPOS*%
%AMOC8*
5,1,8,0,0,1.08239X$1,22.5*%
G01*
%ADD10R,1.000000X1.100000*%
%ADD11R,1.100000X1.000000*%
%ADD12R,1.000000X0.500000*%
%ADD13R,2.400000X1.900000*%
%ADD14R,0.800000X0.800000*%
%ADD15R,2.700000X1.300000*%
%ADD16R,1.300000X2.700000*%
%ADD17R,0.300000X0.900000*%
%ADD18R,0.900000X0.300000*%
%ADD19R,3.606800X3.606800*%


D10*
X439000Y390500D03*
X439000Y407500D03*
X281960Y379920D03*
X281960Y396920D03*
D11*
X267100Y582300D03*
X250100Y582300D03*
X267100Y605400D03*
X250100Y605400D03*
X284300Y438800D03*
X267300Y438800D03*
X282300Y303700D03*
X265300Y303700D03*
D10*
X417000Y358500D03*
X417000Y341500D03*
X417000Y390500D03*
X417000Y407500D03*
X439000Y358500D03*
X439000Y341500D03*
X299000Y322500D03*
X299000Y339500D03*
X353000Y337570D03*
X353000Y320570D03*
D11*
X284800Y417900D03*
X267800Y417900D03*
X282300Y324600D03*
X265300Y324600D03*
D10*
X282420Y361740D03*
X282420Y344740D03*
D12*
X408000Y140000D03*
X426000Y133500D03*
X426000Y146500D03*
X362000Y140000D03*
X380000Y133500D03*
X380000Y146500D03*
X328000Y140000D03*
X346000Y133500D03*
X346000Y146500D03*
X292000Y140000D03*
X274000Y146500D03*
X274000Y133500D03*
D10*
X445200Y584300D03*
X445200Y601300D03*
X293800Y475500D03*
X293800Y492500D03*
X274500Y534000D03*
X274500Y517000D03*
D13*
X257300Y391600D03*
X257300Y350600D03*
D11*
X614670Y611500D03*
X597670Y611500D03*
D14*
X644545Y611500D03*
X629545Y611500D03*
D10*
X323000Y320500D03*
X323000Y337500D03*
D15*
X466000Y418500D03*
X466000Y390500D03*
X467000Y331000D03*
X467000Y359000D03*
D16*
X246000Y469000D03*
X274000Y469000D03*
X246000Y273000D03*
X274000Y273000D03*
D17*
X307500Y352000D03*
X312500Y352000D03*
X317500Y352000D03*
X322500Y352000D03*
X327500Y352000D03*
X332500Y352000D03*
X337500Y352000D03*
X342500Y352000D03*
X347500Y352000D03*
X352500Y352000D03*
D18*
X359500Y359000D03*
X359500Y364000D03*
X359500Y369000D03*
X359500Y374000D03*
X359500Y379000D03*
X359500Y384000D03*
X359500Y389000D03*
X359500Y394000D03*
X359500Y399000D03*
X359500Y404000D03*
D17*
X352500Y411000D03*
X347500Y411000D03*
X342500Y411000D03*
X337500Y411000D03*
X332500Y411000D03*
X327500Y411000D03*
X322500Y411000D03*
X317500Y411000D03*
X312500Y411000D03*
X307500Y411000D03*
D18*
X300500Y404000D03*
X300500Y399000D03*
X300500Y394000D03*
X300500Y389000D03*
X300500Y384000D03*
X300500Y379000D03*
X300500Y374000D03*
X300500Y369000D03*
X300500Y364000D03*
X300500Y359000D03*
D19*
X330000Y381500D03*
D10*
X338000Y337500D03*
X338000Y320500D03*
X470420Y584390D03*
X470420Y601390D03*
X495110Y584770D03*
X495110Y601770D03*
X419590Y583880D03*
X419590Y600880D03*
X394190Y584400D03*
X394190Y601400D03*
X368790Y584920D03*
X368790Y601920D03*
X342120Y584170D03*
X342120Y601170D03*
X292590Y583940D03*
X292590Y600940D03*
X316720Y584460D03*
X316720Y601460D03*
X520460Y584710D03*
X520460Y601710D03*
M02*
