G04 EAGLE Gerber RS-274X export*
G75*
%MOMM*%
%FSLAX34Y34*%
%LPD*%
%INSilkscreen Bottom*%
%IPPOS*%
%AMOC8*
5,1,8,0,0,1.08239X$1,22.5*%
G01*
%ADD10C,0.203200*%


D10*
X313950Y690200D02*
X301250Y690200D01*
X294900Y683850D01*
X294900Y671150D02*
X301250Y664800D01*
X339350Y690200D02*
X345700Y683850D01*
X339350Y690200D02*
X326650Y690200D01*
X320300Y683850D01*
X320300Y671150D02*
X326650Y664800D01*
X339350Y664800D01*
X345700Y671150D01*
X320300Y683850D02*
X313950Y690200D01*
X320300Y671150D02*
X313950Y664800D01*
X301250Y664800D01*
X377450Y690200D02*
X390150Y690200D01*
X377450Y690200D02*
X371100Y683850D01*
X371100Y671150D02*
X377450Y664800D01*
X371100Y683850D02*
X364750Y690200D01*
X352050Y690200D01*
X345700Y683850D01*
X345700Y671150D02*
X352050Y664800D01*
X364750Y664800D01*
X371100Y671150D01*
X415550Y690200D02*
X421900Y683850D01*
X415550Y690200D02*
X402850Y690200D01*
X396500Y683850D01*
X396500Y671150D02*
X402850Y664800D01*
X415550Y664800D01*
X421900Y671150D01*
X396500Y683850D02*
X390150Y690200D01*
X396500Y671150D02*
X390150Y664800D01*
X377450Y664800D01*
X453650Y690200D02*
X466350Y690200D01*
X453650Y690200D02*
X447300Y683850D01*
X447300Y671150D02*
X453650Y664800D01*
X447300Y683850D02*
X440950Y690200D01*
X428250Y690200D01*
X421900Y683850D01*
X421900Y671150D02*
X428250Y664800D01*
X440950Y664800D01*
X447300Y671150D01*
X472700Y671150D02*
X472700Y683850D01*
X466350Y690200D01*
X472700Y671150D02*
X466350Y664800D01*
X453650Y664800D01*
X288550Y690200D02*
X275850Y690200D01*
X269500Y683850D01*
X269500Y671150D01*
X275850Y664800D01*
X294900Y683850D02*
X288550Y690200D01*
X294900Y671150D02*
X288550Y664800D01*
X275850Y664800D01*
M02*
