M48
;GenerationSoftware,Autodesk,EAGLE,9.6.2*%
;CreationDate,2024-03-24T23:11:51Z*%
FMAT,2
ICI,OFF
METRIC,TZ,000.000
T5C0.350
T4C0.550
T3C1.016
T2C1.700
T1C3.500
%
G90
M71
T1
X3750Y66250
X66250Y66250
X3750Y3750
X66250Y3750
T2
X17500Y10500
X52500Y3500
X52500Y10500
X17500Y3500
X35000Y3500
X35000Y10500
T3
X28300Y67300
X41800Y67200
X39260Y67200
X36720Y67200
X34180Y67200
T4
X31200Y6450
T5
X33250Y27950
X29500Y23000
X35000Y15500
X17500Y7000
X35000Y6500
X52500Y6500
X27500Y20000
X27500Y8000
X27500Y15500
X41000Y15500
X44350Y22200
X12000Y15500
X12000Y8000
X12000Y20500
X16000Y29000
X26250Y27250
X26000Y30000
X10000Y56750
X32500Y51000
X6750Y47450
X4250Y47450
X11250Y42450
X6750Y42450
X11350Y47750
X42050Y60700
X40700Y42250
X41850Y64850
X52500Y19500
X26000Y36500
X4250Y50450
X4250Y62450
X6750Y62450
X6750Y50450
X8750Y67950
X26250Y66450
X26250Y68450
X35300Y65500
X38000Y65550
X34250Y57950
X25750Y54950
X14000Y61750
X11000Y59500
X39200Y24700
X39200Y28350
X6250Y13250
X21200Y14100
X37200Y62050
X38200Y62050
X21600Y45650
X41700Y2400
X25100Y27000
X36250Y18800
X36300Y28050
X24500Y22500
X35400Y19800
X25100Y25650
X29350Y37050
X59200Y2400
X6700Y30100
X24000Y2500
X40550Y33500
X23000Y40000
X21500Y47500
X18000Y47500
X18000Y37000
X20500Y36000
X23000Y36000
X34950Y42450
X35000Y37000
X35000Y33500
X35000Y29600
X22500Y32000
M30