M48
;GenerationSoftware,Autodesk,EAGLE,9.6.2*%
;CreationDate,2024-03-16T18:36:41Z*%
FMAT,2
ICI,OFF
METRIC,TZ,000.000
T5C0.350
T4C0.550
T3C1.016
T2C1.700
T1C3.500
%
G90
M71
T1
X3750Y66250
X66250Y66250
X3750Y3750
X66250Y3750
T2
X17500Y3500
X52500Y3500
X52500Y10500
X17500Y10500
X35000Y3500
X35000Y10500
T3
X28300Y67300
X43800Y67200
X41260Y67200
X38720Y67200
X36180Y67200
T4
X31200Y6450
T5
X34950Y42450
X35000Y37000
X35000Y33500
X35000Y29600
X33250Y27950
X29500Y23000
X35000Y15500
X17500Y7000
X35000Y6500
X52500Y6500
X27500Y20000
X27500Y8000
X27500Y15500
X41000Y15500
X44350Y22200
X12000Y15500
X12000Y8000
X12000Y20500
X16000Y29000
X36500Y59500
X26250Y27250
X26000Y30000
X10000Y56750
X38400Y48400
X31500Y51000
X25750Y51000
X25750Y56500
X19250Y57500
X19250Y53500
X12750Y53500
X19250Y61500
X19250Y66500
X32250Y67500
X6750Y61950
X4250Y61950
X20500Y36000
X4250Y47450
X11250Y42450
X6750Y42450
X11350Y47750
X29750Y56500
X35750Y56500
X44050Y60700
X40700Y42250
X43850Y64850
X19250Y68500
X52500Y19500
X40550Y33500
X40000Y65450
X38950Y64300
X37200Y65550
X37000Y62000
X11000Y51050
X11000Y59500
X35000Y31000
X39200Y24700
X35000Y40250
X15500Y49000
X6250Y13250
X21200Y14100
X39200Y62050
X41700Y2400
X16100Y45650
X22500Y31500
X25100Y27000
X36250Y18800
X36300Y28050
X24500Y22500
X35400Y19800
X25100Y25650
X29350Y37050
X59200Y2400
X3700Y35100
X6750Y47450
X24000Y2500
X13000Y62000
X19500Y40000
X23000Y40000
X21500Y47500
X18000Y47500
X18000Y42500
X18000Y38000
X23000Y36000
X26000Y36500
X40750Y47500
X40200Y62050
M30