M48
;GenerationSoftware,Autodesk,EAGLE,9.6.2*%
;CreationDate,2024-03-01T21:48:03Z*%
FMAT,2
ICI,OFF
METRIC,TZ,000.000
T5C0.350
T4C0.550
T3C1.016
T2C1.700
T1C3.500
%
G90
M71
T1
X3750Y66250
X66250Y66250
X3750Y3750
X66250Y3750
T2
X17500Y3500
X52500Y3500
X52500Y10500
X17500Y10500
X35000Y3500
X35000Y10500
T3
X28300Y67300
X43800Y67200
X41260Y67200
X38720Y67200
X36180Y67200
T4
X31200Y6450
T5
X35000Y44750
X35000Y37000
X35000Y33500
X35000Y29600
X31500Y29600
X29500Y23000
X36500Y24000
X35000Y18500
X17500Y7000
X35000Y6500
X52500Y6500
X27500Y20000
X27500Y8000
X31000Y15000
X38000Y15500
X41000Y19500
X16000Y15500
X12000Y8000
X12000Y20500
X16000Y29000
X38000Y60500
X37050Y65200
X26250Y27250
X26000Y30000
X10000Y56750
X38400Y48400
X31500Y51000
X25750Y51000
X25750Y56500
X19250Y57500
X19250Y53500
X12750Y53500
X19250Y61500
X20500Y36000
X32250Y67500
X6750Y61950
X4250Y61950
X6750Y47450
X4250Y47450
X11250Y42450
X6750Y42450
X11000Y48500
X29750Y56500
X35750Y56500
X40750Y56500
X40700Y45250
X43200Y63250
X19250Y68500
X52500Y19500
X11000Y51050
X11000Y59500
X35000Y31000
X38000Y24000
X41250Y63200
X35000Y40250
X15500Y49000
X6250Y13250
X41700Y2400
X16100Y45650
X22500Y31500
X25100Y27000
X40000Y24650
X40000Y28500
X24500Y22500
X36000Y20150
X25100Y25650
X29350Y37050
X59200Y2400
X3700Y35100
X19250Y66500
X24000Y2500
X13000Y62000
X19500Y40000
X23000Y40000
X22500Y46000
X19500Y45500
X18000Y42000
X18000Y38000
X23000Y36000
X26000Y36500
X26300Y44850
X21200Y14100
M30