G04 EAGLE Gerber RS-274X export*
G75*
%MOMM*%
%FSLAX34Y34*%
%LPD*%
%INSoldermask Bottom*%
%IPPOS*%
%AMOC8*
5,1,8,0,0,1.08239X$1,22.5*%
G01*
%ADD10C,3.703200*%
%ADD11C,1.903200*%
%ADD12C,2.082800*%
%ADD13C,0.959600*%


D10*
X37500Y662500D03*
X662500Y662500D03*
X662500Y37500D03*
X37500Y37500D03*
D11*
X525000Y35000D03*
X525000Y105000D03*
D12*
X460000Y677500D03*
X434600Y677500D03*
X409200Y677500D03*
X383800Y677500D03*
X358400Y677500D03*
X333000Y677500D03*
X307600Y677500D03*
X282200Y677500D03*
D11*
X350000Y35000D03*
X350000Y105000D03*
X175000Y35000D03*
X175000Y105000D03*
D13*
X570000Y207500D03*
X222000Y207500D03*
X460000Y500000D03*
X397500Y207500D03*
X432500Y500000D03*
X400000Y500000D03*
X370000Y500000D03*
X485000Y500000D03*
X235000Y25000D03*
X535000Y500000D03*
X535000Y645000D03*
X230000Y645000D03*
X82500Y645000D03*
X637500Y90000D03*
X447500Y645000D03*
X370000Y645000D03*
X397500Y645000D03*
X422500Y645000D03*
X400000Y247500D03*
X572500Y247500D03*
X497500Y160000D03*
X637500Y182500D03*
X497500Y247500D03*
X462500Y132500D03*
X462500Y25000D03*
X445000Y567500D03*
X345000Y645000D03*
X320000Y645000D03*
X295000Y645000D03*
X267500Y645000D03*
X477500Y645000D03*
X345000Y500000D03*
X320000Y500000D03*
X295000Y500000D03*
X270000Y500000D03*
X342500Y247500D03*
X280000Y247500D03*
X222500Y247500D03*
X157500Y247500D03*
X157500Y165000D03*
X345000Y162500D03*
X412500Y25000D03*
X582500Y25000D03*
X285000Y25000D03*
X285000Y130000D03*
X595000Y130000D03*
X82500Y497500D03*
X82500Y370000D03*
X87500Y252500D03*
X632500Y385000D03*
X632500Y500000D03*
X630000Y645000D03*
M02*
