M48
;GenerationSoftware,Autodesk,EAGLE,9.6.2*%
;CreationDate,2024-02-23T14:30:22Z*%
FMAT,2
ICI,OFF
METRIC,TZ,000.000
T6C0.130
T5C0.300
T4C0.350
T3C1.016
T2C1.700
T1C3.500
%
G90
M71
T1
X3750Y66250
X66250Y66250
X3750Y3750
X66250Y3750
T2
X35000Y3500
X35000Y10500
X17500Y3500
X52500Y10500
X52500Y3500
X17500Y10500
T3
X54780Y68000
X37000Y68000
X39540Y68000
X42080Y68000
X44620Y68000
X47160Y68000
X49700Y68000
X52240Y68000
T4
X33500Y37000
X24500Y44000
X24500Y48000
X43500Y6500
X27650Y33600
X38050Y33650
X52500Y34500
X52500Y25650
X15500Y26000
X10500Y16500
X54000Y63500
X28500Y63000
X33000Y56500
X54000Y56000
X44000Y44500
X38050Y25650
X44050Y25650
X25000Y18500
X60000Y16000
X62000Y6500
X41500Y2500
X50000Y15750
X48000Y21000
X33100Y17500
X36500Y15750
X21196Y15750
X39650Y40250
X39650Y35800
X32450Y38750
X38500Y37000
X32850Y42800
X27600Y26050
X33800Y42800
X39550Y55000
X34750Y42800
X42100Y55000
X35700Y42800
X44600Y55000
X36650Y42800
X47150Y55000
X49700Y55000
X26250Y40750
X33300Y14000
X36900Y17500
X38500Y21000
X34500Y61500
X38500Y63000
X41000Y63000
X43500Y63000
X34500Y64500
X36000Y63000
X46000Y63000
X48500Y63000
X43500Y43500
X13800Y15750
X31750Y47250
X39500Y24000
X28000Y23000
X37000Y55000
X59200Y2400
X17500Y6500
X34950Y6500
X52500Y6500
X26250Y6450
X42500Y18000
X7500Y6500
X52500Y18000
X35050Y32250
X30750Y32250
T5
X32350Y44000
T6
X35930Y39320
X35930Y40680
X34070Y40680
X34070Y39320
X34930Y39820
X34570Y39820
X34930Y40180
X35430Y40680
X34570Y40180
X35930Y39820
M30