M48
;GenerationSoftware,Autodesk,EAGLE,9.6.2*%
;CreationDate,2024-04-21T18:56:50Z*%
FMAT,2
ICI,OFF
METRIC,TZ,000.000
T6C0.130
T5C0.350
T4C1.016
T3C1.700
T2C3.500
%
G90
M71
T2
X3750Y66250
X66250Y66250
X66250Y3750
X3750Y3750
T3
X35000Y3500
X35000Y10500
X52500Y3500
X52500Y10500
X17500Y3500
X17500Y10500
T4
X54780Y68000
X39540Y68000
X42080Y68000
X44620Y68000
X47160Y68000
X49700Y68000
X52240Y68000
X37000Y68000
T5
X40700Y40250
X36500Y49500
X38500Y49500
X40500Y49500
X57000Y18000
X48000Y18000
X38500Y19950
X50000Y20950
X45250Y63700
X50000Y15750
X48800Y20950
X33100Y17500
X36500Y15750
X21196Y15750
X46500Y39000
X39650Y40250
X26250Y41800
X37900Y36250
X50300Y61850
X48500Y64500
X42800Y63750
X40300Y63750
X34500Y60450
X37800Y63750
X35200Y62950
X43300Y55000
X54500Y25650
X47050Y25650
X59200Y2400
X58200Y25600
X44550Y33150
X33300Y14000
X28000Y23000
X39500Y24000
X31450Y46000
X13800Y15750
X43500Y43500
X50300Y63000
X48500Y63000
X46000Y63000
X36250Y63000
X43500Y63000
X41000Y63000
X38500Y63000
X34500Y61500
X38500Y21000
X36900Y17500
X39650Y35800
X26250Y40750
X49750Y55250
X47150Y55000
X37200Y42800
X44600Y55000
X36100Y42800
X42100Y55000
X35000Y42800
X39550Y55000
X33900Y42800
X37000Y55000
X32800Y42800
X38500Y37000
X32450Y38750
X60000Y16000
X10500Y16500
X54000Y66400
X29000Y63000
X34500Y55000
X54000Y55000
X43450Y44500
X38050Y25650
X41550Y25650
X24000Y19500
X28500Y26000
X59150Y6450
X41500Y2500
X50400Y66400
X48450Y66400
X45850Y66400
X46500Y8000
X40800Y66400
X35000Y24450
X38300Y66400
X33750Y37000
X17500Y6500
X34950Y6500
X52500Y6500
X26250Y6450
X42500Y18000
X7500Y6500
X52500Y18000
X35050Y32250
X30750Y32250
X43350Y66400
X27000Y43000
X27050Y48750
X43500Y6500
X28500Y33500
X37400Y33500
X52500Y33000
X50500Y25650
X15500Y26000
X32200Y17900
X37400Y30500
X34500Y66400
X32900Y25450
X20500Y24000
X17000Y19500
X10500Y19500
X17000Y16500
X24000Y16500
X12700Y15750
X22000Y16500
X28500Y30500
X34250Y13600
X38000Y17450
X35650Y15100
X50000Y16750
X12000Y13000
X12000Y9000
X24000Y8500
X29500Y8500
X42500Y8000
X29700Y50500
X42750Y49500
X30550Y46000
X49500Y51750
X32900Y29950
X38000Y44750
X27500Y63000
X38250Y55000
X40800Y55000
X45900Y55000
X48400Y55000
X34200Y49500
X36000Y37000
X48850Y49450
X30500Y37000
X32900Y34950
T6
X35930Y39320
X34570Y39820
X34070Y39320
X35930Y40680
X34070Y40680
X34570Y40180
X34930Y40180
X34930Y39820
X35430Y40680
X35930Y39820
M30