M48
;GenerationSoftware,Autodesk,EAGLE,9.6.2*%
;CreationDate,2024-03-16T17:49:34Z*%
FMAT,2
ICI,OFF
METRIC,TZ,000.000
T5C0.130
T4C0.350
T3C1.016
T2C1.700
T1C3.500
%
G90
M71
T1
X3750Y66250
X66250Y66250
X3750Y3750
X66250Y3750
T2
X52500Y3500
X35000Y10500
X35000Y3500
X52500Y10500
X17500Y3500
X17500Y10500
T3
X54780Y68000
X37000Y68000
X39540Y68000
X42080Y68000
X44620Y68000
X47160Y68000
X49700Y68000
X52240Y68000
T4
X27650Y33600
X38050Y33650
X52500Y34500
X52500Y25650
X15500Y26000
X27600Y26050
X10500Y16500
X54000Y66400
X30000Y63000
X34500Y55000
X54000Y55000
X43500Y44750
X38050Y25650
X44050Y25650
X25000Y18500
X60000Y16000
X62000Y6500
X41500Y2500
X50400Y66400
X48450Y66400
X45850Y66400
X43350Y66400
X40800Y66400
X35000Y24450
X38300Y66400
X34500Y66400
X29700Y52000
X49500Y49250
X49500Y51750
X29750Y46250
X42750Y49450
X38000Y44750
X26000Y63000
X50000Y15750
X48800Y20950
X33100Y17500
X36500Y15750
X21196Y15750
X33500Y37000
X39650Y35800
X32450Y38750
X38500Y37000
X32800Y42800
X37000Y55000
X33900Y42800
X39550Y55000
X35000Y42800
X42100Y55000
X36100Y42800
X44600Y55000
X37200Y42800
X47150Y55000
X49750Y55250
X26250Y40750
X33300Y14000
X36900Y17500
X38500Y21000
X34500Y61500
X38500Y63000
X41000Y63000
X43500Y63000
X46000Y63000
X48500Y63000
X50300Y63000
X43500Y43500
X13800Y15750
X31500Y46500
X39500Y24000
X28000Y23000
X39650Y40250
X59200Y2400
X17500Y6500
X34950Y6500
X52500Y6500
X26250Y6450
X42500Y18000
X7500Y6500
X52500Y18000
X35050Y32250
X30750Y32250
X26000Y44000
X26000Y48500
X43500Y6500
X36250Y63000
T5
X35930Y39320
X35930Y40680
X34930Y39820
X34930Y40180
X34570Y40180
X35930Y39820
X34070Y40680
X34570Y39820
X35430Y40680
X34070Y39320
M30