M48
;GenerationSoftware,Autodesk,EAGLE,9.6.2*%
;CreationDate,2024-04-21T22:31:32Z*%
FMAT,2
ICI,OFF
METRIC,TZ,000.000
T4C0.350
T3C1.016
T2C3.500
%
G90
M71
T2
X3750Y66250
X66250Y66250
X3750Y3750
X66250Y3750
T3
X57320Y68000
X37000Y68000
X39540Y68000
X44620Y68000
X47160Y68000
X49700Y68000
X52240Y68000
X54780Y68000
X42080Y68000
T4
X57200Y58900
X36100Y50450
X40500Y50450
X48200Y50600
X47800Y58850
X44450Y58850
X41100Y58850
X54400Y58850
X51150Y58850
X37600Y65450
X55600Y65450
X52450Y57600
X55750Y57600
X42500Y57550
X45750Y57600
X49100Y57600
X51900Y49350
X42250Y50450
X42050Y61700
X37250Y60450
X48050Y61650
X39000Y58850
X50300Y56750
X43300Y61450
X49300Y61450
X46300Y61450
X52950Y49350
X46950Y56750
X43600Y56750
X40250Y56750
X53600Y56750
X43650Y50250
X35900Y66400
X38300Y66400
X40800Y66400
X43350Y66400
X45850Y66400
X48450Y66400
X51100Y66400
X45100Y61650
X60400Y65450
X52600Y65450
X40600Y65450
X60450Y63400
X43600Y65300
X46600Y65350
X49600Y65300
X38050Y59750
X54800Y66300
X38350Y54650
X58200Y58550
X37550Y50450
X39050Y50450
X43650Y53550
X46950Y53550
X46950Y50250
M30